<?xml version="1.0" encoding="utf-8"?>
<!-- Generator: Adobe Illustrator 25.2.1, SVG Export Plug-In . SVG Version: 6.00 Build 0)  -->
<svg version="1.1" id="Layer_1" xmlns="http://www.w3.org/2000/svg" xmlns:xlink="http://www.w3.org/1999/xlink" x="0px" y="0px"
	 viewBox="0 0 360 47" style="enable-background:new 0 0 360 47;" xml:space="preserve">
<style type="text/css">
	.st0{fill:#FFFFFF;}
	.st1{fill:none;stroke:#020203;stroke-width:2;stroke-linecap:round;stroke-linejoin:round;}
	.st2{fill:none;stroke:#000000;stroke-width:2;stroke-linecap:round;stroke-linejoin:round;}
</style>
<rect x="0.28" class="st0" width="360" height="47"/>
<g>
	<path d="M24.14,12.15c-0.02,0.02-0.05,0.07-0.08,0.16c-0.03,0.08-0.05,0.23-0.05,0.43c0,0.29,0.04,0.57,0.12,0.84v10.26
		c0,1.05-0.1,2.07-0.31,3.04c-0.21,0.97-0.56,1.83-1.07,2.59c-0.51,0.75-1.2,1.35-2.08,1.8c-0.88,0.44-2,0.67-3.36,0.67h-0.4
		c-1.18,0-2.13-0.16-2.87-0.48c-0.73-0.32-1.31-0.73-1.72-1.22c-0.41-0.5-0.69-1.04-0.84-1.63c-0.14-0.59-0.22-1.15-0.22-1.69
		c0-0.45,0.06-0.89,0.17-1.32c0.11-0.42,0.28-0.8,0.5-1.12c0.22-0.32,0.48-0.58,0.79-0.77c0.31-0.2,0.66-0.29,1.05-0.29
		c0.37,0,0.61,0.1,0.71,0.29c0.1,0.2,0.15,0.4,0.15,0.6c0,0.46-0.09,0.83-0.28,1.13c-0.19,0.3-0.39,0.56-0.6,0.79
		c-0.22,0.23-0.42,0.45-0.6,0.68s-0.28,0.51-0.28,0.84c0,0.99,0.33,1.71,0.99,2.14c0.66,0.43,1.49,0.65,2.48,0.65
		c0.87,0,1.62-0.18,2.26-0.53c0.64-0.35,1.17-0.79,1.6-1.33c0.42-0.54,0.74-1.12,0.95-1.75c0.21-0.63,0.31-1.22,0.31-1.78
		l-0.46,0.03c-0.74,0-1.39-0.17-1.94-0.51c-0.55-0.34-1-0.77-1.36-1.29c-0.36-0.52-0.63-1.07-0.81-1.67
		c-0.18-0.6-0.26-1.16-0.26-1.67v-1.08c0-0.39,0.05-0.85,0.16-1.38c0.1-0.53,0.25-1.07,0.43-1.64c0.19-0.57,0.41-1.13,0.68-1.67
		c0.27-0.55,0.56-1.04,0.87-1.47s0.64-0.79,0.99-1.05c0.35-0.27,0.71-0.4,1.08-0.4c0.14,0,0.31,0.03,0.5,0.09l2.17,0.16
		c0.14,0.02,0.28,0.07,0.42,0.15C24.07,11.8,24.14,11.94,24.14,12.15z M21.47,15.87c0.04-0.17,0.08-0.32,0.12-0.47
		c0.04-0.14,0.06-0.31,0.06-0.5c0-0.27-0.07-0.51-0.2-0.73c-0.13-0.22-0.38-0.33-0.73-0.33c-0.46,0-0.83,0.19-1.12,0.56
		c-0.29,0.37-0.51,0.82-0.67,1.33c-0.15,0.52-0.26,1.05-0.33,1.61s-0.09,1.01-0.09,1.36c0,0.27,0.02,0.66,0.06,1.16
		c0.04,0.51,0.14,1.01,0.29,1.5c0.16,0.5,0.37,0.93,0.65,1.3c0.28,0.37,0.66,0.56,1.13,0.56c0.04,0,0.16-0.01,0.36-0.03
		c0.2-0.02,0.35-0.05,0.45-0.09V15.87z"/>
	<path d="M31.24,23.93c-0.31,0.43-0.56,0.91-0.76,1.44c-0.2,0.53-0.37,1.07-0.51,1.64s-0.26,1.14-0.36,1.71
		c-0.09,0.57-0.19,1.11-0.29,1.63c-0.04,0.12-0.2,0.21-0.48,0.25c-0.28,0.04-0.48,0.06-0.6,0.06c-0.37,0-0.68-0.02-0.91-0.06
		c-0.24-0.04-0.42-0.14-0.54-0.29s-0.22-0.39-0.28-0.71s-0.11-0.75-0.16-1.29l0.4-9.21c0-0.27,0.14-0.4,0.43-0.4
		c0.1,0,0.25,0.02,0.43,0.05c0.19,0.03,0.38,0.08,0.59,0.14c0.21,0.06,0.38,0.14,0.53,0.23c0.14,0.09,0.22,0.2,0.22,0.33v6.29
		c0.02-0.02,0.05-0.1,0.09-0.25c0.14-0.37,0.32-0.83,0.53-1.38c0.21-0.55,0.43-1.07,0.68-1.56c0.25-0.5,0.51-0.92,0.79-1.27
		c0.28-0.35,0.56-0.53,0.85-0.53c0.37,0,0.66,0.09,0.85,0.26c0.2,0.18,0.35,0.4,0.45,0.67c0.1,0.27,0.17,0.56,0.19,0.87
		c0.02,0.31,0.03,0.61,0.03,0.9c0,0.21-0.02,0.55-0.06,1.02c-0.04,0.48-0.06,1.19-0.06,2.14c0,0.54,0.05,1.02,0.15,1.46
		c0.1,0.43,0.31,0.65,0.62,0.65c0.23,0,0.43-0.1,0.62-0.31c0.19-0.21,0.36-0.46,0.51-0.78c0.16-0.31,0.28-0.64,0.39-0.99
		c0.1-0.35,0.17-0.68,0.19-0.99c0.02-0.39,0.18-0.59,0.46-0.59c0.19,0,0.31,0.06,0.37,0.19s0.09,0.27,0.09,0.43v0.06
		c-0.02,0.41-0.1,0.88-0.23,1.39c-0.13,0.52-0.33,1-0.59,1.46c-0.26,0.46-0.59,0.84-1.01,1.15c-0.41,0.31-0.92,0.46-1.52,0.46
		c-0.93,0-1.52-0.34-1.78-1.01c-0.26-0.67-0.39-1.67-0.39-2.99L31.24,23.93z"/>
	<path d="M43.33,28.77c0,0.5-0.17,0.88-0.5,1.15s-0.71,0.46-1.13,0.59c-0.42,0.12-0.85,0.2-1.27,0.23
		c-0.42,0.03-0.73,0.05-0.91,0.05c-0.29,0-0.65-0.03-1.07-0.09c-0.42-0.06-0.84-0.16-1.24-0.29c-0.4-0.13-0.74-0.33-1.02-0.57
		s-0.42-0.56-0.42-0.93c0-0.23,0.09-0.39,0.26-0.48c0.18-0.09,0.35-0.14,0.51-0.14c0.23,0,0.45,0.08,0.67,0.25s0.44,0.34,0.68,0.53
		c0.24,0.19,0.5,0.36,0.79,0.53c0.29,0.17,0.62,0.25,0.99,0.25c0.17,0,0.39-0.06,0.67-0.17c0.28-0.11,0.42-0.31,0.42-0.6
		c0-0.29-0.12-0.57-0.36-0.84c-0.24-0.27-0.54-0.55-0.9-0.84c-0.36-0.29-0.75-0.59-1.16-0.9c-0.41-0.31-0.8-0.65-1.16-1.01
		c-0.36-0.36-0.66-0.76-0.9-1.19c-0.24-0.43-0.36-0.91-0.36-1.43c0-0.72,0.23-1.33,0.7-1.83c0.46-0.5,1.01-0.89,1.64-1.18
		c0.63-0.29,1.28-0.5,1.94-0.62c0.66-0.12,1.18-0.19,1.55-0.19c0.35,0,0.7,0.07,1.05,0.22c0.35,0.15,0.53,0.42,0.53,0.84
		c0,0.12-0.03,0.31-0.08,0.54c-0.05,0.24-0.13,0.47-0.25,0.7c-0.11,0.23-0.26,0.43-0.45,0.6c-0.19,0.18-0.42,0.26-0.71,0.26
		c-0.08,0-0.17-0.04-0.25-0.11c-0.08-0.07-0.18-0.15-0.28-0.25c-0.1-0.09-0.21-0.18-0.33-0.25c-0.11-0.07-0.24-0.11-0.39-0.11
		c-0.72,0-1.23,0.21-1.52,0.64c-0.29,0.42-0.43,0.87-0.43,1.35c0,0.41,0.24,0.85,0.73,1.3c0.49,0.45,1.02,0.91,1.61,1.36
		c0.59,0.46,1.13,0.9,1.61,1.35C43.08,27.92,43.33,28.35,43.33,28.77z"/>
	<path d="M44.01,25.08c0.02-1.05,0.05-2.13,0.09-3.22c0.04-1.1,0.08-2.11,0.12-3.04c0-0.17-0.17-0.28-0.5-0.34
		c-0.33-0.06-0.7-0.12-1.12-0.19c-0.41-0.06-0.79-0.16-1.12-0.29S41,17.64,41,17.33c0-0.27,0.27-0.42,0.81-0.47
		c0.54-0.04,1.33-0.06,2.39-0.06c0.08,0,0.14-0.12,0.17-0.37c0.03-0.25,0.05-0.56,0.06-0.95c0.01-0.38,0.02-0.79,0.03-1.22
		c0.01-0.43,0.03-0.84,0.05-1.22s0.06-0.7,0.11-0.95s0.12-0.37,0.2-0.37c0.1,0,0.29,0.02,0.56,0.06c0.27,0.04,0.55,0.1,0.84,0.17
		c0.29,0.07,0.54,0.16,0.76,0.26c0.22,0.1,0.33,0.22,0.33,0.34l-0.34,4.03c0,0.12,0.11,0.21,0.33,0.26c0.22,0.05,0.5,0.08,0.84,0.09
		c0.34,0.01,0.7,0.02,1.08,0.02c0.38,0,0.74,0.03,1.08,0.09c0.34,0.06,0.62,0.16,0.84,0.29c0.22,0.13,0.33,0.34,0.33,0.6
		c0,0.04-0.02,0.11-0.06,0.2c-0.04,0.09-0.09,0.14-0.16,0.14c-0.04,0-0.1-0.03-0.17-0.09c-0.07-0.06-0.26-0.09-0.57-0.09
		c-0.08,0-0.31,0.01-0.68,0.03c-0.37,0.02-0.77,0.05-1.18,0.09c-0.41,0.04-0.79,0.09-1.13,0.14c-0.34,0.05-0.53,0.12-0.57,0.2
		c-0.02,0.04-0.05,0.28-0.08,0.73c-0.03,0.44-0.06,1.03-0.09,1.75c-0.03,0.72-0.06,1.56-0.08,2.5c-0.02,0.94-0.03,1.93-0.03,2.96
		c0,0.39,0.02,0.78,0.06,1.15c0.04,0.37,0.1,0.71,0.19,1.01c0.08,0.3,0.19,0.54,0.33,0.73c0.13,0.19,0.29,0.28,0.48,0.28
		c0.27,0,0.52-0.11,0.74-0.34c0.23-0.23,0.43-0.54,0.62-0.93s0.35-0.84,0.5-1.33c0.14-0.5,0.27-1,0.37-1.52
		c0.06-0.31,0.13-0.53,0.22-0.67c0.08-0.13,0.21-0.2,0.37-0.2c0.14,0,0.27,0.05,0.39,0.14c0.11,0.09,0.17,0.31,0.17,0.64
		c0,0.21-0.01,0.34-0.03,0.4c-0.06,0.37-0.18,0.88-0.36,1.53c-0.18,0.65-0.41,1.29-0.71,1.92c-0.3,0.63-0.67,1.18-1.1,1.66
		c-0.43,0.48-0.94,0.71-1.52,0.71c-0.56,0-1.04-0.16-1.46-0.48c-0.41-0.32-0.76-0.76-1.04-1.33c-0.28-0.57-0.49-1.24-0.64-2.02
		c-0.15-0.77-0.22-1.61-0.22-2.5V25.08z"/>
	<path d="M62.39,27.31c-0.04,0.29-0.15,0.63-0.31,1.02c-0.17,0.39-0.38,0.77-0.64,1.13c-0.26,0.36-0.56,0.67-0.9,0.91
		s-0.72,0.37-1.13,0.37c-0.62,0-1.16-0.24-1.63-0.71c-0.47-0.47-0.75-1.15-0.85-2.01c-0.12,0.33-0.27,0.71-0.43,1.15
		c-0.17,0.43-0.37,0.84-0.62,1.21s-0.53,0.69-0.85,0.95c-0.32,0.26-0.7,0.39-1.13,0.39c-0.12,0-0.22-0.01-0.28-0.03
		c-0.06-0.02-0.13-0.05-0.2-0.08c-0.07-0.03-0.16-0.06-0.25-0.08c-0.09-0.02-0.22-0.03-0.39-0.03c-0.5,0-0.91-0.16-1.26-0.48
		s-0.62-0.73-0.82-1.22c-0.21-0.5-0.36-1.04-0.45-1.63c-0.09-0.59-0.14-1.14-0.14-1.66c0-1.24,0.07-2.42,0.2-3.53
		c0.13-1.12,0.36-2.1,0.67-2.96c0.31-0.86,0.71-1.54,1.21-2.05c0.5-0.51,1.1-0.76,1.8-0.76c0.41,0,0.73,0.04,0.95,0.11
		c0.22,0.07,0.42,0.15,0.6,0.25c0.19,0.09,0.39,0.19,0.6,0.29c0.22,0.1,0.52,0.19,0.91,0.25c0.43,0.25,0.74,0.54,0.91,0.88
		c0.18,0.34,0.29,0.71,0.34,1.1c0.05,0.39,0.07,0.8,0.05,1.22c-0.02,0.42,0,0.84,0.06,1.26c0,0.02,0.05,0.05,0.14,0.09
		c0.09,0.04,0.2,0.09,0.33,0.14c0.12,0.05,0.23,0.12,0.33,0.22c0.09,0.09,0.14,0.21,0.14,0.36v0.12c-0.21,0.54-0.33,1.01-0.37,1.43
		c-0.04,0.41-0.06,0.91-0.06,1.49c0,0.29,0.02,0.6,0.05,0.95c0.03,0.34,0.08,0.66,0.16,0.96c0.07,0.3,0.18,0.55,0.33,0.74
		c0.14,0.2,0.33,0.29,0.56,0.29c0.25,0,0.47-0.12,0.67-0.37c0.2-0.25,0.36-0.53,0.5-0.85c0.13-0.32,0.25-0.65,0.34-0.98
		c0.09-0.33,0.15-0.58,0.17-0.74c0.04-0.25,0.14-0.37,0.31-0.37c0.1,0,0.2,0.06,0.29,0.17c0.09,0.11,0.14,0.32,0.14,0.6
		c0,0.08,0,0.16,0,0.23S62.41,27.21,62.39,27.31z M56.66,22.29c0-0.23-0.02-0.5-0.06-0.81s-0.11-0.6-0.22-0.87
		c-0.1-0.27-0.26-0.5-0.46-0.68c-0.21-0.19-0.49-0.28-0.84-0.28c-0.58,0-1.05,0.26-1.41,0.79c-0.36,0.53-0.65,1.15-0.85,1.86
		c-0.21,0.71-0.34,1.45-0.4,2.2c-0.06,0.75-0.09,1.35-0.09,1.78c0,0.33,0.02,0.73,0.05,1.19c0.03,0.46,0.09,0.9,0.17,1.32
		c0.08,0.41,0.2,0.77,0.36,1.05c0.15,0.29,0.36,0.43,0.6,0.43c0.6,0,1.06-0.23,1.38-0.7c0.32-0.46,0.56-1.04,0.73-1.74
		c0.17-0.69,0.28-1.44,0.36-2.23c0.07-0.8,0.14-1.52,0.2-2.19c0.04-0.35,0.13-0.57,0.28-0.67c0.14-0.09,0.22-0.16,0.22-0.2V22.29z"
		/>
	<path d="M71.75,31.49c0,0.21-0.09,0.35-0.28,0.43c-0.19,0.08-0.36,0.12-0.53,0.12l-0.62-0.06c-0.1,0-0.15,0.06-0.15,0.19
		l-0.03,0.37c0.02,0.56,0.03,1.26,0.03,2.11c0,0.85,0,1.66,0,2.45c0,0.83-0.03,1.64-0.08,2.43c-0.05,0.79-0.17,1.51-0.36,2.14
		c-0.19,0.63-0.45,1.14-0.79,1.52c-0.34,0.38-0.81,0.57-1.41,0.57c-0.52,0-1.06-0.03-1.63-0.08s-1.08-0.18-1.55-0.39
		c-0.46-0.21-0.85-0.51-1.15-0.92c-0.3-0.4-0.45-0.95-0.45-1.63c0-0.68,0.08-1.38,0.23-2.09c0.16-0.71,0.38-1.41,0.67-2.08
		c0.29-0.67,0.64-1.31,1.04-1.92c0.41-0.61,0.85-1.15,1.33-1.63c0.25-0.25,0.53-0.5,0.83-0.76c0.3-0.26,0.57-0.47,0.79-0.64v-0.03
		c0.04-0.43,0.07-0.87,0.09-1.3c0.02-0.43,0.03-0.88,0.03-1.33c-0.1,0.19-0.23,0.44-0.37,0.76c-0.15,0.32-0.32,0.62-0.51,0.91
		c-0.2,0.29-0.42,0.54-0.67,0.76c-0.25,0.22-0.53,0.33-0.84,0.33c-0.17,0-0.31-0.03-0.44-0.09c-0.12-0.06-0.3-0.09-0.53-0.09
		c-0.58-0.04-1.06-0.2-1.45-0.47c-0.38-0.27-0.69-0.64-0.9-1.12c-0.22-0.48-0.37-1.04-0.45-1.69c-0.08-0.65-0.12-1.38-0.12-2.19
		c0-0.97,0.06-1.97,0.17-3.01c0.11-1.03,0.32-1.98,0.61-2.84c0.29-0.86,0.68-1.56,1.17-2.11c0.49-0.55,1.1-0.82,1.85-0.82
		c0.08,0,0.19,0.03,0.33,0.09c0.13,0.06,0.28,0.13,0.44,0.2c0.16,0.07,0.31,0.14,0.47,0.22c0.16,0.07,0.27,0.12,0.36,0.14
		c0.42,0.08,0.8,0.19,1.15,0.31c0.35,0.12,0.65,0.28,0.9,0.48c0.25,0.2,0.45,0.45,0.59,0.77c0.15,0.32,0.22,0.72,0.22,1.19
		c0,0.33-0.03,0.63-0.08,0.9s-0.08,0.61-0.08,1.02c0,0.17,0.06,0.28,0.18,0.34c0.12,0.06,0.25,0.11,0.4,0.15
		c0.15,0.04,0.29,0.09,0.41,0.14c0.12,0.05,0.19,0.16,0.19,0.33c0,0.04-0.05,0.14-0.14,0.29c-0.09,0.15-0.15,0.25-0.17,0.29
		c-0.06,0.17-0.11,0.43-0.15,0.79c-0.04,0.36-0.07,0.75-0.09,1.18s-0.04,0.86-0.05,1.3c-0.01,0.45-0.02,0.84-0.02,1.19
		c0,0.27,0,0.63,0,1.07s0.01,0.81,0.03,1.1h0.12c0.04,0,0.08,0,0.12-0.01c0.04-0.01,0.07-0.02,0.09-0.02c0.19,0,0.44,0.06,0.76,0.17
		C71.59,31.09,71.75,31.27,71.75,31.49z M67.82,21.91c0-0.23-0.02-0.49-0.06-0.77s-0.11-0.56-0.22-0.82
		c-0.1-0.26-0.25-0.48-0.45-0.65c-0.2-0.18-0.44-0.26-0.73-0.26c-0.4,0-0.76,0.16-1.11,0.47s-0.65,0.75-0.91,1.32
		c-0.26,0.57-0.47,1.26-0.62,2.08c-0.16,0.82-0.23,1.74-0.23,2.77c0,0.43,0.02,0.88,0.05,1.35c0.03,0.46,0.08,0.88,0.15,1.26
		c0.07,0.37,0.19,0.68,0.34,0.93c0.15,0.25,0.36,0.37,0.6,0.37c0.43,0,0.82-0.19,1.15-0.56c0.33-0.37,0.6-0.83,0.82-1.38
		s0.38-1.12,0.5-1.71c0.11-0.59,0.18-1.1,0.2-1.53c0.02-0.6,0.05-1.01,0.1-1.22c0.04-0.22,0.09-0.36,0.13-0.42
		c0.13-0.17,0.21-0.36,0.25-0.59C67.8,22.31,67.82,22.1,67.82,21.91z M67.69,32.67c-0.48,0.33-0.93,0.8-1.36,1.4
		c-0.43,0.6-0.8,1.25-1.11,1.95c-0.31,0.7-0.56,1.42-0.73,2.14s-0.27,1.37-0.27,1.95c0,0.21,0.02,0.43,0.06,0.68
		c0.04,0.25,0.11,0.48,0.2,0.7c0.09,0.22,0.23,0.4,0.41,0.54s0.39,0.22,0.64,0.22c0.44,0,0.8-0.18,1.08-0.54
		c0.28-0.36,0.5-0.79,0.66-1.29c0.16-0.5,0.26-1,0.31-1.52s0.08-0.93,0.08-1.24c0-0.06,0-0.16,0-0.28s0-0.36,0.02-0.71
		c0.01-0.35,0.02-0.84,0.02-1.47C67.69,34.57,67.69,33.73,67.69,32.67z"/>
	<path d="M81.02,26.32c0,0.14-0.05,0.49-0.14,1.04c-0.09,0.55-0.26,1.13-0.5,1.74s-0.56,1.15-0.96,1.63
		c-0.4,0.48-0.91,0.71-1.53,0.71c-0.66,0-1.19-0.23-1.58-0.7c-0.39-0.46-0.69-1.02-0.9-1.67c-0.21-0.65-0.34-1.33-0.4-2.05
		s-0.09-1.31-0.09-1.78c0-0.54,0.03-1.08,0.09-1.63s0.1-1.09,0.12-1.63c0-0.17-0.08-0.27-0.25-0.31c-0.17-0.04-0.32-0.06-0.46-0.06
		c-0.25,0-0.4,0.03-0.46,0.09c-0.06,0.06-0.1,0.13-0.12,0.22l-0.12,0.99c-0.08,0.66-0.17,1.3-0.26,1.91
		c-0.09,0.61-0.2,1.15-0.31,1.61c-0.11,0.46-0.25,0.84-0.4,1.12c-0.16,0.28-0.34,0.42-0.54,0.42h-0.03c-0.08,0-0.16-0.02-0.23-0.06
		s-0.11-0.14-0.11-0.31c0-0.08,0.02-0.21,0.06-0.37c0.17-0.72,0.27-1.32,0.31-1.8c0.04-0.47,0.07-0.9,0.09-1.27v-0.22
		c0-0.1,0-0.23,0.02-0.37c0.01-0.14,0.02-0.32,0.02-0.53v-0.81c0-0.23,0-0.47,0-0.71c0-0.25-0.02-0.52-0.06-0.81l-0.09-1.83
		c0-0.12,0.05-0.24,0.16-0.34c0.1-0.1,0.24-0.2,0.4-0.28c0.17-0.08,0.34-0.14,0.53-0.19c0.19-0.04,0.35-0.06,0.5-0.06
		c0.35,0,0.53,0.23,0.53,0.68v0.16l-0.03,0.68v0.19c0,0.15,0.03,0.23,0.09,0.26c0.06,0.03,0.19,0.07,0.37,0.11h0.09
		c0.17,0.02,0.43,0.04,0.81,0.06c0.37,0.02,0.74,0.06,1.12,0.12s0.7,0.16,0.98,0.29c0.28,0.13,0.42,0.33,0.42,0.57
		c0,0.08-0.02,0.2-0.06,0.36c-0.04,0.15-0.09,0.31-0.15,0.46c-0.06,0.16-0.11,0.29-0.16,0.42s-0.06,0.21-0.06,0.25
		c-0.37,1.43-0.56,2.91-0.56,4.46c0,0.12,0.01,0.35,0.03,0.68c0.02,0.33,0.06,0.67,0.12,1.02c0.06,0.35,0.15,0.66,0.28,0.93
		s0.28,0.4,0.47,0.4c0.31,0,0.59-0.19,0.84-0.57c0.25-0.38,0.46-0.83,0.65-1.33c0.19-0.51,0.34-1.02,0.45-1.53
		c0.11-0.52,0.19-0.9,0.23-1.15c0.04-0.23,0.11-0.37,0.2-0.42c0.09-0.05,0.18-0.08,0.26-0.08c0.29,0,0.43,0.19,0.43,0.56
		c0,0.04-0.01,0.15-0.02,0.33C81.06,26.1,81.04,26.23,81.02,26.32z"/>
	<path d="M92.4,27.31c-0.04,0.29-0.15,0.63-0.31,1.02c-0.17,0.39-0.38,0.77-0.64,1.13c-0.26,0.36-0.56,0.67-0.9,0.91
		s-0.72,0.37-1.13,0.37c-0.62,0-1.16-0.24-1.63-0.71c-0.47-0.47-0.75-1.15-0.85-2.01c-0.12,0.33-0.27,0.71-0.43,1.15
		c-0.17,0.43-0.37,0.84-0.62,1.21s-0.53,0.69-0.85,0.95c-0.32,0.26-0.7,0.39-1.13,0.39c-0.12,0-0.22-0.01-0.28-0.03
		c-0.06-0.02-0.13-0.05-0.2-0.08c-0.07-0.03-0.16-0.06-0.25-0.08c-0.09-0.02-0.22-0.03-0.39-0.03c-0.5,0-0.91-0.16-1.26-0.48
		s-0.62-0.73-0.82-1.22c-0.21-0.5-0.36-1.04-0.45-1.63c-0.09-0.59-0.14-1.14-0.14-1.66c0-1.24,0.07-2.42,0.2-3.53
		c0.13-1.12,0.36-2.1,0.67-2.96c0.31-0.86,0.71-1.54,1.21-2.05c0.5-0.51,1.1-0.76,1.8-0.76c0.41,0,0.73,0.04,0.95,0.11
		c0.22,0.07,0.42,0.15,0.6,0.25c0.19,0.09,0.39,0.19,0.6,0.29c0.22,0.1,0.52,0.19,0.91,0.25c0.43,0.25,0.74,0.54,0.91,0.88
		c0.18,0.34,0.29,0.71,0.34,1.1c0.05,0.39,0.07,0.8,0.05,1.22c-0.02,0.42,0,0.84,0.06,1.26c0,0.02,0.05,0.05,0.14,0.09
		c0.09,0.04,0.2,0.09,0.33,0.14c0.12,0.05,0.23,0.12,0.33,0.22c0.09,0.09,0.14,0.21,0.14,0.36v0.12c-0.21,0.54-0.33,1.01-0.37,1.43
		c-0.04,0.41-0.06,0.91-0.06,1.49c0,0.29,0.02,0.6,0.05,0.95c0.03,0.34,0.08,0.66,0.16,0.96c0.07,0.3,0.18,0.55,0.33,0.74
		c0.14,0.2,0.33,0.29,0.56,0.29c0.25,0,0.47-0.12,0.67-0.37c0.2-0.25,0.36-0.53,0.5-0.85c0.13-0.32,0.25-0.65,0.34-0.98
		c0.09-0.33,0.15-0.58,0.17-0.74c0.04-0.25,0.14-0.37,0.31-0.37c0.1,0,0.2,0.06,0.29,0.17c0.09,0.11,0.14,0.32,0.14,0.6
		c0,0.08,0,0.16,0,0.23S92.42,27.21,92.4,27.31z M86.66,22.29c0-0.23-0.02-0.5-0.06-0.81s-0.11-0.6-0.22-0.87
		c-0.1-0.27-0.26-0.5-0.46-0.68c-0.21-0.19-0.49-0.28-0.84-0.28c-0.58,0-1.05,0.26-1.41,0.79c-0.36,0.53-0.65,1.15-0.85,1.86
		c-0.21,0.71-0.34,1.45-0.4,2.2c-0.06,0.75-0.09,1.35-0.09,1.78c0,0.33,0.02,0.73,0.05,1.19c0.03,0.46,0.09,0.9,0.17,1.32
		c0.08,0.41,0.2,0.77,0.36,1.05c0.15,0.29,0.36,0.43,0.6,0.43c0.6,0,1.06-0.23,1.38-0.7c0.32-0.46,0.56-1.04,0.73-1.74
		c0.17-0.69,0.28-1.44,0.36-2.23c0.07-0.8,0.14-1.52,0.2-2.19c0.04-0.35,0.13-0.57,0.28-0.67c0.14-0.09,0.22-0.16,0.22-0.2V22.29z"
		/>
	<path d="M101.88,23.06c-0.29,0.56-0.56,1.15-0.81,1.77s-0.43,1.11-0.56,1.46c-0.02,0.1-0.08,0.32-0.17,0.65
		c-0.09,0.33-0.2,0.7-0.31,1.1c-0.11,0.4-0.21,0.8-0.29,1.19c-0.08,0.39-0.12,0.71-0.12,0.96c0,0.1-0.09,0.2-0.28,0.28
		c-0.19,0.08-0.42,0.12-0.71,0.12c-0.46,0-0.82-0.06-1.09-0.19s-0.47-0.33-0.6-0.6s-0.22-0.65-0.25-1.1c-0.03-0.45-0.05-1-0.05-1.64
		v-2.33c0-0.17-0.01-0.33-0.02-0.5c-0.01-0.17-0.05-0.27-0.11-0.31c-0.1,0.04-0.23,0.31-0.39,0.81c-0.16,0.5-0.3,1.1-0.43,1.81
		c-0.13,0.71-0.25,1.46-0.36,2.25c-0.1,0.79-0.16,1.49-0.16,2.11c0,0.23-0.12,0.36-0.36,0.4c-0.24,0.04-0.5,0.06-0.79,0.06
		c-0.08,0-0.22-0.02-0.42-0.05c-0.2-0.03-0.39-0.07-0.59-0.11c-0.2-0.04-0.38-0.1-0.54-0.17c-0.17-0.07-0.27-0.16-0.31-0.26
		c-0.1-0.27-0.18-0.71-0.23-1.33c-0.05-0.62-0.08-1.58-0.08-2.88c0-0.76,0.02-1.65,0.05-2.67c0.03-1.01,0.07-2.2,0.11-3.56
		c0-0.19-0.01-0.43-0.03-0.73c-0.02-0.3-0.03-0.47-0.03-0.51c0-0.17,0.07-0.26,0.2-0.29c0.13-0.03,0.23-0.05,0.29-0.05
		c0.14,0,0.31,0.02,0.51,0.05c0.2,0.03,0.39,0.07,0.59,0.11c0.2,0.04,0.38,0.09,0.54,0.14c0.17,0.05,0.28,0.1,0.34,0.14v7.47
		c0.1-0.41,0.22-0.89,0.36-1.44c0.13-0.55,0.29-1.09,0.46-1.63c0.18-0.54,0.37-1.03,0.57-1.49c0.21-0.45,0.42-0.79,0.65-0.99
		c0.08-0.06,0.24-0.11,0.46-0.14c0.23-0.03,0.41-0.05,0.56-0.05c0.1,0,0.23,0.02,0.39,0.05c0.15,0.03,0.3,0.08,0.45,0.14
		s0.27,0.14,0.39,0.23c0.11,0.09,0.18,0.2,0.2,0.33v5.02v0.28c0,0.12,0.02,0.19,0.06,0.19s0.16-0.28,0.35-0.84
		c0.19-0.56,0.43-1.22,0.69-1.98c0.27-0.76,0.56-1.55,0.86-2.36s0.58-1.45,0.83-1.92c0.04-0.08,0.18-0.13,0.42-0.14
		c0.24-0.01,0.45-0.02,0.63-0.02c0.14,0,0.34,0.05,0.58,0.14c0.25,0.09,0.49,0.22,0.73,0.39c0.24,0.17,0.44,0.35,0.62,0.56
		c0.18,0.21,0.26,0.42,0.26,0.65c0,0.04-0.06,0.16-0.19,0.36s-0.21,0.4-0.25,0.6c-0.15,0.58-0.24,1.15-0.29,1.7
		c-0.05,0.56-0.08,1.27-0.08,2.14c0,0.37,0.02,0.74,0.05,1.12c0.03,0.37,0.08,0.71,0.16,1.01c0.07,0.3,0.17,0.54,0.29,0.73
		c0.12,0.19,0.29,0.28,0.5,0.28c0.29,0,0.55-0.1,0.77-0.29c0.23-0.2,0.42-0.46,0.59-0.79c0.17-0.33,0.31-0.72,0.43-1.16
		s0.23-0.9,0.31-1.38c0.1-0.5,0.29-0.74,0.56-0.74c0.17,0,0.27,0.04,0.33,0.12c0.05,0.08,0.08,0.27,0.08,0.56
		c0,0.17-0.01,0.28-0.03,0.34c-0.02,0.27-0.11,0.69-0.26,1.25c-0.16,0.57-0.37,1.14-0.65,1.71c-0.28,0.57-0.62,1.06-1.04,1.49
		c-0.41,0.42-0.89,0.64-1.43,0.64c-0.64,0-1.16-0.15-1.57-0.45c-0.41-0.3-0.72-0.7-0.95-1.21c-0.23-0.51-0.38-1.09-0.47-1.75
		c-0.09-0.66-0.14-1.35-0.14-2.08V25.6L101.88,23.06z"/>
</g>
<line class="st1" x1="341.63" y1="16.06" x2="330.25" y2="22.06"/>
<polygon class="st1" points="341.63,16.06 331.21,30.15 330.25,22.06 324.12,16.7 "/>
<path class="st2" d="M237.98,14.58h13.26c1.05,0,1.89,0.85,1.89,1.89v13.26c0,1.05-0.85,1.89-1.89,1.89h-13.26
	c-1.05,0-1.89-0.85-1.89-1.89V16.48C236.08,15.43,236.93,14.58,237.98,14.58z"/>
<line class="st1" x1="244.61" y1="19.32" x2="244.61" y2="26.9"/>
<line class="st1" x1="240.82" y1="23.11" x2="248.4" y2="23.11"/>
<path class="st2" d="M296.73,16.27c-1.96-1.96-5.13-1.96-7.09,0c0,0,0,0,0,0l-0.97,0.97l-0.97-0.97c-1.96-1.96-5.13-1.96-7.09,0
	c-1.96,1.96-1.96,5.13,0,7.09l0.97,0.97l7.09,7.09l7.09-7.09l0.97-0.97C298.69,21.4,298.69,18.23,296.73,16.27
	C296.74,16.27,296.73,16.27,296.73,16.27z"/>
<g>
</g>
<g>
</g>
<g>
</g>
<g>
</g>
<g>
</g>
<g>
</g>
</svg>
