<?xml version="1.0" encoding="utf-8"?>
<!-- Generator: Adobe Illustrator 25.2.1, SVG Export Plug-In . SVG Version: 6.00 Build 0)  -->
<svg version="1.1" xmlns="http://www.w3.org/2000/svg" xmlns:xlink="http://www.w3.org/1999/xlink" x="0px" y="0px"
	 viewBox="0 0 278 61" style="enable-background:new 0 0 278 61;" xml:space="preserve">
<style type="text/css">
	.st0{display:none;}
	.st1{fill:#2B1F4F;}
</style>
<g id="Layer_1" class="st0">
	
		<image style="display:inline;overflow:visible;" width="278" height="61" xlink:href="arrow-right.png"  transform="matrix(1 0 0 1 0 -0.6171)">
	</image>
</g>
<g id="Layer_2">
	<g>
		<g>
			<path class="st1" d="M3.2,36.7c14-0.1,27.9-0.4,41.9-0.8C58.4,35.6,71.9,35,85,32.3c10.9-2.3,22.9-6,30.3-14.9
				c3.4-4.1,6.2-10.7,1.5-15.1c-4.3-4-10.3-0.4-13.6,3.1c-6.2,6.6-7.5,17-4.5,25.4c3.5,10,12.5,16.9,21.9,21
				c11.4,5,24.4,7.5,36.8,5.5c12.6-2,24.5-7.9,35.5-13.9c22-11.9,43.8-27.6,69.5-29.7c3-0.3,6.1-0.3,9.1-0.1c2.5,0.1,2.5-3.7,0-3.8
				c-24.3-1.3-46.4,10.9-66.7,22.6c-10.3,5.9-20.7,12-31.8,16.4c-5.7,2.3-11.6,4.2-17.6,5c-6.2,0.8-12.5,0.4-18.5-0.9
				c-10-2.1-20.4-5.8-27.8-13.1c-6.3-6.2-9.6-14.8-7.4-23.6c0.9-3.8,2.9-7.4,6.1-9.8c1.6-1.2,4.2-3,6.1-1.6c2,1.4,1.9,4.1,1,6.2
				c-1.9,4.7-6.7,8.3-11,10.8c-4.6,2.6-9.6,4.3-14.6,5.6c-12.2,3.1-24.8,4.1-37.4,4.5c-13,0.5-26,0.7-39,0.9c-3.2,0-6.4,0.1-9.6,0.1
				C0.7,32.9,0.7,36.8,3.2,36.7L3.2,36.7z"/>
		</g>
	</g>
	<g>
		<g>
			<path class="st1" d="M274.6,10.4c-1.7-2-3.4-3.9-5.1-5.9c-0.7-0.8-2-0.7-2.7,0c-0.7,0.8-0.7,1.9,0,2.7c1.7,2,3.4,3.9,5.1,5.9
				c0.7,0.8,2,0.7,2.7,0C275.3,12.4,275.3,11.2,274.6,10.4L274.6,10.4z"/>
		</g>
	</g>
	<g>
		<g>
			<path class="st1" d="M271.6,10.8c-1.5,1.8-3.1,3.6-4.8,5.2c-0.7,0.7-0.8,2,0,2.7c0.8,0.7,1.9,0.7,2.7,0c1.7-1.7,3.3-3.4,4.8-5.2
				c0.3-0.4,0.6-0.8,0.6-1.4c0-0.5-0.2-1-0.6-1.4c-0.4-0.3-0.8-0.6-1.4-0.6C272.4,10.2,271.9,10.4,271.6,10.8L271.6,10.8z"/>
		</g>
	</g>
</g>
</svg>
