<?xml version="1.0" encoding="utf-8"?>
<!-- Generator: Adobe Illustrator 25.2.1, SVG Export Plug-In . SVG Version: 6.00 Build 0)  -->
<svg version="1.1" xmlns="http://www.w3.org/2000/svg" xmlns:xlink="http://www.w3.org/1999/xlink" x="0px" y="0px"
	 viewBox="0 0 215.5 63" style="enable-background:new 0 0 215.5 63;" xml:space="preserve">
<style type="text/css">
	.st0{display:none;}
	.st1{display:inline;}
	.st2{fill:#2B1F4F;}
</style>
<g id="Layer_1" class="st0">
	<g>
		<g class="st1">
			<path class="st2" d="M3.6,37.5c30.3-1.5,60.5,0.5,90.8-0.5c15.1-0.5,30.3-1.9,45.2-4.7c6.8-1.3,13.8-2.8,20.4-5
				c3-1,6.1-2.3,8.8-4.1c2.5-1.6,5-3.6,6.5-6.2c2.5-4.3,2.4-11-1.9-14.2c-2.6-1.9-6.5-2.3-9.6-1.8c-3.2,0.5-6.1,1.9-8.7,3.7
				c-4.8,3.4-8.2,7.9-9.1,13.9c-0.8,5.3,0.9,10.6,3.3,15.3c4.6,9.4,13.6,15.3,23.1,19.1c5,2,10.2,3.6,15.5,4.8
				c6,1.5,12.1,2.6,18.3,3.2c14.9,1.3,30-0.5,44.5-4c7.3-1.8,14.5-4.2,21.7-6.6c7.2-2.5,14.3-5.1,21.4-7.7c3.6-1.3,7.1-2.7,10.7-4.1
				c2.3-0.9,1.3-4.6-1-3.7c-13.4,5.1-26.7,10.1-40.4,14.5c-13.5,4.3-27.4,7.5-41.7,8.1c-7,0.3-14.1,0-21-1c-5.1-0.7-10.3-2-15.3-3.4
				c-9.2-2.5-18.8-5.9-26-12.6c-3.4-3.2-6.1-7-7.6-11.4c-0.8-2.3-1.7-4.6-1.8-7.1c-0.1-2.4,0.4-4.9,1.4-7.1c2.3-5,7.6-9.1,12.9-10.1
				c2.4-0.5,6.3-0.3,7.9,1.8c1.3,1.7,1.6,4.1,1.1,6.2c-1.3,5.4-7.7,8.6-12.5,10.4c-6.1,2.3-12.6,3.7-18.9,5c-14,2.9-28.2,4.3-42.5,5
				c-28.3,1.3-56.6-0.5-84.9,0.3c-3.5,0.1-7,0.2-10.4,0.4C1.1,33.8,1.1,37.6,3.6,37.5L3.6,37.5z"/>
		</g>
	</g>
	<g>
		<g class="st1">
			<path class="st2" d="M418.5,10.9c-2.6-1.9-5.3-3.9-7.9-5.9c-0.4-0.3-1.1-0.3-1.5-0.2c-0.4,0.1-0.9,0.5-1.1,0.9
				c-0.2,0.4-0.4,1-0.2,1.5c0.2,0.5,0.5,0.8,0.9,1.1c2.6,2,5.2,3.9,7.9,5.9c0.4,0.3,1,0.3,1.5,0.2c0.4-0.1,0.9-0.5,1.1-0.9
				C419.7,12.5,419.4,11.5,418.5,10.9L418.5,10.9z"/>
		</g>
	</g>
	<g>
		<g class="st1">
			<path class="st2" d="M415.7,11.5C415.5,11.6,415.5,11.6,415.7,11.5c0,0-0.1,0.1-0.2,0.1c-0.1,0.1-0.3,0.2-0.4,0.3
				c-0.3,0.2-0.6,0.4-0.9,0.7c-0.6,0.4-1.2,0.9-1.8,1.3c-1.2,0.9-2.5,1.7-3.7,2.5c-0.8,0.5-1.3,1.7-0.7,2.6c0.5,0.8,1.7,1.3,2.6,0.7
				c2.7-1.7,5.3-3.6,7.8-5.5c0.4-0.3,0.6-0.9,0.6-1.4c0-0.5-0.2-1-0.6-1.4c-0.4-0.3-0.8-0.6-1.4-0.6C416.5,11,416.1,11.2,415.7,11.5
				L415.7,11.5z"/>
		</g>
	</g>
</g>
<g id="Layer_4">
	<g>
		<g>
			<path class="st2" d="M4.5,37.6c13.4-0.3,26.7-0.6,40-1.7c6.5-0.6,13.1-1.3,19.5-2.3c5.3-0.9,10.6-2.3,15.2-5.2
				c4.5-2.8,8.3-6.7,9.7-12c0.6-2.4,0.8-5,0.5-7.5c-0.3-2.4-0.9-5-2.9-6.5c-3.8-2.9-7.9,0.3-9.9,3.7C73.8,10.8,73,16.8,73,22.3
				c0.1,10.8,3.6,22.3,11.9,29.7c4,3.5,8.8,6.2,13.9,7.6c5.3,1.4,10.8,1.3,16.2,0.2c11.6-2.4,22-9.3,31.2-16.5
				c8.2-6.4,15.6-14,24.3-19.8c4.2-2.9,8.8-5.3,13.6-7c3.4-1.2,7.4-1.1,10.9,0c3.6,1.1,5.4,4.4,6.1,7.8c1.1,5.6,1.2,11.5,1.1,17.2
				c-0.1,2.8-0.2,5.6-0.5,8.4c-0.2,2.3,3.4,2.3,3.6,0c0.4-5.4,0.6-10.9,0.3-16.4c-0.3-4.8-0.3-10.3-2.6-14.6
				c-0.8-1.6-2.1-3.2-3.5-4.3c-1.5-1.1-3.4-1.7-5.3-2.1c-3.6-0.7-7.6-0.8-11.1,0.4c-9.2,3.4-17,8.8-24.5,15.2
				c-8.4,7.2-16.6,14.6-26.1,20.4c-8.8,5.4-19.5,10-30.1,8.2C92.4,55,83.7,48,79.8,38.6c-2-4.9-3-10.3-3.2-15.6
				c-0.1-5.1,0.5-10.7,3.1-15.2c0.7-1.2,1.9-2.8,3.3-3c1.7-0.2,2.4,2,2.7,3.5c0.9,4.6-0.4,9.7-3.6,13.1c-7.6,8-19.5,9-29.8,10.1
				c-12.8,1.4-25.7,1.9-38.5,2.3c-3.1,0.1-6.3,0.2-9.4,0.2C2.2,34,2.2,37.6,4.5,37.6L4.5,37.6z"/>
		</g>
	</g>
	<g>
		<g>
			<path class="st2" d="M203.7,51.3c-1.1-2.8-2.5-5.6-4.2-8.2c-0.5-0.8-1.6-1.2-2.5-0.6c-0.8,0.5-1.2,1.6-0.6,2.5
				c0.8,1.2,1.5,2.4,2.2,3.7c0.3,0.6,0.6,1.3,0.9,1.9c0.1,0.3,0.3,0.6,0.4,0.9c0,0.1,0.1,0.2,0.1,0.3c-0.1-0.2-0.1-0.2,0,0
				c0.1,0.2,0.1,0.4,0.2,0.5c0.2,0.4,0.4,0.8,0.8,1.1c0.4,0.2,0.9,0.3,1.4,0.2C203.3,53.2,204.1,52.2,203.7,51.3L203.7,51.3z"/>
		</g>
	</g>
	<g>
		<g>
			<path class="st2" d="M203.2,53c0.3-0.2,0.5-0.4,0.8-0.7c0,0,0.2-0.1,0.2-0.2c0,0.1-0.3,0.2-0.1,0c0.1-0.1,0.3-0.2,0.4-0.3
				c0.6-0.4,1.2-0.8,1.7-1.3c1.2-0.8,2.3-1.5,3.6-2.2c0.8-0.5,1.2-1.6,0.6-2.5c-0.5-0.8-1.6-1.1-2.5-0.6c-2.6,1.5-5.1,3.2-7.4,5.1
				c-0.7,0.6-0.7,1.9,0,2.5C201.5,53.7,202.5,53.6,203.2,53L203.2,53z"/>
		</g>
	</g>
</g>
</svg>
