<?xml version="1.0" encoding="utf-8"?>
<!-- Generator: Adobe Illustrator 25.2.1, SVG Export Plug-In . SVG Version: 6.00 Build 0)  -->
<svg version="1.1" xmlns="http://www.w3.org/2000/svg" xmlns:xlink="http://www.w3.org/1999/xlink" x="0px" y="0px"
	 viewBox="0 0 150.4 70" style="enable-background:new 0 0 150.4 70;" xml:space="preserve">
<style type="text/css">
	.st0{display:none;}
	.st1{display:inline;}
	.st2{fill:#2B1F4F;}
</style>
<g id="Layer_1" class="st0">
	<image style="display:inline;overflow:visible;" width="85" height="70" xlink:href="arrow-down-phone.png" >
	</image>
</g>
<g id="Layer_2">
	<g id="Layer_3" class="st0">
		<g class="st1">
			<g>
				<path class="st2" d="M2.6,38.6C15,38,27.5,37.8,39.8,36c6-0.9,11.9-2.1,17.8-3.6c5.2-1.4,10.5-3.3,15-6.4
					c4.1-2.9,7.5-6.7,9.4-11.3c1.7-4.1,3-11.7-3.1-12.7C73.9,1.2,69.2,3.6,66,7.3c-3.6,4.2-4.9,9.5-5.3,14.9
					c-0.4,6.6,0,13.3-0.1,19.9c-0.1,7.1-0.4,14.1-0.7,21.2c-0.1,2.6,4,2.6,4.1,0c0.5-11.3,0.9-22.6,0.7-33.8c-0.1-5-0.2-10.2,1.7-15
					c1.4-3.7,4.5-7.1,8.3-8.2c1.2-0.3,4.2-1,4.5,0.8c0.3,2-0.4,4.4-1.1,6.2c-1.6,3.9-4.7,7.2-8.2,9.6c-4.1,2.7-8.8,4.4-13.5,5.6
					c-5.3,1.4-10.7,2.5-16.1,3.4c-12.5,2-25.1,2.1-37.7,2.7C0,34.6,0,38.7,2.6,38.6L2.6,38.6z"/>
			</g>
		</g>
		<g class="st1">
			<g>
				<path class="st2" d="M63.3,67c0.4-0.3,0.7-0.6,1.1-0.9c-0.1,0.1-0.3,0.2-0.4,0.3c1.6-1.2,3.3-2.4,5-3.6c0.4-0.3,0.8-0.7,0.9-1.2
					c0.1-0.5,0.1-1.1-0.2-1.6c-0.6-0.9-1.8-1.4-2.8-0.7c-2.2,1.5-4.4,3.1-6.5,4.8c-0.4,0.3-0.6,1-0.6,1.4c0,0.5,0.2,1.1,0.6,1.4
					c0.4,0.4,0.9,0.6,1.4,0.6C62.4,67.6,62.8,67.4,63.3,67L63.3,67z"/>
			</g>
		</g>
		<g class="st1">
			<g>
				<path class="st2" d="M62.9,64.2c-1.7-1.6-3.4-3.3-5.1-4.9c-0.4-0.4-0.9-0.6-1.4-0.6c-0.5,0-1.1,0.2-1.4,0.6
					c-0.7,0.8-0.8,2.1,0,2.9c1.7,1.6,3.4,3.2,5.1,4.9c0.4,0.4,0.9,0.6,1.4,0.6c0.5,0,1.1-0.2,1.4-0.6C63.6,66.3,63.7,65,62.9,64.2
					L62.9,64.2z"/>
			</g>
		</g>
	</g>
	<g id="Layer_4">
		<g>
			<g>
				<path class="st2" d="M3.6,38.4c9.3-0.2,18.6-0.4,27.9-1.2c4.5-0.4,9-0.9,13.5-1.6C48.8,35,52.5,34,55.7,32c3.2-2,6-4.7,7.1-8.4
					c0.9-3,1.1-7.4-0.9-10c-2.1-2.7-5.6-1.8-7.5,0.5c-2.4,2.9-3.3,6.9-3.5,10.6c-0.5,7.7,1.6,16.2,6.9,22c5.1,5.6,12.9,8.4,20.4,7.5
					c8.2-1,15.7-5.4,22.2-10.3c6.1-4.6,11.5-10,17.7-14.5c2.9-2.1,5.9-3.9,9.2-5.2c1.3-0.5,2.6-1.1,4-1.2c1.4-0.1,2.8,0,4.2,0.3
					c1.2,0.3,2.2,0.6,3,1.5c0.8,1,1.3,2,1.6,3.3c0.9,3.9,0.9,8.2,0.9,12.2c0,2-0.2,3.9-0.3,5.9c-0.2,2.3,3.4,2.3,3.6,0
					c0.3-3.8,0.4-7.6,0.2-11.4c-0.2-3.4-0.3-7.1-1.8-10.2c-1.2-2.5-3.3-4.1-6-4.8c-2.4-0.6-5.3-0.8-7.7-0.1
					c-6.4,1.8-12.1,5.9-17.2,10.2c-5.9,4.9-11.5,10.1-18,14.2c-6.1,3.9-13.3,7.3-20.8,6.5c-7-0.8-13.2-5.5-16.1-11.9
					c-1.5-3.2-2.2-6.9-2.4-10.4c-0.2-3.6,0.1-7.6,1.9-10.8c0.4-0.7,1.2-2,2-2.2c0.9-0.1,1.3,1.6,1.4,2.4c0.4,3-0.4,6.3-2.6,8.5
					c-5.3,5.5-13.7,6-20.8,6.8c-8.7,0.9-17.4,1.3-26.1,1.5c-2.2,0.1-4.4,0.1-6.6,0.2C1.3,34.8,1.3,38.4,3.6,38.4L3.6,38.4z"/>
			</g>
		</g>
		<g>
			<g>
				<path class="st2" d="M142.8,46.8c-1-2.1-2.3-4.1-3.7-6c-0.3-0.4-0.6-0.7-1.1-0.8c-0.4-0.1-1-0.1-1.4,0.2
					c-0.4,0.2-0.7,0.6-0.8,1.1c-0.1,0.4-0.1,1,0.2,1.4c1.4,1.9,2.7,3.9,3.7,6c0.4,0.8,1.7,1.1,2.5,0.6
					C143,48.7,143.2,47.7,142.8,46.8L142.8,46.8z"/>
			</g>
		</g>
		<g>
			<g>
				<path class="st2" d="M142.1,49.3c2.1-1.5,4.3-2.8,6.6-4c0.8-0.4,1.1-1.7,0.6-2.5c-0.6-0.9-1.6-1.1-2.5-0.6
					c-2.3,1.2-4.5,2.5-6.6,4c-0.4,0.3-0.7,0.6-0.8,1.1c-0.1,0.4-0.1,1,0.2,1.4C140.1,49.4,141.3,49.8,142.1,49.3L142.1,49.3z"/>
			</g>
		</g>
	</g>
</g>
</svg>
