<?xml version="1.0" encoding="utf-8"?>
<!-- Generator: Adobe Illustrator 25.2.1, SVG Export Plug-In . SVG Version: 6.00 Build 0)  -->
<svg version="1.1" xmlns="http://www.w3.org/2000/svg" xmlns:xlink="http://www.w3.org/1999/xlink" x="0px" y="0px"
	 viewBox="0 0 301.2 63" style="enable-background:new 0 0 301.2 63;" xml:space="preserve">
<style type="text/css">
	.st0{display:none;}
	.st1{display:inline;}
	.st2{fill:#2B1F4F;}
</style>
<g id="Layer_1" class="st0">
	<g>
		<g class="st1">
			<path class="st2" d="M3.6,37.5c30.3-1.5,60.5,0.5,90.8-0.5c15.1-0.5,30.3-1.9,45.2-4.7c6.8-1.3,13.8-2.8,20.4-5
				c3-1,6.1-2.3,8.8-4.1c2.5-1.6,5-3.6,6.5-6.2c2.5-4.3,2.4-11-1.9-14.2c-2.6-1.9-6.5-2.3-9.6-1.8c-3.2,0.5-6.1,1.9-8.7,3.7
				c-4.8,3.4-8.2,7.9-9.1,13.9c-0.8,5.3,0.9,10.6,3.3,15.3c4.6,9.4,13.6,15.3,23.1,19.1c5,2,10.2,3.6,15.5,4.8
				c6,1.5,12.1,2.6,18.3,3.2c14.9,1.3,30-0.5,44.5-4c7.3-1.8,14.5-4.2,21.7-6.6c7.2-2.5,14.3-5.1,21.4-7.7c3.6-1.3,7.1-2.7,10.7-4.1
				c2.3-0.9,1.3-4.6-1-3.7c-13.4,5.1-26.7,10.1-40.4,14.5c-13.5,4.3-27.4,7.5-41.7,8.1c-7,0.3-14.1,0-21-1c-5.1-0.7-10.3-2-15.3-3.4
				c-9.2-2.5-18.8-5.9-26-12.6c-3.4-3.2-6.1-7-7.6-11.4c-0.8-2.3-1.7-4.6-1.8-7.1c-0.1-2.4,0.4-4.9,1.4-7.1c2.3-5,7.6-9.1,12.9-10.1
				c2.4-0.5,6.3-0.3,7.9,1.8c1.3,1.7,1.6,4.1,1.1,6.2c-1.3,5.4-7.7,8.6-12.5,10.4c-6.1,2.3-12.6,3.7-18.9,5c-14,2.9-28.2,4.3-42.5,5
				c-28.3,1.3-56.6-0.5-84.9,0.3c-3.5,0.1-7,0.2-10.4,0.4C1.1,33.8,1.1,37.6,3.6,37.5L3.6,37.5z"/>
		</g>
	</g>
	<g>
		<g class="st1">
			<path class="st2" d="M418.5,10.9c-2.6-1.9-5.3-3.9-7.9-5.9c-0.4-0.3-1.1-0.3-1.5-0.2c-0.4,0.1-0.9,0.5-1.1,0.9
				c-0.2,0.4-0.4,1-0.2,1.5c0.2,0.5,0.5,0.8,0.9,1.1c2.6,2,5.2,3.9,7.9,5.9c0.4,0.3,1,0.3,1.5,0.2c0.4-0.1,0.9-0.5,1.1-0.9
				C419.7,12.5,419.4,11.5,418.5,10.9L418.5,10.9z"/>
		</g>
	</g>
	<g>
		<g class="st1">
			<path class="st2" d="M415.7,11.5C415.5,11.6,415.5,11.6,415.7,11.5c0,0-0.1,0.1-0.2,0.1c-0.1,0.1-0.3,0.2-0.4,0.3
				c-0.3,0.2-0.6,0.4-0.9,0.7c-0.6,0.4-1.2,0.9-1.8,1.3c-1.2,0.9-2.5,1.7-3.7,2.5c-0.8,0.5-1.3,1.7-0.7,2.6c0.5,0.8,1.7,1.3,2.6,0.7
				c2.7-1.7,5.3-3.6,7.8-5.5c0.4-0.3,0.6-0.9,0.6-1.4c0-0.5-0.2-1-0.6-1.4c-0.4-0.3-0.8-0.6-1.4-0.6C416.5,11,416.1,11.2,415.7,11.5
				L415.7,11.5z"/>
		</g>
	</g>
</g>
<g id="Layer_4">
	<g>
		<g>
			<path class="st2" d="M4.5,37.6c16.3-0.3,32.7-0.5,49-1.3c8.3-0.4,16.5-0.9,24.7-1.7c7.3-0.6,14.8-1.3,21.9-2.9
				c6.6-1.5,13.6-4.1,18.9-8.5c4.6-3.9,7.1-10.6,5.1-16.5c-2-5.9-8.8-6.9-13.4-3.5c-5.1,3.8-7.4,10.4-7.8,16.5
				c-0.5,6.8,1.2,13.8,4.5,19.7c3.2,5.8,8.2,10.4,13.9,13.7c12.4,7.1,26.8,8.8,40.8,6.6c14.6-2.2,28.4-8.2,41.3-15.2
				c12.5-6.7,24.1-14.8,36.4-21.9c5.9-3.4,12-6.6,18.4-9.1c5.5-2.1,11.4-4.5,17.4-4.1c2.5,0.2,5.1,0.6,7.4,1.7
				c2.4,1.1,4,3.1,5.2,5.4c1.4,2.8,1.9,6,2.3,9.1c0.5,4,0.7,8,0.6,11.9c-0.1,3.8-0.5,7.6-1.1,11.4c-0.4,2.3,3.1,3.2,3.5,1
				c1.3-7.5,1.6-15.1,0.8-22.6c-0.6-5.9-1.6-12.1-5.9-16.6c-3.5-3.7-9.2-4.7-14.1-4.8c-5.8-0.1-11.7,2.2-17,4.3
				c-12.3,4.8-23.6,11.9-34.8,18.9c-11.9,7.4-23.9,14.7-36.9,20.1c-12.8,5.3-26.6,8.9-40.6,7.6c-12.7-1.2-26.8-6.8-33.8-18.1
				c-3.3-5.4-5-11.9-4.7-18.3C106.6,15,108.7,8,114,5.4c2.1-1,4.8-0.9,6.2,1.2c1.4,2.2,1.2,5.5,0.5,7.9c-1.8,6.1-8.6,9.5-14.1,11.5
				c-6.4,2.4-13.3,3.5-20.1,4.2c-7.8,0.8-15.6,1.4-23.4,1.9c-15.7,1-31.5,1.4-47.3,1.7c-3.8,0.1-7.6,0.1-11.4,0.2
				C2.2,34,2.2,37.6,4.5,37.6L4.5,37.6z"/>
		</g>
	</g>
	<g>
		<g>
			<path class="st2" d="M292.5,52.4c-0.8-2.8-1.8-5.5-3-8.2c-0.4-0.9-1.7-1.1-2.5-0.6c-0.9,0.6-1.1,1.5-0.6,2.5
				c0.1,0.3,0.3,0.6,0.4,0.9c0,0.1,0.1,0.2,0.1,0.3c-0.1-0.2-0.1-0.2,0,0c0.1,0.1,0.1,0.3,0.2,0.4c0.3,0.6,0.5,1.3,0.7,1.9
				c0.5,1.3,0.9,2.6,1.3,3.9c0.3,0.9,1.3,1.6,2.2,1.3C292.1,54.3,292.7,53.4,292.5,52.4L292.5,52.4z"/>
		</g>
	</g>
	<g>
		<g>
			<path class="st2" d="M292.3,54c1.5-1.6,3.2-3.2,5-4.6c-0.1,0.1-0.2,0.2-0.4,0.3c0.1-0.1,0.3-0.2,0.4-0.3c0.4-0.3,0.7-0.6,0.8-1.1
				c0.1-0.4,0.1-1-0.2-1.4c-0.2-0.4-0.6-0.7-1.1-0.8c-0.4-0.1-1-0.1-1.4,0.2c-2.1,1.6-4,3.3-5.7,5.1c-0.6,0.7-0.7,1.9,0,2.5
				C290.4,54.6,291.6,54.7,292.3,54L292.3,54z"/>
		</g>
	</g>
</g>
</svg>
