<?xml version="1.0" encoding="utf-8"?>
<!-- Generator: Adobe Illustrator 25.2.1, SVG Export Plug-In . SVG Version: 6.00 Build 0)  -->
<svg version="1.1" xmlns="http://www.w3.org/2000/svg" xmlns:xlink="http://www.w3.org/1999/xlink" x="0px" y="0px"
	 viewBox="0 0 600 61" style="enable-background:new 0 0 600 61;" xml:space="preserve">
<style type="text/css">
	.st0{display:none;}
	.st1{fill:#2B1F4F;}
</style>
<g id="Layer_1" class="st0">
	
		<image style="display:inline;overflow:visible;" width="278" height="61" xlink:href="../arrow-right.png"  transform="matrix(2.1583 0 0 0.9176 0 5.0244)">
	</image>
	
		<image style="display:inline;overflow:visible;" width="278" height="61" xlink:href="../arrow-right.png"  transform="matrix(0.9963 0 0 0.9963 114.5876 0.113)">
	</image>
</g>
<g id="Layer_2">
	<g id="Layer_3">
		<g>
			<g>
				<path class="st1" d="M6.7,39.7c50,4.8,100.6,6,150.6,0.6c10.8-1.2,21.6-2.6,32.4-4.3c9-1.4,18.1-3.2,26.5-7
					c7.1-3.2,17.1-9.2,17.4-17.9c0.3-8.8-9.4-11.1-16.1-7.6c-6.8,3.6-9.7,11.8-9.3,19.1c0.4,7.9,4.1,15.4,10.1,20.5
					c7.7,6.4,17.4,9.4,27.1,11.1c11.1,2,22.3,3,33.5,3.6c48.9,2.8,97.9-4,145.3-15.3c46.5-11.1,93-26,141.3-25
					c5.9,0.1,11.8,0.5,17.7,1.1c2.6,0.3,2.6-3.8,0-4.1c-44.5-4.6-88.4,6-131.2,16.8c-21.7,5.5-43.4,10.9-65.5,14.9
					c-22.7,4-45.7,6.8-68.7,7.7c-22.6,0.9-45.4,0.3-67.8-3.1c-16.3-2.5-37.4-9.1-37.9-29c-0.2-7.2,3.7-15.9,12-15.9
					c2,0,4,0.4,4.8,2.4c1,2.3,0.1,5.3-1.3,7.3c-2.4,3.3-6.2,5.8-9.7,7.8c-7.6,4.3-16.3,6.3-24.8,7.8c-9.7,1.7-19.5,3-29.3,4.1
					c-46.3,5.6-93.2,5.4-139.7,1.7c-5.9-0.5-11.7-1-17.6-1.5C4.1,35.3,4.1,39.4,6.7,39.7L6.7,39.7z"/>
			</g>
		</g>
		<g>
			<g>
				<path class="st1" d="M587.6,15c-0.1-0.1-0.2-0.2-0.3-0.2c-0.1-0.1-0.2-0.2-0.1,0c-0.2-0.2-0.4-0.3-0.6-0.5
					c-0.4-0.3-0.8-0.7-1.3-1c-0.9-0.7-1.7-1.4-2.6-2c-1.7-1.4-3.4-2.7-5.1-4.1c-0.8-0.7-2.1-0.9-2.9,0c-0.7,0.8-0.9,2.2,0,2.9
					c3.5,2.9,7.1,5.8,10.7,8.6c0.9,0.7,2.3,0.2,2.8-0.7C588.9,16.7,588.5,15.7,587.6,15L587.6,15z"/>
			</g>
		</g>
		<g>
			<g>
				<path class="st1" d="M585.2,15.4c-1.7,1.1-3.4,2.3-5.1,3.6c-1.7,1.3-3.4,2.6-4.8,4.2c-0.7,0.8-0.9,2.1,0,2.9
					c0.8,0.7,2.1,0.9,2.9,0c0.6-0.7,1.4-1.4,2.1-2c0.4-0.3,0.8-0.6,1.1-0.9c0.2-0.1,0.4-0.3,0.6-0.4c0.1-0.1,0.2-0.1,0.3-0.2
					c0.3-0.2-0.4,0.3,0.1-0.1c1.6-1.2,3.2-2.4,4.9-3.5c0.9-0.6,1.4-1.8,0.7-2.8C587.4,15.2,586.2,14.7,585.2,15.4L585.2,15.4z"/>
			</g>
		</g>
	</g>
</g>
</svg>
