<?xml version="1.0" encoding="utf-8"?>
<!-- Generator: Adobe Illustrator 25.2.1, SVG Export Plug-In . SVG Version: 6.00 Build 0)  -->
<svg version="1.1" id="Layer_1" xmlns="http://www.w3.org/2000/svg" xmlns:xlink="http://www.w3.org/1999/xlink" x="0px" y="0px"
	 viewBox="0 0 360 357" style="enable-background:new 0 0 360 357;" xml:space="preserve">
<style type="text/css">
	.st0{fill:none;stroke:#EC5B70;stroke-width:5;stroke-linecap:round;stroke-linejoin:round;}
	.st1{fill:#EC5B70;}
	.st2{fill:none;stroke:#9E9B99;stroke-width:0.5;stroke-linecap:round;stroke-linejoin:round;}
</style>
<path class="st0" d="M223.8,100.3v4c0,24.2-19.6,43.8-43.8,43.8c-24.2,0-43.8-19.6-43.8-43.8c0-24.2,19.6-43.8,43.8-43.8
	c6.1,0,12.2,1.3,17.8,3.8"/>
<polyline class="st0" points="223.8,69.3 180,113.1 166.9,100 "/>
<g>
	<path class="st1" d="M77.5,192.8l-6.6-9.6h2.4l5.2,7.8l5.2-7.8h2.4l-6.6,9.6v7.1h-2.1V192.8z"/>
	<path class="st1" d="M84.3,193.8c0-3.5,2.3-6.3,6-6.3s6,2.8,6,6.3s-2.3,6.4-6,6.4S84.3,197.2,84.3,193.8z M94.3,193.8
		c0-2.4-1.4-4.6-4-4.6s-4,2.2-4,4.6c0,2.5,1.4,4.7,4,4.7S94.3,196.2,94.3,193.8z"/>
	<path class="st1" d="M107.5,198.1c-0.9,1.1-2.5,2-4.3,2c-2.5,0-3.8-1.2-3.8-3.9v-8.5h1.9v7.9c0,2.1,1.1,2.8,2.7,2.8
		c1.5,0,2.9-0.9,3.6-1.8v-8.9h1.9v12.1h-1.9L107.5,198.1L107.5,198.1z"/>
	<path class="st1" d="M112.7,187.8c0.8-0.5,1.5-1.5,1.6-2.3c-0.1,0-0.2,0.1-0.3,0.1c-0.7,0-1.2-0.5-1.2-1.3c0-0.7,0.6-1.4,1.3-1.4
		c0.8,0,1.6,0.7,1.6,1.9c0,1.5-0.9,2.9-2.1,3.8L112.7,187.8z"/>
	<path class="st1" d="M118.9,187.7h1.9v1.9c1-1.3,2.4-2.2,4-2.2v1.9c-0.2-0.1-0.4-0.1-0.8-0.1c-1.2,0-2.7,0.9-3.3,1.9v8.6h-1.9
		V187.7z"/>
	<path class="st1" d="M132.4,187.4c3.6,0,5.8,2.9,5.8,6.5v0.5h-9.8c0.1,2.3,1.8,4.2,4.4,4.2c1.4,0,2.8-0.6,3.7-1.5l0.9,1.2
		c-1.2,1.2-2.8,1.9-4.8,1.9c-3.6,0-6.2-2.6-6.2-6.4C126.4,190.2,128.9,187.4,132.4,187.4z M128.4,193h7.9c0-1.8-1.2-4-4-4
		C129.8,189,128.5,191.2,128.4,193z"/>
	<path class="st1" d="M158.2,196.1h-8.4l-1.5,3.7H146l6.7-16.7h2.6l6.7,16.7h-2.3L158.2,196.1z M150.4,194.2h7.2L154,185
		L150.4,194.2z"/>
	<path class="st1" d="M164.1,183.1h1.9v16.7h-1.9V183.1z"/>
	<path class="st1" d="M169.7,183.1h1.9v16.7h-1.9V183.1z"/>
	<path class="st1" d="M181.2,191.5c0-5.1,3.8-8.6,8.5-8.6c3,0,5.1,1.4,6.4,3.3l-1.8,1c-0.9-1.4-2.7-2.4-4.6-2.4
		c-3.6,0-6.4,2.8-6.4,6.8c0,3.9,2.8,6.8,6.4,6.8c2,0,3.7-1,4.6-2.4l1.8,1c-1.4,1.9-3.4,3.3-6.4,3.3
		C185,200.1,181.2,196.6,181.2,191.5z"/>
	<path class="st1" d="M206.2,198.4c-1,1.1-2.4,1.7-4,1.7c-2.1,0-4.2-1.4-4.2-4c0-2.7,2.2-4,4.2-4c1.6,0,3,0.5,4,1.6v-2.2
		c0-1.6-1.3-2.6-3.1-2.6c-1.4,0-2.6,0.5-3.7,1.7l-0.9-1.3c1.3-1.4,2.9-2,4.8-2c2.6,0,4.7,1.1,4.7,4.1v8.3h-1.9L206.2,198.4
		L206.2,198.4z M206.2,195c-0.7-1-2-1.5-3.3-1.5c-1.8,0-3,1.1-3,2.6c0,1.5,1.2,2.6,3,2.6c1.3,0,2.6-0.5,3.3-1.5V195z"/>
	<path class="st1" d="M220,198.1c-0.9,1.1-2.5,2-4.3,2c-2.5,0-3.9-1.2-3.9-3.9v-8.5h1.9v7.9c0,2.1,1.1,2.8,2.7,2.8
		c1.5,0,2.9-0.9,3.6-1.8v-8.9h1.9v12.1H220L220,198.1L220,198.1z"/>
	<path class="st1" d="M226.6,201.5c1,1.2,2.2,1.6,3.9,1.6c2,0,3.9-1,3.9-3.6v-1.7c-0.9,1.2-2.4,2.1-4.1,2.1c-3.1,0-5.4-2.4-5.4-6.2
		c0-3.9,2.2-6.3,5.4-6.3c1.6,0,3.1,0.8,4.1,2.1v-1.8h1.9v11.7c0,4-2.8,5.2-5.8,5.2c-2.1,0-3.4-0.4-4.9-1.8L226.6,201.5z
		 M234.4,191.1c-0.6-1.1-2.1-1.9-3.6-1.9c-2.4,0-3.9,1.9-3.9,4.6c0,2.6,1.4,4.6,3.9,4.6c1.5,0,2.9-0.9,3.6-2V191.1z"/>
	<path class="st1" d="M248.2,191.9c0-2.1-1.1-2.8-2.7-2.8c-1.4,0-2.9,0.9-3.6,1.9v8.8H240v-16.7h1.9v6.4c0.9-1,2.5-2.1,4.3-2.1
		c2.5,0,3.9,1.2,3.9,3.9v8.5h-1.9L248.2,191.9L248.2,191.9z"/>
	<path class="st1" d="M254.2,197.3v-7.9h-2v-1.6h2v-3.3h1.9v3.3h2.5v1.6H256v7.5c0,0.9,0.4,1.6,1.2,1.6c0.5,0,1-0.2,1.3-0.5l0.5,1.4
		c-0.5,0.4-1.1,0.8-2.2,0.8C255.1,200.1,254.2,199.1,254.2,197.3z"/>
	<path class="st1" d="M267.7,183.1h2.1v10.1c0,3.1,1.6,5,4.7,5s4.7-1.9,4.7-5v-10.1h2.1v10.2c0,4.1-2.3,6.8-6.8,6.8
		c-4.5,0-6.8-2.7-6.8-6.8L267.7,183.1L267.7,183.1z"/>
	<path class="st1" d="M285.1,204.4v-16.7h1.9v1.8c0.9-1.2,2.4-2.1,4.1-2.1c3.2,0,5.4,2.4,5.4,6.3c0,3.9-2.2,6.4-5.4,6.4
		c-1.6,0-3.1-0.8-4.1-2.1v6.4L285.1,204.4L285.1,204.4z M290.6,189.1c-1.5,0-3,0.9-3.6,1.9v5.4c0.6,1.1,2.1,1.9,3.6,1.9
		c2.4,0,3.9-2,3.9-4.7C294.4,191.1,293,189.1,290.6,189.1z"/>
</g>
<g>
	<path class="st1" d="M46,223.8l-3.7-5.4h1.4l2.9,4.3l2.9-4.3h1.4l-3.7,5.4v3.9H46V223.8z"/>
	<path class="st1" d="M49.8,224.4c0-2,1.3-3.5,3.3-3.5s3.3,1.6,3.3,3.5s-1.3,3.6-3.3,3.6S49.8,226.3,49.8,224.4z M55.4,224.4
		c0-1.4-0.8-2.6-2.2-2.6c-1.4,0-2.3,1.2-2.3,2.6c0,1.4,0.8,2.6,2.3,2.6C54.6,227,55.4,225.8,55.4,224.4z"/>
	<path class="st1" d="M62.8,226.8c-0.5,0.6-1.4,1.1-2.4,1.1c-1.4,0-2.2-0.7-2.2-2.2V221h1v4.4c0,1.2,0.6,1.5,1.5,1.5
		c0.8,0,1.6-0.5,2-1v-5h1v6.8h-1V226.8z"/>
	<path class="st1" d="M65.7,221c0.4-0.3,0.8-0.9,0.9-1.3c0,0-0.1,0-0.2,0c-0.4,0-0.7-0.3-0.7-0.7c0-0.4,0.3-0.8,0.7-0.8
		c0.5,0,0.9,0.4,0.9,1.1c0,0.9-0.5,1.6-1.2,2.1L65.7,221z"/>
	<path class="st1" d="M68.2,221h1.1l2.3,5.6l2.2-5.6h1.2l-2.8,6.8H71L68.2,221z"/>
	<path class="st1" d="M79,220.8c2,0,3.2,1.6,3.2,3.6v0.3h-5.5c0.1,1.3,1,2.3,2.4,2.3c0.8,0,1.6-0.3,2.1-0.9l0.5,0.7
		c-0.7,0.7-1.6,1-2.7,1c-2,0-3.4-1.4-3.4-3.6C75.6,222.4,77,220.8,79,220.8z M76.7,223.9h4.4c0-1-0.7-2.2-2.2-2.2
		C77.5,221.7,76.8,222.9,76.7,223.9z"/>
	<path class="st1" d="M87.5,226.1c0.4,0.5,1.3,1,2.2,1c1,0,1.6-0.5,1.6-1.1c0-0.7-0.8-1-1.7-1.2c-1.2-0.3-2.4-0.6-2.4-2
		c0-1.1,0.9-1.9,2.5-1.9c1.2,0,2,0.4,2.5,1l-0.5,0.7c-0.4-0.5-1.2-0.9-2-0.9c-0.9,0-1.5,0.4-1.5,1c0,0.7,0.8,0.9,1.7,1.1
		c1.2,0.3,2.5,0.6,2.5,2.1c0,1.1-0.9,2-2.7,2c-1.1,0-2-0.3-2.7-1.1L87.5,226.1z"/>
	<path class="st1" d="M97,220.8c2,0,3.2,1.6,3.2,3.6v0.3h-5.5c0.1,1.3,1,2.3,2.4,2.3c0.8,0,1.6-0.3,2.1-0.9l0.5,0.7
		c-0.7,0.7-1.6,1-2.7,1c-2,0-3.4-1.4-3.4-3.6C93.6,222.4,95,220.8,97,220.8z M94.8,223.9h4.4c0-1-0.7-2.2-2.2-2.2
		C95.5,221.7,94.8,222.9,94.8,223.9z"/>
	<path class="st1" d="M104.8,220.8c2,0,3.2,1.6,3.2,3.6v0.3h-5.5c0.1,1.3,1,2.3,2.4,2.3c0.8,0,1.6-0.3,2.1-0.9l0.5,0.7
		c-0.7,0.7-1.6,1-2.7,1c-2,0-3.4-1.4-3.4-3.6C101.5,222.4,102.9,220.8,104.8,220.8z M102.6,223.9h4.4c0-1-0.7-2.2-2.2-2.2
		C103.4,221.7,102.7,222.9,102.6,223.9z"/>
	<path class="st1" d="M114.4,223.3c0-1.2-0.6-1.6-1.5-1.6c-0.8,0-1.6,0.5-2,1.1v4.9h-1.1V221h1.1v1c0.5-0.6,1.4-1.1,2.4-1.1
		c1.4,0,2.2,0.7,2.2,2.2v4.8h-1.1L114.4,223.3L114.4,223.3z"/>
	<path class="st1" d="M125.3,227c-0.6,0.6-1.3,0.9-2.2,0.9c-1.2,0-2.4-0.8-2.4-2.2c0-1.5,1.2-2.2,2.4-2.2c0.9,0,1.7,0.3,2.2,0.9
		v-1.2c0-0.9-0.7-1.4-1.7-1.4c-0.8,0-1.5,0.3-2.1,0.9l-0.5-0.7c0.7-0.8,1.6-1.1,2.7-1.1c1.4,0,2.6,0.6,2.6,2.3v4.6h-1.1V227z
		 M125.3,225.1c-0.4-0.6-1.1-0.8-1.9-0.8c-1,0-1.7,0.6-1.7,1.5c0,0.9,0.7,1.5,1.7,1.5c0.7,0,1.5-0.3,1.9-0.8V225.1z"/>
	<path class="st1" d="M128.5,218.4h1.1v9.3h-1.1V218.4z"/>
	<path class="st1" d="M131.6,218.4h1.1v9.3h-1.1V218.4z"/>
	<path class="st1" d="M143,223.3c0-1.2-0.6-1.6-1.5-1.6c-0.8,0-1.6,0.5-2,1.1v4.9h-1.1V221h1.1v1c0.5-0.6,1.4-1.1,2.4-1.1
		c1.4,0,2.2,0.7,2.2,2.2v4.8H143L143,223.3L143,223.3z"/>
	<path class="st1" d="M149.1,220.8c2,0,3.2,1.6,3.2,3.6v0.3h-5.5c0.1,1.3,1,2.3,2.4,2.3c0.8,0,1.6-0.3,2.1-0.9l0.5,0.7
		c-0.7,0.7-1.6,1-2.7,1c-2,0-3.4-1.4-3.4-3.6C145.7,222.4,147.1,220.8,149.1,220.8z M146.8,223.9h4.4c0-1-0.7-2.2-2.2-2.2
		C147.6,221.7,146.9,222.9,146.8,223.9z"/>
	<path class="st1" d="M158.1,222.3l-1.8,5.4h-1.1l-2.2-6.8h1.1l1.6,5.4l1.8-5.4h0.9l1.8,5.4l1.6-5.4h1.1l-2.2,6.8h-1.1L158.1,222.3z
		"/>
	<path class="st1" d="M167.9,230.3V221h1.1v1c0.5-0.7,1.3-1.2,2.3-1.2c1.8,0,3,1.3,3,3.5c0,2.2-1.2,3.6-3,3.6
		c-0.9,0-1.7-0.4-2.3-1.2v3.6H167.9z M171,221.8c-0.8,0-1.6,0.5-2,1.1v3.1c0.4,0.6,1.2,1.1,2,1.1c1.4,0,2.2-1.1,2.2-2.6
		S172.3,221.8,171,221.8z"/>
	<path class="st1" d="M175.5,224.4c0-2,1.3-3.5,3.4-3.5c2.1,0,3.4,1.6,3.4,3.5s-1.3,3.6-3.4,3.6
		C176.8,227.9,175.5,226.3,175.5,224.4z M181.1,224.4c0-1.4-0.8-2.6-2.2-2.6s-2.2,1.2-2.2,2.6c0,1.4,0.8,2.6,2.2,2.6
		C180.3,227,181.1,225.8,181.1,224.4z"/>
	<path class="st1" d="M183.9,226.1c0.4,0.5,1.3,1,2.2,1c1,0,1.6-0.5,1.6-1.1c0-0.7-0.8-1-1.7-1.2c-1.1-0.3-2.4-0.6-2.4-2
		c0-1.1,0.9-1.9,2.5-1.9c1.1,0,2,0.4,2.5,1l-0.5,0.7c-0.4-0.5-1.1-0.9-2-0.9c-0.9,0-1.5,0.4-1.5,1c0,0.7,0.8,0.9,1.6,1.1
		c1.2,0.3,2.5,0.6,2.5,2.1c0,1.1-0.9,2-2.7,2c-1.1,0-2-0.3-2.7-1.1L183.9,226.1z"/>
	<path class="st1" d="M190.7,226.3v-4.4h-1.1V221h1.1v-1.9h1.1v1.9h1.4v0.9h-1.4v4.2c0,0.5,0.2,0.9,0.7,0.9c0.3,0,0.6-0.1,0.7-0.3
		l0.3,0.8c-0.3,0.2-0.6,0.4-1.3,0.4C191.2,227.9,190.7,227.4,190.7,226.3z"/>
	<path class="st1" d="M194.5,226.1c0.4,0.5,1.3,1,2.2,1c1,0,1.6-0.5,1.6-1.1c0-0.7-0.8-1-1.7-1.2c-1.1-0.3-2.4-0.6-2.4-2
		c0-1.1,0.9-1.9,2.5-1.9c1.1,0,2,0.4,2.5,1l-0.5,0.7c-0.4-0.5-1.1-0.9-2-0.9c-0.9,0-1.5,0.4-1.5,1c0,0.7,0.8,0.9,1.6,1.1
		c1.2,0.3,2.5,0.6,2.5,2.1c0,1.1-0.9,2-2.7,2c-1.1,0-2-0.3-2.7-1.1L194.5,226.1z"/>
	<path class="st1" d="M205,221.9h-1.1V221h1.1v-0.5c0-1.4,0.8-2.2,2-2.2c0.4,0,0.8,0.1,1,0.2l-0.3,0.8c-0.2-0.1-0.4-0.1-0.6-0.1
		c-0.7,0-1.1,0.5-1.1,1.3v0.5h1.4v0.9H206v5.8H205V221.9z"/>
	<path class="st1" d="M208.6,221h1.1v1.1c0.6-0.7,1.3-1.2,2.2-1.2v1.1c-0.1,0-0.2,0-0.4,0c-0.6,0-1.5,0.5-1.8,1.1v4.8h-1.1V221z"/>
	<path class="st1" d="M212.9,224.4c0-2,1.3-3.5,3.4-3.5c2.1,0,3.4,1.6,3.4,3.5s-1.3,3.6-3.4,3.6
		C214.2,227.9,212.9,226.3,212.9,224.4z M218.5,224.4c0-1.4-0.8-2.6-2.2-2.6s-2.2,1.2-2.2,2.6c0,1.4,0.8,2.6,2.2,2.6
		C217.7,227,218.5,225.8,218.5,224.4z"/>
	<path class="st1" d="M229.4,223.2c0-0.9-0.4-1.4-1.2-1.4c-0.7,0-1.4,0.5-1.8,1v5h-1.1v-4.6c0-0.9-0.4-1.4-1.2-1.4
		c-0.7,0-1.4,0.5-1.8,1.1v4.9h-1.1V221h1.1v1c0.3-0.4,1.2-1.1,2.2-1.1c1,0,1.6,0.6,1.8,1.3c0.4-0.6,1.3-1.3,2.3-1.3
		c1.2,0,1.9,0.7,1.9,2v4.9h-1.1L229.4,223.2L229.4,223.2z"/>
	<path class="st1" d="M236.4,226.3v-4.4h-1.1V221h1.1v-1.9h1.1v1.9h1.4v0.9h-1.4v4.2c0,0.5,0.2,0.9,0.7,0.9c0.3,0,0.6-0.1,0.7-0.3
		l0.3,0.8c-0.3,0.2-0.6,0.4-1.3,0.4C236.9,227.9,236.4,227.4,236.4,226.3z"/>
	<path class="st1" d="M244.9,223.3c0-1.2-0.6-1.5-1.5-1.5c-0.8,0-1.6,0.5-2,1.1v4.9h-1.1v-9.3h1.1v3.6c0.5-0.6,1.4-1.1,2.4-1.1
		c1.4,0,2.2,0.7,2.2,2.2v4.8h-1.1V223.3z"/>
	<path class="st1" d="M251,220.8c2,0,3.2,1.6,3.2,3.6v0.3h-5.5c0.1,1.3,1,2.3,2.4,2.3c0.8,0,1.6-0.3,2.1-0.9l0.5,0.7
		c-0.7,0.7-1.6,1-2.7,1c-2,0-3.4-1.4-3.4-3.6C247.6,222.4,249.1,220.8,251,220.8z M248.8,223.9h4.4c0-1-0.7-2.2-2.2-2.2
		C249.5,221.7,248.8,222.9,248.8,223.9z"/>
	<path class="st1" d="M259.5,230.3V221h1v1c0.5-0.7,1.3-1.2,2.3-1.2c1.8,0,3,1.3,3,3.5c0,2.2-1.2,3.6-3,3.6c-0.9,0-1.7-0.4-2.3-1.2
		v3.6H259.5z M262.6,221.8c-0.8,0-1.6,0.5-2,1.1v3.1c0.4,0.6,1.2,1.1,2,1.1c1.4,0,2.2-1.1,2.2-2.6S264,221.8,262.6,221.8z"/>
	<path class="st1" d="M271.8,227c-0.6,0.6-1.3,0.9-2.2,0.9c-1.1,0-2.4-0.8-2.4-2.2c0-1.5,1.2-2.2,2.4-2.2c0.9,0,1.7,0.3,2.2,0.9
		v-1.2c0-0.9-0.7-1.4-1.7-1.4c-0.8,0-1.5,0.3-2.1,0.9l-0.5-0.7c0.7-0.8,1.6-1.1,2.7-1.1c1.4,0,2.6,0.6,2.6,2.3v4.6h-1L271.8,227
		L271.8,227z M271.8,225.1c-0.4-0.6-1.1-0.8-1.9-0.8c-1,0-1.7,0.6-1.7,1.5c0,0.9,0.7,1.5,1.7,1.5c0.7,0,1.5-0.3,1.9-0.8V225.1z"/>
	<path class="st1" d="M274.9,226.1c0.5,0.5,1.3,1,2.2,1c1,0,1.6-0.5,1.6-1.1c0-0.7-0.8-1-1.7-1.2c-1.1-0.3-2.5-0.6-2.5-2
		c0-1.1,0.9-1.9,2.5-1.9c1.1,0,2,0.4,2.5,1l-0.5,0.7c-0.4-0.5-1.1-0.9-2-0.9c-0.9,0-1.5,0.4-1.5,1c0,0.7,0.8,0.9,1.6,1.1
		c1.2,0.3,2.5,0.6,2.5,2.1c0,1.1-0.9,2-2.7,2c-1.1,0-2-0.3-2.7-1.1L274.9,226.1z"/>
	<path class="st1" d="M281.7,226.3v-4.4h-1.1V221h1.1v-1.9h1v1.9h1.4v0.9h-1.4v4.2c0,0.5,0.2,0.9,0.7,0.9c0.3,0,0.6-0.1,0.7-0.3
		l0.3,0.8c-0.3,0.2-0.6,0.4-1.3,0.4C282.2,227.9,281.7,227.4,281.7,226.3z"/>
	<path class="st1" d="M289.2,225.7c0.5,0.7,1.5,1.2,2.6,1.2c1.4,0,2.2-0.7,2.2-1.8c0-1.2-1-1.6-2.3-1.6c-0.4,0-0.8,0-1,0v-1.1
		c0.1,0,0.6,0,1,0c1.2,0,2.2-0.5,2.2-1.5c0-1-1-1.6-2.1-1.6c-1,0-1.8,0.4-2.5,1.1l-0.6-0.7c0.7-0.8,1.8-1.4,3.2-1.4
		c1.8,0,3.2,0.9,3.2,2.5c0,1.3-1.1,2-2,2.2c0.9,0.1,2.2,0.8,2.2,2.3c0,1.6-1.2,2.7-3.3,2.7c-1.6,0-2.8-0.7-3.3-1.5L289.2,225.7z"/>
	<path class="st1" d="M305.5,226.8c-0.5,0.7-1.3,1.2-2.3,1.2c-1.8,0-3-1.3-3-3.5c0-2.2,1.2-3.6,3-3.6c0.9,0,1.7,0.4,2.3,1.2v-3.6h1
		v9.3h-1V226.8z M305.5,222.9c-0.4-0.6-1.2-1.1-2-1.1c-1.4,0-2.2,1.1-2.2,2.6s0.8,2.6,2.2,2.6c0.8,0,1.6-0.5,2-1.1V222.9z"/>
	<path class="st1" d="M312.9,227c-0.6,0.6-1.3,0.9-2.2,0.9c-1.1,0-2.4-0.8-2.4-2.2c0-1.5,1.2-2.2,2.4-2.2c0.9,0,1.7,0.3,2.2,0.9
		v-1.2c0-0.9-0.7-1.4-1.7-1.4c-0.8,0-1.5,0.3-2.1,0.9l-0.5-0.7c0.7-0.8,1.6-1.1,2.7-1.1c1.4,0,2.6,0.6,2.6,2.3v4.6h-1L312.9,227
		L312.9,227z M312.9,225.1c-0.4-0.6-1.1-0.8-1.9-0.8c-1,0-1.7,0.6-1.7,1.5c0,0.9,0.7,1.5,1.7,1.5c0.7,0,1.5-0.3,1.9-0.8V225.1z"/>
	<path class="st1" d="M316.4,229.6c0.5,0,0.8-0.1,1-0.7l0.5-1L315,221h1.1l2.2,5.6l2.2-5.6h1.1l-3.4,8.1c-0.4,1-1.1,1.4-2,1.4
		c-0.2,0-0.6,0-0.8-0.1l0.2-0.9C316,229.5,316.2,229.6,316.4,229.6z"/>
	<path class="st1" d="M322.8,226.1c0.5,0.5,1.3,1,2.2,1c1,0,1.6-0.5,1.6-1.1c0-0.7-0.8-1-1.7-1.2c-1.1-0.3-2.5-0.6-2.5-2
		c0-1.1,0.9-1.9,2.5-1.9c1.1,0,2,0.4,2.5,1l-0.5,0.7c-0.4-0.5-1.1-0.9-2-0.9c-0.9,0-1.5,0.4-1.5,1c0,0.7,0.8,0.9,1.6,1.1
		c1.2,0.3,2.5,0.6,2.5,2.1c0,1.1-0.9,2-2.7,2c-1.1,0-2-0.3-2.7-1.1L322.8,226.1z"/>
</g>
<g>
	<path class="st1" d="M130.3,243.9h1.3l3.1,8.1l3.1-8.1h1.3l-3.8,9.3H134L130.3,243.9z"/>
	<path class="st1" d="M140.2,244.6c0-0.4,0.3-0.7,0.7-0.7c0.4,0,0.7,0.3,0.7,0.7s-0.3,0.7-0.7,0.7
		C140.6,245.4,140.2,245,140.2,244.6z M140.4,246.5h1.1v6.8h-1.1V246.5z"/>
	<path class="st1" d="M146.5,246.3c2,0,3.2,1.6,3.2,3.6v0.3h-5.5c0.1,1.3,1,2.3,2.4,2.3c0.8,0,1.6-0.3,2.1-0.9l0.5,0.7
		c-0.7,0.7-1.6,1-2.7,1c-2,0-3.4-1.4-3.4-3.6C143.2,247.9,144.6,246.3,146.5,246.3z M144.3,249.4h4.4c0-1-0.7-2.2-2.2-2.2
		C145.1,247.2,144.4,248.4,144.3,249.4z"/>
	<path class="st1" d="M155.6,247.8l-1.8,5.4h-1.1l-2.2-6.8h1.1l1.6,5.4l1.8-5.4h0.9l1.8,5.4l1.6-5.4h1.1l-2.2,6.8h-1.1L155.6,247.8z
		"/>
	<path class="st1" d="M169.6,243.8c2.8,0,4.6,2.1,4.6,4.8s-1.9,4.8-4.6,4.8c-2.8,0-4.6-2.1-4.6-4.8
		C165,245.8,166.9,243.8,169.6,243.8z M169.6,244.8c-2.1,0-3.4,1.6-3.4,3.8c0,2.2,1.3,3.8,3.4,3.8c2.1,0,3.4-1.6,3.4-3.8
		C173.1,246.4,171.7,244.8,169.6,244.8z"/>
	<path class="st1" d="M176.1,243.9h1.1v9.3h-1.1V243.9z"/>
	<path class="st1" d="M184.1,252.2c-0.5,0.7-1.3,1.2-2.3,1.2c-1.8,0-3-1.3-3-3.5c0-2.2,1.2-3.6,3-3.6c0.9,0,1.7,0.4,2.3,1.2v-3.6
		h1.1v9.3h-1.1V252.2z M184.1,248.4c-0.4-0.6-1.2-1.1-2-1.1c-1.4,0-2.2,1.1-2.2,2.6s0.8,2.6,2.2,2.6c0.8,0,1.6-0.5,2-1.1V248.4z"/>
	<path class="st1" d="M190.2,246.3c2,0,3.2,1.6,3.2,3.6v0.3H188c0.1,1.3,1,2.3,2.4,2.3c0.8,0,1.6-0.3,2.1-0.9l0.5,0.7
		c-0.7,0.7-1.6,1-2.7,1c-2,0-3.4-1.4-3.4-3.6C186.9,247.9,188.3,246.3,190.2,246.3z M188,249.4h4.4c0-1-0.7-2.2-2.2-2.2
		C188.8,247.2,188,248.4,188,249.4z"/>
	<path class="st1" d="M195.1,246.5h1.1v1.1c0.6-0.7,1.3-1.2,2.2-1.2v1.1c-0.1,0-0.2,0-0.4,0c-0.6,0-1.5,0.5-1.8,1.1v4.8h-1.1V246.5z
		"/>
	<path class="st1" d="M203.4,243.9h3.8c1.9,0,2.9,1.3,2.9,2.8c0,1.5-1.1,2.8-2.9,2.8h-2.6v3.7h-1.2V243.9z M207,244.9h-2.4v3.6h2.4
		c1.1,0,1.9-0.7,1.9-1.8S208.1,244.9,207,244.9z"/>
	<path class="st1" d="M211,249.9c0-2,1.3-3.5,3.4-3.5c2.1,0,3.4,1.6,3.4,3.5s-1.3,3.6-3.4,3.6C212.3,253.4,211,251.8,211,249.9z
		 M216.6,249.9c0-1.4-0.8-2.6-2.2-2.6s-2.2,1.2-2.2,2.6c0,1.4,0.8,2.6,2.2,2.6C215.8,252.5,216.6,251.2,216.6,249.9z"/>
	<path class="st1" d="M219.4,251.6c0.4,0.5,1.3,1,2.2,1c1,0,1.6-0.5,1.6-1.1c0-0.7-0.8-1-1.7-1.2c-1.1-0.3-2.4-0.6-2.4-2
		c0-1.1,0.9-1.9,2.5-1.9c1.1,0,2,0.4,2.5,1l-0.5,0.7c-0.4-0.5-1.1-0.9-2-0.9c-0.9,0-1.5,0.4-1.5,1c0,0.7,0.8,0.9,1.6,1.1
		c1.2,0.3,2.5,0.6,2.5,2.1c0,1.1-0.9,2-2.7,2c-1.1,0-2-0.3-2.7-1.1L219.4,251.6z"/>
	<path class="st1" d="M226.1,251.8v-4.4H225v-0.9h1.1v-1.9h1.1v1.9h1.4v0.9h-1.4v4.2c0,0.5,0.2,0.9,0.7,0.9c0.3,0,0.6-0.1,0.7-0.3
		l0.3,0.8c-0.3,0.2-0.6,0.4-1.3,0.4C226.6,253.4,226.1,252.9,226.1,251.8z"/>
	<path class="st1" d="M230,251.6c0.4,0.5,1.3,1,2.2,1c1,0,1.6-0.5,1.6-1.1c0-0.7-0.8-1-1.7-1.2c-1.1-0.3-2.4-0.6-2.4-2
		c0-1.1,0.9-1.9,2.5-1.9c1.1,0,2,0.4,2.5,1l-0.5,0.7c-0.4-0.5-1.1-0.9-2-0.9c-0.9,0-1.5,0.4-1.5,1c0,0.7,0.8,0.9,1.6,1.1
		c1.2,0.3,2.5,0.6,2.5,2.1c0,1.1-0.9,2-2.7,2c-1.1,0-2-0.3-2.7-1.1L230,251.6z"/>
</g>
<line class="st2" x1="0" y1="-0.2" x2="360" y2="0.6"/>
<line class="st2" x1="0" y1="307.8" x2="360" y2="308.5"/>
<line class="st2" x1="0" y1="356.4" x2="360" y2="357.2"/>
<g>
	<path d="M14.9,334.9c0.9,0.9,2.2,1.6,3.8,1.6c1.4,0,2.1-0.7,2.1-1.4c0-0.9-1-1.2-2.4-1.5c-2-0.5-4.5-1-4.5-3.7c0-2,1.7-3.6,4.6-3.6
		c1.9,0,3.5,0.6,4.7,1.7l-1.4,1.9c-1-0.9-2.3-1.3-3.4-1.3c-1.1,0-1.8,0.5-1.8,1.2c0,0.8,1,1.1,2.4,1.4c2,0.5,4.5,1,4.5,3.7
		c0,2.2-1.6,3.9-4.8,3.9c-2.3,0-4-0.8-5.1-1.9L14.9,334.9z"/>
	<path d="M31,337.5c-0.6,0.7-1.6,1.3-3.1,1.3c-1.9,0-2.8-1-2.8-2.7v-6.2h2.3v5.3c0,1.2,0.6,1.6,1.6,1.6c0.9,0,1.6-0.5,2-1v-5.9h2.3
		v8.7H31C31,338.5,31,337.5,31,337.5z"/>
	<path d="M36.4,339.1c0.7,0.8,1.6,1.1,2.7,1.1c1.1,0,2.4-0.5,2.4-2.2v-0.9c-0.7,0.9-1.6,1.4-2.7,1.4c-2.2,0-3.8-1.5-3.8-4.4
		c0-2.8,1.6-4.4,3.8-4.4c1,0,2,0.5,2.7,1.3v-1.1h2.3v8.1c0,3.3-2.6,4.1-4.7,4.1c-1.5,0-2.7-0.3-3.8-1.3L36.4,339.1z M41.5,332.7
		c-0.4-0.6-1.2-1-2-1c-1.3,0-2.2,0.9-2.2,2.4s0.9,2.4,2.2,2.4c0.8,0,1.6-0.4,2-1V332.7z"/>
	<path d="M46.9,339.1c0.7,0.8,1.6,1.1,2.7,1.1c1.1,0,2.4-0.5,2.4-2.2v-0.9c-0.7,0.9-1.6,1.4-2.7,1.4c-2.2,0-3.8-1.5-3.8-4.4
		c0-2.8,1.6-4.4,3.8-4.4c1,0,2,0.5,2.7,1.3v-1.1h2.3v8.1c0,3.3-2.6,4.1-4.7,4.1c-1.5,0-2.7-0.3-3.8-1.3L46.9,339.1z M52,332.7
		c-0.4-0.6-1.2-1-2-1c-1.3,0-2.2,0.9-2.2,2.4s0.9,2.4,2.2,2.4c0.8,0,1.6-0.4,2-1V332.7z"/>
	<path d="M60.5,329.6c2.6,0,4.4,2,4.4,4.8v0.5h-6.5c0.1,1.1,1,2,2.5,2c0.8,0,1.8-0.3,2.3-0.9l1,1.5c-0.9,0.8-2.2,1.2-3.6,1.2
		c-2.7,0-4.7-1.8-4.7-4.6C56,331.7,57.9,329.6,60.5,329.6z M58.4,333.4h4.3c0-0.8-0.6-1.9-2.1-1.9C59.1,331.5,58.5,332.5,58.4,333.4
		z"/>
	<path d="M66.8,335.8c0.6,0.6,1.9,1.2,3,1.2c1,0,1.5-0.3,1.5-0.9c0-0.6-0.8-0.8-1.8-1c-1.5-0.3-3.4-0.6-3.4-2.7
		c0-1.5,1.3-2.7,3.6-2.7c1.5,0,2.7,0.5,3.5,1.2l-0.9,1.6c-0.5-0.6-1.5-1-2.6-1c-0.8,0-1.4,0.3-1.4,0.8c0,0.5,0.7,0.7,1.7,0.9
		c1.5,0.3,3.5,0.7,3.5,2.8c0,1.6-1.3,2.8-3.8,2.8c-1.5,0-3-0.5-3.9-1.4L66.8,335.8z"/>
	<path d="M75.6,336.4v-4.5h-1.4v-2h1.4v-2.4h2.3v2.4h1.8v2h-1.8v3.9c0,0.5,0.3,1,0.8,1c0.3,0,0.7-0.1,0.8-0.2l0.5,1.7
		c-0.3,0.3-0.9,0.6-1.9,0.6C76.4,338.8,75.6,337.9,75.6,336.4z"/>
	<path d="M85.2,329.6c2.6,0,4.4,2,4.4,4.8v0.5h-6.5c0.1,1.1,1,2,2.5,2c0.8,0,1.8-0.3,2.3-0.9l1,1.5c-0.9,0.8-2.2,1.2-3.6,1.2
		c-2.7,0-4.7-1.8-4.7-4.6C80.7,331.7,82.5,329.6,85.2,329.6z M83,333.4h4.3c-0.1-0.8-0.6-1.9-2.1-1.9
		C83.7,331.5,83.1,332.5,83,333.4z"/>
	<path d="M97.1,337.4c-0.7,0.9-1.6,1.3-2.7,1.3c-2.2,0-3.8-1.7-3.8-4.5c0-2.9,1.6-4.6,3.8-4.6c1,0,2,0.5,2.7,1.3v-4.4h2.3v12h-2.3
		V337.4z M97.1,332.7c-0.4-0.6-1.2-1-2-1c-1.3,0-2.2,1-2.2,2.5c0,1.5,0.9,2.5,2.2,2.5c0.8,0,1.6-0.4,2-1V332.7z"/>
	<path d="M106.4,326.5h5.6c2.6,0,4,1.8,4,3.9c0,2.1-1.4,3.8-4,3.8h-3.1v4.3h-2.6C106.4,338.5,106.4,326.5,106.4,326.5z M111.7,328.7
		h-2.7v3.3h2.7c1,0,1.8-0.6,1.8-1.7C113.4,329.4,112.7,328.7,111.7,328.7z"/>
	<path d="M116.7,334.2c0-2.5,1.7-4.6,4.6-4.6c2.9,0,4.6,2.1,4.6,4.6c0,2.5-1.7,4.6-4.6,4.6C118.4,338.8,116.7,336.7,116.7,334.2z
		 M123.5,334.2c0-1.4-0.8-2.5-2.2-2.5s-2.2,1.2-2.2,2.5c0,1.4,0.8,2.5,2.2,2.5S123.5,335.6,123.5,334.2z"/>
	<path d="M127.8,335.8c0.6,0.6,1.9,1.2,3,1.2c1,0,1.5-0.3,1.5-0.9c0-0.6-0.8-0.8-1.8-1c-1.5-0.3-3.4-0.6-3.4-2.7
		c0-1.5,1.3-2.7,3.6-2.7c1.5,0,2.6,0.5,3.5,1.2l-0.9,1.6c-0.5-0.6-1.5-1-2.6-1c-0.8,0-1.4,0.3-1.4,0.8c0,0.5,0.7,0.7,1.7,0.9
		c1.5,0.3,3.5,0.7,3.5,2.8c0,1.6-1.4,2.8-3.8,2.8c-1.5,0-3-0.5-3.9-1.4L127.8,335.8z"/>
	<path d="M136.6,336.4v-4.5h-1.4v-2h1.4v-2.4h2.3v2.4h1.8v2h-1.8v3.9c0,0.5,0.3,1,0.8,1c0.3,0,0.7-0.1,0.8-0.2l0.5,1.7
		c-0.3,0.3-0.9,0.6-1.9,0.6C137.5,338.8,136.6,337.9,136.6,336.4z"/>
	<path d="M142.5,335.8c0.6,0.6,1.9,1.2,3,1.2c1,0,1.5-0.3,1.5-0.9c0-0.6-0.8-0.8-1.8-1c-1.5-0.3-3.4-0.6-3.4-2.7
		c0-1.5,1.3-2.7,3.6-2.7c1.5,0,2.6,0.5,3.5,1.2l-0.9,1.6c-0.5-0.6-1.5-1-2.6-1c-0.8,0-1.4,0.3-1.4,0.8c0,0.5,0.7,0.7,1.7,0.9
		c1.5,0.3,3.5,0.7,3.5,2.8c0,1.6-1.4,2.8-3.8,2.8c-1.5,0-3-0.5-3.9-1.4L142.5,335.8z"/>
</g>
</svg>
