<?xml version="1.0" encoding="utf-8"?>
<!-- Generator: Adobe Illustrator 25.2.1, SVG Export Plug-In . SVG Version: 6.00 Build 0)  -->
<svg version="1.1" id="Layer_1" xmlns="http://www.w3.org/2000/svg" xmlns:xlink="http://www.w3.org/1999/xlink" x="0px" y="0px"
	 viewBox="0 0 360 311" style="enable-background:new 0 0 360 311;" xml:space="preserve">
<style type="text/css">
	.st0{fill:none;stroke:#000000;stroke-width:5;stroke-linecap:round;stroke-linejoin:round;}
	.st1{fill:#9D9D9C;}
	.st2{fill:url(#SVGID_1_);stroke:#9E9B99;stroke-width:0.5;stroke-linecap:round;stroke-linejoin:round;}
	.st3{stroke:#000000;stroke-width:0.5;stroke-linecap:round;stroke-linejoin:round;}
	.st4{display:none;stroke:#000000;stroke-width:0.5;stroke-linecap:round;stroke-linejoin:round;}
	.st5{fill:none;stroke:#000000;stroke-width:0.5;stroke-linecap:round;stroke-linejoin:round;}
</style>
<path class="st0" d="M223.47,70.62v4.03c-0.01,24.18-19.63,43.78-43.82,43.77c-24.18-0.01-43.78-19.63-43.77-43.82
	s19.63-43.78,43.82-43.77c6.13,0,12.2,1.3,17.8,3.79"/>
<polyline class="st0" points="223.47,39.62 179.68,83.45 166.55,70.31 "/>
<g>
	<path d="M77.18,163.09l-6.57-9.62h2.42l5.17,7.75l5.17-7.75h2.42l-6.55,9.62v7.05h-2.08V163.09z"/>
	<path d="M84.03,164.09c0-3.5,2.3-6.32,5.97-6.32s5.97,2.82,5.97,6.32s-2.3,6.35-5.97,6.35S84.03,167.59,84.03,164.09z M94,164.09
		c0-2.45-1.42-4.65-4-4.65s-4.02,2.2-4.02,4.65c0,2.47,1.45,4.67,4.02,4.67S94,166.57,94,164.09z"/>
	<path d="M107.18,168.44c-0.92,1.05-2.5,2-4.3,2c-2.52,0-3.85-1.22-3.85-3.85v-8.52h1.87v7.95c0,2.12,1.08,2.75,2.7,2.75
		c1.47,0,2.87-0.85,3.57-1.82v-8.87h1.88v12.07h-1.88V168.44z"/>
	<path d="M112.36,158.12c0.8-0.52,1.52-1.52,1.62-2.32c-0.05,0.03-0.22,0.05-0.35,0.05c-0.7,0-1.2-0.52-1.2-1.27
		c0-0.72,0.57-1.35,1.32-1.35c0.83,0,1.57,0.67,1.57,1.9c0,1.52-0.9,2.95-2.05,3.77L112.36,158.12z"/>
	<path d="M118.56,158.07h1.87v1.95c0.97-1.28,2.37-2.2,4.02-2.2v1.92c-0.23-0.05-0.45-0.08-0.75-0.08c-1.15,0-2.72,0.95-3.27,1.92
		v8.55h-1.87V158.07z"/>
	<path d="M132.05,157.77c3.65,0,5.8,2.85,5.8,6.47v0.47h-9.77c0.15,2.27,1.75,4.17,4.35,4.17c1.38,0,2.77-0.55,3.72-1.52l0.9,1.22
		c-1.2,1.2-2.82,1.85-4.8,1.85c-3.57,0-6.15-2.57-6.15-6.35C126.11,160.59,128.6,157.77,132.05,157.77z M128.08,163.34H136
		c-0.03-1.8-1.22-4.02-3.97-4.02C129.45,159.32,128.18,161.49,128.08,163.34z"/>
	<path d="M157.9,166.44h-8.45l-1.47,3.7h-2.3l6.7-16.67h2.58l6.72,16.67h-2.3L157.9,166.44z M150.05,164.59h7.22l-3.6-9.27
		L150.05,164.59z"/>
	<path d="M163.78,153.47h1.87v16.67h-1.87V153.47z"/>
	<path d="M169.41,153.47h1.87v16.67h-1.87V153.47z"/>
	<path d="M180.88,161.82c0-5.12,3.77-8.62,8.5-8.62c3.02,0,5.07,1.42,6.4,3.3l-1.75,0.97c-0.95-1.4-2.67-2.43-4.65-2.43
		c-3.57,0-6.35,2.8-6.35,6.77c0,3.95,2.77,6.77,6.35,6.77c1.97,0,3.7-1,4.65-2.42l1.77,0.97c-1.4,1.9-3.4,3.3-6.42,3.3
		C184.65,170.44,180.88,166.94,180.88,161.82z"/>
	<path d="M205.93,168.77c-1,1.1-2.38,1.67-4,1.67c-2.05,0-4.22-1.38-4.22-4c0-2.7,2.17-3.97,4.22-3.97c1.65,0,3.02,0.52,4,1.65
		v-2.17c0-1.62-1.3-2.55-3.05-2.55c-1.45,0-2.62,0.52-3.7,1.67l-0.88-1.3c1.3-1.35,2.85-2,4.82-2c2.55,0,4.67,1.15,4.67,4.07v8.3
		h-1.87V168.77z M205.93,165.32c-0.72-1-2-1.5-3.32-1.5c-1.75,0-2.97,1.1-2.97,2.65c0,1.52,1.22,2.62,2.97,2.62
		c1.32,0,2.6-0.5,3.32-1.5V165.32z"/>
	<path d="M219.7,168.44c-0.92,1.05-2.5,2-4.3,2c-2.52,0-3.85-1.22-3.85-3.85v-8.52h1.87v7.95c0,2.12,1.08,2.75,2.7,2.75
		c1.47,0,2.87-0.85,3.57-1.82v-8.87h1.88v12.07h-1.88V168.44z"/>
	<path d="M226.25,171.84c1,1.2,2.2,1.65,3.92,1.65c2,0,3.87-0.98,3.87-3.62v-1.72c-0.88,1.23-2.35,2.15-4.05,2.15
		c-3.15,0-5.37-2.35-5.37-6.25c0-3.87,2.2-6.27,5.37-6.27c1.62,0,3.07,0.8,4.05,2.12v-1.83h1.87v11.72c0,4-2.8,5.25-5.75,5.25
		c-2.05,0-3.45-0.4-4.87-1.8L226.25,171.84z M234.05,161.39c-0.65-1.05-2.1-1.95-3.6-1.95c-2.42,0-3.87,1.92-3.87,4.6
		c0,2.65,1.45,4.6,3.87,4.6c1.5,0,2.95-0.92,3.6-1.97V161.39z"/>
	<path d="M247.85,162.19c0-2.12-1.1-2.75-2.72-2.75c-1.45,0-2.85,0.9-3.57,1.87v8.82h-1.87v-16.67h1.87v6.35
		c0.85-1,2.5-2.05,4.32-2.05c2.52,0,3.85,1.22,3.85,3.85v8.52h-1.87V162.19z"/>
	<path d="M253.85,167.62v-7.9h-2v-1.65h2v-3.3h1.88v3.3h2.45v1.65h-2.45v7.5c0,0.9,0.4,1.55,1.22,1.55c0.53,0,1.02-0.22,1.27-0.5
		l0.55,1.4c-0.47,0.45-1.15,0.77-2.25,0.77C254.75,170.44,253.85,169.42,253.85,167.62z"/>
	<path d="M267.35,153.47h2.08v10.15c0,3.05,1.65,4.97,4.72,4.97s4.72-1.92,4.72-4.97v-10.15h2.07v10.17c0,4.15-2.27,6.8-6.8,6.8
		c-4.52,0-6.8-2.67-6.8-6.77V153.47z"/>
	<path d="M284.78,174.74v-16.67h1.87v1.8c0.88-1.22,2.37-2.1,4.07-2.1c3.17,0,5.37,2.4,5.37,6.32c0,3.9-2.2,6.35-5.37,6.35
		c-1.65,0-3.1-0.77-4.07-2.12v6.42H284.78z M290.25,159.44c-1.47,0-2.95,0.88-3.6,1.92v5.45c0.65,1.05,2.12,1.95,3.6,1.95
		c2.42,0,3.87-2,3.87-4.67C294.13,161.42,292.68,159.44,290.25,159.44z"/>
</g>
<g>
	<path class="st1" d="M45.68,194.14L42,188.75h1.36l2.9,4.34l2.9-4.34h1.36l-3.67,5.39v3.95h-1.16V194.14z"/>
	<path class="st1" d="M49.52,194.71c0-1.96,1.29-3.54,3.35-3.54s3.35,1.58,3.35,3.54s-1.29,3.56-3.35,3.56
		S49.52,196.67,49.52,194.71z M55.11,194.71c0-1.37-0.8-2.61-2.24-2.61c-1.44,0-2.26,1.23-2.26,2.61c0,1.39,0.81,2.62,2.26,2.62
		C54.31,197.32,55.11,196.09,55.11,194.71z"/>
	<path class="st1" d="M62.48,197.14c-0.52,0.59-1.4,1.12-2.41,1.12c-1.41,0-2.16-0.69-2.16-2.16v-4.78h1.05v4.45
		c0,1.19,0.6,1.54,1.51,1.54c0.83,0,1.61-0.48,2-1.02v-4.97h1.05v6.77h-1.05V197.14z"/>
	<path class="st1" d="M65.38,191.36c0.45-0.29,0.85-0.85,0.91-1.3c-0.03,0.01-0.13,0.03-0.2,0.03c-0.39,0-0.67-0.29-0.67-0.71
		c0-0.41,0.32-0.76,0.74-0.76c0.46,0,0.88,0.38,0.88,1.06c0,0.85-0.5,1.65-1.15,2.12L65.38,191.36z"/>
	<path class="st1" d="M67.84,191.33h1.13l2.26,5.55l2.24-5.55h1.15l-2.82,6.77h-1.15L67.84,191.33z"/>
	<path class="st1" d="M78.65,191.16c2.04,0,3.25,1.6,3.25,3.63v0.27h-5.48c0.08,1.28,0.98,2.34,2.44,2.34
		c0.77,0,1.55-0.31,2.09-0.85l0.5,0.69c-0.67,0.67-1.58,1.04-2.69,1.04c-2,0-3.45-1.44-3.45-3.56
		C75.32,192.74,76.72,191.16,78.65,191.16z M76.43,194.28h4.44c-0.01-1.01-0.69-2.25-2.23-2.25
		C77.2,192.03,76.48,193.25,76.43,194.28z"/>
	<path class="st1" d="M87.16,196.44c0.45,0.52,1.3,0.97,2.23,0.97c1.04,0,1.6-0.46,1.6-1.12c0-0.74-0.83-0.98-1.74-1.21
		c-1.15-0.27-2.45-0.57-2.45-1.97c0-1.05,0.91-1.95,2.52-1.95c1.15,0,1.96,0.43,2.51,0.98l-0.49,0.73
		c-0.41-0.49-1.15-0.85-2.02-0.85c-0.92,0-1.5,0.42-1.5,1.02c0,0.66,0.77,0.87,1.65,1.08c1.18,0.27,2.54,0.6,2.54,2.1
		c0,1.13-0.91,2.04-2.66,2.04c-1.11,0-2.04-0.34-2.73-1.06L87.16,196.44z"/>
	<path class="st1" d="M96.66,191.16c2.04,0,3.25,1.6,3.25,3.63v0.27h-5.48c0.08,1.28,0.98,2.34,2.44,2.34
		c0.77,0,1.55-0.31,2.09-0.85l0.5,0.69c-0.67,0.67-1.58,1.04-2.69,1.04c-2,0-3.45-1.44-3.45-3.56
		C93.32,192.74,94.72,191.16,96.66,191.16z M94.43,194.28h4.44c-0.01-1.01-0.69-2.25-2.23-2.25
		C95.2,192.03,94.49,193.25,94.43,194.28z"/>
	<path class="st1" d="M104.54,191.16c2.04,0,3.25,1.6,3.25,3.63v0.27h-5.48c0.08,1.28,0.98,2.34,2.44,2.34
		c0.77,0,1.55-0.31,2.09-0.85l0.5,0.69c-0.67,0.67-1.58,1.04-2.69,1.04c-2,0-3.45-1.44-3.45-3.56
		C101.21,192.74,102.61,191.16,104.54,191.16z M102.31,194.28h4.44c-0.01-1.01-0.69-2.25-2.23-2.25
		C103.08,192.03,102.37,193.25,102.31,194.28z"/>
	<path class="st1" d="M114.05,193.67c0-1.19-0.6-1.57-1.51-1.57c-0.83,0-1.61,0.5-2,1.05v4.94h-1.05v-6.77h1.05v0.98
		c0.48-0.56,1.4-1.15,2.41-1.15c1.41,0,2.16,0.71,2.16,2.18v4.75h-1.05V193.67z"/>
	<path class="st1" d="M125.04,197.32c-0.56,0.62-1.33,0.94-2.24,0.94c-1.15,0-2.37-0.77-2.37-2.24c0-1.51,1.22-2.23,2.37-2.23
		c0.92,0,1.69,0.29,2.24,0.92v-1.22c0-0.91-0.73-1.43-1.71-1.43c-0.81,0-1.47,0.29-2.07,0.94l-0.49-0.73
		c0.73-0.76,1.6-1.12,2.7-1.12c1.43,0,2.62,0.64,2.62,2.28v4.65h-1.05V197.32z M125.04,195.39c-0.41-0.56-1.12-0.84-1.86-0.84
		c-0.98,0-1.67,0.62-1.67,1.48c0,0.85,0.69,1.47,1.67,1.47c0.74,0,1.46-0.28,1.86-0.84V195.39z"/>
	<path class="st1" d="M128.18,188.75h1.05v9.34h-1.05V188.75z"/>
	<path class="st1" d="M131.33,188.75h1.05v9.34h-1.05V188.75z"/>
	<path class="st1" d="M142.66,193.67c0-1.19-0.6-1.57-1.51-1.57c-0.83,0-1.61,0.5-2,1.05v4.94h-1.05v-6.77h1.05v0.98
		c0.48-0.56,1.4-1.15,2.41-1.15c1.41,0,2.16,0.71,2.16,2.18v4.75h-1.05V193.67z"/>
	<path class="st1" d="M148.75,191.16c2.04,0,3.25,1.6,3.25,3.63v0.27h-5.48c0.08,1.28,0.98,2.34,2.44,2.34
		c0.77,0,1.55-0.31,2.09-0.85l0.5,0.69c-0.67,0.67-1.58,1.04-2.69,1.04c-2,0-3.45-1.44-3.45-3.56
		C145.42,192.74,146.82,191.16,148.75,191.16z M146.52,194.28h4.44c-0.01-1.01-0.69-2.25-2.23-2.25
		C147.29,192.03,146.58,193.25,146.52,194.28z"/>
	<path class="st1" d="M157.78,192.66l-1.76,5.43h-1.05l-2.16-6.77h1.09l1.65,5.39l1.78-5.39h0.9l1.78,5.39l1.65-5.39h1.09
		l-2.16,6.77h-1.05L157.78,192.66z"/>
	<path class="st1" d="M167.58,200.67v-9.34h1.05v1.01c0.49-0.69,1.33-1.18,2.28-1.18c1.78,0,3.01,1.34,3.01,3.54
		c0,2.18-1.23,3.56-3.01,3.56c-0.92,0-1.74-0.43-2.28-1.19v3.6H167.58z M170.65,192.1c-0.83,0-1.65,0.49-2.02,1.08v3.05
		c0.36,0.59,1.19,1.09,2.02,1.09c1.36,0,2.17-1.12,2.17-2.62S172,192.1,170.65,192.1z"/>
	<path class="st1" d="M175.22,194.71c0-1.96,1.29-3.54,3.35-3.54c2.06,0,3.35,1.58,3.35,3.54s-1.29,3.56-3.35,3.56
		C176.51,198.26,175.22,196.67,175.22,194.71z M180.81,194.71c0-1.37-0.8-2.61-2.24-2.61c-1.44,0-2.25,1.23-2.25,2.61
		c0,1.39,0.81,2.62,2.25,2.62C180.01,197.32,180.81,196.09,180.81,194.71z"/>
	<path class="st1" d="M183.58,196.44c0.45,0.52,1.3,0.97,2.23,0.97c1.04,0,1.6-0.46,1.6-1.12c0-0.74-0.83-0.98-1.74-1.21
		c-1.15-0.27-2.45-0.57-2.45-1.97c0-1.05,0.91-1.95,2.52-1.95c1.15,0,1.96,0.43,2.51,0.98l-0.49,0.73
		c-0.41-0.49-1.15-0.85-2.02-0.85c-0.92,0-1.5,0.42-1.5,1.02c0,0.66,0.77,0.87,1.65,1.08c1.18,0.27,2.54,0.6,2.54,2.1
		c0,1.13-0.91,2.04-2.66,2.04c-1.11,0-2.04-0.34-2.73-1.06L183.58,196.44z"/>
	<path class="st1" d="M190.34,196.68v-4.43h-1.12v-0.92h1.12v-1.85h1.05v1.85h1.37v0.92h-1.37v4.2c0,0.5,0.22,0.87,0.69,0.87
		c0.29,0,0.57-0.13,0.71-0.28l0.31,0.78c-0.27,0.25-0.64,0.43-1.26,0.43C190.85,198.26,190.34,197.69,190.34,196.68z"/>
	<path class="st1" d="M194.21,196.44c0.45,0.52,1.3,0.97,2.23,0.97c1.04,0,1.6-0.46,1.6-1.12c0-0.74-0.83-0.98-1.74-1.21
		c-1.15-0.27-2.45-0.57-2.45-1.97c0-1.05,0.91-1.95,2.52-1.95c1.15,0,1.96,0.43,2.51,0.98l-0.49,0.73
		c-0.41-0.49-1.15-0.85-2.02-0.85c-0.92,0-1.5,0.42-1.5,1.02c0,0.66,0.77,0.87,1.65,1.08c1.18,0.27,2.54,0.6,2.54,2.1
		c0,1.13-0.91,2.04-2.66,2.04c-1.11,0-2.04-0.34-2.73-1.06L194.21,196.44z"/>
	<path class="st1" d="M204.66,192.25h-1.12v-0.92h1.12v-0.52c0-1.4,0.78-2.2,1.96-2.2c0.39,0,0.76,0.07,1.02,0.24l-0.27,0.78
		c-0.17-0.1-0.36-0.15-0.6-0.15c-0.69,0-1.06,0.48-1.06,1.33v0.52h1.37v0.92h-1.37v5.84h-1.05V192.25z"/>
	<path class="st1" d="M208.33,191.33h1.05v1.09c0.55-0.71,1.33-1.23,2.25-1.23v1.08c-0.13-0.03-0.25-0.04-0.42-0.04
		c-0.64,0-1.53,0.53-1.83,1.08v4.79h-1.05V191.33z"/>
	<path class="st1" d="M212.56,194.71c0-1.96,1.29-3.54,3.35-3.54c2.06,0,3.35,1.58,3.35,3.54s-1.29,3.56-3.35,3.56
		C213.85,198.26,212.56,196.67,212.56,194.71z M218.15,194.71c0-1.37-0.8-2.61-2.24-2.61c-1.44,0-2.25,1.23-2.25,2.61
		c0,1.39,0.81,2.62,2.25,2.62C217.35,197.32,218.15,196.09,218.15,194.71z"/>
	<path class="st1" d="M229.12,193.5c0-0.85-0.38-1.4-1.25-1.4c-0.7,0-1.44,0.5-1.79,1.04v4.96h-1.05v-4.59c0-0.85-0.36-1.4-1.25-1.4
		c-0.69,0-1.42,0.5-1.78,1.05v4.94h-1.05v-6.77h1.05v0.98c0.28-0.43,1.19-1.15,2.18-1.15c1.04,0,1.62,0.56,1.82,1.26
		c0.38-0.62,1.29-1.26,2.27-1.26c1.23,0,1.89,0.69,1.89,2.04v4.89h-1.05V193.5z"/>
	<path class="st1" d="M236.09,196.68v-4.43h-1.12v-0.92h1.12v-1.85h1.05v1.85h1.37v0.92h-1.37v4.2c0,0.5,0.22,0.87,0.69,0.87
		c0.29,0,0.57-0.13,0.71-0.28l0.31,0.78c-0.27,0.25-0.64,0.43-1.26,0.43C236.6,198.26,236.09,197.69,236.09,196.68z"/>
	<path class="st1" d="M244.58,193.64c0-1.19-0.62-1.54-1.53-1.54c-0.81,0-1.6,0.5-2,1.05v4.94H240v-9.34h1.05v3.56
		c0.48-0.56,1.4-1.15,2.42-1.15c1.42,0,2.16,0.69,2.16,2.16v4.78h-1.05V193.64z"/>
	<path class="st1" d="M250.67,191.16c2.04,0,3.25,1.6,3.25,3.63v0.27h-5.48c0.08,1.28,0.98,2.34,2.44,2.34
		c0.77,0,1.55-0.31,2.09-0.85l0.5,0.69c-0.67,0.67-1.58,1.04-2.69,1.04c-2,0-3.45-1.44-3.45-3.56
		C247.33,192.74,248.74,191.16,250.67,191.16z M248.44,194.28h4.44c-0.01-1.01-0.69-2.25-2.23-2.25
		C249.21,192.03,248.5,193.25,248.44,194.28z"/>
	<path class="st1" d="M259.22,200.67v-9.34h1.05v1.01c0.49-0.69,1.33-1.18,2.28-1.18c1.78,0,3.01,1.34,3.01,3.54
		c0,2.18-1.23,3.56-3.01,3.56c-0.92,0-1.74-0.43-2.28-1.19v3.6H259.22z M262.29,192.1c-0.83,0-1.65,0.49-2.02,1.08v3.05
		c0.36,0.59,1.19,1.09,2.02,1.09c1.36,0,2.17-1.12,2.17-2.62S263.65,192.1,262.29,192.1z"/>
	<path class="st1" d="M271.49,197.32c-0.56,0.62-1.33,0.94-2.24,0.94c-1.15,0-2.37-0.77-2.37-2.24c0-1.51,1.22-2.23,2.37-2.23
		c0.92,0,1.69,0.29,2.24,0.92v-1.22c0-0.91-0.73-1.43-1.71-1.43c-0.81,0-1.47,0.29-2.07,0.94l-0.49-0.73
		c0.73-0.76,1.6-1.12,2.7-1.12c1.43,0,2.62,0.64,2.62,2.28v4.65h-1.05V197.32z M271.49,195.39c-0.41-0.56-1.12-0.84-1.86-0.84
		c-0.98,0-1.67,0.62-1.67,1.48c0,0.85,0.69,1.47,1.67,1.47c0.74,0,1.46-0.28,1.86-0.84V195.39z"/>
	<path class="st1" d="M274.59,196.44c0.45,0.52,1.3,0.97,2.23,0.97c1.04,0,1.6-0.46,1.6-1.12c0-0.74-0.83-0.98-1.74-1.21
		c-1.15-0.27-2.45-0.57-2.45-1.97c0-1.05,0.91-1.95,2.52-1.95c1.15,0,1.96,0.43,2.51,0.98l-0.49,0.73
		c-0.41-0.49-1.15-0.85-2.02-0.85c-0.92,0-1.5,0.42-1.5,1.02c0,0.66,0.77,0.87,1.65,1.08c1.18,0.27,2.54,0.6,2.54,2.1
		c0,1.13-0.91,2.04-2.66,2.04c-1.11,0-2.04-0.34-2.73-1.06L274.59,196.44z"/>
	<path class="st1" d="M281.35,196.68v-4.43h-1.12v-0.92h1.12v-1.85h1.05v1.85h1.37v0.92h-1.37v4.2c0,0.5,0.22,0.87,0.69,0.87
		c0.29,0,0.57-0.13,0.71-0.28l0.31,0.78c-0.27,0.25-0.64,0.43-1.26,0.43C281.86,198.26,281.35,197.69,281.35,196.68z"/>
	<path class="st1" d="M288.91,195.99c0.55,0.73,1.5,1.23,2.61,1.23c1.36,0,2.18-0.67,2.18-1.75c0-1.16-0.95-1.65-2.33-1.65
		c-0.39,0-0.83,0-0.97,0.01v-1.07c0.15,0.01,0.59,0.01,0.97,0.01c1.18,0,2.17-0.46,2.17-1.54c0-1.04-0.95-1.6-2.09-1.6
		c-1.02,0-1.78,0.39-2.46,1.13l-0.64-0.73c0.67-0.81,1.75-1.44,3.19-1.44c1.79,0,3.17,0.91,3.17,2.49c0,1.34-1.13,2.02-2.02,2.17
		c0.85,0.07,2.16,0.8,2.16,2.3c0,1.55-1.25,2.69-3.31,2.69c-1.58,0-2.75-0.7-3.32-1.54L288.91,195.99z"/>
	<path class="st1" d="M305.18,197.09c-0.5,0.69-1.33,1.18-2.28,1.18c-1.76,0-3.01-1.34-3.01-3.54c0-2.16,1.23-3.56,3.01-3.56
		c0.91,0,1.74,0.45,2.28,1.19v-3.6h1.05v9.34h-1.05V197.09z M305.18,193.19c-0.38-0.59-1.19-1.09-2.03-1.09
		c-1.36,0-2.17,1.12-2.17,2.62s0.81,2.61,2.17,2.61c0.84,0,1.65-0.48,2.03-1.06V193.19z"/>
	<path class="st1" d="M312.56,197.32c-0.56,0.62-1.33,0.94-2.24,0.94c-1.15,0-2.37-0.77-2.37-2.24c0-1.51,1.22-2.23,2.37-2.23
		c0.92,0,1.69,0.29,2.24,0.92v-1.22c0-0.91-0.73-1.43-1.71-1.43c-0.81,0-1.47,0.29-2.07,0.94l-0.49-0.73
		c0.73-0.76,1.6-1.12,2.7-1.12c1.43,0,2.62,0.64,2.62,2.28v4.65h-1.05V197.32z M312.56,195.39c-0.41-0.56-1.12-0.84-1.86-0.84
		c-0.98,0-1.67,0.62-1.67,1.48c0,0.85,0.69,1.47,1.67,1.47c0.74,0,1.46-0.28,1.86-0.84V195.39z"/>
	<path class="st1" d="M316.07,199.9c0.46,0,0.77-0.15,1.01-0.71l0.45-1.02l-2.83-6.84h1.13l2.25,5.55l2.24-5.55h1.15l-3.39,8.14
		c-0.41,0.98-1.09,1.36-1.99,1.37c-0.22,0-0.57-0.04-0.77-0.1l0.17-0.95C315.65,199.86,315.91,199.9,316.07,199.9z"/>
	<path class="st1" d="M322.53,196.44c0.45,0.52,1.3,0.97,2.23,0.97c1.04,0,1.6-0.46,1.6-1.12c0-0.74-0.83-0.98-1.74-1.21
		c-1.15-0.27-2.45-0.57-2.45-1.97c0-1.05,0.91-1.95,2.52-1.95c1.15,0,1.96,0.43,2.51,0.98l-0.49,0.73
		c-0.41-0.49-1.15-0.85-2.02-0.85c-0.92,0-1.5,0.42-1.5,1.02c0,0.66,0.77,0.87,1.65,1.08c1.18,0.27,2.54,0.6,2.54,2.1
		c0,1.13-0.91,2.04-2.66,2.04c-1.11,0-2.04-0.34-2.73-1.06L322.53,196.44z"/>
</g>
<g>
	<path d="M141.12,235.88h1.14l2.7,6.91l2.7-6.91h1.14l-3.23,8h-1.24L141.12,235.88z"/>
	<path d="M149.65,236.51c0-0.34,0.28-0.6,0.6-0.6c0.34,0,0.61,0.26,0.61,0.6s-0.28,0.61-0.61,0.61
		C149.93,237.12,149.65,236.84,149.65,236.51z M149.81,238.09h0.9v5.79h-0.9V238.09z"/>
	<path d="M155.02,237.95c1.75,0,2.78,1.37,2.78,3.11v0.23h-4.69c0.07,1.09,0.84,2,2.09,2c0.66,0,1.33-0.26,1.79-0.73l0.43,0.59
		c-0.58,0.58-1.36,0.89-2.3,0.89c-1.72,0-2.95-1.24-2.95-3.05C152.17,239.3,153.37,237.95,155.02,237.95z M153.12,240.62h3.8
		c-0.01-0.86-0.59-1.93-1.91-1.93C153.78,238.69,153.17,239.73,153.12,240.62z"/>
	<path d="M162.76,239.23l-1.51,4.65h-0.9l-1.85-5.79h0.94l1.42,4.62l1.52-4.62h0.77l1.52,4.62l1.42-4.62h0.94l-1.85,5.79h-0.9
		L162.76,239.23z"/>
	<path d="M174.85,235.75c2.36,0,3.97,1.78,3.97,4.14c0,2.36-1.61,4.14-3.97,4.14c-2.38,0-3.97-1.77-3.97-4.14
		C170.88,237.53,172.47,235.75,174.85,235.75z M174.85,236.64c-1.8,0-2.94,1.38-2.94,3.25c0,1.86,1.14,3.25,2.94,3.25
		c1.79,0,2.94-1.39,2.94-3.25C177.79,238.02,176.63,236.64,174.85,236.64z"/>
	<path d="M180.35,235.88h0.9v8h-0.9V235.88z"/>
	<path d="M187.24,243.02c-0.43,0.59-1.14,1.01-1.96,1.01c-1.51,0-2.58-1.15-2.58-3.03c0-1.85,1.06-3.05,2.58-3.05
		c0.78,0,1.49,0.38,1.96,1.02v-3.08h0.9v8h-0.9V243.02z M187.24,239.68c-0.32-0.5-1.02-0.94-1.74-0.94c-1.16,0-1.86,0.96-1.86,2.24
		s0.7,2.23,1.86,2.23c0.72,0,1.42-0.41,1.74-0.91V239.68z"/>
	<path d="M192.46,237.95c1.75,0,2.78,1.37,2.78,3.11v0.23h-4.69c0.07,1.09,0.84,2,2.09,2c0.66,0,1.33-0.26,1.79-0.73l0.43,0.59
		c-0.58,0.58-1.35,0.89-2.3,0.89c-1.71,0-2.95-1.24-2.95-3.05C189.61,239.3,190.81,237.95,192.46,237.95z M190.56,240.62h3.8
		c-0.01-0.86-0.59-1.93-1.91-1.93C191.22,238.69,190.61,239.73,190.56,240.62z"/>
	<path d="M196.7,238.09h0.9v0.94c0.47-0.61,1.14-1.06,1.93-1.06v0.92c-0.11-0.02-0.22-0.04-0.36-0.04c-0.55,0-1.31,0.46-1.57,0.92
		v4.1h-0.9V238.09z"/>
	<path d="M203.79,235.88h3.21c1.61,0,2.51,1.1,2.51,2.41s-0.92,2.41-2.51,2.41h-2.22v3.18h-1V235.88z M206.89,236.77h-2.1v3.05h2.1
		c0.95,0,1.6-0.62,1.6-1.52S207.83,236.77,206.89,236.77z"/>
	<path d="M210.31,240.98c0-1.68,1.1-3.03,2.87-3.03c1.76,0,2.87,1.36,2.87,3.03s-1.1,3.05-2.87,3.05
		C211.41,244.03,210.31,242.66,210.31,240.98z M215.09,240.98c0-1.18-0.68-2.23-1.92-2.23s-1.93,1.05-1.93,2.23
		c0,1.19,0.7,2.24,1.93,2.24S215.09,242.17,215.09,240.98z"/>
	<path d="M217.47,242.47c0.38,0.44,1.12,0.83,1.91,0.83c0.89,0,1.37-0.4,1.37-0.96c0-0.64-0.71-0.84-1.49-1.03
		c-0.98-0.23-2.1-0.49-2.1-1.69c0-0.9,0.78-1.67,2.16-1.67c0.98,0,1.68,0.37,2.15,0.84l-0.42,0.62c-0.35-0.42-0.98-0.73-1.73-0.73
		c-0.79,0-1.28,0.36-1.28,0.88c0,0.56,0.66,0.74,1.42,0.92c1.01,0.23,2.17,0.52,2.17,1.8c0,0.97-0.78,1.75-2.28,1.75
		c-0.95,0-1.75-0.29-2.34-0.91L217.47,242.47z"/>
	<path d="M223.27,242.67v-3.79h-0.96v-0.79h0.96v-1.58h0.9v1.58h1.18v0.79h-1.18v3.6c0,0.43,0.19,0.74,0.59,0.74
		c0.25,0,0.49-0.11,0.61-0.24l0.26,0.67c-0.23,0.22-0.55,0.37-1.08,0.37C223.7,244.03,223.27,243.53,223.27,242.67z"/>
	<path d="M226.58,242.47c0.38,0.44,1.12,0.83,1.91,0.83c0.89,0,1.37-0.4,1.37-0.96c0-0.64-0.71-0.84-1.49-1.03
		c-0.98-0.23-2.1-0.49-2.1-1.69c0-0.9,0.78-1.67,2.16-1.67c0.98,0,1.68,0.37,2.15,0.84l-0.42,0.62c-0.35-0.42-0.98-0.73-1.73-0.73
		c-0.79,0-1.28,0.36-1.28,0.88c0,0.56,0.66,0.74,1.42,0.92c1.01,0.23,2.17,0.52,2.17,1.8c0,0.97-0.78,1.75-2.28,1.75
		c-0.95,0-1.75-0.29-2.34-0.91L226.58,242.47z"/>
</g>
<linearGradient id="SVGID_1_" gradientUnits="userSpaceOnUse" x1="-0.3153" y1="0.5316" x2="359.6847" y2="0.5316">
	<stop  offset="0" style="stop-color:#FFFFFF"/>
	<stop  offset="1" style="stop-color:#000000"/>
</linearGradient>
<line class="st2" x1="-0.32" y1="0.17" x2="359.68" y2="0.9"/>
<g>
	<path d="M51.36,210.23h1.99v9.34h-1.99V210.23z"/>
	<path d="M55.55,214.36h-1.12v-1.55h1.12v-0.36c0-1.47,0.95-2.35,2.28-2.35c0.5,0,0.97,0.11,1.29,0.28l-0.36,1.26
		c-0.15-0.1-0.36-0.14-0.57-0.14c-0.5,0-0.84,0.34-0.84,0.98v0.34h1.37v1.55h-1.37v5.21h-1.79V214.36z"/>
	<path d="M63.9,220.74c0.46,0,0.77-0.13,0.94-0.49l0.25-0.57l-2.75-6.86h1.9l1.77,4.71l1.77-4.71h1.92l-3.18,7.87
		c-0.5,1.28-1.4,1.61-2.56,1.64c-0.21,0-0.66-0.04-0.88-0.1l0.27-1.6C63.5,220.7,63.74,220.74,63.9,220.74z"/>
	<path d="M70.06,216.19c0-1.92,1.34-3.54,3.57-3.54c2.24,0,3.59,1.62,3.59,3.54c0,1.93-1.34,3.56-3.59,3.56
		C71.41,219.74,70.06,218.12,70.06,216.19z M75.37,216.19c0-1.05-0.63-1.96-1.74-1.96c-1.11,0-1.72,0.91-1.72,1.96
		c0,1.06,0.62,1.98,1.72,1.98C74.74,218.16,75.37,217.25,75.37,216.19z"/>
	<path d="M83.1,218.72c-0.46,0.52-1.27,1.02-2.38,1.02c-1.48,0-2.19-0.81-2.19-2.13v-4.8h1.78v4.1c0,0.94,0.49,1.25,1.25,1.25
		c0.69,0,1.23-0.38,1.54-0.77v-4.58h1.78v6.77H83.1V218.72z"/>
	<path d="M93.38,212.64c1.39,0,2.23,0.6,2.68,1.22l-1.16,1.09c-0.32-0.48-0.81-0.73-1.43-0.73c-1.08,0-1.83,0.78-1.83,1.96
		s0.76,1.98,1.83,1.98c0.62,0,1.11-0.28,1.43-0.73l1.16,1.08c-0.45,0.63-1.29,1.23-2.68,1.23c-2.09,0-3.59-1.47-3.59-3.56
		C89.79,214.11,91.29,212.64,93.38,212.64z"/>
	<path d="M96.78,216.19c0-1.92,1.34-3.54,3.57-3.54c2.24,0,3.59,1.62,3.59,3.54c0,1.93-1.34,3.56-3.59,3.56
		C98.12,219.74,96.78,218.12,96.78,216.19z M102.08,216.19c0-1.05-0.63-1.96-1.74-1.96c-1.11,0-1.72,0.91-1.72,1.96
		c0,1.06,0.62,1.98,1.72,1.98C101.45,218.16,102.08,217.25,102.08,216.19z"/>
	<path d="M109.81,215.49c0-0.94-0.49-1.26-1.25-1.26c-0.7,0-1.25,0.39-1.54,0.8v4.55h-1.78v-6.77h1.78v0.88
		c0.43-0.52,1.26-1.05,2.37-1.05c1.48,0,2.2,0.84,2.2,2.16v4.78h-1.78V215.49z"/>
	<path d="M113.7,217.89v-3.53h-1.12v-1.55h1.12v-1.85h1.79v1.85h1.37v1.55h-1.37v3.05c0,0.42,0.22,0.74,0.62,0.74
		c0.27,0,0.52-0.1,0.62-0.2l0.38,1.34c-0.27,0.24-0.74,0.43-1.48,0.43C114.37,219.74,113.7,219.1,113.7,217.89z"/>
	<path d="M117.9,210.75c0-0.59,0.49-1.06,1.06-1.06c0.59,0,1.06,0.48,1.06,1.06c0,0.59-0.48,1.06-1.06,1.06
		C118.39,211.82,117.9,211.34,117.9,210.75z M118.08,212.81h1.78v6.77h-1.78V212.81z"/>
	<path d="M126.19,215.49c0-0.94-0.49-1.26-1.25-1.26c-0.7,0-1.25,0.39-1.54,0.8v4.55h-1.78v-6.77h1.78v0.88
		c0.43-0.52,1.26-1.05,2.37-1.05c1.48,0,2.2,0.84,2.2,2.16v4.78h-1.78V215.49z"/>
	<path d="M134.3,218.72c-0.46,0.52-1.27,1.02-2.38,1.02c-1.48,0-2.19-0.81-2.19-2.13v-4.8h1.78v4.1c0,0.94,0.49,1.25,1.25,1.25
		c0.69,0,1.23-0.38,1.54-0.77v-4.58h1.78v6.77h-1.78V218.72z"/>
	<path d="M140.9,212.64c2.02,0,3.39,1.51,3.39,3.73v0.39h-5.03c0.11,0.85,0.8,1.57,1.95,1.57c0.63,0,1.37-0.25,1.81-0.67l0.78,1.15
		c-0.67,0.62-1.74,0.94-2.79,0.94c-2.06,0-3.61-1.39-3.61-3.56C137.4,214.22,138.85,212.64,140.9,212.64z M139.24,215.56h3.33
		c-0.04-0.64-0.49-1.5-1.67-1.5C139.8,214.06,139.32,214.88,139.24,215.56z"/>
	<path d="M153.23,218.88c-0.46,0.55-1.26,0.87-2.14,0.87c-1.08,0-2.35-0.73-2.35-2.24c0-1.58,1.27-2.16,2.35-2.16
		c0.9,0,1.69,0.28,2.14,0.83v-0.94c0-0.69-0.59-1.13-1.48-1.13c-0.73,0-1.4,0.27-1.98,0.8l-0.67-1.19c0.83-0.73,1.89-1.06,2.96-1.06
		c1.54,0,2.96,0.62,2.96,2.56v4.37h-1.78V218.88z M153.23,217.11c-0.29-0.39-0.85-0.59-1.43-0.59c-0.7,0-1.27,0.36-1.27,1.02
		c0,0.63,0.57,1,1.27,1c0.57,0,1.13-0.2,1.43-0.59V217.11z"/>
	<path d="M156.76,210.23h1.78v9.34h-1.78V210.23z"/>
	<path d="M160.31,210.23h1.78v9.34h-1.78V210.23z"/>
	<path d="M170.58,212.64c1.39,0,2.23,0.6,2.68,1.22l-1.16,1.09c-0.32-0.48-0.81-0.73-1.43-0.73c-1.08,0-1.83,0.78-1.83,1.96
		s0.76,1.98,1.83,1.98c0.62,0,1.11-0.28,1.43-0.73l1.16,1.08c-0.45,0.63-1.29,1.23-2.68,1.23c-2.09,0-3.59-1.47-3.59-3.56
		C167,214.11,168.5,212.64,170.58,212.64z"/>
	<path d="M173.98,216.19c0-1.92,1.34-3.54,3.57-3.54c2.24,0,3.59,1.62,3.59,3.54c0,1.93-1.34,3.56-3.59,3.56
		C175.33,219.74,173.98,218.12,173.98,216.19z M179.29,216.19c0-1.05-0.63-1.96-1.74-1.96c-1.11,0-1.72,0.91-1.72,1.96
		c0,1.06,0.62,1.98,1.72,1.98C178.66,218.16,179.29,217.25,179.29,216.19z"/>
	<path d="M187.02,215.49c0-0.94-0.49-1.26-1.25-1.26c-0.7,0-1.25,0.39-1.54,0.8v4.55h-1.78v-6.77h1.78v0.88
		c0.43-0.52,1.26-1.05,2.37-1.05c1.48,0,2.2,0.84,2.2,2.16v4.78h-1.78V215.49z"/>
	<path d="M190.91,217.89v-3.53h-1.12v-1.55h1.12v-1.85h1.79v1.85h1.37v1.55h-1.37v3.05c0,0.42,0.22,0.74,0.62,0.74
		c0.27,0,0.52-0.1,0.62-0.2l0.38,1.34c-0.27,0.24-0.74,0.43-1.49,0.43C191.58,219.74,190.91,219.1,190.91,217.89z"/>
	<path d="M198.36,212.64c2.02,0,3.39,1.51,3.39,3.73v0.39h-5.03c0.11,0.85,0.8,1.57,1.95,1.57c0.63,0,1.37-0.25,1.81-0.67l0.78,1.15
		c-0.67,0.62-1.74,0.94-2.79,0.94c-2.06,0-3.61-1.39-3.61-3.56C194.86,214.22,196.3,212.64,198.36,212.64z M196.69,215.56h3.33
		c-0.04-0.64-0.49-1.5-1.67-1.5C197.25,214.06,196.78,214.88,196.69,215.56z"/>
	<path d="M207.6,215.49c0-0.94-0.49-1.26-1.25-1.26c-0.7,0-1.25,0.39-1.54,0.8v4.55h-1.78v-6.77h1.78v0.88
		c0.43-0.52,1.26-1.05,2.37-1.05c1.48,0,2.2,0.84,2.2,2.16v4.78h-1.78V215.49z"/>
	<path d="M211.49,217.89v-3.53h-1.12v-1.55h1.12v-1.85h1.79v1.85h1.37v1.55h-1.37v3.05c0,0.42,0.22,0.74,0.62,0.74
		c0.27,0,0.52-0.1,0.62-0.2l0.38,1.34c-0.27,0.24-0.74,0.43-1.49,0.43C212.16,219.74,211.49,219.1,211.49,217.89z"/>
	<path d="M223.97,214.97l-1.43,4.61h-1.91l-2.06-6.77h1.85l1.26,4.55l1.48-4.55h1.58l1.48,4.55l1.26-4.55h1.85l-2.06,6.77h-1.89
		L223.97,214.97z"/>
	<path d="M230.04,210.75c0-0.59,0.49-1.06,1.07-1.06c0.59,0,1.06,0.48,1.06,1.06c0,0.59-0.48,1.06-1.06,1.06
		C230.53,211.82,230.04,211.34,230.04,210.75z M230.22,212.81H232v6.77h-1.78V212.81z"/>
	<path d="M233.76,210.23h1.78v9.34h-1.78V210.23z"/>
	<path d="M237.31,210.23h1.78v9.34h-1.78V210.23z"/>
	<path d="M244.43,210.23h1.78v3.45c0.53-0.69,1.29-1.04,2.09-1.04c1.72,0,3,1.34,3,3.56c0,2.26-1.29,3.54-3,3.54
		c-0.81,0-1.55-0.36-2.09-1.04v0.87h-1.78V210.23z M247.74,218.16c1.04,0,1.72-0.79,1.72-1.96c0-1.18-0.69-1.97-1.72-1.97
		c-0.57,0-1.23,0.34-1.53,0.78v2.4C246.5,217.84,247.16,218.16,247.74,218.16z"/>
	<path d="M255.7,212.64c2.02,0,3.39,1.51,3.39,3.73v0.39h-5.03c0.11,0.85,0.8,1.57,1.95,1.57c0.63,0,1.37-0.25,1.81-0.67l0.78,1.15
		c-0.67,0.62-1.74,0.94-2.79,0.94c-2.06,0-3.61-1.39-3.61-3.56C252.2,214.22,253.64,212.64,255.7,212.64z M254.04,215.56h3.33
		c-0.04-0.64-0.49-1.5-1.67-1.5C254.6,214.06,254.12,214.88,254.04,215.56z"/>
	<path d="M264.14,217.45c0.49,0.46,1.5,0.92,2.34,0.92c0.77,0,1.13-0.27,1.13-0.69c0-0.48-0.59-0.64-1.36-0.8
		c-1.16-0.22-2.66-0.5-2.66-2.12c0-1.13,1-2.13,2.77-2.13c1.15,0,2.06,0.39,2.73,0.92l-0.71,1.22c-0.41-0.43-1.18-0.79-2-0.79
		c-0.64,0-1.06,0.24-1.06,0.63c0,0.42,0.53,0.57,1.29,0.73c1.16,0.22,2.72,0.53,2.72,2.21c0,1.23-1.05,2.17-2.93,2.17
		c-1.18,0-2.31-0.39-3.03-1.05L264.14,217.45z"/>
	<path d="M275.21,218.72c-0.46,0.52-1.27,1.02-2.38,1.02c-1.48,0-2.19-0.81-2.19-2.13v-4.8h1.78v4.1c0,0.94,0.49,1.25,1.25,1.25
		c0.69,0,1.23-0.38,1.54-0.77v-4.58h1.78v6.77h-1.78V218.72z"/>
	<path d="M279.4,220.02c0.55,0.6,1.26,0.84,2.12,0.84s1.86-0.38,1.86-1.71v-0.69c-0.53,0.67-1.26,1.06-2.09,1.06
		c-1.69,0-2.98-1.19-2.98-3.45c0-2.21,1.28-3.45,2.98-3.45c0.81,0,1.54,0.35,2.09,1.04v-0.87h1.79v6.3c0,2.58-1.99,3.21-3.66,3.21
		c-1.16,0-2.06-0.27-2.91-1.01L279.4,220.02z M283.38,215c-0.29-0.45-0.94-0.77-1.53-0.77c-1.01,0-1.71,0.7-1.71,1.86
		c0,1.16,0.7,1.86,1.71,1.86c0.59,0,1.23-0.34,1.53-0.77V215z"/>
	<path d="M287.59,220.02c0.55,0.6,1.26,0.84,2.11,0.84c0.85,0,1.86-0.38,1.86-1.71v-0.69c-0.53,0.67-1.26,1.06-2.09,1.06
		c-1.7,0-2.98-1.19-2.98-3.45c0-2.21,1.27-3.45,2.98-3.45c0.81,0,1.54,0.35,2.09,1.04v-0.87h1.79v6.3c0,2.58-1.99,3.21-3.66,3.21
		c-1.16,0-2.06-0.27-2.91-1.01L287.59,220.02z M291.57,215c-0.29-0.45-0.94-0.77-1.53-0.77c-1.01,0-1.71,0.7-1.71,1.86
		c0,1.16,0.7,1.86,1.71,1.86c0.59,0,1.23-0.34,1.53-0.77V215z"/>
	<path d="M298.19,212.64c2.02,0,3.39,1.51,3.39,3.73v0.39h-5.03c0.11,0.85,0.8,1.57,1.95,1.57c0.63,0,1.37-0.25,1.81-0.67l0.78,1.15
		c-0.67,0.62-1.74,0.94-2.79,0.94c-2.06,0-3.61-1.39-3.61-3.56C294.69,214.22,296.13,212.64,298.19,212.64z M296.53,215.56h3.33
		c-0.04-0.64-0.49-1.5-1.67-1.5C297.09,214.06,296.61,214.88,296.53,215.56z"/>
	<path d="M303.05,217.45c0.49,0.46,1.5,0.92,2.34,0.92c0.77,0,1.13-0.27,1.13-0.69c0-0.48-0.59-0.64-1.36-0.8
		c-1.16-0.22-2.66-0.5-2.66-2.12c0-1.13,1-2.13,2.77-2.13c1.15,0,2.06,0.39,2.73,0.92l-0.71,1.22c-0.41-0.43-1.18-0.79-2-0.79
		c-0.64,0-1.06,0.24-1.06,0.63c0,0.42,0.53,0.57,1.29,0.73c1.16,0.22,2.72,0.53,2.72,2.21c0,1.23-1.05,2.17-2.93,2.17
		c-1.18,0-2.31-0.39-3.03-1.05L303.05,217.45z"/>
	<path d="M309.89,217.89v-3.53h-1.12v-1.55h1.12v-1.85h1.79v1.85h1.37v1.55h-1.37v3.05c0,0.42,0.22,0.74,0.62,0.74
		c0.27,0,0.52-0.1,0.62-0.2l0.38,1.34c-0.27,0.24-0.74,0.43-1.49,0.43C310.57,219.74,309.89,219.1,309.89,217.89z"/>
	<path d="M317.34,212.64c2.02,0,3.39,1.51,3.39,3.73v0.39h-5.03c0.11,0.85,0.8,1.57,1.95,1.57c0.63,0,1.37-0.25,1.81-0.67l0.78,1.15
		c-0.67,0.62-1.74,0.94-2.79,0.94c-2.06,0-3.61-1.39-3.61-3.56C313.84,214.22,315.29,212.64,317.34,212.64z M315.68,215.56h3.33
		c-0.04-0.64-0.49-1.5-1.67-1.5C316.24,214.06,315.76,214.88,315.68,215.56z"/>
	<path d="M326.67,218.71c-0.53,0.67-1.27,1.04-2.09,1.04c-1.71,0-3-1.29-3-3.54c0-2.21,1.28-3.56,3-3.56c0.8,0,1.55,0.35,2.09,1.04
		v-3.45h1.79v9.34h-1.79V218.71z M326.67,215c-0.29-0.45-0.94-0.77-1.54-0.77c-1.01,0-1.71,0.8-1.71,1.97c0,1.16,0.7,1.96,1.71,1.96
		c0.6,0,1.25-0.32,1.54-0.77V215z"/>
</g>
<line class="st3" x1="-0.32" y1="260.47" x2="359.68" y2="261.2"/>
<g>
	<path d="M42.68,285.23c0-4.1,3.1-6.9,7-6.9c3.04,0,4.74,1.6,5.68,3.26l-2.44,1.2c-0.56-1.08-1.76-1.94-3.24-1.94
		c-2.32,0-4.08,1.86-4.08,4.38s1.76,4.38,4.08,4.38c1.48,0,2.68-0.84,3.24-1.94l2.44,1.18c-0.96,1.66-2.64,3.28-5.68,3.28
		C45.78,292.13,42.68,289.33,42.68,285.23z"/>
	<path d="M56.38,287.05c0-2.74,1.92-5.06,5.1-5.06c3.2,0,5.12,2.32,5.12,5.06c0,2.76-1.92,5.08-5.12,5.08
		C58.3,292.13,56.38,289.81,56.38,287.05z M63.96,287.05c0-1.5-0.9-2.8-2.48-2.8c-1.58,0-2.46,1.3-2.46,2.8
		c0,1.52,0.88,2.82,2.46,2.82C63.06,289.87,63.96,288.57,63.96,287.05z"/>
	<path d="M75,286.05c0-1.34-0.7-1.8-1.78-1.8c-1,0-1.78,0.56-2.2,1.14v6.5h-2.54v-9.66h2.54v1.26c0.62-0.74,1.8-1.5,3.38-1.5
		c2.12,0,3.14,1.2,3.14,3.08v6.82H75V286.05z"/>
	<path d="M80.56,289.49v-5.04h-1.6v-2.22h1.6v-2.64h2.56v2.64h1.96v2.22h-1.96v4.36c0,0.6,0.32,1.06,0.88,1.06
		c0.38,0,0.74-0.14,0.88-0.28l0.54,1.92c-0.38,0.34-1.06,0.62-2.12,0.62C81.52,292.13,80.56,291.21,80.56,289.49z"/>
	<path d="M86.56,279.29c0-0.84,0.7-1.52,1.52-1.52c0.84,0,1.52,0.68,1.52,1.52c0,0.84-0.68,1.52-1.52,1.52
		C87.26,280.81,86.56,280.13,86.56,279.29z M86.82,282.23h2.54v9.66h-2.54V282.23z"/>
	<path d="M98.4,286.05c0-1.34-0.7-1.8-1.78-1.8c-1,0-1.78,0.56-2.2,1.14v6.5h-2.54v-9.66h2.54v1.26c0.62-0.74,1.8-1.5,3.38-1.5
		c2.12,0,3.14,1.2,3.14,3.08v6.82H98.4V286.05z"/>
	<path d="M109.98,290.67c-0.66,0.74-1.82,1.46-3.4,1.46c-2.12,0-3.12-1.16-3.12-3.04v-6.86H106v5.86c0,1.34,0.7,1.78,1.78,1.78
		c0.98,0,1.76-0.54,2.2-1.1v-6.54h2.54v9.66h-2.54V290.67z"/>
	<path d="M119.42,281.99c2.88,0,4.84,2.16,4.84,5.32v0.56h-7.18c0.16,1.22,1.14,2.24,2.78,2.24c0.9,0,1.96-0.36,2.58-0.96l1.12,1.64
		c-0.96,0.88-2.48,1.34-3.98,1.34c-2.94,0-5.16-1.98-5.16-5.08C114.42,284.25,116.48,281.99,119.42,281.99z M117.04,286.15h4.76
		c-0.06-0.92-0.7-2.14-2.38-2.14C117.84,284.01,117.16,285.19,117.04,286.15z"/>
</g>
<g>
	<path d="M224.79,278.55h2.84v10.84h5.64v2.5h-8.48V278.55z"/>
	<path d="M239.36,281.99c2.88,0,4.84,2.16,4.84,5.32v0.56h-7.18c0.16,1.22,1.14,2.24,2.78,2.24c0.9,0,1.96-0.36,2.58-0.96l1.12,1.64
		c-0.96,0.88-2.48,1.34-3.98,1.34c-2.94,0-5.16-1.98-5.16-5.08C234.36,284.25,236.42,281.99,239.36,281.99z M236.98,286.15h4.76
		c-0.06-0.92-0.7-2.14-2.38-2.14C237.78,284.01,237.1,285.19,236.98,286.15z"/>
	<path d="M251.84,290.89c-0.66,0.78-1.8,1.24-3.06,1.24c-1.54,0-3.36-1.04-3.36-3.2c0-2.26,1.82-3.08,3.36-3.08
		c1.28,0,2.42,0.4,3.06,1.18v-1.34c0-0.98-0.84-1.62-2.12-1.62c-1.04,0-2,0.38-2.82,1.14l-0.96-1.7c1.18-1.04,2.7-1.52,4.22-1.52
		c2.2,0,4.22,0.88,4.22,3.66v6.24h-2.54V290.89z M251.84,288.37c-0.42-0.56-1.22-0.84-2.04-0.84c-1,0-1.82,0.52-1.82,1.46
		c0,0.9,0.82,1.42,1.82,1.42c0.82,0,1.62-0.28,2.04-0.84V288.37z"/>
	<path d="M255.51,282.23h2.72l2.52,6.72l2.52-6.72h2.74l-3.88,9.66h-2.74L255.51,282.23z"/>
	<path d="M271.54,281.99c2.88,0,4.84,2.16,4.84,5.32v0.56h-7.18c0.16,1.22,1.14,2.24,2.78,2.24c0.9,0,1.96-0.36,2.58-0.96l1.12,1.64
		c-0.96,0.88-2.48,1.34-3.98,1.34c-2.94,0-5.16-1.98-5.16-5.08C266.54,284.25,268.59,281.99,271.54,281.99z M269.16,286.15h4.76
		c-0.06-0.92-0.7-2.14-2.38-2.14C269.96,284.01,269.28,285.19,269.16,286.15z"/>
	<path d="M291.9,289.59h-5.96l-0.84,2.3h-3.12l5.16-13.34h3.56l5.14,13.34h-3.1L291.9,289.59z M286.7,287.13h4.42l-2.2-6.12
		L286.7,287.13z"/>
	<path d="M297.02,295.57v-13.34h2.54v1.22c0.74-0.94,1.8-1.46,2.98-1.46c2.48,0,4.28,1.84,4.28,5.06s-1.8,5.08-4.28,5.08
		c-1.14,0-2.2-0.48-2.98-1.48v4.92H297.02z M301.74,284.25c-0.82,0-1.76,0.48-2.18,1.1v3.42c0.42,0.6,1.36,1.1,2.18,1.1
		c1.46,0,2.44-1.14,2.44-2.82C304.18,285.39,303.2,284.25,301.74,284.25z"/>
	<path d="M308.71,295.57v-13.34h2.54v1.22c0.74-0.94,1.8-1.46,2.98-1.46c2.48,0,4.28,1.84,4.28,5.06s-1.8,5.08-4.28,5.08
		c-1.14,0-2.2-0.48-2.98-1.48v4.92H308.71z M313.44,284.25c-0.82,0-1.76,0.48-2.18,1.1v3.42c0.42,0.6,1.36,1.1,2.18,1.1
		c1.46,0,2.44-1.14,2.44-2.82C315.88,285.39,314.9,284.25,313.44,284.25z"/>
</g>
<line class="st4" x1="0" y1="310.29" x2="360" y2="311.02"/>
<line class="st5" x1="179.63" y1="260.83" x2="179.63" y2="310.83"/>
<g>
</g>
<g>
</g>
<g>
</g>
<g>
</g>
<g>
</g>
<g>
</g>
</svg>
