<?xml version="1.0" encoding="utf-8"?>
<!-- Generator: Adobe Illustrator 25.2.1, SVG Export Plug-In . SVG Version: 6.00 Build 0)  -->
<svg version="1.1" id="Layer_1" xmlns="http://www.w3.org/2000/svg" xmlns:xlink="http://www.w3.org/1999/xlink" x="0px" y="0px"
	 viewBox="0 0 360 357" style="enable-background:new 0 0 360 357;" xml:space="preserve">
<style type="text/css">
	.st0{fill:none;stroke:#000000;stroke-width:5;stroke-linecap:round;stroke-linejoin:round;}
	.st1{fill:#9D9D9C;}
	.st2{fill:url(#SVGID_1_);stroke:#9E9B99;stroke-width:0.5;stroke-linecap:round;stroke-linejoin:round;}
	.st3{fill:url(#SVGID_2_);stroke:#9E9B99;stroke-width:0.5;stroke-linecap:round;stroke-linejoin:round;}
	.st4{fill:url(#SVGID_3_);stroke:#9E9B99;stroke-width:0.5;stroke-linecap:round;stroke-linejoin:round;}
</style>
<path class="st0" d="M223.79,100.28v4.03c-0.01,24.18-19.63,43.78-43.82,43.77c-24.18-0.01-43.78-19.63-43.77-43.82
	c0.01-24.18,19.63-43.78,43.82-43.77c6.13,0,12.2,1.3,17.8,3.79"/>
<polyline class="st0" points="223.79,69.28 180,113.11 166.86,99.97 "/>
<g>
	<path d="M77.5,192.75l-6.57-9.62h2.42l5.17,7.75l5.17-7.75h2.42l-6.55,9.62v7.05H77.5V192.75z"/>
	<path d="M84.35,193.75c0-3.5,2.3-6.32,5.97-6.32s5.97,2.82,5.97,6.32s-2.3,6.35-5.97,6.35S84.35,197.25,84.35,193.75z
		 M94.32,193.75c0-2.45-1.42-4.65-4-4.65s-4.02,2.2-4.02,4.65c0,2.47,1.45,4.67,4.02,4.67S94.32,196.23,94.32,193.75z"/>
	<path d="M107.49,198.1c-0.92,1.05-2.5,2-4.3,2c-2.52,0-3.85-1.22-3.85-3.85v-8.52h1.87v7.95c0,2.12,1.08,2.75,2.7,2.75
		c1.47,0,2.87-0.85,3.57-1.82v-8.87h1.88v12.07h-1.88V198.1z"/>
	<path d="M112.67,187.78c0.8-0.52,1.52-1.52,1.62-2.32c-0.05,0.03-0.22,0.05-0.35,0.05c-0.7,0-1.2-0.52-1.2-1.27
		c0-0.72,0.57-1.35,1.32-1.35c0.83,0,1.57,0.67,1.57,1.9c0,1.52-0.9,2.95-2.05,3.77L112.67,187.78z"/>
	<path d="M118.87,187.73h1.87v1.95c0.97-1.28,2.37-2.2,4.02-2.2v1.92c-0.23-0.05-0.45-0.08-0.75-0.08c-1.15,0-2.72,0.95-3.27,1.92
		v8.55h-1.87V187.73z"/>
	<path d="M132.37,187.43c3.65,0,5.8,2.85,5.8,6.47v0.47h-9.77c0.15,2.27,1.75,4.17,4.35,4.17c1.38,0,2.77-0.55,3.72-1.52l0.9,1.22
		c-1.2,1.2-2.82,1.85-4.8,1.85c-3.57,0-6.15-2.57-6.15-6.35C126.42,190.25,128.92,187.43,132.37,187.43z M128.4,193h7.92
		c-0.03-1.8-1.22-4.02-3.97-4.02C129.77,188.98,128.5,191.16,128.4,193z"/>
	<path d="M158.22,196.1h-8.45l-1.47,3.7H146l6.7-16.67h2.58l6.72,16.67h-2.3L158.22,196.1z M150.37,194.25h7.22l-3.6-9.27
		L150.37,194.25z"/>
	<path d="M164.1,183.13h1.87v16.67h-1.87V183.13z"/>
	<path d="M169.72,183.13h1.87v16.67h-1.87V183.13z"/>
	<path d="M181.19,191.48c0-5.12,3.77-8.62,8.5-8.62c3.02,0,5.07,1.42,6.4,3.3l-1.75,0.97c-0.95-1.4-2.67-2.42-4.65-2.42
		c-3.57,0-6.35,2.8-6.35,6.77c0,3.95,2.77,6.77,6.35,6.77c1.97,0,3.7-1,4.65-2.42l1.77,0.97c-1.4,1.9-3.4,3.3-6.42,3.3
		C184.97,200.1,181.19,196.6,181.19,191.48z"/>
	<path d="M206.24,198.43c-1,1.1-2.38,1.67-4,1.67c-2.05,0-4.22-1.38-4.22-4c0-2.7,2.17-3.97,4.22-3.97c1.65,0,3.02,0.52,4,1.65
		v-2.17c0-1.62-1.3-2.55-3.05-2.55c-1.45,0-2.62,0.52-3.7,1.67l-0.88-1.3c1.3-1.35,2.85-2,4.82-2c2.55,0,4.67,1.15,4.67,4.07v8.3
		h-1.87V198.43z M206.24,194.98c-0.72-1-2-1.5-3.32-1.5c-1.75,0-2.97,1.1-2.97,2.65c0,1.52,1.22,2.62,2.97,2.62
		c1.32,0,2.6-0.5,3.32-1.5V194.98z"/>
	<path d="M220.02,198.1c-0.92,1.05-2.5,2-4.3,2c-2.52,0-3.85-1.22-3.85-3.85v-8.52h1.87v7.95c0,2.12,1.08,2.75,2.7,2.75
		c1.47,0,2.87-0.85,3.57-1.82v-8.87h1.88v12.07h-1.88V198.1z"/>
	<path d="M226.57,201.5c1,1.2,2.2,1.65,3.92,1.65c2,0,3.87-0.98,3.87-3.62v-1.72c-0.88,1.23-2.35,2.15-4.05,2.15
		c-3.15,0-5.37-2.35-5.37-6.25c0-3.87,2.2-6.27,5.37-6.27c1.62,0,3.07,0.8,4.05,2.12v-1.83h1.87v11.72c0,4-2.8,5.25-5.75,5.25
		c-2.05,0-3.45-0.4-4.87-1.8L226.57,201.5z M234.37,191.05c-0.65-1.05-2.1-1.95-3.6-1.95c-2.42,0-3.87,1.92-3.87,4.6
		c0,2.65,1.45,4.6,3.87,4.6c1.5,0,2.95-0.92,3.6-1.97V191.05z"/>
	<path d="M248.17,191.85c0-2.12-1.1-2.75-2.72-2.75c-1.45,0-2.85,0.9-3.57,1.87v8.82h-1.87v-16.67h1.87v6.35
		c0.85-1,2.5-2.05,4.32-2.05c2.52,0,3.85,1.22,3.85,3.85v8.52h-1.87V191.85z"/>
	<path d="M254.17,197.28v-7.9h-2v-1.65h2v-3.3h1.88v3.3h2.45v1.65h-2.45v7.5c0,0.9,0.4,1.55,1.22,1.55c0.53,0,1.02-0.22,1.27-0.5
		l0.55,1.4c-0.47,0.45-1.15,0.77-2.25,0.77C255.07,200.1,254.17,199.08,254.17,197.28z"/>
	<path d="M267.67,183.13h2.08v10.15c0,3.05,1.65,4.97,4.72,4.97s4.72-1.92,4.72-4.97v-10.15h2.07v10.17c0,4.15-2.27,6.8-6.8,6.8
		c-4.52,0-6.8-2.67-6.8-6.77V183.13z"/>
	<path d="M285.09,204.4v-16.67h1.87v1.8c0.88-1.22,2.37-2.1,4.07-2.1c3.17,0,5.37,2.4,5.37,6.32c0,3.9-2.2,6.35-5.37,6.35
		c-1.65,0-3.1-0.77-4.07-2.12v6.42H285.09z M290.57,189.11c-1.47,0-2.95,0.88-3.6,1.92v5.45c0.65,1.05,2.12,1.95,3.6,1.95
		c2.42,0,3.87-2,3.87-4.67C294.44,191.08,292.99,189.11,290.57,189.11z"/>
</g>
<g>
	<path class="st1" d="M46,223.81l-3.68-5.39h1.36l2.9,4.34l2.9-4.34h1.36l-3.67,5.39v3.95H46V223.81z"/>
	<path class="st1" d="M49.83,224.37c0-1.96,1.29-3.54,3.35-3.54s3.35,1.58,3.35,3.54s-1.29,3.56-3.35,3.56
		S49.83,226.33,49.83,224.37z M55.42,224.37c0-1.37-0.8-2.61-2.24-2.61c-1.44,0-2.26,1.23-2.26,2.61c0,1.39,0.81,2.62,2.26,2.62
		C54.62,226.99,55.42,225.75,55.42,224.37z"/>
	<path class="st1" d="M62.8,226.8c-0.52,0.59-1.4,1.12-2.41,1.12c-1.41,0-2.16-0.69-2.16-2.16v-4.78h1.05v4.45
		c0,1.19,0.6,1.54,1.51,1.54c0.83,0,1.61-0.48,2-1.02v-4.97h1.05v6.77H62.8V226.8z"/>
	<path class="st1" d="M65.69,221.02c0.45-0.29,0.85-0.85,0.91-1.3c-0.03,0.01-0.13,0.03-0.2,0.03c-0.39,0-0.67-0.29-0.67-0.71
		c0-0.41,0.32-0.76,0.74-0.76c0.46,0,0.88,0.38,0.88,1.06c0,0.85-0.5,1.65-1.15,2.12L65.69,221.02z"/>
	<path class="st1" d="M68.16,220.99h1.13l2.26,5.55l2.24-5.55h1.15l-2.82,6.77h-1.15L68.16,220.99z"/>
	<path class="st1" d="M78.97,220.82c2.04,0,3.25,1.6,3.25,3.63v0.27h-5.48c0.08,1.28,0.98,2.34,2.44,2.34
		c0.77,0,1.55-0.31,2.09-0.85l0.5,0.69c-0.67,0.67-1.58,1.04-2.69,1.04c-2,0-3.45-1.44-3.45-3.56
		C75.63,222.41,77.04,220.82,78.97,220.82z M76.74,223.95h4.44c-0.01-1.01-0.69-2.25-2.23-2.25
		C77.51,221.69,76.8,222.91,76.74,223.95z"/>
	<path class="st1" d="M87.48,226.1c0.45,0.52,1.3,0.97,2.23,0.97c1.04,0,1.6-0.46,1.6-1.12c0-0.74-0.83-0.98-1.74-1.21
		c-1.15-0.27-2.45-0.57-2.45-1.97c0-1.05,0.91-1.95,2.52-1.95c1.15,0,1.96,0.43,2.51,0.98l-0.49,0.73
		c-0.41-0.49-1.15-0.85-2.02-0.85c-0.92,0-1.5,0.42-1.5,1.02c0,0.66,0.77,0.87,1.65,1.08c1.18,0.27,2.54,0.6,2.54,2.1
		c0,1.13-0.91,2.04-2.66,2.04c-1.11,0-2.04-0.34-2.73-1.06L87.48,226.1z"/>
	<path class="st1" d="M96.97,220.82c2.04,0,3.25,1.6,3.25,3.63v0.27h-5.48c0.08,1.28,0.98,2.34,2.44,2.34
		c0.77,0,1.55-0.31,2.09-0.85l0.5,0.69c-0.67,0.67-1.58,1.04-2.69,1.04c-2,0-3.45-1.44-3.45-3.56
		C93.64,222.41,95.04,220.82,96.97,220.82z M94.75,223.95h4.44c-0.01-1.01-0.69-2.25-2.23-2.25
		C95.52,221.69,94.8,222.91,94.75,223.95z"/>
	<path class="st1" d="M104.85,220.82c2.04,0,3.25,1.6,3.25,3.63v0.27h-5.48c0.08,1.28,0.98,2.34,2.44,2.34
		c0.77,0,1.55-0.31,2.09-0.85l0.5,0.69c-0.67,0.67-1.58,1.04-2.69,1.04c-2,0-3.45-1.44-3.45-3.56
		C101.52,222.41,102.92,220.82,104.85,220.82z M102.63,223.95h4.44c-0.01-1.01-0.69-2.25-2.23-2.25
		C103.4,221.69,102.68,222.91,102.63,223.95z"/>
	<path class="st1" d="M114.36,223.33c0-1.19-0.6-1.57-1.51-1.57c-0.83,0-1.61,0.5-2,1.05v4.94h-1.05v-6.77h1.05v0.98
		c0.48-0.56,1.4-1.15,2.41-1.15c1.41,0,2.16,0.71,2.16,2.18v4.75h-1.05V223.33z"/>
	<path class="st1" d="M125.35,226.99c-0.56,0.62-1.33,0.94-2.24,0.94c-1.15,0-2.37-0.77-2.37-2.24c0-1.51,1.22-2.23,2.37-2.23
		c0.92,0,1.69,0.29,2.24,0.92v-1.22c0-0.91-0.73-1.43-1.71-1.43c-0.81,0-1.47,0.29-2.07,0.94l-0.49-0.73
		c0.73-0.76,1.6-1.12,2.7-1.12c1.43,0,2.62,0.64,2.62,2.28v4.65h-1.05V226.99z M125.35,225.05c-0.41-0.56-1.12-0.84-1.86-0.84
		c-0.98,0-1.67,0.62-1.67,1.48c0,0.85,0.69,1.47,1.67,1.47c0.74,0,1.46-0.28,1.86-0.84V225.05z"/>
	<path class="st1" d="M128.5,218.41h1.05v9.34h-1.05V218.41z"/>
	<path class="st1" d="M131.65,218.41h1.05v9.34h-1.05V218.41z"/>
	<path class="st1" d="M142.98,223.33c0-1.19-0.6-1.57-1.51-1.57c-0.83,0-1.61,0.5-2,1.05v4.94h-1.05v-6.77h1.05v0.98
		c0.48-0.56,1.4-1.15,2.41-1.15c1.41,0,2.16,0.71,2.16,2.18v4.75h-1.05V223.33z"/>
	<path class="st1" d="M149.07,220.82c2.04,0,3.25,1.6,3.25,3.63v0.27h-5.48c0.08,1.28,0.98,2.34,2.44,2.34
		c0.77,0,1.55-0.31,2.09-0.85l0.5,0.69c-0.67,0.67-1.58,1.04-2.69,1.04c-2,0-3.45-1.44-3.45-3.56
		C145.73,222.41,147.13,220.82,149.07,220.82z M146.84,223.95h4.44c-0.01-1.01-0.69-2.25-2.23-2.25
		C147.61,221.69,146.89,222.91,146.84,223.95z"/>
	<path class="st1" d="M158.1,222.32l-1.76,5.43h-1.05l-2.16-6.77h1.09l1.65,5.39l1.78-5.39h0.9l1.78,5.39l1.65-5.39h1.09l-2.16,6.77
		h-1.05L158.1,222.32z"/>
	<path class="st1" d="M167.89,230.33v-9.34h1.05V222c0.49-0.69,1.33-1.18,2.28-1.18c1.78,0,3.01,1.34,3.01,3.54
		c0,2.18-1.23,3.56-3.01,3.56c-0.92,0-1.74-0.43-2.28-1.19v3.6H167.89z M170.96,221.76c-0.83,0-1.65,0.49-2.02,1.08v3.05
		c0.36,0.59,1.19,1.09,2.02,1.09c1.36,0,2.17-1.12,2.17-2.62S172.32,221.76,170.96,221.76z"/>
	<path class="st1" d="M175.54,224.37c0-1.96,1.29-3.54,3.35-3.54c2.06,0,3.35,1.58,3.35,3.54s-1.29,3.56-3.35,3.56
		C176.83,227.92,175.54,226.33,175.54,224.37z M181.13,224.37c0-1.37-0.8-2.61-2.24-2.61c-1.44,0-2.25,1.23-2.25,2.61
		c0,1.39,0.81,2.62,2.25,2.62C180.33,226.99,181.13,225.75,181.13,224.37z"/>
	<path class="st1" d="M183.9,226.1c0.45,0.52,1.3,0.97,2.23,0.97c1.04,0,1.6-0.46,1.6-1.12c0-0.74-0.83-0.98-1.74-1.21
		c-1.15-0.27-2.45-0.57-2.45-1.97c0-1.05,0.91-1.95,2.52-1.95c1.15,0,1.96,0.43,2.51,0.98l-0.49,0.73
		c-0.41-0.49-1.15-0.85-2.02-0.85c-0.92,0-1.5,0.42-1.5,1.02c0,0.66,0.77,0.87,1.65,1.08c1.18,0.27,2.54,0.6,2.54,2.1
		c0,1.13-0.91,2.04-2.66,2.04c-1.11,0-2.04-0.34-2.73-1.06L183.9,226.1z"/>
	<path class="st1" d="M190.66,226.34v-4.43h-1.12v-0.92h1.12v-1.85h1.05v1.85h1.37v0.92h-1.37v4.2c0,0.5,0.22,0.87,0.69,0.87
		c0.29,0,0.57-0.13,0.71-0.28l0.31,0.78c-0.27,0.25-0.64,0.43-1.26,0.43C191.16,227.92,190.66,227.35,190.66,226.34z"/>
	<path class="st1" d="M194.52,226.1c0.45,0.52,1.3,0.97,2.23,0.97c1.04,0,1.6-0.46,1.6-1.12c0-0.74-0.83-0.98-1.74-1.21
		c-1.15-0.27-2.45-0.57-2.45-1.97c0-1.05,0.91-1.95,2.52-1.95c1.15,0,1.96,0.43,2.51,0.98l-0.49,0.73
		c-0.41-0.49-1.15-0.85-2.02-0.85c-0.92,0-1.5,0.42-1.5,1.02c0,0.66,0.77,0.87,1.65,1.08c1.18,0.27,2.54,0.6,2.54,2.1
		c0,1.13-0.91,2.04-2.66,2.04c-1.11,0-2.04-0.34-2.73-1.06L194.52,226.1z"/>
	<path class="st1" d="M204.98,221.92h-1.12v-0.92h1.12v-0.52c0-1.4,0.78-2.2,1.96-2.2c0.39,0,0.76,0.07,1.02,0.24l-0.27,0.78
		c-0.17-0.1-0.36-0.15-0.6-0.15c-0.69,0-1.06,0.48-1.06,1.33v0.52h1.37v0.92h-1.37v5.84h-1.05V221.92z"/>
	<path class="st1" d="M208.65,220.99h1.05v1.09c0.55-0.71,1.33-1.23,2.25-1.23v1.08c-0.13-0.03-0.25-0.04-0.42-0.04
		c-0.64,0-1.53,0.53-1.83,1.08v4.79h-1.05V220.99z"/>
	<path class="st1" d="M212.87,224.37c0-1.96,1.29-3.54,3.35-3.54c2.06,0,3.35,1.58,3.35,3.54s-1.29,3.56-3.35,3.56
		C214.16,227.92,212.87,226.33,212.87,224.37z M218.46,224.37c0-1.37-0.8-2.61-2.24-2.61c-1.44,0-2.25,1.23-2.25,2.61
		c0,1.39,0.81,2.62,2.25,2.62C217.67,226.99,218.46,225.75,218.46,224.37z"/>
	<path class="st1" d="M229.44,223.16c0-0.85-0.38-1.4-1.25-1.4c-0.7,0-1.44,0.5-1.79,1.04v4.96h-1.05v-4.59
		c0-0.85-0.36-1.4-1.25-1.4c-0.69,0-1.42,0.5-1.78,1.05v4.94h-1.05v-6.77h1.05v0.98c0.28-0.43,1.19-1.15,2.18-1.15
		c1.04,0,1.62,0.56,1.82,1.26c0.38-0.62,1.29-1.26,2.27-1.26c1.23,0,1.89,0.69,1.89,2.04v4.89h-1.05V223.16z"/>
	<path class="st1" d="M236.41,226.34v-4.43h-1.12v-0.92h1.12v-1.85h1.05v1.85h1.37v0.92h-1.37v4.2c0,0.5,0.22,0.87,0.69,0.87
		c0.29,0,0.57-0.13,0.71-0.28l0.31,0.78c-0.27,0.25-0.64,0.43-1.26,0.43C236.91,227.92,236.41,227.35,236.41,226.34z"/>
	<path class="st1" d="M244.89,223.3c0-1.19-0.62-1.54-1.53-1.54c-0.81,0-1.6,0.5-2,1.05v4.94h-1.05v-9.34h1.05v3.56
		c0.48-0.56,1.4-1.15,2.42-1.15c1.42,0,2.16,0.69,2.16,2.16v4.78h-1.05V223.3z"/>
	<path class="st1" d="M250.98,220.82c2.04,0,3.25,1.6,3.25,3.63v0.27h-5.48c0.08,1.28,0.98,2.34,2.44,2.34
		c0.77,0,1.55-0.31,2.09-0.85l0.5,0.69c-0.67,0.67-1.58,1.04-2.69,1.04c-2,0-3.45-1.44-3.45-3.56
		C247.65,222.41,249.05,220.82,250.98,220.82z M248.76,223.95h4.44c-0.01-1.01-0.69-2.25-2.23-2.25
		C249.53,221.69,248.81,222.91,248.76,223.95z"/>
	<path class="st1" d="M259.54,230.33v-9.34h1.05V222c0.49-0.69,1.33-1.18,2.28-1.18c1.78,0,3.01,1.34,3.01,3.54
		c0,2.18-1.23,3.56-3.01,3.56c-0.92,0-1.74-0.43-2.28-1.19v3.6H259.54z M262.6,221.76c-0.83,0-1.65,0.49-2.02,1.08v3.05
		c0.36,0.59,1.19,1.09,2.02,1.09c1.36,0,2.17-1.12,2.17-2.62S263.96,221.76,262.6,221.76z"/>
	<path class="st1" d="M271.8,226.99c-0.56,0.62-1.33,0.94-2.24,0.94c-1.15,0-2.37-0.77-2.37-2.24c0-1.51,1.22-2.23,2.37-2.23
		c0.92,0,1.69,0.29,2.24,0.92v-1.22c0-0.91-0.73-1.43-1.71-1.43c-0.81,0-1.47,0.29-2.07,0.94l-0.49-0.73
		c0.73-0.76,1.6-1.12,2.7-1.12c1.43,0,2.62,0.64,2.62,2.28v4.65h-1.05V226.99z M271.8,225.05c-0.41-0.56-1.12-0.84-1.86-0.84
		c-0.98,0-1.67,0.62-1.67,1.48c0,0.85,0.69,1.47,1.67,1.47c0.74,0,1.46-0.28,1.86-0.84V225.05z"/>
	<path class="st1" d="M274.91,226.1c0.45,0.52,1.3,0.97,2.23,0.97c1.04,0,1.6-0.46,1.6-1.12c0-0.74-0.83-0.98-1.74-1.21
		c-1.15-0.27-2.45-0.57-2.45-1.97c0-1.05,0.91-1.95,2.52-1.95c1.15,0,1.96,0.43,2.51,0.98l-0.49,0.73
		c-0.41-0.49-1.15-0.85-2.02-0.85c-0.92,0-1.5,0.42-1.5,1.02c0,0.66,0.77,0.87,1.65,1.08c1.18,0.27,2.54,0.6,2.54,2.1
		c0,1.13-0.91,2.04-2.66,2.04c-1.11,0-2.04-0.34-2.73-1.06L274.91,226.1z"/>
	<path class="st1" d="M281.67,226.34v-4.43h-1.12v-0.92h1.12v-1.85h1.05v1.85h1.37v0.92h-1.37v4.2c0,0.5,0.22,0.87,0.69,0.87
		c0.29,0,0.57-0.13,0.71-0.28l0.31,0.78c-0.27,0.25-0.64,0.43-1.26,0.43C282.17,227.92,281.67,227.35,281.67,226.34z"/>
	<path class="st1" d="M289.23,225.66c0.55,0.73,1.5,1.23,2.61,1.23c1.36,0,2.18-0.67,2.18-1.75c0-1.16-0.95-1.65-2.33-1.65
		c-0.39,0-0.83,0-0.97,0.01v-1.07c0.15,0.01,0.59,0.01,0.97,0.01c1.18,0,2.17-0.46,2.17-1.54c0-1.04-0.95-1.6-2.09-1.6
		c-1.02,0-1.78,0.39-2.46,1.13l-0.64-0.73c0.67-0.81,1.75-1.44,3.19-1.44c1.79,0,3.17,0.91,3.17,2.49c0,1.34-1.13,2.02-2.02,2.17
		c0.85,0.07,2.16,0.8,2.16,2.3c0,1.55-1.25,2.69-3.31,2.69c-1.58,0-2.75-0.7-3.32-1.54L289.23,225.66z"/>
	<path class="st1" d="M305.5,226.75c-0.5,0.69-1.33,1.18-2.28,1.18c-1.76,0-3.01-1.34-3.01-3.54c0-2.16,1.23-3.56,3.01-3.56
		c0.91,0,1.74,0.45,2.28,1.19v-3.6h1.05v9.34h-1.05V226.75z M305.5,222.85c-0.38-0.59-1.19-1.09-2.03-1.09
		c-1.36,0-2.17,1.12-2.17,2.62s0.81,2.61,2.17,2.61c0.84,0,1.65-0.48,2.03-1.06V222.85z"/>
	<path class="st1" d="M312.88,226.99c-0.56,0.62-1.33,0.94-2.24,0.94c-1.15,0-2.37-0.77-2.37-2.24c0-1.51,1.22-2.23,2.37-2.23
		c0.92,0,1.69,0.29,2.24,0.92v-1.22c0-0.91-0.73-1.43-1.71-1.43c-0.81,0-1.47,0.29-2.07,0.94l-0.49-0.73
		c0.73-0.76,1.6-1.12,2.7-1.12c1.43,0,2.62,0.64,2.62,2.28v4.65h-1.05V226.99z M312.88,225.05c-0.41-0.56-1.12-0.84-1.86-0.84
		c-0.98,0-1.67,0.62-1.67,1.48c0,0.85,0.69,1.47,1.67,1.47c0.74,0,1.46-0.28,1.86-0.84V225.05z"/>
	<path class="st1" d="M316.39,229.56c0.46,0,0.77-0.15,1.01-0.71l0.45-1.02l-2.83-6.84h1.13l2.25,5.55l2.24-5.55h1.15l-3.39,8.14
		c-0.41,0.98-1.09,1.36-1.99,1.37c-0.22,0-0.57-0.04-0.77-0.1l0.17-0.95C315.97,229.52,316.22,229.56,316.39,229.56z"/>
	<path class="st1" d="M322.84,226.1c0.45,0.52,1.3,0.97,2.23,0.97c1.04,0,1.6-0.46,1.6-1.12c0-0.74-0.83-0.98-1.74-1.21
		c-1.15-0.27-2.45-0.57-2.45-1.97c0-1.05,0.91-1.95,2.52-1.95c1.15,0,1.96,0.43,2.51,0.98l-0.49,0.73
		c-0.41-0.49-1.15-0.85-2.02-0.85c-0.92,0-1.5,0.42-1.5,1.02c0,0.66,0.77,0.87,1.65,1.08c1.18,0.27,2.54,0.6,2.54,2.1
		c0,1.13-0.91,2.04-2.66,2.04c-1.11,0-2.04-0.34-2.73-1.06L322.84,226.1z"/>
</g>
<g>
	<path d="M130.3,243.91h1.33l3.15,8.07l3.15-8.07h1.33l-3.77,9.34h-1.44L130.3,243.91z"/>
	<path d="M140.25,244.64c0-0.39,0.32-0.7,0.7-0.7c0.39,0,0.71,0.31,0.71,0.7c0,0.39-0.32,0.71-0.71,0.71
		C140.57,245.36,140.25,245.03,140.25,244.64z M140.43,246.49h1.05v6.77h-1.05V246.49z"/>
	<path d="M146.53,246.32c2.04,0,3.25,1.6,3.25,3.63v0.27h-5.48c0.08,1.28,0.98,2.34,2.44,2.34c0.77,0,1.56-0.31,2.09-0.85l0.5,0.69
		c-0.67,0.67-1.58,1.04-2.69,1.04c-2,0-3.45-1.44-3.45-3.56C143.19,247.91,144.59,246.32,146.53,246.32z M144.3,249.45h4.44
		c-0.01-1.01-0.69-2.25-2.23-2.25C145.07,247.19,144.35,248.41,144.3,249.45z"/>
	<path d="M155.56,247.82l-1.76,5.43h-1.05l-2.16-6.77h1.09l1.65,5.39l1.78-5.39h0.9l1.78,5.39l1.65-5.39h1.09l-2.16,6.77h-1.05
		L155.56,247.82z"/>
	<path d="M169.65,243.76c2.76,0,4.64,2.07,4.64,4.83c0,2.76-1.88,4.83-4.64,4.83c-2.77,0-4.64-2.07-4.64-4.83
		C165.02,245.83,166.88,243.76,169.65,243.76z M169.65,244.79c-2.1,0-3.43,1.61-3.43,3.8c0,2.17,1.33,3.8,3.43,3.8
		c2.09,0,3.43-1.62,3.43-3.8C173.09,246.41,171.74,244.79,169.65,244.79z"/>
	<path d="M176.06,243.91h1.05v9.34h-1.05V243.91z"/>
	<path d="M184.12,252.25c-0.5,0.69-1.33,1.18-2.28,1.18c-1.76,0-3.01-1.34-3.01-3.54c0-2.16,1.23-3.56,3.01-3.56
		c0.91,0,1.74,0.45,2.28,1.19v-3.6h1.05v9.34h-1.05V252.25z M184.12,248.35c-0.38-0.59-1.19-1.09-2.03-1.09
		c-1.36,0-2.17,1.12-2.17,2.62s0.81,2.61,2.17,2.61c0.84,0,1.65-0.48,2.03-1.06V248.35z"/>
	<path d="M190.2,246.32c2.04,0,3.25,1.6,3.25,3.63v0.27h-5.48c0.08,1.28,0.98,2.34,2.44,2.34c0.77,0,1.55-0.31,2.09-0.85l0.5,0.69
		c-0.67,0.67-1.58,1.04-2.69,1.04c-2,0-3.45-1.44-3.45-3.56C186.87,247.91,188.27,246.32,190.2,246.32z M187.98,249.45h4.44
		c-0.01-1.01-0.69-2.25-2.23-2.25C188.75,247.19,188.03,248.41,187.98,249.45z"/>
	<path d="M195.14,246.49h1.05v1.09c0.55-0.71,1.33-1.23,2.25-1.23v1.08c-0.13-0.03-0.25-0.04-0.42-0.04c-0.64,0-1.53,0.53-1.83,1.08
		v4.79h-1.05V246.49z"/>
	<path d="M203.42,243.91h3.75c1.88,0,2.93,1.29,2.93,2.82c0,1.53-1.08,2.82-2.93,2.82h-2.59v3.71h-1.16V243.91z M207.03,244.95
		h-2.45v3.56h2.45c1.11,0,1.86-0.73,1.86-1.78S208.14,244.95,207.03,244.95z"/>
	<path d="M211.02,249.87c0-1.96,1.29-3.54,3.35-3.54c2.06,0,3.35,1.58,3.35,3.54s-1.29,3.56-3.35,3.56
		C212.31,253.42,211.02,251.83,211.02,249.87z M216.61,249.87c0-1.37-0.8-2.61-2.24-2.61c-1.44,0-2.25,1.23-2.25,2.61
		c0,1.39,0.81,2.62,2.25,2.62C215.81,252.49,216.61,251.25,216.61,249.87z"/>
	<path d="M219.38,251.6c0.45,0.52,1.3,0.97,2.23,0.97c1.04,0,1.6-0.46,1.6-1.12c0-0.74-0.83-0.98-1.74-1.21
		c-1.15-0.27-2.45-0.57-2.45-1.97c0-1.05,0.91-1.95,2.52-1.95c1.15,0,1.96,0.43,2.51,0.98l-0.49,0.73
		c-0.41-0.49-1.15-0.85-2.02-0.85c-0.92,0-1.5,0.42-1.5,1.02c0,0.66,0.77,0.87,1.65,1.08c1.18,0.27,2.54,0.6,2.54,2.1
		c0,1.13-0.91,2.04-2.66,2.04c-1.11,0-2.04-0.34-2.73-1.06L219.38,251.6z"/>
	<path d="M226.14,251.84v-4.43h-1.12v-0.92h1.12v-1.85h1.05v1.85h1.37v0.92h-1.37v4.2c0,0.5,0.22,0.87,0.69,0.87
		c0.29,0,0.57-0.13,0.71-0.28l0.31,0.78c-0.27,0.25-0.64,0.43-1.26,0.43C226.64,253.42,226.14,252.85,226.14,251.84z"/>
	<path d="M230,251.6c0.45,0.52,1.3,0.97,2.23,0.97c1.04,0,1.6-0.46,1.6-1.12c0-0.74-0.83-0.98-1.74-1.21
		c-1.15-0.27-2.45-0.57-2.45-1.97c0-1.05,0.91-1.95,2.52-1.95c1.15,0,1.96,0.43,2.51,0.98l-0.49,0.73
		c-0.41-0.49-1.15-0.85-2.02-0.85c-0.92,0-1.5,0.42-1.5,1.02c0,0.66,0.77,0.87,1.65,1.08c1.18,0.27,2.54,0.6,2.54,2.1
		c0,1.13-0.91,2.04-2.66,2.04c-1.11,0-2.04-0.34-2.73-1.06L230,251.6z"/>
</g>
<linearGradient id="SVGID_1_" gradientUnits="userSpaceOnUse" x1="1.550688e-09" y1="0.1935" x2="360" y2="0.1935">
	<stop  offset="0" style="stop-color:#FFFFFF"/>
	<stop  offset="1" style="stop-color:#000000"/>
</linearGradient>
<line class="st2" x1="0" y1="-0.17" x2="360" y2="0.56"/>
<linearGradient id="SVGID_2_" gradientUnits="userSpaceOnUse" x1="1.550688e-09" y1="308.1469" x2="360" y2="308.1469">
	<stop  offset="0" style="stop-color:#FFFFFF"/>
	<stop  offset="1" style="stop-color:#000000"/>
</linearGradient>
<line class="st3" x1="0" y1="307.78" x2="360" y2="308.51"/>
<linearGradient id="SVGID_3_" gradientUnits="userSpaceOnUse" x1="1.550688e-09" y1="356.8065" x2="360" y2="356.8065">
	<stop  offset="0" style="stop-color:#FFFFFF"/>
	<stop  offset="1" style="stop-color:#000000"/>
</linearGradient>
<line class="st4" x1="0" y1="356.44" x2="360" y2="357.17"/>
<g>
	<path d="M14.94,334.91c0.85,0.88,2.16,1.62,3.82,1.62c1.4,0,2.09-0.67,2.09-1.35c0-0.9-1.04-1.21-2.43-1.53
		c-1.96-0.45-4.48-0.99-4.48-3.67c0-2,1.73-3.62,4.56-3.62c1.91,0,3.49,0.58,4.68,1.67l-1.42,1.87c-0.97-0.9-2.27-1.31-3.44-1.31
		c-1.15,0-1.76,0.5-1.76,1.22c0,0.81,1.01,1.06,2.39,1.39c1.98,0.45,4.5,1.04,4.5,3.71c0,2.2-1.57,3.85-4.81,3.85
		c-2.3,0-3.96-0.77-5.1-1.91L14.94,334.91z"/>
	<path d="M30.97,337.45c-0.59,0.67-1.64,1.31-3.06,1.31c-1.91,0-2.81-1.04-2.81-2.74v-6.18h2.29v5.28c0,1.21,0.63,1.6,1.6,1.6
		c0.88,0,1.58-0.49,1.98-0.99v-5.89h2.29v8.7h-2.29V337.45z"/>
	<path d="M36.37,339.13c0.7,0.77,1.62,1.08,2.72,1.08c1.1,0,2.4-0.49,2.4-2.2v-0.88c-0.68,0.86-1.62,1.37-2.68,1.37
		c-2.18,0-3.83-1.53-3.83-4.43c0-2.84,1.64-4.43,3.83-4.43c1.04,0,1.98,0.45,2.68,1.33v-1.12h2.3v8.1c0,3.31-2.56,4.12-4.7,4.12
		c-1.49,0-2.65-0.34-3.75-1.3L36.37,339.13z M41.49,332.66c-0.38-0.58-1.21-0.99-1.96-0.99c-1.3,0-2.2,0.9-2.2,2.39
		s0.9,2.39,2.2,2.39c0.76,0,1.58-0.43,1.96-0.99V332.66z"/>
	<path d="M46.9,339.13c0.7,0.77,1.62,1.08,2.72,1.08c1.1,0,2.4-0.49,2.4-2.2v-0.88c-0.68,0.86-1.62,1.37-2.68,1.37
		c-2.18,0-3.83-1.53-3.83-4.43c0-2.84,1.64-4.43,3.83-4.43c1.04,0,1.98,0.45,2.68,1.33v-1.12h2.3v8.1c0,3.31-2.56,4.12-4.7,4.12
		c-1.49,0-2.65-0.34-3.75-1.3L46.9,339.13z M52.02,332.66c-0.38-0.58-1.21-0.99-1.96-0.99c-1.3,0-2.2,0.9-2.2,2.39
		s0.9,2.39,2.2,2.39c0.76,0,1.58-0.43,1.96-0.99V332.66z"/>
	<path d="M60.53,329.64c2.59,0,4.36,1.95,4.36,4.79v0.5h-6.46c0.14,1.1,1.03,2.02,2.5,2.02c0.81,0,1.76-0.32,2.32-0.86l1.01,1.48
		c-0.86,0.79-2.23,1.21-3.58,1.21c-2.65,0-4.65-1.78-4.65-4.57C56.03,331.67,57.88,329.64,60.53,329.64z M58.39,333.38h4.29
		c-0.05-0.83-0.63-1.93-2.14-1.93C59.11,331.46,58.5,332.52,58.39,333.38z"/>
	<path d="M66.77,335.81c0.63,0.59,1.93,1.19,3.01,1.19c0.99,0,1.46-0.34,1.46-0.88c0-0.61-0.76-0.83-1.75-1.03
		c-1.49-0.29-3.42-0.65-3.42-2.72c0-1.46,1.28-2.74,3.57-2.74c1.48,0,2.65,0.5,3.51,1.19l-0.92,1.57c-0.52-0.56-1.51-1.01-2.58-1.01
		c-0.83,0-1.37,0.31-1.37,0.81c0,0.54,0.68,0.74,1.66,0.94c1.49,0.29,3.49,0.68,3.49,2.84c0,1.58-1.35,2.79-3.76,2.79
		c-1.51,0-2.97-0.5-3.89-1.35L66.77,335.81z"/>
	<path d="M75.58,336.39v-4.54h-1.44v-2h1.44v-2.38h2.3v2.38h1.76v2h-1.76v3.93c0,0.54,0.29,0.95,0.79,0.95
		c0.34,0,0.67-0.13,0.79-0.25l0.49,1.73c-0.34,0.31-0.95,0.56-1.91,0.56C76.44,338.77,75.58,337.94,75.58,336.39z"/>
	<path d="M85.15,329.64c2.59,0,4.36,1.95,4.36,4.79v0.5h-6.46c0.14,1.1,1.03,2.02,2.5,2.02c0.81,0,1.76-0.32,2.32-0.86l1.01,1.48
		c-0.86,0.79-2.23,1.21-3.58,1.21c-2.65,0-4.65-1.78-4.65-4.57C80.65,331.67,82.51,329.64,85.15,329.64z M83.01,333.38h4.29
		c-0.05-0.83-0.63-1.93-2.14-1.93C83.73,331.46,83.12,332.52,83.01,333.38z"/>
	<path d="M97.14,337.43c-0.68,0.86-1.64,1.33-2.68,1.33c-2.2,0-3.85-1.66-3.85-4.55c0-2.85,1.64-4.57,3.85-4.57
		c1.03,0,2,0.45,2.68,1.33v-4.43h2.3v12.01h-2.3V337.43z M97.14,332.66c-0.38-0.58-1.21-0.99-1.98-0.99c-1.3,0-2.2,1.03-2.2,2.54
		c0,1.49,0.9,2.52,2.2,2.52c0.77,0,1.6-0.41,1.98-0.99V332.66z"/>
	<path d="M106.37,326.54h5.62c2.61,0,4.03,1.76,4.03,3.87c0,2.09-1.44,3.83-4.03,3.83h-3.06v4.3h-2.56V326.54z M111.65,328.74h-2.72
		v3.31h2.72c1.01,0,1.76-0.65,1.76-1.66C113.41,329.4,112.66,328.74,111.65,328.74z"/>
	<path d="M116.69,334.19c0-2.47,1.73-4.56,4.59-4.56c2.88,0,4.61,2.09,4.61,4.56c0,2.48-1.73,4.57-4.61,4.57
		C118.42,338.77,116.69,336.68,116.69,334.19z M123.51,334.19c0-1.35-0.81-2.52-2.23-2.52s-2.21,1.17-2.21,2.52
		c0,1.37,0.79,2.54,2.21,2.54S123.51,335.56,123.51,334.19z"/>
	<path d="M127.81,335.81c0.63,0.59,1.93,1.19,3.01,1.19c0.99,0,1.46-0.34,1.46-0.88c0-0.61-0.76-0.83-1.75-1.03
		c-1.49-0.29-3.42-0.65-3.42-2.72c0-1.46,1.28-2.74,3.57-2.74c1.48,0,2.65,0.5,3.51,1.19l-0.92,1.57c-0.52-0.56-1.51-1.01-2.58-1.01
		c-0.83,0-1.37,0.31-1.37,0.81c0,0.54,0.68,0.74,1.66,0.94c1.49,0.29,3.49,0.68,3.49,2.84c0,1.58-1.35,2.79-3.76,2.79
		c-1.51,0-2.97-0.5-3.89-1.35L127.81,335.81z"/>
	<path d="M136.61,336.39v-4.54h-1.44v-2h1.44v-2.38h2.3v2.38h1.76v2h-1.76v3.93c0,0.54,0.29,0.95,0.79,0.95
		c0.34,0,0.67-0.13,0.79-0.25l0.49,1.73c-0.34,0.31-0.95,0.56-1.91,0.56C137.48,338.77,136.61,337.94,136.61,336.39z"/>
	<path d="M142.48,335.81c0.63,0.59,1.93,1.19,3.01,1.19c0.99,0,1.46-0.34,1.46-0.88c0-0.61-0.76-0.83-1.75-1.03
		c-1.49-0.29-3.42-0.65-3.42-2.72c0-1.46,1.28-2.74,3.57-2.74c1.48,0,2.65,0.5,3.51,1.19l-0.92,1.57c-0.52-0.56-1.51-1.01-2.58-1.01
		c-0.83,0-1.37,0.31-1.37,0.81c0,0.54,0.68,0.74,1.66,0.94c1.49,0.29,3.49,0.68,3.49,2.84c0,1.58-1.35,2.79-3.76,2.79
		c-1.51,0-2.97-0.5-3.89-1.35L142.48,335.81z"/>
</g>
<g>
</g>
<g>
</g>
<g>
</g>
<g>
</g>
<g>
</g>
<g>
</g>
</svg>
