<?xml version="1.0" encoding="utf-8"?>
<!-- Generator: Adobe Illustrator 25.2.1, SVG Export Plug-In . SVG Version: 6.00 Build 0)  -->
<svg version="1.1" id="Layer_1" xmlns="http://www.w3.org/2000/svg" xmlns:xlink="http://www.w3.org/1999/xlink" x="0px" y="0px"
	 viewBox="0 0 360 311" style="enable-background:new 0 0 360 311;" xml:space="preserve">
<style type="text/css">
	.st0{fill:none;stroke:#13C4A3;stroke-width:5;stroke-linecap:round;stroke-linejoin:round;}
	.st1{fill:#13C4A3;}
	.st2{fill:none;stroke:#9E9B99;stroke-width:0.5;stroke-linecap:round;stroke-linejoin:round;}
	.st3{fill:none;stroke:#13C4A3;stroke-width:0.5;stroke-linecap:round;stroke-linejoin:round;}
	.st4{display:none;fill:none;stroke:#000000;stroke-width:0.5;stroke-linecap:round;stroke-linejoin:round;}
</style>
<path class="st0" d="M223.5,70.6v4c0,24.2-19.6,43.8-43.8,43.8c-24.2,0-43.8-19.6-43.8-43.8s19.6-43.8,43.8-43.8
	c6.1,0,12.2,1.3,17.8,3.8"/>
<polyline class="st0" points="223.5,39.6 179.7,83.4 166.6,70.3 "/>
<g>
	<path class="st1" d="M77.2,163.1l-6.6-9.6H73l5.2,7.8l5.2-7.8h2.4l-6.6,9.6v7.1h-2.1L77.2,163.1L77.2,163.1z"/>
	<path class="st1" d="M84,164.1c0-3.5,2.3-6.3,6-6.3s6,2.8,6,6.3s-2.3,6.4-6,6.4S84,167.6,84,164.1z M94,164.1c0-2.4-1.4-4.6-4-4.6
		s-4,2.2-4,4.6c0,2.5,1.4,4.7,4,4.7S94,166.6,94,164.1z"/>
	<path class="st1" d="M107.2,168.4c-0.9,1.1-2.5,2-4.3,2c-2.5,0-3.8-1.2-3.8-3.9v-8.5h1.9v7.9c0,2.1,1.1,2.8,2.7,2.8
		c1.5,0,2.9-0.9,3.6-1.8v-8.9h1.9v12.1h-1.9L107.2,168.4L107.2,168.4z"/>
	<path class="st1" d="M112.4,158.1c0.8-0.5,1.5-1.5,1.6-2.3c-0.1,0-0.2,0.1-0.3,0.1c-0.7,0-1.2-0.5-1.2-1.3c0-0.7,0.6-1.4,1.3-1.4
		c0.8,0,1.6,0.7,1.6,1.9c0,1.5-0.9,2.9-2.1,3.8L112.4,158.1z"/>
	<path class="st1" d="M118.6,158.1h1.9v1.9c1-1.3,2.4-2.2,4-2.2v1.9c-0.2-0.1-0.4-0.1-0.8-0.1c-1.2,0-2.7,0.9-3.3,1.9v8.6h-1.9
		V158.1z"/>
	<path class="st1" d="M132.1,157.8c3.6,0,5.8,2.9,5.8,6.5v0.5h-9.8c0.1,2.3,1.8,4.2,4.4,4.2c1.4,0,2.8-0.6,3.7-1.5l0.9,1.2
		c-1.2,1.2-2.8,1.9-4.8,1.9c-3.6,0-6.2-2.6-6.2-6.4C126.1,160.6,128.6,157.8,132.1,157.8z M128.1,163.3h7.9c0-1.8-1.2-4-4-4
		C129.4,159.3,128.2,161.5,128.1,163.3z"/>
	<path class="st1" d="M157.9,166.4h-8.4l-1.5,3.7h-2.3l6.7-16.7h2.6l6.7,16.7h-2.3L157.9,166.4z M150.1,164.6h7.2l-3.6-9.3
		L150.1,164.6z"/>
	<path class="st1" d="M163.8,153.5h1.9v16.7h-1.9V153.5z"/>
	<path class="st1" d="M169.4,153.5h1.9v16.7h-1.9V153.5z"/>
	<path class="st1" d="M180.9,161.8c0-5.1,3.8-8.6,8.5-8.6c3,0,5.1,1.4,6.4,3.3l-1.8,1c-0.9-1.4-2.7-2.4-4.6-2.4
		c-3.6,0-6.4,2.8-6.4,6.8c0,3.9,2.8,6.8,6.4,6.8c2,0,3.7-1,4.6-2.4l1.8,1c-1.4,1.9-3.4,3.3-6.4,3.3
		C184.6,170.4,180.9,166.9,180.9,161.8z"/>
	<path class="st1" d="M205.9,168.8c-1,1.1-2.4,1.7-4,1.7c-2.1,0-4.2-1.4-4.2-4c0-2.7,2.2-4,4.2-4c1.6,0,3,0.5,4,1.6v-2.2
		c0-1.6-1.3-2.6-3.1-2.6c-1.4,0-2.6,0.5-3.7,1.7l-0.9-1.3c1.3-1.4,2.9-2,4.8-2c2.6,0,4.7,1.1,4.7,4.1v8.3h-1.9L205.9,168.8
		L205.9,168.8z M205.9,165.3c-0.7-1-2-1.5-3.3-1.5c-1.8,0-3,1.1-3,2.6c0,1.5,1.2,2.6,3,2.6c1.3,0,2.6-0.5,3.3-1.5V165.3z"/>
	<path class="st1" d="M219.7,168.4c-0.9,1.1-2.5,2-4.3,2c-2.5,0-3.9-1.2-3.9-3.9v-8.5h1.9v7.9c0,2.1,1.1,2.8,2.7,2.8
		c1.5,0,2.9-0.9,3.6-1.8v-8.9h1.9v12.1h-1.9L219.7,168.4L219.7,168.4z"/>
	<path class="st1" d="M226.2,171.8c1,1.2,2.2,1.6,3.9,1.6c2,0,3.9-1,3.9-3.6v-1.7c-0.9,1.2-2.4,2.1-4.1,2.1c-3.1,0-5.4-2.4-5.4-6.2
		c0-3.9,2.2-6.3,5.4-6.3c1.6,0,3.1,0.8,4.1,2.1v-1.8h1.9v11.7c0,4-2.8,5.2-5.8,5.2c-2.1,0-3.4-0.4-4.9-1.8L226.2,171.8z
		 M234.1,161.4c-0.6-1.1-2.1-1.9-3.6-1.9c-2.4,0-3.9,1.9-3.9,4.6c0,2.6,1.4,4.6,3.9,4.6c1.5,0,2.9-0.9,3.6-2V161.4z"/>
	<path class="st1" d="M247.9,162.2c0-2.1-1.1-2.8-2.7-2.8c-1.4,0-2.9,0.9-3.6,1.9v8.8h-1.9v-16.7h1.9v6.4c0.9-1,2.5-2.1,4.3-2.1
		c2.5,0,3.9,1.2,3.9,3.9v8.5h-1.9L247.9,162.2L247.9,162.2z"/>
	<path class="st1" d="M253.9,167.6v-7.9h-2v-1.6h2v-3.3h1.9v3.3h2.5v1.6h-2.4v7.5c0,0.9,0.4,1.6,1.2,1.6c0.5,0,1-0.2,1.3-0.5
		l0.5,1.4c-0.5,0.4-1.1,0.8-2.2,0.8C254.8,170.4,253.9,169.4,253.9,167.6z"/>
	<path class="st1" d="M267.4,153.5h2.1v10.1c0,3.1,1.6,5,4.7,5s4.7-1.9,4.7-5v-10.1h2.1v10.2c0,4.1-2.3,6.8-6.8,6.8
		c-4.5,0-6.8-2.7-6.8-6.8L267.4,153.5L267.4,153.5z"/>
	<path class="st1" d="M284.8,174.7v-16.7h1.9v1.8c0.9-1.2,2.4-2.1,4.1-2.1c3.2,0,5.4,2.4,5.4,6.3c0,3.9-2.2,6.4-5.4,6.4
		c-1.6,0-3.1-0.8-4.1-2.1v6.4L284.8,174.7L284.8,174.7z M290.2,159.4c-1.5,0-3,0.9-3.6,1.9v5.4c0.6,1.1,2.1,1.9,3.6,1.9
		c2.4,0,3.9-2,3.9-4.7C294.1,161.4,292.7,159.4,290.2,159.4z"/>
</g>
<g>
	<path class="st1" d="M45.7,194.1l-3.7-5.4h1.4l2.9,4.3l2.9-4.3h1.4l-3.7,5.4v3.9h-1.2L45.7,194.1L45.7,194.1z"/>
	<path class="st1" d="M49.5,194.7c0-2,1.3-3.5,3.3-3.5s3.3,1.6,3.3,3.5s-1.3,3.6-3.3,3.6S49.5,196.7,49.5,194.7z M55.1,194.7
		c0-1.4-0.8-2.6-2.2-2.6c-1.4,0-2.3,1.2-2.3,2.6c0,1.4,0.8,2.6,2.3,2.6C54.3,197.3,55.1,196.1,55.1,194.7z"/>
	<path class="st1" d="M62.5,197.1c-0.5,0.6-1.4,1.1-2.4,1.1c-1.4,0-2.2-0.7-2.2-2.2v-4.8h1v4.4c0,1.2,0.6,1.5,1.5,1.5
		c0.8,0,1.6-0.5,2-1v-5h1v6.8h-1L62.5,197.1L62.5,197.1z"/>
	<path class="st1" d="M65.4,191.4c0.4-0.3,0.8-0.9,0.9-1.3c0,0-0.1,0-0.2,0c-0.4,0-0.7-0.3-0.7-0.7c0-0.4,0.3-0.8,0.7-0.8
		c0.5,0,0.9,0.4,0.9,1.1c0,0.9-0.5,1.6-1.2,2.1L65.4,191.4z"/>
	<path class="st1" d="M67.8,191.3H69l2.3,5.6l2.2-5.6h1.2l-2.8,6.8h-1.2L67.8,191.3z"/>
	<path class="st1" d="M78.7,191.2c2,0,3.2,1.6,3.2,3.6v0.3h-5.5c0.1,1.3,1,2.3,2.4,2.3c0.8,0,1.6-0.3,2.1-0.9l0.5,0.7
		c-0.7,0.7-1.6,1-2.7,1c-2,0-3.4-1.4-3.4-3.6C75.3,192.7,76.7,191.2,78.7,191.2z M76.4,194.3h4.4c0-1-0.7-2.2-2.2-2.2
		C77.2,192,76.5,193.2,76.4,194.3z"/>
	<path class="st1" d="M87.2,196.4c0.4,0.5,1.3,1,2.2,1c1,0,1.6-0.5,1.6-1.1c0-0.7-0.8-1-1.7-1.2c-1.2-0.3-2.4-0.6-2.4-2
		c0-1.1,0.9-1.9,2.5-1.9c1.2,0,2,0.4,2.5,1l-0.5,0.7c-0.4-0.5-1.2-0.9-2-0.9c-0.9,0-1.5,0.4-1.5,1c0,0.7,0.8,0.9,1.7,1.1
		c1.2,0.3,2.5,0.6,2.5,2.1c0,1.1-0.9,2-2.7,2c-1.1,0-2-0.3-2.7-1.1L87.2,196.4z"/>
	<path class="st1" d="M96.7,191.2c2,0,3.2,1.6,3.2,3.6v0.3h-5.5c0.1,1.3,1,2.3,2.4,2.3c0.8,0,1.6-0.3,2.1-0.9l0.5,0.7
		c-0.7,0.7-1.6,1-2.7,1c-2,0-3.4-1.4-3.4-3.6C93.3,192.7,94.7,191.2,96.7,191.2z M94.4,194.3h4.4c0-1-0.7-2.2-2.2-2.2
		C95.2,192,94.5,193.2,94.4,194.3z"/>
	<path class="st1" d="M104.5,191.2c2,0,3.2,1.6,3.2,3.6v0.3h-5.5c0.1,1.3,1,2.3,2.4,2.3c0.8,0,1.6-0.3,2.1-0.9l0.5,0.7
		c-0.7,0.7-1.6,1-2.7,1c-2,0-3.4-1.4-3.4-3.6C101.2,192.7,102.6,191.2,104.5,191.2z M102.3,194.3h4.4c0-1-0.7-2.2-2.2-2.2
		C103.1,192,102.4,193.2,102.3,194.3z"/>
	<path class="st1" d="M114.1,193.7c0-1.2-0.6-1.6-1.5-1.6c-0.8,0-1.6,0.5-2,1.1v4.9h-1.1v-6.8h1.1v1c0.5-0.6,1.4-1.1,2.4-1.1
		c1.4,0,2.2,0.7,2.2,2.2v4.8h-1.1L114.1,193.7L114.1,193.7z"/>
	<path class="st1" d="M125,197.3c-0.6,0.6-1.3,0.9-2.2,0.9c-1.2,0-2.4-0.8-2.4-2.2c0-1.5,1.2-2.2,2.4-2.2c0.9,0,1.7,0.3,2.2,0.9
		v-1.2c0-0.9-0.7-1.4-1.7-1.4c-0.8,0-1.5,0.3-2.1,0.9l-0.5-0.7c0.7-0.8,1.6-1.1,2.7-1.1c1.4,0,2.6,0.6,2.6,2.3v4.6H125V197.3z
		 M125,195.4c-0.4-0.6-1.1-0.8-1.9-0.8c-1,0-1.7,0.6-1.7,1.5c0,0.9,0.7,1.5,1.7,1.5c0.7,0,1.5-0.3,1.9-0.8V195.4z"/>
	<path class="st1" d="M128.2,188.8h1.1v9.3h-1.1V188.8z"/>
	<path class="st1" d="M131.3,188.8h1.1v9.3h-1.1V188.8z"/>
	<path class="st1" d="M142.7,193.7c0-1.2-0.6-1.6-1.5-1.6c-0.8,0-1.6,0.5-2,1.1v4.9h-1.1v-6.8h1.1v1c0.5-0.6,1.4-1.1,2.4-1.1
		c1.4,0,2.2,0.7,2.2,2.2v4.8h-1.1L142.7,193.7L142.7,193.7z"/>
	<path class="st1" d="M148.8,191.2c2,0,3.2,1.6,3.2,3.6v0.3h-5.5c0.1,1.3,1,2.3,2.4,2.3c0.8,0,1.6-0.3,2.1-0.9l0.5,0.7
		c-0.7,0.7-1.6,1-2.7,1c-2,0-3.4-1.4-3.4-3.6C145.4,192.7,146.8,191.2,148.8,191.2z M146.5,194.3h4.4c0-1-0.7-2.2-2.2-2.2
		C147.3,192,146.6,193.2,146.5,194.3z"/>
	<path class="st1" d="M157.8,192.7l-1.8,5.4H155l-2.2-6.8h1.1l1.6,5.4l1.8-5.4h0.9l1.8,5.4l1.6-5.4h1.1l-2.2,6.8h-1.1L157.8,192.7z"
		/>
	<path class="st1" d="M167.6,200.7v-9.3h1.1v1c0.5-0.7,1.3-1.2,2.3-1.2c1.8,0,3,1.3,3,3.5c0,2.2-1.2,3.6-3,3.6
		c-0.9,0-1.7-0.4-2.3-1.2v3.6H167.6z M170.6,192.1c-0.8,0-1.6,0.5-2,1.1v3.1c0.4,0.6,1.2,1.1,2,1.1c1.4,0,2.2-1.1,2.2-2.6
		S172,192.1,170.6,192.1z"/>
	<path class="st1" d="M175.2,194.7c0-2,1.3-3.5,3.4-3.5c2.1,0,3.4,1.6,3.4,3.5s-1.3,3.6-3.4,3.6
		C176.5,198.3,175.2,196.7,175.2,194.7z M180.8,194.7c0-1.4-0.8-2.6-2.2-2.6s-2.2,1.2-2.2,2.6c0,1.4,0.8,2.6,2.2,2.6
		C180,197.3,180.8,196.1,180.8,194.7z"/>
	<path class="st1" d="M183.6,196.4c0.4,0.5,1.3,1,2.2,1c1,0,1.6-0.5,1.6-1.1c0-0.7-0.8-1-1.7-1.2c-1.1-0.3-2.4-0.6-2.4-2
		c0-1.1,0.9-1.9,2.5-1.9c1.1,0,2,0.4,2.5,1l-0.5,0.7c-0.4-0.5-1.1-0.9-2-0.9c-0.9,0-1.5,0.4-1.5,1c0,0.7,0.8,0.9,1.6,1.1
		c1.2,0.3,2.5,0.6,2.5,2.1c0,1.1-0.9,2-2.7,2c-1.1,0-2-0.3-2.7-1.1L183.6,196.4z"/>
	<path class="st1" d="M190.3,196.7v-4.4h-1.1v-0.9h1.1v-1.9h1.1v1.9h1.4v0.9h-1.4v4.2c0,0.5,0.2,0.9,0.7,0.9c0.3,0,0.6-0.1,0.7-0.3
		l0.3,0.8c-0.3,0.2-0.6,0.4-1.3,0.4C190.9,198.3,190.3,197.7,190.3,196.7z"/>
	<path class="st1" d="M194.2,196.4c0.4,0.5,1.3,1,2.2,1c1,0,1.6-0.5,1.6-1.1c0-0.7-0.8-1-1.7-1.2c-1.1-0.3-2.4-0.6-2.4-2
		c0-1.1,0.9-1.9,2.5-1.9c1.1,0,2,0.4,2.5,1l-0.5,0.7c-0.4-0.5-1.1-0.9-2-0.9c-0.9,0-1.5,0.4-1.5,1c0,0.7,0.8,0.9,1.6,1.1
		c1.2,0.3,2.5,0.6,2.5,2.1c0,1.1-0.9,2-2.7,2c-1.1,0-2-0.3-2.7-1.1L194.2,196.4z"/>
	<path class="st1" d="M204.7,192.2h-1.1v-0.9h1.1v-0.5c0-1.4,0.8-2.2,2-2.2c0.4,0,0.8,0.1,1,0.2l-0.3,0.8c-0.2-0.1-0.4-0.1-0.6-0.1
		c-0.7,0-1.1,0.5-1.1,1.3v0.5h1.4v0.9h-1.4v5.8h-1.1V192.2z"/>
	<path class="st1" d="M208.3,191.3h1.1v1.1c0.6-0.7,1.3-1.2,2.2-1.2v1.1c-0.1,0-0.2,0-0.4,0c-0.6,0-1.5,0.5-1.8,1.1v4.8h-1.1V191.3z
		"/>
	<path class="st1" d="M212.6,194.7c0-2,1.3-3.5,3.4-3.5c2.1,0,3.4,1.6,3.4,3.5s-1.3,3.6-3.4,3.6
		C213.9,198.3,212.6,196.7,212.6,194.7z M218.1,194.7c0-1.4-0.8-2.6-2.2-2.6s-2.2,1.2-2.2,2.6c0,1.4,0.8,2.6,2.2,2.6
		C217.4,197.3,218.1,196.1,218.1,194.7z"/>
	<path class="st1" d="M229.1,193.5c0-0.9-0.4-1.4-1.2-1.4c-0.7,0-1.4,0.5-1.8,1v5H225v-4.6c0-0.9-0.4-1.4-1.2-1.4
		c-0.7,0-1.4,0.5-1.8,1.1v4.9h-1.1v-6.8h1.1v1c0.3-0.4,1.2-1.1,2.2-1.1c1,0,1.6,0.6,1.8,1.3c0.4-0.6,1.3-1.3,2.3-1.3
		c1.2,0,1.9,0.7,1.9,2v4.9h-1.1L229.1,193.5L229.1,193.5z"/>
	<path class="st1" d="M236.1,196.7v-4.4H235v-0.9h1.1v-1.9h1.1v1.9h1.4v0.9h-1.4v4.2c0,0.5,0.2,0.9,0.7,0.9c0.3,0,0.6-0.1,0.7-0.3
		l0.3,0.8c-0.3,0.2-0.6,0.4-1.3,0.4C236.6,198.3,236.1,197.7,236.1,196.7z"/>
	<path class="st1" d="M244.6,193.6c0-1.2-0.6-1.5-1.5-1.5c-0.8,0-1.6,0.5-2,1.1v4.9H240v-9.3h1.1v3.6c0.5-0.6,1.4-1.1,2.4-1.1
		c1.4,0,2.2,0.7,2.2,2.2v4.8h-1.1V193.6z"/>
	<path class="st1" d="M250.7,191.2c2,0,3.2,1.6,3.2,3.6v0.3h-5.5c0.1,1.3,1,2.3,2.4,2.3c0.8,0,1.6-0.3,2.1-0.9l0.5,0.7
		c-0.7,0.7-1.6,1-2.7,1c-2,0-3.4-1.4-3.4-3.6C247.3,192.7,248.7,191.2,250.7,191.2z M248.4,194.3h4.4c0-1-0.7-2.2-2.2-2.2
		C249.2,192,248.5,193.2,248.4,194.3z"/>
	<path class="st1" d="M259.2,200.7v-9.3h1v1c0.5-0.7,1.3-1.2,2.3-1.2c1.8,0,3,1.3,3,3.5c0,2.2-1.2,3.6-3,3.6c-0.9,0-1.7-0.4-2.3-1.2
		v3.6H259.2z M262.3,192.1c-0.8,0-1.6,0.5-2,1.1v3.1c0.4,0.6,1.2,1.1,2,1.1c1.4,0,2.2-1.1,2.2-2.6S263.6,192.1,262.3,192.1z"/>
	<path class="st1" d="M271.5,197.3c-0.6,0.6-1.3,0.9-2.2,0.9c-1.1,0-2.4-0.8-2.4-2.2c0-1.5,1.2-2.2,2.4-2.2c0.9,0,1.7,0.3,2.2,0.9
		v-1.2c0-0.9-0.7-1.4-1.7-1.4c-0.8,0-1.5,0.3-2.1,0.9l-0.5-0.7c0.7-0.8,1.6-1.1,2.7-1.1c1.4,0,2.6,0.6,2.6,2.3v4.6h-1L271.5,197.3
		L271.5,197.3z M271.5,195.4c-0.4-0.6-1.1-0.8-1.9-0.8c-1,0-1.7,0.6-1.7,1.5c0,0.9,0.7,1.5,1.7,1.5c0.7,0,1.5-0.3,1.9-0.8V195.4z"/>
	<path class="st1" d="M274.6,196.4c0.5,0.5,1.3,1,2.2,1c1,0,1.6-0.5,1.6-1.1c0-0.7-0.8-1-1.7-1.2c-1.1-0.3-2.5-0.6-2.5-2
		c0-1.1,0.9-1.9,2.5-1.9c1.1,0,2,0.4,2.5,1l-0.5,0.7c-0.4-0.5-1.1-0.9-2-0.9c-0.9,0-1.5,0.4-1.5,1c0,0.7,0.8,0.9,1.6,1.1
		c1.2,0.3,2.5,0.6,2.5,2.1c0,1.1-0.9,2-2.7,2c-1.1,0-2-0.3-2.7-1.1L274.6,196.4z"/>
	<path class="st1" d="M281.4,196.7v-4.4h-1.1v-0.9h1.1v-1.9h1v1.9h1.4v0.9h-1.4v4.2c0,0.5,0.2,0.9,0.7,0.9c0.3,0,0.6-0.1,0.7-0.3
		l0.3,0.8c-0.3,0.2-0.6,0.4-1.3,0.4C281.9,198.3,281.4,197.7,281.4,196.7z"/>
	<path class="st1" d="M288.9,196c0.5,0.7,1.5,1.2,2.6,1.2c1.4,0,2.2-0.7,2.2-1.8c0-1.2-1-1.6-2.3-1.6c-0.4,0-0.8,0-1,0v-1.1
		c0.1,0,0.6,0,1,0c1.2,0,2.2-0.5,2.2-1.5c0-1-1-1.6-2.1-1.6c-1,0-1.8,0.4-2.5,1.1l-0.6-0.7c0.7-0.8,1.8-1.4,3.2-1.4
		c1.8,0,3.2,0.9,3.2,2.5c0,1.3-1.1,2-2,2.2c0.9,0.1,2.2,0.8,2.2,2.3c0,1.6-1.2,2.7-3.3,2.7c-1.6,0-2.8-0.7-3.3-1.5L288.9,196z"/>
	<path class="st1" d="M305.2,197.1c-0.5,0.7-1.3,1.2-2.3,1.2c-1.8,0-3-1.3-3-3.5c0-2.2,1.2-3.6,3-3.6c0.9,0,1.7,0.4,2.3,1.2v-3.6h1
		v9.3h-1V197.1z M305.2,193.2c-0.4-0.6-1.2-1.1-2-1.1c-1.4,0-2.2,1.1-2.2,2.6s0.8,2.6,2.2,2.6c0.8,0,1.6-0.5,2-1.1V193.2z"/>
	<path class="st1" d="M312.6,197.3c-0.6,0.6-1.3,0.9-2.2,0.9c-1.1,0-2.4-0.8-2.4-2.2c0-1.5,1.2-2.2,2.4-2.2c0.9,0,1.7,0.3,2.2,0.9
		v-1.2c0-0.9-0.7-1.4-1.7-1.4c-0.8,0-1.5,0.3-2.1,0.9l-0.5-0.7c0.7-0.8,1.6-1.1,2.7-1.1c1.4,0,2.6,0.6,2.6,2.3v4.6h-1L312.6,197.3
		L312.6,197.3z M312.6,195.4c-0.4-0.6-1.1-0.8-1.9-0.8c-1,0-1.7,0.6-1.7,1.5c0,0.9,0.7,1.5,1.7,1.5c0.7,0,1.5-0.3,1.9-0.8V195.4z"/>
	<path class="st1" d="M316.1,199.9c0.5,0,0.8-0.1,1-0.7l0.5-1l-2.8-6.8h1.1l2.2,5.6l2.2-5.6h1.1l-3.4,8.1c-0.4,1-1.1,1.4-2,1.4
		c-0.2,0-0.6,0-0.8-0.1l0.2-0.9C315.6,199.9,315.9,199.9,316.1,199.9z"/>
	<path class="st1" d="M322.5,196.4c0.5,0.5,1.3,1,2.2,1c1,0,1.6-0.5,1.6-1.1c0-0.7-0.8-1-1.7-1.2c-1.1-0.3-2.5-0.6-2.5-2
		c0-1.1,0.9-1.9,2.5-1.9c1.1,0,2,0.4,2.5,1l-0.5,0.7c-0.4-0.5-1.1-0.9-2-0.9c-0.9,0-1.5,0.4-1.5,1c0,0.7,0.8,0.9,1.6,1.1
		c1.2,0.3,2.5,0.6,2.5,2.1c0,1.1-0.9,2-2.7,2c-1.1,0-2-0.3-2.7-1.1L322.5,196.4z"/>
</g>
<g>
	<path class="st1" d="M141.1,235.9h1.1l2.7,6.9l2.7-6.9h1.1l-3.2,8h-1.2L141.1,235.9z"/>
	<path class="st1" d="M149.6,236.5c0-0.3,0.3-0.6,0.6-0.6c0.3,0,0.6,0.3,0.6,0.6s-0.3,0.6-0.6,0.6
		C149.9,237.1,149.6,236.8,149.6,236.5z M149.8,238.1h0.9v5.8h-0.9V238.1z"/>
	<path class="st1" d="M155,237.9c1.8,0,2.8,1.4,2.8,3.1v0.2h-4.7c0.1,1.1,0.8,2,2.1,2c0.7,0,1.3-0.3,1.8-0.7l0.4,0.6
		c-0.6,0.6-1.4,0.9-2.3,0.9c-1.7,0-2.9-1.2-2.9-3.1C152.2,239.3,153.4,237.9,155,237.9z M153.1,240.6h3.8c0-0.9-0.6-1.9-1.9-1.9
		C153.8,238.7,153.2,239.7,153.1,240.6z"/>
	<path class="st1" d="M162.8,239.2l-1.5,4.6h-0.9l-1.9-5.8h0.9l1.4,4.6l1.5-4.6h0.8l1.5,4.6l1.4-4.6h0.9l-1.9,5.8h-0.9L162.8,239.2z
		"/>
	<path class="st1" d="M174.9,235.8c2.4,0,4,1.8,4,4.1s-1.6,4.1-4,4.1c-2.4,0-4-1.8-4-4.1C170.9,237.5,172.5,235.8,174.9,235.8z
		 M174.9,236.6c-1.8,0-2.9,1.4-2.9,3.2c0,1.9,1.1,3.2,2.9,3.2c1.8,0,2.9-1.4,2.9-3.2C177.8,238,176.6,236.6,174.9,236.6z"/>
	<path class="st1" d="M180.4,235.9h0.9v8h-0.9V235.9z"/>
	<path class="st1" d="M187.2,243c-0.4,0.6-1.1,1-2,1c-1.5,0-2.6-1.1-2.6-3c0-1.9,1.1-3.1,2.6-3.1c0.8,0,1.5,0.4,2,1v-3.1h0.9v8h-0.9
		V243z M187.2,239.7c-0.3-0.5-1-0.9-1.7-0.9c-1.2,0-1.9,1-1.9,2.2s0.7,2.2,1.9,2.2c0.7,0,1.4-0.4,1.7-0.9V239.7z"/>
	<path class="st1" d="M192.5,237.9c1.8,0,2.8,1.4,2.8,3.1v0.2h-4.7c0.1,1.1,0.8,2,2.1,2c0.7,0,1.3-0.3,1.8-0.7l0.4,0.6
		c-0.6,0.6-1.4,0.9-2.3,0.9c-1.7,0-2.9-1.2-2.9-3.1C189.6,239.3,190.8,237.9,192.5,237.9z M190.6,240.6h3.8c0-0.9-0.6-1.9-1.9-1.9
		C191.2,238.7,190.6,239.7,190.6,240.6z"/>
	<path class="st1" d="M196.7,238.1h0.9v0.9c0.5-0.6,1.1-1.1,1.9-1.1v0.9c-0.1,0-0.2,0-0.4,0c-0.6,0-1.3,0.5-1.6,0.9v4.1h-0.9
		L196.7,238.1L196.7,238.1z"/>
	<path class="st1" d="M203.8,235.9h3.2c1.6,0,2.5,1.1,2.5,2.4s-0.9,2.4-2.5,2.4h-2.2v3.2h-1L203.8,235.9L203.8,235.9z M206.9,236.8
		h-2.1v3.1h2.1c0.9,0,1.6-0.6,1.6-1.5S207.8,236.8,206.9,236.8z"/>
	<path class="st1" d="M210.3,241c0-1.7,1.1-3,2.9-3c1.8,0,2.9,1.4,2.9,3s-1.1,3.1-2.9,3.1S210.3,242.7,210.3,241z M215.1,241
		c0-1.2-0.7-2.2-1.9-2.2s-1.9,1.1-1.9,2.2c0,1.2,0.7,2.2,1.9,2.2S215.1,242.2,215.1,241z"/>
	<path class="st1" d="M217.5,242.5c0.4,0.4,1.1,0.8,1.9,0.8c0.9,0,1.4-0.4,1.4-1c0-0.6-0.7-0.8-1.5-1c-1-0.2-2.1-0.5-2.1-1.7
		c0-0.9,0.8-1.7,2.2-1.7c1,0,1.7,0.4,2.1,0.8l-0.4,0.6c-0.4-0.4-1-0.7-1.7-0.7c-0.8,0-1.3,0.4-1.3,0.9c0,0.6,0.7,0.7,1.4,0.9
		c1,0.2,2.2,0.5,2.2,1.8c0,1-0.8,1.8-2.3,1.8c-0.9,0-1.8-0.3-2.3-0.9L217.5,242.5z"/>
	<path class="st1" d="M223.3,242.7v-3.8h-1v-0.8h1v-1.6h0.9v1.6h1.2v0.8h-1.2v3.6c0,0.4,0.2,0.7,0.6,0.7c0.2,0,0.5-0.1,0.6-0.2
		l0.3,0.7c-0.2,0.2-0.6,0.4-1.1,0.4C223.7,244,223.3,243.5,223.3,242.7z"/>
	<path class="st1" d="M226.6,242.5c0.4,0.4,1.1,0.8,1.9,0.8c0.9,0,1.4-0.4,1.4-1c0-0.6-0.7-0.8-1.5-1c-1-0.2-2.1-0.5-2.1-1.7
		c0-0.9,0.8-1.7,2.2-1.7c1,0,1.7,0.4,2.1,0.8l-0.4,0.6c-0.4-0.4-1-0.7-1.7-0.7c-0.8,0-1.3,0.4-1.3,0.9c0,0.6,0.7,0.7,1.4,0.9
		c1,0.2,2.2,0.5,2.2,1.8c0,1-0.8,1.8-2.3,1.8c-0.9,0-1.8-0.3-2.3-0.9L226.6,242.5z"/>
</g>
<line class="st2" x1="-0.3" y1="0.2" x2="359.7" y2="0.9"/>
<g>
	<path class="st1" d="M51.4,210.2h2v9.3h-2V210.2z"/>
	<path class="st1" d="M55.5,214.4h-1.1v-1.6h1.1v-0.4c0-1.5,1-2.4,2.3-2.4c0.5,0,1,0.1,1.3,0.3l-0.4,1.3c-0.2-0.1-0.4-0.1-0.6-0.1
		c-0.5,0-0.8,0.3-0.8,1v0.3h1.4v1.6h-1.4v5.2h-1.8L55.5,214.4L55.5,214.4z"/>
	<path class="st1" d="M63.9,220.7c0.5,0,0.8-0.1,0.9-0.5l0.2-0.6l-2.8-6.9h1.9l1.8,4.7l1.8-4.7h1.9l-3.2,7.9
		c-0.5,1.3-1.4,1.6-2.6,1.6c-0.2,0-0.7,0-0.9-0.1l0.3-1.6C63.5,220.7,63.7,220.7,63.9,220.7z"/>
	<path class="st1" d="M70.1,216.2c0-1.9,1.3-3.5,3.6-3.5c2.2,0,3.6,1.6,3.6,3.5c0,1.9-1.3,3.6-3.6,3.6
		C71.4,219.7,70.1,218.1,70.1,216.2z M75.4,216.2c0-1.1-0.6-2-1.7-2s-1.7,0.9-1.7,2c0,1.1,0.6,2,1.7,2
		C74.7,218.2,75.4,217.2,75.4,216.2z"/>
	<path class="st1" d="M83.1,218.7c-0.5,0.5-1.3,1-2.4,1c-1.5,0-2.2-0.8-2.2-2.1v-4.8h1.8v4.1c0,0.9,0.5,1.2,1.2,1.2
		c0.7,0,1.2-0.4,1.5-0.8v-4.6h1.8v6.8h-1.8V218.7z"/>
	<path class="st1" d="M93.4,212.6c1.4,0,2.2,0.6,2.7,1.2l-1.2,1.1c-0.3-0.5-0.8-0.7-1.4-0.7c-1.1,0-1.8,0.8-1.8,2s0.8,2,1.8,2
		c0.6,0,1.1-0.3,1.4-0.7l1.2,1.1c-0.4,0.6-1.3,1.2-2.7,1.2c-2.1,0-3.6-1.5-3.6-3.6C89.8,214.1,91.3,212.6,93.4,212.6z"/>
	<path class="st1" d="M96.8,216.2c0-1.9,1.3-3.5,3.6-3.5c2.2,0,3.6,1.6,3.6,3.5c0,1.9-1.3,3.6-3.6,3.6
		C98.1,219.7,96.8,218.1,96.8,216.2z M102.1,216.2c0-1.1-0.6-2-1.7-2s-1.7,0.9-1.7,2c0,1.1,0.6,2,1.7,2
		C101.4,218.2,102.1,217.2,102.1,216.2z"/>
	<path class="st1" d="M109.8,215.5c0-0.9-0.5-1.3-1.2-1.3c-0.7,0-1.2,0.4-1.5,0.8v4.6h-1.8v-6.8h1.8v0.9c0.4-0.5,1.3-1.1,2.4-1.1
		c1.5,0,2.2,0.8,2.2,2.2v4.8h-1.8V215.5z"/>
	<path class="st1" d="M113.7,217.9v-3.5h-1.1v-1.6h1.1V211h1.8v1.9h1.4v1.6h-1.4v3.1c0,0.4,0.2,0.7,0.6,0.7c0.3,0,0.5-0.1,0.6-0.2
		l0.4,1.3c-0.3,0.2-0.7,0.4-1.5,0.4C114.4,219.7,113.7,219.1,113.7,217.9z"/>
	<path class="st1" d="M117.9,210.8c0-0.6,0.5-1.1,1.1-1.1c0.6,0,1.1,0.5,1.1,1.1c0,0.6-0.5,1.1-1.1,1.1
		C118.4,211.8,117.9,211.3,117.9,210.8z M118.1,212.8h1.8v6.8h-1.8V212.8z"/>
	<path class="st1" d="M126.2,215.5c0-0.9-0.5-1.3-1.2-1.3c-0.7,0-1.2,0.4-1.5,0.8v4.6h-1.8v-6.8h1.8v0.9c0.4-0.5,1.3-1.1,2.4-1.1
		c1.5,0,2.2,0.8,2.2,2.2v4.8h-1.8V215.5z"/>
	<path class="st1" d="M134.3,218.7c-0.5,0.5-1.3,1-2.4,1c-1.5,0-2.2-0.8-2.2-2.1v-4.8h1.8v4.1c0,0.9,0.5,1.2,1.2,1.2
		c0.7,0,1.2-0.4,1.5-0.8v-4.6h1.8v6.8h-1.8L134.3,218.7L134.3,218.7z"/>
	<path class="st1" d="M140.9,212.6c2,0,3.4,1.5,3.4,3.7v0.4h-5c0.1,0.9,0.8,1.6,1.9,1.6c0.6,0,1.4-0.2,1.8-0.7l0.8,1.1
		c-0.7,0.6-1.7,0.9-2.8,0.9c-2.1,0-3.6-1.4-3.6-3.6C137.4,214.2,138.9,212.6,140.9,212.6z M139.2,215.6h3.3c0-0.6-0.5-1.5-1.7-1.5
		C139.8,214.1,139.3,214.9,139.2,215.6z"/>
	<path class="st1" d="M153.2,218.9c-0.5,0.6-1.3,0.9-2.1,0.9c-1.1,0-2.4-0.7-2.4-2.2c0-1.6,1.3-2.2,2.4-2.2c0.9,0,1.7,0.3,2.1,0.8
		v-0.9c0-0.7-0.6-1.1-1.5-1.1c-0.7,0-1.4,0.3-2,0.8l-0.7-1.2c0.8-0.7,1.9-1.1,3-1.1c1.5,0,3,0.6,3,2.6v4.4h-1.8L153.2,218.9
		L153.2,218.9z M153.2,217.1c-0.3-0.4-0.9-0.6-1.4-0.6c-0.7,0-1.3,0.4-1.3,1c0,0.6,0.6,1,1.3,1c0.6,0,1.1-0.2,1.4-0.6V217.1z"/>
	<path class="st1" d="M156.8,210.2h1.8v9.3h-1.8V210.2z"/>
	<path class="st1" d="M160.3,210.2h1.8v9.3h-1.8V210.2z"/>
	<path class="st1" d="M170.6,212.6c1.4,0,2.2,0.6,2.7,1.2l-1.2,1.1c-0.3-0.5-0.8-0.7-1.4-0.7c-1.1,0-1.8,0.8-1.8,2s0.8,2,1.8,2
		c0.6,0,1.1-0.3,1.4-0.7l1.2,1.1c-0.4,0.6-1.3,1.2-2.7,1.2c-2.1,0-3.6-1.5-3.6-3.6C167,214.1,168.5,212.6,170.6,212.6z"/>
	<path class="st1" d="M174,216.2c0-1.9,1.3-3.5,3.6-3.5c2.2,0,3.6,1.6,3.6,3.5c0,1.9-1.3,3.6-3.6,3.6
		C175.3,219.7,174,218.1,174,216.2z M179.3,216.2c0-1.1-0.6-2-1.7-2s-1.7,0.9-1.7,2c0,1.1,0.6,2,1.7,2
		C178.7,218.2,179.3,217.2,179.3,216.2z"/>
	<path class="st1" d="M187,215.5c0-0.9-0.5-1.3-1.2-1.3c-0.7,0-1.2,0.4-1.5,0.8v4.6h-1.8v-6.8h1.8v0.9c0.4-0.5,1.3-1.1,2.4-1.1
		c1.5,0,2.2,0.8,2.2,2.2v4.8H187V215.5z"/>
	<path class="st1" d="M190.9,217.9v-3.5h-1.1v-1.6h1.1V211h1.8v1.9h1.4v1.6h-1.4v3.1c0,0.4,0.2,0.7,0.6,0.7c0.3,0,0.5-0.1,0.6-0.2
		l0.4,1.3c-0.3,0.2-0.7,0.4-1.5,0.4C191.6,219.7,190.9,219.1,190.9,217.9z"/>
	<path class="st1" d="M198.4,212.6c2,0,3.4,1.5,3.4,3.7v0.4h-5c0.1,0.9,0.8,1.6,1.9,1.6c0.6,0,1.4-0.2,1.8-0.7l0.8,1.1
		c-0.7,0.6-1.7,0.9-2.8,0.9c-2.1,0-3.6-1.4-3.6-3.6C194.9,214.2,196.3,212.6,198.4,212.6z M196.7,215.6h3.3c0-0.6-0.5-1.5-1.7-1.5
		C197.2,214.1,196.8,214.9,196.7,215.6z"/>
	<path class="st1" d="M207.6,215.5c0-0.9-0.5-1.3-1.2-1.3c-0.7,0-1.2,0.4-1.5,0.8v4.6H203v-6.8h1.8v0.9c0.4-0.5,1.3-1.1,2.4-1.1
		c1.5,0,2.2,0.8,2.2,2.2v4.8h-1.8V215.5z"/>
	<path class="st1" d="M211.5,217.9v-3.5h-1.1v-1.6h1.1V211h1.8v1.9h1.4v1.6h-1.4v3.1c0,0.4,0.2,0.7,0.6,0.7c0.3,0,0.5-0.1,0.6-0.2
		l0.4,1.3c-0.3,0.2-0.7,0.4-1.5,0.4C212.2,219.7,211.5,219.1,211.5,217.9z"/>
	<path class="st1" d="M224,215l-1.4,4.6h-1.9l-2.1-6.8h1.9l1.3,4.6l1.5-4.6h1.6l1.5,4.6l1.3-4.6h1.9l-2.1,6.8h-1.9L224,215z"/>
	<path class="st1" d="M230,210.8c0-0.6,0.5-1.1,1.1-1.1c0.6,0,1.1,0.5,1.1,1.1c0,0.6-0.5,1.1-1.1,1.1
		C230.5,211.8,230,211.3,230,210.8z M230.2,212.8h1.8v6.8h-1.8V212.8z"/>
	<path class="st1" d="M233.8,210.2h1.8v9.3h-1.8V210.2z"/>
	<path class="st1" d="M237.3,210.2h1.8v9.3h-1.8V210.2z"/>
	<path class="st1" d="M244.4,210.2h1.8v3.4c0.5-0.7,1.3-1,2.1-1c1.7,0,3,1.3,3,3.6c0,2.3-1.3,3.5-3,3.5c-0.8,0-1.6-0.4-2.1-1v0.9
		h-1.8V210.2z M247.7,218.2c1,0,1.7-0.8,1.7-2c0-1.2-0.7-2-1.7-2c-0.6,0-1.2,0.3-1.5,0.8v2.4C246.5,217.8,247.2,218.2,247.7,218.2z"
		/>
	<path class="st1" d="M255.7,212.6c2,0,3.4,1.5,3.4,3.7v0.4h-5c0.1,0.9,0.8,1.6,2,1.6c0.6,0,1.4-0.2,1.8-0.7l0.8,1.1
		c-0.7,0.6-1.7,0.9-2.8,0.9c-2.1,0-3.6-1.4-3.6-3.6C252.2,214.2,253.6,212.6,255.7,212.6z M254,215.6h3.3c0-0.6-0.5-1.5-1.7-1.5
		C254.6,214.1,254.1,214.9,254,215.6z"/>
	<path class="st1" d="M264.1,217.4c0.5,0.5,1.5,0.9,2.3,0.9c0.8,0,1.1-0.3,1.1-0.7c0-0.5-0.6-0.6-1.4-0.8c-1.2-0.2-2.7-0.5-2.7-2.1
		c0-1.1,1-2.1,2.8-2.1c1.1,0,2.1,0.4,2.7,0.9l-0.7,1.2c-0.4-0.4-1.2-0.8-2-0.8c-0.6,0-1.1,0.2-1.1,0.6c0,0.4,0.5,0.6,1.3,0.7
		c1.2,0.2,2.7,0.5,2.7,2.2c0,1.2-1,2.2-2.9,2.2c-1.2,0-2.3-0.4-3-1.1L264.1,217.4z"/>
	<path class="st1" d="M275.2,218.7c-0.5,0.5-1.3,1-2.4,1c-1.5,0-2.2-0.8-2.2-2.1v-4.8h1.8v4.1c0,0.9,0.5,1.2,1.2,1.2
		c0.7,0,1.2-0.4,1.5-0.8v-4.6h1.8v6.8h-1.8V218.7z"/>
	<path class="st1" d="M279.4,220c0.5,0.6,1.3,0.8,2.1,0.8s1.9-0.4,1.9-1.7v-0.7c-0.5,0.7-1.3,1.1-2.1,1.1c-1.7,0-3-1.2-3-3.4
		c0-2.2,1.3-3.4,3-3.4c0.8,0,1.5,0.4,2.1,1v-0.9h1.8v6.3c0,2.6-2,3.2-3.7,3.2c-1.2,0-2.1-0.3-2.9-1L279.4,220z M283.4,215
		c-0.3-0.4-0.9-0.8-1.5-0.8c-1,0-1.7,0.7-1.7,1.9s0.7,1.9,1.7,1.9c0.6,0,1.2-0.3,1.5-0.8V215z"/>
	<path class="st1" d="M287.6,220c0.5,0.6,1.3,0.8,2.1,0.8c0.9,0,1.9-0.4,1.9-1.7v-0.7c-0.5,0.7-1.3,1.1-2.1,1.1c-1.7,0-3-1.2-3-3.4
		c0-2.2,1.3-3.4,3-3.4c0.8,0,1.5,0.4,2.1,1v-0.9h1.8v6.3c0,2.6-2,3.2-3.7,3.2c-1.2,0-2.1-0.3-2.9-1L287.6,220z M291.6,215
		c-0.3-0.4-0.9-0.8-1.5-0.8c-1,0-1.7,0.7-1.7,1.9s0.7,1.9,1.7,1.9c0.6,0,1.2-0.3,1.5-0.8V215z"/>
	<path class="st1" d="M298.2,212.6c2,0,3.4,1.5,3.4,3.7v0.4h-5c0.1,0.9,0.8,1.6,2,1.6c0.6,0,1.4-0.2,1.8-0.7l0.8,1.1
		c-0.7,0.6-1.7,0.9-2.8,0.9c-2.1,0-3.6-1.4-3.6-3.6C294.7,214.2,296.1,212.6,298.2,212.6z M296.5,215.6h3.3c0-0.6-0.5-1.5-1.7-1.5
		C297.1,214.1,296.6,214.9,296.5,215.6z"/>
	<path class="st1" d="M303,217.4c0.5,0.5,1.5,0.9,2.3,0.9c0.8,0,1.1-0.3,1.1-0.7c0-0.5-0.6-0.6-1.4-0.8c-1.2-0.2-2.7-0.5-2.7-2.1
		c0-1.1,1-2.1,2.8-2.1c1.1,0,2.1,0.4,2.7,0.9l-0.7,1.2c-0.4-0.4-1.2-0.8-2-0.8c-0.6,0-1.1,0.2-1.1,0.6c0,0.4,0.5,0.6,1.3,0.7
		c1.2,0.2,2.7,0.5,2.7,2.2c0,1.2-1,2.2-2.9,2.2c-1.2,0-2.3-0.4-3-1.1L303,217.4z"/>
	<path class="st1" d="M309.9,217.9v-3.5h-1.1v-1.6h1.1V211h1.8v1.9h1.4v1.6h-1.4v3.1c0,0.4,0.2,0.7,0.6,0.7c0.3,0,0.5-0.1,0.6-0.2
		l0.4,1.3c-0.3,0.2-0.7,0.4-1.5,0.4C310.6,219.7,309.9,219.1,309.9,217.9z"/>
	<path class="st1" d="M317.3,212.6c2,0,3.4,1.5,3.4,3.7v0.4h-5c0.1,0.9,0.8,1.6,2,1.6c0.6,0,1.4-0.2,1.8-0.7l0.8,1.1
		c-0.7,0.6-1.7,0.9-2.8,0.9c-2.1,0-3.6-1.4-3.6-3.6C313.8,214.2,315.3,212.6,317.3,212.6z M315.7,215.6h3.3c0-0.6-0.5-1.5-1.7-1.5
		C316.2,214.1,315.8,214.9,315.7,215.6z"/>
	<path class="st1" d="M326.7,218.7c-0.5,0.7-1.3,1-2.1,1c-1.7,0-3-1.3-3-3.5c0-2.2,1.3-3.6,3-3.6c0.8,0,1.5,0.4,2.1,1v-3.4h1.8v9.3
		h-1.8V218.7z M326.7,215c-0.3-0.4-0.9-0.8-1.5-0.8c-1,0-1.7,0.8-1.7,2c0,1.2,0.7,2,1.7,2c0.6,0,1.2-0.3,1.5-0.8V215z"/>
</g>
<line class="st3" x1="-0.3" y1="260.5" x2="359.7" y2="261.2"/>
<g>
	<path class="st1" d="M42.7,285.2c0-4.1,3.1-6.9,7-6.9c3,0,4.7,1.6,5.7,3.3l-2.4,1.2c-0.6-1.1-1.8-1.9-3.2-1.9
		c-2.3,0-4.1,1.9-4.1,4.4s1.8,4.4,4.1,4.4c1.5,0,2.7-0.8,3.2-1.9l2.4,1.2c-1,1.7-2.6,3.3-5.7,3.3C45.8,292.1,42.7,289.3,42.7,285.2z
		"/>
	<path class="st1" d="M56.4,287c0-2.7,1.9-5.1,5.1-5.1c3.2,0,5.1,2.3,5.1,5.1c0,2.8-1.9,5.1-5.1,5.1C58.3,292.1,56.4,289.8,56.4,287
		z M64,287c0-1.5-0.9-2.8-2.5-2.8c-1.6,0-2.5,1.3-2.5,2.8c0,1.5,0.9,2.8,2.5,2.8C63.1,289.9,64,288.6,64,287z"/>
	<path class="st1" d="M75,286c0-1.3-0.7-1.8-1.8-1.8c-1,0-1.8,0.6-2.2,1.1v6.5h-2.5v-9.7H71v1.3c0.6-0.7,1.8-1.5,3.4-1.5
		c2.1,0,3.1,1.2,3.1,3.1v6.8H75V286z"/>
	<path class="st1" d="M80.6,289.5v-5H79v-2.2h1.6v-2.6h2.6v2.6h2v2.2h-2v4.4c0,0.6,0.3,1.1,0.9,1.1c0.4,0,0.7-0.1,0.9-0.3l0.5,1.9
		c-0.4,0.3-1.1,0.6-2.1,0.6C81.5,292.1,80.6,291.2,80.6,289.5z"/>
	<path class="st1" d="M86.6,279.3c0-0.8,0.7-1.5,1.5-1.5c0.8,0,1.5,0.7,1.5,1.5s-0.7,1.5-1.5,1.5C87.3,280.8,86.6,280.1,86.6,279.3z
		 M86.8,282.2h2.5v9.7h-2.5V282.2z"/>
	<path class="st1" d="M98.4,286c0-1.3-0.7-1.8-1.8-1.8c-1,0-1.8,0.6-2.2,1.1v6.5h-2.5v-9.7h2.5v1.3c0.6-0.7,1.8-1.5,3.4-1.5
		c2.1,0,3.1,1.2,3.1,3.1v6.8h-2.5V286z"/>
	<path class="st1" d="M110,290.7c-0.7,0.7-1.8,1.5-3.4,1.5c-2.1,0-3.1-1.2-3.1-3v-6.9h2.5v5.9c0,1.3,0.7,1.8,1.8,1.8
		c1,0,1.8-0.5,2.2-1.1v-6.5h2.5v9.7H110C110,291.9,110,290.7,110,290.7z"/>
	<path class="st1" d="M119.4,282c2.9,0,4.8,2.2,4.8,5.3v0.6h-7.2c0.2,1.2,1.1,2.2,2.8,2.2c0.9,0,2-0.4,2.6-1l1.1,1.6
		c-1,0.9-2.5,1.3-4,1.3c-2.9,0-5.2-2-5.2-5.1C114.4,284.2,116.5,282,119.4,282z M117,286.1h4.8c-0.1-0.9-0.7-2.1-2.4-2.1
		C117.8,284,117.2,285.2,117,286.1z"/>
</g>
<g>
	<path class="st1" d="M224.8,278.5h2.8v10.8h5.6v2.5h-8.5V278.5z"/>
	<path class="st1" d="M239.4,282c2.9,0,4.8,2.2,4.8,5.3v0.6H237c0.2,1.2,1.1,2.2,2.8,2.2c0.9,0,2-0.4,2.6-1l1.1,1.6
		c-1,0.9-2.5,1.3-4,1.3c-2.9,0-5.2-2-5.2-5.1C234.4,284.2,236.4,282,239.4,282z M237,286.1h4.8c-0.1-0.9-0.7-2.1-2.4-2.1
		C237.8,284,237.1,285.2,237,286.1z"/>
	<path class="st1" d="M251.8,290.9c-0.7,0.8-1.8,1.2-3.1,1.2c-1.5,0-3.4-1-3.4-3.2c0-2.3,1.8-3.1,3.4-3.1c1.3,0,2.4,0.4,3.1,1.2
		v-1.3c0-1-0.8-1.6-2.1-1.6c-1,0-2,0.4-2.8,1.1l-1-1.7c1.2-1,2.7-1.5,4.2-1.5c2.2,0,4.2,0.9,4.2,3.7v6.2h-2.5V290.9z M251.8,288.4
		c-0.4-0.6-1.2-0.8-2-0.8c-1,0-1.8,0.5-1.8,1.5c0,0.9,0.8,1.4,1.8,1.4c0.8,0,1.6-0.3,2-0.8V288.4z"/>
	<path class="st1" d="M255.5,282.2h2.7l2.5,6.7l2.5-6.7h2.7l-3.9,9.7h-2.7L255.5,282.2z"/>
	<path class="st1" d="M271.5,282c2.9,0,4.8,2.2,4.8,5.3v0.6h-7.2c0.2,1.2,1.1,2.2,2.8,2.2c0.9,0,2-0.4,2.6-1l1.1,1.6
		c-1,0.9-2.5,1.3-4,1.3c-2.9,0-5.2-2-5.2-5.1C266.5,284.2,268.6,282,271.5,282z M269.2,286.1h4.8c-0.1-0.9-0.7-2.1-2.4-2.1
		C270,284,269.3,285.2,269.2,286.1z"/>
	<path class="st1" d="M291.9,289.6h-6l-0.8,2.3H282l5.2-13.3h3.6l5.1,13.3h-3.1L291.9,289.6z M286.7,287.1h4.4l-2.2-6.1L286.7,287.1
		z"/>
	<path class="st1" d="M297,295.6v-13.3h2.5v1.2c0.7-0.9,1.8-1.5,3-1.5c2.5,0,4.3,1.8,4.3,5.1s-1.8,5.1-4.3,5.1c-1.1,0-2.2-0.5-3-1.5
		v4.9H297z M301.7,284.2c-0.8,0-1.8,0.5-2.2,1.1v3.4c0.4,0.6,1.4,1.1,2.2,1.1c1.5,0,2.4-1.1,2.4-2.8
		C304.2,285.4,303.2,284.2,301.7,284.2z"/>
	<path class="st1" d="M308.7,295.6v-13.3h2.5v1.2c0.7-0.9,1.8-1.5,3-1.5c2.5,0,4.3,1.8,4.3,5.1s-1.8,5.1-4.3,5.1
		c-1.1,0-2.2-0.5-3-1.5v4.9H308.7z M313.4,284.2c-0.8,0-1.8,0.5-2.2,1.1v3.4c0.4,0.6,1.4,1.1,2.2,1.1c1.5,0,2.4-1.1,2.4-2.8
		C315.9,285.4,314.9,284.2,313.4,284.2z"/>
</g>
<line class="st4" x1="0" y1="310.3" x2="360" y2="311"/>
<line class="st3" x1="179.6" y1="260.8" x2="179.6" y2="310.8"/>
</svg>
