<?xml version="1.0" encoding="utf-8"?>
<!-- Generator: Adobe Illustrator 25.2.1, SVG Export Plug-In . SVG Version: 6.00 Build 0)  -->
<svg version="1.1" xmlns="http://www.w3.org/2000/svg" xmlns:xlink="http://www.w3.org/1999/xlink" x="0px" y="0px"
	 viewBox="0 0 360 65.12" style="enable-background:new 0 0 360 65.12;" xml:space="preserve">
<style type="text/css">
	.st0{fill:none;stroke:#000000;stroke-width:2;stroke-miterlimit:10;}
	.st1{display:none;fill:#FFED00;}
</style>
<g id="Layer_1">
</g>
<g id="Layer_2">
	<g>
		<path d="M196.29,16.12h6.75v2.61h-3.75v1.86h3.27v2.55h-3.27v4.47h-3V16.12z"/>
		<path d="M209.15,18.22c2.79,0,4.96,2.01,4.96,4.78c0,2.81-2.03,4.92-5.03,4.92c-2.82,0-4.98-2.31-4.98-4.87
			C204.11,20.29,206.31,18.22,209.15,18.22z M206.9,23.1c0,1.23,0.94,2.19,2.22,2.19c1.38,0,2.22-0.88,2.22-2.33
			c0-1.19-0.9-2.11-2.21-2.11C207.78,20.85,206.9,21.84,206.9,23.1z"/>
		<path d="M218.43,23.37c0,1.74,0,4.25,0,4.25h-2.82V18.4h2.71c0,0,0,0.87,0,1.45c0.23-0.69,1.08-1.63,2.19-1.63
			c0.18,0,0.38,0,0.63,0c0,0.96,0,2.04,0,2.88c0,0-0.35-0.18-0.98-0.18C219.09,20.92,218.43,21.58,218.43,23.37z"/>
		<path d="M229.58,16.12l2.16,3.54l2.13-3.54h3.6l-4.26,6.39v5.1h-2.94v-5.04l-4.41-6.45H229.58z"/>
		<path d="M243.23,18.22c2.79,0,4.96,2.01,4.96,4.78c0,2.81-2.02,4.92-5.02,4.92c-2.82,0-4.98-2.31-4.98-4.87
			C238.19,20.29,240.39,18.22,243.23,18.22z M240.98,23.1c0,1.23,0.95,2.19,2.22,2.19c1.38,0,2.22-0.88,2.22-2.33
			c0-1.19-0.9-2.11-2.21-2.11C241.86,20.85,240.98,21.84,240.98,23.1z"/>
		<path d="M252.48,18.4c0,0,0,4.86,0,5.28c0,1,0.63,1.59,1.58,1.59c1,0,1.56-0.58,1.56-1.52c0-0.54,0-4.75,0-5.35h2.73
			c0,0,0,3.48,0,5.46c0,2.56-1.67,3.97-4.32,3.97c-2.64,0-4.33-1.53-4.33-4.08c0-0.67,0-5.35,0-5.35H252.48z"/>
	</g>
	<g>
		<path d="M112.83,19.28v2.54h3.34v1.6h-3.34v4.21l-1.9-0.01v-9.96h5.3v1.62H112.83z"/>
		<path d="M121.71,27.81c-2.39,0-4.29-1.68-4.29-4.19c0-2.34,1.91-4.2,4.26-4.2c2.47,0,4.22,1.87,4.22,4.2
			C125.91,25.93,124.33,27.81,121.71,27.81z M121.66,21.11c-1.46,0-2.39,1.17-2.39,2.52c0,1.35,0.92,2.52,2.39,2.52
			c1.56,0,2.42-1.14,2.42-2.5C124.08,22.31,123.29,21.11,121.66,21.11z"/>
		<path d="M127.48,27.61V17.44h1.85v10.17H127.48z"/>
		<path d="M131.41,27.61V17.44h1.85v10.17H131.41z"/>
		<path d="M139.14,27.81c-2.39,0-4.29-1.68-4.29-4.19c0-2.34,1.91-4.2,4.26-4.2c2.47,0,4.22,1.87,4.22,4.2
			C143.34,25.93,141.77,27.81,139.14,27.81z M139.09,21.11c-1.46,0-2.39,1.17-2.39,2.52c0,1.35,0.92,2.52,2.39,2.52
			c1.56,0,2.42-1.14,2.42-2.5C141.51,22.31,140.73,21.11,139.09,21.11z"/>
		<path d="M153.51,27.81h-1.14l-1.96-5.24l-2.04,5.24h-1.07l-3.26-8.18h1.85l2.01,5.28l2.02-5.28h1l2.04,5.29l2.05-5.29h1.85
			L153.51,27.81z"/>
		<path d="M158.98,18.95c-0.64,0-1.16-0.52-1.16-1.16c0-0.64,0.52-1.16,1.16-1.16c0.64,0,1.16,0.52,1.16,1.16
			C160.14,18.43,159.62,18.95,158.98,18.95z M158.04,27.61v-7.98h1.85v7.98H158.04z"/>
		<path d="M167.13,27.61c0,0,0-2.74,0-4.54c0-1.47-0.49-1.96-1.53-1.96c-1.48,0-1.85,1.38-1.85,2.16c0,1.76,0,4.34,0,4.34h-1.77
			v-7.98h1.72v1.12c0,0,0.55-1.27,2.46-1.27c1.69,0,2.74,1.07,2.74,2.81c0,1.7,0,3.63,0,5.33H167.13z"/>
		<path d="M174.59,31.33c-2.31,0-3.67-1.44-3.76-3.07h1.81c0,0,0.03,1.46,2.12,1.46c1.39,0,2-0.91,2-2.12
			c0-0.38-0.01-0.66-0.01-1.04c-0.17,0.3-0.95,1.25-2.55,1.25c-2.25,0-3.78-1.79-3.78-4.03c0-2.46,1.56-4.3,3.81-4.3
			c1.12,0,1.95,0.44,2.59,1.25v-1.09h1.69c0,0,0,5.1,0,7.83C178.51,30.21,176.78,31.33,174.59,31.33z M174.54,21.11
			c-1.51,0-2.22,1.26-2.22,2.63c0,1.33,0.75,2.5,2.31,2.5c1.29,0,2.11-1.14,2.11-2.57C176.74,22.35,176.05,21.11,174.54,21.11z"/>
	</g>
	<line class="st0" x1="187.05" y1="19.63" x2="187.05" y2="24.84"/>
	<rect x="0" y="0.07" class="st1" width="360" height="41.86"/>
	<g>
	</g>
	<g>
	</g>
	<g>
	</g>
	<g>
	</g>
	<g>
	</g>
	<g>
	</g>
</g>
</svg>
