<?xml version="1.0" encoding="utf-8"?>
<!-- Generator: Adobe Illustrator 25.2.1, SVG Export Plug-In . SVG Version: 6.00 Build 0)  -->
<svg version="1.1" id="Layer_1" xmlns="http://www.w3.org/2000/svg" xmlns:xlink="http://www.w3.org/1999/xlink" x="0px" y="0px"
	 viewBox="0 0 360 680" style="enable-background:new 0 0 360 680;" xml:space="preserve">
<style type="text/css">
	.st0{fill:#FFFFFF;}
	.st1{fill:#FFFFFF;stroke:#020203;stroke-width:2;stroke-linecap:round;stroke-linejoin:round;}
	.st2{fill:none;stroke:#020203;stroke-width:2;stroke-linecap:round;stroke-linejoin:round;}
</style>
<rect x="-0.4" class="st0" width="360" height="680.5"/>
<circle class="st1" cx="329.5" cy="349.9" r="21.5"/>
<circle class="st1" cx="329.5" cy="372.2" r="8.5"/>
<line class="st2" x1="329.5" y1="368.8" x2="329.5" y2="375.6"/>
<line class="st2" x1="326.1" y1="372.2" x2="332.9" y2="372.2"/>
<path class="st2" d="M344.9,410.2c-3.3-3.3-8.7-3.3-12.1,0l0,0l-1.6,1.6l-1.6-1.6c-3.3-3.3-8.7-3.3-12.1,0c-3.3,3.3-3.3,8.7,0,12.1
	l1.6,1.6l12.1,12.1l12.1-12.1l1.6-1.6C348.2,418.9,348.2,413.5,344.9,410.2L344.9,410.2z"/>
<path class="st2" d="M344.6,487.9c0,2.1-0.5,4.1-1.4,6c-2.2,4.5-6.9,7.4-11.9,7.4c-2.1,0-4.1-0.5-6-1.4l-8.9,3l3-8.9
	c-0.9-1.9-1.4-3.9-1.4-6c0-5,2.9-9.6,7.4-11.9c1.9-0.9,3.9-1.4,6-1.4h0.8c6.8,0.4,12.2,5.8,12.5,12.5v0.7L344.6,487.9L344.6,487.9z"
	/>
<polyline class="st2" points="335,563.9 341.5,557.4 335,550.9 "/>
<path class="st2" d="M320.8,571.7v-9.1c0-2.9,2.3-5.2,5.2-5.2h15.6"/>
<path class="st2" d="M13.8,669.1v-10.2l9.4-1.6v10.2"/>
<circle class="st2" cx="11.5" cy="669.1" r="2.3"/>
<circle class="st2" cx="20.9" cy="667.5" r="2.3"/>
<circle class="st1" cx="330.1" cy="650.2" r="21.5"/>
<g>
	<path d="M321.7,451.2c-1,0-1.7-0.2-2.6-0.7l0.3-1.6c0,0,1,0.8,2.2,0.8c1.3,0,2-0.7,2-1.8c0-1-0.9-1.7-2.2-1.7
		c-0.9,0-1.7,0.4-1.7,0.4l0.8-4.8h4.2v1.4h-3l-0.3,1.7c0,0,0.5-0.1,0.9-0.1c1.7,0,3.1,1.4,3.1,3.1
		C325.3,449.9,323.8,451.2,321.7,451.2z"/>
	<path d="M330.5,451.2c-2.3,0-3.6-2-3.6-4.7s1.2-4.9,3.5-4.9c2.4,0,3.6,2.1,3.6,4.8C334.1,449.4,332.9,451.2,330.5,451.2z
		 M330.4,443.2c-1.4,0-1.8,1.8-1.8,3.3s0.4,3.2,1.9,3.2c1.6,0,1.9-1.7,1.9-3.3C332.5,444.8,332,443.2,330.4,443.2z"/>
	<path d="M338.7,451.2c-2.3,0-3.6-2-3.6-4.7s1.2-4.9,3.5-4.9c2.4,0,3.6,2.1,3.6,4.8C342.3,449.4,341.1,451.2,338.7,451.2z
		 M338.6,443.2c-1.4,0-1.8,1.8-1.8,3.3s0.4,3.2,1.9,3.2c1.6,0,1.9-1.7,1.9-3.3C340.7,444.8,340.2,443.2,338.6,443.2z"/>
</g>
<g>
	<path d="M320.9,519.1c-1,0-1.7-0.2-2.6-0.7l0.3-1.6c0,0,1,0.8,2.2,0.8c1.3,0,2-0.7,2-1.8c0-1-0.9-1.7-2.2-1.7
		c-0.9,0-1.7,0.4-1.7,0.4l0.8-4.8h4.2v1.4h-3l-0.3,1.7c0,0,0.5-0.1,0.9-0.1c1.7,0,3.1,1.4,3.1,3.1
		C324.5,517.8,322.9,519.1,320.9,519.1z"/>
	<path d="M329.7,519.1c-2.3,0-3.6-2-3.6-4.7s1.2-4.9,3.5-4.9c2.4,0,3.6,2.1,3.6,4.8C333.2,517.3,332,519.1,329.7,519.1z
		 M329.6,511.1c-1.4,0-1.8,1.8-1.8,3.3s0.4,3.2,1.9,3.2c1.6,0,1.9-1.7,1.9-3.3C331.6,512.6,331.1,511.1,329.6,511.1z"/>
	<path d="M337.9,519.1c-2.3,0-3.6-2-3.6-4.7s1.2-4.9,3.5-4.9c2.4,0,3.6,2.1,3.6,4.8C341.5,517.3,340.2,519.1,337.9,519.1z
		 M337.8,511.1c-1.4,0-1.8,1.8-1.8,3.3s0.4,3.2,1.9,3.2c1.6,0,1.9-1.7,1.9-3.3C339.8,512.6,339.3,511.1,337.8,511.1z"/>
</g>
<g>
	<path d="M321.8,586.7c-1,0-1.7-0.2-2.6-0.7l0.3-1.6c0,0,1,0.8,2.2,0.8c1.3,0,2-0.7,2-1.8c0-1-0.9-1.7-2.2-1.7
		c-0.9,0-1.7,0.4-1.7,0.4l0.8-4.8h4.2v1.4h-3l-0.3,1.7c0,0,0.5-0.1,0.9-0.1c1.7,0,3.1,1.4,3.1,3.1
		C325.4,585.4,323.8,586.7,321.8,586.7z"/>
	<path d="M330.6,586.7c-2.3,0-3.6-2-3.6-4.7s1.2-4.9,3.5-4.9c2.4,0,3.6,2.1,3.6,4.8C334.2,584.9,332.9,586.7,330.6,586.7z
		 M330.5,578.7c-1.4,0-1.8,1.8-1.8,3.3s0.4,3.2,1.9,3.2c1.6,0,1.9-1.7,1.9-3.3C332.5,580.2,332,578.7,330.5,578.7z"/>
	<path d="M338.8,586.7c-2.3,0-3.6-2-3.6-4.7s1.2-4.9,3.5-4.9c2.4,0,3.6,2.1,3.6,4.8C342.4,584.9,341.1,586.7,338.8,586.7z
		 M338.7,578.7c-1.4,0-1.8,1.8-1.8,3.3s0.4,3.2,1.9,3.2c1.6,0,1.9-1.7,1.9-3.3C340.7,580.2,340.2,578.7,338.7,578.7z"/>
</g>
<g>
	<path d="M12.6,641.8c-2.1,0-3.5-1.1-3.5-3c0-1.7,0-3.5,0-5.2h1.8c0,0,0,2.8,0,4.6c0,1.6,0.6,1.9,1.6,1.9s1.6-0.3,1.6-1.8
		c0-1.8,0-4.6,0-4.6h1.8c0,0,0,3.1,0,5.2C15.9,640.6,14.5,641.8,12.6,641.8z"/>
	<path d="M20,641.8c-1.3,0-2.2-0.6-2.8-1.6l1.4-0.9c0,0,0.6,1.1,1.5,1.1c0.6,0,1.1-0.3,1.1-0.9c0-0.7-0.7-0.9-1.3-1.1
		c-0.2-0.1-0.4-0.2-0.6-0.3c-1-0.4-1.8-1.1-1.8-2.3c0-1.4,1.3-2.3,2.7-2.3c1.1,0,1.9,0.4,2.5,1.2c0,0-1,0.9-1.3,1
		c-0.1-0.2-0.5-0.8-1.3-0.8c-0.5,0-0.9,0.3-0.9,0.8s0.5,0.8,0.9,1s0.6,0.2,1,0.4c1.2,0.5,1.8,1.2,1.8,2.3
		C22.9,640.9,21.6,641.8,20,641.8z"/>
	<path d="M25.8,638.1c0,1.2,0.9,2.2,2.2,2.2c1,0,1.9-0.6,2.3-1.4l1.6,0.7c-0.5,1.1-1.8,2.2-3.8,2.2c-2.4,0-4.1-1.6-4.1-4.1
		c0-2.3,1.8-4.2,4.2-4.2c2.7,0,4,1.9,3.9,4.6C32,638.1,26.1,638.1,25.8,638.1z M28.1,635c-1.5,0-2.2,1.2-2.2,1.8c0,0,4,0,4.3,0
		C30.2,636.3,29.9,635,28.1,635z"/>
	<path d="M37.8,635.4c0,0-0.4-0.2-0.8-0.2c-1.2,0-1.6,1.2-1.6,2.1c0,1.8,0,4.3,0,4.3h-1.8v-8h1.7v1.2c0,0,0.5-1.3,2.1-1.3
		c0.3,0,0.6,0,1,0.2L37.8,635.4z"/>
</g>
<g>
	<path d="M37.1,669.3c-1.2,0-2-0.3-2.9-1.3l1.1-1.2c0.4,0.5,1,0.8,1.8,0.8c0.7,0,1.3-0.5,1.3-1.2c0-0.6-0.4-1-1-1.2
		c-0.2-0.1-0.5-0.2-0.9-0.3c-1.6-0.6-2-1.3-2-2.6c0-1.6,1.3-2.7,2.8-2.7c1.1,0,1.9,0.4,2.5,1.1l-1,1.1c-0.3-0.3-0.8-0.7-1.5-0.7
		c-0.6,0-1.2,0.5-1.2,1.1c0,0.5,0.4,0.8,0.9,1.1c0.4,0.2,0.6,0.2,1,0.4c1.3,0.5,2.1,1.4,2.1,2.7C40.2,668.2,38.7,669.3,37.1,669.3z"
		/>
	<path d="M45,669.3c-2.2,0-4-1.5-4-3.9c0-2.2,1.8-3.9,3.9-3.9c2.3,0,3.9,1.7,3.9,3.9C48.9,667.5,47.5,669.3,45,669.3z M45,663.1
		c-1.3,0-2.2,1.1-2.2,2.3s0.8,2.3,2.2,2.3s2.2-1.1,2.2-2.3C47.2,664.2,46.5,663.1,45,663.1z"/>
	<path d="M53.6,669.3c-1.9,0-3.2-1-3.2-2.8c0-1.6,0-3.2,0-4.8H52c0,0,0,2.6,0,4.2c0,1.5,0.6,1.7,1.5,1.7s1.4-0.3,1.4-1.7
		c0-1.6,0-4.3,0-4.3h1.6c0,0,0,2.9,0,4.8C56.6,668.1,55.3,669.3,53.6,669.3z"/>
	<path d="M63.3,669.1c0,0,0-2.5,0-4.2c0-1.4-0.5-1.8-1.4-1.8c-1.4,0-1.7,1.3-1.7,2c0,1.6,0,4,0,4h-1.6v-7.4h1.6v1
		c0,0,0.5-1.2,2.3-1.2c1.6,0,2.5,1,2.5,2.6s0,3.3,0,4.9L63.3,669.1L63.3,669.1z"/>
	<path d="M72.2,669.1v-1c0,0-0.8,1.2-2.4,1.2c-2.3,0-3.5-1.9-3.5-3.9s1.2-3.8,3.6-3.8c1,0,1.6,0.3,2.3,1v-2.9h1.6v9.4H72.2
		L72.2,669.1z M70.1,663c-1.4,0-2.1,1.1-2.1,2.4c0,1.4,0.8,2.4,2,2.4c1.4,0,2.1-1.2,2.1-2.5C72.1,664,71.3,663,70.1,663z"/>
</g>
</svg>
