<?xml version="1.0" encoding="utf-8"?>
<!-- Generator: Adobe Illustrator 25.2.1, SVG Export Plug-In . SVG Version: 6.00 Build 0)  -->
<svg version="1.1" id="Layer_1" xmlns="http://www.w3.org/2000/svg" xmlns:xlink="http://www.w3.org/1999/xlink" x="0px" y="0px"
	 viewBox="0 0 360 65.1" style="enable-background:new 0 0 360 65.1;" xml:space="preserve">
<style type="text/css">
	.st0{fill:none;stroke:#000000;stroke-width:2;stroke-miterlimit:10;}
	.st1{display:none;fill:#FFED00;}
</style>
<g id="Layer_1_1_">
</g>
<g id="Layer_2_1_">
	<g>
		<path d="M196.3,16.1h6.8v2.6h-3.8v1.9h3.3v2.5h-3.3v4.5h-3V16.1z"/>
		<path d="M209.1,18.2c2.8,0,5,2,5,4.8s-2,4.9-5,4.9c-2.8,0-5-2.3-5-4.9C204.1,20.3,206.3,18.2,209.1,18.2z M206.9,23.1
			c0,1.2,0.9,2.2,2.2,2.2c1.4,0,2.2-0.9,2.2-2.3c0-1.2-0.9-2.1-2.2-2.1C207.8,20.9,206.9,21.8,206.9,23.1z"/>
		<path d="M218.4,23.4c0,1.7,0,4.2,0,4.2h-2.8v-9.2h2.7c0,0,0,0.9,0,1.5c0.2-0.7,1.1-1.6,2.2-1.6c0.2,0,0.4,0,0.6,0c0,1,0,2,0,2.9
			c0,0-0.4-0.2-1-0.2C219.1,20.9,218.4,21.6,218.4,23.4z"/>
		<path d="M229.6,16.1l2.2,3.5l2.1-3.5h3.6l-4.3,6.4v5.1h-2.9v-5l-4.4-6.5C225.9,16.1,229.6,16.1,229.6,16.1z"/>
		<path d="M243.2,18.2c2.8,0,5,2,5,4.8s-2,4.9-5,4.9c-2.8,0-5-2.3-5-4.9C238.2,20.3,240.4,18.2,243.2,18.2z M241,23.1
			c0,1.2,0.9,2.2,2.2,2.2c1.4,0,2.2-0.9,2.2-2.3c0-1.2-0.9-2.1-2.2-2.1C241.9,20.9,241,21.8,241,23.1z"/>
		<path d="M252.5,18.4c0,0,0,4.9,0,5.3c0,1,0.6,1.6,1.6,1.6s1.6-0.6,1.6-1.5c0-0.5,0-4.8,0-5.4h2.7c0,0,0,3.5,0,5.5
			c0,2.6-1.7,4-4.3,4c-2.6,0-4.3-1.5-4.3-4.1c0-0.7,0-5.4,0-5.4S252.5,18.4,252.5,18.4z"/>
	</g>
	<g>
		<path d="M112.8,19.3v2.5h3.3v1.6h-3.3v4.2h-1.9v-10h5.3v1.6h-3.4V19.3z"/>
		<path d="M121.7,27.8c-2.4,0-4.3-1.7-4.3-4.2c0-2.3,1.9-4.2,4.3-4.2c2.5,0,4.2,1.9,4.2,4.2C125.9,25.9,124.3,27.8,121.7,27.8z
			 M121.7,21.1c-1.5,0-2.4,1.2-2.4,2.5s0.9,2.5,2.4,2.5c1.6,0,2.4-1.1,2.4-2.5C124.1,22.3,123.3,21.1,121.7,21.1z"/>
		<path d="M127.5,27.6V17.4h1.8v10.2C129.3,27.6,127.5,27.6,127.5,27.6z"/>
		<path d="M131.4,27.6V17.4h1.9v10.2C133.3,27.6,131.4,27.6,131.4,27.6z"/>
		<path d="M139.1,27.8c-2.4,0-4.3-1.7-4.3-4.2c0-2.3,1.9-4.2,4.3-4.2c2.5,0,4.2,1.9,4.2,4.2S141.8,27.8,139.1,27.8z M139.1,21.1
			c-1.5,0-2.4,1.2-2.4,2.5s0.9,2.5,2.4,2.5c1.6,0,2.4-1.1,2.4-2.5C141.5,22.3,140.7,21.1,139.1,21.1z"/>
		<path d="M153.5,27.8h-1.1l-2-5.2l-2,5.2h-1.1l-3.3-8.2h1.9l2,5.3l2-5.3h1l2,5.3l2.1-5.3h1.9L153.5,27.8z"/>
		<path d="M159,19c-0.6,0-1.2-0.5-1.2-1.2s0.5-1.2,1.2-1.2s1.2,0.5,1.2,1.2S159.6,19,159,19z M158,27.6v-8h1.9v8H158z"/>
		<path d="M167.1,27.6c0,0,0-2.7,0-4.5c0-1.5-0.5-2-1.5-2c-1.5,0-1.9,1.4-1.9,2.2c0,1.8,0,4.3,0,4.3H162v-8h1.7v1.1
			c0,0,0.6-1.3,2.5-1.3c1.7,0,2.7,1.1,2.7,2.8c0,1.7,0,3.6,0,5.3L167.1,27.6L167.1,27.6z"/>
		<path d="M174.6,31.3c-2.3,0-3.7-1.4-3.8-3.1h1.8c0,0,0,1.5,2.1,1.5c1.4,0,2-0.9,2-2.1c0-0.4,0-0.7,0-1c-0.2,0.3-0.9,1.2-2.6,1.2
			c-2.2,0-3.8-1.8-3.8-4c0-2.5,1.6-4.3,3.8-4.3c1.1,0,1.9,0.4,2.6,1.2v-1.1h1.7c0,0,0,5.1,0,7.8C178.5,30.2,176.8,31.3,174.6,31.3z
			 M174.5,21.1c-1.5,0-2.2,1.3-2.2,2.6c0,1.3,0.8,2.5,2.3,2.5c1.3,0,2.1-1.1,2.1-2.6C176.7,22.4,176.1,21.1,174.5,21.1z"/>
	</g>
	<line class="st0" x1="187.1" y1="19.6" x2="187.1" y2="24.8"/>
	<rect y="0.1" class="st1" width="360" height="41.9"/>
</g>
</svg>
