<?xml version="1.0" encoding="utf-8"?>
<!-- Generator: Adobe Illustrator 25.2.1, SVG Export Plug-In . SVG Version: 6.00 Build 0)  -->
<svg version="1.1" id="Layer_1" xmlns="http://www.w3.org/2000/svg" xmlns:xlink="http://www.w3.org/1999/xlink" x="0px" y="0px"
	 viewBox="0 0 360 710" style="enable-background:new 0 0 360 710;" xml:space="preserve">
<style type="text/css">
	.st0{opacity:0.85;enable-background:new    ;}
	.st1{fill:none;stroke:#FFFFFF;stroke-width:5;stroke-linecap:round;stroke-linejoin:round;}
	.st2{fill:#FFFFFF;}
	.st3{opacity:0.65;enable-background:new    ;}
</style>
<rect class="st0" width="360" height="710"/>
<circle class="st1" cx="180" cy="220.4" r="32.8"/>
<polyline class="st1" points="180,200.7 180,220.4 193.1,227 "/>
<g>
	<path class="st2" d="M106,286.3v13.9h-3.2v-13.9h-3.4v-2.9h10.1v2.9H106z"/>
	<path class="st2" d="M113.1,285.6c-1.1,0-2-0.9-2-2s0.9-2,2-2s2,0.9,2,2S114.1,285.6,113.1,285.6z M111.5,300.2v-13.5h3.1v13.5
		H111.5z"/>
	<path class="st2" d="M133.3,300.2c0,0,0-5.9,0-9c0-2-0.9-2.5-2-2.5c-1.8,0-2.6,1.5-2.6,2.7c0,2.9,0,5.9,0,8.8h-3c0,0,0-6.2,0-9.3
		c0-1.7-0.7-2.2-1.9-2.2c-1.4,0-2.6,1.4-2.6,2.7c0,3,0,8.8,0,8.8h-3v-13.5h2.8v1.5c0,0,1.1-2,3.7-2c2.3,0,3.3,1.5,3.5,2
		c0,0,0.9-2.1,3.9-2.1c2.5,0,4.4,1.5,4.4,3.9c0,3.3,0,6.8,0,10.1L133.3,300.2L133.3,300.2z"/>
	<path class="st2" d="M142.1,294.3c0,2,1.6,3.7,3.7,3.7c1.7,0,3.2-1,3.9-2.4l2.6,1.2c-0.8,1.8-3.1,3.7-6.4,3.7c-4,0-7-2.7-7-6.9
		c0-3.9,3-7.2,7.1-7.2c4.5,0,6.7,3.2,6.6,7.8C152.6,294.3,142.5,294.3,142.1,294.3z M145.9,289c-2.5,0-3.6,2.1-3.6,3
		c0,0,6.8,0,7.3,0C149.5,291.3,148.9,289,145.9,289z"/>
	<path class="st2" d="M170.3,300.6c-4.7,0-8.3-4-8.3-8.7c0-4.8,3.7-8.9,8.5-8.9c2.1,0,4.2,1.1,4.2,1.1v3.6c0,0-1.6-1.6-4.2-1.6
		c-3,0-5.2,2.6-5.2,5.6c0,3.1,2.1,5.9,5.2,5.9c1.8,0,3.1-0.7,4.3-1.6c0,0,0,2.4,0,3.5C174.3,299.8,172.5,300.6,170.3,300.6z"/>
	<path class="st2" d="M186.3,300.3c0,0,0-5.9,0-8.7c0-1.4-0.6-2.4-2.4-2.4c-2.6,0-3.3,2-3.3,3.7c0,2.7,0,7.4,0,7.4h-3V283h3.1v5.1
		c0,0,1.2-1.8,3.9-1.8c2.6,0,4.7,1.3,4.7,4.3c0,3.3,0,6.3,0,9.5L186.3,300.3z"/>
	<path class="st2" d="M195.1,294.3c0,2,1.6,3.7,3.7,3.7c1.7,0,3.2-1,3.9-2.4l2.6,1.2c-0.8,1.8-3.1,3.7-6.4,3.7c-4,0-7-2.7-7-6.9
		c0-3.9,3-7.2,7.1-7.2c4.5,0,6.7,3.2,6.6,7.8C205.6,294.3,195.5,294.3,195.1,294.3z M198.9,289c-2.5,0-3.6,2.1-3.6,3
		c0,0,6.8,0,7.3,0C202.5,291.3,201.9,289,198.9,289z"/>
	<path class="st2" d="M214.7,300.6c-3.9,0-7.2-2.6-7.2-6.7c0-3.9,2.7-7.4,7.3-7.4c1.4,0,2.6,0.3,3.8,1v3c0,0-1.6-1.2-3.6-1.2
		c-2.7,0-4.3,1.8-4.3,4.5c0,2.2,1.5,4,4.3,4c1.5,0,2.8-0.7,3.7-1.3v3C218.5,299.5,217,300.6,214.7,300.6z"/>
	<path class="st2" d="M229.2,300.2l-4.8-6.9v6.9h-3.1V283h3.1v9.1l4.5-5.4h3.6l-5.3,6l5.7,7.5L229.2,300.2L229.2,300.2z"/>
	<path class="st2" d="M242,300.2v-16.9h3.2v16.9H242z"/>
	<path class="st2" d="M257.6,300.2c0,0,0-4.6,0-7.7c0-2.5-0.8-3.3-2.6-3.3c-2.5,0-3.1,2.3-3.1,3.6c0,3,0,7.4,0,7.4h-3v-13.5h2.9v1.9
		c0,0,0.9-2.2,4.2-2.2c2.9,0,4.6,1.8,4.6,4.8c0,2.9,0,6.1,0,9L257.6,300.2L257.6,300.2z"/>
</g>
<g>
	<path class="st2" d="M53.2,344.1v6.2h-2.5v-6.2l-4.3-6.8h2.9l2.6,4.5l2.6-4.5h2.9L53.2,344.1z"/>
	<path class="st2" d="M63.9,350.5c-3.1,0-5.6-2.2-5.6-5.5c0-3.1,2.5-5.5,5.6-5.5c3.2,0,5.5,2.5,5.5,5.5
		C69.4,348.1,67.4,350.5,63.9,350.5z M63.9,341.8c-1.9,0-3.1,1.5-3.1,3.3s1.2,3.3,3.1,3.3c2,0,3.2-1.5,3.2-3.3S66,341.8,63.9,341.8z
		"/>
	<path class="st2" d="M76,350.5c-2.7,0-4.5-1.4-4.5-3.9c0-2.2,0-4.6,0-6.8h2.3c0,0,0,3.6,0,6c0,2.1,0.8,2.5,2.2,2.5
		c1.3,0,2-0.4,2-2.4c0-2.3,0-6,0-6h2.3c0,0,0,4.1,0,6.8C80.3,348.9,78.5,350.5,76,350.5z"/>
	<path class="st2" d="M83.3,341.9H82l1.5-4.6h2.1L83.3,341.9z"/>
	<path class="st2" d="M92.5,350.3h-2.1l-4.2-10.4h2.5l2.9,7.3l2.7-7.3h2.5L92.5,350.3z"/>
	<path class="st2" d="M100.2,345.7c0,1.6,1.2,2.8,2.9,2.8c1.3,0,2.5-0.8,3-1.8l2,1c-0.6,1.4-2.4,2.9-4.9,2.9c-3.1,0-5.4-2.1-5.4-5.3
		c0-3,2.3-5.6,5.5-5.6c3.5,0,5.2,2.5,5.1,6C108.3,345.7,100.5,345.7,100.2,345.7z M103.1,341.6c-1.9,0-2.8,1.6-2.8,2.3
		c0,0,5.2,0,5.6,0C105.9,343.4,105.4,341.6,103.1,341.6z"/>
	<path class="st2" d="M121.6,350.5c-1.4,0-2.4-0.6-3.2-1.7v1.5h-2.2v-13h2.3v4c0,0,0.9-1.6,3.3-1.6c3.1,0,4.9,2.6,4.9,5.3
		C126.6,347.8,124.8,350.5,121.6,350.5z M121.3,341.9c-1.9,0-2.9,1.6-2.9,3.1c0,1.7,1.2,3.3,2.9,3.3c2,0,2.8-1.4,2.8-3.2
		C124.2,343,123.1,341.9,121.3,341.9z"/>
	<path class="st2" d="M130.5,345.7c0,1.6,1.2,2.8,2.9,2.8c1.3,0,2.5-0.8,3-1.8l2,1c-0.6,1.4-2.4,2.9-4.9,2.9c-3.1,0-5.4-2.1-5.4-5.3
		c0-3,2.3-5.6,5.5-5.6c3.5,0,5.2,2.5,5.1,6C138.6,345.7,130.8,345.7,130.5,345.7z M133.4,341.6c-1.9,0-2.8,1.6-2.8,2.3
		c0,0,5.2,0,5.6,0C136.2,343.4,135.7,341.6,133.4,341.6z"/>
	<path class="st2" d="M142.5,345.7c0,1.6,1.2,2.8,2.9,2.8c1.3,0,2.5-0.8,3-1.8l2,1c-0.6,1.4-2.4,2.9-4.9,2.9c-3.1,0-5.4-2.1-5.4-5.3
		c0-3,2.3-5.6,5.5-5.6c3.5,0,5.2,2.5,5.1,6C150.6,345.7,142.8,345.7,142.5,345.7z M145.4,341.6c-1.9,0-2.8,1.6-2.8,2.3
		c0,0,5.2,0,5.6,0C148.2,343.4,147.7,341.6,145.4,341.6z"/>
	<path class="st2" d="M159.4,350.3c0,0,0-3.6,0-5.9c0-1.9-0.6-2.6-2-2.6c-1.9,0-2.4,1.8-2.4,2.8c0,2.3,0,5.7,0,5.7h-2.3v-10.4h2.2
		v1.5c0,0,0.7-1.7,3.2-1.7c2.2,0,3.6,1.4,3.6,3.7c0,2.2,0,4.7,0,7L159.4,350.3L159.4,350.3z"/>
	<path class="st2" d="M176.9,350.3c0,0,0-4.5,0-6.8c0-1.1-0.4-1.9-1.8-1.9c-2,0-2.6,1.5-2.6,2.9c0,2.1,0,5.8,0,5.8h-2.3V337h2.4v4
		c0,0,0.9-1.4,3-1.4c2,0,3.6,1,3.6,3.3c0,2.5,0,4.8,0,7.4L176.9,350.3z"/>
	<path class="st2" d="M183.6,345.7c0,1.6,1.2,2.8,2.9,2.8c1.3,0,2.5-0.8,3-1.8l2,1c-0.6,1.4-2.4,2.9-4.9,2.9c-3.1,0-5.4-2.1-5.4-5.3
		c0-3,2.3-5.6,5.5-5.6c3.5,0,5.2,2.5,5.1,6C191.7,345.7,184,345.7,183.6,345.7z M186.5,341.6c-1.9,0-2.8,1.6-2.8,2.3
		c0,0,5.2,0,5.6,0C189.4,343.4,188.9,341.6,186.5,341.6z"/>
	<path class="st2" d="M199.3,342.1c0,0-0.6-0.2-1.1-0.2c-1.6,0-2.1,1.5-2.1,2.7c0,2.3,0,5.7,0,5.7h-2.3v-10.4h2.2v1.5
		c0,0,0.6-1.8,2.8-1.8c0.4,0,0.8,0,1.3,0.2L199.3,342.1z"/>
	<path class="st2" d="M203,345.7c0,1.6,1.2,2.8,2.9,2.8c1.3,0,2.5-0.8,3-1.8l2,1c-0.6,1.4-2.4,2.9-4.9,2.9c-3.1,0-5.4-2.1-5.4-5.3
		c0-3,2.3-5.6,5.5-5.6c3.5,0,5.2,2.5,5.1,6C211.1,345.7,203.3,345.7,203,345.7z M205.9,341.6c-1.9,0-2.8,1.6-2.8,2.3
		c0,0,5.2,0,5.6,0C208.7,343.4,208.2,341.6,205.9,341.6z"/>
	<path class="st2" d="M222.4,338.1c-0.8,0-1.2,0.4-1.2,1.8h1.7v2.1h-1.7v8.4h-2.3v-8.4h-1.2v-2.1h1.2c0,0,0-0.2,0-0.4
		c0-2.1,1.2-3.5,3.4-3.5c0.4,0,1,0.1,1,0.1v2.2C223.2,338.2,222.8,338.1,222.4,338.1z"/>
	<path class="st2" d="M229.2,350.5c-3.1,0-5.6-2.2-5.6-5.5c0-3.1,2.5-5.5,5.6-5.5c3.2,0,5.5,2.5,5.5,5.5
		C234.7,348.1,232.6,350.5,229.2,350.5z M229.1,341.8c-1.9,0-3.1,1.5-3.1,3.3s1.2,3.3,3.1,3.3c2,0,3.2-1.5,3.2-3.3
		S231.3,341.8,229.1,341.8z"/>
	<path class="st2" d="M242.2,342.1c0,0-0.6-0.2-1.1-0.2c-1.6,0-2.1,1.5-2.1,2.7c0,2.3,0,5.7,0,5.7h-2.3v-10.4h2.2v1.5
		c0,0,0.6-1.8,2.8-1.8c0.4,0,0.8,0,1.3,0.2L242.2,342.1z"/>
	<path class="st2" d="M257.4,347.1v3.2h-2.3v-3.2H249v-1l6.4-8.9h2v8h1.8v1.9L257.4,347.1L257.4,347.1z M255.1,340.4l-3.5,4.9h3.5
		V340.4z"/>
	<path class="st2" d="M265.1,350.5c-1.5,0-2.4-0.3-3.7-1l0.4-2.3c0,0,1.4,1.2,3.1,1.2c1.8,0,2.8-1,2.8-2.5c0-1.4-1.2-2.4-3.1-2.4
		c-1.3,0-2.4,0.5-2.4,0.5l1.1-6.8h5.9v2h-4.2l-0.4,2.4c0,0,0.8-0.2,1.2-0.2c2.4,0,4.4,2,4.4,4.4C270.2,348.6,268,350.5,265.1,350.5z
		"/>
	<path class="st2" d="M284.9,350.3c0,0,0-4.5,0-6.9c0-1.5-0.7-2-1.5-2c-1.4,0-2,1.2-2,2.1c0,2.2,0,4.5,0,6.8H279c0,0,0-4.8,0-7.2
		c0-1.3-0.5-1.7-1.5-1.7c-1.1,0-2,1.1-2,2.1c0,2.3,0,6.8,0,6.8h-2.3v-10.4h2.1v1.2c0,0,0.8-1.5,2.8-1.5c1.8,0,2.6,1.2,2.7,1.6
		c0,0,0.7-1.6,3-1.6c1.9,0,3.4,1.1,3.4,3c0,2.5,0,5.3,0,7.8L284.9,350.3L284.9,350.3z"/>
	<path class="st2" d="M291,339c-0.8,0-1.5-0.7-1.5-1.5c0-0.8,0.7-1.5,1.5-1.5s1.5,0.7,1.5,1.5C292.6,338.3,291.9,339,291,339z
		 M289.8,350.3v-10.4h2.4v10.4H289.8z"/>
	<path class="st2" d="M301.7,350.3c0,0,0-3.6,0-5.9c0-1.9-0.6-2.6-2-2.6c-1.9,0-2.4,1.8-2.4,2.8c0,2.3,0,5.7,0,5.7H295v-10.4h2.2
		v1.5c0,0,0.7-1.7,3.2-1.7c2.2,0,3.6,1.4,3.6,3.7c0,2.2,0,4.7,0,7L301.7,350.3L301.7,350.3z"/>
	<path class="st2" d="M309.3,350.5c-1.6,0-2.9-0.8-3.7-2.1l1.9-1.2c0,0,0.8,1.4,2,1.4c0.8,0,1.5-0.4,1.5-1.2c0-0.9-0.9-1.1-1.7-1.4
		c-0.3-0.1-0.5-0.2-0.9-0.4c-1.3-0.6-2.3-1.5-2.3-3.1c0-1.8,1.7-3,3.5-3c1.4,0,2.5,0.6,3.2,1.6c0,0-1.4,1.1-1.7,1.4
		c-0.2-0.3-0.6-1.1-1.6-1.1c-0.6,0-1.1,0.4-1.1,1c0,0.6,0.6,1,1.2,1.3c0.5,0.2,0.8,0.3,1.3,0.5c1.5,0.6,2.3,1.6,2.3,3.1
		C313.2,349.4,311.4,350.5,309.3,350.5z"/>
	<path class="st2" d="M70.2,380.3v-13h2.5v13H70.2z"/>
	<path class="st2" d="M77.9,372v8.2h-2.4V372h-1.2v-2.2h1.2V367h2.4v2.9h1.7v2.2H77.9z"/>
	<path class="st2" d="M98.4,380.3c0,0,0-4.5,0-6.9c0-1.5-0.7-2-1.5-2c-1.4,0-2,1.2-2,2.1c0,2.2,0,4.5,0,6.8h-2.3c0,0,0-4.8,0-7.2
		c0-1.3-0.5-1.7-1.5-1.7c-1.1,0-2,1.1-2,2.1c0,2.3,0,6.8,0,6.8h-2.3v-10.4h2.1v1.2c0,0,0.8-1.5,2.8-1.5c1.8,0,2.6,1.2,2.7,1.6
		c0,0,0.7-1.6,3-1.6c1.9,0,3.4,1.1,3.4,3c0,2.5,0,5.3,0,7.8L98.4,380.3L98.4,380.3z"/>
	<path class="st2" d="M104.6,369c-0.8,0-1.5-0.7-1.5-1.5s0.7-1.5,1.5-1.5s1.5,0.7,1.5,1.5S105.4,369,104.6,369z M103.4,380.3v-10.4
		h2.4v10.4H103.4z"/>
	<path class="st2" d="M113.3,385.1c-3,0-4.8-1.9-4.9-4h2.4c0,0,0,1.9,2.8,1.9c1.8,0,2.6-1.2,2.6-2.8c0-0.5,0-0.9,0-1.4
		c-0.2,0.4-1.2,1.6-3.3,1.6c-2.9,0-4.9-2.4-4.9-5.3c0-3.2,2-5.6,5-5.6c1.5,0,2.6,0.6,3.4,1.6v-1.4h2.2c0,0,0,6.7,0,10.2
		C118.5,383.7,116.2,385.1,113.3,385.1z M113.3,371.8c-2,0-2.9,1.6-2.9,3.4c0,1.7,1,3.3,3,3.3c1.7,0,2.8-1.5,2.8-3.4
		C116.2,373.4,115.3,371.8,113.3,371.8z"/>
	<path class="st2" d="M127.9,380.3c0,0,0-4.5,0-6.8c0-1.1-0.4-1.9-1.8-1.9c-2,0-2.6,1.5-2.6,2.9c0,2.1,0,5.8,0,5.8h-2.3V367h2.4v4
		c0,0,0.9-1.4,3-1.4c2,0,3.6,1,3.6,3.3c0,2.5,0,4.8,0,7.4L127.9,380.3z"/>
	<path class="st2" d="M135.2,372v8.2h-2.4V372h-1.2v-2.2h1.2V367h2.4v2.9h1.7v2.2H135.2z"/>
	<path class="st2" d="M149.5,380.5c-1.4,0-2.4-0.6-3.2-1.7v1.5h-2.2v-13h2.3v4c0,0,0.9-1.6,3.3-1.6c3.1,0,4.9,2.6,4.9,5.3
		C154.5,377.8,152.7,380.5,149.5,380.5z M149.3,371.9c-1.9,0-2.9,1.6-2.9,3.1c0,1.7,1.2,3.3,2.9,3.3c2,0,2.8-1.5,2.8-3.2
		C152.1,373,151,371.9,149.3,371.9z"/>
	<path class="st2" d="M158.4,375.7c0,1.6,1.2,2.8,2.9,2.8c1.3,0,2.5-0.8,3-1.8l2,1c-0.6,1.4-2.4,2.9-4.9,2.9c-3.1,0-5.4-2.1-5.4-5.3
		c0-3,2.3-5.6,5.5-5.6c3.5,0,5.2,2.5,5.1,6C166.5,375.7,158.8,375.7,158.4,375.7z M161.4,371.6c-1.9,0-2.8,1.6-2.8,2.3
		c0,0,5.2,0,5.6,0C164.2,373.4,163.7,371.6,161.4,371.6z"/>
	<path class="st2" d="M176.8,372v8.2h-2.4V372h-1.2v-2.2h1.2V367h2.4v2.9h1.7v2.2H176.8z"/>
	<path class="st2" d="M181.1,369c-0.8,0-1.5-0.7-1.5-1.5s0.7-1.5,1.5-1.5s1.5,0.7,1.5,1.5S181.9,369,181.1,369z M179.8,380.3v-10.4
		h2.4v10.4H179.8z"/>
	<path class="st2" d="M196.7,380.3c0,0,0-4.5,0-6.9c0-1.5-0.7-2-1.5-2c-1.4,0-2,1.2-2,2.1c0,2.2,0,4.5,0,6.8h-2.3c0,0,0-4.8,0-7.2
		c0-1.3-0.5-1.7-1.5-1.7c-1.1,0-2,1.1-2,2.1c0,2.3,0,6.8,0,6.8H185v-10.4h2.1v1.2c0,0,0.8-1.5,2.8-1.5c1.8,0,2.6,1.2,2.7,1.6
		c0,0,0.7-1.6,3-1.6c1.9,0,3.4,1.1,3.4,3c0,2.5,0,5.3,0,7.8L196.7,380.3L196.7,380.3z"/>
	<path class="st2" d="M203.5,375.7c0,1.6,1.2,2.8,2.9,2.8c1.3,0,2.5-0.8,3-1.8l2,1c-0.6,1.4-2.4,2.9-4.9,2.9c-3.1,0-5.4-2.1-5.4-5.3
		c0-3,2.3-5.6,5.5-5.6c3.5,0,5.2,2.5,5.1,6C211.6,375.7,203.8,375.7,203.5,375.7z M206.4,371.6c-1.9,0-2.8,1.6-2.8,2.3
		c0,0,5.2,0,5.6,0C209.2,373.4,208.7,371.6,206.4,371.6z"/>
	<path class="st2" d="M221.8,372v8.2h-2.4V372h-1.2v-2.2h1.2V367h2.4v2.9h1.7v2.2H221.8z"/>
	<path class="st2" d="M229.9,380.5c-3.1,0-5.6-2.2-5.6-5.5c0-3.1,2.5-5.5,5.6-5.5c3.2,0,5.5,2.5,5.5,5.5
		C235.3,378.1,233.3,380.5,229.9,380.5z M229.8,371.8c-1.9,0-3.1,1.5-3.1,3.3s1.2,3.3,3.1,3.3c2,0,3.2-1.5,3.2-3.3
		C232.9,373.3,231.9,371.8,229.8,371.8z"/>
	<path class="st2" d="M245.9,380.5c-1.6,0-2.9-0.8-3.7-2.1l1.9-1.2c0,0,0.8,1.4,2,1.4c0.8,0,1.5-0.4,1.5-1.2c0-0.9-0.9-1.1-1.7-1.5
		c-0.3-0.1-0.5-0.2-0.9-0.4c-1.3-0.6-2.3-1.5-2.3-3.1c0-1.8,1.7-3,3.5-3c1.4,0,2.5,0.6,3.2,1.6c0,0-1.4,1.1-1.7,1.4
		c-0.2-0.3-0.6-1.1-1.6-1.1c-0.6,0-1.1,0.4-1.1,1c0,0.6,0.6,1,1.2,1.3c0.5,0.2,0.8,0.3,1.3,0.5c1.5,0.6,2.3,1.6,2.3,3.1
		C249.7,379.4,248,380.5,245.9,380.5z"/>
	<path class="st2" d="M254.1,372v8.2h-2.4V372h-1.2v-2.2h1.2V367h2.4v2.9h1.7v2.2H254.1z"/>
	<path class="st2" d="M262.1,380.5c-3.1,0-5.6-2.2-5.6-5.5c0-3.1,2.5-5.5,5.6-5.5c3.2,0,5.5,2.5,5.5,5.5
		C267.6,378.1,265.6,380.5,262.1,380.5z M262.1,371.8c-1.9,0-3.1,1.5-3.1,3.3s1.2,3.3,3.1,3.3c2,0,3.2-1.5,3.2-3.3
		C265.2,373.3,264.2,371.8,262.1,371.8z"/>
	<path class="st2" d="M275.3,380.5c-2.4,0-3.2-1.6-3.2-1.6v5.8h-2.4v-14.9h2.3v1.6c0.7-1.1,1.8-1.8,3.2-1.8c3.2,0,5,2.7,5,5.6
		C280.1,378,278.4,380.5,275.3,380.5z M275,371.8c-1.7,0-2.9,1.4-2.9,3.4c0,1.8,1,3.1,3,3.1c1.6,0,2.8-1.2,2.8-2.9
		C277.8,373.6,277,371.8,275,371.8z"/>
	<path class="st2" d="M287,374.9v1.6h-2.4v-3.4c0,0,0.6,0,0.9,0c1.3,0,2.2-0.8,2.2-2c0-1.1-0.8-2.1-1.9-2.1c-1.2,0-2,0.8-2,1.9
		c0,0-1.7,0-2.4,0c0-1.8,1.6-4,4.2-4c2.4,0,4.5,1.6,4.5,4C290.2,373.2,288.9,374.7,287,374.9z M285.9,380.5c-0.8,0-1.5-0.6-1.5-1.4
		c0-0.8,0.6-1.5,1.5-1.5s1.5,0.6,1.5,1.5C287.3,379.9,286.6,380.5,285.9,380.5z"/>
</g>
<rect x="11.6" y="472.1" class="st3" width="336.6" height="44.9"/>
<rect x="11.8" y="415.6" class="st3" width="336.6" height="44.9"/>
<g>
	<path class="st2" d="M114.7,442.5v-13.8h2.6v11.4h4.3v2.4L114.7,442.5L114.7,442.5z"/>
	<path class="st2" d="M125.5,437.6c0,1.7,1.3,3,3,3c1.4,0,2.6-0.8,3.1-1.9l2.2,1c-0.6,1.5-2.5,3.1-5.2,3.1c-3.3,0-5.7-2.2-5.7-5.6
		c0-3.2,2.5-5.9,5.8-5.9c3.7,0,5.5,2.6,5.4,6.4C134.1,437.6,125.8,437.6,125.5,437.6z M128.6,433.3c-2,0-3,1.7-3,2.4c0,0,5.5,0,6,0
		C131.5,435.2,131,433.3,128.6,433.3z"/>
	<path class="st2" d="M144.4,442.5V441c0,0-1,1.8-3.6,1.8c-3.2,0-5.2-2.5-5.2-5.7c0-3.1,1.9-5.8,5.3-5.8c1.6,0,3,0.6,3.6,1.7v-1.4
		h2.3v11.1L144.4,442.5L144.4,442.5z M141.3,433.4c-2.1,0-3.1,1.8-3.1,3.6c0,2.1,1.1,3.6,2.9,3.6c2.2,0,3.1-1.9,3.1-3.8
		C144.3,434.9,143.1,433.4,141.3,433.4z"/>
	<path class="st2" d="M155.1,442.5h-2.2l-4.5-11.1h2.6l3,7.7l2.9-7.7h2.6L155.1,442.5z"/>
	<path class="st2" d="M163.2,437.6c0,1.7,1.3,3,3,3c1.4,0,2.6-0.8,3.1-1.9l2.2,1c-0.6,1.5-2.5,3.1-5.2,3.1c-3.3,0-5.7-2.2-5.7-5.6
		c0-3.2,2.5-5.9,5.8-5.9c3.7,0,5.5,2.6,5.4,6.4C171.8,437.6,163.6,437.6,163.2,437.6z M166.3,433.3c-2,0-3,1.7-3,2.4c0,0,5.5,0,6,0
		C169.3,435.2,168.8,433.3,166.3,433.3z"/>
	<path class="st2" d="M182.7,433.8v8.7h-2.5v-8.7h-1.2v-2.3h1.2v-3h2.5v3h1.8v2.3H182.7z"/>
	<path class="st2" d="M193,442.5c0,0,0-4.8,0-7.1c0-1.1-0.4-2-1.9-2c-2.2,0-2.7,1.6-2.7,3c0,2.2,0,6.1,0,6.1h-2.5v-14.1h2.5v4.2
		c0,0,1-1.5,3.2-1.5c2.1,0,3.8,1.1,3.8,3.5c0,2.7,0,5.1,0,7.8L193,442.5z"/>
	<path class="st2" d="M200.2,437.6c0,1.7,1.3,3,3,3c1.4,0,2.6-0.8,3.1-1.9l2.2,1c-0.6,1.5-2.5,3.1-5.2,3.1c-3.3,0-5.7-2.2-5.7-5.6
		c0-3.2,2.5-5.9,5.8-5.9c3.7,0,5.5,2.6,5.4,6.4C208.8,437.6,200.5,437.6,200.2,437.6z M203.3,433.3c-2,0-3,1.7-3,2.4c0,0,5.5,0,6,0
		C206.2,435.2,205.7,433.3,203.3,433.3z"/>
	<path class="st2" d="M225.2,442.5V441c0,0-1,1.8-3.6,1.8c-3.2,0-5.2-2.5-5.2-5.7c0-3.1,1.9-5.8,5.3-5.8c1.6,0,3,0.6,3.6,1.7v-1.4
		h2.3v11.1L225.2,442.5L225.2,442.5z M222.1,433.4c-2.1,0-3.1,1.8-3.1,3.6c0,2.1,1.1,3.6,2.9,3.6c2.2,0,3.1-1.9,3.1-3.8
		C225.1,434.9,223.9,433.4,222.1,433.4z"/>
	<path class="st2" d="M236.3,442.8c-2.5,0-3.4-1.7-3.4-1.7v6.2h-2.5v-15.8h2.4v1.7c0.7-1.2,1.9-1.9,3.4-1.9c3.4,0,5.3,2.8,5.3,5.9
		C241.5,440.1,239.6,442.8,236.3,442.8z M235.9,433.6c-1.8,0-3.1,1.5-3.1,3.5c0,1.9,1.1,3.3,3.1,3.3c1.7,0,3-1.2,3-3.1
		C238.9,435.5,238.1,433.6,235.9,433.6z"/>
	<path class="st2" d="M249.6,442.8c-2.5,0-3.4-1.7-3.4-1.7v6.2h-2.5v-15.8h2.4v1.7c0.7-1.2,1.9-1.9,3.4-1.9c3.4,0,5.3,2.8,5.3,5.9
		C254.8,440.1,252.8,442.8,249.6,442.8z M249.2,433.6c-1.8,0-3.1,1.5-3.1,3.5c0,1.9,1.1,3.3,3.1,3.3c1.7,0,3-1.2,3-3.1
		C252.2,435.5,251.4,433.6,249.2,433.6z"/>
</g>
<g>
	<path class="st2" d="M116.4,501.6c-1.6,0-2.5-0.3-3.9-1.1l0.4-2.4c0,0,1.5,1.2,3.3,1.2c1.9,0,2.9-1.1,2.9-2.6
		c0-1.5-1.3-2.5-3.3-2.5c-1.3,0-2.5,0.6-2.5,0.6l1.2-7.1h6.3v2.1h-4.5l-0.4,2.6c0,0,0.8-0.2,1.3-0.2c2.6,0,4.6,2.1,4.6,4.6
		C121.8,499.6,119.5,501.6,116.4,501.6z"/>
	<path class="st2" d="M143.4,501.3c0,0,0-4.8,0-7.3c0-1.6-0.7-2.1-1.6-2.1c-1.4,0-2.2,1.2-2.2,2.2c0,2.4,0,4.8,0,7.2h-2.4
		c0,0,0-5.1,0-7.6c0-1.4-0.6-1.8-1.6-1.8c-1.2,0-2.1,1.1-2.1,2.2c0,2.4,0,7.2,0,7.2H131v-11.1h2.3v1.2c0,0,0.9-1.6,3-1.6
		c1.9,0,2.7,1.3,2.9,1.7c0,0,0.7-1.7,3.1-1.7c2,0,3.6,1.2,3.6,3.2c0,2.7,0,5.6,0,8.3L143.4,501.3L143.4,501.3z"/>
	<path class="st2" d="M154,501.6c-3.3,0-5.9-2.3-5.9-5.8c0-3.2,2.6-5.8,5.9-5.8c3.4,0,5.9,2.6,5.9,5.8
		C159.8,499,157.6,501.6,154,501.6z M153.9,492.3c-2,0-3.3,1.6-3.3,3.5s1.3,3.5,3.3,3.5c2.2,0,3.4-1.6,3.4-3.5
		S156.2,492.3,153.9,492.3z"/>
	<path class="st2" d="M167.8,492.6c0,0-0.6-0.2-1.1-0.2c-1.7,0-2.2,1.6-2.2,2.9c0,2.4,0,6,0,6H162v-11.1h2.3v1.6
		c0,0,0.7-1.9,2.9-1.9c0.4,0,0.9,0,1.4,0.2L167.8,492.6z"/>
	<path class="st2" d="M171.7,496.4c0,1.7,1.3,3,3,3c1.4,0,2.6-0.8,3.1-1.9l2.2,1c-0.6,1.5-2.5,3.1-5.2,3.1c-3.3,0-5.7-2.2-5.7-5.6
		c0-3.2,2.5-5.9,5.8-5.9c3.7,0,5.5,2.6,5.4,6.4C180.3,496.4,172,496.4,171.7,496.4z M174.8,492.1c-2,0-3,1.7-3,2.4c0,0,5.5,0,6,0
		C177.7,494,177.2,492.1,174.8,492.1z"/>
	<path class="st2" d="M201,501.3c0,0,0-4.8,0-7.3c0-1.6-0.7-2.1-1.6-2.1c-1.4,0-2.2,1.2-2.2,2.2c0,2.4,0,4.8,0,7.2h-2.4
		c0,0,0-5.1,0-7.6c0-1.4-0.6-1.8-1.6-1.8c-1.2,0-2.1,1.1-2.1,2.2c0,2.4,0,7.2,0,7.2h-2.4v-11.1h2.3v1.2c0,0,0.9-1.6,3-1.6
		c1.9,0,2.7,1.3,2.9,1.7c0,0,0.7-1.7,3.1-1.7c2,0,3.6,1.2,3.6,3.2c0,2.7,0,5.6,0,8.3L201,501.3L201,501.3z"/>
	<path class="st2" d="M207.5,489.3c-0.9,0-1.6-0.7-1.6-1.6s0.7-1.6,1.6-1.6s1.6,0.7,1.6,1.6C209.1,488.6,208.4,489.3,207.5,489.3z
		 M206.2,501.3v-11.1h2.6v11.1H206.2z"/>
	<path class="st2" d="M218.8,501.3c0,0,0-3.8,0-6.3c0-2-0.7-2.7-2.1-2.7c-2.1,0-2.6,1.9-2.6,3c0,2.4,0,6,0,6h-2.4v-11.1h2.4v1.5
		c0,0,0.8-1.8,3.4-1.8c2.3,0,3.8,1.5,3.8,3.9c0,2.4,0,5,0,7.4H218.8z"/>
	<path class="st2" d="M228.8,501.6c-2.9,0-4.8-1.5-4.8-4.1c0-2.4,0-4.8,0-7.2h2.4c0,0,0,3.9,0,6.4c0,2.2,0.9,2.6,2.3,2.6
		c1.4,0,2.1-0.4,2.1-2.6c0-2.4,0-6.4,0-6.4h2.4c0,0,0,4.3,0,7.2C233.4,499.9,231.5,501.6,228.8,501.6z"/>
	<path class="st2" d="M238.8,492.6v8.7h-2.5v-8.7H235v-2.3h1.2v-3h2.5v3h1.8v2.3H238.8z"/>
	<path class="st2" d="M243.9,496.4c0,1.7,1.3,3,3,3c1.4,0,2.6-0.8,3.1-1.9l2.2,1c-0.6,1.5-2.5,3.1-5.2,3.1c-3.3,0-5.7-2.2-5.7-5.6
		c0-3.2,2.5-5.9,5.8-5.9c3.7,0,5.5,2.6,5.4,6.4C252.5,496.4,244.3,496.4,243.9,496.4z M247,492.1c-2,0-3,1.7-3,2.4c0,0,5.5,0,6,0
		C250,494,249.5,492.1,247,492.1z"/>
	<path class="st2" d="M257.5,501.6c-1.8,0-3-0.8-3.9-2.2l2-1.3c0,0,0.9,1.5,2.1,1.5c0.9,0,1.5-0.5,1.5-1.2c0-0.9-1-1.2-1.8-1.5
		c-0.3-0.1-0.6-0.2-0.9-0.4c-1.4-0.6-2.5-1.6-2.5-3.3c0-1.9,1.8-3.2,3.7-3.2c1.5,0,2.6,0.6,3.4,1.7c0,0-1.4,1.2-1.8,1.5
		c-0.2-0.3-0.7-1.1-1.8-1.1c-0.7,0-1.2,0.5-1.2,1.1c0,0.6,0.6,1.1,1.3,1.3c0.5,0.2,0.9,0.3,1.4,0.6c1.6,0.7,2.5,1.7,2.5,3.2
		C261.6,500.3,259.8,501.6,257.5,501.6z"/>
</g>
</svg>
