<?xml version="1.0" encoding="utf-8"?>
<!-- Generator: Adobe Illustrator 25.2.1, SVG Export Plug-In . SVG Version: 6.00 Build 0)  -->
<svg version="1.1" id="Layer_1" xmlns="http://www.w3.org/2000/svg" xmlns:xlink="http://www.w3.org/1999/xlink" x="0px" y="0px"
	 viewBox="0 0 360 61" style="enable-background:new 0 0 360 61;" xml:space="preserve">
<style type="text/css">
	.st0{fill:#FFFFFF;}
	.st1{stroke:#020203;stroke-width:2;stroke-linecap:round;stroke-linejoin:round;}
	.st2{fill:none;stroke:#020203;stroke-width:2;stroke-linecap:round;stroke-linejoin:round;}
	.st3{display:none;fill:#951B81;}
	.st4{fill:none;stroke:#000000;stroke-width:2;stroke-miterlimit:10;}
</style>
<rect y="1.1" class="st0" width="360" height="59.9"/>
<path class="st1" d="M23.7,18.9l9-7l9,7v11c0,1.1-0.9,2-2,2h-14c-1.1,0-2-0.9-2-2C23.7,29.9,23.7,18.9,23.7,18.9z"/>
<polyline class="st0" points="29.7,33.2 29.7,23.2 35.7,23.2 35.7,33.2 "/>
<circle class="st2" cx="107" cy="22.6" r="8"/>
<line class="st2" x1="117" y1="32.6" x2="112.7" y2="28.2"/>
<path class="st2" d="M262.6,26.6c0,1.1-1,2-2.2,2h-13l-4.3,4V16.5c0-1.1,1-2,2.2-2h15.1c1.2,0,2.2,0.9,2.2,2L262.6,26.6L262.6,26.6z
	"/>
<path class="st2" d="M334.8,31.6v-2c0-2.2-1.8-4-4-4h-8c-2.2,0-4,1.8-4,4v2"/>
<circle class="st2" cx="326.8" cy="17.5" r="4"/>
<line class="st2" x1="180.3" y1="22.8" x2="180.3" y2="34.4"/>
<line class="st2" x1="174.5" y1="28.6" x2="186.1" y2="28.6"/>
<path class="st2" d="M190.7,42.2h-20.4c-5.8,0-10.5-4.7-10.5-10.5V25c0-5.8,4.7-10.5,10.5-10.5h20.4c5.8,0,10.5,4.7,10.5,10.5v6.7
	C201.1,37.5,196.5,42.2,190.7,42.2z"/>
<g>
	<path d="M23.6,42.9v-2.5h-2.6v2.5h-1.2v-6.1h1.2v2.5h2.6v-2.5h1.2v6.1H23.6z"/>
	<path d="M28.5,43c-1.5,0-2.6-1-2.6-2.6c0-1.4,1.2-2.6,2.6-2.6c1.5,0,2.6,1.2,2.6,2.6S30.1,43,28.5,43z M28.4,38.9
		c-0.9,0-1.5,0.7-1.5,1.5c0,0.8,0.6,1.5,1.5,1.5c1,0,1.5-0.7,1.5-1.5S29.4,38.9,28.4,38.9z"/>
	<path d="M37.5,42.9c0,0,0-2.1,0-3.2c0-0.7-0.3-0.9-0.7-0.9c-0.6,0-1,0.5-1,1c0,1,0,2.1,0,3.2h-1.1c0,0,0-2.3,0-3.4
		c0-0.6-0.2-0.8-0.7-0.8c-0.5,0-1,0.5-1,1c0,1.1,0,3.2,0,3.2H32V38h1v0.5c0,0,0.4-0.7,1.3-0.7c0.8,0,1.2,0.6,1.3,0.7
		c0,0,0.3-0.8,1.4-0.8c0.9,0,1.6,0.5,1.6,1.4c0,1.2,0,2.5,0,3.7C38.6,42.9,37.5,42.9,37.5,42.9z"/>
	<path d="M40.7,40.7c0,0.7,0.6,1.3,1.3,1.3c0.6,0,1.2-0.4,1.4-0.9l1,0.5c-0.3,0.7-1.1,1.3-2.3,1.3c-1.5,0-2.5-1-2.5-2.5
		c0-1.4,1.1-2.6,2.6-2.6c1.6,0,2.4,1.2,2.4,2.8C44.5,40.7,40.9,40.7,40.7,40.7z M42.1,38.8c-0.9,0-1.3,0.8-1.3,1.1c0,0,2.5,0,2.7,0
		C43.4,39.6,43.2,38.8,42.1,38.8z"/>
</g>
<g>
	<path d="M94.4,43c-1,0-2.5,0-2.5,0v-6.1c0,0,1.3,0,2.3,0c1.5,0,2.8,1.2,2.8,3C97,41.7,95.9,43,94.4,43z M94.2,37.8
		c-0.3,0-1.1,0-1.1,0V42c0,0,0.8,0,1.1,0c0.7,0,1.6-0.6,1.6-2.1C95.8,38.3,94.8,37.8,94.2,37.8z"/>
	<path d="M98.6,37.7c-0.4,0-0.7-0.3-0.7-0.7s0.3-0.7,0.7-0.7s0.7,0.3,0.7,0.7S99,37.7,98.6,37.7z M98,43v-4.9h1.1V43H98z"/>
	<path d="M101.7,43.1c-0.8,0-1.3-0.4-1.7-1l0.9-0.6c0,0,0.4,0.7,0.9,0.7c0.4,0,0.7-0.2,0.7-0.5c0-0.4-0.4-0.5-0.8-0.7
		c-0.1-0.1-0.2-0.1-0.4-0.2c-0.6-0.3-1.1-0.7-1.1-1.5c0-0.8,0.8-1.4,1.7-1.4c0.7,0,1.2,0.3,1.5,0.8c0,0-0.6,0.5-0.8,0.7
		c-0.1-0.1-0.3-0.5-0.8-0.5c-0.3,0-0.5,0.2-0.5,0.5c0,0.3,0.3,0.5,0.6,0.6c0.2,0.1,0.4,0.1,0.6,0.2c0.7,0.3,1.1,0.7,1.1,1.4
		C103.5,42.6,102.7,43.1,101.7,43.1z"/>
	<path d="M106.8,43.1c-1.4,0-2.6-0.9-2.6-2.4c0-1.4,1-2.7,2.6-2.7c0.5,0,0.9,0.1,1.4,0.4v1.1c0,0-0.6-0.4-1.3-0.4
		c-1,0-1.6,0.7-1.6,1.7c0,0.8,0.6,1.4,1.6,1.4c0.6,0,1-0.3,1.3-0.5v1.1C108.2,42.7,107.6,43.1,106.8,43.1z"/>
	<path d="M111.5,43.1c-1.5,0-2.6-1-2.6-2.6c0-1.4,1.2-2.6,2.6-2.6c1.5,0,2.6,1.2,2.6,2.6S113.1,43.1,111.5,43.1z M111.5,39
		c-0.9,0-1.5,0.7-1.5,1.5c0,0.8,0.6,1.5,1.5,1.5c1,0,1.5-0.7,1.5-1.5S112.5,39,111.5,39z"/>
	<path d="M117.5,43h-1l-2-4.9h1.2l1.3,3.4l1.3-3.4h1.2L117.5,43z"/>
	<path d="M121.2,40.8c0,0.7,0.6,1.3,1.3,1.3c0.6,0,1.2-0.4,1.4-0.9l1,0.5c-0.3,0.7-1.1,1.4-2.3,1.4c-1.5,0-2.6-1-2.6-2.5
		c0-1.4,1.1-2.6,2.6-2.6c1.6,0,2.4,1.2,2.4,2.8C125,40.8,121.3,40.8,121.2,40.8z M122.5,38.9c-0.9,0-1.3,0.8-1.3,1.1
		c0,0,2.4,0,2.7,0C123.8,39.8,123.6,38.9,122.5,38.9z"/>
	<path d="M128.5,39.2c0,0-0.3-0.1-0.5-0.1c-0.7,0-1,0.7-1,1.3c0,1.1,0,2.7,0,2.7h-1.1v-4.9h1v0.7c0,0,0.3-0.8,1.3-0.8
		c0.2,0,0.4,0,0.6,0.1L128.5,39.2z"/>
</g>
<g>
	<path d="M241.9,43.1V37h1.2v6.1H241.9z"/>
	<path d="M247.6,43.1c0,0,0-1.7,0-2.8c0-0.9-0.3-1.2-0.9-1.2c-0.9,0-1.1,0.8-1.1,1.3c0,1.1,0,2.7,0,2.7h-1.1v-4.9h1.1v0.7
		c0,0,0.3-0.8,1.5-0.8c1,0,1.7,0.7,1.7,1.7c0,1,0,2.2,0,3.3L247.6,43.1L247.6,43.1z"/>
	<path d="M252.5,43.2c-0.7,0-1.1-0.3-1.5-0.8v0.7h-1V37h1.1v1.9c0,0,0.4-0.7,1.5-0.7c1.5,0,2.3,1.2,2.3,2.5
		C254.8,41.9,253.9,43.2,252.5,43.2z M252.4,39.2c-0.9,0-1.4,0.8-1.4,1.5c0,0.8,0.6,1.5,1.4,1.5c0.9,0,1.3-0.7,1.3-1.5
		C253.7,39.7,253.2,39.2,252.4,39.2z"/>
	<path d="M258.1,43.2c-1.5,0-2.6-1-2.6-2.6c0-1.4,1.2-2.6,2.6-2.6c1.5,0,2.6,1.2,2.6,2.6C260.7,42.1,259.8,43.2,258.1,43.2z
		 M258.1,39.1c-0.9,0-1.5,0.7-1.5,1.5c0,0.8,0.6,1.5,1.5,1.5c1,0,1.5-0.7,1.5-1.5S259.1,39.1,258.1,39.1z"/>
	<path d="M265.2,43.1l-1.3-1.9l-1.3,1.9h-1.4l2-2.6l-1.8-2.3h1.4l1.1,1.6l1.1-1.6h1.3l-1.7,2.3l2,2.6L265.2,43.1L265.2,43.1z"/>
</g>
<g>
	<path d="M327.1,43.2l-0.6-4.3l-1.6,4.3h-0.5l-1.6-4.3l-0.6,4.3h-1.1l1-6.1h1.2l1.5,4l1.5-4h1.2l1,6.1H327.1z"/>
	<path d="M329.8,41.1c0,0.7,0.6,1.3,1.4,1.3c0.6,0,1.2-0.4,1.4-0.9l1,0.5c-0.3,0.7-1.1,1.4-2.3,1.4c-1.5,0-2.5-1-2.5-2.5
		c0-1.4,1.1-2.6,2.6-2.6c1.6,0,2.4,1.2,2.4,2.8C333.6,41.1,330,41.1,329.8,41.1z M331.2,39.2c-0.9,0-1.3,0.8-1.3,1.1
		c0,0,2.5,0,2.6,0C332.5,40,332.3,39.2,331.2,39.2z"/>
</g>
<rect x="0.3" y="0.2" class="st3" width="360" height="61.1"/>
<line class="st4" x1="0" y1="1.1" x2="360" y2="1.1"/>
</svg>
