<?xml version="1.0" encoding="utf-8"?>
<!-- Generator: Adobe Illustrator 25.2.1, SVG Export Plug-In . SVG Version: 6.00 Build 0)  -->
<svg version="1.1" id="Layer_1" xmlns="http://www.w3.org/2000/svg" xmlns:xlink="http://www.w3.org/1999/xlink" x="0px" y="0px"
	 viewBox="0 0 360 94" style="enable-background:new 0 0 360 94;" xml:space="preserve">
<style type="text/css">
	.st0{fill:#FFFFFF;}
	.st1{fill:#FFFFFF;stroke:#000000;stroke-width:2;stroke-miterlimit:10;}
	.st2{fill:#FFFFFF;stroke:#020203;stroke-width:2;stroke-linecap:round;stroke-linejoin:round;}
	.st3{fill:none;stroke:#020203;stroke-width:2;stroke-linecap:round;stroke-linejoin:round;}
	.st4{fill:url(#SVGID_1_);stroke:#9E9B99;stroke-width:0.5;stroke-linecap:round;stroke-linejoin:round;}
</style>
<rect x="-0.76" y="-0.74" class="st0" width="360" height="94"/>
<circle class="st1" cx="38.96" cy="39.12" r="27.5"/>
<circle class="st1" cx="120.39" cy="38.05" r="27.5"/>
<circle class="st1" cx="203.47" cy="38.05" r="27.5"/>
<circle class="st1" cx="285.22" cy="38.64" r="27.5"/>
<g>
	<path d="M17.21,81.64l-2.89-4.24h1.07l2.28,3.41l2.28-3.41H21l-2.88,4.24v3.1h-0.91V81.64z"/>
	<path d="M20.22,82.08c0-1.54,1.01-2.78,2.63-2.78s2.63,1.24,2.63,2.78c0,1.54-1.01,2.79-2.63,2.79S20.22,83.62,20.22,82.08z
		 M24.61,82.08c0-1.08-0.63-2.05-1.76-2.05s-1.77,0.97-1.77,2.05c0,1.09,0.64,2.06,1.77,2.06S24.61,83.17,24.61,82.08z"/>
	<path d="M30.41,83.99c-0.41,0.46-1.1,0.88-1.89,0.88c-1.11,0-1.69-0.54-1.69-1.69v-3.75h0.83v3.5c0,0.93,0.47,1.21,1.19,1.21
		c0.65,0,1.26-0.37,1.57-0.8v-3.91h0.82v5.31h-0.82V83.99z"/>
	<path d="M32.88,79.43h0.83v0.86c0.43-0.56,1.04-0.97,1.77-0.97v0.85c-0.1-0.02-0.2-0.03-0.33-0.03c-0.51,0-1.2,0.42-1.44,0.85v3.76
		h-0.83V79.43z"/>
	<path d="M39.32,83.44c0.35,0.41,1.02,0.76,1.75,0.76c0.81,0,1.25-0.36,1.25-0.88c0-0.58-0.65-0.77-1.36-0.95
		c-0.9-0.21-1.93-0.45-1.93-1.55c0-0.83,0.71-1.53,1.98-1.53c0.9,0,1.54,0.34,1.97,0.77l-0.39,0.57c-0.32-0.39-0.9-0.67-1.58-0.67
		c-0.73,0-1.18,0.33-1.18,0.8c0,0.52,0.6,0.68,1.3,0.85c0.92,0.21,1.99,0.47,1.99,1.65c0,0.89-0.71,1.61-2.09,1.61
		c-0.87,0-1.61-0.26-2.15-0.84L39.32,83.44z"/>
	<path d="M44.63,83.63v-3.48h-0.88v-0.73h0.88v-1.45h0.83v1.45h1.08v0.73h-1.08v3.3c0,0.4,0.18,0.68,0.54,0.68
		c0.23,0,0.45-0.1,0.56-0.22l0.24,0.62c-0.21,0.2-0.51,0.34-0.99,0.34C45.03,84.87,44.63,84.42,44.63,83.63z"/>
	<path d="M47.39,82.08c0-1.54,1.01-2.78,2.63-2.78s2.63,1.24,2.63,2.78c0,1.54-1.01,2.79-2.63,2.79S47.39,83.62,47.39,82.08z
		 M51.78,82.08c0-1.08-0.63-2.05-1.76-2.05s-1.77,0.97-1.77,2.05c0,1.09,0.64,2.06,1.77,2.06S51.78,83.17,51.78,82.08z"/>
	<path d="M53.99,79.43h0.83v0.86c0.43-0.56,1.04-0.97,1.77-0.97v0.85c-0.1-0.02-0.2-0.03-0.33-0.03c-0.51,0-1.2,0.42-1.44,0.85v3.76
		h-0.83V79.43z"/>
	<path d="M57.91,86.16c0.36,0,0.6-0.12,0.79-0.56l0.35-0.8l-2.22-5.37h0.89l1.77,4.36l1.76-4.36h0.9l-2.66,6.39
		c-0.32,0.77-0.86,1.07-1.56,1.08c-0.18,0-0.45-0.03-0.6-0.08l0.13-0.75C57.58,86.13,57.77,86.16,57.91,86.16z"/>
</g>
<g>
	<path d="M114.5,83.99c-0.41,0.46-1.1,0.88-1.89,0.88c-1.11,0-1.69-0.54-1.69-1.69v-3.75h0.83v3.5c0,0.93,0.47,1.21,1.19,1.21
		c0.65,0,1.27-0.37,1.57-0.8v-3.91h0.83v5.31h-0.83V83.99z"/>
	<path d="M116.95,83.44c0.35,0.41,1.02,0.76,1.75,0.76c0.81,0,1.25-0.36,1.25-0.88c0-0.58-0.65-0.77-1.36-0.95
		c-0.9-0.21-1.93-0.45-1.93-1.55c0-0.83,0.72-1.53,1.98-1.53c0.9,0,1.54,0.34,1.97,0.77l-0.38,0.57c-0.32-0.39-0.9-0.67-1.58-0.67
		c-0.73,0-1.18,0.33-1.18,0.8c0,0.52,0.6,0.68,1.3,0.85c0.92,0.21,1.99,0.47,1.99,1.65c0,0.89-0.71,1.61-2.09,1.61
		c-0.87,0-1.61-0.26-2.15-0.84L116.95,83.44z"/>
	<path d="M124.4,79.3c1.61,0,2.55,1.25,2.55,2.85v0.21h-4.3c0.07,1,0.77,1.84,1.91,1.84c0.61,0,1.22-0.24,1.64-0.67l0.4,0.54
		c-0.53,0.53-1.24,0.81-2.11,0.81c-1.57,0-2.71-1.13-2.71-2.79C121.79,80.54,122.89,79.3,124.4,79.3z M122.65,81.75h3.49
		c-0.01-0.79-0.54-1.77-1.75-1.77C123.26,79.98,122.7,80.94,122.65,81.75z"/>
	<path d="M128.29,79.43h0.83v0.86c0.43-0.56,1.04-0.97,1.77-0.97v0.85c-0.1-0.02-0.2-0.03-0.33-0.03c-0.51,0-1.2,0.42-1.44,0.85
		v3.76h-0.83V79.43z"/>
</g>
<g>
	<path d="M196.99,84.13c-0.41,0.46-1.1,0.88-1.89,0.88c-1.11,0-1.69-0.54-1.69-1.69v-3.75h0.83v3.5c0,0.93,0.47,1.21,1.19,1.21
		c0.65,0,1.27-0.37,1.57-0.8v-3.91h0.83v5.31h-0.83V84.13z"/>
	<path d="M199.43,83.58c0.35,0.41,1.02,0.76,1.75,0.76c0.81,0,1.25-0.36,1.25-0.88c0-0.58-0.65-0.77-1.36-0.95
		c-0.9-0.21-1.93-0.45-1.93-1.55c0-0.83,0.72-1.53,1.98-1.53c0.9,0,1.54,0.34,1.97,0.77l-0.38,0.57c-0.32-0.39-0.9-0.67-1.58-0.67
		c-0.73,0-1.18,0.33-1.18,0.8c0,0.52,0.6,0.68,1.3,0.85c0.92,0.21,1.99,0.47,1.99,1.65c0,0.89-0.71,1.61-2.09,1.61
		c-0.87,0-1.61-0.26-2.15-0.84L199.43,83.58z"/>
	<path d="M206.89,79.43c1.61,0,2.55,1.25,2.55,2.85v0.21h-4.3c0.07,1,0.77,1.84,1.91,1.84c0.61,0,1.22-0.24,1.64-0.67l0.4,0.54
		c-0.53,0.53-1.24,0.81-2.11,0.81c-1.57,0-2.71-1.13-2.71-2.79C204.27,80.67,205.37,79.43,206.89,79.43z M205.14,81.88h3.49
		c-0.01-0.79-0.54-1.77-1.75-1.77C205.74,80.11,205.18,81.07,205.14,81.88z"/>
	<path d="M210.77,79.56h0.83v0.86c0.43-0.56,1.04-0.97,1.77-0.97v0.85c-0.1-0.02-0.2-0.03-0.33-0.03c-0.51,0-1.2,0.42-1.44,0.85
		v3.76h-0.83V79.56z"/>
</g>
<g>
	<path d="M279.19,83.99c-0.41,0.46-1.1,0.88-1.89,0.88c-1.11,0-1.69-0.54-1.69-1.69v-3.75h0.83v3.5c0,0.93,0.47,1.21,1.19,1.21
		c0.65,0,1.26-0.37,1.57-0.8v-3.91h0.83v5.31h-0.83V83.99z"/>
	<path d="M281.63,83.44c0.35,0.41,1.02,0.76,1.75,0.76c0.81,0,1.25-0.36,1.25-0.88c0-0.58-0.65-0.77-1.36-0.95
		c-0.9-0.21-1.92-0.45-1.92-1.55c0-0.83,0.71-1.53,1.98-1.53c0.9,0,1.54,0.34,1.97,0.77l-0.38,0.57c-0.32-0.39-0.9-0.67-1.58-0.67
		c-0.73,0-1.18,0.33-1.18,0.8c0,0.52,0.61,0.68,1.3,0.85c0.92,0.21,1.99,0.47,1.99,1.65c0,0.89-0.71,1.61-2.09,1.61
		c-0.87,0-1.61-0.26-2.14-0.84L281.63,83.44z"/>
	<path d="M289.09,79.3c1.61,0,2.55,1.25,2.55,2.85v0.21h-4.3c0.07,1,0.77,1.84,1.91,1.84c0.61,0,1.22-0.24,1.64-0.67l0.4,0.54
		c-0.53,0.53-1.24,0.81-2.11,0.81c-1.57,0-2.71-1.13-2.71-2.79C286.47,80.54,287.57,79.3,289.09,79.3z M287.34,81.75h3.49
		c-0.01-0.79-0.54-1.77-1.75-1.77C287.95,79.98,287.38,80.94,287.34,81.75z"/>
	<path d="M292.97,79.43h0.83v0.86c0.43-0.56,1.04-0.97,1.77-0.97v0.85c-0.1-0.02-0.2-0.03-0.33-0.03c-0.51,0-1.2,0.42-1.44,0.85
		v3.76h-0.83V79.43z"/>
</g>
<g>
	<path d="M355.64,83.99c-0.41,0.46-1.1,0.88-1.89,0.88c-1.11,0-1.69-0.54-1.69-1.69v-3.75h0.83v3.5c0,0.93,0.47,1.21,1.19,1.21
		c0.65,0,1.26-0.37,1.57-0.8v-3.91h0.83v5.31h-0.83V83.99z"/>
	<path d="M358.08,83.44c0.35,0.41,1.02,0.76,1.75,0.76c0.81,0,1.25-0.36,1.25-0.88c0-0.58-0.65-0.77-1.36-0.95
		c-0.9-0.21-1.92-0.45-1.92-1.55c0-0.83,0.71-1.53,1.98-1.53c0.9,0,1.54,0.34,1.97,0.77l-0.38,0.57c-0.32-0.39-0.9-0.67-1.58-0.67
		c-0.73,0-1.18,0.33-1.18,0.8c0,0.52,0.61,0.68,1.3,0.85c0.92,0.21,1.99,0.47,1.99,1.65c0,0.89-0.71,1.61-2.09,1.61
		c-0.87,0-1.61-0.26-2.14-0.84L358.08,83.44z"/>
</g>
<circle class="st2" cx="57.02" cy="57.9" r="8.56"/>
<line class="st3" x1="57.02" y1="54.47" x2="57.02" y2="61.33"/>
<line class="st3" x1="53.6" y1="57.9" x2="60.45" y2="57.9"/>
<linearGradient id="SVGID_1_" gradientUnits="userSpaceOnUse" x1="-0.757" y1="93.2624" x2="359.243" y2="93.2624">
	<stop  offset="0" style="stop-color:#FFFFFF"/>
	<stop  offset="1" style="stop-color:#000000"/>
</linearGradient>
<line class="st4" x1="-0.76" y1="92.9" x2="359.24" y2="93.63"/>
<path class="st1" d="M358.96,13.17"/>
<path class="st1" d="M358.96,13.17C359.29,13.07,358.64,13.25,358.96,13.17"/>
<path class="st1" d="M358.96,65.8c-11.28-3.43-19.49-13.91-19.49-26.32c0-12.4,8.21-22.89,19.49-26.32"/>
<path class="st1" d="M358.78,65.76c-0.3-0.07,0.56,0.16,0.18,0.04"/>
<path class="st1" d="M358.98,65.81c-0.07-0.01-0.13-0.03-0.2-0.05"/>
<path class="st1" d="M359.14,65.84c-0.05-0.01-0.11-0.02-0.16-0.04"/>
<path class="st1" d="M359.14,65.84"/>
<path class="st1" d="M389.08,23.12"/>
<path class="st1" d="M369.83,12.13"/>
<g>
</g>
<g>
</g>
<g>
</g>
<g>
</g>
<g>
</g>
<g>
</g>
</svg>
