<?xml version="1.0" encoding="utf-8"?>
<!-- Generator: Adobe Illustrator 25.2.1, SVG Export Plug-In . SVG Version: 6.00 Build 0)  -->
<svg version="1.1" id="Layer_1" xmlns="http://www.w3.org/2000/svg" xmlns:xlink="http://www.w3.org/1999/xlink" x="0px" y="0px"
	 viewBox="0 0 360 710" style="enable-background:new 0 0 360 710;" xml:space="preserve">
<style type="text/css">
	.st0{display:none;fill:#E30613;}
	.st1{fill:none;stroke:#020203;stroke-width:2;stroke-linecap:round;stroke-linejoin:round;}
	.st2{fill:#DADADA;}
	.st3{fill:none;stroke:#DADADA;stroke-miterlimit:10;}
</style>
<rect x="-0.21" class="st0" width="359.47" height="710"/>
<rect x="-0.1" class="st0" width="359.47" height="710"/>
<line class="st1" x1="30.07" y1="20.7" x2="11.05" y2="20.7"/>
<polyline class="st1" points="18.05,27.7 11.05,20.7 18.05,13.7 "/>
<g>
	<path d="M66.06,17.81v9.41h-2.98v-14h3.07l6.49,9.07v-9.07h2.98v14h-2.88L66.06,17.81z"/>
	<path d="M82.92,16.82c3.02,0,5.08,2.27,5.08,5.58V23h-7.54c0.17,1.28,1.2,2.35,2.92,2.35c0.94,0,2.06-0.38,2.71-1.01l1.18,1.72
		c-1.01,0.92-2.6,1.41-4.18,1.41c-3.09,0-5.42-2.08-5.42-5.33C77.67,19.2,79.83,16.82,82.92,16.82z M80.42,21.19h5
		c-0.06-0.97-0.73-2.25-2.5-2.25C81.26,18.94,80.54,20.18,80.42,21.19z"/>
	<path d="M96.69,20.31l-2.14,6.91H91.7l-3.09-10.14h2.77l1.89,6.82l2.23-6.82h2.37l2.23,6.82l1.89-6.82h2.77l-3.09,10.14h-2.83
		L96.69,20.31z"/>
	<path d="M111.46,31.08v-14h2.67v1.28c0.78-0.99,1.89-1.53,3.13-1.53c2.6,0,4.49,1.93,4.49,5.31s-1.89,5.33-4.49,5.33
		c-1.2,0-2.31-0.5-3.13-1.55v5.17H111.46z M116.41,19.2c-0.86,0-1.85,0.5-2.29,1.15v3.59c0.44,0.63,1.43,1.15,2.29,1.15
		c1.53,0,2.56-1.2,2.56-2.96C118.97,20.39,117.94,19.2,116.41,19.2z"/>
	<path d="M123.09,22.14c0-2.88,2.02-5.31,5.35-5.31c3.36,0,5.38,2.44,5.38,5.31c0,2.9-2.02,5.33-5.38,5.33
		C125.11,27.47,123.09,25.03,123.09,22.14z M131.05,22.14c0-1.57-0.95-2.94-2.6-2.94c-1.66,0-2.58,1.36-2.58,2.94
		c0,1.6,0.92,2.96,2.58,2.96C130.1,25.1,131.05,23.73,131.05,22.14z"/>
	<path d="M136.07,24.03c0.73,0.69,2.25,1.39,3.51,1.39c1.16,0,1.7-0.4,1.7-1.03c0-0.71-0.88-0.97-2.04-1.2
		c-1.74-0.34-3.99-0.76-3.99-3.17c0-1.7,1.49-3.19,4.16-3.19c1.72,0,3.09,0.59,4.09,1.39l-1.07,1.83c-0.61-0.65-1.76-1.18-3-1.18
		c-0.97,0-1.6,0.36-1.6,0.94c0,0.63,0.8,0.86,1.93,1.09c1.74,0.34,4.07,0.8,4.07,3.32c0,1.85-1.58,3.25-4.39,3.25
		c-1.76,0-3.46-0.59-4.54-1.57L136.07,24.03z"/>
	<path d="M146.34,24.7v-5.29h-1.68v-2.33h1.68V14.3h2.69v2.77h2.06v2.33h-2.06v4.58c0,0.63,0.34,1.11,0.92,1.11
		c0.4,0,0.78-0.15,0.92-0.29l0.57,2.02c-0.4,0.36-1.11,0.65-2.23,0.65C147.35,27.47,146.34,26.5,146.34,24.7z"/>
</g>
<polyline class="st1" points="351.34,13.29 336.97,27.66 330.44,21.13 "/>
<rect x="12.05" y="57.87" class="st1" width="45.57" height="47.72"/>
<g>
	<path class="st2" d="M76,79.16l-2.06,7.54h-1.26l-2.66-9.34h1.29l2.07,7.79l2.14-7.79h0.97l2.14,7.79l2.06-7.79h1.29l-2.66,9.34
		h-1.26L76,79.16z"/>
	<path class="st2" d="M82.81,79.93h1.05v1.09c0.55-0.71,1.33-1.23,2.26-1.23v1.08c-0.13-0.03-0.25-0.04-0.42-0.04
		c-0.64,0-1.53,0.53-1.83,1.08v4.79h-1.05V79.93z"/>
	<path class="st2" d="M87.25,78.08c0-0.39,0.32-0.7,0.7-0.7c0.39,0,0.71,0.31,0.71,0.7s-0.32,0.71-0.71,0.71
		C87.57,78.79,87.25,78.47,87.25,78.08z M87.43,79.93h1.05v6.77h-1.05V79.93z"/>
	<path class="st2" d="M90.79,85.28v-4.43h-1.12v-0.92h1.12v-1.85h1.05v1.85h1.37v0.92h-1.37v4.2c0,0.5,0.22,0.87,0.69,0.87
		c0.29,0,0.57-0.13,0.71-0.28l0.31,0.78c-0.27,0.25-0.64,0.43-1.26,0.43C91.3,86.86,90.79,86.29,90.79,85.28z"/>
	<path class="st2" d="M97.64,79.76c2.04,0,3.25,1.6,3.25,3.63v0.27h-5.48c0.08,1.27,0.98,2.34,2.44,2.34c0.77,0,1.56-0.31,2.09-0.85
		l0.5,0.69c-0.67,0.67-1.58,1.04-2.69,1.04c-2,0-3.45-1.44-3.45-3.56C94.31,81.34,95.71,79.76,97.64,79.76z M95.41,82.88h4.44
		c-0.01-1.01-0.69-2.26-2.23-2.26C96.18,80.63,95.47,81.85,95.41,82.88z"/>
	<path class="st2" d="M110.42,85.92c-0.56,0.62-1.33,0.94-2.24,0.94c-1.15,0-2.37-0.77-2.37-2.24c0-1.51,1.22-2.23,2.37-2.23
		c0.92,0,1.69,0.29,2.24,0.92V82.1c0-0.91-0.73-1.43-1.71-1.43c-0.81,0-1.47,0.29-2.07,0.94l-0.49-0.73c0.73-0.76,1.6-1.12,2.7-1.12
		c1.43,0,2.62,0.64,2.62,2.28v4.65h-1.05V85.92z M110.42,83.99c-0.41-0.56-1.12-0.84-1.86-0.84c-0.98,0-1.67,0.62-1.67,1.48
		c0,0.85,0.69,1.47,1.67,1.47c0.74,0,1.46-0.28,1.86-0.84V83.99z"/>
	<path class="st2" d="M120.17,79.76c1.23,0,1.96,0.5,2.48,1.18l-0.7,0.64c-0.45-0.62-1.02-0.88-1.72-0.88
		c-1.44,0-2.34,1.11-2.34,2.61c0,1.5,0.9,2.62,2.34,2.62c0.7,0,1.28-0.28,1.72-0.88l0.7,0.64c-0.52,0.67-1.25,1.18-2.48,1.18
		c-2.02,0-3.38-1.54-3.38-3.56C116.79,81.3,118.15,79.76,120.17,79.76z"/>
	<path class="st2" d="M128.34,85.92c-0.56,0.62-1.33,0.94-2.24,0.94c-1.15,0-2.37-0.77-2.37-2.24c0-1.51,1.22-2.23,2.37-2.23
		c0.92,0,1.69,0.29,2.24,0.92V82.1c0-0.91-0.73-1.43-1.71-1.43c-0.81,0-1.47,0.29-2.07,0.94l-0.49-0.73c0.73-0.76,1.6-1.12,2.7-1.12
		c1.43,0,2.62,0.64,2.62,2.28v4.65h-1.05V85.92z M128.34,83.99c-0.41-0.56-1.12-0.84-1.86-0.84c-0.98,0-1.67,0.62-1.67,1.48
		c0,0.85,0.69,1.47,1.67,1.47c0.74,0,1.46-0.28,1.86-0.84V83.99z"/>
	<path class="st2" d="M131.49,89.27v-9.34h1.05v1.01c0.49-0.69,1.33-1.18,2.28-1.18c1.78,0,3.01,1.34,3.01,3.54
		c0,2.19-1.23,3.56-3.01,3.56c-0.92,0-1.74-0.43-2.28-1.19v3.6H131.49z M134.56,80.7c-0.83,0-1.65,0.49-2.02,1.08v3.05
		c0.36,0.59,1.19,1.09,2.02,1.09c1.36,0,2.17-1.12,2.17-2.62C136.73,81.8,135.92,80.7,134.56,80.7z"/>
	<path class="st2" d="M139.74,85.28v-4.43h-1.12v-0.92h1.12v-1.85h1.05v1.85h1.37v0.92h-1.37v4.2c0,0.5,0.22,0.87,0.69,0.87
		c0.29,0,0.57-0.13,0.71-0.28l0.31,0.78c-0.27,0.25-0.64,0.43-1.26,0.43C140.24,86.86,139.74,86.29,139.74,85.28z"/>
	<path class="st2" d="M143.46,78.08c0-0.39,0.32-0.7,0.7-0.7c0.39,0,0.71,0.31,0.71,0.7s-0.32,0.71-0.71,0.71
		C143.78,78.79,143.46,78.47,143.46,78.08z M143.64,79.93h1.05v6.77h-1.05V79.93z"/>
	<path class="st2" d="M146.4,83.3c0-1.96,1.29-3.54,3.35-3.54c2.06,0,3.35,1.58,3.35,3.54c0,1.96-1.29,3.56-3.35,3.56
		C147.69,86.86,146.4,85.26,146.4,83.3z M151.99,83.3c0-1.37-0.8-2.61-2.24-2.61c-1.44,0-2.25,1.23-2.25,2.61
		c0,1.39,0.81,2.62,2.25,2.62C151.19,85.92,151.99,84.69,151.99,83.3z"/>
	<path class="st2" d="M159.37,82.27c0-1.19-0.6-1.57-1.51-1.57c-0.83,0-1.61,0.5-2,1.05v4.94h-1.05v-6.77h1.05v0.98
		c0.48-0.56,1.4-1.15,2.41-1.15c1.41,0,2.16,0.71,2.16,2.19v4.75h-1.05V82.27z"/>
	<path class="st2" d="M163.07,85.29c0.42,0,0.77,0.35,0.77,0.77s-0.35,0.77-0.77,0.77c-0.42,0-0.77-0.35-0.77-0.77
		S162.65,85.29,163.07,85.29z"/>
	<path class="st2" d="M166.29,85.29c0.42,0,0.77,0.35,0.77,0.77s-0.35,0.77-0.77,0.77c-0.42,0-0.77-0.35-0.77-0.77
		S165.87,85.29,166.29,85.29z"/>
	<path class="st2" d="M169.51,85.29c0.42,0,0.77,0.35,0.77,0.77s-0.35,0.77-0.77,0.77c-0.42,0-0.77-0.35-0.77-0.77
		S169.09,85.29,169.51,85.29z"/>
</g>
<line class="st3" x1="-0.1" y1="117.48" x2="359.9" y2="117.8"/>
<line class="st3" x1="-0.14" y1="161.04" x2="359.86" y2="161.36"/>
<line class="st3" x1="0.14" y1="207.4" x2="360.14" y2="207.72"/>
<line class="st3" x1="0.14" y1="256.31" x2="360.14" y2="256.63"/>
<line class="st3" x1="-0.1" y1="352.61" x2="359.9" y2="352.92"/>
<g>
	<path d="M14.05,135.76h-3.17v-1.11h7.59v1.11h-3.18v8.89h-1.24V135.76z"/>
	<path d="M23.19,143.83c-0.6,0.66-1.42,1.01-2.4,1.01c-1.23,0-2.53-0.83-2.53-2.4c0-1.62,1.3-2.39,2.53-2.39
		c0.99,0,1.82,0.31,2.4,0.99v-1.31c0-0.97-0.78-1.53-1.83-1.53c-0.87,0-1.58,0.31-2.22,1l-0.53-0.78c0.78-0.81,1.71-1.2,2.89-1.2
		c1.53,0,2.81,0.69,2.81,2.44v4.98h-1.12V143.83z M23.19,141.76c-0.44-0.6-1.2-0.9-2-0.9c-1.05,0-1.79,0.66-1.79,1.59
		c0,0.92,0.74,1.58,1.79,1.58c0.79,0,1.56-0.3,2-0.9V141.76z"/>
	<path d="M27.12,145.68c0.6,0.72,1.32,0.99,2.35,0.99c1.2,0,2.33-0.58,2.33-2.17v-1.03c-0.52,0.73-1.41,1.29-2.43,1.29
		c-1.89,0-3.22-1.41-3.22-3.75c0-2.33,1.32-3.77,3.22-3.77c0.97,0,1.84,0.48,2.43,1.27v-1.09h1.12v7.03c0,2.4-1.68,3.15-3.45,3.15
		c-1.23,0-2.07-0.24-2.92-1.08L27.12,145.68z M31.79,139.41c-0.39-0.63-1.26-1.17-2.16-1.17c-1.45,0-2.32,1.16-2.32,2.76
		c0,1.59,0.87,2.76,2.32,2.76c0.9,0,1.77-0.56,2.16-1.19V139.41z"/>
	<path d="M39.04,147.42v-10h1.12v1.08c0.53-0.74,1.42-1.26,2.45-1.26c1.9,0,3.22,1.44,3.22,3.79c0,2.34-1.32,3.81-3.22,3.81
		c-0.99,0-1.86-0.47-2.45-1.27v3.85H39.04z M42.33,138.24c-0.88,0-1.77,0.53-2.16,1.16v3.27c0.39,0.63,1.28,1.17,2.16,1.17
		c1.46,0,2.33-1.2,2.33-2.8S43.78,138.24,42.33,138.24z"/>
	<path d="M50.8,137.23c2.19,0,3.48,1.71,3.48,3.88v0.29h-5.87c0.09,1.36,1.05,2.5,2.61,2.5c0.82,0,1.66-0.33,2.23-0.92l0.54,0.73
		c-0.72,0.72-1.7,1.11-2.88,1.11c-2.14,0-3.69-1.54-3.69-3.81C47.23,138.93,48.73,137.23,50.8,137.23z M48.42,140.58h4.75
		c-0.01-1.08-0.74-2.42-2.38-2.42C49.24,138.16,48.47,139.47,48.42,140.58z"/>
	<path d="M55.67,141.03c0-2.1,1.38-3.79,3.58-3.79s3.58,1.69,3.58,3.79s-1.38,3.81-3.58,3.81S55.67,143.13,55.67,141.03z
		 M61.66,141.03c0-1.47-0.86-2.79-2.4-2.79s-2.42,1.32-2.42,2.79c0,1.48,0.87,2.8,2.42,2.8S61.66,142.51,61.66,141.03z"/>
	<path d="M64.67,147.42v-10h1.12v1.08c0.53-0.74,1.42-1.26,2.45-1.26c1.9,0,3.22,1.44,3.22,3.79c0,2.34-1.32,3.81-3.22,3.81
		c-0.99,0-1.86-0.47-2.45-1.27v3.85H64.67z M67.96,138.24c-0.88,0-1.77,0.53-2.16,1.16v3.27c0.39,0.63,1.28,1.17,2.16,1.17
		c1.46,0,2.33-1.2,2.33-2.8S69.42,138.24,67.96,138.24z"/>
	<path d="M73.29,134.65h1.12v10h-1.12V134.65z"/>
	<path d="M79.81,137.23c2.19,0,3.48,1.71,3.48,3.88v0.29h-5.86c0.09,1.36,1.05,2.5,2.61,2.5c0.83,0,1.67-0.33,2.24-0.92l0.54,0.73
		c-0.72,0.72-1.7,1.11-2.88,1.11c-2.15,0-3.69-1.54-3.69-3.81C76.24,138.93,77.74,137.23,79.81,137.23z M77.42,140.58h4.75
		c-0.02-1.08-0.74-2.42-2.39-2.42C78.25,138.16,77.48,139.47,77.42,140.58z"/>
</g>
<g>
	<path d="M18.36,187.22h-5.07l-0.88,2.22h-1.38l4.02-10h1.54l4.04,10h-1.38L18.36,187.22z M13.65,186.11h4.33l-2.16-5.56
		L13.65,186.11z"/>
	<path d="M27.13,188.36c-0.54,0.73-1.42,1.26-2.45,1.26c-1.89,0-3.22-1.44-3.22-3.79c0-2.31,1.32-3.81,3.22-3.81
		c0.98,0,1.86,0.48,2.45,1.27v-3.85h1.12v10h-1.12V188.36z M27.13,184.19c-0.41-0.63-1.28-1.17-2.17-1.17
		c-1.46,0-2.33,1.2-2.33,2.81s0.87,2.79,2.33,2.79c0.9,0,1.77-0.51,2.17-1.14V184.19z"/>
	<path d="M35.75,188.36c-0.54,0.73-1.42,1.26-2.45,1.26c-1.89,0-3.22-1.44-3.22-3.79c0-2.31,1.32-3.81,3.22-3.81
		c0.98,0,1.86,0.48,2.45,1.27v-3.85h1.12v10h-1.12V188.36z M35.75,184.19c-0.41-0.63-1.28-1.17-2.17-1.17
		c-1.46,0-2.33,1.2-2.33,2.81s0.87,2.79,2.33,2.79c0.9,0,1.77-0.51,2.17-1.14V184.19z"/>
	<path d="M43,179.44h1.12v10H43V179.44z"/>
	<path d="M45.96,185.81c0-2.1,1.38-3.79,3.58-3.79s3.58,1.69,3.58,3.79s-1.38,3.81-3.58,3.81S45.96,187.91,45.96,185.81z
		 M51.94,185.81c0-1.47-0.86-2.79-2.4-2.79s-2.42,1.32-2.42,2.79c0,1.48,0.87,2.8,2.42,2.8S51.94,187.3,51.94,185.81z"/>
	<path d="M58.15,182.02c1.32,0,2.1,0.54,2.66,1.26l-0.75,0.69c-0.48-0.66-1.09-0.95-1.84-0.95c-1.54,0-2.5,1.19-2.5,2.79
		s0.96,2.8,2.5,2.8c0.75,0,1.36-0.3,1.84-0.94l0.75,0.69c-0.55,0.72-1.33,1.26-2.66,1.26c-2.16,0-3.61-1.65-3.61-3.81
		C54.54,183.67,55.99,182.02,58.15,182.02z"/>
	<path d="M66.91,188.62c-0.6,0.66-1.42,1.01-2.4,1.01c-1.23,0-2.54-0.83-2.54-2.4c0-1.62,1.3-2.39,2.54-2.39
		c0.99,0,1.81,0.31,2.4,0.99v-1.31c0-0.97-0.78-1.53-1.83-1.53c-0.87,0-1.57,0.31-2.22,1l-0.52-0.78c0.78-0.81,1.71-1.2,2.89-1.2
		c1.53,0,2.8,0.69,2.8,2.44v4.98h-1.12V188.62z M66.91,186.55c-0.43-0.6-1.2-0.9-2-0.9c-1.05,0-1.78,0.66-1.78,1.59
		c0,0.92,0.73,1.58,1.78,1.58c0.79,0,1.56-0.3,2-0.9V186.55z"/>
	<path d="M70.51,187.93v-4.74h-1.2v-0.99h1.2v-1.98h1.12v1.98h1.47v0.99h-1.47v4.5c0,0.54,0.24,0.93,0.74,0.93
		c0.31,0,0.61-0.13,0.76-0.3l0.33,0.84c-0.29,0.27-0.69,0.47-1.35,0.47C71.05,189.62,70.51,189.01,70.51,187.93z"/>
	<path d="M74.5,180.22c0-0.42,0.34-0.75,0.75-0.75c0.42,0,0.77,0.33,0.77,0.75s-0.34,0.77-0.77,0.77
		C74.84,180.98,74.5,180.64,74.5,180.22z M74.69,182.2h1.12v7.24h-1.12V182.2z"/>
	<path d="M77.65,185.81c0-2.1,1.38-3.79,3.58-3.79s3.58,1.69,3.58,3.79s-1.38,3.81-3.58,3.81S77.65,187.91,77.65,185.81z
		 M83.63,185.81c0-1.47-0.86-2.79-2.4-2.79s-2.42,1.32-2.42,2.79c0,1.48,0.87,2.8,2.42,2.8S83.63,187.3,83.63,185.81z"/>
	<path d="M91.54,184.7c0-1.27-0.65-1.68-1.62-1.68c-0.88,0-1.72,0.54-2.14,1.12v5.29h-1.12v-7.24h1.12v1.05
		c0.51-0.6,1.5-1.23,2.58-1.23c1.52,0,2.31,0.77,2.31,2.34v5.08h-1.12V184.7z"/>
</g>
<g>
	<path d="M17.88,234.64h-5.07l-0.88,2.22h-1.38l4.02-10h1.54l4.03,10h-1.38L17.88,234.64z M13.17,233.53h4.33l-2.16-5.56
		L13.17,233.53z"/>
	<path d="M26.65,235.78c-0.54,0.73-1.42,1.26-2.44,1.26c-1.89,0-3.22-1.44-3.22-3.79c0-2.31,1.32-3.81,3.22-3.81
		c0.97,0,1.86,0.48,2.44,1.27v-3.85h1.12v10h-1.12V235.78z M26.65,231.61c-0.4-0.63-1.27-1.17-2.17-1.17c-1.45,0-2.32,1.2-2.32,2.81
		s0.87,2.79,2.32,2.79c0.9,0,1.77-0.51,2.17-1.14V231.61z"/>
	<path d="M35.27,235.78c-0.54,0.73-1.42,1.26-2.44,1.26c-1.89,0-3.22-1.44-3.22-3.79c0-2.31,1.32-3.81,3.22-3.81
		c0.97,0,1.86,0.48,2.44,1.27v-3.85h1.12v10h-1.12V235.78z M35.27,231.61c-0.4-0.63-1.27-1.17-2.17-1.17c-1.45,0-2.32,1.2-2.32,2.81
		s0.87,2.79,2.32,2.79c0.9,0,1.77-0.51,2.17-1.14V231.61z"/>
	<path d="M42.57,226.86h6.55v1.11h-5.31v3.22h5.2v1.11h-5.2v4.56h-1.25V226.86z"/>
	<path d="M55.66,235.84c-0.55,0.63-1.5,1.2-2.58,1.2c-1.51,0-2.31-0.74-2.31-2.31v-5.11h1.12v4.77c0,1.28,0.64,1.65,1.62,1.65
		c0.89,0,1.73-0.51,2.15-1.09v-5.32h1.12v7.24h-1.12V235.84z"/>
	<path d="M63.92,232.12c0-1.27-0.65-1.68-1.62-1.68c-0.88,0-1.72,0.54-2.14,1.12v5.29h-1.12v-7.24h1.12v1.05
		c0.51-0.6,1.5-1.23,2.58-1.23c1.52,0,2.31,0.77,2.31,2.34v5.08h-1.12V232.12z"/>
	<path d="M72.55,235.78c-0.54,0.73-1.42,1.26-2.45,1.26c-1.89,0-3.22-1.44-3.22-3.79c0-2.31,1.32-3.81,3.22-3.81
		c0.98,0,1.86,0.48,2.45,1.27v-3.85h1.12v10h-1.12V235.78z M72.55,231.61c-0.41-0.63-1.28-1.17-2.17-1.17
		c-1.46,0-2.33,1.2-2.33,2.81s0.87,2.79,2.33,2.79c0.9,0,1.77-0.51,2.17-1.14V231.61z"/>
	<path d="M75.92,229.62h1.12v1.17c0.58-0.77,1.42-1.32,2.42-1.32v1.15c-0.13-0.03-0.27-0.04-0.45-0.04c-0.69,0-1.63,0.57-1.96,1.15
		v5.13h-1.12V229.62z"/>
	<path d="M85.4,236.04c-0.6,0.66-1.42,1.01-2.4,1.01c-1.23,0-2.54-0.83-2.54-2.4c0-1.62,1.3-2.39,2.54-2.39
		c0.99,0,1.81,0.31,2.4,0.99v-1.31c0-0.97-0.78-1.53-1.83-1.53c-0.87,0-1.57,0.31-2.22,1l-0.52-0.78c0.78-0.81,1.71-1.2,2.89-1.2
		c1.53,0,2.8,0.69,2.8,2.44v4.98H85.4V236.04z M85.4,233.97c-0.43-0.6-1.2-0.9-2-0.9c-1.05,0-1.78,0.66-1.78,1.59
		c0,0.92,0.73,1.58,1.78,1.58c0.79,0,1.56-0.3,2-0.9V233.97z"/>
	<path d="M88.58,227.64c0-0.42,0.34-0.75,0.75-0.75c0.42,0,0.76,0.33,0.76,0.75s-0.34,0.77-0.76,0.77
		C88.93,228.4,88.58,228.06,88.58,227.64z M88.78,229.62h1.12v7.24h-1.12V229.62z"/>
	<path d="M92.11,235.09c0.48,0.56,1.4,1.04,2.38,1.04c1.11,0,1.71-0.5,1.71-1.2c0-0.79-0.88-1.05-1.86-1.29
		c-1.23-0.28-2.62-0.61-2.62-2.11c0-1.12,0.97-2.08,2.7-2.08c1.23,0,2.1,0.47,2.69,1.05l-0.53,0.78c-0.43-0.52-1.23-0.92-2.16-0.92
		c-0.99,0-1.6,0.45-1.6,1.1c0,0.7,0.83,0.93,1.77,1.15c1.26,0.29,2.71,0.65,2.71,2.25c0,1.21-0.97,2.19-2.85,2.19
		c-1.18,0-2.19-0.36-2.92-1.14L92.11,235.09z"/>
	<path d="M102.28,229.44c2.19,0,3.48,1.71,3.48,3.88v0.29h-5.86c0.09,1.36,1.05,2.5,2.61,2.5c0.83,0,1.67-0.33,2.24-0.92l0.54,0.73
		c-0.72,0.72-1.7,1.11-2.88,1.11c-2.15,0-3.69-1.54-3.69-3.81C98.71,231.13,100.21,229.44,102.28,229.44z M99.89,232.78h4.75
		c-0.01-1.08-0.73-2.42-2.38-2.42C100.72,230.37,99.95,231.67,99.89,232.78z"/>
	<path d="M107.57,229.62h1.12v1.17c0.58-0.77,1.42-1.32,2.42-1.32v1.15c-0.14-0.03-0.27-0.04-0.45-0.04c-0.69,0-1.63,0.57-1.96,1.15
		v5.13h-1.12V229.62z"/>
</g>
<g>
	<path d="M12.06,282.51h6.55v1.11H13.3v3.22h5.2v1.11h-5.2v4.56h-1.25V282.51z"/>
	<path d="M20.07,283.29c0-0.42,0.34-0.75,0.75-0.75c0.42,0,0.76,0.33,0.76,0.75s-0.34,0.77-0.76,0.77
		C20.41,284.05,20.07,283.71,20.07,283.29z M20.26,285.27h1.12v7.24h-1.12V285.27z"/>
	<path d="M23.63,282.51h1.12v10h-1.12V282.51z"/>
	<path d="M27.24,291v-4.74h-1.2v-0.99h1.2v-1.98h1.12v1.98h1.47v0.99h-1.47v4.5c0,0.54,0.24,0.93,0.73,0.93
		c0.32,0,0.62-0.13,0.76-0.3l0.33,0.84c-0.28,0.27-0.69,0.47-1.35,0.47C27.78,292.69,27.24,292.08,27.24,291z"/>
	<path d="M34.57,285.09c2.19,0,3.48,1.71,3.48,3.88v0.29h-5.87c0.09,1.36,1.05,2.5,2.61,2.5c0.82,0,1.66-0.33,2.23-0.92l0.54,0.73
		c-0.72,0.72-1.7,1.11-2.88,1.11c-2.14,0-3.69-1.54-3.69-3.81C31,286.78,32.5,285.09,34.57,285.09z M32.18,288.43h4.75
		c-0.01-1.08-0.74-2.42-2.38-2.42C33.01,286.02,32.24,287.32,32.18,288.43z"/>
	<path d="M39.86,285.27h1.12v1.17c0.58-0.77,1.42-1.32,2.42-1.32v1.15c-0.13-0.03-0.27-0.04-0.45-0.04c-0.69,0-1.63,0.57-1.96,1.15
		v5.13h-1.12V285.27z"/>
	<path d="M53.57,291.49c-0.55,0.63-1.5,1.2-2.58,1.2c-1.51,0-2.31-0.74-2.31-2.31v-5.11h1.12v4.77c0,1.28,0.64,1.65,1.62,1.65
		c0.89,0,1.73-0.51,2.15-1.09v-5.32h1.12v7.24h-1.12V291.49z"/>
	<path d="M56.9,290.74c0.48,0.56,1.4,1.04,2.38,1.04c1.11,0,1.71-0.5,1.71-1.2c0-0.79-0.88-1.05-1.86-1.29
		c-1.23-0.28-2.62-0.61-2.62-2.11c0-1.12,0.97-2.08,2.7-2.08c1.23,0,2.1,0.47,2.69,1.05l-0.53,0.78c-0.43-0.52-1.23-0.92-2.16-0.92
		c-0.99,0-1.6,0.45-1.6,1.1c0,0.7,0.83,0.93,1.77,1.15c1.26,0.29,2.71,0.65,2.71,2.25c0,1.21-0.97,2.19-2.85,2.19
		c-1.18,0-2.19-0.36-2.92-1.14L56.9,290.74z"/>
	<path d="M67.07,285.09c2.19,0,3.48,1.71,3.48,3.88v0.29h-5.87c0.09,1.36,1.05,2.5,2.61,2.5c0.82,0,1.66-0.33,2.23-0.92l0.54,0.73
		c-0.72,0.72-1.7,1.11-2.88,1.11c-2.14,0-3.69-1.54-3.69-3.81C63.5,286.78,65,285.09,67.07,285.09z M64.69,288.43h4.75
		c-0.01-1.08-0.74-2.42-2.38-2.42C65.51,286.02,64.75,287.32,64.69,288.43z"/>
	<path d="M77.62,291.43c-0.54,0.73-1.42,1.26-2.45,1.26c-1.89,0-3.22-1.44-3.22-3.79c0-2.31,1.32-3.81,3.22-3.81
		c0.98,0,1.86,0.48,2.45,1.27v-3.85h1.12v10h-1.12V291.43z M77.62,287.26c-0.41-0.63-1.28-1.17-2.17-1.17
		c-1.46,0-2.33,1.2-2.33,2.81s0.87,2.79,2.33,2.79c0.9,0,1.77-0.51,2.17-1.14V287.26z"/>
</g>
<g>
	<path d="M12.06,317.83h6.55v1.11H13.3v3.22h5.2v1.11h-5.2v3.45h5.31v1.11h-6.55V317.83z"/>
	<path d="M25.79,326.76c-0.54,0.73-1.42,1.26-2.44,1.26c-1.89,0-3.22-1.44-3.22-3.79c0-2.31,1.32-3.81,3.22-3.81
		c0.98,0,1.86,0.48,2.44,1.27v-3.85h1.12v10h-1.12V326.76z M25.79,322.59c-0.4-0.63-1.27-1.17-2.17-1.17c-1.45,0-2.32,1.2-2.32,2.81
		s0.87,2.79,2.32,2.79c0.9,0,1.77-0.51,2.17-1.14V322.59z"/>
	<path d="M28.98,318.61c0-0.42,0.34-0.75,0.75-0.75c0.42,0,0.76,0.33,0.76,0.75s-0.34,0.77-0.76,0.77
		C29.32,319.38,28.98,319.03,28.98,318.61z M29.17,320.59h1.12v7.24h-1.12V320.59z"/>
	<path d="M32.77,326.32v-4.74h-1.2v-0.99h1.2v-1.98h1.12v1.98h1.47v0.99H33.9v4.5c0,0.54,0.24,0.93,0.73,0.93
		c0.31,0,0.61-0.13,0.76-0.3l0.33,0.84c-0.28,0.27-0.69,0.47-1.35,0.47C33.31,328.02,32.77,327.4,32.77,326.32z"/>
	<path d="M36.76,318.61c0-0.42,0.34-0.75,0.75-0.75c0.42,0,0.77,0.33,0.77,0.75s-0.34,0.77-0.77,0.77
		C37.1,319.38,36.76,319.03,36.76,318.61z M36.96,320.59h1.12v7.24h-1.12V320.59z"/>
	<path d="M45.22,323.1c0-1.27-0.65-1.68-1.62-1.68c-0.89,0-1.73,0.54-2.15,1.12v5.29h-1.12v-7.24h1.12v1.05
		c0.51-0.6,1.5-1.23,2.58-1.23c1.52,0,2.31,0.77,2.31,2.34v5.08h-1.12V323.1z"/>
	<path d="M49.15,328.86c0.6,0.72,1.32,0.99,2.35,0.99c1.2,0,2.33-0.58,2.33-2.17v-1.03c-0.52,0.73-1.41,1.29-2.43,1.29
		c-1.89,0-3.22-1.41-3.22-3.75c0-2.33,1.32-3.77,3.22-3.77c0.98,0,1.85,0.48,2.43,1.27v-1.09h1.12v7.03c0,2.4-1.68,3.15-3.45,3.15
		c-1.23,0-2.07-0.24-2.92-1.08L49.15,328.86z M53.83,322.59c-0.39-0.63-1.26-1.17-2.16-1.17c-1.45,0-2.32,1.16-2.32,2.76
		c0,1.59,0.87,2.76,2.32,2.76c0.9,0,1.77-0.56,2.16-1.19V322.59z"/>
	<path d="M61.03,326.07c0.48,0.56,1.4,1.04,2.38,1.04c1.11,0,1.71-0.5,1.71-1.2c0-0.79-0.88-1.05-1.86-1.29
		c-1.23-0.28-2.62-0.61-2.62-2.11c0-1.12,0.98-2.08,2.7-2.08c1.23,0,2.1,0.47,2.69,1.05l-0.52,0.78c-0.44-0.52-1.23-0.92-2.16-0.92
		c-0.99,0-1.6,0.45-1.6,1.1c0,0.7,0.82,0.93,1.77,1.15c1.26,0.29,2.71,0.65,2.71,2.25c0,1.21-0.97,2.19-2.85,2.19
		c-1.19,0-2.19-0.36-2.92-1.14L61.03,326.07z"/>
	<path d="M67.63,324.21c0-2.1,1.38-3.79,3.58-3.79c2.2,0,3.58,1.69,3.58,3.79s-1.38,3.81-3.58,3.81
		C69.01,328.02,67.63,326.31,67.63,324.21z M73.61,324.21c0-1.47-0.85-2.79-2.4-2.79s-2.42,1.32-2.42,2.79c0,1.48,0.87,2.8,2.42,2.8
		S73.61,325.69,73.61,324.21z"/>
	<path d="M76.94,321.58h-1.2v-0.99h1.2v-0.56c0-1.5,0.84-2.35,2.1-2.35c0.42,0,0.81,0.08,1.09,0.26l-0.29,0.84
		c-0.18-0.1-0.39-0.17-0.64-0.17c-0.74,0-1.14,0.51-1.14,1.42v0.56h1.47v0.99h-1.47v6.25h-1.12V321.58z"/>
	<path d="M81.1,326.32v-4.74h-1.2v-0.99h1.2v-1.98h1.12v1.98h1.47v0.99h-1.47v4.5c0,0.54,0.24,0.93,0.73,0.93
		c0.31,0,0.61-0.13,0.76-0.3l0.33,0.84c-0.28,0.27-0.69,0.47-1.35,0.47C81.64,328.02,81.1,327.4,81.1,326.32z"/>
	<path d="M89.66,322.02l-1.89,5.82h-1.12l-2.31-7.24h1.17l1.77,5.77l1.9-5.77h0.96l1.9,5.77l1.77-5.77h1.17l-2.31,7.24h-1.12
		L89.66,322.02z"/>
	<path d="M100.82,327.01c-0.6,0.66-1.42,1.01-2.4,1.01c-1.23,0-2.54-0.83-2.54-2.4c0-1.62,1.31-2.39,2.54-2.39
		c0.99,0,1.81,0.31,2.4,0.99v-1.31c0-0.97-0.78-1.53-1.83-1.53c-0.87,0-1.57,0.31-2.22,1l-0.52-0.78c0.78-0.81,1.71-1.2,2.89-1.2
		c1.53,0,2.81,0.69,2.81,2.44v4.98h-1.12V327.01z M100.82,324.94c-0.44-0.6-1.2-0.9-2-0.9c-1.05,0-1.78,0.66-1.78,1.59
		c0,0.92,0.73,1.58,1.78,1.58c0.79,0,1.56-0.3,2-0.9V324.94z"/>
	<path d="M104.2,320.59h1.12v1.17c0.58-0.77,1.42-1.32,2.42-1.32v1.15c-0.14-0.03-0.27-0.04-0.45-0.04c-0.69,0-1.63,0.57-1.96,1.15
		v5.13h-1.12V320.59z"/>
	<path d="M112.3,320.41c2.19,0,3.48,1.71,3.48,3.88v0.29h-5.86c0.09,1.36,1.05,2.5,2.61,2.5c0.82,0,1.66-0.33,2.23-0.92l0.54,0.73
		c-0.72,0.72-1.7,1.11-2.88,1.11c-2.15,0-3.69-1.54-3.69-3.81C108.73,322.11,110.23,320.41,112.3,320.41z M109.91,323.76h4.75
		c-0.01-1.08-0.73-2.42-2.38-2.42C110.74,321.34,109.97,322.65,109.91,323.76z"/>
	<path d="M126.35,326.82c-0.55,0.63-1.5,1.2-2.58,1.2c-1.52,0-2.31-0.74-2.31-2.31v-5.11h1.12v4.77c0,1.28,0.65,1.65,1.62,1.65
		c0.89,0,1.73-0.51,2.15-1.09v-5.32h1.12v7.24h-1.12V326.82z"/>
	<path d="M129.68,326.07c0.48,0.56,1.4,1.04,2.38,1.04c1.11,0,1.71-0.5,1.71-1.2c0-0.79-0.88-1.05-1.86-1.29
		c-1.23-0.28-2.62-0.61-2.62-2.11c0-1.12,0.98-2.08,2.7-2.08c1.23,0,2.1,0.47,2.69,1.05l-0.52,0.78c-0.44-0.52-1.23-0.92-2.16-0.92
		c-0.99,0-1.6,0.45-1.6,1.1c0,0.7,0.82,0.93,1.77,1.15c1.26,0.29,2.71,0.65,2.71,2.25c0,1.21-0.97,2.19-2.85,2.19
		c-1.19,0-2.19-0.36-2.92-1.14L129.68,326.07z"/>
	<path d="M139.85,320.41c2.19,0,3.48,1.71,3.48,3.88v0.29h-5.86c0.09,1.36,1.05,2.5,2.61,2.5c0.82,0,1.66-0.33,2.23-0.92l0.54,0.73
		c-0.72,0.72-1.7,1.11-2.88,1.11c-2.15,0-3.69-1.54-3.69-3.81C136.28,322.11,137.78,320.41,139.85,320.41z M137.47,323.76h4.75
		c-0.01-1.08-0.73-2.42-2.38-2.42C138.29,321.34,137.53,322.65,137.47,323.76z"/>
	<path d="M150.4,326.76c-0.54,0.73-1.42,1.26-2.44,1.26c-1.89,0-3.22-1.44-3.22-3.79c0-2.31,1.32-3.81,3.22-3.81
		c0.98,0,1.86,0.48,2.44,1.27v-3.85h1.12v10h-1.12V326.76z M150.4,322.59c-0.4-0.63-1.27-1.17-2.17-1.17c-1.45,0-2.32,1.2-2.32,2.81
		s0.87,2.79,2.32,2.79c0.9,0,1.77-0.51,2.17-1.14V322.59z"/>
</g>
<g>
	<path d="M17.88,386.27h-5.07l-0.88,2.22h-1.38l4.02-10h1.54l4.03,10h-1.38L17.88,386.27z M13.17,385.16h4.33l-2.16-5.56
		L13.17,385.16z"/>
	<path d="M21.4,378.48h1.12v10H21.4V378.48z"/>
	<path d="M24.73,386.72c0.48,0.55,1.4,1.03,2.38,1.03c1.11,0,1.71-0.49,1.71-1.2c0-0.79-0.88-1.05-1.86-1.29
		c-1.23-0.29-2.62-0.62-2.62-2.12c0-1.12,0.98-2.08,2.7-2.08c1.23,0,2.1,0.46,2.69,1.05l-0.52,0.78c-0.44-0.53-1.23-0.92-2.16-0.92
		c-0.99,0-1.6,0.45-1.6,1.09c0,0.71,0.82,0.93,1.77,1.16c1.26,0.29,2.71,0.64,2.71,2.25c0,1.21-0.97,2.19-2.85,2.19
		c-1.19,0-2.19-0.36-2.92-1.14L24.73,386.72z"/>
	<path d="M31.33,384.86c0-2.1,1.38-3.79,3.58-3.79c2.2,0,3.58,1.7,3.58,3.79s-1.38,3.81-3.58,3.81
		C32.71,388.67,31.33,386.96,31.33,384.86z M37.32,384.86c0-1.47-0.85-2.79-2.4-2.79s-2.42,1.32-2.42,2.79c0,1.49,0.87,2.8,2.42,2.8
		S37.32,386.34,37.32,384.86z"/>
	<path d="M44.2,391.25v-10h1.12v1.08c0.52-0.73,1.42-1.26,2.44-1.26c1.9,0,3.23,1.44,3.23,3.79c0,2.34-1.32,3.81-3.23,3.81
		c-0.99,0-1.86-0.46-2.44-1.27v3.85H44.2z M47.48,382.07c-0.88,0-1.77,0.53-2.16,1.16v3.27c0.39,0.63,1.27,1.17,2.16,1.17
		c1.46,0,2.33-1.2,2.33-2.8S48.94,382.07,47.48,382.07z"/>
	<path d="M52.39,384.86c0-2.1,1.38-3.79,3.58-3.79c2.2,0,3.58,1.7,3.58,3.79s-1.38,3.81-3.58,3.81
		C53.77,388.67,52.39,386.96,52.39,384.86z M58.38,384.86c0-1.47-0.85-2.79-2.4-2.79s-2.42,1.32-2.42,2.79c0,1.49,0.87,2.8,2.42,2.8
		S58.38,386.34,58.38,384.86z"/>
	<path d="M61.35,386.72c0.48,0.55,1.4,1.03,2.38,1.03c1.11,0,1.71-0.49,1.71-1.2c0-0.79-0.88-1.05-1.86-1.29
		c-1.23-0.29-2.62-0.62-2.62-2.12c0-1.12,0.98-2.08,2.7-2.08c1.23,0,2.1,0.46,2.69,1.05l-0.52,0.78c-0.44-0.53-1.23-0.92-2.16-0.92
		c-0.99,0-1.6,0.45-1.6,1.09c0,0.71,0.82,0.93,1.77,1.16c1.26,0.29,2.71,0.64,2.71,2.25c0,1.21-0.97,2.19-2.85,2.19
		c-1.19,0-2.19-0.36-2.92-1.14L61.35,386.72z"/>
	<path d="M68.59,386.97v-4.74h-1.2v-0.99h1.2v-1.98h1.12v1.98h1.47v0.99h-1.47v4.5c0,0.54,0.24,0.93,0.73,0.93
		c0.31,0,0.61-0.13,0.76-0.3l0.33,0.84c-0.28,0.27-0.69,0.46-1.35,0.46C69.13,388.67,68.59,388.05,68.59,386.97z"/>
	<path d="M76.87,386.97v-4.74h-1.2v-0.99h1.2v-1.98h1.12v1.98h1.47v0.99h-1.47v4.5c0,0.54,0.24,0.93,0.73,0.93
		c0.31,0,0.61-0.13,0.76-0.3l0.33,0.84c-0.28,0.27-0.69,0.46-1.35,0.46C77.41,388.67,76.87,388.05,76.87,386.97z"/>
	<path d="M80.63,384.86c0-2.1,1.38-3.79,3.58-3.79c2.2,0,3.58,1.7,3.58,3.79s-1.38,3.81-3.58,3.81
		C82.01,388.67,80.63,386.96,80.63,384.86z M86.62,384.86c0-1.47-0.85-2.79-2.4-2.79s-2.42,1.32-2.42,2.79c0,1.49,0.87,2.8,2.42,2.8
		S86.62,386.34,86.62,384.86z"/>
</g>
<g>
	<path d="M11.58,414.94h6.55v1.11h-5.31v3.22h5.21v1.11h-5.21v4.56h-1.25V414.94z"/>
	<path d="M24.31,424.12c-0.6,0.66-1.42,1-2.4,1c-1.23,0-2.53-0.82-2.53-2.4c0-1.62,1.3-2.38,2.53-2.38c0.99,0,1.82,0.31,2.4,0.99
		v-1.3c0-0.97-0.78-1.53-1.83-1.53c-0.87,0-1.58,0.32-2.22,1.01l-0.53-0.78c0.78-0.81,1.71-1.2,2.89-1.2c1.53,0,2.81,0.69,2.81,2.45
		v4.98h-1.12V424.12z M24.31,422.05c-0.44-0.6-1.2-0.9-2-0.9c-1.05,0-1.79,0.66-1.79,1.59c0,0.92,0.74,1.58,1.79,1.58
		c0.79,0,1.56-0.3,2-0.9V422.05z"/>
	<path d="M30.88,417.52c1.32,0,2.1,0.54,2.66,1.26l-0.75,0.69c-0.48-0.66-1.09-0.95-1.84-0.95c-1.54,0-2.5,1.19-2.5,2.79
		s0.96,2.8,2.5,2.8c0.75,0,1.36-0.3,1.84-0.94l0.75,0.69c-0.55,0.72-1.33,1.26-2.66,1.26c-2.16,0-3.61-1.65-3.61-3.81
		C27.27,419.17,28.72,417.52,30.88,417.52z"/>
	<path d="M38.26,417.52c2.19,0,3.48,1.71,3.48,3.88v0.29h-5.87c0.09,1.37,1.05,2.5,2.61,2.5c0.82,0,1.66-0.33,2.23-0.92l0.54,0.74
		c-0.72,0.72-1.7,1.11-2.88,1.11c-2.14,0-3.69-1.54-3.69-3.81C34.69,419.21,36.19,417.52,38.26,417.52z M35.88,420.86h4.75
		c-0.01-1.08-0.74-2.42-2.38-2.42C36.7,418.45,35.93,419.75,35.88,420.86z"/>
	<path d="M43.55,414.94h1.12v3.86c0.58-0.79,1.46-1.28,2.45-1.28c1.89,0,3.22,1.5,3.22,3.81c0,2.36-1.33,3.79-3.22,3.79
		c-1.02,0-1.91-0.52-2.45-1.26v1.08h-1.12V414.94z M46.84,424.12c1.47,0,2.34-1.18,2.34-2.79c0-1.6-0.87-2.8-2.34-2.8
		c-0.88,0-1.77,0.54-2.16,1.17v3.29C45.07,423.61,45.96,424.12,46.84,424.12z"/>
	<path d="M51.76,421.31c0-2.1,1.38-3.79,3.58-3.79s3.58,1.7,3.58,3.79s-1.38,3.81-3.58,3.81S51.76,423.41,51.76,421.31z
		 M57.75,421.31c0-1.47-0.86-2.79-2.4-2.79s-2.42,1.32-2.42,2.79c0,1.49,0.87,2.8,2.42,2.8S57.75,422.8,57.75,421.31z"/>
	<path d="M60.34,421.31c0-2.1,1.38-3.79,3.58-3.79s3.58,1.7,3.58,3.79s-1.38,3.81-3.58,3.81S60.34,423.41,60.34,421.31z
		 M66.33,421.31c0-1.47-0.86-2.79-2.4-2.79s-2.42,1.32-2.42,2.79c0,1.49,0.87,2.8,2.42,2.8S66.33,422.8,66.33,421.31z"/>
	<path d="M71.66,421.69l-1.2,1.18v2.07h-1.12v-10h1.12v6.62l3.81-3.86h1.42l-3.21,3.29l3.22,3.96h-1.44L71.66,421.69z"/>
</g>
<g>
	<path d="M14.05,460.4h-3.17v-1.11h7.59v1.11h-3.18v8.89h-1.24V460.4z"/>
	<path d="M23.44,463.48l-1.89,5.82h-1.12l-2.31-7.25h1.17l1.77,5.78l1.9-5.78h0.96l1.91,5.78l1.77-5.78h1.17l-2.31,7.25h-1.12
		L23.44,463.48z"/>
	<path d="M29.88,460.07c0-0.42,0.34-0.75,0.75-0.75c0.42,0,0.76,0.33,0.76,0.75s-0.34,0.76-0.76,0.76
		C30.22,460.84,29.88,460.49,29.88,460.07z M30.07,462.05h1.12v7.25h-1.12V462.05z"/>
	<path d="M33.67,467.78v-4.74h-1.2v-0.99h1.2v-1.98h1.12v1.98h1.47v0.99h-1.47v4.5c0,0.54,0.24,0.93,0.74,0.93
		c0.31,0,0.61-0.13,0.76-0.3l0.33,0.84c-0.29,0.27-0.69,0.46-1.35,0.46C34.21,469.48,33.67,468.86,33.67,467.78z"/>
	<path d="M38.08,467.78v-4.74h-1.2v-0.99h1.2v-1.98h1.12v1.98h1.47v0.99h-1.47v4.5c0,0.54,0.24,0.93,0.74,0.93
		c0.31,0,0.61-0.13,0.76-0.3l0.33,0.84c-0.29,0.27-0.69,0.46-1.35,0.46C38.62,469.48,38.08,468.86,38.08,467.78z"/>
	<path d="M45.42,461.87c2.19,0,3.48,1.71,3.48,3.88v0.29h-5.86c0.09,1.37,1.05,2.5,2.61,2.5c0.83,0,1.67-0.33,2.24-0.92l0.54,0.74
		c-0.72,0.72-1.7,1.11-2.88,1.11c-2.15,0-3.69-1.54-3.69-3.81C41.84,463.57,43.34,461.87,45.42,461.87z M43.03,465.22h4.75
		c-0.01-1.08-0.73-2.42-2.38-2.42C43.85,462.8,43.09,464.11,43.03,465.22z"/>
	<path d="M50.71,462.05h1.12v1.17c0.58-0.76,1.42-1.32,2.42-1.32v1.16c-0.14-0.03-0.27-0.05-0.45-0.05c-0.69,0-1.63,0.57-1.96,1.16
		v5.13h-1.12V462.05z"/>
</g>
<g>
	<path d="M14.05,504.12h-3.17v-1.11h7.59v1.11H15.3v8.89h-1.24V504.12z"/>
	<path d="M23.7,511.99c-0.55,0.63-1.5,1.2-2.58,1.2c-1.52,0-2.31-0.73-2.31-2.31v-5.12h1.12v4.77c0,1.27,0.65,1.65,1.62,1.65
		c0.89,0,1.73-0.51,2.15-1.09v-5.33h1.12v7.25H23.7V511.99z"/>
	<path d="M35.82,508.09c0-0.92-0.4-1.5-1.33-1.5c-0.75,0-1.54,0.54-1.92,1.11v5.31h-1.12v-4.92c0-0.92-0.39-1.5-1.33-1.5
		c-0.73,0-1.52,0.54-1.9,1.12v5.29h-1.12v-7.25h1.12v1.05c0.3-0.47,1.27-1.23,2.34-1.23c1.11,0,1.74,0.6,1.95,1.35
		c0.41-0.66,1.38-1.35,2.43-1.35c1.32,0,2.02,0.74,2.02,2.19v5.23h-1.12V508.09z"/>
	<path d="M39.19,503.01h1.12v3.86c0.58-0.79,1.46-1.28,2.44-1.28c1.89,0,3.23,1.5,3.23,3.81c0,2.36-1.33,3.79-3.23,3.79
		c-1.02,0-1.9-0.52-2.44-1.26v1.08h-1.12V503.01z M42.48,512.19c1.47,0,2.34-1.18,2.34-2.79c0-1.6-0.87-2.8-2.34-2.8
		c-0.88,0-1.77,0.54-2.16,1.17v3.29C40.71,511.68,41.59,512.19,42.48,512.19z"/>
	<path d="M47.82,503.01h1.12v10h-1.12V503.01z"/>
	<path d="M51.19,505.77h1.12v1.17c0.58-0.76,1.42-1.32,2.42-1.32v1.15c-0.14-0.03-0.27-0.04-0.45-0.04c-0.69,0-1.63,0.57-1.96,1.16
		v5.13h-1.12V505.77z"/>
</g>
<path class="st1" d="M321.59,280.07h9.6c4.64,0,8.4,3.13,8.4,7l0,0c0,3.87-3.76,7-8.4,7h-9.6c-4.64,0-8.4-3.13-8.4-7l0,0
	C313.19,283.2,316.95,280.07,321.59,280.07z"/>
<ellipse class="st1" cx="321.59" cy="287.07" rx="3.6" ry="3"/>
<path class="st1" d="M321.59,316.34h9.6c4.64,0,8.4,3.13,8.4,7l0,0c0,3.87-3.76,7-8.4,7h-9.6c-4.64,0-8.4-3.13-8.4-7l0,0
	C313.19,319.47,316.95,316.34,321.59,316.34z"/>
<ellipse class="st1" cx="321.59" cy="323.34" rx="3.6" ry="3"/>
<path class="st1" d="M321.31,412.42h9.6c4.64,0,8.4,3.13,8.4,7l0,0c0,3.87-3.76,7-8.4,7h-9.6c-4.64,0-8.4-3.13-8.4-7l0,0
	C312.91,415.56,316.67,412.42,321.31,412.42z"/>
<ellipse class="st1" cx="321.31" cy="419.42" rx="3.6" ry="3"/>
<path class="st1" d="M321.31,456.82h9.6c4.64,0,8.4,3.13,8.4,7l0,0c0,3.87-3.76,7-8.4,7h-9.6c-4.64,0-8.4-3.13-8.4-7l0,0
	C312.91,459.96,316.67,456.82,321.31,456.82z"/>
<ellipse class="st1" cx="321.31" cy="463.82" rx="3.6" ry="3"/>
<path class="st1" d="M321.31,501.23h9.6c4.64,0,8.4,3.13,8.4,7l0,0c0,3.87-3.76,7-8.4,7h-9.6c-4.64,0-8.4-3.13-8.4-7l0,0
	C312.91,504.36,316.67,501.23,321.31,501.23z"/>
<ellipse class="st1" cx="321.31" cy="508.23" rx="3.6" ry="3"/>
<g>
</g>
<g>
</g>
<g>
</g>
<g>
</g>
<g>
</g>
<g>
</g>
</svg>
