<?xml version="1.0" encoding="utf-8"?>
<!-- Generator: Adobe Illustrator 25.2.1, SVG Export Plug-In . SVG Version: 6.00 Build 0)  -->
<svg version="1.1" id="Layer_1" xmlns="http://www.w3.org/2000/svg" xmlns:xlink="http://www.w3.org/1999/xlink" x="0px" y="0px"
	 viewBox="0 0 24 24" style="enable-background:new 0 0 24 24;" xml:space="preserve">
<style type="text/css">
	.st0{display:none;fill:none;stroke:#2B0054;stroke-width:2;stroke-linecap:round;stroke-linejoin:round;}
	.st1{fill:none;stroke:#2B0054;stroke-width:2;stroke-linecap:round;stroke-linejoin:round;}
</style>
<circle class="st0" cx="12" cy="12" r="10"/>
<path class="st0" d="M20.2,6.2c-2-1.8-5.2-1.8-7.2,0l0,0l-0.9,1.1l-0.9-1.1c-2-1.8-5.2-1.8-7.2,0s-2,5.2,0,7L5,14.1l7,7l7-7l0.9-0.9
	C22.2,11.4,22.2,8.2,20.2,6.2L20.2,6.2z"/>
<polyline class="st0" points="8.4,13.5 12,17 15.6,13.5 "/>
<polyline class="st0" points="8.4,8.5 12,12 15.6,8.5 "/>
<path class="st0" d="M17.7,8c0-3.2-2.5-5.7-5.7-5.7S6.3,4.8,6.3,8c0,6.7-2.9,8.6-2.9,8.6h17.1C20.6,16.6,17.7,14.7,17.7,8"/>
<path class="st0" d="M13.7,20.1C13.1,20.9,12,21,11,20.7c-0.4-0.2-0.6-0.3-0.8-0.6"/>
<path class="st0" d="M14.2,8.1c0.5-0.5,1.2-0.5,1.7,0s0.5,1.2,0,1.7l0,0l-5.7,5.7l-2.3,0.6l0.6-2.3L14.2,8.1z"/>
<path class="st1" d="M11.5,6.2H6.4C5.6,6.2,5,6.9,5,7.7v10.2c0,0.8,0.7,1.5,1.5,1.5h10.2c0.8,0,1.5-0.7,1.5-1.5v-5.1"/>
<path class="st1" d="M17,5.1c0.6-0.6,1.6-0.6,2.2,0s0.6,1.6,0,2.2l-6.9,6.9L9.3,15l0.7-2.9L17,5.1z"/>
</svg>
