<?xml version="1.0" encoding="utf-8"?>
<!-- Generator: Adobe Illustrator 25.2.1, SVG Export Plug-In . SVG Version: 6.00 Build 0)  -->
<svg version="1.1" id="Layer_1" xmlns="http://www.w3.org/2000/svg" xmlns:xlink="http://www.w3.org/1999/xlink" x="0px" y="0px"
	 viewBox="0 0 24 24" style="enable-background:new 0 0 24 24;" xml:space="preserve">
<style type="text/css">
	.st0{fill:none;stroke:#2B0054;stroke-width:2;stroke-linecap:round;stroke-linejoin:round;}
	.st1{display:none;fill:none;stroke:#2B0054;stroke-width:2;stroke-linecap:round;stroke-linejoin:round;}
</style>
<circle class="st0" cx="12" cy="12" r="10"/>
<path class="st0" d="M16.5,9C15.4,8,13.6,8,12.5,9c0,0,0,0,0,0L12,9.6L11.5,9C10.4,8,8.6,8,7.5,9s-1.1,2.9,0,3.9l0.5,0.5l3.9,3.9
	l3.9-3.9l0.5-0.5C17.6,11.9,17.6,10.1,16.5,9C16.5,9,16.5,9,16.5,9z"/>
<polyline class="st1" points="8.4,13.5 12,17 15.6,13.5 "/>
<polyline class="st1" points="8.4,8.5 12,12 15.6,8.5 "/>
<path class="st1" d="M15,9.4c0-1.7-1.3-3-3-3s-3,1.3-3,3c0,3.5-1.5,4.5-1.5,4.5h9C16.5,13.9,15,12.9,15,9.4"/>
<path class="st1" d="M12.9,17.1c-0.3,0.5-0.9,0.6-1.4,0.4c-0.2-0.1-0.3-0.2-0.4-0.4"/>
<path class="st1" d="M14.2,8.1c0.5-0.5,1.2-0.5,1.7,0c0.5,0.5,0.5,1.2,0,1.7l0,0l-5.7,5.7l-2.3,0.6l0.6-2.3L14.2,8.1z"/>
</svg>
