<?xml version="1.0" encoding="utf-8"?>
<!-- Generator: Adobe Illustrator 25.2.1, SVG Export Plug-In . SVG Version: 6.00 Build 0)  -->
<svg version="1.1" id="Layer_1" xmlns="http://www.w3.org/2000/svg" xmlns:xlink="http://www.w3.org/1999/xlink" x="0px" y="0px"
	 viewBox="0 0 360 710" style="enable-background:new 0 0 360 710;" xml:space="preserve">
<style type="text/css">
	.st0{fill:none;stroke:#020203;stroke-width:2;stroke-linecap:round;stroke-linejoin:round;}
	.st1{fill:none;stroke:#C6C6C6;stroke-width:2;stroke-linecap:round;stroke-linejoin:round;}
	.st2{fill:none;stroke:#000000;stroke-width:2;stroke-miterlimit:10;}
	.st3{fill:#878787;}
	.st4{stroke:#020203;stroke-width:2;stroke-linecap:round;stroke-linejoin:round;}
</style>
<line class="st0" x1="28.06" y1="18.72" x2="14.71" y2="18.72"/>
<polyline class="st0" points="20.48,24.49 14.71,18.72 20.48,12.96 "/>
<line class="st1" x1="0.15" y1="42.73" x2="359.38" y2="43.39"/>
<g>
	<path d="M24.39,71.98c-0.12,1.61-0.71,2.87-1.78,3.79c-1.07,0.92-2.48,1.38-4.23,1.38c-1.91,0-3.42-0.64-4.52-1.93
		c-1.1-1.29-1.65-3.06-1.65-5.31v-0.91c0-1.44,0.25-2.7,0.76-3.79s1.23-1.93,2.17-2.52c0.94-0.58,2.03-0.88,3.28-0.88
		c1.72,0,3.11,0.46,4.16,1.38s1.66,2.22,1.83,3.89h-3.08c-0.08-0.96-0.34-1.66-0.81-2.1c-0.46-0.43-1.16-0.65-2.11-0.65
		c-1.03,0-1.79,0.37-2.3,1.1s-0.77,1.87-0.78,3.42v1.13c0,1.61,0.24,2.79,0.73,3.54c0.49,0.75,1.26,1.12,2.31,1.12
		c0.95,0,1.66-0.22,2.13-0.65s0.74-1.11,0.81-2.02H24.39z"/>
	<path d="M25.76,71.3c0-1.1,0.21-2.08,0.64-2.94s1.03-1.53,1.83-2s1.72-0.71,2.77-0.71c1.5,0,2.72,0.46,3.67,1.37
		s1.48,2.16,1.58,3.73l0.02,0.76c0,1.7-0.48,3.07-1.43,4.1s-2.23,1.54-3.82,1.54s-2.88-0.51-3.83-1.54
		c-0.95-1.03-1.43-2.42-1.43-4.18V71.3z M28.72,71.51c0,1.05,0.2,1.86,0.59,2.42s0.96,0.84,1.7,0.84c0.72,0,1.28-0.28,1.68-0.83
		s0.6-1.43,0.6-2.64c0-1.03-0.2-1.83-0.6-2.4c-0.4-0.57-0.97-0.85-1.7-0.85c-0.72,0-1.29,0.28-1.68,0.85S28.72,70.33,28.72,71.51z"
		/>
	<path d="M40.82,65.86l0.09,1.28c0.79-0.99,1.86-1.49,3.19-1.49c1.18,0,2.05,0.35,2.62,1.04s0.87,1.72,0.88,3.1v7.17h-2.96v-7.11
		c0-0.63-0.14-1.09-0.41-1.37c-0.27-0.28-0.73-0.43-1.36-0.43c-0.83,0-1.46,0.36-1.88,1.07v7.84h-2.96V65.86H40.82z"/>
	<path d="M53.4,63.13v2.73h1.9v2.17h-1.9v5.54c0,0.41,0.08,0.7,0.24,0.88s0.46,0.27,0.9,0.27c0.33,0,0.62-0.02,0.87-0.07v2.25
		c-0.58,0.18-1.18,0.27-1.79,0.27c-2.08,0-3.14-1.05-3.18-3.15v-5.98h-1.62v-2.17h1.62v-2.73H53.4z"/>
	<path d="M62.06,77.16c-1.63,0-2.95-0.5-3.97-1.5c-1.02-1-1.53-2.33-1.53-3.99v-0.29c0-1.11,0.22-2.11,0.65-2.99
		s1.04-1.56,1.83-2.03c0.79-0.48,1.69-0.71,2.7-0.71c1.52,0,2.71,0.48,3.58,1.44c0.87,0.96,1.31,2.31,1.31,4.07v1.21h-7.06
		c0.1,0.72,0.38,1.31,0.87,1.74c0.48,0.44,1.09,0.66,1.83,0.66c1.14,0,2.03-0.41,2.68-1.24l1.46,1.63c-0.44,0.63-1.05,1.12-1.8,1.47
		C63.82,76.98,62.98,77.16,62.06,77.16z M61.72,68.04c-0.59,0-1.06,0.2-1.43,0.6c-0.37,0.4-0.6,0.97-0.7,1.71h4.12v-0.24
		c-0.01-0.66-0.19-1.17-0.53-1.53C62.83,68.22,62.35,68.04,61.72,68.04z"/>
	<path d="M71.03,65.86l0.09,1.28c0.79-0.99,1.86-1.49,3.19-1.49c1.18,0,2.05,0.35,2.62,1.04s0.87,1.72,0.88,3.1v7.17h-2.96v-7.11
		c0-0.63-0.14-1.09-0.41-1.37c-0.27-0.28-0.73-0.43-1.36-0.43c-0.83,0-1.46,0.36-1.88,1.07v7.84h-2.96V65.86H71.03z"/>
	<path d="M83.61,63.13v2.73h1.9v2.17h-1.9v5.54c0,0.41,0.08,0.7,0.24,0.88s0.46,0.27,0.9,0.27c0.33,0,0.62-0.02,0.87-0.07v2.25
		c-0.58,0.18-1.18,0.27-1.79,0.27c-2.08,0-3.14-1.05-3.18-3.15v-5.98h-1.62v-2.17h1.62v-2.73H83.61z"/>
</g>
<g>
	<path d="M24.03,120.27c-0.11,1.45-0.64,2.6-1.61,3.43c-0.97,0.83-2.24,1.25-3.83,1.25c-1.73,0-3.09-0.58-4.09-1.75
		c-0.99-1.17-1.49-2.77-1.49-4.8v-0.83c0-1.3,0.23-2.44,0.69-3.43c0.46-0.99,1.11-1.75,1.96-2.28c0.85-0.53,1.84-0.79,2.96-0.79
		c1.56,0,2.81,0.42,3.77,1.25c0.95,0.83,1.5,2.01,1.65,3.52h-2.78c-0.07-0.87-0.31-1.5-0.73-1.9c-0.42-0.39-1.05-0.59-1.91-0.59
		c-0.93,0-1.62,0.33-2.08,1c-0.46,0.67-0.7,1.7-0.71,3.09v1.02c0,1.46,0.22,2.53,0.66,3.2c0.44,0.67,1.14,1.01,2.09,1.01
		c0.86,0,1.5-0.2,1.93-0.59c0.42-0.39,0.67-1,0.73-1.82H24.03z"/>
	<path d="M25.27,119.66c0-1,0.19-1.88,0.58-2.66c0.38-0.78,0.94-1.38,1.66-1.81c0.72-0.43,1.56-0.64,2.51-0.64
		c1.35,0,2.46,0.41,3.32,1.24c0.86,0.83,1.33,1.95,1.43,3.38l0.02,0.69c0,1.54-0.43,2.78-1.29,3.71c-0.86,0.93-2.01,1.4-3.46,1.4
		s-2.6-0.46-3.47-1.39c-0.86-0.93-1.29-2.19-1.29-3.79V119.66z M27.95,119.85c0,0.95,0.18,1.68,0.54,2.19
		c0.36,0.5,0.87,0.76,1.54,0.76c0.65,0,1.16-0.25,1.52-0.75c0.36-0.5,0.55-1.3,0.55-2.39c0-0.94-0.18-1.66-0.55-2.17
		c-0.37-0.51-0.88-0.77-1.54-0.77c-0.66,0-1.16,0.26-1.52,0.77C28.13,117.99,27.95,118.78,27.95,119.85z"/>
	<path d="M38.89,114.73l0.08,1.16c0.72-0.9,1.68-1.35,2.89-1.35c1.06,0,1.86,0.31,2.38,0.94c0.52,0.62,0.79,1.56,0.8,2.8v6.48h-2.68
		v-6.43c0-0.57-0.12-0.98-0.37-1.24c-0.25-0.26-0.66-0.39-1.23-0.39c-0.75,0-1.32,0.32-1.7,0.97v7.1h-2.68v-10.04H38.89z"/>
	<path d="M50.28,112.27v2.47h1.72v1.97h-1.72v5.01c0,0.37,0.07,0.64,0.21,0.8c0.14,0.16,0.41,0.24,0.82,0.24
		c0.3,0,0.56-0.02,0.79-0.06v2.03c-0.53,0.16-1.07,0.24-1.62,0.24c-1.88,0-2.84-0.95-2.88-2.85v-5.41h-1.47v-1.97h1.47v-2.47H50.28z
		"/>
	<path d="M58.11,124.96c-1.47,0-2.67-0.45-3.6-1.35c-0.92-0.9-1.39-2.11-1.39-3.61v-0.26c0-1.01,0.19-1.91,0.58-2.7
		c0.39-0.79,0.94-1.41,1.66-1.84c0.71-0.43,1.53-0.64,2.44-0.64c1.37,0,2.45,0.43,3.24,1.3c0.79,0.87,1.18,2.09,1.18,3.68v1.09
		h-6.39c0.09,0.66,0.35,1.18,0.78,1.58c0.44,0.4,0.99,0.59,1.66,0.59c1.03,0,1.84-0.37,2.42-1.12l1.32,1.48
		c-0.4,0.57-0.95,1.01-1.63,1.33C59.7,124.8,58.94,124.96,58.11,124.96z M57.8,116.71c-0.53,0-0.96,0.18-1.29,0.54
		c-0.33,0.36-0.54,0.88-0.64,1.55h3.73v-0.21c-0.01-0.6-0.17-1.06-0.48-1.38C58.81,116.87,58.37,116.71,57.8,116.71z"/>
	<path d="M66.23,114.73l0.08,1.16c0.72-0.9,1.68-1.35,2.89-1.35c1.06,0,1.86,0.31,2.38,0.94c0.52,0.62,0.79,1.56,0.8,2.8v6.48h-2.68
		v-6.43c0-0.57-0.12-0.98-0.37-1.24c-0.25-0.26-0.66-0.39-1.23-0.39c-0.75,0-1.32,0.32-1.7,0.97v7.1H63.7v-10.04H66.23z"/>
	<path d="M77.61,112.27v2.47h1.72v1.97h-1.72v5.01c0,0.37,0.07,0.64,0.21,0.8c0.14,0.16,0.41,0.24,0.82,0.24
		c0.3,0,0.56-0.02,0.79-0.06v2.03c-0.53,0.16-1.07,0.24-1.62,0.24c-1.88,0-2.84-0.95-2.88-2.85v-5.41h-1.47v-1.97h1.47v-2.47H77.61z
		"/>
	<path d="M86.28,124.77v-8.07h-1.49v-1.97h1.49v-0.85c0-1.13,0.32-2,0.97-2.62c0.65-0.62,1.55-0.93,2.71-0.93
		c0.37,0,0.83,0.06,1.36,0.18l-0.03,2.06c-0.22-0.06-0.5-0.08-0.82-0.08c-1.01,0-1.51,0.48-1.51,1.43v0.81h1.99v1.97h-1.99v8.07
		H86.28z"/>
	<path d="M92.34,112.14c0-0.4,0.13-0.73,0.4-0.99c0.27-0.26,0.64-0.39,1.1-0.39c0.46,0,0.82,0.13,1.09,0.39
		c0.27,0.26,0.41,0.59,0.41,0.99c0,0.41-0.14,0.74-0.41,1c-0.28,0.26-0.64,0.39-1.09,0.39c-0.45,0-0.81-0.13-1.09-0.39
		C92.48,112.88,92.34,112.54,92.34,112.14z M95.19,124.77H92.5v-10.04h2.69V124.77z"/>
	<path d="M100.23,124.77h-2.69v-14.25h2.69V124.77z"/>
	<path d="M105.65,112.27v2.47h1.72v1.97h-1.72v5.01c0,0.37,0.07,0.64,0.21,0.8c0.14,0.16,0.41,0.24,0.82,0.24
		c0.3,0,0.56-0.02,0.79-0.06v2.03c-0.53,0.16-1.07,0.24-1.62,0.24c-1.88,0-2.84-0.95-2.88-2.85v-5.41h-1.47v-1.97h1.47v-2.47H105.65
		z"/>
	<path d="M113.48,124.96c-1.47,0-2.67-0.45-3.6-1.35c-0.92-0.9-1.39-2.11-1.39-3.61v-0.26c0-1.01,0.19-1.91,0.58-2.7
		c0.39-0.79,0.94-1.41,1.66-1.84c0.71-0.43,1.53-0.64,2.44-0.64c1.37,0,2.45,0.43,3.24,1.3c0.79,0.87,1.18,2.09,1.18,3.68v1.09
		h-6.39c0.09,0.66,0.35,1.18,0.78,1.58c0.44,0.4,0.99,0.59,1.66,0.59c1.03,0,1.84-0.37,2.42-1.12l1.32,1.48
		c-0.4,0.57-0.95,1.01-1.63,1.33C115.07,124.8,114.31,124.96,113.48,124.96z M113.17,116.71c-0.53,0-0.96,0.18-1.29,0.54
		c-0.33,0.36-0.54,0.88-0.64,1.55h3.73v-0.21c-0.01-0.6-0.17-1.06-0.48-1.38C114.18,116.87,113.74,116.71,113.17,116.71z"/>
	<path d="M124.77,117.25c-0.37-0.05-0.69-0.07-0.96-0.07c-1.01,0-1.68,0.34-1.99,1.03v6.57h-2.68v-10.04h2.53l0.07,1.2
		c0.54-0.92,1.28-1.38,2.24-1.38c0.3,0,0.58,0.04,0.83,0.12L124.77,117.25z"/>
</g>
<path class="st2" d="M328.15,179.06H28.06c-10.1,0-18.29-8.19-18.29-18.29v0c0-10.1,8.19-18.29,18.29-18.29h300.09
	c10.1,0,18.29,8.19,18.29,18.29v0C346.44,170.87,338.25,179.06,328.15,179.06z"/>
<g>
	<path class="st3" d="M25.71,161.78h-3.88v4.08h-1.22v-9.24h5.73v1h-4.51v3.17h3.88V161.78z"/>
	<path class="st3" d="M27.62,157.17c0-0.19,0.06-0.35,0.17-0.48c0.12-0.13,0.29-0.2,0.52-0.2s0.4,0.07,0.52,0.2s0.18,0.29,0.18,0.48
		s-0.06,0.35-0.18,0.48s-0.29,0.19-0.52,0.19s-0.4-0.06-0.52-0.19C27.68,157.52,27.62,157.36,27.62,157.17z M28.89,165.86h-1.17
		v-6.87h1.17V165.86z"/>
	<path class="st3" d="M32.04,165.86h-1.17v-9.75h1.17V165.86z"/>
	<path class="st3" d="M35.52,157.33v1.66h1.28v0.91h-1.28v4.26c0,0.28,0.06,0.48,0.17,0.62s0.31,0.21,0.58,0.21
		c0.14,0,0.32-0.03,0.56-0.08v0.95c-0.31,0.08-0.61,0.13-0.9,0.13c-0.52,0-0.92-0.16-1.19-0.48s-0.4-0.77-0.4-1.35v-4.26h-1.25
		v-0.91h1.25v-1.66H35.52z"/>
	<path class="st3" d="M41.02,165.98c-0.93,0-1.69-0.31-2.27-0.92c-0.58-0.61-0.88-1.43-0.88-2.45v-0.22c0-0.68,0.13-1.29,0.39-1.82
		c0.26-0.54,0.62-0.95,1.09-1.26c0.47-0.3,0.97-0.45,1.52-0.45c0.89,0,1.59,0.29,2.08,0.88s0.74,1.43,0.74,2.53v0.49h-4.65
		c0.02,0.68,0.21,1.22,0.59,1.64c0.38,0.42,0.86,0.63,1.44,0.63c0.41,0,0.77-0.08,1.05-0.25s0.54-0.39,0.76-0.67l0.72,0.56
		C43.03,165.54,42.17,165.98,41.02,165.98z M40.87,159.83c-0.47,0-0.87,0.17-1.19,0.52c-0.32,0.34-0.52,0.83-0.6,1.45h3.44v-0.09
		c-0.03-0.6-0.19-1.06-0.48-1.39C41.75,159.99,41.36,159.83,40.87,159.83z"/>
	<path class="st3" d="M48.38,160.04c-0.18-0.03-0.37-0.04-0.58-0.04c-0.77,0-1.29,0.33-1.57,0.98v4.88h-1.17v-6.87h1.14l0.02,0.79
		c0.39-0.61,0.93-0.92,1.64-0.92c0.23,0,0.4,0.03,0.52,0.09V160.04z"/>
	<path class="st3" d="M52.36,162.36c0-0.67,0.13-1.28,0.4-1.82c0.26-0.54,0.63-0.95,1.1-1.24c0.47-0.29,1.01-0.44,1.62-0.44
		c0.94,0,1.69,0.32,2.27,0.97c0.58,0.65,0.87,1.51,0.87,2.58v0.08c0,0.67-0.13,1.27-0.38,1.8c-0.26,0.53-0.62,0.94-1.1,1.24
		c-0.48,0.3-1.02,0.44-1.64,0.44c-0.93,0-1.69-0.32-2.26-0.97c-0.58-0.65-0.87-1.5-0.87-2.57V162.36z M53.54,162.5
		c0,0.76,0.18,1.37,0.53,1.83c0.35,0.46,0.83,0.69,1.42,0.69c0.6,0,1.07-0.23,1.42-0.7c0.35-0.47,0.53-1.12,0.53-1.96
		c0-0.75-0.18-1.36-0.54-1.83c-0.36-0.47-0.83-0.7-1.42-0.7c-0.58,0-1.05,0.23-1.4,0.69S53.54,161.64,53.54,162.5z"/>
	<path class="st3" d="M64.33,165.18c-0.46,0.54-1.13,0.81-2.01,0.81c-0.73,0-1.29-0.21-1.67-0.64c-0.38-0.43-0.58-1.06-0.58-1.89
		v-4.47h1.17v4.44c0,1.04,0.42,1.56,1.27,1.56c0.9,0,1.49-0.33,1.79-1v-5h1.17v6.87h-1.12L64.33,165.18z"/>
	<path class="st3" d="M68.85,157.33v1.66h1.28v0.91h-1.28v4.26c0,0.28,0.06,0.48,0.17,0.62s0.31,0.21,0.58,0.21
		c0.14,0,0.32-0.03,0.56-0.08v0.95c-0.31,0.08-0.61,0.13-0.9,0.13c-0.52,0-0.92-0.16-1.19-0.48s-0.4-0.77-0.4-1.35v-4.26h-1.25
		v-0.91h1.25v-1.66H68.85z"/>
	<path class="st3" d="M80.8,164.24l1.32-5.25h1.17l-2,6.87h-0.95l-1.67-5.21l-1.62,5.21H76.1l-1.99-6.87h1.17l1.35,5.14l1.6-5.14
		h0.95L80.8,164.24z"/>
	<path class="st3" d="M84.18,162.36c0-0.67,0.13-1.28,0.4-1.82c0.26-0.54,0.63-0.95,1.1-1.24c0.47-0.29,1.01-0.44,1.62-0.44
		c0.94,0,1.69,0.32,2.27,0.97c0.58,0.65,0.87,1.51,0.87,2.58v0.08c0,0.67-0.13,1.27-0.38,1.8c-0.26,0.53-0.62,0.94-1.1,1.24
		c-0.48,0.3-1.02,0.44-1.64,0.44c-0.93,0-1.69-0.32-2.26-0.97c-0.58-0.65-0.87-1.5-0.87-2.57V162.36z M85.36,162.5
		c0,0.76,0.18,1.37,0.53,1.83c0.35,0.46,0.83,0.69,1.42,0.69c0.6,0,1.07-0.23,1.42-0.7c0.35-0.47,0.53-1.12,0.53-1.96
		c0-0.75-0.18-1.36-0.54-1.83c-0.36-0.47-0.83-0.7-1.42-0.7c-0.58,0-1.05,0.23-1.4,0.69S85.36,161.64,85.36,162.5z"/>
	<path class="st3" d="M95.22,160.04c-0.18-0.03-0.37-0.04-0.58-0.04c-0.77,0-1.29,0.33-1.57,0.98v4.88H91.9v-6.87h1.14l0.02,0.79
		c0.39-0.61,0.93-0.92,1.64-0.92c0.23,0,0.4,0.03,0.52,0.09V160.04z"/>
	<path class="st3" d="M95.89,162.37c0-1.05,0.25-1.9,0.75-2.54c0.5-0.64,1.15-0.96,1.96-0.96c0.8,0,1.44,0.27,1.91,0.83v-3.58h1.17
		v9.75h-1.08l-0.06-0.74c-0.47,0.58-1.12,0.86-1.96,0.86c-0.8,0-1.44-0.33-1.95-0.98c-0.5-0.65-0.75-1.5-0.75-2.55V162.37z
		 M97.07,162.5c0,0.78,0.16,1.39,0.48,1.83s0.77,0.66,1.33,0.66c0.74,0,1.29-0.33,1.63-1v-3.15c-0.35-0.65-0.89-0.97-1.62-0.97
		c-0.58,0-1.02,0.22-1.35,0.67S97.07,161.63,97.07,162.5z"/>
	<path class="st3" d="M107.51,164.04c0-0.32-0.12-0.56-0.36-0.74c-0.24-0.18-0.66-0.33-1.25-0.45c-0.59-0.13-1.07-0.28-1.42-0.46
		c-0.35-0.18-0.61-0.39-0.77-0.63c-0.17-0.25-0.25-0.54-0.25-0.88c0-0.56,0.24-1.04,0.71-1.43c0.48-0.39,1.08-0.58,1.83-0.58
		c0.78,0,1.41,0.2,1.89,0.6c0.48,0.4,0.73,0.92,0.73,1.54h-1.18c0-0.32-0.14-0.6-0.41-0.83c-0.27-0.23-0.62-0.35-1.03-0.35
		c-0.43,0-0.76,0.09-1,0.28s-0.36,0.43-0.36,0.73c0,0.28,0.11,0.5,0.34,0.64s0.63,0.28,1.22,0.41c0.59,0.13,1.06,0.29,1.42,0.47
		s0.63,0.4,0.81,0.66c0.18,0.26,0.26,0.57,0.26,0.94c0,0.61-0.25,1.11-0.74,1.48c-0.49,0.37-1.13,0.56-1.91,0.56
		c-0.55,0-1.04-0.1-1.46-0.29s-0.75-0.47-0.99-0.82c-0.24-0.35-0.36-0.73-0.36-1.13h1.17c0.02,0.39,0.18,0.71,0.47,0.94
		c0.29,0.23,0.68,0.35,1.17,0.35c0.44,0,0.8-0.09,1.07-0.27C107.38,164.58,107.51,164.34,107.51,164.04z"/>
	<path class="st3" d="M110.18,167.7l-0.67-0.46c0.4-0.55,0.6-1.13,0.62-1.71v-1.06h1.15v0.92c0,0.43-0.1,0.85-0.31,1.28
		C110.76,167.1,110.49,167.44,110.18,167.7z"/>
	<path class="st3" d="M121.79,162.5c0,1.05-0.24,1.89-0.72,2.53s-1.13,0.96-1.94,0.96c-0.83,0-1.49-0.26-1.97-0.79v3.31h-1.17v-9.51
		h1.07l0.06,0.76c0.48-0.59,1.14-0.89,1.99-0.89c0.83,0,1.48,0.31,1.96,0.93c0.48,0.62,0.72,1.49,0.72,2.6V162.5z M120.61,162.37
		c0-0.77-0.17-1.39-0.5-1.83s-0.78-0.67-1.36-0.67c-0.71,0-1.24,0.32-1.6,0.95v3.28c0.35,0.63,0.89,0.94,1.61,0.94
		c0.56,0,1.01-0.22,1.34-0.67C120.45,163.91,120.61,163.25,120.61,162.37z"/>
	<path class="st3" d="M124.45,159.82c0.52-0.64,1.2-0.96,2.03-0.96c1.45,0,2.18,0.82,2.2,2.46v4.54h-1.17v-4.54
		c0-0.5-0.12-0.86-0.34-1.1c-0.22-0.24-0.57-0.36-1.04-0.36c-0.38,0-0.72,0.1-1,0.3s-0.51,0.47-0.67,0.8v4.89h-1.17v-9.75h1.17
		V159.82z"/>
	<path class="st3" d="M133.76,160.04c-0.18-0.03-0.37-0.04-0.58-0.04c-0.77,0-1.29,0.33-1.57,0.98v4.88h-1.17v-6.87h1.14l0.02,0.79
		c0.39-0.61,0.93-0.92,1.64-0.92c0.23,0,0.4,0.03,0.52,0.09V160.04z"/>
	<path class="st3" d="M138.82,165.86c-0.07-0.14-0.12-0.38-0.17-0.72c-0.55,0.57-1.2,0.85-1.96,0.85c-0.68,0-1.23-0.19-1.67-0.57
		c-0.43-0.38-0.65-0.87-0.65-1.46c0-0.72,0.27-1.27,0.82-1.67c0.54-0.4,1.31-0.59,2.29-0.59h1.14v-0.54c0-0.41-0.12-0.74-0.37-0.98
		c-0.25-0.24-0.61-0.36-1.09-0.36c-0.42,0-0.77,0.11-1.05,0.32s-0.43,0.47-0.43,0.77h-1.18c0-0.34,0.12-0.67,0.36-0.99
		c0.24-0.32,0.57-0.57,0.99-0.76c0.42-0.19,0.88-0.28,1.37-0.28c0.79,0,1.41,0.2,1.86,0.59c0.45,0.4,0.68,0.94,0.7,1.63v3.16
		c0,0.63,0.08,1.13,0.24,1.5v0.1H138.82z M136.88,164.96c0.37,0,0.72-0.1,1.05-0.29s0.57-0.44,0.72-0.74v-1.41h-0.92
		c-1.44,0-2.16,0.42-2.16,1.26c0,0.37,0.12,0.66,0.37,0.86S136.49,164.96,136.88,164.96z"/>
	<path class="st3" d="M145.65,164.04c0-0.32-0.12-0.56-0.36-0.74c-0.24-0.18-0.66-0.33-1.25-0.45c-0.59-0.13-1.07-0.28-1.42-0.46
		c-0.35-0.18-0.61-0.39-0.77-0.63c-0.17-0.25-0.25-0.54-0.25-0.88c0-0.56,0.24-1.04,0.71-1.43c0.48-0.39,1.08-0.58,1.83-0.58
		c0.78,0,1.41,0.2,1.89,0.6c0.48,0.4,0.73,0.92,0.73,1.54h-1.18c0-0.32-0.14-0.6-0.41-0.83c-0.27-0.23-0.62-0.35-1.03-0.35
		c-0.43,0-0.76,0.09-1,0.28s-0.36,0.43-0.36,0.73c0,0.28,0.11,0.5,0.34,0.64s0.63,0.28,1.22,0.41c0.59,0.13,1.06,0.29,1.42,0.47
		s0.63,0.4,0.81,0.66c0.18,0.26,0.26,0.57,0.26,0.94c0,0.61-0.25,1.11-0.74,1.48c-0.49,0.37-1.13,0.56-1.91,0.56
		c-0.55,0-1.04-0.1-1.46-0.29s-0.75-0.47-0.99-0.82c-0.24-0.35-0.36-0.73-0.36-1.13h1.17c0.02,0.39,0.18,0.71,0.47,0.94
		c0.29,0.23,0.68,0.35,1.17,0.35c0.44,0,0.8-0.09,1.07-0.27C145.52,164.58,145.65,164.34,145.65,164.04z"/>
	<path class="st3" d="M151.21,165.98c-0.93,0-1.69-0.31-2.27-0.92c-0.58-0.61-0.88-1.43-0.88-2.45v-0.22c0-0.68,0.13-1.29,0.39-1.82
		c0.26-0.54,0.62-0.95,1.09-1.26c0.47-0.3,0.97-0.45,1.52-0.45c0.89,0,1.59,0.29,2.08,0.88s0.74,1.43,0.74,2.53v0.49h-4.65
		c0.02,0.68,0.21,1.22,0.59,1.64c0.38,0.42,0.86,0.63,1.44,0.63c0.41,0,0.77-0.08,1.05-0.25s0.54-0.39,0.76-0.67l0.72,0.56
		C153.22,165.54,152.36,165.98,151.21,165.98z M151.06,159.83c-0.47,0-0.87,0.17-1.19,0.52c-0.32,0.34-0.52,0.83-0.6,1.45h3.44
		v-0.09c-0.03-0.6-0.19-1.06-0.48-1.39C151.94,159.99,151.55,159.83,151.06,159.83z"/>
	<path class="st3" d="M159.24,164.04c0-0.32-0.12-0.56-0.36-0.74c-0.24-0.18-0.66-0.33-1.25-0.45c-0.59-0.13-1.07-0.28-1.42-0.46
		c-0.35-0.18-0.61-0.39-0.77-0.63c-0.17-0.25-0.25-0.54-0.25-0.88c0-0.56,0.24-1.04,0.71-1.43c0.48-0.39,1.08-0.58,1.83-0.58
		c0.78,0,1.41,0.2,1.9,0.6s0.73,0.92,0.73,1.54h-1.18c0-0.32-0.14-0.6-0.41-0.83c-0.27-0.23-0.62-0.35-1.03-0.35
		c-0.43,0-0.76,0.09-1,0.28s-0.36,0.43-0.36,0.73c0,0.28,0.11,0.5,0.34,0.64s0.63,0.28,1.22,0.41c0.59,0.13,1.06,0.29,1.42,0.47
		c0.37,0.18,0.63,0.4,0.81,0.66c0.18,0.26,0.26,0.57,0.26,0.94c0,0.61-0.25,1.11-0.74,1.48c-0.49,0.37-1.13,0.56-1.91,0.56
		c-0.55,0-1.04-0.1-1.46-0.29s-0.75-0.47-0.99-0.82c-0.24-0.35-0.36-0.73-0.36-1.13h1.17c0.02,0.39,0.18,0.71,0.47,0.94
		c0.29,0.23,0.68,0.35,1.17,0.35c0.44,0,0.8-0.09,1.07-0.27C159.11,164.58,159.24,164.34,159.24,164.04z"/>
	<path class="st3" d="M164.86,162.36c0-0.67,0.13-1.28,0.4-1.82s0.63-0.95,1.1-1.24s1.01-0.44,1.62-0.44c0.94,0,1.69,0.32,2.27,0.97
		c0.58,0.65,0.87,1.51,0.87,2.58v0.08c0,0.67-0.13,1.27-0.38,1.8c-0.26,0.53-0.62,0.94-1.1,1.24c-0.48,0.3-1.02,0.44-1.64,0.44
		c-0.93,0-1.69-0.32-2.26-0.97c-0.58-0.65-0.87-1.5-0.87-2.57V162.36z M166.04,162.5c0,0.76,0.18,1.37,0.53,1.83
		s0.83,0.69,1.42,0.69c0.6,0,1.07-0.23,1.42-0.7c0.35-0.47,0.53-1.12,0.53-1.96c0-0.75-0.18-1.36-0.54-1.83
		c-0.36-0.47-0.83-0.7-1.42-0.7c-0.58,0-1.05,0.23-1.4,0.69S166.04,161.64,166.04,162.5z"/>
	<path class="st3" d="M175.9,160.04c-0.18-0.03-0.37-0.04-0.58-0.04c-0.77,0-1.29,0.33-1.57,0.98v4.88h-1.17v-6.87h1.14l0.02,0.79
		c0.38-0.61,0.93-0.92,1.64-0.92c0.23,0,0.4,0.03,0.52,0.09V160.04z"/>
	<path class="st3" d="M181.37,159.82c0.52-0.64,1.2-0.96,2.03-0.96c1.45,0,2.18,0.82,2.2,2.46v4.54h-1.17v-4.54
		c0-0.5-0.12-0.86-0.34-1.1c-0.22-0.24-0.57-0.36-1.04-0.36c-0.38,0-0.71,0.1-1,0.3c-0.29,0.2-0.51,0.47-0.67,0.8v4.89h-1.17v-9.75
		h1.17V159.82z"/>
	<path class="st3" d="M191.6,165.86c-0.07-0.14-0.12-0.38-0.17-0.72c-0.55,0.57-1.2,0.85-1.96,0.85c-0.68,0-1.23-0.19-1.67-0.57
		c-0.43-0.38-0.65-0.87-0.65-1.46c0-0.72,0.27-1.27,0.82-1.67c0.54-0.4,1.31-0.59,2.29-0.59h1.14v-0.54c0-0.41-0.12-0.74-0.37-0.98
		c-0.25-0.24-0.61-0.36-1.08-0.36c-0.42,0-0.77,0.11-1.05,0.32s-0.43,0.47-0.43,0.77h-1.18c0-0.34,0.12-0.67,0.36-0.99
		c0.24-0.32,0.57-0.57,0.99-0.76s0.88-0.28,1.37-0.28c0.79,0,1.41,0.2,1.86,0.59c0.45,0.4,0.68,0.94,0.7,1.63v3.16
		c0,0.63,0.08,1.13,0.24,1.5v0.1H191.6z M189.65,164.96c0.37,0,0.72-0.1,1.05-0.29s0.57-0.44,0.72-0.74v-1.41h-0.92
		c-1.44,0-2.16,0.42-2.16,1.26c0,0.37,0.12,0.66,0.37,0.86S189.26,164.96,189.65,164.96z"/>
	<path class="st3" d="M198.43,164.04c0-0.32-0.12-0.56-0.36-0.74c-0.24-0.18-0.66-0.33-1.25-0.45s-1.07-0.28-1.42-0.46
		c-0.35-0.18-0.61-0.39-0.77-0.63s-0.25-0.54-0.25-0.88c0-0.56,0.24-1.04,0.71-1.43c0.48-0.39,1.08-0.58,1.83-0.58
		c0.78,0,1.41,0.2,1.89,0.6s0.73,0.92,0.73,1.54h-1.18c0-0.32-0.14-0.6-0.41-0.83c-0.27-0.23-0.62-0.35-1.03-0.35
		c-0.43,0-0.76,0.09-1,0.28s-0.36,0.43-0.36,0.73c0,0.28,0.11,0.5,0.34,0.64s0.63,0.28,1.22,0.41s1.06,0.29,1.42,0.47
		s0.63,0.4,0.81,0.66c0.18,0.26,0.26,0.57,0.26,0.94c0,0.61-0.25,1.11-0.74,1.48c-0.49,0.37-1.13,0.56-1.91,0.56
		c-0.55,0-1.04-0.1-1.46-0.29s-0.75-0.47-0.99-0.82c-0.24-0.35-0.36-0.73-0.36-1.13h1.17c0.02,0.39,0.18,0.71,0.47,0.94
		c0.29,0.23,0.68,0.35,1.17,0.35c0.44,0,0.8-0.09,1.07-0.27C198.29,164.58,198.43,164.34,198.43,164.04z"/>
	<path class="st3" d="M202.73,157.33v1.66h1.28v0.91h-1.28v4.26c0,0.28,0.06,0.48,0.17,0.62s0.31,0.21,0.58,0.21
		c0.14,0,0.32-0.03,0.56-0.08v0.95c-0.31,0.08-0.61,0.13-0.9,0.13c-0.52,0-0.92-0.16-1.19-0.48c-0.27-0.32-0.4-0.77-0.4-1.35v-4.26
		h-1.25v-0.91h1.25v-1.66H202.73z"/>
	<path class="st3" d="M209.62,165.86c-0.07-0.14-0.12-0.38-0.17-0.72c-0.55,0.57-1.2,0.85-1.96,0.85c-0.68,0-1.23-0.19-1.67-0.57
		c-0.43-0.38-0.65-0.87-0.65-1.46c0-0.72,0.27-1.27,0.82-1.67c0.54-0.4,1.31-0.59,2.29-0.59h1.14v-0.54c0-0.41-0.12-0.74-0.37-0.98
		c-0.25-0.24-0.61-0.36-1.08-0.36c-0.42,0-0.77,0.11-1.05,0.32s-0.43,0.47-0.43,0.77h-1.18c0-0.34,0.12-0.67,0.36-0.99
		c0.24-0.32,0.57-0.57,0.99-0.76s0.88-0.28,1.37-0.28c0.79,0,1.41,0.2,1.86,0.59c0.45,0.4,0.68,0.94,0.7,1.63v3.16
		c0,0.63,0.08,1.13,0.24,1.5v0.1H209.62z M207.67,164.96c0.37,0,0.72-0.1,1.05-0.29s0.57-0.44,0.72-0.74v-1.41h-0.92
		c-1.44,0-2.16,0.42-2.16,1.26c0,0.37,0.12,0.66,0.37,0.86S207.29,164.96,207.67,164.96z"/>
	<path class="st3" d="M212.17,162.37c0-1.07,0.25-1.92,0.74-2.55c0.5-0.63,1.15-0.95,1.97-0.95c0.84,0,1.49,0.3,1.96,0.89l0.06-0.76
		h1.07v6.7c0,0.89-0.26,1.59-0.79,2.1c-0.53,0.51-1.23,0.77-2.12,0.77c-0.5,0-0.98-0.11-1.45-0.32s-0.84-0.5-1.08-0.87l0.61-0.7
		c0.5,0.62,1.12,0.93,1.85,0.93c0.57,0,1.02-0.16,1.34-0.48s0.48-0.77,0.48-1.36v-0.59c-0.47,0.54-1.11,0.81-1.92,0.81
		c-0.8,0-1.45-0.32-1.95-0.97S212.17,163.48,212.17,162.37z M213.35,162.5c0,0.77,0.16,1.38,0.48,1.82
		c0.32,0.44,0.76,0.66,1.33,0.66c0.74,0,1.28-0.34,1.63-1.01v-3.14c-0.36-0.66-0.9-0.98-1.62-0.98c-0.57,0-1.02,0.22-1.34,0.67
		S213.35,161.63,213.35,162.5z"/>
	<path class="st3" d="M223.74,164.04c0-0.32-0.12-0.56-0.36-0.74c-0.24-0.18-0.66-0.33-1.25-0.45s-1.07-0.28-1.42-0.46
		c-0.35-0.18-0.61-0.39-0.77-0.63s-0.25-0.54-0.25-0.88c0-0.56,0.24-1.04,0.71-1.43c0.48-0.39,1.08-0.58,1.83-0.58
		c0.78,0,1.41,0.2,1.89,0.6s0.73,0.92,0.73,1.54h-1.18c0-0.32-0.14-0.6-0.41-0.83c-0.27-0.23-0.62-0.35-1.03-0.35
		c-0.43,0-0.76,0.09-1,0.28s-0.36,0.43-0.36,0.73c0,0.28,0.11,0.5,0.34,0.64s0.63,0.28,1.22,0.41s1.06,0.29,1.42,0.47
		s0.63,0.4,0.81,0.66c0.18,0.26,0.26,0.57,0.26,0.94c0,0.61-0.25,1.11-0.74,1.48c-0.49,0.37-1.13,0.56-1.91,0.56
		c-0.55,0-1.04-0.1-1.46-0.29s-0.75-0.47-0.99-0.82c-0.24-0.35-0.36-0.73-0.36-1.13h1.17c0.02,0.39,0.18,0.71,0.47,0.94
		c0.29,0.23,0.68,0.35,1.17,0.35c0.44,0,0.8-0.09,1.07-0.27C223.61,164.58,223.74,164.34,223.74,164.04z"/>
</g>
<circle class="st0" cx="325.19" cy="162.04" r="11.07"/>
<line class="st0" x1="325.19" y1="157.61" x2="325.19" y2="166.47"/>
<line class="st0" x1="320.76" y1="162.04" x2="329.62" y2="162.04"/>
<line class="st1" x1="0.54" y1="197.86" x2="359.76" y2="198.53"/>
<line class="st1" x1="0.62" y1="250.6" x2="359.85" y2="251.26"/>
<line class="st1" x1="0.62" y1="304.12" x2="359.85" y2="304.78"/>
<line class="st1" x1="0.62" y1="355.34" x2="359.85" y2="356"/>
<g>
	<path d="M21.03,229.02h5.05v1.15h-6.47v-10.66h1.41V229.02z"/>
	<path d="M27.12,226.14c0-0.78,0.15-1.47,0.46-2.09s0.73-1.1,1.27-1.44s1.17-0.51,1.86-0.51c1.08,0,1.95,0.37,2.62,1.12
		c0.67,0.75,1,1.74,1,2.98v0.1c0,0.77-0.15,1.46-0.44,2.08s-0.72,1.09-1.27,1.43c-0.55,0.34-1.18,0.51-1.89,0.51
		c-1.07,0-1.94-0.37-2.61-1.12c-0.67-0.75-1-1.74-1-2.97V226.14z M28.48,226.3c0,0.88,0.2,1.58,0.61,2.12
		c0.41,0.53,0.95,0.8,1.64,0.8c0.69,0,1.24-0.27,1.64-0.81s0.61-1.3,0.61-2.27c0-0.87-0.21-1.57-0.62-2.11
		c-0.41-0.54-0.96-0.81-1.64-0.81c-0.67,0-1.21,0.27-1.62,0.8S28.48,225.31,28.48,226.3z"/>
	<path d="M39.86,223.46c-0.21-0.03-0.43-0.05-0.67-0.05c-0.89,0-1.49,0.38-1.81,1.14v5.62h-1.35v-7.92h1.32l0.02,0.92
		c0.44-0.71,1.07-1.06,1.89-1.06c0.26,0,0.46,0.03,0.6,0.1V223.46z"/>
	<path d="M44.26,230.32c-1.07,0-1.95-0.35-2.62-1.06c-0.67-0.71-1.01-1.65-1.01-2.83v-0.25c0-0.79,0.15-1.49,0.45-2.11
		c0.3-0.62,0.72-1.1,1.26-1.45c0.54-0.35,1.12-0.52,1.75-0.52c1.03,0,1.83,0.34,2.4,1.02s0.86,1.65,0.86,2.92v0.56h-5.37
		c0.02,0.78,0.25,1.41,0.68,1.89s0.99,0.72,1.67,0.72c0.48,0,0.88-0.1,1.22-0.29s0.62-0.45,0.87-0.78l0.83,0.64
		C46.58,229.81,45.59,230.32,44.26,230.32z M44.09,223.21c-0.55,0-1.01,0.2-1.38,0.6c-0.37,0.4-0.6,0.96-0.69,1.67h3.97v-0.1
		c-0.04-0.69-0.22-1.22-0.56-1.6C45.11,223.4,44.66,223.21,44.09,223.21z"/>
	<path d="M50.19,222.25l0.04,0.88c0.58-0.68,1.36-1.03,2.35-1.03c1.11,0,1.86,0.42,2.26,1.27c0.26-0.38,0.61-0.69,1.03-0.92
		s0.92-0.35,1.5-0.35c1.74,0,2.62,0.92,2.65,2.76v5.31h-1.35v-5.23c0-0.57-0.13-0.99-0.39-1.27s-0.69-0.42-1.3-0.42
		c-0.5,0-0.92,0.15-1.25,0.45c-0.33,0.3-0.52,0.7-0.58,1.21v5.26h-1.36v-5.19c0-1.15-0.56-1.73-1.69-1.73
		c-0.89,0-1.5,0.38-1.82,1.14v5.79h-1.35v-7.92H50.19z"/>
</g>
<g>
	<path d="M19.85,283.47V272.8h3.01c0.93,0,1.75,0.21,2.46,0.62s1.26,0.99,1.65,1.75c0.39,0.76,0.58,1.63,0.59,2.61v0.68
		c0,1.01-0.19,1.89-0.58,2.64c-0.39,0.76-0.94,1.34-1.66,1.74s-1.56,0.61-2.52,0.62H19.85z M21.26,273.95v8.36h1.48
		c1.08,0,1.93-0.34,2.53-1.01c0.6-0.67,0.9-1.63,0.9-2.88v-0.62c0-1.21-0.28-2.15-0.85-2.83c-0.57-0.67-1.38-1.01-2.42-1.02H21.26z"
		/>
	<path d="M29.12,279.43c0-0.78,0.15-1.47,0.46-2.09s0.73-1.1,1.27-1.44s1.17-0.51,1.86-0.51c1.08,0,1.95,0.37,2.62,1.12
		c0.67,0.75,1,1.74,1,2.98v0.1c0,0.77-0.15,1.46-0.44,2.08s-0.72,1.09-1.27,1.43c-0.55,0.34-1.18,0.51-1.89,0.51
		c-1.07,0-1.94-0.37-2.61-1.12c-0.67-0.75-1-1.74-1-2.97V279.43z M30.48,279.59c0,0.88,0.2,1.58,0.61,2.12
		c0.41,0.53,0.95,0.8,1.64,0.8c0.69,0,1.24-0.27,1.64-0.81s0.61-1.3,0.61-2.27c0-0.87-0.21-1.57-0.62-2.11
		c-0.41-0.54-0.96-0.81-1.64-0.81c-0.67,0-1.21,0.27-1.62,0.8S30.48,278.6,30.48,279.59z"/>
	<path d="M39.5,283.47h-1.35v-11.25h1.35V283.47z"/>
	<path d="M41.31,279.43c0-0.78,0.15-1.47,0.46-2.09s0.73-1.1,1.27-1.44s1.17-0.51,1.86-0.51c1.08,0,1.95,0.37,2.62,1.12
		c0.67,0.75,1,1.74,1,2.98v0.1c0,0.77-0.15,1.46-0.44,2.08s-0.72,1.09-1.27,1.43c-0.55,0.34-1.18,0.51-1.89,0.51
		c-1.07,0-1.94-0.37-2.61-1.12c-0.67-0.75-1-1.74-1-2.97V279.43z M42.67,279.59c0,0.88,0.2,1.58,0.61,2.12
		c0.41,0.53,0.95,0.8,1.64,0.8c0.69,0,1.24-0.27,1.64-0.81s0.61-1.3,0.61-2.27c0-0.87-0.21-1.57-0.62-2.11
		c-0.41-0.54-0.96-0.81-1.64-0.81c-0.67,0-1.21,0.27-1.62,0.8S42.67,278.6,42.67,279.59z"/>
	<path d="M54.06,276.76c-0.21-0.03-0.43-0.05-0.67-0.05c-0.89,0-1.49,0.38-1.81,1.14v5.62h-1.35v-7.92h1.32l0.02,0.92
		c0.44-0.71,1.07-1.06,1.89-1.06c0.26,0,0.46,0.03,0.6,0.1V276.76z"/>
</g>
<g>
	<path d="M21.11,334.38h-1.41v-10.66h1.41V334.38z"/>
	<path d="M30.16,330.51c0,1.21-0.28,2.18-0.83,2.92s-1.3,1.11-2.24,1.11c-0.96,0-1.72-0.31-2.27-0.92v3.82h-1.35v-10.97h1.24
		l0.07,0.88c0.55-0.68,1.32-1.03,2.3-1.03c0.95,0,1.71,0.36,2.26,1.08c0.55,0.72,0.83,1.72,0.83,3V330.51z M28.81,330.36
		c0-0.89-0.19-1.6-0.57-2.12s-0.9-0.78-1.57-0.78c-0.82,0-1.44,0.36-1.85,1.09v3.79c0.41,0.72,1.03,1.08,1.86,1.08
		c0.65,0,1.17-0.26,1.55-0.77C28.62,332.14,28.81,331.37,28.81,330.36z"/>
	<path d="M36.5,332.28c0-0.37-0.14-0.65-0.41-0.85s-0.76-0.38-1.44-0.52c-0.69-0.15-1.23-0.32-1.63-0.53
		c-0.4-0.21-0.7-0.45-0.89-0.73s-0.29-0.62-0.29-1.01c0-0.65,0.27-1.2,0.82-1.65c0.55-0.45,1.25-0.67,2.11-0.67
		c0.9,0,1.63,0.23,2.19,0.7c0.56,0.46,0.84,1.06,0.84,1.78h-1.36c0-0.37-0.16-0.69-0.47-0.96c-0.32-0.27-0.71-0.4-1.19-0.4
		c-0.49,0-0.88,0.11-1.16,0.32s-0.42,0.5-0.42,0.84c0,0.33,0.13,0.57,0.39,0.74s0.73,0.32,1.4,0.48s1.22,0.33,1.64,0.54
		s0.73,0.46,0.93,0.76s0.3,0.66,0.3,1.08c0,0.71-0.28,1.28-0.85,1.7s-1.3,0.64-2.2,0.64c-0.63,0-1.2-0.11-1.68-0.34
		s-0.87-0.54-1.15-0.94c-0.28-0.4-0.41-0.84-0.41-1.31h1.35c0.02,0.45,0.21,0.81,0.55,1.08c0.34,0.27,0.79,0.4,1.34,0.4
		c0.51,0,0.92-0.1,1.23-0.31C36.34,332.91,36.5,332.63,36.5,332.28z"/>
	<path d="M44.51,333.6c-0.53,0.62-1.3,0.93-2.32,0.93c-0.84,0-1.49-0.25-1.93-0.74c-0.44-0.49-0.67-1.22-0.67-2.18v-5.16h1.35v5.12
		c0,1.2,0.49,1.8,1.46,1.8c1.04,0,1.72-0.39,2.07-1.16v-5.76h1.35v7.92h-1.29L44.51,333.6z"/>
	<path d="M49.16,326.46l0.04,0.88c0.58-0.68,1.36-1.03,2.35-1.03c1.11,0,1.86,0.42,2.26,1.27c0.26-0.38,0.61-0.69,1.03-0.92
		s0.92-0.35,1.5-0.35c1.74,0,2.62,0.92,2.65,2.76v5.31h-1.35v-5.23c0-0.57-0.13-0.99-0.39-1.27s-0.69-0.42-1.3-0.42
		c-0.5,0-0.92,0.15-1.25,0.45c-0.33,0.3-0.52,0.7-0.58,1.21v5.26h-1.36v-5.19c0-1.15-0.56-1.73-1.69-1.73
		c-0.89,0-1.5,0.38-1.82,1.14v5.79h-1.35v-7.92H49.16z"/>
</g>
<g>
	<path d="M25.56,386.48c-0.11,1.45-0.64,2.6-1.61,3.43c-0.97,0.83-2.24,1.25-3.83,1.25c-1.73,0-3.09-0.58-4.09-1.75
		c-0.99-1.17-1.49-2.77-1.49-4.8v-0.83c0-1.3,0.23-2.44,0.69-3.43c0.46-0.99,1.11-1.75,1.96-2.28c0.85-0.53,1.84-0.79,2.96-0.79
		c1.56,0,2.81,0.42,3.77,1.25c0.95,0.83,1.5,2.01,1.65,3.52H22.8c-0.07-0.87-0.31-1.5-0.73-1.9c-0.42-0.39-1.05-0.59-1.91-0.59
		c-0.93,0-1.62,0.33-2.08,1c-0.46,0.67-0.7,1.7-0.71,3.09v1.02c0,1.46,0.22,2.53,0.66,3.2c0.44,0.67,1.14,1.01,2.09,1.01
		c0.86,0,1.5-0.2,1.93-0.59c0.42-0.39,0.67-1,0.73-1.82H25.56z"/>
	<path d="M26.8,385.87c0-1,0.19-1.88,0.58-2.66c0.38-0.78,0.94-1.38,1.66-1.81c0.72-0.43,1.56-0.64,2.51-0.64
		c1.35,0,2.46,0.41,3.32,1.24c0.86,0.83,1.33,1.95,1.43,3.38l0.02,0.69c0,1.54-0.43,2.78-1.29,3.71c-0.86,0.93-2.01,1.4-3.46,1.4
		s-2.6-0.46-3.47-1.39c-0.86-0.93-1.29-2.19-1.29-3.79V385.87z M29.48,386.06c0,0.95,0.18,1.68,0.54,2.19
		c0.36,0.5,0.87,0.76,1.54,0.76c0.65,0,1.16-0.25,1.52-0.75c0.36-0.5,0.55-1.3,0.55-2.39c0-0.93-0.18-1.66-0.55-2.17
		c-0.37-0.51-0.88-0.77-1.54-0.77c-0.66,0-1.16,0.26-1.52,0.77C29.66,384.19,29.48,384.98,29.48,386.06z"/>
	<path d="M40.43,380.94l0.08,1.16c0.72-0.9,1.68-1.34,2.89-1.34c1.06,0,1.86,0.31,2.38,0.94c0.52,0.62,0.79,1.56,0.8,2.8v6.49h-2.68
		v-6.43c0-0.57-0.12-0.98-0.37-1.24c-0.25-0.26-0.66-0.39-1.23-0.39c-0.75,0-1.32,0.32-1.7,0.97v7.1H37.9v-10.04H40.43z"/>
	<path d="M51.81,378.47v2.47h1.72v1.97h-1.72v5.01c0,0.37,0.07,0.64,0.21,0.8c0.14,0.16,0.41,0.24,0.82,0.24
		c0.3,0,0.56-0.02,0.79-0.07v2.03c-0.53,0.16-1.07,0.24-1.62,0.24c-1.88,0-2.84-0.95-2.88-2.85v-5.41h-1.47v-1.97h1.47v-2.47H51.81z
		"/>
	<path d="M59.64,391.16c-1.47,0-2.67-0.45-3.6-1.35c-0.92-0.9-1.39-2.11-1.39-3.61v-0.26c0-1.01,0.19-1.91,0.58-2.7
		s0.94-1.41,1.66-1.84c0.71-0.43,1.53-0.64,2.44-0.64c1.37,0,2.45,0.43,3.24,1.3c0.79,0.87,1.18,2.09,1.18,3.68v1.09h-6.39
		c0.09,0.66,0.35,1.18,0.78,1.58c0.44,0.4,0.99,0.59,1.66,0.59c1.03,0,1.84-0.37,2.42-1.12l1.32,1.47c-0.4,0.57-0.95,1.01-1.63,1.33
		C61.24,391,60.48,391.16,59.64,391.16z M59.33,382.92c-0.53,0-0.96,0.18-1.29,0.54c-0.33,0.36-0.54,0.88-0.64,1.55h3.73v-0.21
		c-0.01-0.6-0.17-1.06-0.48-1.38C60.34,383.08,59.9,382.92,59.33,382.92z"/>
	<path d="M67.76,380.94l0.08,1.16c0.72-0.9,1.68-1.34,2.89-1.34c1.06,0,1.86,0.31,2.38,0.94c0.52,0.62,0.79,1.56,0.8,2.8v6.49h-2.68
		v-6.43c0-0.57-0.12-0.98-0.37-1.24c-0.25-0.26-0.66-0.39-1.23-0.39c-0.75,0-1.32,0.32-1.7,0.97v7.1h-2.68v-10.04H67.76z"/>
	<path d="M79.14,378.47v2.47h1.72v1.97h-1.72v5.01c0,0.37,0.07,0.64,0.21,0.8c0.14,0.16,0.41,0.24,0.82,0.24
		c0.3,0,0.56-0.02,0.79-0.07v2.03c-0.53,0.16-1.07,0.24-1.62,0.24c-1.88,0-2.84-0.95-2.88-2.85v-5.41h-1.47v-1.97h1.47v-2.47H79.14z
		"/>
	<path d="M87.82,390.98v-8.07h-1.49v-1.97h1.49v-0.85c0-1.13,0.32-2,0.97-2.62c0.65-0.62,1.55-0.93,2.71-0.93
		c0.37,0,0.83,0.06,1.36,0.18l-0.03,2.06c-0.22-0.06-0.5-0.08-0.82-0.08c-1.01,0-1.51,0.48-1.51,1.43v0.81h1.99v1.97h-1.99v8.07
		H87.82z"/>
	<path d="M93.87,378.34c0-0.4,0.13-0.73,0.4-0.99c0.27-0.26,0.64-0.39,1.1-0.39c0.46,0,0.82,0.13,1.09,0.39
		c0.27,0.26,0.41,0.59,0.41,0.99c0,0.41-0.14,0.74-0.41,1c-0.28,0.26-0.64,0.39-1.09,0.39c-0.45,0-0.81-0.13-1.09-0.39
		C94.01,379.08,93.87,378.75,93.87,378.34z M96.72,390.98h-2.69v-10.04h2.69V390.98z"/>
	<path d="M101.76,390.98h-2.69v-14.25h2.69V390.98z"/>
	<path d="M107.18,378.47v2.47h1.72v1.97h-1.72v5.01c0,0.37,0.07,0.64,0.21,0.8c0.14,0.16,0.41,0.24,0.82,0.24
		c0.3,0,0.56-0.02,0.79-0.07v2.03c-0.53,0.16-1.07,0.24-1.62,0.24c-1.88,0-2.84-0.95-2.88-2.85v-5.41h-1.47v-1.97h1.47v-2.47H107.18
		z"/>
	<path d="M115.01,391.16c-1.47,0-2.67-0.45-3.6-1.35c-0.92-0.9-1.39-2.11-1.39-3.61v-0.26c0-1.01,0.19-1.91,0.58-2.7
		s0.94-1.41,1.66-1.84c0.71-0.43,1.53-0.64,2.44-0.64c1.37,0,2.45,0.43,3.24,1.3c0.79,0.87,1.18,2.09,1.18,3.68v1.09h-6.39
		c0.09,0.66,0.35,1.18,0.78,1.58c0.44,0.4,0.99,0.59,1.66,0.59c1.03,0,1.84-0.37,2.42-1.12l1.32,1.47c-0.4,0.57-0.95,1.01-1.63,1.33
		C116.6,391,115.84,391.16,115.01,391.16z M114.7,382.92c-0.53,0-0.96,0.18-1.29,0.54c-0.33,0.36-0.54,0.88-0.64,1.55h3.73v-0.21
		c-0.01-0.6-0.17-1.06-0.48-1.38C115.71,383.08,115.27,382.92,114.7,382.92z"/>
	<path d="M126.3,383.45c-0.37-0.05-0.69-0.07-0.96-0.07c-1.01,0-1.68,0.34-1.99,1.03v6.57h-2.68v-10.04h2.53l0.07,1.2
		c0.54-0.92,1.28-1.38,2.24-1.38c0.3,0,0.58,0.04,0.83,0.12L126.3,383.45z"/>
	<path d="M137.96,383.45c-0.37-0.05-0.69-0.07-0.96-0.07c-1.01,0-1.68,0.34-1.99,1.03v6.57h-2.68v-10.04h2.53l0.07,1.2
		c0.54-0.92,1.28-1.38,2.24-1.38c0.3,0,0.58,0.04,0.83,0.12L137.96,383.45z"/>
	<path d="M143.69,391.16c-1.47,0-2.67-0.45-3.6-1.35s-1.39-2.11-1.39-3.61v-0.26c0-1.01,0.2-1.91,0.58-2.7
		c0.39-0.79,0.94-1.41,1.66-1.84c0.71-0.43,1.53-0.64,2.45-0.64c1.37,0,2.45,0.43,3.24,1.3c0.79,0.87,1.18,2.09,1.18,3.68v1.09
		h-6.39c0.09,0.66,0.35,1.18,0.78,1.58c0.44,0.4,0.99,0.59,1.66,0.59c1.03,0,1.84-0.37,2.42-1.12l1.32,1.47
		c-0.4,0.57-0.95,1.01-1.63,1.33C145.29,391,144.53,391.16,143.69,391.16z M143.39,382.92c-0.53,0-0.96,0.18-1.29,0.54
		c-0.33,0.36-0.54,0.88-0.64,1.55h3.73v-0.21c-0.01-0.6-0.17-1.06-0.48-1.38S143.96,382.92,143.39,382.92z"/>
	<path d="M152.98,387.7l1.87-6.76h2.8l-3.39,10.04h-2.56l-3.39-10.04h2.8L152.98,387.7z"/>
	<path d="M158.81,378.34c0-0.4,0.13-0.73,0.4-0.99c0.27-0.26,0.64-0.39,1.1-0.39c0.46,0,0.82,0.13,1.1,0.39
		c0.27,0.26,0.41,0.59,0.41,0.99c0,0.41-0.14,0.74-0.41,1c-0.28,0.26-0.64,0.39-1.09,0.39c-0.45,0-0.81-0.13-1.09-0.39
		S158.81,378.75,158.81,378.34z M161.65,390.98h-2.69v-10.04h2.69V390.98z"/>
	<path d="M168.48,391.16c-1.47,0-2.67-0.45-3.6-1.35s-1.39-2.11-1.39-3.61v-0.26c0-1.01,0.2-1.91,0.58-2.7
		c0.39-0.79,0.94-1.41,1.66-1.84c0.71-0.43,1.53-0.64,2.45-0.64c1.37,0,2.45,0.43,3.24,1.3c0.79,0.87,1.18,2.09,1.18,3.68v1.09
		h-6.39c0.09,0.66,0.35,1.18,0.78,1.58c0.44,0.4,0.99,0.59,1.66,0.59c1.03,0,1.84-0.37,2.42-1.12l1.32,1.47
		c-0.4,0.57-0.95,1.01-1.63,1.33C170.08,391,169.32,391.16,168.48,391.16z M168.18,382.92c-0.53,0-0.96,0.18-1.29,0.54
		c-0.33,0.36-0.54,0.88-0.64,1.55h3.73v-0.21c-0.01-0.6-0.17-1.06-0.48-1.38S168.75,382.92,168.18,382.92z"/>
	<path d="M182.86,387.33l1.32-6.39h2.59l-2.56,10.04h-2.25l-1.9-6.32l-1.9,6.32h-2.24l-2.56-10.04h2.59l1.31,6.38l1.84-6.38h1.94
		L182.86,387.33z"/>
</g>
<g>
	<path d="M24.4,420.25h-4.62v3.78h5.37v1.15h-6.77v-10.66h6.7v1.15h-5.3v3.43h4.62V420.25z"/>
	<path d="M29.11,423.34l1.96-6.09h1.38l-2.84,7.92h-1.03l-2.87-7.92h1.38L29.11,423.34z"/>
	<path d="M36.95,425.32c-1.07,0-1.95-0.35-2.62-1.06c-0.67-0.71-1.01-1.65-1.01-2.83v-0.25c0-0.79,0.15-1.49,0.45-2.11
		c0.3-0.62,0.72-1.1,1.26-1.45c0.54-0.35,1.12-0.52,1.75-0.52c1.03,0,1.83,0.34,2.4,1.02s0.86,1.65,0.86,2.91v0.56h-5.37
		c0.02,0.78,0.25,1.41,0.68,1.89c0.44,0.48,0.99,0.72,1.67,0.72c0.48,0,0.88-0.1,1.22-0.29s0.62-0.46,0.87-0.78l0.83,0.64
		C39.28,424.81,38.28,425.32,36.95,425.32z M36.79,418.22c-0.55,0-1.01,0.2-1.38,0.6c-0.37,0.4-0.6,0.96-0.69,1.67h3.97v-0.1
		c-0.04-0.69-0.22-1.22-0.56-1.6C37.8,418.41,37.35,418.22,36.79,418.22z"/>
	<path d="M45.44,418.47c-0.21-0.03-0.43-0.05-0.67-0.05c-0.89,0-1.49,0.38-1.81,1.13v5.62h-1.35v-7.92h1.32l0.02,0.92
		c0.44-0.71,1.07-1.06,1.89-1.06c0.26,0,0.46,0.03,0.6,0.1V418.47z"/>
	<path d="M49.41,423.19l1.85-5.94h1.45l-3.19,9.15c-0.49,1.32-1.28,1.98-2.35,1.98l-0.26-0.02l-0.51-0.09v-1.1l0.37,0.03
		c0.46,0,0.82-0.09,1.07-0.28c0.26-0.19,0.47-0.53,0.63-1.02l0.3-0.81l-2.83-7.84h1.48L49.41,423.19z"/>
	<path d="M64.48,425.18h-6.99v-0.97l3.69-4.1c0.55-0.62,0.92-1.12,1.13-1.51c0.21-0.39,0.31-0.79,0.31-1.21
		c0-0.56-0.17-1.01-0.51-1.37s-0.79-0.54-1.35-0.54c-0.67,0-1.2,0.19-1.57,0.58c-0.37,0.38-0.56,0.92-0.56,1.6h-1.35
		c0-0.98,0.32-1.78,0.95-2.38c0.63-0.61,1.48-0.91,2.54-0.91c0.99,0,1.77,0.26,2.35,0.78c0.58,0.52,0.86,1.21,0.86,2.08
		c0,1.05-0.67,2.3-2.01,3.75l-2.86,3.1h5.35V425.18z"/>
	<path d="M71.63,421.59h1.48v1.11h-1.48v2.48h-1.36v-2.48h-4.86v-0.8l4.78-7.39h1.44V421.59z M66.95,421.59h3.32v-5.23l-0.16,0.29
		L66.95,421.59z"/>
	<path d="M79.54,418.21c0.6-0.74,1.38-1.11,2.34-1.11c1.67,0,2.52,0.94,2.53,2.83v5.24h-1.36v-5.24c0-0.57-0.13-0.99-0.39-1.27
		c-0.26-0.27-0.66-0.41-1.2-0.41c-0.44,0-0.83,0.12-1.16,0.35s-0.59,0.54-0.78,0.92v5.65h-1.36v-11.25h1.36V418.21z"/>
	<path d="M86.09,421.14c0-0.78,0.15-1.47,0.46-2.1c0.31-0.62,0.73-1.1,1.27-1.44c0.54-0.34,1.17-0.5,1.86-0.5
		c1.08,0,1.95,0.37,2.62,1.12c0.67,0.75,1,1.74,1,2.98v0.09c0,0.77-0.15,1.46-0.44,2.08c-0.29,0.61-0.72,1.09-1.27,1.43
		c-0.55,0.34-1.18,0.51-1.89,0.51c-1.07,0-1.94-0.37-2.61-1.12c-0.67-0.75-1-1.74-1-2.97V421.14z M87.46,421.3
		c0,0.88,0.2,1.58,0.61,2.12c0.41,0.53,0.95,0.8,1.64,0.8c0.69,0,1.24-0.27,1.64-0.81c0.41-0.54,0.61-1.29,0.61-2.27
		c0-0.87-0.21-1.57-0.62-2.11c-0.41-0.54-0.96-0.81-1.64-0.81c-0.67,0-1.21,0.27-1.62,0.8C87.66,419.55,87.46,420.31,87.46,421.3z"
		/>
	<path d="M99.9,424.39c-0.53,0.62-1.3,0.93-2.32,0.93c-0.84,0-1.49-0.25-1.93-0.74c-0.44-0.49-0.67-1.22-0.67-2.18v-5.16h1.36v5.12
		c0,1.2,0.49,1.8,1.46,1.8c1.03,0,1.72-0.38,2.06-1.16v-5.76h1.36v7.92h-1.29L99.9,424.39z"/>
	<path d="M107.1,418.47c-0.21-0.03-0.43-0.05-0.67-0.05c-0.89,0-1.49,0.38-1.81,1.13v5.62h-1.36v-7.92h1.32l0.02,0.92
		c0.44-0.71,1.07-1.06,1.89-1.06c0.26,0,0.46,0.03,0.6,0.1V418.47z"/>
	<path d="M112.96,423.08c0-0.37-0.14-0.65-0.41-0.85c-0.28-0.2-0.76-0.38-1.44-0.52c-0.69-0.15-1.23-0.32-1.63-0.53
		c-0.4-0.21-0.7-0.45-0.89-0.73c-0.19-0.28-0.29-0.62-0.29-1.01c0-0.65,0.27-1.2,0.82-1.65c0.55-0.45,1.25-0.67,2.11-0.67
		c0.9,0,1.63,0.23,2.19,0.7c0.56,0.46,0.84,1.06,0.84,1.78h-1.36c0-0.37-0.16-0.69-0.47-0.96c-0.32-0.27-0.71-0.4-1.19-0.4
		c-0.49,0-0.88,0.11-1.16,0.32s-0.42,0.5-0.42,0.84c0,0.33,0.13,0.57,0.39,0.74s0.73,0.33,1.4,0.48c0.68,0.15,1.22,0.33,1.64,0.54
		s0.73,0.46,0.93,0.76c0.2,0.29,0.3,0.66,0.3,1.08c0,0.71-0.28,1.28-0.85,1.7c-0.57,0.43-1.3,0.64-2.2,0.64
		c-0.63,0-1.2-0.11-1.68-0.34s-0.87-0.54-1.15-0.94c-0.28-0.4-0.41-0.84-0.41-1.31h1.36c0.02,0.46,0.21,0.81,0.55,1.08
		c0.34,0.27,0.79,0.4,1.34,0.4c0.51,0,0.92-0.1,1.23-0.31C112.81,423.7,112.96,423.42,112.96,423.08z"/>
</g>
<g>
	<path d="M24.36,458.81h-4.62v3.78h5.37v1.15h-6.77v-10.66h6.7v1.15h-5.3v3.43h4.62V458.81z"/>
	<path d="M29.07,461.9l1.96-6.09h1.38l-2.84,7.92h-1.03l-2.87-7.92h1.38L29.07,461.9z"/>
	<path d="M36.91,463.88c-1.07,0-1.95-0.35-2.62-1.06c-0.67-0.71-1.01-1.65-1.01-2.83v-0.25c0-0.79,0.15-1.49,0.45-2.11
		c0.3-0.62,0.72-1.1,1.26-1.45c0.54-0.35,1.12-0.52,1.75-0.52c1.03,0,1.83,0.34,2.4,1.02S40,458.33,40,459.6v0.56h-5.37
		c0.02,0.78,0.25,1.41,0.68,1.89c0.44,0.48,0.99,0.72,1.67,0.72c0.48,0,0.88-0.1,1.22-0.29s0.62-0.46,0.87-0.78l0.83,0.64
		C39.23,463.37,38.24,463.88,36.91,463.88z M36.74,456.78c-0.55,0-1.01,0.2-1.38,0.6c-0.37,0.4-0.6,0.96-0.69,1.67h3.97v-0.1
		c-0.04-0.69-0.22-1.22-0.56-1.6C37.76,456.97,37.31,456.78,36.74,456.78z"/>
	<path d="M45.4,457.03c-0.21-0.03-0.43-0.05-0.67-0.05c-0.89,0-1.49,0.38-1.81,1.13v5.62h-1.35v-7.92h1.32l0.02,0.92
		c0.44-0.71,1.07-1.06,1.89-1.06c0.26,0,0.46,0.03,0.6,0.1V457.03z"/>
	<path d="M49.37,461.75l1.85-5.94h1.45l-3.19,9.15c-0.49,1.32-1.28,1.98-2.35,1.98l-0.26-0.02l-0.51-0.09v-1.1l0.37,0.03
		c0.46,0,0.82-0.09,1.07-0.28c0.26-0.19,0.47-0.53,0.63-1.02l0.3-0.81l-2.83-7.84h1.48L49.37,461.75z"/>
	<path d="M59.42,457.74h1.02c0.64-0.01,1.14-0.18,1.51-0.5s0.55-0.77,0.55-1.33c0-1.25-0.62-1.88-1.87-1.88
		c-0.59,0-1.05,0.17-1.4,0.5c-0.35,0.33-0.52,0.78-0.52,1.33h-1.35c0-0.84,0.31-1.55,0.93-2.11c0.62-0.56,1.4-0.84,2.35-0.84
		c1.01,0,1.79,0.27,2.37,0.8s0.86,1.27,0.86,2.22c0,0.46-0.15,0.91-0.45,1.35c-0.3,0.43-0.71,0.76-1.23,0.97
		c0.59,0.19,1.04,0.49,1.36,0.92c0.32,0.43,0.48,0.96,0.48,1.58c0,0.96-0.31,1.72-0.94,2.28s-1.44,0.84-2.44,0.84
		s-1.82-0.27-2.44-0.81c-0.63-0.54-0.94-1.26-0.94-2.15h1.36c0,0.56,0.18,1.01,0.55,1.35s0.86,0.51,1.47,0.51
		c0.65,0,1.15-0.17,1.5-0.51c0.35-0.34,0.52-0.83,0.52-1.47c0-0.62-0.19-1.1-0.57-1.43c-0.38-0.33-0.93-0.5-1.65-0.51h-1.02V457.74z
		"/>
	<path d="M69.39,459.71c0-1.22,0.29-2.19,0.86-2.93c0.58-0.74,1.33-1.11,2.26-1.11c0.93,0,1.66,0.32,2.2,0.95v-4.13h1.35v11.25
		h-1.25l-0.07-0.85c-0.54,0.66-1.3,1-2.26,1c-0.92,0-1.67-0.38-2.25-1.13c-0.58-0.75-0.87-1.73-0.87-2.94V459.71z M70.75,459.86
		c0,0.9,0.19,1.6,0.56,2.11c0.37,0.51,0.88,0.76,1.54,0.76c0.86,0,1.49-0.38,1.88-1.16v-3.64c-0.41-0.75-1.03-1.12-1.87-1.12
		c-0.66,0-1.18,0.26-1.55,0.77S70.75,458.86,70.75,459.86z"/>
	<path d="M83.07,463.74c-0.08-0.16-0.14-0.43-0.19-0.83c-0.63,0.65-1.38,0.98-2.26,0.98c-0.78,0-1.42-0.22-1.92-0.66
		c-0.5-0.44-0.75-1-0.75-1.68c0-0.83,0.31-1.47,0.94-1.92c0.63-0.46,1.51-0.68,2.65-0.68h1.32v-0.62c0-0.47-0.14-0.85-0.42-1.13
		c-0.28-0.28-0.7-0.42-1.25-0.42c-0.48,0-0.89,0.12-1.22,0.37s-0.49,0.54-0.49,0.89h-1.36c0-0.4,0.14-0.78,0.42-1.15
		c0.28-0.37,0.66-0.66,1.14-0.88c0.48-0.21,1.01-0.32,1.59-0.32c0.91,0,1.63,0.23,2.15,0.68c0.52,0.46,0.79,1.09,0.81,1.89v3.65
		c0,0.73,0.09,1.31,0.28,1.74v0.12H83.07z M80.83,462.7c0.42,0,0.83-0.11,1.21-0.33s0.66-0.5,0.83-0.86v-1.63H81.8
		c-1.66,0-2.49,0.49-2.49,1.46c0,0.42,0.14,0.76,0.42,1S80.38,462.7,80.83,462.7z"/>
	<path d="M88.82,461.75l1.85-5.94h1.45l-3.19,9.15c-0.49,1.32-1.28,1.98-2.35,1.98l-0.26-0.02l-0.51-0.09v-1.1l0.37,0.03
		c0.46,0,0.82-0.09,1.07-0.28c0.26-0.19,0.47-0.53,0.63-1.02l0.3-0.81l-2.83-7.84h1.48L88.82,461.75z"/>
	<path d="M97.94,461.63c0-0.37-0.14-0.65-0.41-0.85c-0.28-0.2-0.76-0.38-1.44-0.52c-0.69-0.15-1.23-0.32-1.63-0.53
		c-0.4-0.21-0.7-0.45-0.89-0.73c-0.19-0.28-0.29-0.62-0.29-1.01c0-0.65,0.27-1.2,0.82-1.65c0.55-0.45,1.25-0.67,2.11-0.67
		c0.9,0,1.63,0.23,2.19,0.7c0.56,0.46,0.84,1.06,0.84,1.78h-1.36c0-0.37-0.16-0.69-0.47-0.96c-0.32-0.27-0.71-0.4-1.19-0.4
		c-0.49,0-0.88,0.11-1.16,0.32s-0.42,0.5-0.42,0.84c0,0.33,0.13,0.57,0.39,0.74s0.73,0.33,1.4,0.48c0.68,0.15,1.22,0.33,1.64,0.54
		s0.73,0.46,0.93,0.76c0.2,0.29,0.3,0.66,0.3,1.08c0,0.71-0.28,1.28-0.85,1.7c-0.57,0.43-1.3,0.64-2.2,0.64
		c-0.63,0-1.2-0.11-1.68-0.34s-0.87-0.54-1.15-0.94c-0.28-0.4-0.41-0.84-0.41-1.31h1.36c0.02,0.46,0.21,0.81,0.55,1.08
		c0.34,0.27,0.79,0.4,1.34,0.4c0.51,0,0.92-0.1,1.23-0.31C97.79,462.26,97.94,461.98,97.94,461.63z"/>
</g>
<g>
	<path d="M24.11,496.25h-4.62v3.78h5.37v1.15h-6.77v-10.66h6.7v1.15h-5.3v3.43h4.62V496.25z"/>
	<path d="M28.82,499.34l1.96-6.09h1.38l-2.84,7.92h-1.03l-2.87-7.92h1.38L28.82,499.34z"/>
	<path d="M36.66,501.32c-1.07,0-1.95-0.35-2.62-1.06c-0.67-0.71-1.01-1.65-1.01-2.83v-0.25c0-0.79,0.15-1.49,0.45-2.11
		c0.3-0.62,0.72-1.1,1.26-1.45c0.54-0.35,1.12-0.52,1.75-0.52c1.03,0,1.83,0.34,2.4,1.02s0.86,1.65,0.86,2.91v0.56h-5.37
		c0.02,0.78,0.25,1.41,0.68,1.89c0.44,0.48,0.99,0.72,1.67,0.72c0.48,0,0.88-0.1,1.22-0.29s0.62-0.46,0.87-0.78l0.83,0.64
		C38.98,500.81,37.99,501.32,36.66,501.32z M36.49,494.22c-0.55,0-1.01,0.2-1.38,0.6c-0.37,0.4-0.6,0.96-0.69,1.67h3.97v-0.1
		c-0.04-0.69-0.22-1.22-0.56-1.6C37.51,494.41,37.06,494.22,36.49,494.22z"/>
	<path d="M45.15,494.47c-0.21-0.03-0.43-0.05-0.67-0.05c-0.89,0-1.49,0.38-1.81,1.13v5.62h-1.35v-7.92h1.32l0.02,0.92
		c0.44-0.71,1.07-1.06,1.89-1.06c0.26,0,0.46,0.03,0.6,0.1V494.47z"/>
	<path d="M49.12,499.19l1.85-5.94h1.45l-3.19,9.15c-0.49,1.32-1.28,1.98-2.35,1.98l-0.26-0.02l-0.51-0.09v-1.1l0.37,0.03
		c0.46,0,0.82-0.09,1.07-0.28c0.26-0.19,0.47-0.53,0.63-1.02l0.3-0.81l-2.83-7.84h1.48L49.12,499.19z"/>
	<path d="M57.82,495.83l0.54-5.32h5.46v1.25h-4.31l-0.32,2.91c0.52-0.31,1.12-0.46,1.78-0.46c0.97,0,1.74,0.32,2.31,0.96
		c0.57,0.64,0.86,1.51,0.86,2.6c0,1.1-0.3,1.96-0.89,2.6c-0.59,0.63-1.42,0.95-2.49,0.95c-0.94,0-1.71-0.26-2.31-0.78
		c-0.6-0.52-0.94-1.25-1.02-2.17h1.28c0.08,0.61,0.3,1.07,0.65,1.38c0.35,0.31,0.82,0.47,1.39,0.47c0.63,0,1.12-0.21,1.48-0.64
		c0.36-0.43,0.54-1.02,0.54-1.78c0-0.71-0.19-1.29-0.58-1.72c-0.39-0.43-0.9-0.65-1.55-0.65c-0.59,0-1.05,0.13-1.39,0.39l-0.36,0.29
		L57.82,495.83z"/>
	<path d="M69.14,497.15c0-1.22,0.29-2.19,0.87-2.93c0.58-0.74,1.33-1.11,2.26-1.11c0.93,0,1.66,0.32,2.2,0.95v-4.13h1.36v11.25
		h-1.25l-0.07-0.85c-0.54,0.66-1.3,1-2.26,1c-0.92,0-1.67-0.38-2.25-1.13c-0.58-0.75-0.87-1.73-0.87-2.94V497.15z M70.5,497.3
		c0,0.9,0.19,1.6,0.56,2.11c0.37,0.51,0.88,0.76,1.54,0.76c0.86,0,1.49-0.38,1.88-1.16v-3.64c-0.41-0.75-1.03-1.12-1.87-1.12
		c-0.66,0-1.18,0.26-1.55,0.77S70.5,496.29,70.5,497.3z"/>
	<path d="M82.82,501.17c-0.08-0.16-0.14-0.43-0.19-0.83c-0.63,0.65-1.38,0.98-2.26,0.98c-0.78,0-1.42-0.22-1.92-0.66
		c-0.5-0.44-0.75-1-0.75-1.68c0-0.83,0.31-1.47,0.94-1.92c0.63-0.46,1.51-0.68,2.65-0.68h1.32v-0.62c0-0.47-0.14-0.85-0.42-1.13
		c-0.28-0.28-0.7-0.42-1.25-0.42c-0.48,0-0.89,0.12-1.22,0.37s-0.49,0.54-0.49,0.89h-1.36c0-0.4,0.14-0.78,0.42-1.15
		c0.28-0.37,0.66-0.66,1.14-0.88c0.48-0.21,1.01-0.32,1.59-0.32c0.91,0,1.63,0.23,2.15,0.68c0.52,0.46,0.79,1.09,0.81,1.89v3.65
		c0,0.73,0.09,1.31,0.28,1.74v0.12H82.82z M80.58,500.14c0.42,0,0.83-0.11,1.21-0.33s0.66-0.5,0.83-0.86v-1.63h-1.06
		c-1.66,0-2.49,0.49-2.49,1.46c0,0.42,0.14,0.76,0.42,1S80.13,500.14,80.58,500.14z"/>
	<path d="M88.57,499.19l1.85-5.94h1.45l-3.19,9.15c-0.49,1.32-1.28,1.98-2.35,1.98l-0.26-0.02l-0.51-0.09v-1.1l0.37,0.03
		c0.46,0,0.82-0.09,1.07-0.28c0.26-0.19,0.47-0.53,0.63-1.02l0.3-0.81l-2.83-7.84h1.48L88.57,499.19z"/>
	<path d="M97.69,499.07c0-0.37-0.14-0.65-0.41-0.85c-0.28-0.2-0.76-0.38-1.44-0.52c-0.69-0.15-1.23-0.32-1.63-0.53
		c-0.4-0.21-0.7-0.45-0.89-0.73c-0.19-0.28-0.29-0.62-0.29-1.01c0-0.65,0.27-1.2,0.82-1.65c0.55-0.45,1.25-0.67,2.11-0.67
		c0.9,0,1.63,0.23,2.19,0.7c0.56,0.46,0.84,1.06,0.84,1.78h-1.36c0-0.37-0.16-0.69-0.47-0.96c-0.32-0.27-0.71-0.4-1.19-0.4
		c-0.49,0-0.88,0.11-1.16,0.32s-0.42,0.5-0.42,0.84c0,0.33,0.13,0.57,0.39,0.74s0.73,0.33,1.4,0.48c0.68,0.15,1.22,0.33,1.64,0.54
		s0.73,0.46,0.93,0.76c0.2,0.29,0.3,0.66,0.3,1.08c0,0.71-0.28,1.28-0.85,1.7c-0.57,0.43-1.3,0.64-2.2,0.64
		c-0.63,0-1.2-0.11-1.68-0.34s-0.87-0.54-1.15-0.94c-0.28-0.4-0.41-0.84-0.41-1.31h1.36c0.02,0.46,0.21,0.81,0.55,1.08
		c0.34,0.27,0.79,0.4,1.34,0.4c0.51,0,0.92-0.1,1.23-0.31C97.54,499.7,97.69,499.42,97.69,499.07z"/>
</g>
<g>
	<path d="M24.35,535.18h-4.62v3.78h5.37v1.15h-6.77v-10.66h6.7v1.15h-5.3v3.43h4.62V535.18z"/>
	<path d="M29.06,538.27l1.96-6.09h1.38l-2.84,7.92h-1.03l-2.87-7.92h1.38L29.06,538.27z"/>
	<path d="M36.9,540.26c-1.07,0-1.95-0.35-2.62-1.06c-0.67-0.71-1.01-1.65-1.01-2.83v-0.25c0-0.79,0.15-1.49,0.45-2.11
		c0.3-0.62,0.72-1.1,1.26-1.45c0.54-0.35,1.12-0.52,1.75-0.52c1.03,0,1.83,0.34,2.4,1.02s0.86,1.65,0.86,2.91v0.56h-5.37
		c0.02,0.78,0.25,1.41,0.68,1.89c0.44,0.48,0.99,0.72,1.67,0.72c0.48,0,0.88-0.1,1.22-0.29s0.62-0.46,0.87-0.78l0.83,0.64
		C39.22,539.75,38.23,540.26,36.9,540.26z M36.73,533.15c-0.55,0-1.01,0.2-1.38,0.6c-0.37,0.4-0.6,0.96-0.69,1.67h3.97v-0.1
		c-0.04-0.69-0.22-1.22-0.56-1.6C37.75,533.34,37.3,533.15,36.73,533.15z"/>
	<path d="M45.39,533.4c-0.21-0.03-0.43-0.05-0.67-0.05c-0.89,0-1.49,0.38-1.81,1.13v5.62h-1.35v-7.92h1.32l0.02,0.92
		c0.44-0.71,1.07-1.06,1.89-1.06c0.26,0,0.46,0.03,0.6,0.1V533.4z"/>
	<path d="M49.36,538.13l1.85-5.94h1.45l-3.19,9.15c-0.49,1.32-1.28,1.98-2.35,1.98l-0.26-0.02l-0.51-0.09v-1.1l0.37,0.03
		c0.46,0,0.82-0.09,1.07-0.28c0.26-0.19,0.47-0.53,0.63-1.02l0.3-0.81l-2.83-7.84h1.48L49.36,538.13z"/>
	<path d="M64.32,530.21l-4.42,9.9h-1.42l4.4-9.55h-5.77v-1.11h7.21V530.21z"/>
	<path d="M69.38,536.08c0-1.22,0.29-2.19,0.86-2.93c0.58-0.74,1.33-1.11,2.26-1.11c0.93,0,1.66,0.32,2.2,0.95v-4.13h1.36v11.25
		h-1.25l-0.07-0.85c-0.54,0.66-1.3,1-2.26,1c-0.92,0-1.67-0.38-2.25-1.13c-0.58-0.75-0.87-1.73-0.87-2.94V536.08z M70.74,536.24
		c0,0.9,0.19,1.6,0.56,2.11c0.37,0.51,0.88,0.76,1.54,0.76c0.86,0,1.49-0.38,1.88-1.16v-3.64c-0.41-0.75-1.03-1.12-1.87-1.12
		c-0.66,0-1.18,0.26-1.55,0.77S70.74,535.23,70.74,536.24z"/>
	<path d="M83.06,540.11c-0.08-0.16-0.14-0.43-0.19-0.83c-0.63,0.65-1.38,0.98-2.26,0.98c-0.78,0-1.42-0.22-1.92-0.66
		c-0.5-0.44-0.75-1-0.75-1.68c0-0.83,0.31-1.47,0.94-1.92c0.63-0.46,1.51-0.68,2.65-0.68h1.32v-0.62c0-0.47-0.14-0.85-0.42-1.13
		c-0.28-0.28-0.7-0.42-1.25-0.42c-0.48,0-0.89,0.12-1.22,0.37s-0.49,0.54-0.49,0.89h-1.36c0-0.4,0.14-0.78,0.42-1.15
		c0.28-0.37,0.66-0.66,1.14-0.88c0.48-0.21,1.01-0.32,1.59-0.32c0.91,0,1.63,0.23,2.15,0.68c0.52,0.46,0.79,1.09,0.81,1.89v3.65
		c0,0.73,0.09,1.31,0.28,1.74v0.12H83.06z M80.82,539.08c0.42,0,0.83-0.11,1.21-0.33s0.66-0.5,0.83-0.86v-1.63h-1.06
		c-1.66,0-2.49,0.49-2.49,1.46c0,0.42,0.14,0.76,0.42,1S80.37,539.08,80.82,539.08z"/>
	<path d="M88.81,538.13l1.85-5.94h1.45l-3.19,9.15c-0.49,1.32-1.28,1.98-2.35,1.98l-0.26-0.02l-0.51-0.09v-1.1l0.37,0.03
		c0.46,0,0.82-0.09,1.07-0.28c0.26-0.19,0.47-0.53,0.63-1.02l0.3-0.81l-2.83-7.84h1.48L88.81,538.13z"/>
	<path d="M97.93,538.01c0-0.37-0.14-0.65-0.41-0.85c-0.28-0.2-0.76-0.38-1.44-0.52c-0.69-0.15-1.23-0.32-1.63-0.53
		c-0.4-0.21-0.7-0.45-0.89-0.73c-0.19-0.28-0.29-0.62-0.29-1.01c0-0.65,0.27-1.2,0.82-1.65c0.55-0.45,1.25-0.67,2.11-0.67
		c0.9,0,1.63,0.23,2.19,0.7c0.56,0.46,0.84,1.06,0.84,1.78h-1.36c0-0.37-0.16-0.69-0.47-0.96c-0.32-0.27-0.71-0.4-1.19-0.4
		c-0.49,0-0.88,0.11-1.16,0.32s-0.42,0.5-0.42,0.84c0,0.33,0.13,0.57,0.39,0.74s0.73,0.33,1.4,0.48c0.68,0.15,1.22,0.33,1.64,0.54
		s0.73,0.46,0.93,0.76c0.2,0.29,0.3,0.66,0.3,1.08c0,0.71-0.28,1.28-0.85,1.7c-0.57,0.43-1.3,0.64-2.2,0.64
		c-0.63,0-1.2-0.11-1.68-0.34s-0.87-0.54-1.15-0.94c-0.28-0.4-0.41-0.84-0.41-1.31h1.36c0.02,0.46,0.21,0.81,0.55,1.08
		c0.34,0.27,0.79,0.4,1.34,0.4c0.51,0,0.92-0.1,1.23-0.31C97.78,538.63,97.93,538.36,97.93,538.01z"/>
</g>
<g>
	<path d="M27.51,577.8H26.1l-5.37-8.22v8.22h-1.41v-10.66h1.41l5.38,8.25v-8.25h1.4V577.8z"/>
	<path d="M33.09,577.94c-1.08,0-1.95-0.35-2.62-1.06c-0.67-0.71-1.01-1.65-1.01-2.83v-0.25c0-0.79,0.15-1.49,0.45-2.11
		c0.3-0.62,0.72-1.1,1.26-1.45c0.54-0.35,1.12-0.52,1.75-0.52c1.03,0,1.83,0.34,2.4,1.02s0.86,1.65,0.86,2.91v0.56h-5.37
		c0.02,0.78,0.25,1.41,0.68,1.89c0.44,0.48,0.99,0.72,1.67,0.72c0.48,0,0.88-0.1,1.22-0.29c0.33-0.2,0.62-0.46,0.87-0.78l0.83,0.64
		C35.41,577.43,34.41,577.94,33.09,577.94z M32.92,570.84c-0.55,0-1.01,0.2-1.38,0.6c-0.37,0.4-0.6,0.96-0.69,1.67h3.97v-0.1
		c-0.04-0.69-0.22-1.22-0.56-1.6C33.93,571.03,33.48,570.84,32.92,570.84z"/>
	<path d="M40.26,575.96l1.96-6.09h1.38l-2.84,7.92h-1.03l-2.87-7.92h1.38L40.26,575.96z"/>
	<path d="M48.11,577.94c-1.08,0-1.95-0.35-2.62-1.06c-0.67-0.71-1.01-1.65-1.01-2.83v-0.25c0-0.79,0.15-1.49,0.45-2.11
		c0.3-0.62,0.72-1.1,1.26-1.45c0.54-0.35,1.12-0.52,1.75-0.52c1.03,0,1.83,0.34,2.4,1.02s0.86,1.65,0.86,2.91v0.56h-5.37
		c0.02,0.78,0.25,1.41,0.68,1.89c0.44,0.48,0.99,0.72,1.67,0.72c0.48,0,0.88-0.1,1.22-0.29c0.33-0.2,0.62-0.46,0.87-0.78l0.83,0.64
		C50.43,577.43,49.44,577.94,48.11,577.94z M47.94,570.84c-0.55,0-1.01,0.2-1.38,0.6c-0.37,0.4-0.6,0.96-0.69,1.67h3.97v-0.1
		c-0.04-0.69-0.22-1.22-0.56-1.6C48.95,571.03,48.51,570.84,47.94,570.84z"/>
	<path d="M56.6,571.09c-0.21-0.03-0.43-0.05-0.67-0.05c-0.89,0-1.49,0.38-1.81,1.13v5.62h-1.36v-7.92h1.32l0.02,0.92
		c0.44-0.71,1.07-1.06,1.89-1.06c0.26,0,0.46,0.03,0.6,0.1V571.09z"/>
</g>
<circle class="st0" cx="325.13" cy="224.84" r="11.17"/>
<line class="st0" x1="320.66" y1="224.84" x2="329.6" y2="224.84"/>
<circle class="st0" cx="325.19" cy="278.2" r="11.17"/>
<line class="st0" x1="320.72" y1="278.2" x2="329.66" y2="278.2"/>
<circle class="st0" cx="325.19" cy="329.24" r="11.17"/>
<line class="st0" x1="320.72" y1="329.24" x2="329.66" y2="329.24"/>
<circle class="st0" cx="324.77" cy="422.04" r="10.53"/>
<circle class="st4" cx="324.77" cy="460.8" r="10.53"/>
<circle class="st0" cx="324.77" cy="497.37" r="10.53"/>
<circle class="st0" cx="324.77" cy="536.33" r="10.53"/>
<circle class="st0" cx="324.77" cy="573.92" r="10.53"/>
<g>
</g>
<g>
</g>
<g>
</g>
<g>
</g>
<g>
</g>
<g>
</g>
</svg>
