<?xml version="1.0" encoding="utf-8"?>
<!-- Generator: Adobe Illustrator 25.2.1, SVG Export Plug-In . SVG Version: 6.00 Build 0)  -->
<svg version="1.1" id="Layer_1" xmlns="http://www.w3.org/2000/svg" xmlns:xlink="http://www.w3.org/1999/xlink" x="0px" y="0px"
	 viewBox="0 0 360 228" style="enable-background:new 0 0 360 228;" xml:space="preserve">
<style type="text/css">
	.st0{fill:none;stroke:#020203;stroke-width:1.3333;stroke-linecap:round;stroke-linejoin:round;stroke-miterlimit:2.6667;}
	.st1{fill:none;stroke:#000000;stroke-width:2;stroke-linecap:round;stroke-linejoin:round;stroke-miterlimit:3.3333;}
	.st2{fill:none;stroke:#DADADA;stroke-width:2;stroke-miterlimit:10;}
	.st3{fill:none;stroke:#DADADA;stroke-linecap:round;stroke-linejoin:round;stroke-miterlimit:3.3333;}
	.st4{fill:none;stroke:#020203;stroke-width:1.6667;stroke-linecap:round;stroke-linejoin:round;stroke-miterlimit:3.3333;}
	.st5{fill:none;stroke:#020203;stroke-width:0.75;stroke-linecap:round;stroke-linejoin:round;stroke-miterlimit:3.3333;}
	.st6{fill:none;stroke:#DADADA;stroke-miterlimit:10;}
	.st7{fill:#DEDEDE;}
	.st8{fill:none;stroke:#000000;stroke-width:2;stroke-miterlimit:10;}
	.st9{fill:#FFFFFF;stroke:#000000;stroke-width:2;stroke-miterlimit:10;}
	.st10{fill:none;stroke:#020203;stroke-width:2;stroke-linecap:round;stroke-linejoin:round;stroke-miterlimit:2.6667;}
	.st11{display:none;fill:#F39200;}
</style>
<path class="st0" d="M38.14,206.2c0,0.83-0.67,1.51-1.51,1.51H23.09c-0.83,0-1.51-0.67-1.51-1.51v-8.28c0-0.83,0.67-1.51,1.51-1.51
	h3.01l1.51-2.26h4.52l1.51,2.26h3.01c0.83,0,1.51,0.67,1.51,1.51V206.2z"/>
<circle class="st0" cx="29.86" cy="201.68" r="3.01"/>
<circle class="st1" cx="29.27" cy="30.09" r="17.5"/>
<g>
	<path d="M77.25,31.79l0.22,1.5l0.32-1.35L80.04,24h1.27l2.2,7.94l0.31,1.38l0.24-1.53L85.82,24h1.51l-2.76,11.38H83.2l-2.34-8.29
		l-0.18-0.87l-0.18,0.87l-2.43,8.29H76.7L73.95,24h1.5L77.25,31.79z"/>
	<path d="M90.21,27.94c0.64-0.79,1.47-1.18,2.5-1.18c1.79,0,2.69,1.01,2.7,3.02v5.59h-1.45v-5.59c-0.01-0.61-0.14-1.06-0.42-1.35
		c-0.27-0.29-0.7-0.44-1.28-0.44c-0.47,0-0.88,0.12-1.23,0.38c-0.35,0.25-0.63,0.58-0.83,0.98v6.02h-1.45v-12h1.45V27.94z"/>
	<path d="M102.79,35.37c-0.08-0.17-0.15-0.46-0.2-0.89c-0.67,0.7-1.47,1.05-2.41,1.05c-0.83,0-1.52-0.24-2.05-0.71
		c-0.53-0.47-0.8-1.07-0.8-1.79c0-0.88,0.33-1.56,1-2.05c0.67-0.49,1.61-0.73,2.82-0.73h1.41v-0.66c0-0.5-0.15-0.91-0.45-1.21
		c-0.3-0.3-0.75-0.45-1.34-0.45c-0.52,0-0.95,0.13-1.3,0.39c-0.35,0.26-0.52,0.58-0.52,0.95h-1.45c0-0.42,0.15-0.83,0.45-1.22
		c0.3-0.39,0.71-0.7,1.22-0.93c0.51-0.23,1.08-0.34,1.69-0.34c0.97,0,1.74,0.24,2.29,0.73c0.55,0.49,0.84,1.16,0.86,2.01v3.89
		c0,0.78,0.1,1.39,0.3,1.85v0.12H102.79z M100.4,34.27c0.45,0,0.88-0.12,1.29-0.35s0.7-0.54,0.88-0.91v-1.73h-1.13
		c-1.77,0-2.66,0.52-2.66,1.55c0,0.45,0.15,0.81,0.45,1.06C99.53,34.14,99.92,34.27,100.4,34.27z"/>
	<path d="M108.24,24.87v2.05h1.58v1.12h-1.58v5.25c0,0.34,0.07,0.59,0.21,0.76c0.14,0.17,0.38,0.25,0.72,0.25
		c0.17,0,0.4-0.03,0.69-0.09v1.17c-0.38,0.1-0.75,0.16-1.11,0.16c-0.65,0-1.13-0.2-1.46-0.59s-0.49-0.95-0.49-1.66v-5.24h-1.54
		v-1.12h1.54v-2.05H108.24z"/>
	<path d="M111.61,27.2l-0.82-0.56c0.48-0.68,0.73-1.39,0.75-2.14v-1.12h1.43v1.02c-0.01,0.52-0.13,1.04-0.39,1.56
		C112.33,26.46,112,26.88,111.61,27.2z"/>
	<path d="M118.75,33.13c0-0.39-0.15-0.69-0.44-0.91c-0.29-0.22-0.81-0.4-1.54-0.56c-0.73-0.16-1.31-0.34-1.74-0.56
		s-0.75-0.48-0.95-0.78c-0.21-0.3-0.31-0.66-0.31-1.08c0-0.69,0.29-1.28,0.88-1.76c0.59-0.48,1.33-0.72,2.25-0.72
		c0.96,0,1.74,0.25,2.33,0.74c0.6,0.5,0.89,1.13,0.89,1.9h-1.45c0-0.4-0.17-0.74-0.5-1.02c-0.34-0.29-0.76-0.43-1.27-0.43
		c-0.53,0-0.94,0.11-1.23,0.34c-0.3,0.23-0.45,0.53-0.45,0.9c0,0.35,0.14,0.61,0.41,0.79c0.28,0.18,0.77,0.35,1.5,0.51
		c0.72,0.16,1.31,0.35,1.75,0.58c0.45,0.22,0.78,0.49,1,0.81c0.22,0.32,0.32,0.7,0.32,1.15c0,0.76-0.3,1.36-0.91,1.82
		c-0.6,0.46-1.39,0.68-2.35,0.68c-0.68,0-1.28-0.12-1.8-0.36c-0.52-0.24-0.93-0.57-1.22-1c-0.29-0.43-0.44-0.89-0.44-1.39h1.45
		c0.03,0.48,0.22,0.87,0.58,1.15c0.36,0.28,0.84,0.43,1.43,0.43c0.55,0,0.99-0.11,1.32-0.33C118.58,33.79,118.75,33.5,118.75,33.13z
		"/>
	<path d="M125.65,31.07c0-0.83,0.16-1.57,0.49-2.23c0.33-0.66,0.78-1.17,1.36-1.53c0.58-0.36,1.24-0.54,1.99-0.54
		c1.15,0,2.08,0.4,2.79,1.2s1.07,1.86,1.07,3.18v0.1c0,0.82-0.16,1.56-0.47,2.21c-0.32,0.65-0.77,1.16-1.35,1.53
		c-0.59,0.36-1.26,0.55-2.02,0.55c-1.15,0-2.07-0.4-2.79-1.2s-1.07-1.85-1.07-3.16V31.07z M127.11,31.24c0,0.94,0.22,1.69,0.65,2.26
		c0.43,0.57,1.02,0.85,1.75,0.85c0.73,0,1.32-0.29,1.75-0.86c0.43-0.58,0.65-1.38,0.65-2.42c0-0.93-0.22-1.68-0.66-2.25
		c-0.44-0.58-1.02-0.86-1.75-0.86c-0.71,0-1.29,0.28-1.73,0.85C127.33,29.37,127.11,30.18,127.11,31.24z"/>
	<path d="M136.53,26.92l0.05,1.06c0.65-0.81,1.49-1.22,2.53-1.22c1.79,0,2.69,1.01,2.7,3.02v5.59h-1.45v-5.59
		c-0.01-0.61-0.14-1.06-0.42-1.35c-0.27-0.29-0.7-0.44-1.28-0.44c-0.47,0-0.88,0.12-1.23,0.38c-0.35,0.25-0.63,0.58-0.83,0.98v6.02
		h-1.45v-8.45H136.53z"/>
	<path d="M150.72,33.25l1.97-6.34h1.55l-3.4,9.76c-0.53,1.41-1.36,2.11-2.51,2.11l-0.27-0.02l-0.54-0.1v-1.17l0.39,0.03
		c0.49,0,0.87-0.1,1.14-0.3c0.27-0.2,0.5-0.56,0.68-1.09l0.32-0.86l-3.02-8.36h1.58L150.72,33.25z"/>
	<path d="M155.02,31.07c0-0.83,0.16-1.57,0.49-2.23c0.33-0.66,0.78-1.17,1.36-1.53s1.24-0.54,1.99-0.54c1.15,0,2.08,0.4,2.79,1.2
		s1.07,1.86,1.07,3.18v0.1c0,0.82-0.16,1.56-0.47,2.21c-0.32,0.65-0.77,1.16-1.35,1.53c-0.59,0.36-1.26,0.55-2.02,0.55
		c-1.15,0-2.07-0.4-2.79-1.2s-1.07-1.85-1.07-3.16V31.07z M156.47,31.24c0,0.94,0.22,1.69,0.65,2.26c0.43,0.57,1.02,0.85,1.75,0.85
		c0.73,0,1.32-0.29,1.75-0.86c0.43-0.58,0.65-1.38,0.65-2.42c0-0.93-0.22-1.68-0.66-2.25c-0.44-0.58-1.02-0.86-1.75-0.86
		c-0.71,0-1.29,0.28-1.73,0.85C156.69,29.37,156.47,30.18,156.47,31.24z"/>
	<path d="M169.75,34.54c-0.56,0.66-1.39,0.99-2.48,0.99c-0.9,0-1.59-0.26-2.06-0.79s-0.71-1.3-0.71-2.32v-5.5h1.45v5.46
		c0,1.28,0.52,1.92,1.56,1.92c1.1,0,1.84-0.41,2.2-1.23v-6.15h1.45v8.45h-1.38L169.75,34.54z"/>
	<path d="M177.43,28.22c-0.22-0.04-0.46-0.05-0.71-0.05c-0.95,0-1.59,0.4-1.93,1.21v6h-1.45v-8.45h1.41l0.02,0.98
		c0.47-0.75,1.15-1.13,2.02-1.13c0.28,0,0.5,0.04,0.64,0.11V28.22z"/>
	<path d="M184.08,26.92l0.04,0.94c0.62-0.73,1.46-1.09,2.51-1.09c1.18,0,1.99,0.45,2.41,1.36c0.28-0.41,0.65-0.73,1.1-0.98
		s0.98-0.38,1.6-0.38c1.85,0,2.8,0.98,2.83,2.95v5.66h-1.45v-5.58c0-0.6-0.14-1.06-0.41-1.36c-0.28-0.3-0.74-0.45-1.39-0.45
		c-0.54,0-0.98,0.16-1.34,0.48s-0.56,0.75-0.62,1.29v5.61h-1.45v-5.54c0-1.23-0.6-1.84-1.8-1.84c-0.95,0-1.6,0.4-1.95,1.21v6.17
		h-1.45v-8.45H184.08z"/>
	<path d="M196.75,24.68c0-0.23,0.07-0.43,0.21-0.59c0.14-0.16,0.36-0.24,0.64-0.24s0.5,0.08,0.64,0.24
		c0.15,0.16,0.22,0.36,0.22,0.59s-0.07,0.43-0.22,0.59s-0.36,0.23-0.64,0.23s-0.49-0.08-0.64-0.23S196.75,24.91,196.75,24.68z
		 M198.32,35.37h-1.45v-8.45h1.45V35.37z"/>
	<path d="M202,26.92l0.05,1.06c0.65-0.81,1.49-1.22,2.53-1.22c1.79,0,2.69,1.01,2.7,3.02v5.59h-1.45v-5.59
		c0-0.61-0.14-1.06-0.42-1.35c-0.27-0.29-0.7-0.44-1.28-0.44c-0.47,0-0.88,0.12-1.23,0.38s-0.63,0.58-0.83,0.98v6.02h-1.45v-8.45
		H202z"/>
	<path d="M209.11,31.07c0-1.3,0.31-2.34,0.92-3.13s1.42-1.18,2.41-1.18c0.99,0,1.77,0.34,2.35,1.02v-4.41h1.45v12h-1.33l-0.07-0.91
		c-0.58,0.71-1.38,1.06-2.41,1.06c-0.98,0-1.78-0.4-2.39-1.2c-0.62-0.8-0.93-1.85-0.93-3.14V31.07z M210.55,31.24
		c0,0.96,0.2,1.71,0.59,2.25c0.4,0.54,0.94,0.81,1.64,0.81c0.92,0,1.59-0.41,2.01-1.23v-3.88c-0.43-0.8-1.1-1.2-1.99-1.2
		c-0.71,0-1.26,0.27-1.66,0.82S210.55,30.17,210.55,31.24z"/>
	<path d="M220.18,32.16c0.01-0.62,0.08-1.11,0.21-1.47s0.4-0.76,0.8-1.19l1.02-1.05c0.44-0.49,0.66-1.02,0.66-1.59
		c0-0.55-0.14-0.97-0.43-1.28c-0.29-0.31-0.7-0.46-1.25-0.46c-0.53,0-0.96,0.14-1.28,0.42s-0.48,0.66-0.48,1.13h-1.45
		c0.01-0.84,0.31-1.52,0.9-2.04c0.59-0.52,1.36-0.78,2.31-0.78c0.98,0,1.75,0.26,2.3,0.79c0.55,0.53,0.82,1.25,0.82,2.17
		c0,0.91-0.42,1.81-1.27,2.69l-0.85,0.84c-0.38,0.42-0.57,1.03-0.57,1.82H220.18z M220.11,34.64c0-0.24,0.07-0.44,0.21-0.6
		c0.14-0.16,0.36-0.24,0.64-0.24s0.5,0.08,0.64,0.24c0.15,0.16,0.22,0.36,0.22,0.6c0,0.24-0.07,0.43-0.22,0.59
		c-0.15,0.15-0.36,0.23-0.64,0.23s-0.49-0.08-0.64-0.23C220.19,35.07,220.11,34.87,220.11,34.64z"/>
</g>
<path class="st2" d="M336.08,45.61H72.09c-8.62,0-15.67-7.05-15.67-15.67v0c0-8.62,7.05-15.67,15.67-15.67h263.99
	c8.62,0,15.67,7.05,15.67,15.67v0C351.75,38.56,344.7,45.61,336.08,45.61z"/>
<line class="st3" x1="-0.21" y1="58.41" x2="359.79" y2="59.01"/>
<polygon class="st4" points="57.83,74.9 52.83,78.47 57.83,82.04 "/>
<path class="st4" d="M43.54,73.47h7.86c0.79,0,1.43,0.64,1.43,1.43v7.14c0,0.79-0.64,1.43-1.43,1.43h-7.86
	c-0.79,0-1.43-0.64-1.43-1.43V74.9C42.12,74.11,42.75,73.47,43.54,73.47z"/>
<polygon class="st4" points="296.88,75.15 291.88,78.72 296.88,82.29 "/>
<path class="st4" d="M282.6,73.72h7.86c0.79,0,1.43,0.64,1.43,1.43v7.14c0,0.79-0.64,1.43-1.43,1.43h-7.86
	c-0.79,0-1.43-0.64-1.43-1.43v-7.14C281.17,74.36,281.81,73.72,282.6,73.72z"/>
<rect x="164.13" y="71.64" transform="matrix(0.9969 0.0784 -0.0784 0.9969 6.6676 -12.9887)" class="st5" width="9.32" height="13.61"/>
<g>
	<path d="M64.86,81.12h4.04v0.92h-5.17v-8.53h1.13V81.12z"/>
	<path d="M70.02,74.02c0-0.18,0.05-0.32,0.16-0.45s0.27-0.18,0.48-0.18s0.37,0.06,0.48,0.18s0.16,0.27,0.16,0.45
		s-0.05,0.32-0.16,0.44s-0.27,0.18-0.48,0.18s-0.37-0.06-0.48-0.18S70.02,74.19,70.02,74.02z M71.19,82.04h-1.08V75.7h1.08V82.04z"
		/>
	<path d="M75.02,80.57l1.57-4.87h1.11l-2.27,6.34H74.6l-2.3-6.34h1.11L75.02,80.57z"/>
	<path d="M81.29,82.16c-0.86,0-1.56-0.28-2.1-0.85s-0.81-1.32-0.81-2.26v-0.2c0-0.63,0.12-1.19,0.36-1.68s0.58-0.88,1.01-1.16
		s0.9-0.42,1.4-0.42c0.82,0,1.46,0.27,1.92,0.81s0.69,1.32,0.69,2.33v0.45h-4.29c0.02,0.62,0.2,1.13,0.55,1.51s0.79,0.58,1.33,0.58
		c0.38,0,0.71-0.08,0.97-0.23s0.5-0.36,0.7-0.62l0.66,0.52C83.15,81.75,82.36,82.16,81.29,82.16z M81.16,76.47
		c-0.44,0-0.8,0.16-1.1,0.48s-0.48,0.76-0.55,1.34h3.18v-0.08c-0.03-0.55-0.18-0.98-0.45-1.28S81.61,76.47,81.16,76.47z"/>
</g>
<g>
	<path d="M181.34,78.82v3.34h-1.12v-8.53h3.15c0.93,0,1.67,0.24,2.19,0.71s0.79,1.11,0.79,1.89c0,0.83-0.26,1.47-0.78,1.91
		s-1.26,0.67-2.22,0.67H181.34z M181.34,77.9h2.02c0.6,0,1.06-0.14,1.38-0.43c0.32-0.28,0.48-0.69,0.48-1.23
		c0-0.51-0.16-0.92-0.48-1.22s-0.76-0.46-1.32-0.48h-2.09V77.9z"/>
	<path d="M188.7,76.59c0.48-0.59,1.11-0.88,1.88-0.88c1.34,0,2.02,0.76,2.03,2.27v4.19h-1.08v-4.2c0-0.46-0.11-0.79-0.31-1.01
		s-0.52-0.33-0.96-0.33c-0.35,0-0.66,0.09-0.93,0.28s-0.47,0.43-0.62,0.74v4.52h-1.08v-9h1.08V76.59z"/>
	<path d="M193.93,78.93c0-0.62,0.12-1.18,0.37-1.68s0.58-0.88,1.02-1.15s0.93-0.4,1.49-0.4c0.86,0,1.56,0.3,2.09,0.9
		s0.8,1.39,0.8,2.38v0.08c0,0.62-0.12,1.17-0.35,1.66s-0.57,0.87-1.01,1.15s-0.94,0.41-1.51,0.41c-0.86,0-1.56-0.3-2.09-0.9
		s-0.8-1.39-0.8-2.37V78.93z M195.02,79.06c0,0.7,0.16,1.27,0.49,1.69s0.76,0.64,1.31,0.64c0.55,0,0.99-0.22,1.31-0.65
		s0.49-1.04,0.49-1.81c0-0.7-0.17-1.26-0.5-1.69s-0.77-0.65-1.32-0.65c-0.54,0-0.97,0.21-1.29,0.64S195.02,78.27,195.02,79.06z"/>
	<path d="M202.54,74.28v1.54h1.18v0.84h-1.18v3.94c0,0.25,0.05,0.44,0.16,0.57c0.11,0.13,0.29,0.19,0.54,0.19
		c0.12,0,0.3-0.02,0.52-0.07v0.87c-0.29,0.08-0.56,0.12-0.83,0.12c-0.48,0-0.85-0.15-1.1-0.44s-0.37-0.71-0.37-1.25v-3.93h-1.15
		v-0.84h1.15v-1.54H202.54z"/>
	<path d="M204.58,78.93c0-0.62,0.12-1.18,0.37-1.68s0.58-0.88,1.02-1.15s0.93-0.4,1.49-0.4c0.86,0,1.56,0.3,2.09,0.9
		s0.8,1.39,0.8,2.38v0.08c0,0.62-0.12,1.17-0.35,1.66s-0.57,0.87-1.01,1.15s-0.94,0.41-1.51,0.41c-0.86,0-1.56-0.3-2.09-0.9
		s-0.8-1.39-0.8-2.37V78.93z M205.67,79.06c0,0.7,0.16,1.27,0.49,1.69s0.76,0.64,1.31,0.64c0.55,0,0.99-0.22,1.31-0.65
		s0.49-1.04,0.49-1.81c0-0.7-0.17-1.26-0.5-1.69s-0.77-0.65-1.32-0.65c-0.54,0-0.97,0.21-1.29,0.64S205.67,78.27,205.67,79.06z"/>
</g>
<g>
	<path d="M304.86,78.59h-2v3.45h-1.13v-8.53h2.82c0.96,0,1.7,0.22,2.22,0.66s0.78,1.07,0.78,1.91c0,0.53-0.14,0.99-0.43,1.39
		s-0.69,0.69-1.2,0.88l2,3.62v0.07h-1.21L304.86,78.59z M302.86,77.67h1.73c0.56,0,1-0.14,1.33-0.43c0.33-0.29,0.5-0.68,0.5-1.16
		c0-0.53-0.16-0.93-0.47-1.21s-0.77-0.42-1.36-0.43h-1.72V77.67z"/>
	<path d="M308.66,78.81c0-0.62,0.12-1.18,0.37-1.68s0.58-0.88,1.02-1.15s0.93-0.4,1.49-0.4c0.86,0,1.56,0.3,2.09,0.9
		s0.8,1.39,0.8,2.38v0.08c0,0.62-0.12,1.17-0.35,1.66s-0.57,0.87-1.01,1.15s-0.94,0.41-1.51,0.41c-0.86,0-1.56-0.3-2.09-0.9
		s-0.8-1.39-0.8-2.37V78.81z M309.75,78.94c0,0.7,0.16,1.27,0.49,1.69s0.76,0.64,1.31,0.64c0.55,0,0.99-0.22,1.31-0.65
		s0.49-1.04,0.49-1.81c0-0.7-0.17-1.26-0.5-1.69s-0.77-0.65-1.32-0.65c-0.54,0-0.97,0.21-1.29,0.64S309.75,78.15,309.75,78.94z"/>
	<path d="M315.51,78.81c0-0.62,0.12-1.18,0.37-1.68s0.58-0.88,1.02-1.15s0.93-0.4,1.49-0.4c0.86,0,1.56,0.3,2.09,0.9
		s0.8,1.39,0.8,2.38v0.08c0,0.62-0.12,1.17-0.35,1.66s-0.57,0.87-1.01,1.15s-0.94,0.41-1.51,0.41c-0.86,0-1.56-0.3-2.09-0.9
		s-0.8-1.39-0.8-2.37V78.81z M316.6,78.94c0,0.7,0.16,1.27,0.49,1.69s0.76,0.64,1.31,0.64c0.55,0,0.99-0.22,1.31-0.65
		s0.49-1.04,0.49-1.81c0-0.7-0.17-1.26-0.5-1.69s-0.77-0.65-1.32-0.65c-0.54,0-0.97,0.21-1.29,0.64S316.6,78.15,316.6,78.94z"/>
	<path d="M323.66,75.7l0.03,0.7c0.46-0.55,1.09-0.82,1.88-0.82c0.89,0,1.49,0.34,1.81,1.02c0.21-0.3,0.49-0.55,0.82-0.74
		s0.74-0.28,1.2-0.28c1.39,0,2.1,0.74,2.12,2.21v4.25h-1.08v-4.18c0-0.45-0.1-0.79-0.31-1.02s-0.55-0.34-1.04-0.34
		c-0.4,0-0.74,0.12-1,0.36s-0.42,0.56-0.46,0.97v4.21h-1.09v-4.15c0-0.92-0.45-1.38-1.35-1.38c-0.71,0-1.2,0.3-1.46,0.91v4.63h-1.08
		V75.7H323.66z"/>
</g>
<line class="st6" x1="121.17" y1="66.6" x2="121.17" y2="90.27"/>
<line class="st6" x1="242.78" y1="67.72" x2="242.78" y2="91.39"/>
<rect x="0.14" y="97.79" class="st7" width="360" height="8.9"/>
<polygon class="st4" points="45.78,132.41 39.95,136.58 45.78,140.74 "/>
<path class="st4" d="M29.13,130.75h9.16c0.92,0,1.67,0.75,1.67,1.67v8.33c0,0.92-0.75,1.67-1.67,1.67h-9.16
	c-0.92,0-1.67-0.75-1.67-1.67v-8.33C27.46,131.49,28.21,130.75,29.13,130.75z"/>
<g>
	<path d="M61.02,131.62c-0.1,0.83-0.4,1.47-0.92,1.92c-0.51,0.45-1.2,0.67-2.05,0.67c-0.92,0-1.66-0.33-2.22-0.99
		c-0.56-0.66-0.84-1.55-0.84-2.66v-0.75c0-0.73,0.13-1.37,0.39-1.92c0.26-0.55,0.63-0.98,1.1-1.27c0.48-0.3,1.03-0.44,1.65-0.44
		c0.83,0,1.5,0.23,2,0.7c0.5,0.46,0.79,1.11,0.88,1.93h-1.04c-0.09-0.62-0.28-1.08-0.58-1.36c-0.3-0.28-0.72-0.42-1.25-0.42
		c-0.66,0-1.18,0.24-1.55,0.73c-0.37,0.49-0.56,1.18-0.56,2.08v0.76c0,0.85,0.18,1.52,0.53,2.03s0.85,0.75,1.49,0.75
		c0.57,0,1.01-0.13,1.32-0.39c0.31-0.26,0.51-0.71,0.61-1.36H61.02z"/>
	<path d="M65.08,129.19c-0.15-0.02-0.31-0.04-0.49-0.04c-0.65,0-1.09,0.28-1.33,0.83v4.12h-0.99v-5.81h0.97l0.02,0.67
		c0.33-0.52,0.79-0.78,1.39-0.78c0.19,0,0.34,0.03,0.44,0.08V129.19z"/>
	<path d="M68.3,134.21c-0.79,0-1.43-0.26-1.92-0.78c-0.49-0.52-0.74-1.21-0.74-2.08v-0.18c0-0.58,0.11-1.09,0.33-1.54
		c0.22-0.45,0.53-0.81,0.92-1.06c0.4-0.26,0.82-0.38,1.29-0.38c0.76,0,1.34,0.25,1.76,0.75c0.42,0.5,0.63,1.21,0.63,2.14v0.41h-3.94
		c0.01,0.57,0.18,1.04,0.5,1.39c0.32,0.35,0.73,0.53,1.22,0.53c0.35,0,0.65-0.07,0.89-0.21c0.24-0.14,0.46-0.33,0.64-0.57l0.61,0.47
		C70.01,133.84,69.28,134.21,68.3,134.21z M68.18,129c-0.4,0-0.74,0.15-1.01,0.44c-0.27,0.29-0.44,0.7-0.5,1.23h2.91v-0.08
		c-0.03-0.5-0.16-0.9-0.41-1.17C68.93,129.14,68.6,129,68.18,129z"/>
	<path d="M75.31,134.11c-0.06-0.11-0.1-0.32-0.14-0.61c-0.46,0.48-1.01,0.72-1.65,0.72c-0.57,0-1.04-0.16-1.41-0.49
		c-0.37-0.32-0.55-0.73-0.55-1.23c0-0.6,0.23-1.08,0.69-1.41c0.46-0.33,1.11-0.5,1.94-0.5h0.97v-0.46c0-0.35-0.1-0.62-0.31-0.83
		s-0.51-0.31-0.92-0.31c-0.35,0-0.65,0.09-0.89,0.27c-0.24,0.18-0.36,0.4-0.36,0.65h-1c0-0.29,0.1-0.57,0.31-0.84
		c0.21-0.27,0.48-0.48,0.84-0.64c0.35-0.16,0.74-0.24,1.16-0.24c0.67,0,1.19,0.17,1.57,0.5c0.38,0.33,0.58,0.8,0.59,1.38v2.67
		c0,0.53,0.07,0.96,0.2,1.27v0.09H75.31z M73.66,133.35c0.31,0,0.61-0.08,0.89-0.24s0.48-0.37,0.61-0.63v-1.19h-0.78
		c-1.22,0-1.83,0.36-1.83,1.07c0,0.31,0.1,0.56,0.31,0.73C73.07,133.26,73.33,133.35,73.66,133.35z"/>
	<path d="M79.05,126.89v1.41h1.08v0.77h-1.08v3.61c0,0.23,0.05,0.41,0.15,0.52s0.26,0.17,0.49,0.17c0.11,0,0.27-0.02,0.47-0.06v0.8
		c-0.26,0.07-0.52,0.11-0.76,0.11c-0.44,0-0.78-0.13-1-0.4s-0.34-0.65-0.34-1.14v-3.6H77v-0.77h1.06v-1.41H79.05z"/>
	<path d="M83.71,134.21c-0.79,0-1.43-0.26-1.92-0.78c-0.49-0.52-0.74-1.21-0.74-2.08v-0.18c0-0.58,0.11-1.09,0.33-1.54
		c0.22-0.45,0.53-0.81,0.92-1.06c0.4-0.26,0.82-0.38,1.29-0.38c0.76,0,1.34,0.25,1.76,0.75c0.42,0.5,0.63,1.21,0.63,2.14v0.41h-3.94
		c0.01,0.57,0.18,1.04,0.5,1.39c0.32,0.35,0.73,0.53,1.22,0.53c0.35,0,0.65-0.07,0.89-0.21c0.24-0.14,0.46-0.33,0.64-0.57l0.61,0.47
		C85.41,133.84,84.68,134.21,83.71,134.21z M83.59,129c-0.4,0-0.74,0.15-1.01,0.44c-0.27,0.29-0.44,0.7-0.5,1.23h2.91v-0.08
		c-0.03-0.5-0.16-0.9-0.41-1.17C84.33,129.14,84,129,83.59,129z"/>
	<path d="M57.92,142.39c-0.15-0.02-0.31-0.04-0.49-0.04c-0.65,0-1.09,0.28-1.33,0.83v4.12h-0.99v-5.81h0.97l0.02,0.67
		c0.33-0.52,0.79-0.78,1.39-0.78c0.19,0,0.34,0.03,0.44,0.08V142.39z"/>
	<path d="M58.46,144.35c0-0.57,0.11-1.08,0.34-1.54c0.22-0.46,0.54-0.81,0.93-1.05c0.4-0.25,0.85-0.37,1.37-0.37
		c0.79,0,1.43,0.27,1.92,0.82c0.49,0.55,0.73,1.28,0.73,2.19v0.07c0,0.57-0.11,1.07-0.33,1.52c-0.22,0.45-0.53,0.8-0.93,1.05
		c-0.4,0.25-0.87,0.38-1.39,0.38c-0.79,0-1.43-0.27-1.92-0.82c-0.49-0.55-0.73-1.27-0.73-2.18V144.35z M59.46,144.47
		c0,0.64,0.15,1.16,0.45,1.55c0.3,0.39,0.7,0.59,1.2,0.59c0.5,0,0.91-0.2,1.2-0.59s0.45-0.95,0.45-1.66c0-0.64-0.15-1.15-0.45-1.55
		c-0.3-0.4-0.7-0.59-1.21-0.59c-0.49,0-0.89,0.2-1.19,0.59C59.61,143.18,59.46,143.74,59.46,144.47z"/>
	<path d="M64.74,144.35c0-0.57,0.11-1.08,0.34-1.54c0.22-0.46,0.54-0.81,0.93-1.05c0.4-0.25,0.85-0.37,1.37-0.37
		c0.79,0,1.43,0.27,1.92,0.82c0.49,0.55,0.73,1.28,0.73,2.19v0.07c0,0.57-0.11,1.07-0.33,1.52c-0.22,0.45-0.53,0.8-0.93,1.05
		c-0.4,0.25-0.87,0.38-1.39,0.38c-0.79,0-1.43-0.27-1.92-0.82c-0.49-0.55-0.73-1.27-0.73-2.18V144.35z M65.74,144.47
		c0,0.64,0.15,1.16,0.45,1.55c0.3,0.39,0.7,0.59,1.2,0.59c0.5,0,0.91-0.2,1.2-0.59s0.45-0.95,0.45-1.66c0-0.64-0.15-1.15-0.45-1.55
		c-0.3-0.4-0.7-0.59-1.21-0.59c-0.49,0-0.89,0.2-1.19,0.59C65.89,143.18,65.74,143.74,65.74,144.47z"/>
	<path d="M72.21,141.5l0.03,0.64c0.43-0.5,1-0.75,1.72-0.75c0.81,0,1.37,0.31,1.66,0.93c0.19-0.28,0.44-0.5,0.75-0.68
		c0.31-0.17,0.68-0.26,1.1-0.26c1.27,0,1.92,0.67,1.94,2.03v3.89h-0.99v-3.83c0-0.42-0.09-0.73-0.28-0.93s-0.51-0.31-0.96-0.31
		c-0.37,0-0.67,0.11-0.92,0.33c-0.24,0.22-0.38,0.52-0.42,0.89v3.86h-1v-3.81c0-0.85-0.41-1.27-1.24-1.27
		c-0.65,0-1.1,0.28-1.34,0.83v4.24h-0.99v-5.81H72.21z"/>
</g>
<path class="st8" d="M81.66,154.27H31.77c-9.94,0-18.06-8.13-18.06-18.06v0c0-9.94,8.13-18.06,18.06-18.06h49.89
	c9.94,0,18.06,8.13,18.06,18.06v0C99.72,146.14,91.6,154.27,81.66,154.27z"/>
<circle class="st8" cx="130.71" cy="136.88" r="18"/>
<circle class="st9" cx="144.21" cy="149.96" r="4.5"/>
<circle class="st8" cx="182.61" cy="136.88" r="18"/>
<circle class="st9" cx="196.11" cy="149.96" r="4.5"/>
<circle class="st8" cx="234.61" cy="136.88" r="18"/>
<circle class="st9" cx="248.11" cy="149.96" r="4.5"/>
<circle class="st8" cx="286.82" cy="136.88" r="18"/>
<circle class="st9" cx="300.32" cy="149.96" r="4.5"/>
<circle class="st8" cx="339.12" cy="136.88" r="18"/>
<circle class="st9" cx="352.62" cy="149.96" r="4.5"/>
<polyline class="st0" points="344.12,200.06 348.12,204.06 352.12,200.06 "/>
<circle class="st10" cx="28.79" cy="201.68" r="16.5"/>
<g>
	<path d="M62.93,203.27c-1.13-0.32-1.94-0.72-2.46-1.19s-0.77-1.05-0.77-1.75c0-0.78,0.31-1.43,0.94-1.94s1.44-0.77,2.44-0.77
		c0.68,0,1.29,0.13,1.83,0.4c0.54,0.26,0.95,0.63,1.24,1.09s0.44,0.97,0.44,1.52h-1.32c0-0.6-0.19-1.08-0.57-1.42
		c-0.38-0.35-0.92-0.52-1.62-0.52c-0.65,0-1.15,0.14-1.51,0.43c-0.36,0.29-0.54,0.68-0.54,1.19c0,0.41,0.17,0.75,0.52,1.03
		c0.34,0.28,0.93,0.54,1.76,0.77c0.83,0.23,1.47,0.49,1.94,0.77s0.81,0.61,1.04,0.98c0.23,0.37,0.34,0.81,0.34,1.32
		c0,0.81-0.31,1.45-0.94,1.94s-1.47,0.73-2.52,0.73c-0.68,0-1.32-0.13-1.91-0.39c-0.59-0.26-1.05-0.62-1.37-1.08
		c-0.32-0.46-0.48-0.97-0.48-1.55h1.32c0,0.6,0.22,1.08,0.67,1.43s1.04,0.52,1.78,0.52c0.69,0,1.22-0.14,1.59-0.42
		c0.37-0.28,0.55-0.67,0.55-1.16c0-0.49-0.17-0.86-0.51-1.13S63.83,203.53,62.93,203.27z"/>
	<path d="M69.82,198.51v1.79h1.38v0.98h-1.38v4.59c0,0.3,0.06,0.52,0.18,0.67c0.12,0.15,0.33,0.22,0.63,0.22
		c0.15,0,0.35-0.03,0.6-0.08v1.02c-0.33,0.09-0.66,0.14-0.97,0.14c-0.56,0-0.99-0.17-1.28-0.51s-0.43-0.83-0.43-1.46v-4.59h-1.35
		v-0.98h1.35v-1.79H69.82z"/>
	<path d="M72.21,203.94c0-0.72,0.14-1.38,0.43-1.96c0.28-0.58,0.68-1.03,1.19-1.34s1.09-0.47,1.74-0.47c1.01,0,1.82,0.35,2.44,1.05
		s0.93,1.62,0.93,2.78v0.09c0,0.72-0.14,1.37-0.41,1.94c-0.28,0.57-0.67,1.02-1.18,1.34c-0.51,0.32-1.1,0.48-1.77,0.48
		c-1,0-1.81-0.35-2.44-1.05s-0.93-1.62-0.93-2.77V203.94z M73.48,204.09c0,0.82,0.19,1.48,0.57,1.98c0.38,0.5,0.89,0.75,1.53,0.75
		c0.64,0,1.15-0.25,1.53-0.75c0.38-0.5,0.57-1.21,0.57-2.12c0-0.81-0.19-1.47-0.58-1.97c-0.39-0.5-0.9-0.76-1.53-0.76
		c-0.62,0-1.13,0.25-1.51,0.75C73.67,202.45,73.48,203.16,73.48,204.09z"/>
	<path d="M84.1,201.44c-0.19-0.03-0.4-0.05-0.62-0.05c-0.83,0-1.39,0.35-1.69,1.06v5.25h-1.26v-7.4h1.23l0.02,0.85
		c0.41-0.66,1-0.99,1.76-0.99c0.25,0,0.43,0.03,0.56,0.1V201.44z"/>
	<path d="M85.27,198.34c0-0.21,0.06-0.38,0.19-0.52c0.13-0.14,0.31-0.21,0.56-0.21s0.43,0.07,0.56,0.21
		c0.13,0.14,0.19,0.31,0.19,0.52s-0.06,0.38-0.19,0.51s-0.31,0.21-0.56,0.21s-0.43-0.07-0.56-0.21S85.27,198.55,85.27,198.34z
		 M86.64,207.7h-1.26v-7.4h1.26V207.7z"/>
	<path d="M91.73,207.84c-1,0-1.82-0.33-2.45-0.99c-0.63-0.66-0.94-1.54-0.94-2.64v-0.23c0-0.73,0.14-1.39,0.42-1.96
		c0.28-0.58,0.67-1.03,1.18-1.35c0.5-0.33,1.05-0.49,1.64-0.49c0.96,0,1.71,0.32,2.24,0.95c0.53,0.63,0.8,1.54,0.8,2.72v0.53H89.6
		c0.02,0.73,0.23,1.32,0.64,1.77c0.41,0.45,0.93,0.67,1.56,0.67c0.45,0,0.82-0.09,1.13-0.27c0.31-0.18,0.58-0.42,0.81-0.72l0.77,0.6
		C93.9,207.36,92.97,207.84,91.73,207.84z M91.57,201.21c-0.51,0-0.94,0.19-1.29,0.56c-0.35,0.37-0.56,0.89-0.64,1.56h3.71v-0.1
		c-0.04-0.64-0.21-1.14-0.52-1.49C92.52,201.38,92.1,201.21,91.57,201.21z"/>
	<path d="M100.38,205.74c0-0.34-0.13-0.61-0.39-0.8c-0.26-0.19-0.71-0.35-1.35-0.49s-1.15-0.3-1.52-0.49s-0.65-0.42-0.83-0.68
		c-0.18-0.26-0.27-0.58-0.27-0.94c0-0.61,0.26-1.12,0.77-1.54c0.51-0.42,1.17-0.63,1.97-0.63c0.84,0,1.52,0.22,2.04,0.65
		c0.52,0.43,0.78,0.99,0.78,1.66h-1.27c0-0.35-0.15-0.64-0.44-0.9c-0.29-0.25-0.66-0.38-1.11-0.38c-0.46,0-0.82,0.1-1.08,0.3
		c-0.26,0.2-0.39,0.46-0.39,0.79c0,0.31,0.12,0.54,0.36,0.69c0.24,0.16,0.68,0.3,1.31,0.44c0.63,0.14,1.14,0.31,1.53,0.51
		c0.39,0.2,0.68,0.43,0.87,0.71c0.19,0.28,0.28,0.61,0.28,1.01c0,0.66-0.26,1.19-0.79,1.59c-0.53,0.4-1.21,0.6-2.06,0.6
		c-0.59,0-1.12-0.1-1.57-0.31c-0.46-0.21-0.81-0.5-1.07-0.88s-0.39-0.78-0.39-1.22h1.26c0.02,0.42,0.19,0.76,0.51,1.01
		c0.32,0.25,0.73,0.37,1.25,0.37c0.48,0,0.86-0.1,1.15-0.29C100.24,206.32,100.38,206.06,100.38,205.74z"/>
</g>
<rect x="0.21" y="166.58" class="st7" width="360" height="8.9"/>
<rect x="0.21" class="st11" width="359.78" height="227.88"/>
<g>
</g>
<g>
</g>
<g>
</g>
<g>
</g>
<g>
</g>
<g>
</g>
</svg>
