<?xml version="1.0" encoding="utf-8"?>
<!-- Generator: Adobe Illustrator 25.2.1, SVG Export Plug-In . SVG Version: 6.00 Build 0)  -->
<svg version="1.1" id="Layer_1" xmlns="http://www.w3.org/2000/svg" xmlns:xlink="http://www.w3.org/1999/xlink" x="0px" y="0px"
	 viewBox="0 0 360 710" style="enable-background:new 0 0 360 710;" xml:space="preserve">
<style type="text/css">
	.st0{display:none;fill:#E30613;}
	.st1{fill:none;stroke:#020203;stroke-width:2;stroke-linecap:round;stroke-linejoin:round;}
	.st2{fill:none;stroke:#000000;stroke-width:2;stroke-miterlimit:10;}
	.st3{fill:#DADADA;}
	.st4{fill:none;stroke:#DADADA;stroke-miterlimit:10;}
</style>
<rect class="st0" width="359.47" height="710"/>
<line class="st1" x1="30.78" y1="21.26" x2="11.76" y2="21.26"/>
<polyline class="st1" points="18.76,28.26 11.76,21.26 18.76,14.26 "/>
<g>
	<path d="M63.11,20.78c0-4.3,3.25-7.24,7.35-7.24c3.19,0,4.98,1.68,5.96,3.42l-2.56,1.26c-0.59-1.13-1.85-2.04-3.4-2.04
		c-2.44,0-4.28,1.95-4.28,4.6s1.85,4.6,4.28,4.6c1.55,0,2.81-0.88,3.4-2.04l2.56,1.24c-1.01,1.74-2.77,3.44-5.96,3.44
		C66.37,28.02,63.11,25.08,63.11,20.78z"/>
	<path d="M77.5,22.69c0-2.88,2.02-5.31,5.35-5.31c3.36,0,5.38,2.44,5.38,5.31c0,2.9-2.02,5.33-5.38,5.33
		C79.51,28.02,77.5,25.59,77.5,22.69z M85.46,22.69c0-1.57-0.94-2.94-2.6-2.94s-2.58,1.36-2.58,2.94c0,1.6,0.92,2.96,2.58,2.96
		S85.46,24.29,85.46,22.69z"/>
	<path d="M97.05,21.64c0-1.41-0.73-1.89-1.87-1.89c-1.05,0-1.87,0.59-2.31,1.2v6.82H90.2V17.63h2.67v1.32
		c0.65-0.78,1.89-1.57,3.55-1.57c2.23,0,3.3,1.26,3.3,3.23v7.16h-2.67V21.64z"/>
	<path d="M102.89,25.25v-5.29h-1.68v-2.33h1.68v-2.77h2.69v2.77h2.06v2.33h-2.06v4.58c0,0.63,0.34,1.11,0.92,1.11
		c0.4,0,0.78-0.15,0.92-0.29l0.57,2.02c-0.4,0.36-1.11,0.65-2.23,0.65C103.89,28.02,102.89,27.06,102.89,25.25z"/>
	<path d="M114.06,17.38c3.02,0,5.08,2.27,5.08,5.58v0.59h-7.54c0.17,1.28,1.2,2.35,2.92,2.35c0.94,0,2.06-0.38,2.71-1.01l1.18,1.72
		c-1.01,0.92-2.6,1.41-4.18,1.41c-3.09,0-5.42-2.08-5.42-5.33C108.81,19.75,110.97,17.38,114.06,17.38z M111.56,21.75h5
		c-0.06-0.97-0.73-2.25-2.5-2.25C112.4,19.5,111.68,20.74,111.56,21.75z"/>
	<path d="M127.92,21.64c0-1.41-0.73-1.89-1.87-1.89c-1.05,0-1.87,0.59-2.31,1.2v6.82h-2.67V17.63h2.67v1.32
		c0.65-0.78,1.89-1.57,3.55-1.57c2.22,0,3.3,1.26,3.3,3.23v7.16h-2.67V21.64z"/>
	<path d="M133.76,25.25v-5.29h-1.68v-2.33h1.68v-2.77h2.69v2.77h2.06v2.33h-2.06v4.58c0,0.63,0.34,1.11,0.92,1.11
		c0.4,0,0.78-0.15,0.92-0.29l0.57,2.02c-0.4,0.36-1.11,0.65-2.22,0.65C134.76,28.02,133.76,27.06,133.76,25.25z"/>
</g>
<g>
	<path d="M10.88,87.31c0-3.08,2.33-5.17,5.25-5.17c2.28,0,3.55,1.2,4.26,2.44l-1.83,0.9c-0.42-0.81-1.32-1.46-2.43-1.46
		c-1.74,0-3.06,1.4-3.06,3.29c0,1.89,1.32,3.28,3.06,3.28c1.11,0,2.01-0.63,2.43-1.46l1.83,0.89c-0.72,1.24-1.98,2.46-4.26,2.46
		C13.2,92.49,10.88,90.39,10.88,87.31z"/>
	<path d="M21.15,88.68c0-2.05,1.44-3.79,3.83-3.79c2.4,0,3.84,1.74,3.84,3.79c0,2.07-1.44,3.81-3.84,3.81
		C22.59,92.49,21.15,90.75,21.15,88.68z M26.84,88.68c0-1.12-0.67-2.1-1.86-2.1c-1.18,0-1.84,0.98-1.84,2.1
		c0,1.14,0.66,2.11,1.84,2.11C26.16,90.79,26.84,89.82,26.84,88.68z"/>
	<path d="M35.12,87.93c0-1-0.53-1.35-1.33-1.35c-0.75,0-1.33,0.42-1.65,0.85v4.88h-1.9v-7.24h1.9v0.94
		c0.46-0.55,1.35-1.12,2.54-1.12c1.59,0,2.35,0.9,2.35,2.31v5.11h-1.9V87.93z"/>
	<path d="M39.29,90.51v-3.78h-1.2v-1.67h1.2v-1.98h1.92v1.98h1.47v1.67h-1.47V90c0,0.45,0.24,0.79,0.66,0.79
		c0.29,0,0.56-0.1,0.66-0.21l0.41,1.44c-0.29,0.26-0.79,0.47-1.59,0.47C40.01,92.49,39.29,91.8,39.29,90.51z"/>
	<path d="M47.27,84.88c2.16,0,3.63,1.62,3.63,3.99v0.42h-5.38c0.12,0.91,0.86,1.68,2.08,1.68c0.67,0,1.47-0.27,1.94-0.72l0.84,1.23
		c-0.72,0.66-1.86,1.01-2.99,1.01c-2.21,0-3.87-1.49-3.87-3.81C43.52,86.58,45.06,84.88,47.27,84.88z M45.48,88h3.57
		c-0.04-0.69-0.52-1.6-1.79-1.6C46.08,86.4,45.57,87.28,45.48,88z"/>
	<path d="M57.17,87.93c0-1-0.53-1.35-1.33-1.35c-0.75,0-1.33,0.42-1.65,0.85v4.88h-1.9v-7.24h1.9v0.94
		c0.46-0.55,1.35-1.12,2.54-1.12c1.59,0,2.35,0.9,2.35,2.31v5.11h-1.9V87.93z"/>
	<path d="M61.34,90.51v-3.78h-1.2v-1.67h1.2v-1.98h1.92v1.98h1.47v1.67h-1.47V90c0,0.45,0.24,0.79,0.66,0.79
		c0.29,0,0.56-0.1,0.66-0.21l0.41,1.44c-0.29,0.26-0.79,0.47-1.59,0.47C62.06,92.49,61.34,91.8,61.34,90.51z"/>
	<path d="M70.29,86.73h-1.2v-1.67h1.2v-0.39c0-1.57,1.02-2.52,2.44-2.52c0.54,0,1.04,0.12,1.38,0.3l-0.39,1.38
		c-0.15-0.1-0.36-0.18-0.62-0.18c-0.54,0-0.9,0.36-0.9,1.02v0.39h1.47v1.67h-1.47v5.58h-1.92V86.73z M74.58,82.86
		c0-0.63,0.53-1.14,1.14-1.14c0.63,0,1.14,0.51,1.14,1.14S76.35,84,75.72,84C75.1,84,74.58,83.49,74.58,82.86z M74.77,85.06h1.91
		v7.24h-1.91V85.06z"/>
	<path d="M78.57,82.3h1.9v10h-1.9V82.3z"/>
	<path d="M82.74,90.51v-3.78h-1.2v-1.67h1.2v-1.98h1.92v1.98h1.47v1.67h-1.47V90c0,0.45,0.24,0.79,0.66,0.79
		c0.29,0,0.56-0.1,0.66-0.21l0.41,1.44c-0.29,0.26-0.79,0.47-1.59,0.47C83.46,92.49,82.74,91.8,82.74,90.51z"/>
	<path d="M90.72,84.88c2.16,0,3.63,1.62,3.63,3.99v0.42h-5.38c0.12,0.91,0.86,1.68,2.08,1.68c0.67,0,1.47-0.27,1.94-0.72l0.84,1.23
		c-0.72,0.66-1.86,1.01-2.99,1.01c-2.21,0-3.87-1.49-3.87-3.81C86.97,86.58,88.52,84.88,90.72,84.88z M88.94,88h3.57
		c-0.04-0.69-0.52-1.6-1.79-1.6C89.53,86.4,89.02,87.28,88.94,88z"/>
	<path d="M95.73,85.06h1.9v0.99c0.51-0.65,1.41-1.15,2.31-1.15v1.86c-0.14-0.03-0.32-0.06-0.53-0.06c-0.63,0-1.47,0.36-1.79,0.83
		v4.78h-1.9V85.06z"/>
</g>
<g>
	<path d="M10.88,371.62c0-3.08,2.33-5.17,5.25-5.17c2.28,0,3.55,1.2,4.26,2.44l-1.83,0.9c-0.42-0.81-1.32-1.46-2.43-1.46
		c-1.74,0-3.06,1.39-3.06,3.29c0,1.89,1.32,3.28,3.06,3.28c1.11,0,2.01-0.63,2.43-1.46l1.83,0.89c-0.72,1.24-1.98,2.46-4.26,2.46
		C13.2,376.8,10.88,374.7,10.88,371.62z"/>
	<path d="M21.15,372.99c0-2.05,1.44-3.79,3.83-3.79c2.4,0,3.84,1.74,3.84,3.79c0,2.07-1.44,3.81-3.84,3.81
		C22.59,376.8,21.15,375.06,21.15,372.99z M26.84,372.99c0-1.12-0.67-2.1-1.86-2.1c-1.18,0-1.84,0.97-1.84,2.1
		c0,1.14,0.66,2.12,1.84,2.12C26.16,375.1,26.84,374.13,26.84,372.99z"/>
	<path d="M35.12,372.24c0-1-0.53-1.35-1.33-1.35c-0.75,0-1.33,0.42-1.65,0.85v4.88h-1.9v-7.24h1.9v0.94
		c0.46-0.55,1.35-1.12,2.54-1.12c1.59,0,2.35,0.9,2.35,2.31v5.11h-1.9V372.24z"/>
	<path d="M39.29,374.82v-3.78h-1.2v-1.67h1.2v-1.98h1.92v1.98h1.47v1.67h-1.47v3.27c0,0.45,0.24,0.79,0.66,0.79
		c0.29,0,0.56-0.11,0.66-0.21l0.41,1.44c-0.29,0.26-0.79,0.47-1.59,0.47C40.01,376.8,39.29,376.11,39.29,374.82z"/>
	<path d="M47.27,369.19c2.16,0,3.63,1.62,3.63,3.99v0.42h-5.38c0.12,0.92,0.86,1.68,2.08,1.68c0.67,0,1.47-0.27,1.94-0.72l0.84,1.23
		c-0.72,0.66-1.86,1.01-2.99,1.01c-2.21,0-3.87-1.49-3.87-3.81C43.52,370.89,45.06,369.19,47.27,369.19z M45.48,372.31h3.57
		c-0.04-0.69-0.52-1.6-1.79-1.6C46.08,370.71,45.57,371.59,45.48,372.31z"/>
	<path d="M57.17,372.24c0-1-0.53-1.35-1.33-1.35c-0.75,0-1.33,0.42-1.65,0.85v4.88h-1.9v-7.24h1.9v0.94
		c0.46-0.55,1.35-1.12,2.54-1.12c1.59,0,2.35,0.9,2.35,2.31v5.11h-1.9V372.24z"/>
	<path d="M61.34,374.82v-3.78h-1.2v-1.67h1.2v-1.98h1.92v1.98h1.47v1.67h-1.47v3.27c0,0.45,0.24,0.79,0.66,0.79
		c0.29,0,0.56-0.11,0.66-0.21l0.41,1.44c-0.29,0.26-0.79,0.47-1.59,0.47C62.06,376.8,61.34,376.11,61.34,374.82z"/>
	<path d="M70.29,371.04h-1.2v-1.67h1.2v-0.39c0-1.57,1.02-2.52,2.44-2.52c0.54,0,1.04,0.12,1.38,0.3l-0.39,1.38
		c-0.15-0.1-0.36-0.18-0.62-0.18c-0.54,0-0.9,0.36-0.9,1.02v0.39h1.47v1.67h-1.47v5.58h-1.92V371.04z M74.58,367.17
		c0-0.63,0.53-1.14,1.14-1.14c0.63,0,1.14,0.51,1.14,1.14s-0.51,1.14-1.14,1.14C75.1,368.31,74.58,367.8,74.58,367.17z
		 M74.77,369.37h1.91v7.24h-1.91V369.37z"/>
	<path d="M78.57,366.61h1.9v10h-1.9V366.61z"/>
	<path d="M82.74,374.82v-3.78h-1.2v-1.67h1.2v-1.98h1.92v1.98h1.47v1.67h-1.47v3.27c0,0.45,0.24,0.79,0.66,0.79
		c0.29,0,0.56-0.11,0.66-0.21l0.41,1.44c-0.29,0.26-0.79,0.47-1.59,0.47C83.46,376.8,82.74,376.11,82.74,374.82z"/>
	<path d="M90.72,369.19c2.16,0,3.63,1.62,3.63,3.99v0.42h-5.38c0.12,0.92,0.86,1.68,2.08,1.68c0.67,0,1.47-0.27,1.94-0.72l0.84,1.23
		c-0.72,0.66-1.86,1.01-2.99,1.01c-2.21,0-3.87-1.49-3.87-3.81C86.97,370.89,88.52,369.19,90.72,369.19z M88.94,372.31h3.57
		c-0.04-0.69-0.52-1.6-1.79-1.6C89.53,370.71,89.02,371.59,88.94,372.31z"/>
	<path d="M95.73,369.37h1.9v0.99c0.51-0.64,1.41-1.15,2.31-1.15v1.86c-0.14-0.03-0.32-0.06-0.53-0.06c-0.63,0-1.47,0.36-1.79,0.83
		v4.78h-1.9V369.37z"/>
	<path d="M104.97,369.37h1.9v0.99c0.51-0.64,1.41-1.15,2.31-1.15v1.86c-0.14-0.03-0.32-0.06-0.53-0.06c-0.63,0-1.47,0.36-1.79,0.83
		v4.78h-1.9V369.37z"/>
	<path d="M113.65,369.19c2.16,0,3.63,1.62,3.63,3.99v0.42h-5.38c0.12,0.92,0.86,1.68,2.08,1.68c0.67,0,1.47-0.27,1.94-0.72
		l0.84,1.23c-0.72,0.66-1.86,1.01-2.99,1.01c-2.21,0-3.87-1.49-3.87-3.81C109.9,370.89,111.45,369.19,113.65,369.19z M111.87,372.31
		h3.57c-0.04-0.69-0.52-1.6-1.79-1.6C112.47,370.71,111.96,371.59,111.87,372.31z"/>
	<path d="M117.63,369.37h2.04l1.89,5.04l1.89-5.04h2.06l-2.91,7.24h-2.05L117.63,369.37z"/>
	<path d="M126.16,367.17c0-0.63,0.53-1.14,1.14-1.14c0.63,0,1.14,0.51,1.14,1.14s-0.51,1.14-1.14,1.14
		C126.69,368.31,126.16,367.8,126.16,367.17z M126.36,369.37h1.9v7.24h-1.9V369.37z"/>
	<path d="M133.44,369.19c2.16,0,3.63,1.62,3.63,3.99v0.42h-5.38c0.12,0.92,0.86,1.68,2.08,1.68c0.67,0,1.47-0.27,1.94-0.72
		l0.84,1.23c-0.72,0.66-1.86,1.01-2.99,1.01c-2.21,0-3.87-1.49-3.87-3.81C129.69,370.89,131.23,369.19,133.44,369.19z
		 M131.65,372.31h3.57c-0.04-0.69-0.52-1.6-1.79-1.6C132.25,370.71,131.74,371.59,131.65,372.31z"/>
	<path d="M143.28,371.68l-1.53,4.93h-2.04l-2.21-7.24h1.98l1.35,4.87l1.59-4.87h1.69l1.59,4.87l1.35-4.87h1.98l-2.2,7.24h-2.03
		L143.28,371.68z"/>
</g>
<path class="st2" d="M333.49,147.91H22.37c-6.6,0-12-5.4-12-12v-11.24c0-6.6,5.4-12,12-12h311.12c6.6,0,12,5.4,12,12v11.24
	C345.49,142.51,340.09,147.91,333.49,147.91z"/>
<g>
	<path class="st3" d="M20.04,125.19h6.12v1.04H21.2v3.01h4.86v1.04H21.2v4.26h-1.16V125.19z"/>
	<path class="st3" d="M27.51,125.91c0-0.39,0.32-0.7,0.7-0.7c0.39,0,0.71,0.31,0.71,0.7s-0.32,0.71-0.71,0.71
		C27.84,126.63,27.51,126.31,27.51,125.91z M27.7,127.76h1.05v6.77H27.7V127.76z"/>
	<path class="st3" d="M30.85,125.19h1.05v9.34h-1.05V125.19z"/>
	<path class="st3" d="M34.21,133.11v-4.43h-1.12v-0.92h1.12v-1.85h1.05v1.85h1.37v0.92h-1.37v4.2c0,0.5,0.22,0.87,0.69,0.87
		c0.29,0,0.57-0.13,0.71-0.28l0.31,0.78c-0.27,0.25-0.64,0.43-1.26,0.43C34.71,134.7,34.21,134.12,34.21,133.11z"/>
	<path class="st3" d="M41.05,127.59c2.04,0,3.25,1.6,3.25,3.63v0.27h-5.48c0.08,1.27,0.98,2.34,2.44,2.34
		c0.77,0,1.56-0.31,2.09-0.85l0.5,0.69c-0.67,0.67-1.58,1.04-2.69,1.04c-2,0-3.45-1.44-3.45-3.56
		C37.72,129.18,39.12,127.59,41.05,127.59z M38.83,130.72h4.44c-0.01-1.01-0.69-2.26-2.23-2.26
		C39.6,128.46,38.88,129.68,38.83,130.72z"/>
	<path class="st3" d="M45.99,127.76h1.05v1.09c0.55-0.71,1.33-1.23,2.26-1.23v1.08c-0.13-0.03-0.25-0.04-0.42-0.04
		c-0.64,0-1.53,0.53-1.83,1.08v4.79h-1.05V127.76z"/>
	<path class="st3" d="M53.83,131.14c0-1.96,1.29-3.54,3.35-3.54s3.35,1.58,3.35,3.54c0,1.96-1.29,3.56-3.35,3.56
		S53.83,133.1,53.83,131.14z M59.42,131.14c0-1.37-0.8-2.61-2.24-2.61c-1.44,0-2.26,1.23-2.26,2.61c0,1.39,0.81,2.62,2.26,2.62
		C58.62,133.76,59.42,132.53,59.42,131.14z"/>
	<path class="st3" d="M66.8,133.58c-0.52,0.59-1.4,1.12-2.41,1.12c-1.41,0-2.16-0.69-2.16-2.16v-4.78h1.05v4.45
		c0,1.19,0.6,1.54,1.51,1.54c0.83,0,1.61-0.48,2-1.02v-4.97h1.05v6.77H66.8V133.58z"/>
	<path class="st3" d="M70.16,133.11v-4.43h-1.12v-0.92h1.12v-1.85h1.05v1.85h1.37v0.92h-1.37v4.2c0,0.5,0.22,0.87,0.69,0.87
		c0.29,0,0.57-0.13,0.71-0.28l0.31,0.78c-0.27,0.25-0.64,0.43-1.26,0.43C70.66,134.7,70.16,134.12,70.16,133.11z"/>
	<path class="st3" d="M81.76,129.09L80,134.53h-1.05l-2.16-6.77h1.09l1.65,5.39l1.78-5.39h0.9l1.78,5.39l1.65-5.39h1.09l-2.16,6.77
		h-1.05L81.76,129.09z"/>
	<path class="st3" d="M87.56,131.14c0-1.96,1.29-3.54,3.35-3.54s3.35,1.58,3.35,3.54c0,1.96-1.29,3.56-3.35,3.56
		S87.56,133.1,87.56,131.14z M93.15,131.14c0-1.37-0.8-2.61-2.24-2.61c-1.44,0-2.26,1.23-2.26,2.61c0,1.39,0.81,2.62,2.26,2.62
		C92.35,133.76,93.15,132.53,93.15,131.14z"/>
	<path class="st3" d="M95.96,127.76h1.05v1.09c0.55-0.71,1.33-1.23,2.26-1.23v1.08c-0.13-0.03-0.25-0.04-0.42-0.04
		c-0.64,0-1.53,0.53-1.83,1.08v4.79h-1.05V127.76z"/>
	<path class="st3" d="M105.48,133.52c-0.5,0.69-1.33,1.18-2.28,1.18c-1.76,0-3.01-1.34-3.01-3.54c0-2.16,1.23-3.56,3.01-3.56
		c0.91,0,1.74,0.45,2.28,1.19v-3.6h1.05v9.34h-1.05V133.52z M105.48,129.63c-0.38-0.59-1.19-1.09-2.03-1.09
		c-1.36,0-2.17,1.12-2.17,2.62c0,1.5,0.81,2.61,2.17,2.61c0.84,0,1.65-0.48,2.03-1.06V129.63z"/>
	<path class="st3" d="M108.59,132.88c0.45,0.52,1.3,0.97,2.23,0.97c1.04,0,1.6-0.46,1.6-1.12c0-0.74-0.83-0.98-1.74-1.2
		c-1.15-0.27-2.45-0.57-2.45-1.98c0-1.05,0.91-1.95,2.52-1.95c1.15,0,1.96,0.43,2.51,0.98l-0.49,0.73
		c-0.41-0.49-1.15-0.85-2.02-0.85c-0.92,0-1.5,0.42-1.5,1.02c0,0.66,0.77,0.87,1.65,1.08c1.18,0.27,2.54,0.6,2.54,2.1
		c0,1.13-0.91,2.04-2.66,2.04c-1.11,0-2.05-0.34-2.73-1.06L108.59,132.88z"/>
	<path class="st3" d="M114.89,135.87c0.45-0.29,0.85-0.84,0.91-1.3c-0.03,0.01-0.13,0.03-0.2,0.03c-0.39,0-0.67-0.29-0.67-0.71
		c0-0.41,0.32-0.76,0.74-0.76c0.46,0,0.88,0.39,0.88,1.06c0,0.85-0.5,1.65-1.15,2.11L114.89,135.87z"/>
	<path class="st3" d="M121.97,137.11v-9.34h1.05v1.01c0.49-0.69,1.33-1.18,2.28-1.18c1.78,0,3.01,1.34,3.01,3.54
		c0,2.19-1.23,3.56-3.01,3.56c-0.92,0-1.74-0.43-2.28-1.19v3.6H121.97z M125.04,128.53c-0.83,0-1.65,0.49-2.02,1.08v3.05
		c0.36,0.59,1.19,1.09,2.02,1.09c1.36,0,2.17-1.12,2.17-2.62C127.21,129.64,126.4,128.53,125.04,128.53z"/>
	<path class="st3" d="M134.59,130.07c0-1.19-0.62-1.54-1.53-1.54c-0.81,0-1.6,0.5-2,1.05v4.94h-1.05v-9.34h1.05v3.56
		c0.48-0.56,1.4-1.15,2.42-1.15c1.42,0,2.16,0.69,2.16,2.16v4.78h-1.05V130.07z"/>
	<path class="st3" d="M137.73,127.76h1.05v1.09c0.55-0.71,1.33-1.23,2.26-1.23v1.08c-0.13-0.03-0.25-0.04-0.42-0.04
		c-0.64,0-1.53,0.53-1.83,1.08v4.79h-1.05V127.76z"/>
	<path class="st3" d="M146.58,133.76c-0.56,0.62-1.33,0.94-2.24,0.94c-1.15,0-2.37-0.77-2.37-2.24c0-1.51,1.22-2.23,2.37-2.23
		c0.92,0,1.69,0.29,2.24,0.92v-1.22c0-0.91-0.73-1.43-1.71-1.43c-0.81,0-1.47,0.29-2.07,0.94l-0.49-0.73
		c0.73-0.76,1.6-1.12,2.7-1.12c1.43,0,2.62,0.64,2.62,2.28v4.65h-1.05V133.76z M146.58,131.82c-0.41-0.56-1.12-0.84-1.86-0.84
		c-0.98,0-1.67,0.62-1.67,1.48c0,0.85,0.69,1.47,1.67,1.47c0.74,0,1.46-0.28,1.86-0.84V131.82z"/>
	<path class="st3" d="M149.69,132.88c0.45,0.52,1.3,0.97,2.23,0.97c1.04,0,1.6-0.46,1.6-1.12c0-0.74-0.83-0.98-1.74-1.2
		c-1.15-0.27-2.45-0.57-2.45-1.98c0-1.05,0.91-1.95,2.52-1.95c1.15,0,1.96,0.43,2.51,0.98l-0.49,0.73
		c-0.41-0.49-1.15-0.85-2.02-0.85c-0.92,0-1.5,0.42-1.5,1.02c0,0.66,0.77,0.87,1.65,1.08c1.18,0.27,2.54,0.6,2.54,2.1
		c0,1.13-0.91,2.04-2.66,2.04c-1.11,0-2.04-0.34-2.73-1.06L149.69,132.88z"/>
	<path class="st3" d="M159.18,127.59c2.04,0,3.25,1.6,3.25,3.63v0.27h-5.48c0.08,1.27,0.98,2.34,2.44,2.34
		c0.77,0,1.55-0.31,2.09-0.85l0.5,0.69c-0.67,0.67-1.58,1.04-2.69,1.04c-2,0-3.45-1.44-3.45-3.56
		C155.85,129.18,157.25,127.59,159.18,127.59z M156.96,130.72h4.44c-0.01-1.01-0.69-2.26-2.23-2.26
		C157.73,128.46,157.01,129.68,156.96,130.72z"/>
	<path class="st3" d="M164.08,132.88c0.45,0.52,1.3,0.97,2.23,0.97c1.04,0,1.6-0.46,1.6-1.12c0-0.74-0.83-0.98-1.74-1.2
		c-1.15-0.27-2.45-0.57-2.45-1.98c0-1.05,0.91-1.95,2.52-1.95c1.15,0,1.96,0.43,2.51,0.98l-0.49,0.73
		c-0.41-0.49-1.15-0.85-2.02-0.85c-0.92,0-1.5,0.42-1.5,1.02c0,0.66,0.77,0.87,1.65,1.08c1.18,0.27,2.54,0.6,2.54,2.1
		c0,1.13-0.91,2.04-2.66,2.04c-1.11,0-2.04-0.34-2.73-1.06L164.08,132.88z"/>
	<path class="st3" d="M173.85,131.14c0-1.96,1.29-3.54,3.35-3.54c2.06,0,3.35,1.58,3.35,3.54c0,1.96-1.29,3.56-3.35,3.56
		C175.14,134.7,173.85,133.1,173.85,131.14z M179.44,131.14c0-1.37-0.8-2.61-2.24-2.61c-1.44,0-2.25,1.23-2.25,2.61
		c0,1.39,0.81,2.62,2.25,2.62C178.64,133.76,179.44,132.53,179.44,131.14z"/>
	<path class="st3" d="M182.25,127.76h1.05v1.09c0.55-0.71,1.33-1.23,2.25-1.23v1.08c-0.13-0.03-0.25-0.04-0.42-0.04
		c-0.64,0-1.53,0.53-1.83,1.08v4.79h-1.05V127.76z"/>
	<path class="st3" d="M195.06,130.07c0-1.19-0.62-1.54-1.53-1.54c-0.81,0-1.6,0.5-2,1.05v4.94h-1.05v-9.34h1.05v3.56
		c0.48-0.56,1.4-1.15,2.42-1.15c1.42,0,2.16,0.69,2.16,2.16v4.78h-1.05V130.07z"/>
	<path class="st3" d="M202.44,133.76c-0.56,0.62-1.33,0.94-2.24,0.94c-1.15,0-2.37-0.77-2.37-2.24c0-1.51,1.22-2.23,2.37-2.23
		c0.92,0,1.69,0.29,2.24,0.92v-1.22c0-0.91-0.73-1.43-1.71-1.43c-0.81,0-1.47,0.29-2.07,0.94l-0.49-0.73
		c0.73-0.76,1.6-1.12,2.7-1.12c1.43,0,2.62,0.64,2.62,2.28v4.65h-1.05V133.76z M202.44,131.82c-0.41-0.56-1.12-0.84-1.86-0.84
		c-0.98,0-1.67,0.62-1.67,1.48c0,0.85,0.69,1.47,1.67,1.47c0.74,0,1.46-0.28,1.86-0.84V131.82z"/>
	<path class="st3" d="M205.55,132.88c0.45,0.52,1.3,0.97,2.23,0.97c1.04,0,1.6-0.46,1.6-1.12c0-0.74-0.83-0.98-1.74-1.2
		c-1.15-0.27-2.45-0.57-2.45-1.98c0-1.05,0.91-1.95,2.52-1.95c1.15,0,1.96,0.43,2.51,0.98l-0.49,0.73
		c-0.41-0.49-1.15-0.85-2.02-0.85c-0.92,0-1.5,0.42-1.5,1.02c0,0.66,0.77,0.87,1.65,1.08c1.18,0.27,2.54,0.6,2.54,2.1
		c0,1.13-0.91,2.04-2.66,2.04c-1.11,0-2.04-0.34-2.73-1.06L205.55,132.88z"/>
	<path class="st3" d="M216.68,130.07c0-1.19-0.62-1.54-1.53-1.54c-0.81,0-1.6,0.5-2,1.05v4.94h-1.05v-9.34h1.05v3.56
		c0.48-0.56,1.4-1.15,2.42-1.15c1.42,0,2.16,0.69,2.16,2.16v4.78h-1.05V130.07z"/>
	<path class="st3" d="M220.04,133.11v-4.43h-1.12v-0.92h1.12v-1.85h1.05v1.85h1.37v0.92h-1.37v4.2c0,0.5,0.22,0.87,0.69,0.87
		c0.29,0,0.57-0.13,0.71-0.28l0.31,0.78c-0.27,0.25-0.64,0.43-1.26,0.43C220.54,134.7,220.04,134.12,220.04,133.11z"/>
	<path class="st3" d="M228.17,133.76c-0.56,0.62-1.33,0.94-2.24,0.94c-1.15,0-2.37-0.77-2.37-2.24c0-1.51,1.22-2.23,2.37-2.23
		c0.92,0,1.69,0.29,2.24,0.92v-1.22c0-0.91-0.73-1.43-1.71-1.43c-0.81,0-1.47,0.29-2.07,0.94l-0.49-0.73
		c0.73-0.76,1.6-1.12,2.7-1.12c1.43,0,2.62,0.64,2.62,2.28v4.65h-1.05V133.76z M228.17,131.82c-0.41-0.56-1.12-0.84-1.86-0.84
		c-0.98,0-1.67,0.62-1.67,1.48c0,0.85,0.69,1.47,1.67,1.47c0.74,0,1.46-0.28,1.86-0.84V131.82z"/>
	<path class="st3" d="M231.84,135.48c0.56,0.67,1.23,0.92,2.2,0.92c1.12,0,2.17-0.55,2.17-2.03v-0.97c-0.49,0.69-1.32,1.2-2.27,1.2
		c-1.76,0-3.01-1.32-3.01-3.5c0-2.17,1.23-3.52,3.01-3.52c0.91,0,1.72,0.45,2.27,1.19v-1.02h1.05v6.57c0,2.24-1.57,2.94-3.22,2.94
		c-1.15,0-1.93-0.22-2.73-1.01L231.84,135.48z M236.21,129.63c-0.36-0.59-1.18-1.09-2.02-1.09c-1.36,0-2.17,1.08-2.17,2.58
		c0,1.48,0.81,2.58,2.17,2.58c0.84,0,1.65-0.52,2.02-1.11V129.63z"/>
	<path class="st3" d="M239.32,132.88c0.45,0.52,1.3,0.97,2.23,0.97c1.04,0,1.6-0.46,1.6-1.12c0-0.74-0.83-0.98-1.74-1.2
		c-1.15-0.27-2.45-0.57-2.45-1.98c0-1.05,0.91-1.95,2.52-1.95c1.15,0,1.96,0.43,2.51,0.98l-0.49,0.73
		c-0.41-0.49-1.15-0.85-2.02-0.85c-0.92,0-1.5,0.42-1.5,1.02c0,0.66,0.77,0.87,1.65,1.08c1.18,0.27,2.54,0.6,2.54,2.1
		c0,1.13-0.91,2.04-2.66,2.04c-1.11,0-2.04-0.34-2.73-1.06L239.32,132.88z"/>
</g>
<g>
	<path d="M23.25,184.73h1.25v8.89h4.65v1.11h-5.9V184.73z"/>
	<path d="M30.12,191.1c0-2.1,1.38-3.79,3.58-3.79c2.2,0,3.58,1.69,3.58,3.79s-1.38,3.81-3.58,3.81
		C31.5,194.91,30.12,193.2,30.12,191.1z M36.11,191.1c0-1.47-0.85-2.79-2.4-2.79s-2.42,1.32-2.42,2.79c0,1.48,0.87,2.8,2.42,2.8
		S36.11,192.59,36.11,191.1z"/>
	<path d="M39.12,187.49h1.12v1.17c0.58-0.77,1.42-1.32,2.42-1.32v1.15c-0.14-0.03-0.27-0.04-0.45-0.04c-0.69,0-1.63,0.57-1.96,1.15
		v5.13h-1.12V187.49z"/>
	<path d="M47.22,187.31c2.19,0,3.48,1.71,3.48,3.88v0.29h-5.86c0.09,1.36,1.05,2.5,2.61,2.5c0.82,0,1.66-0.33,2.23-0.92l0.54,0.73
		c-0.72,0.72-1.7,1.11-2.88,1.11c-2.15,0-3.69-1.54-3.69-3.81C43.65,189,45.15,187.31,47.22,187.31z M44.84,190.65h4.75
		c-0.01-1.08-0.73-2.41-2.38-2.41C45.66,188.24,44.9,189.54,44.84,190.65z"/>
	<path d="M61.26,189.81c0-0.92-0.4-1.5-1.33-1.5c-0.75,0-1.54,0.54-1.92,1.11v5.31h-1.12v-4.92c0-0.92-0.39-1.5-1.33-1.5
		c-0.73,0-1.52,0.54-1.9,1.12v5.29h-1.12v-7.24h1.12v1.05c0.3-0.46,1.27-1.23,2.34-1.23c1.11,0,1.74,0.6,1.95,1.35
		c0.41-0.66,1.38-1.35,2.43-1.35c1.32,0,2.02,0.73,2.02,2.19v5.23h-1.12V189.81z"/>
</g>
<g>
	<path d="M24.42,245.29h3.42c3.1,0,5.13,2.17,5.13,5.01c0,2.85-2.02,4.99-5.13,4.99h-3.42V245.29z M27.84,254.19
		c2.43,0,3.84-1.74,3.84-3.88c0-2.16-1.36-3.9-3.84-3.9h-2.17v7.78H27.84z"/>
	<path d="M34.46,251.67c0-2.1,1.38-3.79,3.58-3.79c2.2,0,3.58,1.69,3.58,3.79s-1.38,3.81-3.58,3.81
		C35.84,255.48,34.46,253.77,34.46,251.67z M40.44,251.67c0-1.47-0.85-2.79-2.4-2.79s-2.42,1.32-2.42,2.79c0,1.48,0.87,2.8,2.42,2.8
		S40.44,253.15,40.44,251.67z"/>
	<path d="M43.46,245.29h1.12v10h-1.12V245.29z"/>
	<path d="M46.41,251.67c0-2.1,1.38-3.79,3.58-3.79c2.2,0,3.58,1.69,3.58,3.79s-1.38,3.81-3.58,3.81
		C47.79,255.48,46.41,253.77,46.41,251.67z M52.4,251.67c0-1.47-0.85-2.79-2.4-2.79s-2.42,1.32-2.42,2.79c0,1.48,0.87,2.8,2.42,2.8
		S52.4,253.15,52.4,251.67z"/>
	<path d="M55.41,248.05h1.12v1.17c0.58-0.77,1.42-1.32,2.42-1.32v1.15c-0.14-0.03-0.27-0.04-0.45-0.04c-0.69,0-1.63,0.57-1.96,1.15
		v5.13h-1.12V248.05z"/>
</g>
<g>
	<path d="M23.25,305.45h1.25v10h-1.25V305.45z"/>
	<path d="M26.79,318.21v-10h1.12v1.08c0.52-0.74,1.42-1.26,2.44-1.26c1.9,0,3.22,1.44,3.22,3.79c0,2.34-1.32,3.81-3.22,3.81
		c-0.99,0-1.86-0.47-2.44-1.27v3.85H26.79z M30.08,309.03c-0.88,0-1.77,0.53-2.16,1.16v3.27c0.39,0.63,1.27,1.17,2.16,1.17
		c1.46,0,2.33-1.2,2.33-2.8S31.53,309.03,30.08,309.03z"/>
	<path d="M35.36,313.68c0.48,0.56,1.4,1.04,2.38,1.04c1.11,0,1.71-0.5,1.71-1.2c0-0.79-0.88-1.05-1.86-1.29
		c-1.23-0.28-2.62-0.61-2.62-2.11c0-1.12,0.98-2.08,2.7-2.08c1.23,0,2.1,0.47,2.69,1.05l-0.52,0.78c-0.44-0.52-1.23-0.92-2.16-0.92
		c-0.99,0-1.6,0.45-1.6,1.1c0,0.7,0.82,0.93,1.77,1.15c1.26,0.29,2.71,0.65,2.71,2.25c0,1.21-0.97,2.19-2.85,2.19
		c-1.19,0-2.19-0.36-2.92-1.14L35.36,313.68z"/>
	<path d="M47.27,314.43c-0.55,0.63-1.5,1.2-2.58,1.2c-1.52,0-2.31-0.74-2.31-2.31v-5.11h1.12v4.77c0,1.28,0.65,1.65,1.62,1.65
		c0.89,0,1.73-0.51,2.15-1.09v-5.32h1.12v7.24h-1.12V314.43z"/>
	<path d="M59.39,310.53c0-0.92-0.4-1.5-1.33-1.5c-0.75,0-1.54,0.54-1.92,1.11v5.31h-1.12v-4.92c0-0.92-0.39-1.5-1.33-1.5
		c-0.73,0-1.51,0.54-1.9,1.12v5.29h-1.12v-7.24h1.12v1.05c0.3-0.46,1.27-1.23,2.34-1.23c1.11,0,1.74,0.6,1.95,1.35
		c0.41-0.66,1.38-1.35,2.43-1.35c1.32,0,2.02,0.73,2.02,2.19v5.23h-1.12V310.53z"/>
</g>
<g>
	<path d="M24.42,405.5h6.55v1.11h-5.31v3.22h5.2v1.11h-5.2v3.45h5.31v1.11h-6.55V405.5z"/>
	<path d="M31.83,408.26h1.21l2.42,5.94l2.4-5.94h1.23l-3.01,7.25h-1.23L31.83,408.26z"/>
	<path d="M43.41,408.08c2.19,0,3.48,1.71,3.48,3.88v0.29h-5.86c0.09,1.37,1.05,2.5,2.61,2.5c0.82,0,1.66-0.33,2.23-0.92l0.54,0.74
		c-0.72,0.72-1.7,1.11-2.88,1.11c-2.15,0-3.69-1.54-3.69-3.81C39.84,409.77,41.34,408.08,43.41,408.08z M41.03,411.42h4.75
		c-0.01-1.08-0.73-2.42-2.38-2.42C41.85,409.01,41.09,410.31,41.03,411.42z"/>
	<path d="M48.71,408.26h1.12v1.17c0.58-0.76,1.42-1.32,2.42-1.32v1.15c-0.14-0.03-0.27-0.04-0.45-0.04c-0.69,0-1.63,0.57-1.96,1.16
		v5.13h-1.12V408.26z"/>
	<path d="M54.05,417.44c0.49,0,0.82-0.17,1.08-0.76l0.48-1.09l-3.03-7.32h1.21l2.42,5.94l2.4-5.94h1.23l-3.63,8.71
		c-0.44,1.05-1.17,1.46-2.13,1.47c-0.24,0-0.61-0.04-0.83-0.1l0.18-1.02C53.6,417.39,53.87,417.44,54.05,417.44z"/>
	<path d="M64.56,414.51c3.6-2.83,5.55-4.5,5.55-6.22c0-1.27-1.05-1.83-2.08-1.83c-1.2,0-2.13,0.51-2.71,1.26l-0.77-0.79
		c0.77-1,2.07-1.57,3.48-1.57c1.67,0,3.36,0.94,3.36,2.94c0,2.04-2.07,3.9-4.86,6.1h4.9v1.11h-6.87V414.51z"/>
	<path d="M77.81,412.97h-4.75v-1.04l4.29-6.43h1.71v6.38h1.41v1.09h-1.41v2.54h-1.25V412.97z M74.3,411.87h3.51v-5.22L74.3,411.87z"
		/>
	<path d="M90.84,410.73c0-1.28-0.66-1.65-1.63-1.65c-0.87,0-1.71,0.54-2.15,1.12v5.29h-1.12v-10h1.12v3.81
		c0.51-0.6,1.5-1.23,2.59-1.23c1.52,0,2.31,0.74,2.31,2.31v5.12h-1.12V410.73z"/>
	<path d="M93.8,411.87c0-2.1,1.38-3.79,3.58-3.79c2.2,0,3.58,1.7,3.58,3.79s-1.38,3.81-3.58,3.81
		C95.18,415.68,93.8,413.97,93.8,411.87z M99.78,411.87c0-1.47-0.85-2.79-2.4-2.79s-2.42,1.32-2.42,2.79c0,1.49,0.87,2.8,2.42,2.8
		S99.78,413.36,99.78,411.87z"/>
	<path d="M107.69,414.48c-0.55,0.63-1.5,1.2-2.58,1.2c-1.52,0-2.31-0.73-2.31-2.31v-5.12h1.12v4.77c0,1.27,0.65,1.65,1.62,1.65
		c0.89,0,1.73-0.51,2.15-1.09v-5.33h1.12v7.25h-1.12V414.48z"/>
	<path d="M111.06,408.26h1.12v1.17c0.58-0.76,1.42-1.32,2.42-1.32v1.15c-0.14-0.03-0.27-0.04-0.45-0.04c-0.69,0-1.63,0.57-1.96,1.16
		v5.13h-1.12V408.26z"/>
	<path d="M115.97,413.73c0.48,0.55,1.4,1.03,2.38,1.03c1.11,0,1.71-0.49,1.71-1.2c0-0.79-0.88-1.05-1.86-1.29
		c-1.23-0.29-2.62-0.62-2.62-2.12c0-1.12,0.98-2.08,2.7-2.08c1.23,0,2.1,0.46,2.69,1.05l-0.52,0.78c-0.44-0.53-1.23-0.92-2.16-0.92
		c-0.99,0-1.6,0.45-1.6,1.09c0,0.71,0.82,0.93,1.77,1.16c1.26,0.29,2.71,0.64,2.71,2.25c0,1.21-0.97,2.19-2.85,2.19
		c-1.19,0-2.19-0.36-2.92-1.14L115.97,413.73z"/>
</g>
<g>
	<path d="M24.42,447.87h6.55v1.11h-5.31v3.22h5.2v1.11h-5.2v3.45h5.31v1.11h-6.55V447.87z"/>
	<path d="M31.83,450.63h1.21l2.42,5.94l2.4-5.94h1.23l-3.01,7.25h-1.23L31.83,450.63z"/>
	<path d="M43.41,450.45c2.19,0,3.48,1.71,3.48,3.88v0.29h-5.86c0.09,1.37,1.05,2.5,2.61,2.5c0.82,0,1.66-0.33,2.23-0.92l0.54,0.74
		c-0.72,0.72-1.7,1.11-2.88,1.11c-2.15,0-3.69-1.54-3.69-3.81C39.84,452.15,41.34,450.45,43.41,450.45z M41.03,453.8h4.75
		c-0.01-1.08-0.73-2.42-2.38-2.42C41.85,451.38,41.09,452.69,41.03,453.8z"/>
	<path d="M48.71,450.63h1.12v1.17c0.58-0.76,1.42-1.32,2.42-1.32v1.15c-0.14-0.03-0.27-0.04-0.45-0.04c-0.69,0-1.63,0.57-1.96,1.16
		v5.13h-1.12V450.63z"/>
	<path d="M54.05,459.81c0.49,0,0.82-0.17,1.08-0.76l0.48-1.09l-3.03-7.32h1.21l2.42,5.94l2.4-5.94h1.23l-3.63,8.71
		c-0.44,1.05-1.17,1.46-2.13,1.47c-0.24,0-0.61-0.04-0.82-0.1l0.18-1.02C53.6,459.77,53.87,459.81,54.05,459.81z"/>
	<path d="M64.92,455.63c0.58,0.78,1.6,1.32,2.79,1.32c1.45,0,2.34-0.72,2.34-1.88c0-1.25-1.02-1.77-2.49-1.77
		c-0.42,0-0.89,0-1.04,0.02v-1.14c0.17,0.02,0.63,0.02,1.04,0.02c1.26,0,2.32-0.5,2.32-1.65c0-1.11-1.02-1.71-2.23-1.71
		c-1.1,0-1.9,0.42-2.64,1.21l-0.69-0.78c0.72-0.87,1.88-1.54,3.42-1.54c1.92,0,3.39,0.97,3.39,2.67c0,1.44-1.22,2.16-2.16,2.32
		c0.92,0.08,2.31,0.86,2.31,2.46c0,1.67-1.33,2.88-3.54,2.88c-1.69,0-2.94-0.75-3.55-1.65L64.92,455.63z"/>
	<path d="M82.35,456.8c-0.54,0.74-1.42,1.26-2.44,1.26c-1.89,0-3.22-1.44-3.22-3.79c0-2.31,1.32-3.81,3.22-3.81
		c0.98,0,1.86,0.48,2.44,1.28v-3.86h1.12v10h-1.12V456.8z M82.35,452.63c-0.4-0.63-1.27-1.17-2.17-1.17c-1.45,0-2.32,1.2-2.32,2.8
		c0,1.61,0.87,2.79,2.32,2.79c0.9,0,1.77-0.51,2.17-1.14V452.63z"/>
	<path d="M90.26,457.05c-0.6,0.66-1.42,1-2.4,1c-1.23,0-2.53-0.82-2.53-2.4c0-1.62,1.3-2.38,2.53-2.38c0.99,0,1.81,0.31,2.4,0.99
		v-1.3c0-0.97-0.78-1.53-1.83-1.53c-0.87,0-1.57,0.32-2.22,1.01l-0.52-0.78c0.78-0.81,1.71-1.2,2.89-1.2c1.53,0,2.81,0.69,2.81,2.45
		v4.98h-1.12V457.05z M90.26,454.98c-0.44-0.6-1.2-0.9-2-0.9c-1.05,0-1.78,0.66-1.78,1.59c0,0.92,0.73,1.58,1.78,1.58
		c0.79,0,1.56-0.3,2-0.9V454.98z"/>
	<path d="M94.02,459.81c0.49,0,0.82-0.17,1.08-0.76l0.48-1.09l-3.03-7.32h1.21l2.42,5.94l2.4-5.94h1.23l-3.63,8.71
		c-0.44,1.05-1.17,1.46-2.13,1.47c-0.24,0-0.61-0.04-0.82-0.1l0.18-1.02C93.57,459.77,93.84,459.81,94.02,459.81z"/>
	<path d="M100.94,456.11c0.48,0.55,1.4,1.03,2.38,1.03c1.11,0,1.71-0.49,1.71-1.2c0-0.79-0.88-1.05-1.86-1.29
		c-1.23-0.29-2.62-0.62-2.62-2.12c0-1.12,0.98-2.08,2.7-2.08c1.23,0,2.1,0.46,2.69,1.05l-0.52,0.78c-0.44-0.53-1.23-0.92-2.16-0.92
		c-0.99,0-1.6,0.45-1.6,1.09c0,0.71,0.82,0.93,1.77,1.16c1.26,0.29,2.71,0.64,2.71,2.25c0,1.21-0.97,2.19-2.85,2.19
		c-1.19,0-2.19-0.36-2.92-1.14L100.94,456.11z"/>
</g>
<g>
	<path d="M23.25,489.83h6.55v1.11H24.5v3.22h5.2v1.11h-5.2v3.45h5.31v1.11h-6.55V489.83z"/>
	<path d="M30.66,492.59h1.21l2.42,5.94l2.4-5.94h1.23l-3.01,7.25h-1.23L30.66,492.59z"/>
	<path d="M42.24,492.41c2.19,0,3.48,1.71,3.48,3.88v0.29h-5.86c0.09,1.37,1.05,2.5,2.61,2.5c0.82,0,1.66-0.33,2.23-0.92l0.54,0.74
		c-0.72,0.72-1.7,1.11-2.88,1.11c-2.15,0-3.69-1.54-3.69-3.81C38.67,494.11,40.17,492.41,42.24,492.41z M39.86,495.76h4.75
		c-0.01-1.08-0.73-2.42-2.38-2.42C40.68,493.34,39.92,494.65,39.86,495.76z"/>
	<path d="M47.54,492.59h1.12v1.17c0.58-0.76,1.42-1.32,2.42-1.32v1.16c-0.14-0.03-0.27-0.05-0.45-0.05c-0.69,0-1.63,0.57-1.96,1.16
		v5.13h-1.12V492.59z"/>
	<path d="M52.88,501.77c0.49,0,0.82-0.17,1.08-0.76l0.48-1.09l-3.03-7.32h1.21l2.42,5.94l2.4-5.94h1.23l-3.63,8.71
		c-0.44,1.05-1.17,1.46-2.13,1.47c-0.24,0-0.61-0.04-0.83-0.1l0.18-1.02C52.43,501.73,52.7,501.77,52.88,501.77z"/>
	<path d="M64.34,497.59c0.66,0.84,1.53,1.32,2.76,1.32c1.37,0,2.31-0.93,2.31-2.15c0-1.32-0.94-2.16-2.29-2.16
		c-0.88,0-1.63,0.28-2.31,0.94l-0.91-0.31v-5.4h6.12v1.11h-4.88v3.48c0.48-0.48,1.33-0.9,2.34-0.9c1.67,0,3.18,1.14,3.18,3.19
		c0,2.04-1.54,3.3-3.56,3.3c-1.69,0-2.77-0.61-3.52-1.6L64.34,497.59z"/>
	<path d="M81.68,498.76c-0.54,0.74-1.42,1.26-2.44,1.26c-1.89,0-3.22-1.44-3.22-3.79c0-2.31,1.32-3.81,3.22-3.81
		c0.98,0,1.86,0.48,2.44,1.28v-3.86h1.12v10h-1.12V498.76z M81.68,494.59c-0.4-0.63-1.27-1.17-2.17-1.17c-1.45,0-2.32,1.2-2.32,2.8
		c0,1.61,0.87,2.79,2.32,2.79c0.9,0,1.77-0.51,2.17-1.14V494.59z"/>
	<path d="M89.58,499.01c-0.6,0.66-1.42,1-2.4,1c-1.23,0-2.54-0.82-2.54-2.4c0-1.62,1.31-2.38,2.54-2.38c0.99,0,1.81,0.31,2.4,0.99
		v-1.3c0-0.97-0.78-1.53-1.83-1.53c-0.87,0-1.57,0.32-2.22,1.01l-0.52-0.78c0.78-0.81,1.71-1.2,2.89-1.2c1.53,0,2.81,0.69,2.81,2.45
		v4.98h-1.12V499.01z M89.58,496.94c-0.44-0.6-1.2-0.9-2-0.9c-1.05,0-1.78,0.66-1.78,1.59c0,0.92,0.73,1.58,1.78,1.58
		c0.79,0,1.56-0.3,2-0.9V496.94z"/>
	<path d="M93.35,501.77c0.49,0,0.82-0.17,1.08-0.76l0.48-1.09l-3.03-7.32h1.21l2.42,5.94l2.4-5.94h1.23l-3.63,8.71
		c-0.44,1.05-1.17,1.46-2.13,1.47c-0.24,0-0.61-0.04-0.82-0.1l0.18-1.02C92.9,501.73,93.17,501.77,93.35,501.77z"/>
	<path d="M100.26,498.07c0.48,0.55,1.4,1.03,2.38,1.03c1.11,0,1.71-0.49,1.71-1.2c0-0.79-0.88-1.05-1.86-1.29
		c-1.23-0.29-2.62-0.62-2.62-2.12c0-1.12,0.98-2.08,2.7-2.08c1.23,0,2.1,0.46,2.69,1.05l-0.52,0.78c-0.44-0.53-1.23-0.92-2.16-0.92
		c-0.99,0-1.6,0.45-1.6,1.09c0,0.71,0.82,0.93,1.77,1.16c1.26,0.29,2.71,0.64,2.71,2.25c0,1.21-0.97,2.19-2.85,2.19
		c-1.19,0-2.19-0.36-2.92-1.14L100.26,498.07z"/>
</g>
<g>
	<path d="M23.25,530.14h6.55v1.11H24.5v3.22h5.2v1.11h-5.2v3.45h5.31v1.11h-6.55V530.14z"/>
	<path d="M30.66,532.9h1.21l2.42,5.94l2.4-5.94h1.23l-3.01,7.25h-1.23L30.66,532.9z"/>
	<path d="M42.24,532.72c2.19,0,3.48,1.71,3.48,3.88v0.29h-5.86c0.09,1.37,1.05,2.5,2.61,2.5c0.82,0,1.66-0.33,2.23-0.92l0.54,0.74
		c-0.72,0.72-1.7,1.11-2.88,1.11c-2.15,0-3.69-1.54-3.69-3.81C38.67,534.42,40.17,532.72,42.24,532.72z M39.86,536.07h4.75
		c-0.01-1.08-0.73-2.42-2.38-2.42C40.68,533.65,39.92,534.96,39.86,536.07z"/>
	<path d="M47.54,532.9h1.12v1.17c0.58-0.76,1.42-1.32,2.42-1.32v1.16c-0.14-0.03-0.27-0.05-0.45-0.05c-0.69,0-1.63,0.57-1.96,1.16
		v5.13h-1.12V532.9z"/>
	<path d="M52.88,542.08c0.49,0,0.82-0.17,1.08-0.76l0.48-1.09l-3.03-7.32h1.21l2.42,5.94l2.4-5.94h1.23l-3.63,8.71
		c-0.44,1.05-1.17,1.46-2.13,1.47c-0.24,0-0.61-0.04-0.82-0.1l0.18-1.02C52.43,542.04,52.7,542.08,52.88,542.08z"/>
	<path d="M68.43,531.25h-5.38v-1.11h6.82V531l-4.09,9.15H64.4L68.43,531.25z"/>
	<path d="M80.55,539.07c-0.54,0.74-1.42,1.26-2.44,1.26c-1.89,0-3.22-1.44-3.22-3.79c0-2.31,1.32-3.81,3.22-3.81
		c0.98,0,1.86,0.48,2.44,1.28v-3.86h1.12v10h-1.12V539.07z M80.55,534.9c-0.4-0.63-1.27-1.17-2.17-1.17c-1.45,0-2.32,1.2-2.32,2.8
		c0,1.61,0.87,2.79,2.32,2.79c0.9,0,1.77-0.51,2.17-1.14V534.9z"/>
	<path d="M88.46,539.32c-0.6,0.66-1.42,1-2.4,1c-1.23,0-2.53-0.82-2.53-2.4c0-1.62,1.3-2.38,2.53-2.38c0.99,0,1.81,0.31,2.4,0.99
		v-1.3c0-0.97-0.78-1.53-1.83-1.53c-0.87,0-1.57,0.32-2.22,1.01l-0.52-0.78c0.78-0.81,1.71-1.2,2.89-1.2c1.53,0,2.81,0.69,2.81,2.45
		v4.98h-1.12V539.32z M88.46,537.25c-0.44-0.6-1.2-0.9-2-0.9c-1.05,0-1.78,0.66-1.78,1.59c0,0.92,0.73,1.58,1.78,1.58
		c0.79,0,1.56-0.3,2-0.9V537.25z"/>
	<path d="M92.22,542.08c0.49,0,0.82-0.17,1.08-0.76l0.48-1.09l-3.03-7.32h1.21l2.42,5.94l2.4-5.94h1.23l-3.63,8.71
		c-0.44,1.05-1.17,1.46-2.13,1.47c-0.24,0-0.61-0.04-0.82-0.1l0.18-1.02C91.77,542.04,92.04,542.08,92.22,542.08z"/>
	<path d="M99.14,538.38c0.48,0.55,1.4,1.03,2.38,1.03c1.11,0,1.71-0.49,1.71-1.2c0-0.79-0.88-1.05-1.86-1.29
		c-1.23-0.29-2.62-0.62-2.62-2.12c0-1.12,0.98-2.08,2.7-2.08c1.23,0,2.1,0.46,2.69,1.05l-0.52,0.78c-0.44-0.53-1.23-0.92-2.16-0.92
		c-0.99,0-1.6,0.45-1.6,1.09c0,0.71,0.82,0.93,1.77,1.16c1.26,0.29,2.71,0.64,2.71,2.25c0,1.21-0.97,2.19-2.85,2.19
		c-1.19,0-2.19-0.36-2.92-1.14L99.14,538.38z"/>
</g>
<g>
	<path d="M24.5,574.46v8.07h-1.25v-10h1.27l5.76,7.91v-7.91h1.25v10h-1.2L24.5,574.46z"/>
	<path d="M36.98,575.1c2.19,0,3.48,1.71,3.48,3.88v0.29H34.6c0.09,1.37,1.05,2.5,2.61,2.5c0.82,0,1.66-0.33,2.23-0.92l0.54,0.74
		c-0.72,0.72-1.7,1.11-2.88,1.11c-2.15,0-3.69-1.54-3.69-3.81C33.41,576.79,34.91,575.1,36.98,575.1z M34.6,578.44h4.75
		c-0.01-1.08-0.73-2.42-2.38-2.42C35.42,576.03,34.65,577.33,34.6,578.44z"/>
	<path d="M41.19,575.28h1.21l2.42,5.94l2.4-5.94h1.23l-3.01,7.25h-1.23L41.19,575.28z"/>
	<path d="M52.77,575.1c2.19,0,3.48,1.71,3.48,3.88v0.29h-5.86c0.09,1.37,1.05,2.5,2.61,2.5c0.82,0,1.66-0.33,2.23-0.92l0.54,0.74
		c-0.72,0.72-1.7,1.11-2.88,1.11c-2.15,0-3.69-1.54-3.69-3.81C49.2,576.79,50.7,575.1,52.77,575.1z M50.39,578.44h4.75
		c-0.01-1.08-0.73-2.42-2.38-2.42C51.21,576.03,50.45,577.33,50.39,578.44z"/>
	<path d="M58.07,575.28h1.12v1.17c0.58-0.76,1.42-1.32,2.42-1.32v1.16c-0.14-0.03-0.27-0.05-0.45-0.05c-0.69,0-1.63,0.57-1.96,1.16
		v5.13h-1.12V575.28z"/>
</g>
<line class="st4" x1="0" y1="160.75" x2="360" y2="161.07"/>
<line class="st4" x1="0" y1="220.58" x2="360" y2="220.9"/>
<line class="st4" x1="0" y1="280.12" x2="360" y2="280.44"/>
<line class="st4" x1="0" y1="341.94" x2="360" y2="342.26"/>
<circle class="st1" cx="329.44" cy="130.29" r="10"/>
<line class="st1" x1="329.44" y1="126.29" x2="329.44" y2="134.29"/>
<line class="st1" x1="325.44" y1="130.29" x2="333.44" y2="130.29"/>
<circle class="st1" cx="329.44" cy="189.19" r="10"/>
<line class="st1" x1="325.44" y1="189.19" x2="333.44" y2="189.19"/>
<circle class="st1" cx="329.44" cy="248.85" r="10"/>
<line class="st1" x1="325.44" y1="248.85" x2="333.44" y2="248.85"/>
<circle class="st1" cx="329.44" cy="308.69" r="10"/>
<line class="st1" x1="325.44" y1="308.69" x2="333.44" y2="308.69"/>
<circle class="st1" cx="329.98" cy="411.89" r="10"/>
<circle class="st1" cx="329.98" cy="454.54" r="10"/>
<circle class="st1" cx="329.98" cy="496.52" r="10"/>
<circle class="st1" cx="329.98" cy="537.52" r="10"/>
<circle class="st1" cx="329.98" cy="578.52" r="10"/>
<polyline class="st1" points="334.83,451.88 328.16,458.56 325.12,455.53 "/>
<g>
</g>
<g>
</g>
<g>
</g>
<g>
</g>
<g>
</g>
<g>
</g>
</svg>
