<?xml version="1.0" encoding="utf-8"?>
<!-- Generator: Adobe Illustrator 25.2.1, SVG Export Plug-In . SVG Version: 6.00 Build 0)  -->
<svg version="1.1" id="Layer_1" xmlns="http://www.w3.org/2000/svg" xmlns:xlink="http://www.w3.org/1999/xlink" x="0px" y="0px"
	 viewBox="0 0 360 710" style="enable-background:new 0 0 360 710;" xml:space="preserve">
<style type="text/css">
	.st0{display:none;fill:#E30613;}
	.st1{fill:none;stroke:#020203;stroke-width:2;stroke-linecap:round;stroke-linejoin:round;}
	.st2{fill:none;stroke:#000000;stroke-width:2;stroke-miterlimit:10;}
	.st3{fill:#DADADA;}
	.st4{fill:none;stroke:#DADADA;stroke-miterlimit:10;}
</style>
<rect class="st0" width="359.47" height="710"/>
<line class="st1" x1="30.9" y1="21.26" x2="11.88" y2="21.26"/>
<polyline class="st1" points="18.88,28.26 11.88,21.26 18.88,14.26 "/>
<g>
	<path d="M63.9,13.77h2.98v11.38h5.92v2.62h-8.9V13.77z"/>
	<path d="M73.94,22.69c0-2.88,2.02-5.31,5.35-5.31c3.36,0,5.38,2.44,5.38,5.31c0,2.9-2.02,5.33-5.38,5.33
		C75.96,28.02,73.94,25.59,73.94,22.69z M81.9,22.69c0-1.57-0.94-2.94-2.6-2.94s-2.58,1.36-2.58,2.94c0,1.6,0.92,2.96,2.58,2.96
		S81.9,24.29,81.9,22.69z"/>
	<path d="M93.41,20.86l-2.14,6.91h-2.86l-3.09-10.14h2.77l1.89,6.82l2.23-6.82h2.37l2.23,6.82l1.89-6.82h2.77l-3.09,10.14h-2.83
		L93.41,20.86z"/>
	<path d="M120.75,21.37c0-0.94-0.42-1.62-1.51-1.62c-0.95,0-1.72,0.63-2.1,1.18v6.84h-2.69v-6.4c0-0.94-0.42-1.62-1.51-1.62
		c-0.92,0-1.7,0.63-2.1,1.2v6.82h-2.67V17.63h2.67v1.32c0.42-0.61,1.76-1.57,3.32-1.57c1.49,0,2.44,0.69,2.81,1.85
		c0.59-0.92,1.93-1.85,3.49-1.85c1.87,0,2.98,0.99,2.98,3.07v7.33h-2.69V21.37z"/>
	<path d="M125.41,22.69c0-2.88,2.02-5.31,5.35-5.31c3.36,0,5.38,2.44,5.38,5.31c0,2.9-2.02,5.33-5.38,5.33
		C127.43,28.02,125.41,25.59,125.41,22.69z M133.37,22.69c0-1.57-0.94-2.94-2.6-2.94c-1.66,0-2.58,1.36-2.58,2.94
		c0,1.6,0.92,2.96,2.58,2.96C132.43,25.65,133.37,24.29,133.37,22.69z"/>
	<path d="M137.47,22.69c0-2.88,2.02-5.31,5.35-5.31c3.36,0,5.38,2.44,5.38,5.31c0,2.9-2.02,5.33-5.38,5.33
		C139.48,28.02,137.47,25.59,137.47,22.69z M145.42,22.69c0-1.57-0.95-2.94-2.6-2.94c-1.66,0-2.58,1.36-2.58,2.94
		c0,1.6,0.92,2.96,2.58,2.96C144.48,25.65,145.42,24.29,145.42,22.69z"/>
	<path d="M157.14,26.47c-0.8,1.01-1.91,1.55-3.13,1.55c-2.56,0-4.49-1.93-4.49-5.31c0-3.32,1.91-5.33,4.49-5.33
		c1.2,0,2.33,0.52,3.13,1.55v-5.17h2.69v14h-2.69V26.47z M157.14,20.91c-0.44-0.67-1.41-1.15-2.31-1.15c-1.51,0-2.56,1.2-2.56,2.96
		c0,1.74,1.05,2.94,2.56,2.94c0.9,0,1.87-0.48,2.31-1.15V20.91z"/>
</g>
<g>
	<path d="M11.48,83.23h2.13v8.13h4.23v1.88h-6.36V83.23z"/>
	<path d="M18.64,89.6c0-2.05,1.44-3.79,3.83-3.79c2.4,0,3.84,1.74,3.84,3.79c0,2.07-1.44,3.81-3.84,3.81
		C20.08,93.41,18.64,91.67,18.64,89.6z M24.33,89.6c0-1.12-0.67-2.1-1.86-2.1c-1.18,0-1.84,0.98-1.84,2.1
		c0,1.14,0.66,2.11,1.84,2.11C23.65,91.71,24.33,90.74,24.33,89.6z"/>
	<path d="M32.55,88.29l-1.53,4.93h-2.04l-2.21-7.24h1.98l1.35,4.87l1.59-4.87h1.69l1.59,4.87l1.35-4.87h1.98l-2.2,7.24h-2.03
		L32.55,88.29z"/>
	<path d="M52.08,88.65c0-0.68-0.3-1.16-1.08-1.16c-0.67,0-1.23,0.45-1.5,0.84v4.89h-1.92v-4.57c0-0.68-0.3-1.16-1.08-1.16
		c-0.66,0-1.21,0.45-1.5,0.85v4.88h-1.9v-7.24H45v0.94c0.3-0.44,1.26-1.12,2.37-1.12c1.07,0,1.74,0.5,2.01,1.32
		c0.42-0.66,1.38-1.32,2.49-1.32c1.33,0,2.13,0.71,2.13,2.19v5.23h-1.92V88.65z"/>
	<path d="M55.41,89.6c0-2.05,1.44-3.79,3.82-3.79c2.4,0,3.84,1.74,3.84,3.79c0,2.07-1.44,3.81-3.84,3.81
		C56.85,93.41,55.41,91.67,55.41,89.6z M61.09,89.6c0-1.12-0.67-2.1-1.86-2.1c-1.18,0-1.84,0.98-1.84,2.1
		c0,1.14,0.66,2.11,1.84,2.11C60.42,91.71,61.09,90.74,61.09,89.6z"/>
	<path d="M64.02,89.6c0-2.05,1.44-3.79,3.83-3.79c2.4,0,3.84,1.74,3.84,3.79c0,2.07-1.44,3.81-3.84,3.81
		C65.46,93.41,64.02,91.67,64.02,89.6z M69.7,89.6c0-1.12-0.67-2.1-1.86-2.1c-1.18,0-1.84,0.98-1.84,2.1c0,1.14,0.66,2.11,1.84,2.11
		C69.03,91.71,69.7,90.74,69.7,89.6z"/>
	<path d="M78.07,92.3c-0.57,0.72-1.37,1.11-2.24,1.11c-1.83,0-3.21-1.38-3.21-3.79c0-2.37,1.37-3.81,3.21-3.81
		c0.86,0,1.67,0.38,2.24,1.11v-3.69h1.92v10h-1.92V92.3z M78.07,88.32c-0.32-0.48-1-0.83-1.65-0.83c-1.08,0-1.83,0.85-1.83,2.12
		c0,1.24,0.75,2.1,1.83,2.1c0.65,0,1.33-0.34,1.65-0.82V88.32z"/>
	<path d="M90.61,92.31c-0.5,0.56-1.37,1.1-2.55,1.1c-1.59,0-2.34-0.87-2.34-2.28v-5.14h1.9v4.39c0,1.01,0.53,1.33,1.33,1.33
		c0.74,0,1.32-0.4,1.65-0.82v-4.9h1.9v7.24h-1.9V92.31z"/>
	<path d="M94.6,90.95c0.53,0.49,1.61,0.99,2.5,0.99c0.83,0,1.21-0.28,1.21-0.73c0-0.51-0.63-0.69-1.45-0.85
		c-1.25-0.24-2.85-0.54-2.85-2.27c0-1.21,1.07-2.28,2.97-2.28c1.23,0,2.21,0.42,2.93,0.99l-0.77,1.3c-0.43-0.46-1.26-0.84-2.14-0.84
		c-0.69,0-1.14,0.25-1.14,0.67c0,0.45,0.57,0.62,1.38,0.78c1.24,0.24,2.91,0.57,2.91,2.37c0,1.32-1.12,2.33-3.13,2.33
		c-1.26,0-2.47-0.42-3.24-1.12L94.6,90.95z"/>
	<path d="M104.85,85.8c2.16,0,3.63,1.62,3.63,3.99v0.42h-5.38c0.12,0.91,0.86,1.68,2.08,1.68c0.67,0,1.47-0.27,1.94-0.72l0.84,1.23
		c-0.72,0.66-1.86,1.01-2.99,1.01c-2.21,0-3.87-1.49-3.87-3.81C101.1,87.5,102.64,85.8,104.85,85.8z M103.06,88.92h3.57
		c-0.04-0.69-0.52-1.6-1.79-1.6C103.66,87.32,103.15,88.2,103.06,88.92z"/>
	<path d="M109.86,85.98h1.9v0.99c0.51-0.65,1.41-1.15,2.31-1.15v1.86c-0.14-0.03-0.32-0.06-0.53-0.06c-0.63,0-1.47,0.36-1.79,0.83
		v4.78h-1.9V85.98z"/>
	<path d="M119.52,87.65h-1.2v-1.67h1.2v-0.39c0-1.57,1.02-2.52,2.44-2.52c0.54,0,1.04,0.12,1.38,0.3l-0.39,1.38
		c-0.15-0.1-0.36-0.18-0.62-0.18c-0.54,0-0.9,0.36-0.9,1.02v0.39h1.47v1.67h-1.47v5.58h-1.92V87.65z M123.81,83.78
		c0-0.63,0.53-1.14,1.14-1.14c0.63,0,1.14,0.51,1.14,1.14s-0.51,1.14-1.14,1.14C124.33,84.92,123.81,84.41,123.81,83.78z M124,85.98
		h1.91v7.24H124V85.98z"/>
	<path d="M127.8,83.23h1.9v10h-1.9V83.23z"/>
	<path d="M131.97,91.43v-3.78h-1.2v-1.67h1.2V84h1.92v1.98h1.47v1.67h-1.47v3.27c0,0.45,0.24,0.79,0.66,0.79
		c0.29,0,0.56-0.1,0.66-0.21l0.41,1.44c-0.29,0.26-0.79,0.47-1.59,0.47C132.69,93.41,131.97,92.72,131.97,91.43z"/>
	<path d="M139.95,85.8c2.16,0,3.63,1.62,3.63,3.99v0.42h-5.38c0.12,0.91,0.86,1.68,2.08,1.68c0.67,0,1.47-0.27,1.94-0.72l0.84,1.23
		c-0.72,0.66-1.86,1.01-2.99,1.01c-2.21,0-3.87-1.49-3.87-3.81C136.2,87.5,137.74,85.8,139.95,85.8z M138.16,88.92h3.57
		c-0.04-0.69-0.52-1.6-1.79-1.6C138.76,87.32,138.25,88.2,138.16,88.92z"/>
	<path d="M144.96,85.98h1.9v0.99c0.51-0.65,1.41-1.15,2.31-1.15v1.86c-0.14-0.03-0.32-0.06-0.53-0.06c-0.63,0-1.47,0.36-1.79,0.83
		v4.78h-1.9V85.98z"/>
</g>
<g>
	<path d="M11,361.03c0-3.08,2.33-5.17,5.25-5.17c2.28,0,3.55,1.2,4.26,2.44l-1.83,0.9c-0.42-0.81-1.32-1.46-2.43-1.46
		c-1.74,0-3.06,1.39-3.06,3.29c0,1.89,1.32,3.28,3.06,3.28c1.11,0,2.01-0.63,2.43-1.46l1.83,0.89c-0.72,1.24-1.98,2.46-4.26,2.46
		C13.32,366.21,11,364.11,11,361.03z"/>
	<path d="M21.27,362.4c0-2.05,1.44-3.79,3.83-3.79c2.4,0,3.84,1.74,3.84,3.79c0,2.07-1.44,3.81-3.84,3.81
		C22.71,366.21,21.27,364.47,21.27,362.4z M26.96,362.4c0-1.12-0.67-2.1-1.86-2.1c-1.18,0-1.84,0.97-1.84,2.1
		c0,1.14,0.66,2.12,1.84,2.12C26.28,364.51,26.96,363.54,26.96,362.4z"/>
	<path d="M35.24,361.65c0-1-0.53-1.35-1.33-1.35c-0.75,0-1.33,0.42-1.65,0.85v4.88h-1.9v-7.24h1.9v0.94
		c0.46-0.55,1.35-1.12,2.54-1.12c1.59,0,2.35,0.9,2.35,2.31v5.11h-1.9V361.65z"/>
	<path d="M39.41,364.23v-3.78h-1.2v-1.67h1.2v-1.98h1.92v1.98h1.47v1.67h-1.47v3.27c0,0.45,0.24,0.79,0.66,0.79
		c0.29,0,0.56-0.11,0.66-0.21l0.41,1.44c-0.29,0.26-0.79,0.47-1.59,0.47C40.12,366.21,39.41,365.52,39.41,364.23z"/>
	<path d="M47.38,358.6c2.16,0,3.63,1.62,3.63,3.99v0.42h-5.38c0.12,0.92,0.86,1.68,2.08,1.68c0.67,0,1.47-0.27,1.94-0.72l0.84,1.23
		c-0.72,0.66-1.86,1.01-2.99,1.01c-2.21,0-3.87-1.49-3.87-3.81C43.63,360.3,45.18,358.6,47.38,358.6z M45.6,361.72h3.57
		c-0.04-0.69-0.52-1.6-1.79-1.6C46.2,360.12,45.69,361,45.6,361.72z"/>
	<path d="M57.29,361.65c0-1-0.53-1.35-1.33-1.35c-0.75,0-1.33,0.42-1.65,0.85v4.88h-1.9v-7.24h1.9v0.94
		c0.46-0.55,1.35-1.12,2.54-1.12c1.59,0,2.35,0.9,2.35,2.31v5.11h-1.9V361.65z"/>
	<path d="M61.46,364.23v-3.78h-1.2v-1.67h1.2v-1.98h1.92v1.98h1.47v1.67h-1.47v3.27c0,0.45,0.24,0.79,0.66,0.79
		c0.29,0,0.56-0.11,0.66-0.21l0.41,1.44c-0.29,0.26-0.79,0.47-1.59,0.47C62.17,366.21,61.46,365.52,61.46,364.23z"/>
	<path d="M70.41,360.45h-1.2v-1.67h1.2v-0.39c0-1.57,1.02-2.52,2.44-2.52c0.54,0,1.04,0.12,1.38,0.3l-0.39,1.38
		c-0.15-0.1-0.36-0.18-0.62-0.18c-0.54,0-0.9,0.36-0.9,1.02v0.39h1.47v1.67h-1.47v5.58h-1.92V360.45z M74.7,356.58
		c0-0.63,0.53-1.14,1.14-1.14c0.63,0,1.14,0.51,1.14,1.14s-0.51,1.14-1.14,1.14C75.22,357.72,74.7,357.21,74.7,356.58z
		 M74.89,358.78h1.91v7.24h-1.91V358.78z"/>
	<path d="M78.69,356.02h1.9v10h-1.9V356.02z"/>
	<path d="M82.86,364.23v-3.78h-1.2v-1.67h1.2v-1.98h1.92v1.98h1.47v1.67h-1.47v3.27c0,0.45,0.24,0.79,0.66,0.79
		c0.29,0,0.56-0.11,0.66-0.21l0.41,1.44c-0.29,0.26-0.79,0.47-1.59,0.47C83.58,366.21,82.86,365.52,82.86,364.23z"/>
	<path d="M90.84,358.6c2.16,0,3.63,1.62,3.63,3.99v0.42h-5.38c0.12,0.92,0.86,1.68,2.08,1.68c0.67,0,1.47-0.27,1.94-0.72l0.84,1.23
		c-0.72,0.66-1.86,1.01-2.99,1.01c-2.21,0-3.87-1.49-3.87-3.81C87.09,360.3,88.63,358.6,90.84,358.6z M89.05,361.72h3.57
		c-0.04-0.69-0.52-1.6-1.79-1.6C89.65,360.12,89.14,361,89.05,361.72z"/>
	<path d="M95.85,358.78h1.9v0.99c0.51-0.64,1.41-1.15,2.31-1.15v1.86c-0.14-0.03-0.32-0.06-0.53-0.06c-0.63,0-1.47,0.36-1.79,0.83
		v4.78h-1.9V358.78z"/>
	<path d="M105.09,358.78h1.9v0.99c0.51-0.64,1.41-1.15,2.31-1.15v1.86c-0.14-0.03-0.32-0.06-0.53-0.06c-0.63,0-1.47,0.36-1.79,0.83
		v4.78h-1.9V358.78z"/>
	<path d="M113.77,358.6c2.16,0,3.63,1.62,3.63,3.99v0.42h-5.38c0.12,0.92,0.86,1.68,2.08,1.68c0.67,0,1.47-0.27,1.94-0.72l0.84,1.23
		c-0.72,0.66-1.86,1.01-2.99,1.01c-2.21,0-3.87-1.49-3.87-3.81C110.02,360.3,111.57,358.6,113.77,358.6z M111.99,361.72h3.57
		c-0.04-0.69-0.52-1.6-1.79-1.6C112.59,360.12,112.08,361,111.99,361.72z"/>
	<path d="M117.75,358.78h2.04l1.89,5.04l1.89-5.04h2.06l-2.91,7.24h-2.05L117.75,358.78z"/>
	<path d="M126.28,356.58c0-0.63,0.53-1.14,1.14-1.14c0.63,0,1.14,0.51,1.14,1.14s-0.51,1.14-1.14,1.14
		C126.81,357.72,126.28,357.21,126.28,356.58z M126.48,358.78h1.9v7.24h-1.9V358.78z"/>
	<path d="M133.56,358.6c2.16,0,3.63,1.62,3.63,3.99v0.42h-5.38c0.12,0.92,0.86,1.68,2.08,1.68c0.67,0,1.47-0.27,1.94-0.72l0.84,1.23
		c-0.72,0.66-1.86,1.01-2.99,1.01c-2.21,0-3.87-1.49-3.87-3.81C129.81,360.3,131.35,358.6,133.56,358.6z M131.77,361.72h3.57
		c-0.04-0.69-0.52-1.6-1.79-1.6C132.37,360.12,131.86,361,131.77,361.72z"/>
	<path d="M143.4,361.09l-1.53,4.93h-2.04l-2.21-7.24h1.98l1.35,4.87l1.59-4.87h1.69l1.59,4.87l1.35-4.87h1.98l-2.2,7.24h-2.03
		L143.4,361.09z"/>
</g>
<path class="st2" d="M333.6,147.91H22.48c-6.6,0-12-5.4-12-12v-11.24c0-6.6,5.4-12,12-12H333.6c6.6,0,12,5.4,12,12v11.24
	C345.6,142.51,340.2,147.91,333.6,147.91z"/>
<g>
	<path class="st3" d="M20.28,132.33c0.62,0.69,1.62,1.33,2.94,1.33c1.67,0,2.2-0.9,2.2-1.61c0-1.12-1.13-1.43-2.37-1.76
		c-1.5-0.39-3.17-0.81-3.17-2.65c0-1.54,1.37-2.59,3.21-2.59c1.43,0,2.54,0.48,3.32,1.3l-0.7,0.85c-0.7-0.77-1.68-1.12-2.7-1.12
		c-1.12,0-1.92,0.6-1.92,1.48c0,0.94,1.08,1.22,2.27,1.54c1.53,0.41,3.26,0.88,3.26,2.84c0,1.36-0.92,2.75-3.45,2.75
		c-1.62,0-2.82-0.62-3.59-1.48L20.28,132.33z"/>
	<path class="st3" d="M31.26,127.59c2.04,0,3.25,1.6,3.25,3.63v0.27h-5.48c0.08,1.27,0.98,2.34,2.44,2.34
		c0.77,0,1.56-0.31,2.09-0.85l0.5,0.69c-0.67,0.67-1.58,1.04-2.69,1.04c-2,0-3.45-1.44-3.45-3.56
		C27.93,129.18,29.33,127.59,31.26,127.59z M29.03,130.72h4.44c-0.01-1.01-0.69-2.26-2.23-2.26
		C29.8,128.46,29.09,129.68,29.03,130.72z"/>
	<path class="st3" d="M36.2,125.19h1.05v9.34H36.2V125.19z"/>
	<path class="st3" d="M42.29,127.59c2.04,0,3.25,1.6,3.25,3.63v0.27h-5.48c0.08,1.27,0.98,2.34,2.44,2.34
		c0.77,0,1.56-0.31,2.09-0.85l0.5,0.69c-0.67,0.67-1.58,1.04-2.69,1.04c-2,0-3.45-1.44-3.45-3.56
		C38.96,129.18,40.36,127.59,42.29,127.59z M40.07,130.72h4.44c-0.01-1.01-0.69-2.26-2.23-2.26
		C40.84,128.46,40.12,129.68,40.07,130.72z"/>
	<path class="st3" d="M50.22,127.59c1.23,0,1.96,0.5,2.48,1.18l-0.7,0.64c-0.45-0.62-1.02-0.88-1.72-0.88
		c-1.44,0-2.34,1.11-2.34,2.61c0,1.5,0.9,2.62,2.34,2.62c0.7,0,1.27-0.28,1.72-0.88l0.7,0.64c-0.52,0.67-1.25,1.18-2.48,1.18
		c-2.02,0-3.38-1.54-3.38-3.56C46.84,129.14,48.2,127.59,50.22,127.59z"/>
	<path class="st3" d="M54.37,133.11v-4.43h-1.12v-0.92h1.12v-1.85h1.05v1.85h1.37v0.92h-1.37v4.2c0,0.5,0.22,0.87,0.69,0.87
		c0.29,0,0.57-0.13,0.71-0.28l0.31,0.78c-0.27,0.25-0.64,0.43-1.26,0.43C54.88,134.7,54.37,134.12,54.37,133.11z"/>
	<path class="st3" d="M66.46,133.58c-0.52,0.59-1.4,1.12-2.41,1.12c-1.41,0-2.16-0.69-2.16-2.16v-4.78h1.05v4.45
		c0,1.19,0.6,1.54,1.51,1.54c0.83,0,1.61-0.48,2-1.02v-4.97h1.05v6.77h-1.05V133.58z"/>
	<path class="st3" d="M69.56,132.88c0.45,0.52,1.3,0.97,2.23,0.97c1.04,0,1.6-0.46,1.6-1.12c0-0.74-0.83-0.98-1.74-1.2
		c-1.15-0.27-2.45-0.57-2.45-1.98c0-1.05,0.91-1.95,2.52-1.95c1.15,0,1.96,0.43,2.51,0.98l-0.49,0.73
		c-0.41-0.49-1.15-0.85-2.02-0.85c-0.92,0-1.5,0.42-1.5,1.02c0,0.66,0.77,0.87,1.65,1.08c1.18,0.27,2.54,0.6,2.54,2.1
		c0,1.13-0.91,2.04-2.66,2.04c-1.11,0-2.05-0.34-2.73-1.06L69.56,132.88z"/>
	<path class="st3" d="M79.06,127.59c2.04,0,3.25,1.6,3.25,3.63v0.27h-5.48c0.08,1.27,0.98,2.34,2.44,2.34
		c0.77,0,1.56-0.31,2.09-0.85l0.5,0.69c-0.67,0.67-1.58,1.04-2.69,1.04c-2,0-3.45-1.44-3.45-3.56
		C75.72,129.18,77.12,127.59,79.06,127.59z M76.83,130.72h4.44c-0.01-1.01-0.69-2.26-2.23-2.26
		C77.6,128.46,76.88,129.68,76.83,130.72z"/>
	<path class="st3" d="M84,127.76h1.05v1.09c0.55-0.71,1.33-1.23,2.26-1.23v1.08c-0.13-0.03-0.25-0.04-0.42-0.04
		c-0.64,0-1.53,0.53-1.83,1.08v4.79H84V127.76z"/>
	<path class="st3" d="M88.57,132.88c0.45,0.52,1.3,0.97,2.23,0.97c1.04,0,1.6-0.46,1.6-1.12c0-0.74-0.83-0.98-1.74-1.2
		c-1.15-0.27-2.45-0.57-2.45-1.98c0-1.05,0.91-1.95,2.52-1.95c1.15,0,1.96,0.43,2.51,0.98l-0.49,0.73
		c-0.41-0.49-1.15-0.85-2.02-0.85c-0.92,0-1.5,0.42-1.5,1.02c0,0.66,0.77,0.87,1.65,1.08c1.18,0.27,2.54,0.6,2.54,2.1
		c0,1.13-0.91,2.04-2.66,2.04c-1.11,0-2.05-0.34-2.73-1.06L88.57,132.88z"/>
	<path class="st3" d="M99.1,136.34c0.46,0,0.77-0.15,1.01-0.71l0.45-1.02l-2.83-6.84h1.13l2.25,5.55l2.24-5.55h1.15l-3.39,8.14
		c-0.41,0.98-1.09,1.36-1.99,1.37c-0.22,0-0.57-0.04-0.77-0.1l0.17-0.95C98.68,136.29,98.93,136.34,99.1,136.34z"/>
	<path class="st3" d="M105.21,131.14c0-1.96,1.29-3.54,3.35-3.54s3.35,1.58,3.35,3.54c0,1.96-1.29,3.56-3.35,3.56
		S105.21,133.1,105.21,131.14z M110.79,131.14c0-1.37-0.8-2.61-2.24-2.61c-1.44,0-2.26,1.23-2.26,2.61c0,1.39,0.81,2.62,2.26,2.62
		C110,133.76,110.79,132.53,110.79,131.14z"/>
	<path class="st3" d="M118.17,133.58c-0.52,0.59-1.4,1.12-2.41,1.12c-1.41,0-2.16-0.69-2.16-2.16v-4.78h1.05v4.45
		c0,1.19,0.6,1.54,1.51,1.54c0.83,0,1.61-0.48,2-1.02v-4.97h1.05v6.77h-1.05V133.58z"/>
	<path class="st3" d="M129.02,129.09l-1.76,5.44h-1.05l-2.16-6.77h1.09l1.65,5.39l1.78-5.39h0.9l1.78,5.39l1.65-5.39h1.09
		l-2.16,6.77h-1.05L129.02,129.09z"/>
	<path class="st3" d="M139.44,133.76c-0.56,0.62-1.33,0.94-2.24,0.94c-1.15,0-2.37-0.77-2.37-2.24c0-1.51,1.22-2.23,2.37-2.23
		c0.92,0,1.69,0.29,2.24,0.92v-1.22c0-0.91-0.73-1.43-1.71-1.43c-0.81,0-1.47,0.29-2.07,0.94l-0.49-0.73
		c0.73-0.76,1.6-1.12,2.7-1.12c1.43,0,2.62,0.64,2.62,2.28v4.65h-1.05V133.76z M139.44,131.82c-0.41-0.56-1.12-0.84-1.86-0.84
		c-0.98,0-1.67,0.62-1.67,1.48c0,0.85,0.69,1.47,1.67,1.47c0.74,0,1.46-0.28,1.86-0.84V131.82z"/>
	<path class="st3" d="M147.15,130.1c0-1.19-0.6-1.57-1.51-1.57c-0.83,0-1.61,0.5-2,1.05v4.94h-1.05v-6.77h1.05v0.98
		c0.48-0.56,1.4-1.15,2.41-1.15c1.42,0,2.16,0.71,2.16,2.19v4.75h-1.05V130.1z"/>
	<path class="st3" d="M150.51,133.11v-4.43h-1.12v-0.92h1.12v-1.85h1.05v1.85h1.37v0.92h-1.37v4.2c0,0.5,0.22,0.87,0.69,0.87
		c0.29,0,0.57-0.13,0.71-0.28l0.31,0.78c-0.27,0.25-0.64,0.43-1.26,0.43C151.01,134.7,150.51,134.12,150.51,133.11z"/>
	<path class="st3" d="M158.24,133.11v-4.43h-1.12v-0.92h1.12v-1.85h1.05v1.85h1.37v0.92h-1.37v4.2c0,0.5,0.22,0.87,0.69,0.87
		c0.29,0,0.57-0.13,0.71-0.28l0.31,0.78c-0.27,0.25-0.64,0.43-1.26,0.43C158.74,134.7,158.24,134.12,158.24,133.11z"/>
	<path class="st3" d="M161.75,131.14c0-1.96,1.29-3.54,3.35-3.54c2.06,0,3.35,1.58,3.35,3.54c0,1.96-1.29,3.56-3.35,3.56
		C163.04,134.7,161.75,133.1,161.75,131.14z M167.34,131.14c0-1.37-0.8-2.61-2.24-2.61c-1.44,0-2.25,1.23-2.25,2.61
		c0,1.39,0.81,2.62,2.25,2.62C166.54,133.76,167.34,132.53,167.34,131.14z"/>
	<path class="st3" d="M173.72,132.88c0.45,0.52,1.3,0.97,2.23,0.97c1.04,0,1.6-0.46,1.6-1.12c0-0.74-0.83-0.98-1.74-1.2
		c-1.15-0.27-2.45-0.57-2.45-1.98c0-1.05,0.91-1.95,2.52-1.95c1.15,0,1.96,0.43,2.51,0.98l-0.49,0.73
		c-0.41-0.49-1.15-0.85-2.02-0.85c-0.92,0-1.5,0.42-1.5,1.02c0,0.66,0.77,0.87,1.65,1.08c1.18,0.27,2.54,0.6,2.54,2.1
		c0,1.13-0.91,2.04-2.66,2.04c-1.11,0-2.04-0.34-2.73-1.06L173.72,132.88z"/>
	<path class="st3" d="M183.21,127.59c2.04,0,3.25,1.6,3.25,3.63v0.27h-5.48c0.08,1.27,0.98,2.34,2.44,2.34
		c0.77,0,1.55-0.31,2.09-0.85l0.5,0.69c-0.67,0.67-1.58,1.04-2.69,1.04c-2,0-3.45-1.44-3.45-3.56
		C179.88,129.18,181.28,127.59,183.21,127.59z M180.99,130.72h4.44c-0.01-1.01-0.69-2.26-2.23-2.26
		C181.76,128.46,181.04,129.68,180.99,130.72z"/>
	<path class="st3" d="M191.1,127.59c2.04,0,3.25,1.6,3.25,3.63v0.27h-5.48c0.08,1.27,0.98,2.34,2.44,2.34
		c0.77,0,1.55-0.31,2.09-0.85l0.5,0.69c-0.67,0.67-1.58,1.04-2.69,1.04c-2,0-3.45-1.44-3.45-3.56
		C187.76,129.18,189.16,127.59,191.1,127.59z M188.87,130.72h4.44c-0.01-1.01-0.69-2.26-2.23-2.26
		C189.64,128.46,188.92,129.68,188.87,130.72z"/>
	<path class="st3" d="M202.63,127.59c1.23,0,1.96,0.5,2.48,1.18l-0.7,0.64c-0.45-0.62-1.02-0.88-1.72-0.88
		c-1.44,0-2.34,1.11-2.34,2.61c0,1.5,0.9,2.62,2.34,2.62c0.7,0,1.28-0.28,1.72-0.88l0.7,0.64c-0.52,0.67-1.25,1.18-2.48,1.18
		c-2.02,0-3.38-1.54-3.38-3.56C199.26,129.14,200.61,127.59,202.63,127.59z"/>
	<path class="st3" d="M206.19,131.14c0-1.96,1.29-3.54,3.35-3.54c2.06,0,3.35,1.58,3.35,3.54c0,1.96-1.29,3.56-3.35,3.56
		C207.47,134.7,206.19,133.1,206.19,131.14z M211.77,131.14c0-1.37-0.8-2.61-2.24-2.61c-1.44,0-2.25,1.23-2.25,2.61
		c0,1.39,0.81,2.62,2.25,2.62C210.98,133.76,211.77,132.53,211.77,131.14z"/>
	<path class="st3" d="M219.15,130.1c0-1.19-0.6-1.57-1.51-1.57c-0.83,0-1.61,0.5-2,1.05v4.94h-1.05v-6.77h1.05v0.98
		c0.48-0.56,1.4-1.15,2.41-1.15c1.41,0,2.16,0.71,2.16,2.19v4.75h-1.05V130.1z"/>
	<path class="st3" d="M222.51,133.11v-4.43h-1.12v-0.92h1.12v-1.85h1.05v1.85h1.37v0.92h-1.37v4.2c0,0.5,0.22,0.87,0.69,0.87
		c0.29,0,0.57-0.13,0.71-0.28l0.31,0.78c-0.27,0.25-0.64,0.43-1.26,0.43C223.01,134.7,222.51,134.12,222.51,133.11z"/>
	<path class="st3" d="M229.36,127.59c2.04,0,3.25,1.6,3.25,3.63v0.27h-5.48c0.08,1.27,0.98,2.34,2.44,2.34
		c0.77,0,1.55-0.31,2.09-0.85l0.5,0.69c-0.67,0.67-1.58,1.04-2.69,1.04c-2,0-3.45-1.44-3.45-3.56
		C226.02,129.18,227.42,127.59,229.36,127.59z M227.13,130.72h4.44c-0.01-1.01-0.69-2.26-2.23-2.26
		C227.9,128.46,227.19,129.68,227.13,130.72z"/>
	<path class="st3" d="M238.86,130.1c0-1.19-0.6-1.57-1.51-1.57c-0.83,0-1.61,0.5-2,1.05v4.94h-1.05v-6.77h1.05v0.98
		c0.48-0.56,1.4-1.15,2.41-1.15c1.41,0,2.16,0.71,2.16,2.19v4.75h-1.05V130.1z"/>
	<path class="st3" d="M242.22,133.11v-4.43h-1.12v-0.92h1.12v-1.85h1.05v1.85h1.37v0.92h-1.37v4.2c0,0.5,0.22,0.87,0.69,0.87
		c0.29,0,0.57-0.13,0.71-0.28l0.31,0.78c-0.27,0.25-0.64,0.43-1.26,0.43C242.73,134.7,242.22,134.12,242.22,133.11z"/>
	<path class="st3" d="M250.03,128.69h-1.12v-0.92h1.12v-0.52c0-1.4,0.78-2.2,1.96-2.2c0.39,0,0.76,0.07,1.02,0.24l-0.27,0.78
		c-0.17-0.1-0.36-0.15-0.6-0.15c-0.69,0-1.06,0.48-1.06,1.33v0.52h1.37v0.92h-1.37v5.84h-1.05V128.69z"/>
	<path class="st3" d="M253.7,127.76h1.05v1.09c0.55-0.71,1.33-1.23,2.25-1.23v1.08c-0.13-0.03-0.25-0.04-0.42-0.04
		c-0.64,0-1.53,0.53-1.83,1.08v4.79h-1.05V127.76z"/>
	<path class="st3" d="M257.93,131.14c0-1.96,1.29-3.54,3.35-3.54c2.06,0,3.35,1.58,3.35,3.54c0,1.96-1.29,3.56-3.35,3.56
		C259.22,134.7,257.93,133.1,257.93,131.14z M263.52,131.14c0-1.37-0.8-2.61-2.24-2.61c-1.44,0-2.25,1.23-2.25,2.61
		c0,1.39,0.81,2.62,2.25,2.62C262.72,133.76,263.52,132.53,263.52,131.14z"/>
	<path class="st3" d="M274.5,129.93c0-0.85-0.38-1.4-1.25-1.4c-0.7,0-1.44,0.5-1.79,1.04v4.96h-1.05v-4.59c0-0.85-0.36-1.4-1.25-1.4
		c-0.69,0-1.42,0.5-1.78,1.05v4.94h-1.05v-6.77h1.05v0.98c0.28-0.43,1.19-1.15,2.18-1.15c1.04,0,1.62,0.56,1.82,1.26
		c0.38-0.62,1.29-1.26,2.27-1.26c1.23,0,1.89,0.69,1.89,2.04v4.89h-1.05V129.93z"/>
</g>
<g>
	<path d="M78.12,208.4c-0.59,0.67-1.6,1.28-2.75,1.28c-1.62,0-2.46-0.78-2.46-2.46v-5.46h1.2v5.09c0,1.36,0.69,1.76,1.73,1.76
		c0.94,0,1.84-0.54,2.29-1.17v-5.68h1.2v7.73h-1.2V208.4z"/>
	<path d="M81.67,207.6c0.51,0.59,1.49,1.1,2.54,1.1c1.18,0,1.83-0.53,1.83-1.28c0-0.85-0.94-1.12-1.98-1.38
		c-1.31-0.3-2.8-0.66-2.8-2.26c0-1.2,1.04-2.23,2.88-2.23c1.31,0,2.24,0.5,2.86,1.12l-0.56,0.83c-0.46-0.56-1.31-0.98-2.3-0.98
		c-1.06,0-1.71,0.48-1.71,1.17c0,0.75,0.88,0.99,1.89,1.23c1.34,0.3,2.9,0.69,2.9,2.4c0,1.3-1.04,2.34-3.04,2.34
		c-1.26,0-2.34-0.38-3.12-1.22L81.67,207.6z"/>
	<path d="M92.52,201.57c2.34,0,3.71,1.82,3.71,4.15v0.3h-6.26c0.1,1.46,1.12,2.67,2.79,2.67c0.88,0,1.78-0.35,2.39-0.98l0.58,0.78
		c-0.77,0.77-1.81,1.18-3.07,1.18c-2.29,0-3.94-1.65-3.94-4.07C88.71,203.38,90.31,201.57,92.52,201.57z M89.97,205.14h5.07
		c-0.02-1.15-0.78-2.58-2.54-2.58C90.85,202.56,90.04,203.95,89.97,205.14z"/>
	<path d="M98.16,201.76h1.2v1.25c0.62-0.82,1.52-1.41,2.58-1.41v1.23c-0.14-0.03-0.29-0.05-0.48-0.05c-0.74,0-1.75,0.61-2.1,1.23
		v5.47h-1.2V201.76z"/>
	<path d="M107.14,198.66c2.91,0,4.08,2.9,4.08,5.51c0,2.59-1.17,5.52-4.08,5.52c-2.93,0-4.08-2.93-4.08-5.52
		C103.06,201.55,104.21,198.66,107.14,198.66z M107.14,199.84c-2.03,0-2.72,2.19-2.72,4.32s0.69,4.34,2.72,4.34s2.72-2.21,2.72-4.34
		S109.17,199.84,107.14,199.84z"/>
	<path d="M114.88,200.58l-1.71,1.81l-0.8-0.82l2.67-2.75h1.17v10.68h-1.33V200.58z"/>
</g>
<g>
	<path d="M24.05,461.87h1.25v8.89h4.65v1.11h-5.9V461.87z"/>
	<path d="M30.92,468.25c0-2.1,1.38-3.79,3.58-3.79c2.2,0,3.58,1.7,3.58,3.79s-1.38,3.81-3.58,3.81
		C32.3,472.05,30.92,470.34,30.92,468.25z M36.91,468.25c0-1.47-0.85-2.79-2.4-2.79s-2.42,1.32-2.42,2.79c0,1.49,0.87,2.8,2.42,2.8
		S36.91,469.73,36.91,468.25z"/>
	<path d="M39.92,464.63h1.12v1.17c0.58-0.76,1.42-1.32,2.42-1.32v1.15c-0.14-0.03-0.27-0.04-0.45-0.04c-0.69,0-1.63,0.57-1.96,1.16
		v5.13h-1.12V464.63z"/>
	<path d="M48.02,464.45c2.19,0,3.48,1.71,3.48,3.88v0.29h-5.86c0.09,1.37,1.05,2.5,2.61,2.5c0.82,0,1.66-0.33,2.23-0.92l0.54,0.74
		c-0.72,0.72-1.7,1.11-2.88,1.11c-2.15,0-3.69-1.54-3.69-3.81C44.45,466.15,45.95,464.45,48.02,464.45z M45.64,467.79h4.75
		c-0.01-1.08-0.73-2.42-2.38-2.42C46.46,465.38,45.7,466.69,45.64,467.79z"/>
	<path d="M62.06,466.96c0-0.92-0.4-1.5-1.33-1.5c-0.75,0-1.54,0.54-1.92,1.11v5.31h-1.12v-4.92c0-0.92-0.39-1.5-1.33-1.5
		c-0.73,0-1.52,0.54-1.9,1.12v5.29h-1.12v-7.25h1.12v1.05c0.3-0.47,1.27-1.23,2.34-1.23c1.11,0,1.74,0.6,1.95,1.35
		c0.41-0.66,1.38-1.35,2.43-1.35c1.32,0,2.02,0.74,2.02,2.19v5.23h-1.12V466.96z"/>
</g>
<line class="st4" x1="0" y1="162.79" x2="360" y2="163.11"/>
<line class="st4" x1="0" y1="247.96" x2="360" y2="248.28"/>
<line class="st4" x1="0" y1="334" x2="360" y2="334.32"/>
<line class="st4" x1="0" y1="440.53" x2="360" y2="440.85"/>
<circle class="st1" cx="329.56" cy="130.29" r="10"/>
<line class="st1" x1="329.56" y1="126.29" x2="329.56" y2="134.29"/>
<line class="st1" x1="325.56" y1="130.29" x2="333.56" y2="130.29"/>
<circle class="st1" cx="331.25" cy="205.53" r="10"/>
<line class="st1" x1="327.25" y1="205.53" x2="335.25" y2="205.53"/>
<circle class="st1" cx="332.25" cy="290.76" r="10"/>
<line class="st1" x1="328.25" y1="290.76" x2="336.25" y2="290.76"/>
<g>
	<path d="M79.32,293.63c-0.59,0.67-1.6,1.28-2.75,1.28c-1.62,0-2.46-0.78-2.46-2.46v-5.46h1.2v5.09c0,1.36,0.69,1.76,1.73,1.76
		c0.94,0,1.84-0.54,2.29-1.17v-5.68h1.2v7.73h-1.2V293.63z"/>
	<path d="M82.87,292.83c0.51,0.59,1.49,1.1,2.54,1.1c1.18,0,1.83-0.53,1.83-1.28c0-0.85-0.94-1.12-1.98-1.38
		c-1.31-0.3-2.8-0.66-2.8-2.26c0-1.2,1.04-2.23,2.88-2.23c1.31,0,2.24,0.5,2.86,1.12l-0.56,0.83c-0.46-0.56-1.31-0.98-2.3-0.98
		c-1.06,0-1.71,0.48-1.71,1.17c0,0.75,0.88,0.99,1.89,1.23c1.34,0.3,2.9,0.69,2.9,2.4c0,1.3-1.04,2.34-3.04,2.34
		c-1.26,0-2.34-0.38-3.12-1.22L82.87,292.83z"/>
	<path d="M93.72,286.79c2.34,0,3.71,1.82,3.71,4.15v0.3h-6.26c0.1,1.46,1.12,2.67,2.79,2.67c0.88,0,1.78-0.35,2.39-0.98l0.58,0.78
		c-0.77,0.77-1.81,1.18-3.07,1.18c-2.29,0-3.94-1.65-3.94-4.07C89.91,288.6,91.51,286.79,93.72,286.79z M91.17,290.36h5.07
		c-0.02-1.15-0.78-2.58-2.54-2.58C92.05,287.79,91.24,289.18,91.17,290.36z"/>
	<path d="M99.36,286.98h1.2v1.25c0.62-0.82,1.52-1.41,2.58-1.41v1.23c-0.14-0.03-0.29-0.05-0.48-0.05c-0.74,0-1.75,0.61-2.1,1.23
		v5.47h-1.2V286.98z"/>
	<path d="M108.34,283.88c2.91,0,4.08,2.9,4.08,5.51c0,2.59-1.17,5.52-4.08,5.52c-2.93,0-4.08-2.93-4.08-5.52
		C104.26,286.78,105.41,283.88,108.34,283.88z M108.34,285.06c-2.03,0-2.72,2.19-2.72,4.32s0.69,4.34,2.72,4.34s2.72-2.21,2.72-4.34
		S110.37,285.06,108.34,285.06z"/>
	<path d="M114.1,293.66c3.84-3.02,5.92-4.8,5.92-6.64c0-1.36-1.12-1.95-2.22-1.95c-1.28,0-2.27,0.54-2.9,1.34l-0.82-0.85
		c0.82-1.07,2.21-1.68,3.71-1.68c1.78,0,3.59,1.01,3.59,3.14c0,2.18-2.21,4.16-5.19,6.51h5.23v1.18h-7.33V293.66z"/>
</g>
<circle class="st2" cx="40.86" cy="205.68" r="18"/>
<circle class="st2" cx="42.15" cy="290.56" r="18"/>
<path class="st2" d="M333.6,425.34H22.48c-6.6,0-12-5.4-12-12V402.1c0-6.6,5.4-12,12-12H333.6c6.6,0,12,5.4,12,12v11.24
	C345.6,419.94,340.2,425.34,333.6,425.34z"/>
<g>
	<path class="st3" d="M20.16,402.61h6.12v1.04h-4.96v3.01h4.86v1.04h-4.86v4.26h-1.16V402.61z"/>
	<path class="st3" d="M27.63,403.34c0-0.39,0.32-0.7,0.7-0.7c0.39,0,0.71,0.31,0.71,0.7c0,0.39-0.32,0.71-0.71,0.71
		C27.95,404.06,27.63,403.73,27.63,403.34z M27.81,405.19h1.05v6.77h-1.05V405.19z"/>
	<path class="st3" d="M30.96,402.61h1.05v9.34h-1.05V402.61z"/>
	<path class="st3" d="M34.32,410.54v-4.43H33.2v-0.92h1.12v-1.85h1.05v1.85h1.37v0.92h-1.37v4.2c0,0.5,0.22,0.87,0.69,0.87
		c0.29,0,0.57-0.13,0.71-0.28l0.31,0.78c-0.27,0.25-0.64,0.43-1.26,0.43C34.83,412.12,34.32,411.55,34.32,410.54z"/>
	<path class="st3" d="M41.17,405.02c2.04,0,3.25,1.6,3.25,3.63v0.27h-5.48c0.08,1.27,0.98,2.34,2.44,2.34
		c0.77,0,1.56-0.31,2.09-0.85l0.5,0.69c-0.67,0.67-1.58,1.04-2.69,1.04c-2,0-3.45-1.44-3.45-3.56
		C37.84,406.61,39.24,405.02,41.17,405.02z M38.94,408.15h4.44c-0.01-1.01-0.69-2.25-2.23-2.25C39.71,405.89,39,407.11,38.94,408.15
		z"/>
	<path class="st3" d="M46.11,405.19h1.05v1.09c0.55-0.71,1.33-1.23,2.26-1.23v1.08c-0.13-0.03-0.25-0.04-0.42-0.04
		c-0.64,0-1.53,0.53-1.83,1.08v4.79h-1.05V405.19z"/>
	<path class="st3" d="M53.95,408.57c0-1.96,1.29-3.54,3.35-3.54s3.35,1.58,3.35,3.54c0,1.96-1.29,3.56-3.35,3.56
		S53.95,410.53,53.95,408.57z M59.54,408.57c0-1.37-0.8-2.61-2.24-2.61c-1.44,0-2.26,1.23-2.26,2.61c0,1.39,0.81,2.62,2.26,2.62
		C58.74,411.19,59.54,409.95,59.54,408.57z"/>
	<path class="st3" d="M66.92,411c-0.52,0.59-1.4,1.12-2.41,1.12c-1.41,0-2.16-0.69-2.16-2.16v-4.78h1.05v4.45
		c0,1.19,0.6,1.54,1.51,1.54c0.83,0,1.61-0.48,2-1.02v-4.97h1.05v6.77h-1.05V411z"/>
	<path class="st3" d="M70.28,410.54v-4.43h-1.12v-0.92h1.12v-1.85h1.05v1.85h1.37v0.92h-1.37v4.2c0,0.5,0.22,0.87,0.69,0.87
		c0.29,0,0.57-0.13,0.71-0.28l0.31,0.78c-0.27,0.25-0.64,0.43-1.26,0.43C70.78,412.12,70.28,411.55,70.28,410.54z"/>
	<path class="st3" d="M81.88,406.52l-1.76,5.44h-1.05l-2.16-6.77H78l1.65,5.39l1.78-5.39h0.9l1.78,5.39l1.65-5.39h1.09l-2.16,6.77
		h-1.05L81.88,406.52z"/>
	<path class="st3" d="M87.68,408.57c0-1.96,1.29-3.54,3.35-3.54s3.35,1.58,3.35,3.54c0,1.96-1.29,3.56-3.35,3.56
		S87.68,410.53,87.68,408.57z M93.27,408.57c0-1.37-0.8-2.61-2.24-2.61c-1.44,0-2.26,1.23-2.26,2.61c0,1.39,0.81,2.62,2.26,2.62
		C92.47,411.19,93.27,409.95,93.27,408.57z"/>
	<path class="st3" d="M96.08,405.19h1.05v1.09c0.55-0.71,1.33-1.23,2.26-1.23v1.08c-0.13-0.03-0.25-0.04-0.42-0.04
		c-0.64,0-1.53,0.53-1.83,1.08v4.79h-1.05V405.19z"/>
	<path class="st3" d="M105.6,410.95c-0.5,0.69-1.33,1.18-2.28,1.18c-1.76,0-3.01-1.34-3.01-3.54c0-2.16,1.23-3.56,3.01-3.56
		c0.91,0,1.74,0.45,2.28,1.19v-3.6h1.05v9.34h-1.05V410.95z M105.6,407.05c-0.38-0.59-1.19-1.09-2.03-1.09
		c-1.36,0-2.17,1.12-2.17,2.62s0.81,2.61,2.17,2.61c0.84,0,1.65-0.48,2.03-1.06V407.05z"/>
	<path class="st3" d="M108.71,410.3c0.45,0.52,1.3,0.97,2.23,0.97c1.04,0,1.6-0.46,1.6-1.12c0-0.74-0.83-0.98-1.74-1.2
		c-1.15-0.27-2.45-0.57-2.45-1.98c0-1.05,0.91-1.95,2.52-1.95c1.15,0,1.96,0.43,2.51,0.98l-0.49,0.73
		c-0.41-0.49-1.15-0.85-2.02-0.85c-0.92,0-1.5,0.42-1.5,1.02c0,0.66,0.77,0.87,1.65,1.08c1.18,0.27,2.54,0.6,2.54,2.1
		c0,1.13-0.91,2.04-2.66,2.04c-1.11,0-2.05-0.34-2.73-1.06L108.71,410.3z"/>
	<path class="st3" d="M115,413.3c0.45-0.29,0.85-0.84,0.91-1.3c-0.03,0.01-0.13,0.03-0.2,0.03c-0.39,0-0.67-0.29-0.67-0.71
		c0-0.41,0.32-0.76,0.74-0.76c0.46,0,0.88,0.39,0.88,1.07c0,0.85-0.5,1.65-1.15,2.11L115,413.3z"/>
	<path class="st3" d="M122.09,414.53v-9.34h1.05v1.01c0.49-0.69,1.33-1.18,2.28-1.18c1.78,0,3.01,1.34,3.01,3.54
		c0,2.18-1.23,3.56-3.01,3.56c-0.92,0-1.74-0.43-2.28-1.19v3.6H122.09z M125.16,405.96c-0.83,0-1.65,0.49-2.02,1.08v3.05
		c0.36,0.59,1.19,1.09,2.02,1.09c1.36,0,2.17-1.12,2.17-2.62C127.33,407.07,126.52,405.96,125.16,405.96z"/>
	<path class="st3" d="M134.71,407.5c0-1.19-0.62-1.54-1.53-1.54c-0.81,0-1.6,0.5-2,1.05v4.95h-1.05v-9.34h1.05v3.56
		c0.48-0.56,1.4-1.15,2.42-1.15c1.42,0,2.16,0.69,2.16,2.16v4.78h-1.05V407.5z"/>
	<path class="st3" d="M137.85,405.19h1.05v1.09c0.55-0.71,1.33-1.23,2.26-1.23v1.08c-0.13-0.03-0.25-0.04-0.42-0.04
		c-0.64,0-1.53,0.53-1.83,1.08v4.79h-1.05V405.19z"/>
	<path class="st3" d="M146.7,411.19c-0.56,0.62-1.33,0.94-2.24,0.94c-1.15,0-2.37-0.77-2.37-2.24c0-1.51,1.22-2.23,2.37-2.23
		c0.92,0,1.69,0.29,2.24,0.92v-1.22c0-0.91-0.73-1.43-1.71-1.43c-0.81,0-1.47,0.29-2.07,0.94l-0.49-0.73
		c0.73-0.76,1.6-1.12,2.7-1.12c1.43,0,2.62,0.64,2.62,2.28v4.65h-1.05V411.19z M146.7,409.25c-0.41-0.56-1.12-0.84-1.86-0.84
		c-0.98,0-1.67,0.62-1.67,1.48c0,0.85,0.69,1.47,1.67,1.47c0.74,0,1.46-0.28,1.86-0.84V409.25z"/>
	<path class="st3" d="M149.81,410.3c0.45,0.52,1.3,0.97,2.23,0.97c1.04,0,1.6-0.46,1.6-1.12c0-0.74-0.83-0.98-1.74-1.2
		c-1.15-0.27-2.45-0.57-2.45-1.98c0-1.05,0.91-1.95,2.52-1.95c1.15,0,1.96,0.43,2.51,0.98l-0.49,0.73
		c-0.41-0.49-1.15-0.85-2.02-0.85c-0.92,0-1.5,0.42-1.5,1.02c0,0.66,0.77,0.87,1.65,1.08c1.18,0.27,2.54,0.6,2.54,2.1
		c0,1.13-0.91,2.04-2.66,2.04c-1.11,0-2.04-0.34-2.73-1.06L149.81,410.3z"/>
	<path class="st3" d="M159.3,405.02c2.04,0,3.25,1.6,3.25,3.63v0.27h-5.48c0.08,1.27,0.98,2.34,2.44,2.34
		c0.77,0,1.55-0.31,2.09-0.85l0.5,0.69c-0.67,0.67-1.58,1.04-2.69,1.04c-2,0-3.45-1.44-3.45-3.56
		C155.97,406.61,157.37,405.02,159.3,405.02z M157.07,408.15h4.44c-0.01-1.01-0.69-2.25-2.23-2.25
		C157.84,405.89,157.13,407.11,157.07,408.15z"/>
	<path class="st3" d="M164.2,410.3c0.45,0.52,1.3,0.97,2.23,0.97c1.04,0,1.6-0.46,1.6-1.12c0-0.74-0.83-0.98-1.74-1.2
		c-1.15-0.27-2.45-0.57-2.45-1.98c0-1.05,0.91-1.95,2.52-1.95c1.15,0,1.96,0.43,2.51,0.98l-0.49,0.73
		c-0.41-0.49-1.15-0.85-2.02-0.85c-0.92,0-1.5,0.42-1.5,1.02c0,0.66,0.77,0.87,1.65,1.08c1.18,0.27,2.54,0.6,2.54,2.1
		c0,1.13-0.91,2.04-2.66,2.04c-1.11,0-2.04-0.34-2.73-1.06L164.2,410.3z"/>
	<path class="st3" d="M173.97,408.57c0-1.96,1.29-3.54,3.35-3.54c2.06,0,3.35,1.58,3.35,3.54c0,1.96-1.29,3.56-3.35,3.56
		C175.26,412.12,173.97,410.53,173.97,408.57z M179.56,408.57c0-1.37-0.8-2.61-2.24-2.61c-1.44,0-2.25,1.23-2.25,2.61
		c0,1.39,0.81,2.62,2.25,2.62C178.76,411.19,179.56,409.95,179.56,408.57z"/>
	<path class="st3" d="M182.37,405.19h1.05v1.09c0.55-0.71,1.33-1.23,2.25-1.23v1.08c-0.13-0.03-0.25-0.04-0.42-0.04
		c-0.64,0-1.53,0.53-1.83,1.08v4.79h-1.05V405.19z"/>
	<path class="st3" d="M195.18,407.5c0-1.19-0.62-1.54-1.53-1.54c-0.81,0-1.6,0.5-2,1.05v4.95h-1.05v-9.34h1.05v3.56
		c0.48-0.56,1.4-1.15,2.42-1.15c1.42,0,2.16,0.69,2.16,2.16v4.78h-1.05V407.5z"/>
	<path class="st3" d="M202.56,411.19c-0.56,0.62-1.33,0.94-2.24,0.94c-1.15,0-2.37-0.77-2.37-2.24c0-1.51,1.22-2.23,2.37-2.23
		c0.92,0,1.69,0.29,2.24,0.92v-1.22c0-0.91-0.73-1.43-1.71-1.43c-0.81,0-1.47,0.29-2.07,0.94l-0.49-0.73
		c0.73-0.76,1.6-1.12,2.7-1.12c1.43,0,2.62,0.64,2.62,2.28v4.65h-1.05V411.19z M202.56,409.25c-0.41-0.56-1.12-0.84-1.86-0.84
		c-0.98,0-1.67,0.62-1.67,1.48c0,0.85,0.69,1.47,1.67,1.47c0.74,0,1.46-0.28,1.86-0.84V409.25z"/>
	<path class="st3" d="M205.67,410.3c0.45,0.52,1.3,0.97,2.23,0.97c1.04,0,1.6-0.46,1.6-1.12c0-0.74-0.83-0.98-1.74-1.2
		c-1.15-0.27-2.45-0.57-2.45-1.98c0-1.05,0.91-1.95,2.52-1.95c1.15,0,1.96,0.43,2.51,0.98l-0.49,0.73
		c-0.41-0.49-1.15-0.85-2.02-0.85c-0.92,0-1.5,0.42-1.5,1.02c0,0.66,0.77,0.87,1.65,1.08c1.18,0.27,2.54,0.6,2.54,2.1
		c0,1.13-0.91,2.04-2.66,2.04c-1.11,0-2.04-0.34-2.73-1.06L205.67,410.3z"/>
	<path class="st3" d="M216.8,407.5c0-1.19-0.62-1.54-1.53-1.54c-0.81,0-1.6,0.5-2,1.05v4.95h-1.05v-9.34h1.05v3.56
		c0.48-0.56,1.4-1.15,2.42-1.15c1.42,0,2.16,0.69,2.16,2.16v4.78h-1.05V407.5z"/>
	<path class="st3" d="M220.16,410.54v-4.43h-1.12v-0.92h1.12v-1.85h1.05v1.85h1.37v0.92h-1.37v4.2c0,0.5,0.22,0.87,0.69,0.87
		c0.29,0,0.57-0.13,0.71-0.28l0.31,0.78c-0.27,0.25-0.64,0.43-1.26,0.43C220.66,412.12,220.16,411.55,220.16,410.54z"/>
	<path class="st3" d="M228.29,411.19c-0.56,0.62-1.33,0.94-2.24,0.94c-1.15,0-2.37-0.77-2.37-2.24c0-1.51,1.22-2.23,2.37-2.23
		c0.92,0,1.69,0.29,2.24,0.92v-1.22c0-0.91-0.73-1.43-1.71-1.43c-0.81,0-1.47,0.29-2.07,0.94l-0.49-0.73
		c0.73-0.76,1.6-1.12,2.7-1.12c1.43,0,2.62,0.64,2.62,2.28v4.65h-1.05V411.19z M228.29,409.25c-0.41-0.56-1.12-0.84-1.86-0.84
		c-0.98,0-1.67,0.62-1.67,1.48c0,0.85,0.69,1.47,1.67,1.47c0.74,0,1.46-0.28,1.86-0.84V409.25z"/>
	<path class="st3" d="M231.96,412.91c0.56,0.67,1.23,0.92,2.2,0.92c1.12,0,2.17-0.55,2.17-2.03v-0.97
		c-0.49,0.69-1.32,1.21-2.27,1.21c-1.76,0-3.01-1.32-3.01-3.5c0-2.17,1.23-3.52,3.01-3.52c0.91,0,1.72,0.45,2.27,1.19v-1.02h1.05
		v6.57c0,2.24-1.57,2.94-3.22,2.94c-1.15,0-1.93-0.22-2.73-1.01L231.96,412.91z M236.33,407.05c-0.36-0.59-1.18-1.09-2.02-1.09
		c-1.36,0-2.17,1.08-2.17,2.58c0,1.48,0.81,2.58,2.17,2.58c0.84,0,1.65-0.52,2.02-1.11V407.05z"/>
	<path class="st3" d="M239.44,410.3c0.45,0.52,1.3,0.97,2.23,0.97c1.04,0,1.6-0.46,1.6-1.12c0-0.74-0.83-0.98-1.74-1.2
		c-1.15-0.27-2.45-0.57-2.45-1.98c0-1.05,0.91-1.95,2.52-1.95c1.15,0,1.96,0.43,2.51,0.98l-0.49,0.73
		c-0.41-0.49-1.15-0.85-2.02-0.85c-0.92,0-1.5,0.42-1.5,1.02c0,0.66,0.77,0.87,1.65,1.08c1.18,0.27,2.54,0.6,2.54,2.1
		c0,1.13-0.91,2.04-2.66,2.04c-1.11,0-2.04-0.34-2.73-1.06L239.44,410.3z"/>
</g>
<circle class="st1" cx="329.56" cy="407.72" r="10"/>
<line class="st1" x1="329.56" y1="403.72" x2="329.56" y2="411.72"/>
<line class="st1" x1="325.56" y1="407.72" x2="333.56" y2="407.72"/>
<g>
	<path d="M24.62,522.34h3.65c3.31,0,5.47,2.32,5.47,5.35c0,3.04-2.16,5.33-5.47,5.33h-3.65V522.34z M28.26,531.84
		c2.59,0,4.1-1.86,4.1-4.15c0-2.3-1.46-4.16-4.1-4.16h-2.32v8.31H28.26z"/>
	<path d="M35.32,529.15c0-2.24,1.47-4.05,3.83-4.05c2.35,0,3.83,1.81,3.83,4.05c0,2.24-1.47,4.07-3.83,4.07
		C36.79,533.21,35.32,531.39,35.32,529.15z M41.71,529.15c0-1.57-0.91-2.98-2.56-2.98c-1.65,0-2.58,1.41-2.58,2.98
		c0,1.58,0.93,2.99,2.58,2.99C40.79,532.14,41.71,530.73,41.71,529.15z"/>
	<path d="M44.92,522.34h1.2v10.68h-1.2V522.34z"/>
	<path d="M48.07,529.15c0-2.24,1.47-4.05,3.83-4.05c2.35,0,3.83,1.81,3.83,4.05c0,2.24-1.47,4.07-3.83,4.07
		C49.54,533.21,48.07,531.39,48.07,529.15z M54.46,529.15c0-1.57-0.91-2.98-2.56-2.98c-1.65,0-2.58,1.41-2.58,2.98
		c0,1.58,0.93,2.99,2.58,2.99C53.54,532.14,54.46,530.73,54.46,529.15z"/>
	<path d="M57.67,525.29h1.2v1.25c0.62-0.82,1.52-1.41,2.58-1.41v1.23c-0.14-0.03-0.29-0.05-0.48-0.05c-0.74,0-1.75,0.61-2.1,1.23
		v5.47h-1.2V525.29z"/>
</g>
<g>
	<path d="M24.13,582.52h1.33v10.68h-1.33V582.52z"/>
	<path d="M27.91,596.14v-10.68h1.2v1.15c0.56-0.78,1.52-1.34,2.61-1.34c2.03,0,3.44,1.54,3.44,4.05c0,2.5-1.41,4.07-3.44,4.07
		c-1.06,0-1.98-0.5-2.61-1.36v4.11H27.91z M31.41,586.34c-0.94,0-1.89,0.56-2.31,1.23v3.49c0.42,0.67,1.36,1.25,2.31,1.25
		c1.55,0,2.48-1.28,2.48-2.99C33.89,587.61,32.96,586.34,31.41,586.34z"/>
	<path d="M37.04,591.31c0.51,0.59,1.49,1.1,2.54,1.1c1.18,0,1.83-0.53,1.83-1.28c0-0.85-0.94-1.12-1.98-1.38
		c-1.31-0.3-2.8-0.66-2.8-2.26c0-1.2,1.04-2.22,2.88-2.22c1.31,0,2.24,0.5,2.86,1.12l-0.56,0.83c-0.46-0.56-1.31-0.98-2.3-0.98
		c-1.06,0-1.71,0.48-1.71,1.17c0,0.75,0.88,0.99,1.89,1.23c1.34,0.3,2.9,0.69,2.9,2.4c0,1.3-1.04,2.34-3.04,2.34
		c-1.26,0-2.34-0.38-3.12-1.22L37.04,591.31z"/>
	<path d="M49.75,592.11c-0.59,0.67-1.6,1.28-2.75,1.28c-1.62,0-2.46-0.78-2.46-2.46v-5.46h1.2v5.09c0,1.36,0.69,1.76,1.73,1.76
		c0.94,0,1.84-0.54,2.29-1.17v-5.68h1.2v7.73h-1.2V592.11z"/>
	<path d="M62.68,587.95c0-0.98-0.43-1.6-1.42-1.6c-0.8,0-1.65,0.58-2.05,1.18v5.67H58v-5.25c0-0.98-0.42-1.6-1.42-1.6
		c-0.78,0-1.62,0.58-2.03,1.2v5.65h-1.2v-7.73h1.2v1.12c0.32-0.5,1.36-1.31,2.5-1.31c1.18,0,1.86,0.64,2.08,1.44
		c0.43-0.7,1.47-1.44,2.59-1.44c1.41,0,2.16,0.78,2.16,2.34v5.59h-1.2V587.95z"/>
</g>
<circle class="st1" cx="329.56" cy="466.22" r="10"/>
<line class="st1" x1="325.56" y1="466.22" x2="333.56" y2="466.22"/>
<circle class="st1" cx="329.56" cy="524.72" r="10"/>
<line class="st1" x1="325.56" y1="524.72" x2="333.56" y2="524.72"/>
<circle class="st1" cx="329.56" cy="586.72" r="10"/>
<line class="st1" x1="325.56" y1="586.72" x2="333.56" y2="586.72"/>
<line class="st4" x1="0" y1="497.06" x2="360" y2="497.38"/>
<line class="st4" x1="0" y1="557.5" x2="360" y2="557.82"/>
<line class="st4" x1="0" y1="619.48" x2="360" y2="619.8"/>
<line class="st1" x1="184.13" y1="22.26" x2="184.13" y2="30.26"/>
<line class="st1" x1="176.13" y1="22.26" x2="176.13" y2="30.26"/>
<line class="st1" x1="180.13" y1="24.26" x2="180.13" y2="32.26"/>
<path class="st1" d="M188.13,25.84c2.53-1.11,3.68-4.06,2.57-6.59c-0.8-1.82-2.59-2.99-4.57-2.99h-1.26
	c-1.1-4.28-5.47-6.85-9.75-5.75s-6.85,5.47-5.75,9.75c0.43,1.68,1.4,3.17,2.75,4.25"/>
<g>
</g>
<g>
</g>
<g>
</g>
<g>
</g>
<g>
</g>
<g>
</g>
</svg>
