<?xml version="1.0" encoding="utf-8"?>
<!-- Generator: Adobe Illustrator 25.2.1, SVG Export Plug-In . SVG Version: 6.00 Build 0)  -->
<svg version="1.1" id="Layer_1" xmlns="http://www.w3.org/2000/svg" xmlns:xlink="http://www.w3.org/1999/xlink" x="0px" y="0px"
	 viewBox="0 0 360 717.6" style="enable-background:new 0 0 360 717.6;" xml:space="preserve">
<style type="text/css">
	.st0{stroke:#020203;stroke-width:3;stroke-linecap:round;stroke-linejoin:round;stroke-miterlimit:6;}
	.st1{fill:none;stroke:#020203;stroke-width:2;stroke-linecap:round;stroke-linejoin:round;stroke-miterlimit:6;}
	.st2{fill:none;stroke:#020203;stroke-width:2;stroke-miterlimit:10;}
	.st3{fill:none;stroke:#020203;stroke-width:2;stroke-linecap:round;stroke-linejoin:round;}
	.st4{fill:none;stroke:#000000;stroke-width:2;stroke-linecap:round;stroke-linejoin:round;}
	.st5{fill:#A3A09F;}
	.st6{stroke:#020203;stroke-width:2;stroke-linecap:round;stroke-linejoin:round;}
	.st7{fill:#FFFFFF;stroke:#FFFFFF;stroke-width:2;stroke-linecap:round;stroke-linejoin:round;}
	.st8{fill:none;stroke:#9E9B99;stroke-width:0.5;stroke-linecap:round;stroke-linejoin:round;}
	.st9{fill:none;stroke:#000000;stroke-width:2;stroke-miterlimit:10;}
	.st10{fill:#FFFFFF;stroke:#000000;stroke-width:2;stroke-miterlimit:10;}
	.st11{fill:#FFFFFF;stroke:#020203;stroke-width:2;stroke-linecap:round;stroke-linejoin:round;}
</style>
<circle class="st0" cx="338.2" cy="166.3" r="0.9"/>
<circle class="st0" cx="338.2" cy="160.2" r="0.9"/>
<circle class="st0" cx="338.2" cy="172.4" r="0.9"/>
<circle class="st1" cx="23.2" cy="166.1" r="12.5"/>
<g>
	<path d="M52.7,168.2c-0.4,0.5-1.2,0.9-2.2,0.9c-1.4,0-2-0.8-2-2v-4.5h1.7v3.8c0,0.9,0.5,1.2,1.2,1.2c0.6,0,1.1-0.4,1.4-0.7v-4.2
		h1.7v6.3h-1.7C52.7,169,52.7,168.2,52.7,168.2z"/>
	<path d="M56.1,167c0.5,0.4,1.4,0.9,2.2,0.9c0.7,0,1-0.2,1-0.6c0-0.4-0.5-0.6-1.3-0.7c-1.1-0.2-2.5-0.5-2.5-2c0-1.1,0.9-2,2.6-2
		c1.1,0,1.9,0.4,2.5,0.9l-0.7,1.1c-0.4-0.4-1.1-0.7-1.9-0.7c-0.6,0-1,0.2-1,0.6c0,0.4,0.5,0.5,1.2,0.7c1.1,0.2,2.5,0.5,2.5,2.1
		c0,1.1-1,2-2.7,2c-1.1,0-2.2-0.4-2.8-1L56.1,167z"/>
	<path d="M65,162.5c1.9,0,3.2,1.4,3.2,3.5v0.4h-4.7c0.1,0.8,0.7,1.5,1.8,1.5c0.6,0,1.3-0.2,1.7-0.6l0.7,1.1
		c-0.6,0.6-1.6,0.9-2.6,0.9c-1.9,0-3.3-1.3-3.3-3.3C61.7,164,63.1,162.5,65,162.5z M63.4,165.2h3.1c0-0.6-0.5-1.4-1.6-1.4
		C64,163.8,63.5,164.6,63.4,165.2z"/>
	<path d="M69.3,162.7H71v0.9c0.4-0.6,1.2-1,2-1v1.6c-0.1,0-0.3-0.1-0.5-0.1c-0.6,0-1.3,0.3-1.6,0.7v4.1h-1.7L69.3,162.7L69.3,162.7z
		"/>
</g>
<line class="st2" x1="0" y1="190.3" x2="361" y2="190.3"/>
<path class="st3" d="M343.3,579.7l-7-5l-7,5v-16c0-1.1,0.9-2,2-2h10c1.1,0,2,0.9,2,2V579.7z"/>
<path class="st3" d="M50.2,572.3c0,1.3,0.3,2.6,0.9,3.8c1.4,2.9,4.4,4.7,7.6,4.7c1.3,0,2.6-0.3,3.8-0.9l5.7,1.9l-1.9-5.7
	c0.6-1.2,0.9-2.5,0.9-3.8c0-3.2-1.8-6.2-4.7-7.6c-1.2-0.6-2.5-0.9-3.8-0.9h-0.5c-4.3,0.2-7.8,3.7-8,8
	C50.2,571.8,50.2,572.3,50.2,572.3z"/>
<line class="st3" x1="105.9" y1="564.2" x2="92.3" y2="571.6"/>
<polygon class="st3" points="105.9,564.2 93.5,581.4 92.3,571.6 84.8,565.2 "/>
<path class="st4" d="M31.1,565.3c-2.1-2.2-5.6-2.2-7.8,0l0,0l-1.1,1.1l-1.1-1.1c-2.1-2.2-5.6-2.2-7.8,0s-2.1,5.6,0,7.8l1.1,1.1
	l7.8,7.8l7.8-7.8l1.1-1.1C33.3,570.9,33.3,567.4,31.1,565.3L31.1,565.3z"/>
<line class="st2" x1="-0.5" y1="549.9" x2="360.5" y2="549.9"/>
<g>
	<path d="M13.1,602.4c0.6,0.6,1.6,1,2.4,1c1,0,1.6-0.5,1.6-1.1c0-0.7-0.5-1-1.7-1c-0.4,0-0.9,0-1.1,0v-1.6c0.2,0,0.8,0,1.1,0
		c1,0,1.6-0.3,1.6-1s-0.7-1-1.6-1c-0.8,0-1.6,0.3-2.2,0.9l-0.9-1.1c0.7-0.8,1.8-1.4,3.3-1.4c2,0,3.3,0.9,3.3,2.3
		c0,1.1-0.9,1.8-1.9,2c0.9,0.1,2,0.8,2,2.1c0,1.5-1.3,2.5-3.4,2.5c-1.6,0-2.8-0.6-3.4-1.4L13.1,602.4z"/>
	<path d="M23.5,596.1c2.5,0,3.6,2.2,3.6,4.5S26,605,23.5,605s-3.6-2.2-3.6-4.5S21,596.1,23.5,596.1z M23.5,597.7
		c-1.2,0-1.7,1.2-1.7,2.8s0.5,2.8,1.7,2.8s1.7-1.2,1.7-2.8S24.7,597.7,23.5,597.7z"/>
	<path d="M31.6,596.1c2.5,0,3.6,2.2,3.6,4.5S34,605,31.6,605c-2.5,0-3.6-2.2-3.6-4.5S29.1,596.1,31.6,596.1z M31.6,597.7
		c-1.2,0-1.7,1.2-1.7,2.8s0.5,2.8,1.7,2.8c1.2,0,1.7-1.2,1.7-2.8S32.8,597.7,31.6,597.7z"/>
	<path d="M39.7,596.2h1.7v8.7h-1.7V596.2z"/>
	<path d="M42.8,596.7c0-0.5,0.5-1,1-1s1,0.4,1,1s-0.4,1-1,1C43.3,597.7,42.8,597.2,42.8,596.7z M43,598.6h1.7v6.3H43V598.6z"/>
	<path d="M48.7,602.5l-0.8,0.8v1.6h-1.7v-8.7H48v5.2l2.4-2.8h2l-2.5,2.8l2.6,3.4h-2.1L48.7,602.5z"/>
	<path d="M55.8,598.4c1.9,0,3.2,1.4,3.2,3.5v0.4h-4.7c0.1,0.8,0.7,1.5,1.8,1.5c0.6,0,1.3-0.2,1.7-0.6l0.7,1.1
		c-0.6,0.6-1.6,0.9-2.6,0.9c-1.9,0-3.3-1.3-3.3-3.3C52.6,599.9,53.9,598.4,55.8,598.4z M54.3,601.1h3.1c0-0.6-0.5-1.4-1.5-1.4
		C54.8,599.8,54.4,600.5,54.3,601.1z"/>
	<path d="M60.3,602.9c0.5,0.4,1.4,0.9,2.2,0.9c0.7,0,1-0.2,1-0.6c0-0.4-0.5-0.6-1.3-0.7c-1.1-0.2-2.5-0.5-2.5-2c0-1,0.9-2,2.6-2
		c1.1,0,1.9,0.4,2.5,0.9l-0.7,1.1c-0.4-0.4-1.1-0.7-1.9-0.7c-0.6,0-1,0.2-1,0.6c0,0.4,0.5,0.5,1.2,0.7c1.1,0.2,2.5,0.5,2.5,2
		c0,1.1-1,2-2.7,2c-1.1,0-2.1-0.4-2.8-1L60.3,602.9z"/>
</g>
<g>
	<path d="M16.1,622.9c-0.4,0.5-1.2,1-2.2,1c-1.4,0-2-0.8-2-2v-4.5h1.6v3.8c0,0.9,0.5,1.2,1.2,1.2c0.6,0,1.1-0.3,1.4-0.7v-4.2h1.6
		v6.3h-1.6V622.9z"/>
	<path d="M19.5,621.7c0.5,0.4,1.4,0.9,2.2,0.9c0.7,0,1-0.2,1-0.6c0-0.4-0.5-0.6-1.3-0.7c-1.1-0.2-2.5-0.5-2.5-2c0-1,0.9-2,2.6-2
		c1.1,0,1.9,0.4,2.5,0.9l-0.7,1.1c-0.4-0.4-1.1-0.7-1.9-0.7c-0.6,0-1,0.2-1,0.6c0,0.4,0.5,0.5,1.2,0.7c1.1,0.2,2.5,0.5,2.5,2
		c0,1.1-1,2-2.7,2c-1.1,0-2.1-0.4-2.8-1L19.5,621.7z"/>
	<path d="M28.4,617.2c1.9,0,3.1,1.4,3.1,3.5v0.4h-4.7c0.1,0.8,0.7,1.5,1.8,1.5c0.6,0,1.3-0.2,1.7-0.6l0.7,1.1
		c-0.6,0.6-1.6,0.9-2.6,0.9c-1.9,0-3.4-1.3-3.4-3.3C25.2,618.7,26.5,617.2,28.4,617.2z M26.9,619.9H30c0-0.6-0.5-1.4-1.5-1.4
		C27.4,618.5,26.9,619.3,26.9,619.9z"/>
	<path d="M32.8,617.4h1.7v0.9c0.4-0.6,1.2-1,2-1v1.6c-0.1,0-0.3,0-0.5,0c-0.5,0-1.3,0.3-1.5,0.7v4.2h-1.7V617.4L32.8,617.4z"/>
</g>
<g>
	<path d="M43.5,616.1h-2.7v-1h6.6v1h-2.8v7.7h-1.1V616.1z"/>
	<path d="M53,619.7c0-1.1-0.6-1.4-1.4-1.4c-0.8,0-1.5,0.5-1.9,1v4.6h-1v-8.7h1v3.3c0.4-0.5,1.3-1.1,2.2-1.1c1.3,0,2,0.6,2,2v4.4h-1
		L53,619.7L53,619.7z"/>
	<path d="M55.8,615.8c0-0.4,0.3-0.7,0.7-0.7s0.7,0.3,0.7,0.7s-0.3,0.7-0.7,0.7C56,616.5,55.8,616.2,55.8,615.8z M55.9,617.5h1v6.3
		h-1V617.5z"/>
	<path d="M58.8,622.3c0.4,0.5,1.2,0.9,2.1,0.9c1,0,1.5-0.4,1.5-1c0-0.7-0.8-0.9-1.6-1.1c-1.1-0.2-2.3-0.5-2.3-1.8
		c0-1,0.8-1.8,2.3-1.8c1.1,0,1.8,0.4,2.3,0.9l-0.5,0.7c-0.4-0.5-1.1-0.8-1.9-0.8c-0.9,0-1.4,0.4-1.4,1s0.7,0.8,1.5,1
		c1.1,0.2,2.3,0.6,2.3,2c0,1-0.8,1.9-2.5,1.9c-1,0-1.9-0.3-2.5-1L58.8,622.3z"/>
	<path d="M68.1,615.8c0-0.4,0.3-0.7,0.7-0.7c0.4,0,0.7,0.3,0.7,0.7s-0.3,0.7-0.7,0.7S68.1,616.2,68.1,615.8z M68.2,617.5h1v6.3h-1
		V617.5z"/>
	<path d="M71.1,622.3c0.4,0.5,1.2,0.9,2.1,0.9c1,0,1.5-0.4,1.5-1c0-0.7-0.8-0.9-1.6-1.1c-1.1-0.2-2.3-0.5-2.3-1.8
		c0-1,0.8-1.8,2.3-1.8c1.1,0,1.8,0.4,2.3,0.9L75,619c-0.4-0.5-1.1-0.8-1.9-0.8c-0.9,0-1.4,0.4-1.4,1s0.7,0.8,1.5,1
		c1.1,0.2,2.3,0.6,2.3,2c0,1-0.8,1.9-2.5,1.9c-1,0-1.9-0.3-2.5-1L71.1,622.3z"/>
	<path d="M84.5,623.1c-0.5,0.6-1.2,0.9-2.1,0.9c-1.1,0-2.2-0.7-2.2-2.1c0-1.4,1.1-2.1,2.2-2.1c0.9,0,1.6,0.3,2.1,0.9v-1.1
		c0-0.8-0.7-1.3-1.6-1.3c-0.8,0-1.4,0.3-1.9,0.9l-0.5-0.7c0.7-0.7,1.5-1,2.5-1c1.3,0,2.4,0.6,2.4,2.1v4.3h-1L84.5,623.1L84.5,623.1z
		 M84.5,621.3c-0.4-0.5-1-0.8-1.7-0.8c-0.9,0-1.6,0.6-1.6,1.4c0,0.8,0.6,1.4,1.6,1.4c0.7,0,1.3-0.3,1.7-0.8V621.3z"/>
	<path d="M93.5,617.4c1.1,0,1.8,0.5,2.3,1.1l-0.7,0.6c-0.4-0.6-0.9-0.8-1.6-0.8c-1.3,0-2.2,1-2.2,2.4s0.8,2.4,2.2,2.4
		c0.7,0,1.2-0.3,1.6-0.8l0.7,0.6c-0.5,0.6-1.2,1.1-2.3,1.1c-1.9,0-3.1-1.4-3.1-3.3C90.4,618.8,91.7,617.4,93.5,617.4z"/>
	<path d="M101.1,623.1c-0.5,0.6-1.2,0.9-2.1,0.9c-1.1,0-2.2-0.7-2.2-2.1c0-1.4,1.1-2.1,2.2-2.1c0.9,0,1.6,0.3,2.1,0.9v-1.1
		c0-0.8-0.7-1.3-1.6-1.3c-0.8,0-1.4,0.3-1.9,0.9l-0.5-0.7c0.7-0.7,1.5-1,2.5-1c1.3,0,2.4,0.6,2.4,2.1v4.3h-1L101.1,623.1
		L101.1,623.1z M101.1,621.3c-0.4-0.5-1-0.8-1.7-0.8c-0.9,0-1.6,0.6-1.6,1.4c0,0.8,0.6,1.4,1.6,1.4c0.7,0,1.3-0.3,1.7-0.8V621.3z"/>
	<path d="M104.1,626.2v-8.7h1v0.9c0.5-0.6,1.2-1.1,2.1-1.1c1.7,0,2.8,1.2,2.8,3.3c0,2-1.1,3.3-2.8,3.3c-0.9,0-1.6-0.4-2.1-1.1v3.3
		L104.1,626.2L104.1,626.2z M106.9,618.2c-0.8,0-1.5,0.5-1.9,1v2.8c0.3,0.5,1.1,1,1.9,1c1.3,0,2-1,2-2.4S108.2,618.2,106.9,618.2z"
		/>
	<path d="M111.7,622.5v-4.1h-1v-0.9h1v-1.7h1v1.7h1.3v0.9h-1.3v3.9c0,0.5,0.2,0.8,0.6,0.8c0.3,0,0.5-0.1,0.7-0.3l0.3,0.7
		c-0.2,0.2-0.6,0.4-1.2,0.4C112.2,624,111.7,623.4,111.7,622.5z"/>
	<path d="M115.2,615.8c0-0.4,0.3-0.7,0.7-0.7c0.4,0,0.7,0.3,0.7,0.7s-0.3,0.7-0.7,0.7S115.2,616.2,115.2,615.8z M115.3,617.5h1v6.3
		h-1V617.5z"/>
	<path d="M117.9,620.7c0-1.8,1.2-3.3,3.1-3.3s3.1,1.5,3.1,3.3s-1.2,3.3-3.1,3.3S117.9,622.5,117.9,620.7z M123.1,620.7
		c0-1.3-0.7-2.4-2.1-2.4c-1.3,0-2.1,1.1-2.1,2.4c0,1.3,0.8,2.4,2.1,2.4C122.3,623.1,123.1,622,123.1,620.7z"/>
	<path d="M129.9,619.7c0-1.1-0.6-1.5-1.4-1.5c-0.8,0-1.5,0.5-1.9,1v4.6h-1v-6.3h1v0.9c0.4-0.5,1.3-1.1,2.2-1.1c1.3,0,2,0.7,2,2v4.4
		h-1L129.9,619.7L129.9,619.7z"/>
</g>
<g>
	<path class="st5" d="M12.2,638.2h1.2l2.9,7.5l2.9-7.5h1.2l-3.5,8.7h-1.3L12.2,638.2z"/>
	<path class="st5" d="M21.4,638.9c0-0.4,0.3-0.7,0.6-0.7c0.4,0,0.7,0.3,0.7,0.7s-0.3,0.7-0.7,0.7C21.7,639.6,21.4,639.3,21.4,638.9z
		 M21.6,640.6h1v6.3h-1V640.6z"/>
	<path class="st5" d="M27.2,640.5c1.9,0,3,1.5,3,3.4v0.2h-5.1c0.1,1.2,0.9,2.2,2.3,2.2c0.7,0,1.4-0.3,1.9-0.8l0.5,0.6
		c-0.6,0.6-1.5,1-2.5,1c-1.9,0-3.2-1.3-3.2-3.3C24.1,642,25.4,640.5,27.2,640.5z M25.2,643.4h4.1c0-0.9-0.6-2.1-2.1-2.1
		C25.9,641.3,25.2,642.4,25.2,643.4z"/>
	<path class="st5" d="M35.6,641.9l-1.6,5h-1l-2-6.3h1l1.5,5l1.7-5H36l1.7,5l1.5-5h1l-2,6.3h-1L35.6,641.9z"/>
	<path class="st5" d="M48.6,646.2c-0.5,0.6-1.2,0.9-2.1,0.9c-1.1,0-2.2-0.7-2.2-2.1c0-1.4,1.1-2.1,2.2-2.1c0.9,0,1.6,0.3,2.1,0.9
		v-1.1c0-0.8-0.7-1.3-1.6-1.3c-0.8,0-1.4,0.3-1.9,0.9l-0.5-0.7c0.7-0.7,1.5-1,2.5-1c1.3,0,2.4,0.6,2.4,2.1v4.3h-1
		C48.6,646.9,48.6,646.2,48.6,646.2z M48.6,644.4c-0.4-0.5-1-0.8-1.7-0.8c-0.9,0-1.5,0.6-1.5,1.4c0,0.8,0.6,1.4,1.5,1.4
		c0.7,0,1.3-0.3,1.7-0.8V644.4z"/>
	<path class="st5" d="M51.6,638.2h1v8.7h-1V638.2z"/>
	<path class="st5" d="M54.5,638.2h1v8.7h-1V638.2z"/>
	<path class="st5" d="M61.3,645c0.6,0.7,1.3,1.1,2.4,1.1c1.2,0,2-0.8,2-1.9c0-1.1-0.8-1.9-2-1.9c-0.8,0-1.4,0.2-2,0.8l-0.8-0.3v-4.7
		h5.3v1H62v3c0.4-0.4,1.2-0.8,2-0.8c1.4,0,2.8,1,2.8,2.8s-1.3,2.9-3.1,2.9c-1.5,0-2.4-0.5-3.1-1.4L61.3,645z"/>
	<path class="st5" d="M71.4,638.1c2.4,0,3.3,2.3,3.3,4.5c0,2.1-0.9,4.5-3.3,4.5s-3.3-2.4-3.3-4.5S69.1,638.1,71.4,638.1z
		 M71.4,639.1c-1.7,0-2.2,1.8-2.2,3.5s0.6,3.5,2.2,3.5s2.2-1.8,2.2-3.5S73.1,639.1,71.4,639.1z"/>
	<path class="st5" d="M82.5,640.5c1.1,0,1.8,0.5,2.3,1.1l-0.7,0.6c-0.4-0.6-0.9-0.8-1.6-0.8c-1.3,0-2.2,1-2.2,2.4s0.8,2.4,2.2,2.4
		c0.7,0,1.2-0.3,1.6-0.8l0.7,0.6c-0.5,0.6-1.2,1.1-2.3,1.1c-1.9,0-3.1-1.4-3.1-3.3S80.6,640.5,82.5,640.5z"/>
	<path class="st5" d="M85.8,643.8c0-1.8,1.2-3.3,3.1-3.3s3.1,1.5,3.1,3.3s-1.2,3.3-3.1,3.3S85.8,645.6,85.8,643.8z M91,643.8
		c0-1.3-0.7-2.4-2.1-2.4c-1.3,0-2.1,1.1-2.1,2.4c0,1.3,0.8,2.4,2.1,2.4C90.3,646.2,91,645.1,91,643.8z"/>
	<path class="st5" d="M101.2,642.7c0-0.8-0.3-1.3-1.2-1.3c-0.7,0-1.3,0.5-1.7,1v4.6h-1v-4.3c0-0.8-0.3-1.3-1.2-1.3
		c-0.6,0-1.3,0.5-1.7,1v4.6h-1v-6.3h1v0.9c0.3-0.4,1.1-1.1,2-1.1c1,0,1.5,0.5,1.7,1.2c0.3-0.6,1.2-1.2,2.1-1.2
		c1.1,0,1.8,0.6,1.8,1.9v4.5h-1C101.2,646.9,101.2,642.7,101.2,642.7z"/>
	<path class="st5" d="M111.7,642.7c0-0.8-0.3-1.3-1.2-1.3c-0.7,0-1.3,0.5-1.7,1v4.6h-1v-4.3c0-0.8-0.3-1.3-1.2-1.3
		c-0.6,0-1.3,0.5-1.7,1v4.6h-1v-6.3h1v0.9c0.3-0.4,1.1-1.1,2-1.1c1,0,1.5,0.5,1.7,1.2c0.3-0.6,1.2-1.2,2.1-1.2
		c1.1,0,1.8,0.6,1.8,1.9v4.5h-1L111.7,642.7L111.7,642.7z"/>
	<path class="st5" d="M117.3,640.5c1.9,0,3,1.5,3,3.4v0.2h-5.1c0.1,1.2,0.9,2.2,2.3,2.2c0.7,0,1.4-0.3,1.9-0.8l0.5,0.6
		c-0.6,0.6-1.5,1-2.5,1c-1.9,0-3.2-1.3-3.2-3.3C114.3,642,115.6,640.5,117.3,640.5z M115.3,643.4h4.1c0-0.9-0.6-2.1-2.1-2.1
		C116,641.3,115.3,642.4,115.3,643.4z"/>
	<path class="st5" d="M126.2,642.8c0-1.1-0.6-1.5-1.4-1.5s-1.5,0.5-1.9,1v4.6h-1v-6.3h1v0.9c0.4-0.5,1.3-1.1,2.2-1.1
		c1.3,0,2,0.7,2,2v4.4h-1C126.2,646.9,126.2,642.8,126.2,642.8z"/>
	<path class="st5" d="M129.3,645.6v-4.1h-1v-0.9h1v-1.7h1v1.7h1.3v0.9h-1.3v3.9c0,0.5,0.2,0.8,0.6,0.8c0.3,0,0.5-0.1,0.7-0.3
		l0.3,0.7c-0.2,0.2-0.6,0.4-1.2,0.4C129.8,647.1,129.3,646.5,129.3,645.6z"/>
	<path class="st5" d="M132.9,645.4c0.4,0.5,1.2,0.9,2.1,0.9c1,0,1.5-0.4,1.5-1c0-0.7-0.8-0.9-1.6-1.1c-1.1-0.2-2.3-0.5-2.3-1.8
		c0-1,0.8-1.8,2.3-1.8c1.1,0,1.8,0.4,2.3,0.9l-0.5,0.7c-0.4-0.5-1.1-0.8-1.9-0.8c-0.9,0-1.4,0.4-1.4,1s0.7,0.8,1.5,1
		c1.1,0.2,2.4,0.6,2.4,2c0,1-0.8,1.9-2.5,1.9c-1,0-1.9-0.3-2.5-1L132.9,645.4z"/>
</g>
<circle class="st3" cx="105.9" cy="695.4" r="8"/>
<line class="st3" x1="115.9" y1="705.4" x2="111.6" y2="701"/>
<polygon class="st3" points="172.9,687.4 186.9,696.4 172.9,705.4 "/>
<path class="st3" d="M246.4,686.7l-3,4v14c0,1.1,0.9,2,2,2h14c1.1,0,2-0.9,2-2v-14l-3-4H246.4z"/>
<line class="st3" x1="243.4" y1="690.7" x2="261.4" y2="690.7"/>
<path class="st3" d="M256.4,694.7c0,2.2-1.8,4-4,4s-4-1.8-4-4"/>
<path class="st6" d="M25.3,692.4l9-7l9,7v11c0,1.1-0.9,2-2,2h-14c-1.1,0-2-0.9-2-2V692.4z"/>
<polyline class="st7" points="31.3,707 31.3,696 37.3,696 37.3,706.9 "/>
<line class="st8" x1="0" y1="673.5" x2="360" y2="674.3"/>
<circle class="st9" cx="325.3" cy="696.7" r="11"/>
<circle class="st10" cx="39.7" cy="88" r="27.5"/>
<circle class="st10" cx="121.1" cy="86.9" r="27.5"/>
<circle class="st10" cx="204.2" cy="86.9" r="27.5"/>
<circle class="st10" cx="285.9" cy="87.5" r="27.5"/>
<g>
	<path d="M17.9,130.5l-2.9-4.2h1.1l2.3,3.4l2.3-3.4h1.1l-2.9,4.2v3.1H18L17.9,130.5L17.9,130.5z"/>
	<path d="M20.9,131c0-1.5,1-2.8,2.6-2.8s2.6,1.2,2.6,2.8s-1,2.8-2.6,2.8S20.9,132.5,20.9,131z M25.3,131c0-1.1-0.6-2.1-1.8-2.1
		s-1.8,1-1.8,2.1s0.6,2.1,1.8,2.1S25.3,132.1,25.3,131z"/>
	<path d="M31.1,132.9c-0.4,0.5-1.1,0.9-1.9,0.9c-1.1,0-1.7-0.5-1.7-1.7v-3.8h0.8v3.5c0,0.9,0.5,1.2,1.2,1.2c0.6,0,1.3-0.4,1.6-0.8
		v-3.9H32v5.3h-0.8L31.1,132.9L31.1,132.9z"/>
	<path d="M33.6,128.3h0.8v0.9c0.4-0.6,1-1,1.8-1v0.9c-0.1,0-0.2,0-0.3,0c-0.5,0-1.2,0.4-1.4,0.9v3.8h-0.8L33.6,128.3L33.6,128.3z"/>
	<path d="M40,132.3c0.3,0.4,1,0.8,1.8,0.8s1.2-0.4,1.2-0.9c0-0.6-0.7-0.8-1.4-0.9c-0.9-0.2-1.9-0.4-1.9-1.6c0-0.8,0.7-1.5,2-1.5
		c0.9,0,1.5,0.3,2,0.8l-0.4,0.6c-0.3-0.4-0.9-0.7-1.6-0.7c-0.7,0-1.2,0.3-1.2,0.8s0.6,0.7,1.3,0.9c0.9,0.2,2,0.5,2,1.6
		c0,0.9-0.7,1.6-2.1,1.6c-0.9,0-1.6-0.3-2.2-0.8L40,132.3z"/>
	<path d="M45.3,132.5V129h-0.9v-0.7h0.9v-1.4h0.8v1.4h1.1v0.7h-1.1v3.3c0,0.4,0.2,0.7,0.5,0.7c0.2,0,0.5-0.1,0.6-0.2l0.2,0.6
		c-0.2,0.2-0.5,0.3-1,0.3C45.7,133.8,45.3,133.3,45.3,132.5z"/>
	<path d="M48.1,131c0-1.5,1-2.8,2.6-2.8s2.6,1.2,2.6,2.8s-1,2.8-2.6,2.8S48.1,132.5,48.1,131z M52.5,131c0-1.1-0.6-2.1-1.8-2.1
		s-1.8,1-1.8,2.1s0.6,2.1,1.8,2.1S52.5,132.1,52.5,131z"/>
	<path d="M54.7,128.3h0.8v0.9c0.4-0.6,1-1,1.8-1v0.9c-0.1,0-0.2,0-0.3,0c-0.5,0-1.2,0.4-1.4,0.9v3.8h-0.8L54.7,128.3L54.7,128.3z"/>
	<path d="M58.6,135.1c0.4,0,0.6-0.1,0.8-0.6l0.3-0.8l-2.2-5.4h0.9l1.8,4.4l1.8-4.4h0.9l-2.7,6.4c-0.3,0.8-0.9,1.1-1.6,1.1
		c-0.2,0-0.5,0-0.6-0.1l0.1-0.8C58.3,135,58.5,135.1,58.6,135.1z"/>
</g>
<g>
	<path d="M115.2,132.9c-0.4,0.5-1.1,0.9-1.9,0.9c-1.1,0-1.7-0.5-1.7-1.7v-3.8h0.8v3.5c0,0.9,0.5,1.2,1.2,1.2s1.3-0.4,1.6-0.8v-3.9
		h0.8v5.3h-0.8V132.9L115.2,132.9z"/>
	<path d="M117.7,132.3c0.3,0.4,1,0.8,1.8,0.8s1.2-0.4,1.2-0.9c0-0.6-0.7-0.8-1.4-0.9c-0.9-0.2-1.9-0.4-1.9-1.6c0-0.8,0.7-1.5,2-1.5
		c0.9,0,1.5,0.3,2,0.8l-0.4,0.6c-0.3-0.4-0.9-0.7-1.6-0.7s-1.2,0.3-1.2,0.8s0.6,0.7,1.3,0.9c0.9,0.2,2,0.5,2,1.6
		c0,0.9-0.7,1.6-2.1,1.6c-0.9,0-1.6-0.3-2.2-0.8L117.7,132.3z"/>
	<path d="M125.1,128.2c1.6,0,2.6,1.2,2.6,2.9v0.2h-4.3c0.1,1,0.8,1.8,1.9,1.8c0.6,0,1.2-0.2,1.6-0.7l0.4,0.5
		c-0.5,0.5-1.2,0.8-2.1,0.8c-1.6,0-2.7-1.1-2.7-2.8C122.5,129.4,123.6,128.2,125.1,128.2z M123.4,130.6h3.5c0-0.8-0.5-1.8-1.8-1.8
		C124,128.9,123.4,129.8,123.4,130.6z"/>
	<path d="M129,128.3h0.8v0.9c0.4-0.6,1-1,1.8-1v0.9c-0.1,0-0.2,0-0.3,0c-0.5,0-1.2,0.4-1.4,0.9v3.8H129V128.3z"/>
</g>
<g>
	<path d="M197.7,133c-0.4,0.5-1.1,0.9-1.9,0.9c-1.1,0-1.7-0.5-1.7-1.7v-3.8h0.8v3.5c0,0.9,0.5,1.2,1.2,1.2c0.6,0,1.3-0.4,1.6-0.8
		v-3.9h0.8v5.3h-0.8L197.7,133L197.7,133z"/>
	<path d="M200.1,132.5c0.4,0.4,1,0.8,1.8,0.8s1.2-0.4,1.2-0.9c0-0.6-0.6-0.8-1.4-0.9c-0.9-0.2-1.9-0.4-1.9-1.6c0-0.8,0.7-1.5,2-1.5
		c0.9,0,1.5,0.3,2,0.8l-0.4,0.6c-0.3-0.4-0.9-0.7-1.6-0.7c-0.7,0-1.2,0.3-1.2,0.8s0.6,0.7,1.3,0.9c0.9,0.2,2,0.5,2,1.6
		c0,0.9-0.7,1.6-2.1,1.6c-0.9,0-1.6-0.3-2.1-0.8L200.1,132.5z"/>
	<path d="M207.6,128.3c1.6,0,2.6,1.2,2.6,2.9v0.2h-4.3c0.1,1,0.8,1.8,1.9,1.8c0.6,0,1.2-0.2,1.6-0.7l0.4,0.5
		c-0.5,0.5-1.2,0.8-2.1,0.8c-1.6,0-2.7-1.1-2.7-2.8C205,129.6,206.1,128.3,207.6,128.3z M205.9,130.8h3.5c0-0.8-0.5-1.8-1.8-1.8
		C206.5,129,205.9,130,205.9,130.8z"/>
	<path d="M211.5,128.5h0.8v0.9c0.4-0.6,1-1,1.8-1v0.9c-0.1,0-0.2,0-0.3,0c-0.5,0-1.2,0.4-1.4,0.9v3.8h-0.8v-5.5H211.5z"/>
</g>
<g>
	<path d="M279.9,132.9c-0.4,0.5-1.1,0.9-1.9,0.9c-1.1,0-1.7-0.5-1.7-1.7v-3.8h0.8v3.5c0,0.9,0.5,1.2,1.2,1.2c0.6,0,1.3-0.4,1.6-0.8
		v-3.9h0.8v5.3h-0.8V132.9L279.9,132.9z"/>
	<path d="M282.4,132.3c0.4,0.4,1,0.8,1.8,0.8s1.2-0.4,1.2-0.9c0-0.6-0.6-0.8-1.4-0.9c-0.9-0.2-1.9-0.4-1.9-1.6c0-0.8,0.7-1.5,2-1.5
		c0.9,0,1.5,0.3,2,0.8l-0.4,0.6c-0.3-0.4-0.9-0.7-1.6-0.7s-1.2,0.3-1.2,0.8s0.6,0.7,1.3,0.9c0.9,0.2,2,0.5,2,1.6
		c0,0.9-0.7,1.6-2.1,1.6c-0.9,0-1.6-0.3-2.1-0.8L282.4,132.3z"/>
	<path d="M289.8,128.2c1.6,0,2.5,1.2,2.5,2.9v0.2H288c0.1,1,0.8,1.8,1.9,1.8c0.6,0,1.2-0.2,1.6-0.7l0.4,0.5
		c-0.5,0.5-1.2,0.8-2.1,0.8c-1.6,0-2.7-1.1-2.7-2.8C287.2,129.4,288.3,128.2,289.8,128.2z M288.1,130.6h3.5c0-0.8-0.5-1.8-1.8-1.8
		C288.7,128.9,288.1,129.8,288.1,130.6z"/>
	<path d="M293.7,128.3h0.8v0.9c0.4-0.6,1-1,1.8-1v0.9c-0.1,0-0.2,0-0.3,0c-0.5,0-1.2,0.4-1.4,0.9v3.8h-0.8v-5.5H293.7z"/>
</g>
<g>
	<path d="M356.4,132.9c-0.4,0.5-1.1,0.9-1.9,0.9c-1.1,0-1.7-0.5-1.7-1.7v-3.8h0.8v3.5c0,0.9,0.5,1.2,1.2,1.2c0.6,0,1.3-0.4,1.6-0.8
		v-3.9h0.8v5.3h-0.8V132.9L356.4,132.9z"/>
	<path d="M358.8,132.3c0.4,0.4,1,0.8,1.8,0.8s1.2-0.4,1.2-0.9c0-0.6-0.6-0.8-1.4-0.9c-0.9-0.2-1.9-0.4-1.9-1.6c0-0.8,0.7-1.5,2-1.5
		c0.9,0,1.5,0.3,2,0.8l-0.4,0.6c-0.3-0.4-0.9-0.7-1.6-0.7s-1.2,0.3-1.2,0.8s0.6,0.7,1.3,0.9c0.9,0.2,2,0.5,2,1.6
		c0,0.9-0.7,1.6-2.1,1.6c-0.9,0-1.6-0.3-2.1-0.8L358.8,132.3z"/>
</g>
<circle class="st11" cx="57.7" cy="106.8" r="8.6"/>
<line class="st3" x1="57.7" y1="103.4" x2="57.7" y2="110.2"/>
<line class="st3" x1="54.3" y1="106.8" x2="61.2" y2="106.8"/>
<line class="st8" x1="0" y1="141.8" x2="360" y2="142.5"/>
<path class="st10" d="M359.7,62.1"/>
<path class="st10" d="M359.7,62.1C360,62,359.4,62.2,359.7,62.1"/>
<path class="st10" d="M359.7,114.7c-11.3-3.4-19.5-13.9-19.5-26.3s8.2-22.9,19.5-26.3"/>
<path class="st10" d="M359.5,114.7c-0.3-0.1,0.6,0.2,0.2,0"/>
<path class="st10" d="M359.7,114.7c-0.1,0-0.1,0-0.2-0.1"/>
<path class="st10" d="M359.9,114.7c0,0-0.1,0-0.2,0"/>
<path class="st10" d="M359.9,114.7"/>
<path class="st10" d="M389.8,72"/>
<path class="st10" d="M370.5,61"/>
<line class="st3" x1="202.2" y1="23.4" x2="202.2" y2="30.1"/>
<line class="st3" x1="195.5" y1="23.4" x2="195.5" y2="30.1"/>
<line class="st3" x1="198.9" y1="25.1" x2="198.9" y2="31.8"/>
<path class="st3" d="M205.5,26.4c2.1-0.9,3.1-3.4,2.1-5.5c-0.7-1.5-2.2-2.5-3.8-2.5h-1.1c-0.9-3.6-4.6-5.7-8.1-4.8s-5.7,4.6-4.8,8.1
	c0.4,1.4,1.2,2.6,2.3,3.5"/>
<g>
	<path d="M23.8,11.6c0,0,0,0.1-0.1,0.2c0,0.1,0,0.2,0,0.4c0,0.3,0,0.6,0.1,0.8v10.3c0,1-0.1,2.1-0.3,3c-0.2,1-0.6,1.8-1.1,2.6
		c-0.5,0.8-1.2,1.4-2.1,1.8s-2,0.7-3.4,0.7h-0.4c-1.2,0-2.1-0.2-2.9-0.5c-0.7-0.3-1.3-0.7-1.7-1.2s-0.7-1-0.8-1.6s-0.2-1.1-0.2-1.7
		c0-0.5,0.1-0.9,0.2-1.3c0.1-0.4,0.3-0.8,0.5-1.1c0.2-0.3,0.5-0.6,0.8-0.8s0.7-0.3,1.1-0.3c0.4,0,0.6,0.1,0.7,0.3
		c0.1,0.2,0.1,0.4,0.1,0.6c0,0.5-0.1,0.8-0.3,1.1s-0.4,0.6-0.6,0.8c-0.2,0.2-0.4,0.5-0.6,0.7c-0.2,0.2-0.3,0.5-0.3,0.8
		c0,1,0.3,1.7,1,2.1C14.2,29.8,15,30,16,30c0.9,0,1.6-0.2,2.3-0.5s1.2-0.8,1.6-1.3s0.7-1.1,1-1.8c0.2-0.6,0.3-1.2,0.3-1.8h-0.5
		c-0.7,0-1.4-0.2-1.9-0.5s-1-0.8-1.4-1.3s-0.6-1.1-0.8-1.7s-0.3-1.2-0.3-1.7v-1.1c0-0.4,0-0.9,0.2-1.4c0.1-0.5,0.2-1.1,0.4-1.6
		c0.2-0.6,0.4-1.1,0.7-1.7c0.3-0.6,0.6-1,0.9-1.5s0.6-0.8,1-1.1s0.7-0.4,1.1-0.4c0.1,0,0.3,0,0.5,0.1l2.2,0.2c0.1,0,0.3,0.1,0.4,0.1
		C23.8,11.3,23.8,11.4,23.8,11.6z M21.1,15.3c0-0.2,0.1-0.3,0.1-0.5c0-0.1,0.1-0.3,0.1-0.5c0-0.3-0.1-0.5-0.2-0.7s-0.4-0.3-0.7-0.3
		c-0.5,0-0.8,0.2-1.1,0.6c-0.3,0.4-0.5,0.8-0.7,1.3c-0.1,0.5-0.3,1.1-0.3,1.6s-0.1,1-0.1,1.4c0,0.3,0,0.7,0.1,1.2
		c0,0.5,0.1,1,0.3,1.5c0.2,0.5,0.4,0.9,0.6,1.3c0.3,0.4,0.7,0.6,1.1,0.6c0,0,0.2,0,0.4,0s0.4,0,0.5-0.1L21.1,15.3L21.1,15.3z"/>
	<path d="M30.9,23.4c-0.3,0.4-0.6,0.9-0.8,1.4s-0.4,1.1-0.5,1.6s-0.3,1.1-0.4,1.7s-0.2,1.1-0.3,1.6c0,0.1-0.2,0.2-0.5,0.2
		S27.9,30,27.8,30c-0.4,0-0.7,0-0.9-0.1c-0.2,0-0.4-0.1-0.5-0.3c-0.1-0.1-0.2-0.4-0.3-0.7c-0.1-0.3-0.1-0.8-0.2-1.3l0.4-9.2
		c0-0.3,0.1-0.4,0.4-0.4c0.1,0,0.2,0,0.4,0c0.2,0,0.4,0.1,0.6,0.1c0.2,0.1,0.4,0.1,0.5,0.2s0.2,0.2,0.2,0.3v6.3c0,0,0-0.1,0.1-0.2
		c0.1-0.4,0.3-0.8,0.5-1.4c0.2-0.5,0.4-1.1,0.7-1.6s0.5-0.9,0.8-1.3s0.6-0.5,0.9-0.5c0.4,0,0.7,0.1,0.9,0.3c0.2,0.2,0.3,0.4,0.5,0.7
		c0.1,0.3,0.2,0.6,0.2,0.9s0,0.6,0,0.9c0,0.2,0,0.5-0.1,1c0,0.5-0.1,1.2-0.1,2.1c0,0.5,0,1,0.2,1.5c0.1,0.4,0.3,0.6,0.6,0.6
		c0.2,0,0.4-0.1,0.6-0.3s0.4-0.5,0.5-0.8c0.2-0.3,0.3-0.6,0.4-1c0.1-0.4,0.2-0.7,0.2-1c0-0.4,0.2-0.6,0.5-0.6c0.2,0,0.3,0.1,0.4,0.2
		s0.1,0.3,0.1,0.4v0.1c0,0.4-0.1,0.9-0.2,1.4s-0.3,1-0.6,1.5s-0.6,0.8-1,1.1c-0.4,0.3-0.9,0.5-1.5,0.5c-0.9,0-1.5-0.3-1.8-1
		s-0.4-1.7-0.4-3L30.9,23.4z"/>
	<path d="M43,28.2c0,0.5-0.2,0.9-0.5,1.1s-0.7,0.5-1.1,0.6c-0.4,0.1-0.8,0.2-1.3,0.2c-0.4,0-0.7,0-0.9,0c-0.3,0-0.7,0-1.1-0.1
		s-0.8-0.2-1.2-0.3c-0.4-0.1-0.7-0.3-1-0.6s-0.4-0.6-0.4-0.9c0-0.2,0.1-0.4,0.3-0.5s0.3-0.1,0.5-0.1s0.5,0.1,0.7,0.2
		c0.2,0.2,0.4,0.3,0.7,0.5s0.5,0.4,0.8,0.5s0.6,0.2,1,0.2c0.2,0,0.4-0.1,0.7-0.2s0.4-0.3,0.4-0.6s-0.1-0.6-0.4-0.8s-0.5-0.5-0.9-0.8
		S38.4,26.3,38,26s-0.8-0.6-1.2-1s-0.7-0.8-0.9-1.2s-0.4-0.9-0.4-1.4c0-0.7,0.2-1.3,0.7-1.8s1-0.9,1.6-1.2s1.3-0.5,1.9-0.6
		s1.2-0.2,1.5-0.2s0.7,0.1,1,0.2s0.5,0.4,0.5,0.8c0,0.1,0,0.3-0.1,0.5c0,0.2-0.1,0.5-0.2,0.7c-0.1,0.2-0.3,0.4-0.5,0.6
		s-0.4,0.3-0.7,0.3c-0.1,0-0.2,0-0.2-0.1s-0.2-0.1-0.3-0.2s-0.2-0.2-0.3-0.2c0.1-0.2,0-0.2-0.1-0.2c-0.7,0-1.2,0.2-1.5,0.6
		s-0.4,0.9-0.4,1.4c0,0.4,0.2,0.9,0.7,1.3c0.5,0.5,1,0.9,1.6,1.4s1.1,0.9,1.6,1.4C42.8,27.4,43,27.8,43,28.2z"/>
	<path d="M43.7,24.5c0-1,0-2.1,0.1-3.2c0-1.1,0.1-2.1,0.1-3c0-0.2-0.2-0.3-0.5-0.3s-0.7-0.1-1.1-0.2c-0.4-0.1-0.8-0.2-1.1-0.3
		s-0.5-0.4-0.5-0.7c0-0.3,0.3-0.4,0.8-0.5c0.5,0,1.3-0.1,2.4-0.1c0.1,0,0.1-0.1,0.2-0.4c0-0.2,0-0.6,0.1-0.9c0-0.4,0-0.8,0-1.2
		s0-0.8,0-1.2s0.1-0.7,0.1-0.9s0.1-0.4,0.2-0.4c0.1,0,0.3,0,0.6,0.1s0.5,0.1,0.8,0.2s0.5,0.2,0.8,0.3c0.2,0.1,0.3,0.2,0.3,0.3
		l-0.3,4c0,0.1,0.1,0.2,0.3,0.3c0.2,0,0.5,0.1,0.8,0.1s0.7,0,1.1,0s0.7,0,1.1,0.1s0.6,0.2,0.8,0.3c0.2,0.1,0.3,0.3,0.3,0.6
		c0,0,0,0.1-0.1,0.2s-0.1,0.1-0.2,0.1c0,0-0.1,0-0.2-0.1s-0.3-0.1-0.6-0.1c-0.1,0-0.3,0-0.7,0s-0.8,0-1.2,0.1s-0.8,0.1-1.1,0.1
		s-0.5,0.1-0.6,0.2c0,0,0,0.3-0.1,0.7c0,0.4-0.1,1-0.1,1.8s-0.1,1.6-0.1,2.5s0,1.9,0,3c0,0.4,0,0.8,0.1,1.1c0,0.4,0.1,0.7,0.2,1
		c0.1,0.3,0.2,0.5,0.3,0.7s0.3,0.3,0.5,0.3c0.3,0,0.5-0.1,0.7-0.3c0.2-0.2,0.4-0.5,0.6-0.9s0.3-0.8,0.5-1.3c0.1-0.5,0.3-1,0.4-1.5
		c0.1-0.3,0.1-0.5,0.2-0.7c0.1-0.1,0.2-0.2,0.4-0.2c0.1,0,0.3,0,0.4,0.1c0.1,0.1,0.2,0.3,0.2,0.6c0,0.2,0,0.3,0,0.4
		c-0.1,0.4-0.2,0.9-0.4,1.5s-0.4,1.3-0.7,1.9s-0.7,1.2-1.1,1.7s-0.9,0.7-1.5,0.7s-1-0.2-1.5-0.5c-0.4-0.3-0.8-0.8-1-1.3
		c-0.3-0.6-0.5-1.2-0.6-2c-0.2-0.8-0.2-1.6-0.2-2.5C43.7,24.8,43.7,24.5,43.7,24.5z"/>
	<path d="M62.1,26.8c0,0.3-0.2,0.6-0.3,1c-0.2,0.4-0.4,0.8-0.6,1.1c-0.3,0.4-0.6,0.7-0.9,0.9s-0.7,0.4-1.1,0.4
		c-0.6,0-1.2-0.2-1.6-0.7c-0.5-0.5-0.8-1.1-0.8-2c-0.1,0.3-0.3,0.7-0.4,1.1c-0.2,0.4-0.4,0.8-0.6,1.2s-0.5,0.7-0.8,1
		s-0.7,0.4-1.1,0.4c-0.1,0-0.2,0-0.3,0s-0.1,0-0.2-0.1S52.9,31,52.8,31s-0.2,0-0.4,0c-0.5,0-0.9-0.2-1.3-0.5
		c-0.3-0.3-0.6-0.7-0.8-1.2s-0.4-1-0.5-1.6s-0.1-1.1-0.1-1.7c0-1.2,0.1-2.4,0.2-3.5c0.1-1.1,0.4-2.1,0.7-3s0.7-1.5,1.2-2
		s1.1-0.8,1.8-0.8c0.4,0,0.7,0,1,0.1s0.4,0.1,0.6,0.2c0.2,0.1,0.4,0.2,0.6,0.3c0.2,0.1,0.5,0.2,0.9,0.2c0.4,0.2,0.7,0.5,0.9,0.9
		c0.2,0.3,0.3,0.7,0.3,1.1s0.1,0.8,0,1.2s0,0.8,0.1,1.3c0,0,0,0,0.1,0.1s0.2,0.1,0.3,0.1s0.2,0.1,0.3,0.2s0.1,0.2,0.1,0.4V23
		c-0.2,0.5-0.3,1-0.4,1.4c0,0.4-0.1,0.9-0.1,1.5c0,0.3,0,0.6,0,1c0,0.3,0.1,0.7,0.2,1c0.1,0.3,0.2,0.5,0.3,0.7s0.3,0.3,0.6,0.3
		c0.2,0,0.5-0.1,0.7-0.4c0.2-0.2,0.4-0.5,0.5-0.9c0.1-0.3,0.2-0.6,0.3-1s0.2-0.6,0.2-0.7c0-0.2,0.1-0.4,0.3-0.4
		c0.1,0,0.2,0.1,0.3,0.2s0.1,0.3,0.1,0.6c0,0.1,0,0.2,0,0.2C62.1,26.6,62.1,26.7,62.1,26.8z M56.3,21.8c0-0.2,0-0.5-0.1-0.8
		s-0.1-0.6-0.2-0.9c-0.1-0.3-0.3-0.5-0.5-0.7s-0.5-0.3-0.8-0.3c-0.6,0-1,0.3-1.4,0.8s-0.7,1.1-0.8,1.9c-0.2,0.7-0.3,1.5-0.4,2.2
		C52,24.7,52,25.3,52,25.8c0,0.3,0,0.7,0,1.2s0.1,0.9,0.2,1.3c0.1,0.4,0.2,0.8,0.4,1c0.2,0.3,0.4,0.4,0.6,0.4c0.6,0,1.1-0.2,1.4-0.7
		c0.3-0.5,0.6-1,0.7-1.7c0.2-0.7,0.3-1.4,0.4-2.2c0.1-0.8,0.1-1.5,0.2-2.2c0-0.4,0.1-0.6,0.3-0.7c0.1-0.1,0.2-0.2,0.2-0.2L56.3,21.8
		L56.3,21.8z"/>
	<path d="M71.4,31c0,0.2-0.1,0.4-0.3,0.4s-0.4,0.1-0.5,0.1H70c-0.1,0-0.2,0.1-0.2,0.2v0.4c0,0.6,0,1.3,0,2.1s0,1.7,0,2.5
		s0,1.6-0.1,2.4c-0.1,0.8-0.2,1.5-0.4,2.1s-0.4,1.1-0.8,1.5c-0.3,0.4-0.8,0.6-1.4,0.6c-0.5,0-1.1,0-1.6-0.1c-0.6,0-1.1-0.2-1.6-0.4
		s-0.8-0.5-1.2-0.9c-0.3-0.4-0.5-1-0.5-1.6s0.1-1.4,0.2-2.1c0.2-0.7,0.4-1.4,0.7-2.1s0.6-1.3,1-1.9c0.4-0.6,0.8-1.2,1.3-1.6
		c0.2-0.2,0.5-0.5,0.8-0.8s0.6-0.5,0.8-0.6l0,0c0-0.4,0.1-0.9,0.1-1.3s0-0.9,0-1.3c-0.1,0.2-0.2,0.4-0.4,0.8
		c-0.2,0.3-0.3,0.6-0.5,0.9s-0.4,0.5-0.7,0.8s-0.5,0.3-0.8,0.3c-0.2,0-0.3,0-0.4-0.1s-0.3-0.1-0.5-0.1c-0.6,0-1.1-0.2-1.5-0.5
		s-0.7-0.6-0.9-1.1s-0.4-1-0.5-1.7s-0.1-1.4-0.1-2.2c0-1,0.1-2,0.2-3c0.1-1,0.3-2,0.6-2.8s0.7-1.6,1.2-2.1s1.1-0.8,1.9-0.8
		c0.1,0,0.2,0,0.3,0.1c0.1,0.1,0.3,0.1,0.4,0.2c0.2,0.1,0.3,0.1,0.5,0.2s0.3,0.1,0.4,0.1c0.4,0.1,0.8,0.2,1.2,0.3
		c0.3,0.1,0.7,0.3,0.9,0.5c0.2,0.2,0.4,0.5,0.6,0.8s0.2,0.7,0.2,1.2c0,0.3,0,0.6-0.1,0.9s-0.1,0.6-0.1,1c0,0.2,0.1,0.3,0.2,0.3
		s0.2,0.1,0.4,0.1c0.2,0,0.3,0.1,0.4,0.1s0.2,0.2,0.2,0.3c0,0-0.1,0.1-0.1,0.3c-0.1,0.1-0.2,0.2-0.2,0.3c-0.1,0.2-0.1,0.4-0.2,0.8
		s-0.1,0.8-0.1,1.2c0,0.4,0,0.9-0.1,1.3c0,0.4,0,0.8,0,1.2c0,0.3,0,0.6,0,1.1s0,0.8,0,1.1H70h0.1h0.1c0.2,0,0.4,0.1,0.8,0.2
		C71.3,30.6,71.4,30.7,71.4,31z M67.5,21.4c0-0.2,0-0.5-0.1-0.8s-0.1-0.6-0.2-0.8c-0.1-0.3-0.2-0.5-0.4-0.6
		c-0.2-0.2-0.4-0.3-0.7-0.3c-0.4,0-0.8,0.2-1.1,0.5s-0.7,0.8-0.9,1.3c-0.3,0.6-0.5,1.3-0.6,2.1c-0.2,0.8-0.2,1.7-0.2,2.8
		c0,0.4,0,0.9,0,1.4s0.1,0.9,0.2,1.3c0.1,0.4,0.2,0.7,0.3,0.9s0.4,0.4,0.6,0.4c0.4,0,0.8-0.2,1.2-0.6c0.3-0.4,0.6-0.8,0.8-1.4
		s0.4-1.1,0.5-1.7s0.2-1.1,0.2-1.5c0-0.6,0.1-1,0.1-1.2s0.1-0.4,0.1-0.4c0.1-0.2,0.2-0.4,0.2-0.6C67.5,21.8,67.5,21.6,67.5,21.4z
		 M67.4,32.1c-0.5,0.3-0.9,0.8-1.4,1.4c-0.4,0.6-0.8,1.2-1.1,2s-0.6,1.4-0.7,2.1c-0.2,0.7-0.3,1.4-0.3,2c0,0.2,0,0.4,0.1,0.7
		c0.1,0.3,0.1,0.5,0.2,0.7s0.2,0.4,0.4,0.5s0.4,0.2,0.6,0.2c0.4,0,0.8-0.2,1.1-0.5s0.5-0.8,0.7-1.3s0.3-1,0.3-1.5s0.1-0.9,0.1-1.2
		c0-0.1,0-0.2,0-0.3s0-0.4,0-0.7s0-0.8,0-1.5S67.4,33.2,67.4,32.1z"/>
	<path d="M80.7,25.8c0,0.1-0.1,0.5-0.1,1c-0.1,0.5-0.3,1.1-0.5,1.7s-0.6,1.1-1,1.6s-0.9,0.7-1.5,0.7c-0.7,0-1.2-0.2-1.6-0.7
		s-0.7-1-0.9-1.7s-0.3-1.3-0.4-2s-0.1-1.3-0.1-1.8s0-1.1,0.1-1.6s0.1-1.1,0.1-1.6c0-0.2-0.1-0.3-0.2-0.3c-0.2,0-0.3-0.1-0.5-0.1
		s-0.4,0-0.5,0.1s-0.1,0.1-0.1,0.2l-0.1,1c-0.1,0.7-0.2,1.3-0.3,1.9c-0.1,0.6-0.2,1.1-0.3,1.6c-0.1,0.5-0.2,0.8-0.4,1.1
		c-0.2,0.3-0.3,0.4-0.5,0.4l0,0c-0.1,0-0.2,0-0.2-0.1c-0.1,0-0.1-0.1-0.1-0.3c0-0.1,0-0.2,0.1-0.4c0.2-0.7,0.3-1.3,0.3-1.8
		s0-0.7,0-1.1v-0.2c0-0.1,0-0.2,0-0.4c0-0.1,0-0.3,0-0.5v-0.8c0-0.2,0-0.5,0-0.7s0-0.5-0.1-0.8l-0.1-1.8c0-0.1,0.1-0.2,0.2-0.3
		c0.1-0.1,0.2-0.2,0.4-0.3c0.2-0.1,0.3-0.1,0.5-0.2c0.2,0,0.3-0.1,0.5-0.1c0.3,0,0.5,0.2,0.5,0.7v0.2V19v0.2c0,0.1,0,0.2,0.1,0.3
		s0.2,0.1,0.4,0.1h0.1c0.2,0,0.4,0,0.8,0.1c0.4,0,0.7,0.1,1.1,0.1s0.7,0.2,1,0.3c0.3,0.1,0.4,0.3,0.4,0.6c0,0.1,0,0.2-0.1,0.4
		c0,0.1-0.1,0.3-0.2,0.5s-0.1,0.3-0.2,0.4s-0.1,0.2-0.1,0.2c-0.4,1.4-0.6,2.9-0.6,4.5c0,0.1,0,0.4,0,0.7s0.1,0.7,0.1,1
		c0.1,0.4,0.2,0.7,0.3,0.9s0.3,0.4,0.5,0.4c0.3,0,0.6-0.2,0.8-0.6s0.5-0.8,0.6-1.3s0.3-1,0.4-1.5s0.2-0.9,0.2-1.1s0.1-0.4,0.2-0.4
		s0.2-0.1,0.3-0.1c0.3,0,0.4,0.2,0.4,0.6c0,0,0,0.1,0,0.3C80.7,25.6,80.7,25.7,80.7,25.8z"/>
	<path d="M92.1,26.8c0,0.3-0.2,0.6-0.3,1c-0.2,0.4-0.4,0.8-0.6,1.1c-0.3,0.4-0.6,0.7-0.9,0.9s-0.7,0.4-1.1,0.4
		c-0.6,0-1.2-0.2-1.6-0.7c-0.5-0.5-0.8-1.1-0.8-2c-0.1,0.3-0.3,0.7-0.4,1.1c-0.2,0.4-0.4,0.8-0.6,1.2s-0.5,0.7-0.8,1
		s-0.7,0.4-1.1,0.4c-0.1,0-0.2,0-0.3,0s-0.1,0-0.2-0.1S83,31,82.9,31s-0.2,0-0.4,0c-0.5,0-0.9-0.2-1.3-0.5c-0.3-0.3-0.6-0.7-0.8-1.2
		c-0.2-0.5-0.4-1-0.4-1.6s-0.1-1.1-0.1-1.7c0-1.2,0.1-2.4,0.2-3.5s0.4-2.1,0.7-3s0.7-1.5,1.2-2s1.1-0.8,1.8-0.8c0.4,0,0.7,0,0.9,0.1
		c0.2,0.1,0.4,0.1,0.6,0.2s0.4,0.2,0.6,0.3c0.2,0.1,0.5,0.2,0.9,0.2c0.4,0.2,0.7,0.5,0.9,0.9c0.2,0.3,0.3,0.7,0.3,1.1
		c0.1,0.4,0.1,0.8,0.1,1.2s0,0.8,0.1,1.3c0,0,0.1,0,0.1,0.1s0.2,0.1,0.3,0.1c0.1,0,0.2,0.1,0.3,0.2c0.1,0.1,0.1,0.2,0.1,0.4V23
		c-0.2,0.5-0.3,1-0.4,1.4c0,0.4-0.1,0.9-0.1,1.5c0,0.3,0,0.6,0.1,1c0,0.3,0.1,0.7,0.2,1s0.2,0.5,0.3,0.7c0.1,0.2,0.3,0.3,0.6,0.3
		c0.2,0,0.5-0.1,0.7-0.4s0.4-0.5,0.5-0.9c0.1-0.3,0.2-0.6,0.3-1s0.2-0.6,0.2-0.7c0-0.2,0.1-0.4,0.3-0.4c0.1,0,0.2,0.1,0.3,0.2
		c0.1,0.1,0.1,0.3,0.1,0.6c0,0.1,0,0.2,0,0.2C92.1,26.6,92.1,26.7,92.1,26.8z M86.3,21.8c0-0.2,0-0.5-0.1-0.8s-0.1-0.6-0.2-0.9
		s-0.3-0.5-0.5-0.7s-0.5-0.3-0.8-0.3c-0.6,0-1.1,0.3-1.4,0.8s-0.7,1.1-0.8,1.9c-0.2,0.7-0.3,1.5-0.4,2.2S82,25.3,82,25.8
		c0,0.3,0,0.7,0.1,1.2c0,0.5,0.1,0.9,0.2,1.3s0.2,0.8,0.4,1c0.2,0.3,0.4,0.4,0.6,0.4c0.6,0,1.1-0.2,1.4-0.7s0.6-1,0.7-1.7
		c0.2-0.7,0.3-1.4,0.4-2.2c0.1-0.8,0.1-1.5,0.2-2.2c0-0.4,0.1-0.6,0.3-0.7c0.1-0.1,0.2-0.2,0.2-0.2L86.3,21.8L86.3,21.8z"/>
	<path d="M101.6,22.5c-0.3,0.6-0.6,1.1-0.8,1.8s-0.4,1.1-0.6,1.5c0,0.1-0.1,0.3-0.2,0.6s-0.2,0.7-0.3,1.1s-0.2,0.8-0.3,1.2
		c-0.1,0.4-0.1,0.7-0.1,1c0,0.1-0.1,0.2-0.3,0.3s-0.4,0.1-0.7,0.1c-0.5,0-0.8-0.1-1.1-0.2s-0.5-0.3-0.6-0.6
		c-0.1-0.3-0.2-0.6-0.2-1.1s-0.1-1-0.1-1.6v-2.3c0-0.2,0-0.3,0-0.5s-0.1-0.3-0.1-0.3c-0.1,0-0.2,0.3-0.4,0.8
		c-0.2,0.5-0.3,1.1-0.4,1.8s-0.2,1.5-0.4,2.2c-0.1,0.8-0.2,1.5-0.2,2.1c0,0.2-0.1,0.4-0.4,0.4c-0.2,0-0.5,0.1-0.8,0.1
		c-0.1,0-0.2,0-0.4,0c-0.2,0-0.4-0.1-0.6-0.1s-0.4-0.1-0.5-0.2c-0.2-0.1-0.3-0.2-0.3-0.3c-0.1-0.3-0.2-0.7-0.2-1.3s-0.1-1.6-0.1-2.9
		c0-0.8,0-1.6,0.1-2.7c0-1,0.1-2.2,0.1-3.6c0-0.2,0-0.4,0-0.7s0-0.5,0-0.5c0-0.2,0.1-0.3,0.2-0.3s0.2,0,0.3,0c0.1,0,0.3,0,0.5,0
		s0.4,0.1,0.6,0.1s0.4,0.1,0.5,0.1c0.2,0,0.3,0.1,0.3,0.1v7.5c0.1-0.4,0.2-0.9,0.4-1.4c0.1-0.5,0.3-1.1,0.5-1.6s0.4-1,0.6-1.5
		s0.4-0.8,0.7-1c0.1-0.1,0.2-0.1,0.5-0.1c0.2,0,0.4,0,0.6,0c0.1,0,0.2,0,0.4,0c0.2,0,0.3,0.1,0.4,0.1s0.3,0.1,0.4,0.2
		s0.2,0.2,0.2,0.3v5v0.3c0,0.1,0,0.2,0.1,0.2s0.2-0.3,0.3-0.8c0.2-0.6,0.4-1.2,0.7-2c0.3-0.8,0.6-1.5,0.9-2.4s0.6-1.5,0.8-1.9
		c0-0.1,0.2-0.1,0.4-0.1s0.4,0,0.6,0c0.1,0,0.3,0,0.6,0.1c0.2,0.1,0.5,0.2,0.7,0.4c0.2,0.2,0.4,0.4,0.6,0.6s0.3,0.4,0.3,0.6
		c0,0-0.1,0.2-0.2,0.4s-0.2,0.4-0.2,0.6c-0.2,0.6-0.2,1.1-0.3,1.7c-0.1,0.6-0.1,1.3-0.1,2.1c0,0.4,0,0.7,0.1,1.1
		c0,0.4,0.1,0.7,0.2,1s0.2,0.5,0.3,0.7s0.3,0.3,0.5,0.3c0.3,0,0.6-0.1,0.8-0.3c0.2-0.2,0.4-0.5,0.6-0.8s0.3-0.7,0.4-1.2
		s0.2-0.9,0.3-1.4c0.1-0.5,0.3-0.7,0.6-0.7c0.2,0,0.3,0,0.3,0.1c0.1,0.1,0.1,0.3,0.1,0.6c0,0.2,0,0.3,0,0.3c0,0.3-0.1,0.7-0.3,1.3
		c-0.2,0.6-0.4,1.1-0.7,1.7c-0.3,0.6-0.6,1.1-1,1.5s-0.9,0.6-1.4,0.6c-0.6,0-1.2-0.1-1.6-0.5c-0.4-0.3-0.7-0.7-0.9-1.2
		c-0.2-0.5-0.4-1.1-0.5-1.8c-0.1-0.7-0.1-1.4-0.1-2.1v-0.2L101.6,22.5z"/>
</g>
<line class="st3" x1="341.3" y1="15.5" x2="329.9" y2="21.5"/>
<polygon class="st3" points="341.3,15.5 330.9,29.6 329.9,21.5 323.8,16.2 "/>
<path class="st4" d="M237.7,14.1H251c1.1,0,1.9,0.9,1.9,1.9v13.3c0,1-0.9,1.9-1.9,1.9h-13.3c-1.1,0-1.9-0.9-1.9-1.9V15.9
	C235.8,14.9,236.6,14.1,237.7,14.1z"/>
<line class="st3" x1="244.3" y1="18.8" x2="244.3" y2="26.4"/>
<line class="st3" x1="240.5" y1="22.6" x2="248.1" y2="22.6"/>
<path class="st4" d="M296.4,15.7c-2-2-5.1-2-7.1,0l0,0l-1,1l-1-1c-2-2-5.1-2-7.1,0s-2,5.1,0,7.1l1,1l7.1,7.1l7.1-7.1l1-1
	C298.4,20.9,298.4,17.7,296.4,15.7L296.4,15.7z"/>
</svg>
