<?xml version="1.0" encoding="utf-8"?>
<!-- Generator: Adobe Illustrator 25.2.1, SVG Export Plug-In . SVG Version: 6.00 Build 0)  -->
<svg version="1.1" id="Layer_1" xmlns="http://www.w3.org/2000/svg" xmlns:xlink="http://www.w3.org/1999/xlink" x="0px" y="0px"
	 viewBox="0 0 360 388" style="enable-background:new 0 0 360 388;" xml:space="preserve">
<style type="text/css">
	.st0{stroke:#020203;stroke-width:2;stroke-linecap:round;stroke-linejoin:round;}
	.st1{fill:#878787;}
	.st2{fill:none;stroke:#000000;stroke-width:2;stroke-miterlimit:10;}
	.st3{fill:none;stroke:#020203;stroke-width:2;stroke-linecap:round;stroke-linejoin:round;}
	.st4{fill:none;stroke:#DADADA;stroke-miterlimit:10;}
	.st5{fill:#706F6F;}
	.st6{fill:none;stroke:#878787;stroke-width:2;stroke-linecap:round;stroke-linejoin:round;}
	.st7{fill:#DEDEDE;}
	.st8{fill:none;stroke:#000000;stroke-width:2;stroke-miterlimit:3.3333;}
	.st9{display:none;fill:#FFFFFF;}
</style>
<circle class="st0" cx="336.86" cy="28.9" r="0.93"/>
<circle class="st0" cx="343.4" cy="28.9" r="0.93"/>
<circle class="st0" cx="330.31" cy="28.9" r="0.93"/>
<g>
	<path d="M60.62,23.63v7.02c0,1.17-0.37,2.09-1.09,2.77c-0.73,0.68-1.73,1.02-2.99,1.02c-1.25,0-2.23-0.33-2.97-0.99
		s-1.11-1.56-1.12-2.72v-7.1h2.2v7.04c0,0.7,0.17,1.21,0.5,1.53c0.33,0.32,0.8,0.48,1.39,0.48c1.24,0,1.86-0.65,1.88-1.95v-7.1
		H60.62z"/>
	<path d="M66.57,32.11c0-0.26-0.13-0.46-0.38-0.61c-0.26-0.15-0.67-0.28-1.23-0.4c-1.88-0.4-2.83-1.2-2.83-2.4
		c0-0.7,0.29-1.29,0.88-1.76s1.35-0.71,2.29-0.71c1.01,0,1.81,0.24,2.41,0.71s0.9,1.09,0.9,1.85h-2.12c0-0.3-0.1-0.55-0.29-0.75
		c-0.2-0.2-0.5-0.3-0.92-0.3c-0.36,0-0.63,0.08-0.83,0.24s-0.29,0.37-0.29,0.62c0,0.23,0.11,0.42,0.33,0.57s0.6,0.27,1.12,0.37
		c0.53,0.11,0.97,0.22,1.33,0.36c1.12,0.41,1.68,1.12,1.68,2.13c0,0.72-0.31,1.31-0.93,1.75c-0.62,0.45-1.42,0.67-2.4,0.67
		c-0.66,0-1.25-0.12-1.77-0.36c-0.52-0.24-0.92-0.56-1.21-0.97s-0.44-0.86-0.44-1.34h2.01c0.02,0.38,0.16,0.66,0.42,0.86
		s0.61,0.3,1.04,0.3c0.41,0,0.71-0.08,0.92-0.23C66.47,32.56,66.57,32.36,66.57,32.11z"/>
	<path d="M73.64,34.45c-1.16,0-2.11-0.36-2.84-1.07s-1.09-1.66-1.09-2.85v-0.21c0-0.8,0.15-1.51,0.46-2.14
		c0.31-0.63,0.74-1.11,1.31-1.45c0.56-0.34,1.21-0.51,1.93-0.51c1.08,0,1.94,0.34,2.56,1.03c0.62,0.68,0.93,1.65,0.93,2.91v0.86
		h-5.05c0.07,0.52,0.27,0.93,0.62,1.25c0.34,0.31,0.78,0.47,1.31,0.47c0.82,0,1.45-0.3,1.91-0.89l1.04,1.16
		c-0.32,0.45-0.75,0.8-1.29,1.05C74.9,34.32,74.3,34.45,73.64,34.45z M73.4,27.93c-0.42,0-0.76,0.14-1.02,0.43
		c-0.26,0.28-0.43,0.69-0.5,1.22h2.94v-0.17c-0.01-0.47-0.14-0.83-0.38-1.09S73.85,27.93,73.4,27.93z"/>
	<path d="M82.55,28.36c-0.29-0.04-0.54-0.06-0.76-0.06c-0.8,0-1.33,0.27-1.57,0.81v5.19H78.1v-7.92h2l0.06,0.94
		c0.42-0.73,1.01-1.09,1.77-1.09c0.23,0,0.45,0.03,0.66,0.1L82.55,28.36z"/>
</g>
<g>
	<path class="st1" d="M56.31,49.43h1.28v0.96h-1.28v2.15h-1.18v-2.15h-4.21v-0.69l4.14-6.4h1.25V49.43z M52.26,49.43h2.88V44.9
		l-0.14,0.25L52.26,49.43z"/>
	<path class="st1" d="M61.71,49.04c0-1.05,0.25-1.9,0.75-2.54c0.5-0.64,1.15-0.96,1.96-0.96c0.8,0,1.44,0.28,1.91,0.83v-3.58h1.17
		v9.75h-1.08l-0.06-0.74c-0.47,0.58-1.12,0.86-1.96,0.86c-0.8,0-1.44-0.33-1.95-0.98c-0.5-0.65-0.75-1.5-0.75-2.55V49.04z
		 M62.88,49.18c0,0.78,0.16,1.39,0.48,1.83c0.32,0.44,0.77,0.66,1.33,0.66c0.74,0,1.29-0.33,1.63-1v-3.15
		c-0.35-0.65-0.89-0.97-1.62-0.97c-0.58,0-1.02,0.22-1.35,0.67S62.88,48.3,62.88,49.18z"/>
</g>
<circle class="st2" cx="25.19" cy="39.52" r="17.5"/>
<g>
	<path d="M9.68,84.21h4.72v1.07H8.36v-9.95h1.32V84.21z"/>
	<path d="M15.36,81.52c0-0.72,0.14-1.38,0.43-1.96s0.68-1.03,1.19-1.34s1.09-0.47,1.74-0.47c1.01,0,1.82,0.35,2.44,1.05
		s0.93,1.62,0.93,2.78v0.09c0,0.72-0.14,1.37-0.41,1.94c-0.28,0.57-0.67,1.02-1.18,1.34s-1.1,0.48-1.77,0.48
		c-1,0-1.81-0.35-2.44-1.05s-0.93-1.62-0.93-2.77V81.52z M16.64,81.67c0,0.82,0.19,1.48,0.57,1.98s0.89,0.75,1.53,0.75
		c0.64,0,1.15-0.25,1.53-0.75c0.38-0.5,0.57-1.21,0.57-2.12c0-0.81-0.19-1.47-0.58-1.97c-0.39-0.5-0.9-0.76-1.53-0.76
		c-0.62,0-1.13,0.25-1.51,0.75S16.64,80.74,16.64,81.67z"/>
	<path d="M27.26,79.02c-0.19-0.03-0.4-0.05-0.62-0.05c-0.83,0-1.39,0.35-1.69,1.06v5.25h-1.26v-7.4h1.23l0.02,0.85
		c0.41-0.66,1-0.99,1.76-0.99c0.25,0,0.43,0.03,0.56,0.1V79.02z"/>
	<path d="M31.36,85.42c-1,0-1.82-0.33-2.45-0.99c-0.63-0.66-0.94-1.54-0.94-2.64v-0.23c0-0.73,0.14-1.39,0.42-1.97
		c0.28-0.58,0.67-1.03,1.18-1.35c0.5-0.33,1.05-0.49,1.64-0.49c0.96,0,1.71,0.32,2.24,0.95s0.8,1.54,0.8,2.72v0.53h-5.01
		c0.02,0.73,0.23,1.32,0.64,1.77c0.41,0.45,0.93,0.67,1.56,0.67c0.45,0,0.82-0.09,1.13-0.27s0.58-0.42,0.81-0.72l0.77,0.6
		C33.53,84.94,32.6,85.42,31.36,85.42z M31.2,78.79c-0.51,0-0.94,0.19-1.29,0.56c-0.35,0.37-0.56,0.89-0.64,1.56h3.71v-0.1
		c-0.04-0.64-0.21-1.14-0.52-1.49C32.15,78.97,31.73,78.79,31.2,78.79z"/>
	<path d="M36.9,77.89l0.03,0.82c0.54-0.64,1.27-0.96,2.19-0.96c1.03,0,1.74,0.4,2.11,1.19c0.25-0.36,0.57-0.64,0.96-0.86
		s0.86-0.33,1.4-0.33c1.62,0,2.45,0.86,2.47,2.58v4.96h-1.26V80.4c0-0.53-0.12-0.92-0.36-1.19c-0.24-0.26-0.65-0.39-1.22-0.39
		c-0.47,0-0.86,0.14-1.17,0.42c-0.31,0.28-0.49,0.66-0.54,1.13v4.91h-1.27v-4.85c0-1.08-0.53-1.61-1.58-1.61
		c-0.83,0-1.4,0.35-1.7,1.06v5.4H35.7v-7.4H36.9z"/>
	<path d="M51.45,75.92c0-0.21,0.06-0.38,0.19-0.52s0.31-0.21,0.56-0.21s0.43,0.07,0.56,0.21s0.19,0.31,0.19,0.52
		s-0.06,0.38-0.19,0.51s-0.31,0.21-0.56,0.21s-0.43-0.07-0.56-0.21S51.45,76.13,51.45,75.92z M52.82,85.28h-1.26v-7.4h1.26V85.28z"
		/>
	<path d="M61.09,81.67c0,1.13-0.26,2.03-0.77,2.72s-1.21,1.03-2.09,1.03c-0.9,0-1.6-0.29-2.12-0.85v3.56h-1.26V77.89H56l0.06,0.82
		c0.52-0.64,1.23-0.96,2.15-0.96c0.89,0,1.59,0.33,2.11,1s0.78,1.6,0.78,2.8V81.67z M59.83,81.52c0-0.83-0.18-1.49-0.53-1.98
		s-0.84-0.72-1.46-0.72c-0.77,0-1.34,0.34-1.72,1.02v3.53c0.38,0.67,0.96,1.01,1.74,1.01c0.61,0,1.09-0.24,1.45-0.72
		C59.65,83.19,59.83,82.47,59.83,81.52z"/>
	<path d="M67,83.32c0-0.34-0.13-0.61-0.39-0.8c-0.26-0.19-0.71-0.35-1.35-0.49s-1.15-0.3-1.52-0.49s-0.65-0.42-0.83-0.68
		s-0.27-0.58-0.27-0.94c0-0.61,0.26-1.12,0.77-1.54s1.17-0.63,1.97-0.63c0.84,0,1.52,0.22,2.04,0.65s0.78,0.99,0.78,1.66h-1.27
		c0-0.35-0.15-0.64-0.44-0.9s-0.66-0.38-1.11-0.38c-0.46,0-0.82,0.1-1.08,0.3s-0.39,0.46-0.39,0.79c0,0.31,0.12,0.54,0.36,0.69
		s0.68,0.3,1.31,0.44s1.14,0.31,1.53,0.51s0.68,0.43,0.87,0.71c0.19,0.28,0.28,0.61,0.28,1.01c0,0.66-0.26,1.19-0.79,1.59
		c-0.53,0.4-1.21,0.6-2.06,0.6c-0.59,0-1.12-0.1-1.57-0.31s-0.81-0.5-1.07-0.88c-0.26-0.38-0.39-0.78-0.39-1.22h1.26
		c0.02,0.42,0.19,0.76,0.51,1.01c0.32,0.25,0.73,0.37,1.25,0.37c0.48,0,0.86-0.1,1.15-0.29C66.86,83.9,67,83.64,67,83.32z"/>
	<path d="M74.48,84.55c-0.49,0.58-1.21,0.87-2.17,0.87c-0.79,0-1.39-0.23-1.8-0.69c-0.41-0.46-0.62-1.14-0.63-2.03v-4.81h1.26v4.78
		c0,1.12,0.46,1.68,1.37,1.68c0.97,0,1.61-0.36,1.93-1.08v-5.38h1.26v7.4h-1.2L74.48,84.55z"/>
	<path d="M78.82,77.89l0.03,0.82c0.54-0.64,1.27-0.96,2.19-0.96c1.03,0,1.74,0.4,2.11,1.19c0.25-0.36,0.57-0.64,0.96-0.86
		s0.86-0.33,1.4-0.33c1.62,0,2.45,0.86,2.47,2.58v4.96h-1.26V80.4c0-0.53-0.12-0.92-0.36-1.19c-0.24-0.26-0.65-0.39-1.22-0.39
		c-0.47,0-0.86,0.14-1.17,0.42c-0.31,0.28-0.49,0.66-0.54,1.13v4.91h-1.27v-4.85c0-1.08-0.53-1.61-1.58-1.61
		c-0.83,0-1.4,0.35-1.7,1.06v5.4h-1.26v-7.4H78.82z"/>
	<path d="M93.06,81.52c0-1.13,0.27-2.05,0.81-2.74c0.54-0.69,1.24-1.04,2.11-1.04c0.87,0,1.55,0.3,2.06,0.89v-3.86h1.26v10.5h-1.16
		l-0.06-0.79c-0.51,0.62-1.21,0.93-2.11,0.93c-0.86,0-1.56-0.35-2.1-1.05s-0.81-1.62-0.81-2.75V81.52z M94.33,81.67
		c0,0.84,0.17,1.5,0.52,1.97s0.82,0.71,1.44,0.71c0.8,0,1.39-0.36,1.76-1.08v-3.4c-0.38-0.7-0.96-1.05-1.74-1.05
		c-0.62,0-1.1,0.24-1.45,0.72S94.33,80.73,94.33,81.67z"/>
	<path d="M100.93,81.52c0-0.72,0.14-1.38,0.43-1.96s0.68-1.03,1.19-1.34s1.09-0.47,1.74-0.47c1.01,0,1.82,0.35,2.44,1.05
		s0.93,1.62,0.93,2.78v0.09c0,0.72-0.14,1.37-0.41,1.94c-0.28,0.57-0.67,1.02-1.18,1.34s-1.1,0.48-1.77,0.48
		c-1,0-1.81-0.35-2.44-1.05s-0.93-1.62-0.93-2.77V81.52z M102.2,81.67c0,0.82,0.19,1.48,0.57,1.98s0.89,0.75,1.53,0.75
		c0.64,0,1.15-0.25,1.53-0.75c0.38-0.5,0.57-1.21,0.57-2.12c0-0.81-0.19-1.47-0.58-1.97c-0.39-0.5-0.9-0.76-1.53-0.76
		c-0.62,0-1.13,0.25-1.51,0.75S102.2,80.74,102.2,81.67z"/>
	<path d="M110.62,85.28h-1.26v-10.5h1.26V85.28z"/>
	<path d="M112.31,81.52c0-0.72,0.14-1.38,0.43-1.96s0.68-1.03,1.19-1.34s1.09-0.47,1.74-0.47c1.01,0,1.82,0.35,2.44,1.05
		s0.93,1.62,0.93,2.78v0.09c0,0.72-0.14,1.37-0.41,1.94c-0.28,0.57-0.67,1.02-1.18,1.34s-1.1,0.48-1.77,0.48
		c-1,0-1.81-0.35-2.44-1.05s-0.93-1.62-0.93-2.77V81.52z M113.58,81.67c0,0.82,0.19,1.48,0.57,1.98s0.89,0.75,1.53,0.75
		c0.64,0,1.15-0.25,1.53-0.75c0.38-0.5,0.57-1.21,0.57-2.12c0-0.81-0.19-1.47-0.58-1.97c-0.39-0.5-0.9-0.76-1.53-0.76
		c-0.62,0-1.13,0.25-1.51,0.75S113.58,80.74,113.58,81.67z"/>
	<path d="M124.21,79.02c-0.19-0.03-0.4-0.05-0.62-0.05c-0.83,0-1.39,0.35-1.69,1.06v5.25h-1.26v-7.4h1.23l0.02,0.85
		c0.41-0.66,1-0.99,1.76-0.99c0.25,0,0.43,0.03,0.56,0.1V79.02z"/>
	<path d="M133.14,83.32c0-0.34-0.13-0.61-0.39-0.8c-0.26-0.19-0.71-0.35-1.35-0.49s-1.15-0.3-1.52-0.49s-0.65-0.42-0.83-0.68
		s-0.27-0.58-0.27-0.94c0-0.61,0.26-1.12,0.77-1.54s1.17-0.63,1.97-0.63c0.84,0,1.52,0.22,2.04,0.65s0.78,0.99,0.78,1.66h-1.27
		c0-0.35-0.15-0.64-0.44-0.9s-0.66-0.38-1.11-0.38c-0.46,0-0.82,0.1-1.08,0.3s-0.39,0.46-0.39,0.79c0,0.31,0.12,0.54,0.36,0.69
		s0.68,0.3,1.31,0.44s1.14,0.31,1.53,0.51s0.68,0.43,0.87,0.71c0.19,0.28,0.28,0.61,0.28,1.01c0,0.66-0.26,1.19-0.79,1.59
		c-0.53,0.4-1.21,0.6-2.06,0.6c-0.59,0-1.12-0.1-1.57-0.31s-0.81-0.5-1.07-0.88c-0.26-0.38-0.39-0.78-0.39-1.22h1.26
		c0.02,0.42,0.19,0.76,0.51,1.01c0.32,0.25,0.73,0.37,1.25,0.37c0.48,0,0.86-0.1,1.15-0.29C133,83.9,133.14,83.64,133.14,83.32z"/>
	<path d="M136.06,75.92c0-0.21,0.06-0.38,0.19-0.52s0.31-0.21,0.56-0.21s0.43,0.07,0.56,0.21s0.19,0.31,0.19,0.52
		s-0.06,0.38-0.19,0.51s-0.31,0.21-0.56,0.21s-0.43-0.07-0.56-0.21S136.06,76.13,136.06,75.92z M137.43,85.28h-1.26v-7.4h1.26V85.28
		z"/>
	<path d="M141.17,76.1v1.79h1.38v0.98h-1.38v4.59c0,0.3,0.06,0.52,0.18,0.67s0.33,0.22,0.63,0.22c0.15,0,0.35-0.03,0.6-0.08v1.02
		c-0.33,0.09-0.66,0.14-0.97,0.14c-0.56,0-0.99-0.17-1.28-0.51s-0.43-0.83-0.43-1.46v-4.59h-1.35v-0.98h1.35V76.1H141.17z"/>
	<path d="M152.06,85.28c-0.07-0.15-0.13-0.41-0.18-0.78c-0.59,0.61-1.29,0.92-2.11,0.92c-0.73,0-1.33-0.21-1.79-0.62
		c-0.47-0.41-0.7-0.93-0.7-1.57c0-0.77,0.29-1.37,0.88-1.79c0.59-0.43,1.41-0.64,2.47-0.64h1.23v-0.58c0-0.44-0.13-0.79-0.4-1.06
		c-0.26-0.26-0.65-0.39-1.17-0.39c-0.45,0-0.83,0.11-1.13,0.34s-0.46,0.5-0.46,0.83h-1.27c0-0.37,0.13-0.73,0.39-1.07
		c0.26-0.34,0.62-0.62,1.07-0.82s0.94-0.3,1.48-0.3c0.85,0,1.52,0.21,2,0.64c0.48,0.43,0.73,1.01,0.75,1.76v3.4
		c0,0.68,0.09,1.22,0.26,1.62v0.11H152.06z M149.96,84.32c0.4,0,0.77-0.1,1.13-0.31s0.61-0.47,0.77-0.8v-1.52h-0.99
		c-1.55,0-2.32,0.45-2.32,1.36c0,0.4,0.13,0.71,0.4,0.93S149.54,84.32,149.96,84.32z"/>
	<path d="M156.29,77.89l0.03,0.82c0.54-0.64,1.27-0.96,2.19-0.96c1.03,0,1.74,0.4,2.11,1.19c0.25-0.36,0.57-0.64,0.96-0.86
		s0.86-0.33,1.4-0.33c1.62,0,2.45,0.86,2.47,2.58v4.96h-1.26V80.4c0-0.53-0.12-0.92-0.36-1.19c-0.24-0.26-0.65-0.39-1.22-0.39
		c-0.47,0-0.86,0.14-1.17,0.42c-0.31,0.28-0.49,0.66-0.54,1.13v4.91h-1.27v-4.85c0-1.08-0.53-1.61-1.58-1.61
		c-0.83,0-1.4,0.35-1.7,1.06v5.4h-1.26v-7.4H156.29z"/>
	<path d="M170.44,85.42c-1,0-1.82-0.33-2.45-0.99c-0.63-0.66-0.94-1.54-0.94-2.64v-0.23c0-0.73,0.14-1.39,0.42-1.97
		c0.28-0.58,0.67-1.03,1.18-1.35c0.5-0.33,1.05-0.49,1.64-0.49c0.96,0,1.71,0.32,2.24,0.95s0.8,1.54,0.8,2.72v0.53h-5.01
		c0.02,0.73,0.23,1.32,0.64,1.77c0.41,0.45,0.93,0.67,1.56,0.67c0.45,0,0.82-0.09,1.13-0.27s0.58-0.42,0.81-0.72l0.77,0.6
		C172.61,84.94,171.68,85.42,170.44,85.42z M170.29,78.79c-0.51,0-0.94,0.19-1.29,0.56c-0.35,0.37-0.56,0.89-0.64,1.56h3.71v-0.1
		c-0.04-0.64-0.21-1.14-0.52-1.49C171.24,78.97,170.82,78.79,170.29,78.79z"/>
	<path d="M176.51,76.1v1.79h1.38v0.98h-1.38v4.59c0,0.3,0.06,0.52,0.18,0.67s0.33,0.22,0.63,0.22c0.15,0,0.35-0.03,0.6-0.08v1.02
		c-0.33,0.09-0.66,0.14-0.97,0.14c-0.56,0-0.99-0.17-1.28-0.51s-0.43-0.83-0.43-1.46v-4.59h-1.35v-0.98h1.35V76.1H176.51z"/>
	<path d="M179.32,87.27l-0.72-0.49c0.43-0.6,0.65-1.21,0.67-1.85v-1.14h1.24v0.99c0,0.46-0.11,0.92-0.34,1.38
		C179.95,86.62,179.67,86.99,179.32,87.27z"/>
	<path d="M188.55,84.39c0.45,0,0.85-0.14,1.18-0.41s0.52-0.62,0.56-1.03h1.2c-0.02,0.42-0.17,0.83-0.44,1.21s-0.63,0.69-1.08,0.92
		c-0.45,0.23-0.92,0.34-1.43,0.34c-1.01,0-1.81-0.34-2.4-1.01c-0.6-0.67-0.89-1.59-0.89-2.76v-0.21c0-0.72,0.13-1.36,0.4-1.92
		s0.64-1,1.14-1.31c0.49-0.31,1.08-0.46,1.75-0.46c0.83,0,1.52,0.25,2.07,0.75c0.55,0.5,0.84,1.14,0.88,1.93h-1.2
		c-0.04-0.48-0.22-0.87-0.54-1.18c-0.33-0.31-0.73-0.46-1.21-0.46c-0.64,0-1.14,0.23-1.49,0.69c-0.35,0.46-0.53,1.13-0.53,2.01v0.24
		c0,0.85,0.18,1.51,0.53,1.97S187.89,84.39,188.55,84.39z"/>
	<path d="M192.57,81.52c0-0.72,0.14-1.38,0.43-1.96c0.29-0.58,0.68-1.03,1.19-1.34c0.51-0.31,1.09-0.47,1.74-0.47
		c1.01,0,1.82,0.35,2.44,1.05c0.62,0.7,0.93,1.62,0.93,2.78v0.09c0,0.72-0.14,1.37-0.41,1.94c-0.28,0.57-0.67,1.02-1.18,1.34
		c-0.51,0.32-1.1,0.48-1.77,0.48c-1,0-1.81-0.35-2.44-1.05c-0.62-0.7-0.93-1.62-0.93-2.77V81.52z M193.84,81.67
		c0,0.82,0.19,1.48,0.57,1.98c0.38,0.5,0.89,0.75,1.53,0.75c0.64,0,1.15-0.25,1.53-0.75c0.38-0.5,0.57-1.21,0.57-2.12
		c0-0.81-0.19-1.47-0.58-1.97c-0.39-0.5-0.9-0.76-1.54-0.76c-0.62,0-1.13,0.25-1.51,0.75S193.84,80.74,193.84,81.67z"/>
	<path d="M202.09,77.89l0.04,0.93c0.57-0.71,1.3-1.07,2.21-1.07c1.56,0,2.35,0.88,2.37,2.65v4.89h-1.26v-4.89
		c0-0.53-0.13-0.93-0.37-1.18c-0.24-0.25-0.61-0.38-1.12-0.38c-0.41,0-0.77,0.11-1.08,0.33s-0.55,0.51-0.72,0.86v5.27h-1.26v-7.4
		H202.09z"/>
	<path d="M212.92,83.32c0-0.34-0.13-0.61-0.39-0.8c-0.26-0.19-0.71-0.35-1.35-0.49c-0.64-0.14-1.15-0.3-1.53-0.49
		c-0.38-0.19-0.65-0.42-0.83-0.68c-0.18-0.26-0.27-0.58-0.27-0.94c0-0.61,0.26-1.12,0.77-1.54c0.51-0.42,1.17-0.63,1.96-0.63
		c0.84,0,1.52,0.22,2.04,0.65c0.52,0.43,0.78,0.99,0.78,1.66h-1.27c0-0.35-0.15-0.64-0.44-0.9c-0.29-0.25-0.67-0.38-1.11-0.38
		c-0.46,0-0.82,0.1-1.08,0.3s-0.39,0.46-0.39,0.79c0,0.31,0.12,0.54,0.36,0.69s0.68,0.3,1.31,0.44c0.63,0.14,1.14,0.31,1.54,0.51
		s0.68,0.43,0.87,0.71c0.19,0.28,0.28,0.61,0.28,1.01c0,0.66-0.26,1.19-0.79,1.59c-0.53,0.4-1.21,0.6-2.06,0.6
		c-0.59,0-1.12-0.1-1.57-0.31s-0.81-0.5-1.07-0.88c-0.26-0.38-0.39-0.78-0.39-1.22h1.26c0.02,0.42,0.19,0.76,0.51,1.01
		c0.32,0.25,0.73,0.37,1.25,0.37c0.48,0,0.86-0.1,1.15-0.29C212.78,83.9,212.92,83.64,212.92,83.32z"/>
	<path d="M218.9,85.42c-1,0-1.82-0.33-2.45-0.99c-0.63-0.66-0.94-1.54-0.94-2.64v-0.23c0-0.73,0.14-1.39,0.42-1.97
		c0.28-0.58,0.67-1.03,1.18-1.35c0.5-0.33,1.05-0.49,1.64-0.49c0.96,0,1.71,0.32,2.24,0.95s0.8,1.54,0.8,2.72v0.53h-5.01
		c0.02,0.73,0.23,1.32,0.64,1.77c0.41,0.45,0.93,0.67,1.56,0.67c0.45,0,0.83-0.09,1.13-0.27s0.58-0.42,0.81-0.72l0.77,0.6
		C221.07,84.94,220.14,85.42,218.9,85.42z M218.75,78.79c-0.51,0-0.94,0.19-1.29,0.56c-0.35,0.37-0.56,0.89-0.64,1.56h3.71v-0.1
		c-0.04-0.64-0.21-1.14-0.52-1.49C219.7,78.97,219.28,78.79,218.75,78.79z"/>
	<path d="M226.22,84.39c0.45,0,0.85-0.14,1.18-0.41s0.52-0.62,0.56-1.03h1.2c-0.02,0.42-0.17,0.83-0.44,1.21s-0.63,0.69-1.08,0.92
		c-0.45,0.23-0.92,0.34-1.43,0.34c-1.01,0-1.81-0.34-2.4-1.01c-0.6-0.67-0.89-1.59-0.89-2.76v-0.21c0-0.72,0.13-1.36,0.4-1.92
		s0.64-1,1.14-1.31c0.49-0.31,1.08-0.46,1.75-0.46c0.83,0,1.52,0.25,2.07,0.75c0.55,0.5,0.84,1.14,0.88,1.93h-1.2
		c-0.04-0.48-0.22-0.87-0.54-1.18c-0.33-0.31-0.73-0.46-1.21-0.46c-0.64,0-1.14,0.23-1.49,0.69c-0.35,0.46-0.53,1.13-0.53,2.01v0.24
		c0,0.85,0.18,1.51,0.53,1.97S225.57,84.39,226.22,84.39z"/>
	<path d="M232.3,76.1v1.79h1.38v0.98h-1.38v4.59c0,0.3,0.06,0.52,0.18,0.67s0.33,0.22,0.63,0.22c0.15,0,0.35-0.03,0.6-0.08v1.02
		c-0.33,0.09-0.66,0.14-0.97,0.14c-0.57,0-0.99-0.17-1.28-0.51s-0.43-0.83-0.43-1.46v-4.59h-1.35v-0.98h1.35V76.1H232.3z"/>
	<path d="M238.22,85.42c-1,0-1.82-0.33-2.45-0.99c-0.63-0.66-0.94-1.54-0.94-2.64v-0.23c0-0.73,0.14-1.39,0.42-1.97
		c0.28-0.58,0.67-1.03,1.18-1.35c0.5-0.33,1.05-0.49,1.64-0.49c0.96,0,1.71,0.32,2.24,0.95s0.8,1.54,0.8,2.72v0.53h-5.01
		c0.02,0.73,0.23,1.32,0.64,1.77c0.41,0.45,0.93,0.67,1.56,0.67c0.45,0,0.83-0.09,1.13-0.27s0.58-0.42,0.81-0.72l0.77,0.6
		C240.39,84.94,239.46,85.42,238.22,85.42z M238.07,78.79c-0.51,0-0.94,0.19-1.29,0.56c-0.35,0.37-0.56,0.89-0.64,1.56h3.71v-0.1
		c-0.04-0.64-0.21-1.14-0.52-1.49C239.01,78.97,238.59,78.79,238.07,78.79z"/>
	<path d="M244.29,76.1v1.79h1.38v0.98h-1.38v4.59c0,0.3,0.06,0.52,0.18,0.67s0.33,0.22,0.63,0.22c0.15,0,0.35-0.03,0.6-0.08v1.02
		c-0.33,0.09-0.66,0.14-0.97,0.14c-0.57,0-0.99-0.17-1.28-0.51s-0.43-0.83-0.43-1.46v-4.59h-1.35v-0.98h1.35V76.1H244.29z"/>
	<path d="M251.71,84.55c-0.49,0.58-1.21,0.87-2.17,0.87c-0.79,0-1.39-0.23-1.8-0.69c-0.41-0.46-0.62-1.14-0.62-2.03v-4.81h1.26v4.78
		c0,1.12,0.46,1.68,1.37,1.68c0.97,0,1.61-0.36,1.93-1.08v-5.38h1.26v7.4h-1.2L251.71,84.55z"/>
	<path d="M258.44,79.02c-0.19-0.03-0.4-0.05-0.62-0.05c-0.83,0-1.39,0.35-1.69,1.06v5.25h-1.26v-7.4h1.23l0.02,0.85
		c0.42-0.66,1-0.99,1.76-0.99c0.25,0,0.43,0.03,0.56,0.1V79.02z"/>
	<path d="M267.63,85.28c-0.07-0.15-0.13-0.41-0.18-0.78c-0.59,0.61-1.29,0.92-2.11,0.92c-0.73,0-1.33-0.21-1.79-0.62
		c-0.47-0.41-0.7-0.93-0.7-1.57c0-0.77,0.29-1.37,0.88-1.79c0.59-0.43,1.41-0.64,2.47-0.64h1.23v-0.58c0-0.44-0.13-0.79-0.4-1.06
		c-0.26-0.26-0.65-0.39-1.17-0.39c-0.45,0-0.83,0.11-1.13,0.34s-0.46,0.5-0.46,0.83H263c0-0.37,0.13-0.73,0.39-1.07
		c0.26-0.34,0.62-0.62,1.07-0.82c0.45-0.2,0.94-0.3,1.48-0.3c0.85,0,1.52,0.21,2,0.64c0.48,0.43,0.73,1.01,0.75,1.76v3.4
		c0,0.68,0.09,1.22,0.26,1.62v0.11H267.63z M265.53,84.32c0.4,0,0.77-0.1,1.13-0.31s0.61-0.47,0.77-0.8v-1.52h-0.99
		c-1.55,0-2.32,0.45-2.32,1.36c0,0.4,0.13,0.71,0.4,0.93S265.12,84.32,265.53,84.32z"/>
	<path d="M270.37,81.52c0-1.13,0.27-2.05,0.81-2.74c0.54-0.69,1.24-1.04,2.11-1.04c0.87,0,1.55,0.3,2.06,0.89v-3.86h1.26v10.5h-1.16
		l-0.06-0.79c-0.51,0.62-1.21,0.93-2.11,0.93c-0.86,0-1.55-0.35-2.1-1.05c-0.54-0.7-0.81-1.62-0.81-2.75V81.52z M271.64,81.67
		c0,0.84,0.17,1.5,0.52,1.97s0.83,0.71,1.44,0.71c0.8,0,1.39-0.36,1.76-1.08v-3.4c-0.38-0.7-0.96-1.05-1.74-1.05
		c-0.62,0-1.1,0.24-1.45,0.72S271.64,80.73,271.64,81.67z"/>
	<path d="M278.58,75.92c0-0.21,0.06-0.38,0.19-0.52c0.12-0.14,0.31-0.21,0.56-0.21s0.43,0.07,0.56,0.21s0.19,0.31,0.19,0.52
		s-0.06,0.38-0.19,0.51s-0.31,0.21-0.56,0.21s-0.43-0.07-0.56-0.21C278.64,76.3,278.58,76.13,278.58,75.92z M279.95,85.28h-1.26
		v-7.4h1.26V85.28z"/>
	<path d="M288.22,81.67c0,1.13-0.26,2.03-0.77,2.72s-1.21,1.03-2.09,1.03c-0.9,0-1.6-0.29-2.12-0.85v3.56h-1.26V77.89h1.16
		l0.06,0.82c0.51-0.64,1.23-0.96,2.15-0.96c0.89,0,1.59,0.33,2.11,1c0.52,0.67,0.78,1.6,0.78,2.8V81.67z M286.96,81.52
		c0-0.83-0.18-1.49-0.53-1.98s-0.84-0.72-1.46-0.72c-0.77,0-1.34,0.34-1.72,1.02v3.53c0.38,0.67,0.96,1.01,1.74,1.01
		c0.61,0,1.09-0.24,1.45-0.72C286.78,83.19,286.96,82.47,286.96,81.52z"/>
	<path d="M289.83,75.92c0-0.21,0.06-0.38,0.19-0.52c0.12-0.14,0.31-0.21,0.56-0.21s0.43,0.07,0.56,0.21s0.19,0.31,0.19,0.52
		s-0.06,0.38-0.19,0.51s-0.31,0.21-0.56,0.21s-0.43-0.07-0.56-0.21C289.9,76.3,289.83,76.13,289.83,75.92z M291.2,85.28h-1.26v-7.4
		h1.26V85.28z"/>
	<path d="M297.53,83.32c0-0.34-0.13-0.61-0.39-0.8c-0.26-0.19-0.71-0.35-1.35-0.49c-0.64-0.14-1.15-0.3-1.53-0.49
		c-0.38-0.19-0.65-0.42-0.83-0.68c-0.18-0.26-0.27-0.58-0.27-0.94c0-0.61,0.26-1.12,0.77-1.54c0.51-0.42,1.17-0.63,1.96-0.63
		c0.84,0,1.52,0.22,2.04,0.65c0.52,0.43,0.78,0.99,0.78,1.66h-1.27c0-0.35-0.15-0.64-0.44-0.9c-0.29-0.25-0.67-0.38-1.11-0.38
		c-0.46,0-0.82,0.1-1.08,0.3s-0.39,0.46-0.39,0.79c0,0.31,0.12,0.54,0.36,0.69s0.68,0.3,1.31,0.44c0.63,0.14,1.14,0.31,1.54,0.51
		s0.68,0.43,0.87,0.71c0.19,0.28,0.28,0.61,0.28,1.01c0,0.66-0.26,1.19-0.79,1.59c-0.53,0.4-1.21,0.6-2.06,0.6
		c-0.59,0-1.12-0.1-1.57-0.31s-0.81-0.5-1.07-0.88c-0.26-0.38-0.39-0.78-0.39-1.22h1.26c0.02,0.42,0.19,0.76,0.51,1.01
		c0.32,0.25,0.73,0.37,1.25,0.37c0.48,0,0.86-0.1,1.15-0.29C297.39,83.9,297.53,83.64,297.53,83.32z"/>
	<path d="M303.41,84.39c0.45,0,0.85-0.14,1.18-0.41s0.52-0.62,0.56-1.03h1.2c-0.02,0.42-0.17,0.83-0.44,1.21s-0.63,0.69-1.08,0.92
		c-0.45,0.23-0.92,0.34-1.43,0.34c-1.01,0-1.81-0.34-2.4-1.01c-0.6-0.67-0.89-1.59-0.89-2.76v-0.21c0-0.72,0.13-1.36,0.4-1.92
		s0.64-1,1.14-1.31c0.49-0.31,1.08-0.46,1.75-0.46c0.83,0,1.52,0.25,2.07,0.75c0.55,0.5,0.84,1.14,0.88,1.93h-1.2
		c-0.04-0.48-0.22-0.87-0.54-1.18c-0.33-0.31-0.73-0.46-1.21-0.46c-0.64,0-1.14,0.23-1.49,0.69c-0.35,0.46-0.53,1.13-0.53,2.01v0.24
		c0,0.85,0.18,1.51,0.53,1.97S302.76,84.39,303.41,84.39z"/>
	<path d="M307.78,75.92c0-0.21,0.06-0.38,0.19-0.52c0.12-0.14,0.31-0.21,0.56-0.21s0.43,0.07,0.56,0.21s0.19,0.31,0.19,0.52
		s-0.06,0.38-0.19,0.51s-0.31,0.21-0.56,0.21s-0.43-0.07-0.56-0.21C307.84,76.3,307.78,76.13,307.78,75.92z M309.15,85.28h-1.26
		v-7.4h1.26V85.28z"/>
	<path d="M312.37,77.89l0.04,0.93c0.57-0.71,1.3-1.07,2.21-1.07c1.56,0,2.35,0.88,2.37,2.65v4.89h-1.26v-4.89
		c0-0.53-0.13-0.93-0.37-1.18c-0.24-0.25-0.61-0.38-1.12-0.38c-0.41,0-0.77,0.11-1.08,0.33s-0.55,0.51-0.72,0.86v5.27h-1.26v-7.4
		H312.37z"/>
	<path d="M318.59,81.52c0-1.15,0.27-2.07,0.8-2.75c0.53-0.68,1.24-1.02,2.12-1.02c0.9,0,1.61,0.32,2.11,0.96l0.06-0.82h1.16v7.22
		c0,0.96-0.28,1.71-0.85,2.26c-0.57,0.55-1.33,0.83-2.29,0.83c-0.53,0-1.05-0.11-1.57-0.34s-0.9-0.54-1.17-0.94l0.66-0.76
		c0.54,0.67,1.21,1,1.99,1c0.62,0,1.09-0.17,1.44-0.52c0.34-0.35,0.52-0.83,0.52-1.46v-0.64c-0.51,0.58-1.2,0.88-2.07,0.88
		c-0.87,0-1.57-0.35-2.1-1.05C318.86,83.68,318.59,82.73,318.59,81.52z M319.86,81.67c0,0.83,0.17,1.49,0.51,1.97
		c0.34,0.48,0.82,0.71,1.44,0.71c0.8,0,1.38-0.36,1.76-1.09v-3.38c-0.39-0.71-0.97-1.06-1.74-1.06c-0.62,0-1.1,0.24-1.44,0.72
		S319.86,80.73,319.86,81.67z"/>
	<path d="M333.28,85.42c-1,0-1.82-0.33-2.45-0.99c-0.63-0.66-0.94-1.54-0.94-2.64v-0.23c0-0.73,0.14-1.39,0.42-1.97
		c0.28-0.58,0.67-1.03,1.18-1.35c0.5-0.33,1.05-0.49,1.64-0.49c0.96,0,1.71,0.32,2.24,0.95s0.8,1.54,0.8,2.72v0.53h-5.01
		c0.02,0.73,0.23,1.32,0.64,1.77c0.41,0.45,0.93,0.67,1.56,0.67c0.45,0,0.83-0.09,1.13-0.27s0.58-0.42,0.81-0.72l0.77,0.6
		C335.45,84.94,334.52,85.42,333.28,85.42z M333.13,78.79c-0.51,0-0.94,0.19-1.29,0.56c-0.35,0.37-0.56,0.89-0.64,1.56h3.71v-0.1
		c-0.04-0.64-0.21-1.14-0.52-1.49C334.07,78.97,333.65,78.79,333.13,78.79z"/>
	<path d="M339,85.28h-1.26v-10.5H339V85.28z"/>
	<path d="M341.04,75.92c0-0.21,0.06-0.38,0.19-0.52c0.12-0.14,0.31-0.21,0.56-0.21s0.43,0.07,0.56,0.21s0.19,0.31,0.19,0.52
		s-0.06,0.38-0.19,0.51s-0.31,0.21-0.56,0.21s-0.43-0.07-0.56-0.21C341.1,76.3,341.04,76.13,341.04,75.92z M342.4,85.28h-1.26v-7.4
		h1.26V85.28z"/>
	<path d="M346.14,76.1v1.79h1.38v0.98h-1.38v4.59c0,0.3,0.06,0.52,0.18,0.67s0.33,0.22,0.63,0.22c0.15,0,0.35-0.03,0.6-0.08v1.02
		c-0.33,0.09-0.66,0.14-0.97,0.14c-0.57,0-0.99-0.17-1.28-0.51s-0.43-0.83-0.43-1.46v-4.59h-1.35v-0.98h1.35V76.1H346.14z"/>
	<path d="M348.96,87.27l-0.72-0.49c0.43-0.6,0.65-1.21,0.67-1.85v-1.14h1.24v0.99c0,0.46-0.11,0.92-0.34,1.38
		C349.58,86.62,349.3,86.99,348.96,87.27z"/>
	<path d="M12.47,103.32c0-0.34-0.13-0.61-0.39-0.8c-0.26-0.19-0.71-0.35-1.35-0.49s-1.15-0.3-1.52-0.49s-0.65-0.42-0.83-0.68
		s-0.27-0.58-0.27-0.94c0-0.61,0.26-1.12,0.77-1.54s1.17-0.63,1.97-0.63c0.84,0,1.52,0.22,2.04,0.65s0.78,0.99,0.78,1.66H12.4
		c0-0.35-0.15-0.64-0.44-0.9s-0.66-0.38-1.11-0.38c-0.46,0-0.82,0.1-1.08,0.3s-0.39,0.46-0.39,0.79c0,0.31,0.12,0.54,0.36,0.69
		s0.68,0.3,1.31,0.44s1.14,0.31,1.53,0.51s0.68,0.43,0.87,0.71c0.19,0.28,0.28,0.61,0.28,1.01c0,0.66-0.26,1.19-0.79,1.59
		c-0.53,0.4-1.21,0.6-2.06,0.6c-0.59,0-1.12-0.1-1.57-0.31s-0.81-0.5-1.07-0.88c-0.26-0.38-0.39-0.78-0.39-1.22h1.26
		c0.02,0.42,0.19,0.76,0.51,1.01c0.32,0.25,0.73,0.37,1.25,0.37c0.48,0,0.86-0.1,1.15-0.29C12.33,103.9,12.47,103.64,12.47,103.32z"
		/>
	<path d="M18.45,105.42c-1,0-1.82-0.33-2.45-0.99c-0.63-0.66-0.94-1.54-0.94-2.64v-0.23c0-0.73,0.14-1.39,0.42-1.97
		c0.28-0.58,0.67-1.03,1.18-1.35c0.5-0.33,1.05-0.49,1.64-0.49c0.96,0,1.71,0.32,2.24,0.95s0.8,1.54,0.8,2.72v0.53h-5.01
		c0.02,0.73,0.23,1.32,0.64,1.77c0.41,0.45,0.93,0.67,1.56,0.67c0.45,0,0.82-0.09,1.13-0.27s0.58-0.42,0.81-0.72l0.77,0.6
		C20.62,104.94,19.69,105.42,18.45,105.42z M18.3,98.79c-0.51,0-0.94,0.19-1.29,0.56c-0.35,0.37-0.56,0.89-0.64,1.56h3.71v-0.1
		c-0.04-0.64-0.21-1.14-0.52-1.49C19.25,98.97,18.83,98.79,18.3,98.79z"/>
	<path d="M22.49,101.52c0-1.13,0.27-2.05,0.81-2.74c0.54-0.69,1.24-1.04,2.11-1.04c0.87,0,1.55,0.3,2.06,0.89v-3.86h1.26v10.5h-1.16
		l-0.06-0.79c-0.51,0.62-1.21,0.93-2.11,0.93c-0.86,0-1.56-0.35-2.1-1.05s-0.81-1.62-0.81-2.75V101.52z M23.76,101.67
		c0,0.84,0.17,1.5,0.52,1.97s0.82,0.71,1.44,0.71c0.8,0,1.39-0.36,1.76-1.08v-3.4c-0.38-0.7-0.96-1.05-1.74-1.05
		c-0.62,0-1.1,0.24-1.45,0.72S23.76,100.73,23.76,101.67z"/>
	<path d="M33.86,101.52c0-1.13,0.27-2.05,0.81-2.74c0.54-0.69,1.24-1.04,2.11-1.04c0.87,0,1.55,0.3,2.06,0.89v-3.86h1.26v10.5h-1.16
		l-0.06-0.79c-0.51,0.62-1.21,0.93-2.11,0.93c-0.86,0-1.56-0.35-2.1-1.05s-0.81-1.62-0.81-2.75V101.52z M35.12,101.67
		c0,0.84,0.17,1.5,0.52,1.97s0.82,0.71,1.44,0.71c0.8,0,1.39-0.36,1.76-1.08v-3.4c-0.38-0.7-0.96-1.05-1.74-1.05
		c-0.62,0-1.1,0.24-1.45,0.72S35.12,100.73,35.12,101.67z"/>
	<path d="M41.72,101.52c0-0.72,0.14-1.38,0.43-1.96s0.68-1.03,1.19-1.34s1.09-0.47,1.74-0.47c1.01,0,1.82,0.35,2.44,1.05
		s0.93,1.62,0.93,2.78v0.09c0,0.72-0.14,1.37-0.41,1.94c-0.28,0.57-0.67,1.02-1.18,1.34s-1.1,0.48-1.77,0.48
		c-1,0-1.81-0.35-2.44-1.05s-0.93-1.62-0.93-2.77V101.52z M43,101.67c0,0.82,0.19,1.48,0.57,1.98s0.89,0.75,1.53,0.75
		c0.64,0,1.15-0.25,1.53-0.75c0.38-0.5,0.57-1.21,0.57-2.12c0-0.81-0.19-1.47-0.58-1.97c-0.39-0.5-0.9-0.76-1.53-0.76
		c-0.62,0-1.13,0.25-1.51,0.75S43,100.74,43,101.67z"/>
	<path d="M56.58,105.42c-1,0-1.82-0.33-2.45-0.99c-0.63-0.66-0.94-1.54-0.94-2.64v-0.23c0-0.73,0.14-1.39,0.42-1.97
		c0.28-0.58,0.67-1.03,1.18-1.35c0.5-0.33,1.05-0.49,1.64-0.49c0.96,0,1.71,0.32,2.24,0.95s0.8,1.54,0.8,2.72v0.53h-5.01
		c0.02,0.73,0.23,1.32,0.64,1.77c0.41,0.45,0.93,0.67,1.56,0.67c0.45,0,0.82-0.09,1.13-0.27s0.58-0.42,0.81-0.72l0.77,0.6
		C58.75,104.94,57.82,105.42,56.58,105.42z M56.42,98.79c-0.51,0-0.94,0.19-1.29,0.56c-0.35,0.37-0.56,0.89-0.64,1.56h3.71v-0.1
		c-0.04-0.64-0.21-1.14-0.52-1.49C57.37,98.97,56.95,98.79,56.42,98.79z"/>
	<path d="M60.93,95.92c0-0.21,0.06-0.38,0.19-0.52s0.31-0.21,0.56-0.21s0.43,0.07,0.56,0.21s0.19,0.31,0.19,0.52
		s-0.06,0.38-0.19,0.51s-0.31,0.21-0.56,0.21s-0.43-0.07-0.56-0.21S60.93,96.13,60.93,95.92z M62.3,105.28h-1.26v-7.4h1.26V105.28z"
		/>
	<path d="M68.89,104.55c-0.49,0.58-1.21,0.87-2.17,0.87c-0.79,0-1.39-0.23-1.8-0.69c-0.41-0.46-0.62-1.14-0.63-2.03v-4.81h1.26v4.78
		c0,1.12,0.46,1.68,1.37,1.68c0.97,0,1.61-0.36,1.93-1.08v-5.38h1.26v7.4h-1.2L68.89,104.55z"/>
	<path d="M76.35,103.32c0-0.34-0.13-0.61-0.39-0.8c-0.26-0.19-0.71-0.35-1.35-0.49s-1.15-0.3-1.52-0.49s-0.65-0.42-0.83-0.68
		s-0.27-0.58-0.27-0.94c0-0.61,0.26-1.12,0.77-1.54s1.17-0.63,1.97-0.63c0.84,0,1.52,0.22,2.04,0.65s0.78,0.99,0.78,1.66h-1.27
		c0-0.35-0.15-0.64-0.44-0.9s-0.66-0.38-1.11-0.38c-0.46,0-0.82,0.1-1.08,0.3s-0.39,0.46-0.39,0.79c0,0.31,0.12,0.54,0.36,0.69
		s0.68,0.3,1.31,0.44s1.14,0.31,1.53,0.51s0.68,0.43,0.87,0.71c0.19,0.28,0.28,0.61,0.28,1.01c0,0.66-0.26,1.19-0.79,1.59
		c-0.53,0.4-1.21,0.6-2.06,0.6c-0.59,0-1.12-0.1-1.57-0.31s-0.81-0.5-1.07-0.88c-0.26-0.38-0.39-0.78-0.39-1.22H73
		c0.02,0.42,0.19,0.76,0.51,1.01c0.32,0.25,0.73,0.37,1.25,0.37c0.48,0,0.86-0.1,1.15-0.29C76.2,103.9,76.35,103.64,76.35,103.32z"
		/>
	<path d="M80.45,97.89l0.03,0.82c0.54-0.64,1.27-0.96,2.19-0.96c1.03,0,1.74,0.4,2.11,1.19c0.25-0.36,0.57-0.64,0.96-0.86
		s0.86-0.33,1.4-0.33c1.62,0,2.45,0.86,2.47,2.58v4.96h-1.26v-4.88c0-0.53-0.12-0.92-0.36-1.19c-0.24-0.26-0.65-0.39-1.22-0.39
		c-0.47,0-0.86,0.14-1.17,0.42c-0.31,0.28-0.49,0.66-0.54,1.13v4.91H83.8v-4.85c0-1.08-0.53-1.61-1.58-1.61
		c-0.83,0-1.4,0.35-1.7,1.06v5.4h-1.26v-7.4H80.45z"/>
	<path d="M91.2,101.52c0-0.72,0.14-1.38,0.43-1.96s0.68-1.03,1.19-1.34s1.09-0.47,1.74-0.47c1.01,0,1.82,0.35,2.44,1.05
		s0.93,1.62,0.93,2.78v0.09c0,0.72-0.14,1.37-0.41,1.94c-0.28,0.57-0.67,1.02-1.18,1.34s-1.1,0.48-1.77,0.48
		c-1,0-1.81-0.35-2.44-1.05s-0.93-1.62-0.93-2.77V101.52z M92.47,101.67c0,0.82,0.19,1.48,0.57,1.98s0.89,0.75,1.53,0.75
		c0.64,0,1.15-0.25,1.53-0.75c0.38-0.5,0.57-1.21,0.57-2.12c0-0.81-0.19-1.47-0.58-1.97c-0.39-0.5-0.9-0.76-1.53-0.76
		c-0.62,0-1.13,0.25-1.51,0.75S92.47,100.74,92.47,101.67z"/>
	<path d="M99.21,101.52c0-1.13,0.27-2.05,0.81-2.74c0.54-0.69,1.24-1.04,2.11-1.04c0.87,0,1.55,0.3,2.06,0.89v-3.86h1.26v10.5h-1.16
		l-0.06-0.79c-0.51,0.62-1.21,0.93-2.11,0.93c-0.86,0-1.56-0.35-2.1-1.05s-0.81-1.62-0.81-2.75V101.52z M100.47,101.67
		c0,0.84,0.17,1.5,0.52,1.97s0.82,0.71,1.44,0.71c0.8,0,1.39-0.36,1.76-1.08v-3.4c-0.38-0.7-0.96-1.05-1.74-1.05
		c-0.62,0-1.1,0.24-1.45,0.72S100.47,100.73,100.47,101.67z"/>
	<path d="M112.59,96.1v1.79h1.38v0.98h-1.38v4.59c0,0.3,0.06,0.52,0.18,0.67s0.33,0.22,0.63,0.22c0.15,0,0.35-0.03,0.6-0.08v1.02
		c-0.33,0.09-0.66,0.14-0.97,0.14c-0.56,0-0.99-0.17-1.28-0.51s-0.43-0.83-0.43-1.46v-4.59h-1.35v-0.98h1.35V96.1H112.59z"/>
	<path d="M118.52,105.42c-1,0-1.82-0.33-2.45-0.99c-0.63-0.66-0.94-1.54-0.94-2.64v-0.23c0-0.73,0.14-1.39,0.42-1.97
		c0.28-0.58,0.67-1.03,1.18-1.35c0.5-0.33,1.05-0.49,1.64-0.49c0.96,0,1.71,0.32,2.24,0.95s0.8,1.54,0.8,2.72v0.53h-5.01
		c0.02,0.73,0.23,1.32,0.64,1.77c0.41,0.45,0.93,0.67,1.56,0.67c0.45,0,0.82-0.09,1.13-0.27s0.58-0.42,0.81-0.72l0.77,0.6
		C120.69,104.94,119.76,105.42,118.52,105.42z M118.36,98.79c-0.51,0-0.94,0.19-1.29,0.56c-0.35,0.37-0.56,0.89-0.64,1.56h3.71v-0.1
		c-0.04-0.64-0.21-1.14-0.52-1.49C119.31,98.97,118.89,98.79,118.36,98.79z"/>
	<path d="M124.06,97.89l0.03,0.82c0.54-0.64,1.27-0.96,2.19-0.96c1.03,0,1.74,0.4,2.11,1.19c0.25-0.36,0.57-0.64,0.96-0.86
		s0.86-0.33,1.4-0.33c1.62,0,2.45,0.86,2.47,2.58v4.96h-1.26v-4.88c0-0.53-0.12-0.92-0.36-1.19c-0.24-0.26-0.65-0.39-1.22-0.39
		c-0.47,0-0.86,0.14-1.17,0.42c-0.31,0.28-0.49,0.66-0.54,1.13v4.91h-1.27v-4.85c0-1.08-0.53-1.61-1.58-1.61
		c-0.83,0-1.4,0.35-1.7,1.06v5.4h-1.26v-7.4H124.06z"/>
	<path d="M141.39,101.67c0,1.13-0.26,2.03-0.77,2.72s-1.21,1.03-2.09,1.03c-0.9,0-1.6-0.29-2.12-0.85v3.56h-1.26V97.89h1.16
		l0.06,0.82c0.52-0.64,1.23-0.96,2.15-0.96c0.89,0,1.59,0.33,2.11,1s0.78,1.6,0.78,2.8V101.67z M140.12,101.52
		c0-0.83-0.18-1.49-0.53-1.98s-0.84-0.72-1.46-0.72c-0.77,0-1.34,0.34-1.72,1.02v3.53c0.38,0.67,0.96,1.01,1.74,1.01
		c0.61,0,1.09-0.24,1.45-0.72C139.94,103.19,140.12,102.47,140.12,101.52z"/>
	<path d="M142.66,101.52c0-0.72,0.14-1.38,0.43-1.96s0.68-1.03,1.19-1.34s1.09-0.47,1.74-0.47c1.01,0,1.82,0.35,2.44,1.05
		s0.93,1.62,0.93,2.78v0.09c0,0.72-0.14,1.37-0.41,1.94c-0.28,0.57-0.67,1.02-1.18,1.34s-1.1,0.48-1.77,0.48
		c-1,0-1.81-0.35-2.44-1.05s-0.93-1.62-0.93-2.77V101.52z M143.93,101.67c0,0.82,0.19,1.48,0.57,1.98s0.89,0.75,1.53,0.75
		c0.64,0,1.15-0.25,1.53-0.75c0.38-0.5,0.57-1.21,0.57-2.12c0-0.81-0.19-1.47-0.58-1.97c-0.39-0.5-0.9-0.76-1.53-0.76
		c-0.62,0-1.13,0.25-1.51,0.75S143.93,100.74,143.93,101.67z"/>
	<path d="M154.55,99.02c-0.19-0.03-0.4-0.05-0.62-0.05c-0.83,0-1.39,0.35-1.69,1.06v5.25h-1.26v-7.4h1.23l0.02,0.85
		c0.41-0.66,1-0.99,1.76-0.99c0.25,0,0.43,0.03,0.56,0.1V99.02z"/>
	<path d="M159.19,95.92c0-0.21,0.06-0.38,0.19-0.52s0.31-0.21,0.56-0.21s0.43,0.07,0.56,0.21s0.19,0.31,0.19,0.52
		s-0.06,0.38-0.19,0.51s-0.31,0.21-0.56,0.21s-0.43-0.07-0.56-0.21S159.19,96.13,159.19,95.92z M160.55,105.28h-1.26v-7.4h1.26
		V105.28z"/>
	<path d="M163.77,97.89l0.04,0.93c0.56-0.71,1.3-1.07,2.21-1.07c1.56,0,2.35,0.88,2.37,2.65v4.89h-1.26v-4.89
		c0-0.53-0.13-0.93-0.37-1.18s-0.61-0.38-1.12-0.38c-0.41,0-0.77,0.11-1.08,0.33s-0.55,0.51-0.72,0.86v5.27h-1.26v-7.4H163.77z"/>
	<path d="M173.27,104.39c0.45,0,0.85-0.14,1.18-0.41s0.52-0.62,0.56-1.03h1.2c-0.02,0.42-0.17,0.83-0.44,1.21s-0.63,0.69-1.08,0.92
		s-0.92,0.34-1.43,0.34c-1.01,0-1.81-0.34-2.4-1.01c-0.59-0.67-0.89-1.59-0.89-2.76v-0.21c0-0.72,0.13-1.36,0.4-1.92
		s0.64-1,1.14-1.31s1.08-0.46,1.75-0.46c0.83,0,1.52,0.25,2.07,0.75s0.84,1.14,0.88,1.93h-1.2c-0.04-0.48-0.22-0.87-0.54-1.18
		c-0.33-0.31-0.73-0.46-1.21-0.46c-0.64,0-1.14,0.23-1.49,0.69c-0.35,0.46-0.53,1.13-0.53,2.01v0.24c0,0.85,0.18,1.51,0.53,1.97
		S172.62,104.39,173.27,104.39z"/>
	<path d="M177.64,95.92c0-0.21,0.06-0.38,0.19-0.52s0.31-0.21,0.56-0.21s0.43,0.07,0.56,0.21c0.13,0.14,0.19,0.31,0.19,0.52
		s-0.06,0.38-0.19,0.51c-0.13,0.14-0.31,0.21-0.56,0.21s-0.43-0.07-0.56-0.21S177.64,96.13,177.64,95.92z M179,105.28h-1.26v-7.4
		H179V105.28z"/>
	<path d="M180.72,101.52c0-1.13,0.27-2.05,0.81-2.74c0.54-0.69,1.24-1.04,2.11-1.04c0.87,0,1.55,0.3,2.06,0.89v-3.86h1.26v10.5
		h-1.16l-0.06-0.79c-0.51,0.62-1.21,0.93-2.11,0.93c-0.86,0-1.55-0.35-2.1-1.05c-0.54-0.7-0.81-1.62-0.81-2.75V101.52z
		 M181.98,101.67c0,0.84,0.17,1.5,0.52,1.97s0.83,0.71,1.44,0.71c0.8,0,1.39-0.36,1.76-1.08v-3.4c-0.38-0.7-0.96-1.05-1.74-1.05
		c-0.62,0-1.1,0.24-1.45,0.72S181.98,100.73,181.98,101.67z"/>
	<path d="M188.93,95.92c0-0.21,0.06-0.38,0.19-0.52c0.12-0.14,0.31-0.21,0.56-0.21s0.43,0.07,0.56,0.21s0.19,0.31,0.19,0.52
		s-0.06,0.38-0.19,0.51s-0.31,0.21-0.56,0.21s-0.43-0.07-0.56-0.21C188.99,96.3,188.93,96.13,188.93,95.92z M190.3,105.28h-1.26
		v-7.4h1.26V105.28z"/>
	<path d="M192.01,101.52c0-1.13,0.27-2.05,0.81-2.74c0.54-0.69,1.24-1.04,2.11-1.04c0.87,0,1.55,0.3,2.06,0.89v-3.86h1.26v10.5
		h-1.16l-0.06-0.79c-0.51,0.62-1.21,0.93-2.11,0.93c-0.86,0-1.55-0.35-2.1-1.05c-0.54-0.7-0.81-1.62-0.81-2.75V101.52z
		 M193.28,101.67c0,0.84,0.17,1.5,0.52,1.97s0.83,0.71,1.44,0.71c0.8,0,1.39-0.36,1.76-1.08v-3.4c-0.38-0.7-0.96-1.05-1.74-1.05
		c-0.62,0-1.1,0.24-1.45,0.72S193.28,100.73,193.28,101.67z"/>
	<path d="M204.78,104.55c-0.49,0.58-1.21,0.87-2.17,0.87c-0.79,0-1.39-0.23-1.8-0.69c-0.41-0.46-0.62-1.14-0.62-2.03v-4.81h1.26
		v4.78c0,1.12,0.46,1.68,1.37,1.68c0.97,0,1.61-0.36,1.93-1.08v-5.38h1.26v7.4h-1.2L204.78,104.55z"/>
	<path d="M209.13,97.89l0.04,0.93c0.57-0.71,1.3-1.07,2.21-1.07c1.56,0,2.35,0.88,2.37,2.65v4.89h-1.26v-4.89
		c0-0.53-0.13-0.93-0.37-1.18c-0.24-0.25-0.61-0.38-1.12-0.38c-0.41,0-0.77,0.11-1.08,0.33s-0.55,0.51-0.72,0.86v5.27h-1.26v-7.4
		H209.13z"/>
	<path d="M217.37,96.1v1.79h1.38v0.98h-1.38v4.59c0,0.3,0.06,0.52,0.18,0.67s0.33,0.22,0.63,0.22c0.15,0,0.35-0.03,0.6-0.08v1.02
		c-0.33,0.09-0.66,0.14-0.97,0.14c-0.57,0-0.99-0.17-1.28-0.51s-0.43-0.83-0.43-1.46v-4.59h-1.35v-0.98h1.35V96.1H217.37z"/>
	<path d="M228.26,104.55c-0.49,0.58-1.21,0.87-2.17,0.87c-0.79,0-1.39-0.23-1.8-0.69c-0.41-0.46-0.62-1.14-0.62-2.03v-4.81h1.26
		v4.78c0,1.12,0.46,1.68,1.37,1.68c0.97,0,1.61-0.36,1.93-1.08v-5.38h1.26v7.4h-1.2L228.26,104.55z"/>
	<path d="M233.13,96.1v1.79h1.38v0.98h-1.38v4.59c0,0.3,0.06,0.52,0.18,0.67s0.33,0.22,0.63,0.22c0.15,0,0.35-0.03,0.6-0.08v1.02
		c-0.33,0.09-0.66,0.14-0.97,0.14c-0.57,0-0.99-0.17-1.28-0.51s-0.43-0.83-0.43-1.46v-4.59h-1.35v-0.98h1.35V96.1H233.13z"/>
	<path d="M240.83,105.28h-1.26v-10.5h1.26V105.28z"/>
	<path d="M247.42,105.28c-0.07-0.15-0.13-0.41-0.18-0.78c-0.59,0.61-1.29,0.92-2.11,0.92c-0.73,0-1.33-0.21-1.79-0.62
		c-0.47-0.41-0.7-0.93-0.7-1.57c0-0.77,0.29-1.37,0.88-1.79c0.59-0.43,1.41-0.64,2.47-0.64h1.23v-0.58c0-0.44-0.13-0.79-0.4-1.06
		c-0.26-0.26-0.65-0.39-1.17-0.39c-0.45,0-0.83,0.11-1.13,0.34s-0.46,0.5-0.46,0.83h-1.27c0-0.37,0.13-0.73,0.39-1.07
		c0.26-0.34,0.62-0.62,1.07-0.82c0.45-0.2,0.94-0.3,1.48-0.3c0.85,0,1.52,0.21,2,0.64c0.48,0.43,0.73,1.01,0.75,1.76v3.4
		c0,0.68,0.09,1.22,0.26,1.62v0.11H247.42z M245.32,104.32c0.4,0,0.77-0.1,1.13-0.31s0.61-0.47,0.77-0.8v-1.52h-0.99
		c-1.55,0-2.32,0.45-2.32,1.36c0,0.4,0.13,0.71,0.4,0.93S244.9,104.32,245.32,104.32z"/>
	<path d="M256.73,101.67c0,1.13-0.26,2.04-0.78,2.72c-0.52,0.69-1.22,1.03-2.09,1.03c-0.93,0-1.66-0.33-2.17-0.99l-0.06,0.85h-1.16
		v-10.5h1.26v3.92c0.51-0.63,1.21-0.95,2.11-0.95s1.6,0.34,2.12,1.02c0.51,0.68,0.77,1.61,0.77,2.79V101.67z M255.46,101.52
		c0-0.86-0.17-1.53-0.5-2s-0.81-0.7-1.44-0.7c-0.83,0-1.43,0.39-1.8,1.16v3.2c0.39,0.77,0.99,1.16,1.81,1.16
		c0.61,0,1.08-0.23,1.42-0.7S255.46,102.47,255.46,101.52z"/>
	<path d="M257.99,101.52c0-0.72,0.14-1.38,0.43-1.96c0.29-0.58,0.68-1.03,1.19-1.34c0.51-0.31,1.09-0.47,1.74-0.47
		c1.01,0,1.82,0.35,2.44,1.05c0.62,0.7,0.93,1.62,0.93,2.78v0.09c0,0.72-0.14,1.37-0.41,1.94c-0.28,0.57-0.67,1.02-1.18,1.34
		c-0.51,0.32-1.1,0.48-1.77,0.48c-1,0-1.81-0.35-2.44-1.05c-0.62-0.7-0.93-1.62-0.93-2.77V101.52z M259.26,101.67
		c0,0.82,0.19,1.48,0.57,1.98c0.38,0.5,0.89,0.75,1.53,0.75c0.64,0,1.15-0.25,1.53-0.75c0.38-0.5,0.57-1.21,0.57-2.12
		c0-0.81-0.19-1.47-0.58-1.97c-0.39-0.5-0.9-0.76-1.54-0.76c-0.62,0-1.13,0.25-1.51,0.75S259.26,100.74,259.26,101.67z"/>
	<path d="M269.88,99.02c-0.19-0.03-0.4-0.05-0.62-0.05c-0.83,0-1.39,0.35-1.69,1.06v5.25h-1.26v-7.4h1.23l0.02,0.85
		c0.42-0.66,1-0.99,1.76-0.99c0.25,0,0.43,0.03,0.56,0.1V99.02z"/>
	<path d="M273.98,105.42c-1,0-1.82-0.33-2.45-0.99c-0.63-0.66-0.94-1.54-0.94-2.64v-0.23c0-0.73,0.14-1.39,0.42-1.97
		c0.28-0.58,0.67-1.03,1.18-1.35c0.5-0.33,1.05-0.49,1.64-0.49c0.96,0,1.71,0.32,2.24,0.95s0.8,1.54,0.8,2.72v0.53h-5.01
		c0.02,0.73,0.23,1.32,0.64,1.77c0.41,0.45,0.93,0.67,1.56,0.67c0.45,0,0.83-0.09,1.13-0.27s0.58-0.42,0.81-0.72l0.77,0.6
		C276.15,104.94,275.22,105.42,273.98,105.42z M273.82,98.79c-0.51,0-0.94,0.19-1.29,0.56c-0.35,0.37-0.56,0.89-0.64,1.56h3.71v-0.1
		c-0.04-0.64-0.21-1.14-0.52-1.49C274.77,98.97,274.35,98.79,273.82,98.79z"/>
	<path d="M284.86,105.42c-1,0-1.82-0.33-2.45-0.99c-0.63-0.66-0.94-1.54-0.94-2.64v-0.23c0-0.73,0.14-1.39,0.42-1.97
		c0.28-0.58,0.67-1.03,1.18-1.35c0.5-0.33,1.05-0.49,1.64-0.49c0.96,0,1.71,0.32,2.24,0.95s0.8,1.54,0.8,2.72v0.53h-5.01
		c0.02,0.73,0.23,1.32,0.64,1.77c0.41,0.45,0.93,0.67,1.56,0.67c0.45,0,0.83-0.09,1.13-0.27s0.58-0.42,0.81-0.72l0.77,0.6
		C287.03,104.94,286.1,105.42,284.86,105.42z M284.71,98.79c-0.51,0-0.94,0.19-1.29,0.56c-0.35,0.37-0.56,0.89-0.64,1.56h3.71v-0.1
		c-0.04-0.64-0.21-1.14-0.52-1.49C285.66,98.97,285.24,98.79,284.71,98.79z"/>
	<path d="M290.93,96.1v1.79h1.38v0.98h-1.38v4.59c0,0.3,0.06,0.52,0.18,0.67s0.33,0.22,0.63,0.22c0.15,0,0.35-0.03,0.6-0.08v1.02
		c-0.33,0.09-0.66,0.14-0.97,0.14c-0.57,0-0.99-0.17-1.28-0.51s-0.43-0.83-0.43-1.46v-4.59h-1.35v-0.98h1.35V96.1H290.93z"/>
	<path d="M296.94,101.52c0-1.13,0.27-2.05,0.81-2.74c0.54-0.69,1.24-1.04,2.11-1.04c0.87,0,1.55,0.3,2.06,0.89v-3.86h1.26v10.5
		h-1.16l-0.06-0.79c-0.51,0.62-1.21,0.93-2.11,0.93c-0.86,0-1.55-0.35-2.1-1.05c-0.54-0.7-0.81-1.62-0.81-2.75V101.52z
		 M298.21,101.67c0,0.84,0.17,1.5,0.52,1.97s0.83,0.71,1.44,0.71c0.8,0,1.39-0.36,1.76-1.08v-3.4c-0.38-0.7-0.96-1.05-1.74-1.05
		c-0.62,0-1.1,0.24-1.45,0.72S298.21,100.73,298.21,101.67z"/>
	<path d="M304.81,101.52c0-0.72,0.14-1.38,0.43-1.96c0.29-0.58,0.68-1.03,1.19-1.34c0.51-0.31,1.09-0.47,1.74-0.47
		c1.01,0,1.82,0.35,2.44,1.05c0.62,0.7,0.93,1.62,0.93,2.78v0.09c0,0.72-0.14,1.37-0.41,1.94c-0.28,0.57-0.67,1.02-1.18,1.34
		c-0.51,0.32-1.1,0.48-1.77,0.48c-1,0-1.81-0.35-2.44-1.05c-0.62-0.7-0.93-1.62-0.93-2.77V101.52z M306.08,101.67
		c0,0.82,0.19,1.48,0.57,1.98c0.38,0.5,0.89,0.75,1.53,0.75c0.64,0,1.15-0.25,1.53-0.75c0.38-0.5,0.57-1.21,0.57-2.12
		c0-0.81-0.19-1.47-0.58-1.97c-0.39-0.5-0.9-0.76-1.54-0.76c-0.62,0-1.13,0.25-1.51,0.75S306.08,100.74,306.08,101.67z"/>
	<path d="M314.5,105.28h-1.26v-10.5h1.26V105.28z"/>
	<path d="M316.19,101.52c0-0.72,0.14-1.38,0.43-1.96c0.29-0.58,0.68-1.03,1.19-1.34c0.51-0.31,1.09-0.47,1.74-0.47
		c1.01,0,1.82,0.35,2.44,1.05c0.62,0.7,0.93,1.62,0.93,2.78v0.09c0,0.72-0.14,1.37-0.41,1.94c-0.28,0.57-0.67,1.02-1.18,1.34
		c-0.51,0.32-1.1,0.48-1.77,0.48c-1,0-1.81-0.35-2.44-1.05c-0.62-0.7-0.93-1.62-0.93-2.77V101.52z M317.46,101.67
		c0,0.82,0.19,1.48,0.57,1.98c0.38,0.5,0.89,0.75,1.53,0.75c0.64,0,1.15-0.25,1.53-0.75c0.38-0.5,0.57-1.21,0.57-2.12
		c0-0.81-0.19-1.47-0.58-1.97c-0.39-0.5-0.9-0.76-1.54-0.76c-0.62,0-1.13,0.25-1.51,0.75S317.46,100.74,317.46,101.67z"/>
	<path d="M328.09,99.02c-0.19-0.03-0.4-0.05-0.62-0.05c-0.83,0-1.39,0.35-1.69,1.06v5.25h-1.26v-7.4h1.23l0.02,0.85
		c0.42-0.66,1-0.99,1.76-0.99c0.25,0,0.43,0.03,0.56,0.1V99.02z"/>
	<path d="M332.19,105.42c-1,0-1.82-0.33-2.45-0.99c-0.63-0.66-0.94-1.54-0.94-2.64v-0.23c0-0.73,0.14-1.39,0.42-1.97
		c0.28-0.58,0.67-1.03,1.18-1.35c0.5-0.33,1.05-0.49,1.64-0.49c0.96,0,1.71,0.32,2.24,0.95s0.8,1.54,0.8,2.72v0.53h-5.01
		c0.02,0.73,0.23,1.32,0.64,1.77c0.41,0.45,0.93,0.67,1.56,0.67c0.45,0,0.83-0.09,1.13-0.27s0.58-0.42,0.81-0.72l0.77,0.6
		C334.36,104.94,333.43,105.42,332.19,105.42z M332.03,98.79c-0.51,0-0.94,0.19-1.29,0.56c-0.35,0.37-0.56,0.89-0.64,1.56h3.71v-0.1
		c-0.04-0.64-0.21-1.14-0.52-1.49C332.98,98.97,332.56,98.79,332.03,98.79z"/>
</g>
<g>
	<path class="st1" d="M28.52,130.17l0.47-4.61h4.74v1.09h-3.74l-0.28,2.52c0.45-0.27,0.97-0.4,1.54-0.4c0.84,0,1.51,0.28,2.01,0.83
		s0.74,1.31,0.74,2.26c0,0.95-0.26,1.7-0.77,2.25c-0.51,0.55-1.23,0.82-2.16,0.82c-0.82,0-1.48-0.23-2-0.68
		c-0.52-0.45-0.81-1.08-0.88-1.88h1.11c0.07,0.53,0.26,0.93,0.56,1.2s0.71,0.4,1.21,0.4c0.55,0,0.97-0.19,1.29-0.56
		c0.31-0.37,0.47-0.89,0.47-1.54c0-0.62-0.17-1.11-0.5-1.49c-0.34-0.38-0.78-0.56-1.34-0.56c-0.51,0-0.91,0.11-1.21,0.34l-0.31,0.25
		L28.52,130.17z"/>
	<path class="st1" d="M41.08,130.87c0,1.38-0.23,2.4-0.7,3.07s-1.2,1-2.2,1c-0.99,0-1.72-0.33-2.19-0.98
		c-0.47-0.65-0.72-1.63-0.74-2.93v-1.57c0-1.36,0.23-2.37,0.7-3.03s1.21-0.99,2.21-0.99c0.99,0,1.73,0.32,2.2,0.96
		s0.71,1.62,0.72,2.95V130.87z M39.9,129.26c0-0.99-0.14-1.72-0.42-2.17s-0.72-0.68-1.33-0.68c-0.6,0-1.04,0.23-1.31,0.68
		c-0.27,0.45-0.42,1.15-0.43,2.09v1.88c0,1,0.15,1.74,0.43,2.21c0.29,0.48,0.73,0.71,1.32,0.71c0.58,0,1.01-0.22,1.29-0.67
		c0.28-0.45,0.43-1.16,0.44-2.12V129.26z"/>
</g>
<path class="st3" d="M15.01,126.33v-2.38c0-0.99-0.8-1.79-1.79-1.79l-2.38,5.36v6.55h6.72c0.59,0.01,1.1-0.43,1.19-1.01l0.82-5.36
	c0.1-0.65-0.35-1.26-1-1.36c-0.06-0.01-0.13-0.01-0.19-0.01H15.01z M10.84,134.07H9.05c-0.66,0-1.19-0.53-1.19-1.19v-4.17
	c0-0.66,0.53-1.19,1.19-1.19h1.79"/>
<g>
	<path class="st1" d="M275.32,130.18l0.47-4.61h4.74v1.09h-3.74l-0.28,2.52c0.45-0.27,0.97-0.4,1.54-0.4c0.84,0,1.51,0.28,2.01,0.83
		s0.74,1.31,0.74,2.26c0,0.95-0.26,1.7-0.77,2.25c-0.51,0.55-1.23,0.82-2.16,0.82c-0.82,0-1.48-0.23-2-0.68
		c-0.52-0.45-0.81-1.08-0.88-1.88h1.11c0.07,0.53,0.26,0.93,0.57,1.2s0.71,0.4,1.21,0.4c0.55,0,0.97-0.19,1.29-0.56
		c0.31-0.37,0.47-0.89,0.47-1.54c0-0.62-0.17-1.11-0.5-1.49c-0.34-0.38-0.78-0.56-1.34-0.56c-0.51,0-0.91,0.11-1.21,0.34l-0.31,0.25
		L275.32,130.18z"/>
	<path class="st1" d="M287.87,130.87c0,1.38-0.24,2.4-0.7,3.07c-0.47,0.67-1.2,1-2.2,1c-0.99,0-1.72-0.33-2.19-0.98
		c-0.47-0.65-0.72-1.63-0.74-2.93v-1.57c0-1.36,0.23-2.37,0.7-3.03s1.21-0.99,2.21-0.99c0.99,0,1.73,0.32,2.2,0.96
		s0.71,1.62,0.72,2.95V130.87z M286.7,129.26c0-0.99-0.14-1.72-0.42-2.17s-0.72-0.68-1.33-0.68c-0.6,0-1.04,0.23-1.31,0.68
		c-0.28,0.45-0.42,1.15-0.43,2.09v1.88c0,1,0.14,1.74,0.43,2.21c0.29,0.48,0.73,0.71,1.32,0.71c0.58,0,1.01-0.22,1.29-0.67
		c0.28-0.45,0.43-1.16,0.44-2.12V129.26z"/>
	<path class="st1" d="M295.47,133.98c0.42,0,0.79-0.13,1.1-0.38c0.31-0.25,0.49-0.57,0.52-0.95h1.11c-0.02,0.39-0.16,0.77-0.41,1.12
		s-0.58,0.64-1,0.85s-0.86,0.32-1.32,0.32c-0.94,0-1.68-0.31-2.23-0.94c-0.55-0.62-0.83-1.48-0.83-2.56v-0.2
		c0-0.67,0.12-1.26,0.37-1.78c0.25-0.52,0.6-0.92,1.06-1.21s1-0.43,1.63-0.43c0.77,0,1.41,0.23,1.92,0.69
		c0.51,0.46,0.78,1.06,0.82,1.8h-1.11c-0.03-0.44-0.2-0.81-0.5-1.09c-0.3-0.29-0.68-0.43-1.12-0.43c-0.6,0-1.06,0.21-1.39,0.64
		s-0.49,1.05-0.49,1.86v0.22c0,0.79,0.16,1.4,0.49,1.83S294.86,133.98,295.47,133.98z"/>
	<path class="st1" d="M299.21,131.31c0-0.67,0.13-1.28,0.4-1.81c0.26-0.54,0.63-0.95,1.1-1.24c0.47-0.29,1.01-0.44,1.62-0.44
		c0.94,0,1.69,0.32,2.27,0.97c0.58,0.65,0.87,1.51,0.87,2.58v0.08c0,0.67-0.13,1.27-0.38,1.8s-0.62,0.95-1.1,1.24
		c-0.48,0.3-1.02,0.44-1.64,0.44c-0.93,0-1.69-0.32-2.26-0.97c-0.58-0.65-0.87-1.5-0.87-2.57V131.31z M300.39,131.45
		c0,0.76,0.18,1.37,0.53,1.83s0.83,0.69,1.42,0.69c0.6,0,1.07-0.23,1.42-0.7s0.53-1.12,0.53-1.96c0-0.75-0.18-1.36-0.54-1.83
		s-0.83-0.7-1.42-0.7c-0.58,0-1.05,0.23-1.4,0.69C300.57,129.93,300.39,130.59,300.39,131.45z"/>
	<path class="st1" d="M308.04,127.94l0.03,0.76c0.5-0.59,1.18-0.89,2.04-0.89c0.96,0,1.61,0.37,1.96,1.1
		c0.23-0.33,0.53-0.6,0.89-0.8s0.8-0.3,1.3-0.3c1.51,0,2.27,0.8,2.3,2.39v4.6h-1.17v-4.53c0-0.49-0.11-0.86-0.34-1.1
		s-0.6-0.36-1.13-0.36c-0.44,0-0.8,0.13-1.09,0.39c-0.29,0.26-0.45,0.61-0.5,1.05v4.56h-1.18v-4.5c0-1-0.49-1.5-1.47-1.5
		c-0.77,0-1.3,0.33-1.58,0.98v5.01h-1.17v-6.87H308.04z"/>
	<path class="st1" d="M319.43,127.94l0.03,0.76c0.5-0.59,1.18-0.89,2.04-0.89c0.96,0,1.61,0.37,1.96,1.1
		c0.23-0.33,0.53-0.6,0.89-0.8s0.8-0.3,1.3-0.3c1.51,0,2.27,0.8,2.3,2.39v4.6h-1.17v-4.53c0-0.49-0.11-0.86-0.34-1.1
		s-0.6-0.36-1.13-0.36c-0.44,0-0.8,0.13-1.09,0.39c-0.29,0.26-0.45,0.61-0.5,1.05v4.56h-1.18v-4.5c0-1-0.49-1.5-1.47-1.5
		c-0.77,0-1.3,0.33-1.58,0.98v5.01h-1.17v-6.87H319.43z"/>
	<path class="st1" d="M332.57,134.94c-0.93,0-1.69-0.31-2.27-0.92s-0.88-1.43-0.88-2.45v-0.21c0-0.68,0.13-1.29,0.39-1.83
		c0.26-0.54,0.62-0.95,1.09-1.26s0.97-0.45,1.52-0.45c0.89,0,1.59,0.29,2.08,0.88c0.5,0.59,0.74,1.43,0.74,2.53v0.49h-4.65
		c0.02,0.68,0.21,1.22,0.59,1.64s0.86,0.62,1.44,0.62c0.41,0,0.77-0.08,1.05-0.25c0.29-0.17,0.54-0.39,0.76-0.67l0.72,0.56
		C334.59,134.49,333.72,134.94,332.57,134.94z M332.43,128.78c-0.47,0-0.87,0.17-1.19,0.52s-0.52,0.83-0.6,1.45h3.44v-0.09
		c-0.03-0.6-0.19-1.06-0.48-1.39S332.92,128.78,332.43,128.78z"/>
	<path class="st1" d="M337.72,127.94l0.04,0.86c0.53-0.66,1.21-0.99,2.06-0.99c1.45,0,2.18,0.82,2.2,2.46v4.54h-1.17v-4.54
		c0-0.5-0.12-0.86-0.34-1.1c-0.22-0.24-0.57-0.36-1.04-0.36c-0.38,0-0.71,0.1-1,0.3c-0.29,0.2-0.51,0.47-0.67,0.8v4.89h-1.17v-6.87
		H337.72z"/>
	<path class="st1" d="M345.38,126.28v1.66h1.28v0.91h-1.28v4.26c0,0.28,0.06,0.48,0.17,0.62s0.31,0.21,0.58,0.21
		c0.14,0,0.32-0.03,0.56-0.08v0.95c-0.31,0.08-0.61,0.13-0.9,0.13c-0.52,0-0.92-0.16-1.19-0.48c-0.27-0.32-0.4-0.77-0.4-1.35v-4.26
		h-1.25v-0.91h1.25v-1.66H345.38z"/>
	<path class="st1" d="M352.03,132.99c0-0.32-0.12-0.56-0.36-0.74s-0.66-0.33-1.25-0.45s-1.07-0.28-1.42-0.46
		c-0.35-0.18-0.61-0.39-0.77-0.63c-0.17-0.25-0.25-0.54-0.25-0.88c0-0.56,0.24-1.04,0.71-1.43c0.48-0.39,1.08-0.58,1.83-0.58
		c0.78,0,1.41,0.2,1.89,0.6c0.48,0.4,0.73,0.92,0.73,1.54h-1.18c0-0.32-0.14-0.6-0.41-0.83c-0.27-0.23-0.62-0.35-1.03-0.35
		c-0.43,0-0.76,0.09-1,0.28s-0.36,0.43-0.36,0.73c0,0.28,0.11,0.5,0.34,0.64s0.63,0.28,1.22,0.41c0.59,0.13,1.06,0.29,1.42,0.47
		c0.36,0.18,0.63,0.4,0.81,0.66s0.26,0.57,0.26,0.94c0,0.61-0.25,1.11-0.74,1.48c-0.49,0.37-1.13,0.56-1.91,0.56
		c-0.55,0-1.04-0.1-1.46-0.29s-0.75-0.47-0.99-0.82c-0.24-0.35-0.36-0.73-0.36-1.13h1.17c0.02,0.39,0.18,0.71,0.47,0.94
		s0.68,0.35,1.17,0.35c0.44,0,0.8-0.09,1.07-0.27S352.03,133.29,352.03,132.99z"/>
</g>
<line class="st4" x1="4.97" y1="149.87" x2="350.89" y2="149.87"/>
<g>
	<path class="st5" d="M303.56,170.89c-1.04-0.3-1.81-0.67-2.28-1.11c-0.48-0.44-0.71-0.98-0.71-1.62c0-0.73,0.29-1.33,0.87-1.81
		c0.58-0.48,1.34-0.71,2.27-0.71c0.63,0,1.2,0.12,1.7,0.37s0.88,0.58,1.16,1.02c0.27,0.43,0.41,0.9,0.41,1.42h-1.23
		c0-0.56-0.18-1-0.53-1.32s-0.86-0.48-1.5-0.48c-0.6,0-1.07,0.13-1.41,0.4c-0.34,0.26-0.5,0.63-0.5,1.1c0,0.38,0.16,0.7,0.48,0.96
		s0.86,0.5,1.63,0.72c0.77,0.22,1.37,0.45,1.8,0.71c0.43,0.26,0.76,0.56,0.96,0.91c0.21,0.35,0.31,0.76,0.31,1.23
		c0,0.75-0.29,1.35-0.88,1.8c-0.58,0.45-1.37,0.68-2.34,0.68c-0.63,0-1.23-0.12-1.78-0.37c-0.55-0.24-0.97-0.58-1.27-1
		c-0.3-0.42-0.45-0.9-0.45-1.44h1.22c0,0.56,0.21,1,0.62,1.32c0.41,0.32,0.96,0.49,1.65,0.49c0.64,0,1.14-0.13,1.48-0.39
		c0.34-0.26,0.51-0.62,0.51-1.07s-0.16-0.8-0.48-1.05C304.97,171.37,304.4,171.13,303.56,170.89z"/>
	<path class="st5" d="M309.54,168.97c0.52-0.64,1.2-0.96,2.03-0.96c1.45,0,2.18,0.82,2.2,2.46v4.54h-1.17v-4.54
		c0-0.5-0.12-0.86-0.34-1.1c-0.22-0.24-0.57-0.36-1.04-0.36c-0.38,0-0.71,0.1-1,0.3c-0.29,0.2-0.51,0.47-0.67,0.8v4.89h-1.17v-9.75
		h1.17V168.97z"/>
	<path class="st5" d="M319.77,175.01c-0.07-0.14-0.12-0.38-0.17-0.72c-0.55,0.57-1.2,0.85-1.96,0.85c-0.68,0-1.23-0.19-1.67-0.57
		s-0.65-0.87-0.65-1.46c0-0.71,0.27-1.27,0.82-1.67s1.31-0.59,2.29-0.59h1.14v-0.54c0-0.41-0.12-0.74-0.37-0.98
		c-0.25-0.24-0.61-0.36-1.08-0.36c-0.42,0-0.77,0.11-1.05,0.32c-0.28,0.21-0.43,0.47-0.43,0.77h-1.18c0-0.34,0.12-0.67,0.36-0.99
		s0.57-0.57,0.99-0.76s0.88-0.28,1.37-0.28c0.79,0,1.41,0.2,1.86,0.59s0.68,0.94,0.7,1.63v3.16c0,0.63,0.08,1.13,0.24,1.5v0.1
		H319.77z M317.82,174.11c0.37,0,0.72-0.1,1.05-0.29s0.57-0.44,0.72-0.74v-1.41h-0.92c-1.44,0-2.16,0.42-2.16,1.26
		c0,0.37,0.12,0.66,0.37,0.86S317.43,174.11,317.82,174.11z"/>
	<path class="st5" d="M325.92,169.19c-0.18-0.03-0.37-0.04-0.58-0.04c-0.77,0-1.29,0.33-1.57,0.98v4.88h-1.17v-6.87h1.14l0.02,0.79
		c0.38-0.61,0.93-0.92,1.64-0.92c0.23,0,0.4,0.03,0.52,0.09V169.19z"/>
	<path class="st5" d="M329.73,175.13c-0.93,0-1.69-0.31-2.27-0.92s-0.88-1.43-0.88-2.45v-0.21c0-0.68,0.13-1.29,0.39-1.83
		c0.26-0.54,0.62-0.95,1.09-1.26s0.97-0.45,1.52-0.45c0.89,0,1.59,0.29,2.08,0.88c0.5,0.59,0.74,1.43,0.74,2.53v0.49h-4.65
		c0.02,0.68,0.21,1.22,0.59,1.64s0.86,0.62,1.44,0.62c0.41,0,0.77-0.08,1.05-0.25c0.29-0.17,0.54-0.39,0.76-0.67l0.72,0.56
		C331.74,174.69,330.88,175.13,329.73,175.13z M329.58,168.98c-0.47,0-0.87,0.17-1.19,0.52s-0.52,0.83-0.6,1.45h3.44v-0.09
		c-0.03-0.6-0.19-1.06-0.48-1.39S330.07,168.98,329.58,168.98z"/>
</g>
<polyline class="st6" points="285.02,171.44 289.58,166.88 285.02,162.32 "/>
<path class="st6" d="M274.99,176.91v-6.39c0-2.02,1.63-3.65,3.65-3.65h10.95"/>
<g>
	<path class="st1" d="M174.01,171.99c-0.11,0.98-0.47,1.73-1.08,2.26s-1.42,0.8-2.42,0.8c-1.09,0-1.97-0.39-2.62-1.17
		c-0.66-0.78-0.99-1.83-0.99-3.14v-0.89c0-0.86,0.15-1.61,0.46-2.27c0.31-0.65,0.74-1.15,1.3-1.5c0.56-0.35,1.21-0.52,1.96-0.52
		c0.98,0,1.77,0.27,2.36,0.82c0.59,0.55,0.94,1.31,1.04,2.28h-1.22c-0.11-0.74-0.34-1.27-0.69-1.6s-0.85-0.5-1.48-0.5
		c-0.78,0-1.39,0.29-1.83,0.86s-0.66,1.4-0.66,2.46v0.9c0,1,0.21,1.8,0.63,2.4c0.42,0.59,1,0.89,1.76,0.89
		c0.68,0,1.2-0.15,1.56-0.46c0.36-0.31,0.6-0.84,0.72-1.6H174.01z"/>
	<path class="st1" d="M175.18,171.43c0-0.67,0.13-1.28,0.4-1.81c0.26-0.54,0.63-0.95,1.1-1.24c0.47-0.29,1.01-0.44,1.62-0.44
		c0.94,0,1.69,0.32,2.27,0.97c0.58,0.65,0.87,1.51,0.87,2.58v0.08c0,0.67-0.13,1.27-0.38,1.8s-0.62,0.95-1.1,1.24
		c-0.48,0.3-1.02,0.44-1.64,0.44c-0.93,0-1.69-0.32-2.26-0.97c-0.58-0.65-0.87-1.5-0.87-2.57V171.43z M176.36,171.57
		c0,0.76,0.18,1.37,0.53,1.83s0.83,0.69,1.42,0.69c0.6,0,1.07-0.23,1.42-0.7s0.53-1.12,0.53-1.96c0-0.75-0.18-1.36-0.54-1.83
		s-0.83-0.7-1.42-0.7c-0.58,0-1.05,0.23-1.4,0.69C176.54,170.05,176.36,170.71,176.36,171.57z"/>
	<path class="st1" d="M184.01,168.06l0.03,0.76c0.5-0.59,1.18-0.89,2.04-0.89c0.96,0,1.61,0.37,1.96,1.1
		c0.23-0.33,0.53-0.6,0.89-0.8s0.8-0.3,1.3-0.3c1.51,0,2.27,0.8,2.3,2.39v4.6h-1.17v-4.53c0-0.49-0.11-0.86-0.34-1.1
		s-0.6-0.36-1.13-0.36c-0.44,0-0.8,0.13-1.09,0.39c-0.29,0.26-0.45,0.61-0.5,1.05v4.56h-1.18v-4.5c0-1-0.49-1.5-1.47-1.5
		c-0.77,0-1.3,0.33-1.58,0.98v5.01h-1.17v-6.87H184.01z"/>
	<path class="st1" d="M195.41,168.06l0.03,0.76c0.5-0.59,1.18-0.89,2.04-0.89c0.96,0,1.61,0.37,1.96,1.1
		c0.23-0.33,0.53-0.6,0.89-0.8s0.8-0.3,1.3-0.3c1.51,0,2.27,0.8,2.3,2.39v4.6h-1.17v-4.53c0-0.49-0.11-0.86-0.34-1.1
		s-0.6-0.36-1.13-0.36c-0.44,0-0.8,0.13-1.09,0.39c-0.29,0.26-0.45,0.61-0.5,1.05v4.56h-1.18v-4.5c0-1-0.49-1.5-1.47-1.5
		c-0.77,0-1.3,0.33-1.58,0.98v5.01h-1.17v-6.87H195.41z"/>
	<path class="st1" d="M208.54,175.05c-0.93,0-1.69-0.31-2.27-0.92s-0.88-1.43-0.88-2.45v-0.21c0-0.68,0.13-1.29,0.39-1.83
		c0.26-0.54,0.62-0.95,1.09-1.26s0.97-0.45,1.52-0.45c0.89,0,1.59,0.29,2.08,0.88c0.5,0.59,0.74,1.43,0.74,2.53v0.49h-4.65
		c0.02,0.68,0.21,1.22,0.59,1.64s0.86,0.62,1.44,0.62c0.41,0,0.77-0.08,1.05-0.25c0.29-0.17,0.54-0.39,0.76-0.67l0.72,0.56
		C210.56,174.61,209.7,175.05,208.54,175.05z M208.4,168.9c-0.47,0-0.87,0.17-1.19,0.52s-0.52,0.83-0.6,1.45h3.44v-0.09
		c-0.03-0.6-0.19-1.06-0.48-1.39S208.89,168.9,208.4,168.9z"/>
	<path class="st1" d="M213.69,168.06l0.04,0.86c0.53-0.66,1.21-0.99,2.06-0.99c1.45,0,2.18,0.82,2.2,2.46v4.54h-1.17v-4.54
		c0-0.5-0.12-0.86-0.34-1.1c-0.22-0.24-0.57-0.36-1.04-0.36c-0.38,0-0.71,0.1-1,0.3c-0.29,0.2-0.51,0.47-0.67,0.8v4.89h-1.17v-6.87
		H213.69z"/>
	<path class="st1" d="M221.35,166.4v1.66h1.28v0.91h-1.28v4.26c0,0.28,0.06,0.48,0.17,0.62s0.31,0.21,0.58,0.21
		c0.14,0,0.32-0.03,0.56-0.08v0.95c-0.31,0.08-0.61,0.13-0.9,0.13c-0.52,0-0.92-0.16-1.19-0.48c-0.27-0.32-0.4-0.77-0.4-1.35v-4.26
		h-1.25v-0.91h1.25v-1.66H221.35z"/>
</g>
<path class="st6" d="M157.82,174.28c0,0.96-0.78,1.74-1.74,1.74h-10.44l-3.48,3.48v-13.92c0-0.96,0.78-1.74,1.74-1.74h12.18
	c0.96,0,1.74,0.78,1.74,1.74V174.28z"/>
<g>
	<path class="st1" d="M60.42,174.01h4.38v1h-5.6v-9.24h1.23V174.01z"/>
	<path class="st1" d="M66.01,166.32c0-0.19,0.06-0.35,0.17-0.48c0.12-0.13,0.29-0.2,0.52-0.2s0.4,0.07,0.52,0.2
		c0.12,0.13,0.18,0.29,0.18,0.48c0,0.19-0.06,0.35-0.18,0.48s-0.29,0.19-0.52,0.19s-0.4-0.06-0.52-0.19
		C66.07,166.67,66.01,166.51,66.01,166.32z M67.28,175.01h-1.17v-6.87h1.17V175.01z"/>
	<path class="st1" d="M71.08,171.83l-0.74,0.77v2.41h-1.17v-9.75h1.17v5.9l0.63-0.75l2.14-2.26h1.43l-2.67,2.87l2.98,4h-1.38
		L71.08,171.83z"/>
	<path class="st1" d="M78.47,175.13c-0.93,0-1.69-0.31-2.27-0.92s-0.88-1.43-0.88-2.45v-0.21c0-0.68,0.13-1.29,0.39-1.83
		c0.26-0.54,0.62-0.95,1.09-1.26c0.47-0.3,0.97-0.45,1.52-0.45c0.89,0,1.59,0.29,2.08,0.88c0.5,0.59,0.74,1.43,0.74,2.53v0.49H76.5
		c0.02,0.68,0.21,1.22,0.59,1.64c0.38,0.42,0.86,0.62,1.44,0.62c0.41,0,0.77-0.08,1.05-0.25c0.29-0.17,0.54-0.39,0.76-0.67
		l0.72,0.56C80.49,174.69,79.62,175.13,78.47,175.13z M78.33,168.98c-0.47,0-0.87,0.17-1.19,0.52s-0.52,0.83-0.6,1.45h3.44v-0.09
		c-0.03-0.6-0.19-1.06-0.48-1.39S78.82,168.98,78.33,168.98z"/>
</g>
<path class="st6" d="M44.52,167.08v-3.39c0-1.4-1.14-2.54-2.54-2.54l-3.39,7.62v9.31h9.55c0.84,0.01,1.57-0.6,1.69-1.44l1.17-7.62
	c0.14-0.92-0.5-1.79-1.42-1.93c-0.09-0.01-0.18-0.02-0.27-0.02H44.52z M38.59,178.08h-2.54c-0.94,0-1.69-0.76-1.69-1.69v-5.93
	c0-0.94,0.76-1.69,1.69-1.69h2.54"/>
<rect x="0" y="189.36" class="st7" width="360" height="8.9"/>
<circle class="st0" cx="337.77" cy="220.65" r="0.93"/>
<circle class="st0" cx="344.32" cy="220.65" r="0.93"/>
<circle class="st0" cx="331.23" cy="220.65" r="0.93"/>
<g>
	<path d="M61.53,215.39v7.02c0,1.17-0.37,2.09-1.09,2.77c-0.73,0.68-1.73,1.02-2.99,1.02c-1.25,0-2.23-0.33-2.97-0.99
		s-1.11-1.56-1.12-2.72v-7.1h2.2v7.04c0,0.7,0.17,1.21,0.5,1.53c0.33,0.32,0.8,0.48,1.39,0.48c1.24,0,1.86-0.65,1.88-1.95v-7.1
		H61.53z"/>
	<path d="M67.49,223.86c0-0.26-0.13-0.46-0.38-0.61c-0.26-0.15-0.67-0.28-1.23-0.4c-1.88-0.4-2.83-1.2-2.83-2.4
		c0-0.7,0.29-1.29,0.88-1.76c0.58-0.47,1.35-0.71,2.29-0.71c1.01,0,1.81,0.24,2.41,0.71s0.9,1.09,0.9,1.85h-2.12
		c0-0.3-0.1-0.55-0.29-0.75c-0.2-0.2-0.5-0.3-0.92-0.3c-0.36,0-0.63,0.08-0.83,0.24s-0.29,0.37-0.29,0.62
		c0,0.23,0.11,0.42,0.33,0.57c0.22,0.14,0.6,0.27,1.12,0.37c0.53,0.11,0.97,0.22,1.33,0.36c1.12,0.41,1.68,1.12,1.68,2.13
		c0,0.72-0.31,1.31-0.93,1.75c-0.62,0.45-1.42,0.67-2.4,0.67c-0.66,0-1.25-0.12-1.77-0.36s-0.92-0.56-1.21-0.97
		c-0.29-0.41-0.44-0.86-0.44-1.34h2.01c0.02,0.38,0.16,0.66,0.42,0.86s0.61,0.3,1.04,0.3c0.41,0,0.71-0.08,0.92-0.23
		C67.38,224.32,67.49,224.11,67.49,223.86z"/>
	<path d="M74.56,226.2c-1.16,0-2.11-0.36-2.84-1.07s-1.09-1.66-1.09-2.85v-0.21c0-0.8,0.15-1.51,0.46-2.13
		c0.31-0.63,0.74-1.11,1.31-1.45c0.56-0.34,1.21-0.51,1.93-0.51c1.08,0,1.94,0.34,2.56,1.03c0.62,0.68,0.93,1.65,0.93,2.91v0.86
		h-5.05c0.07,0.52,0.27,0.93,0.62,1.25c0.34,0.31,0.78,0.47,1.31,0.47c0.82,0,1.45-0.29,1.91-0.89l1.04,1.16
		c-0.32,0.45-0.75,0.8-1.29,1.05C75.82,226.08,75.21,226.2,74.56,226.2z M74.31,219.69c-0.42,0-0.76,0.14-1.02,0.43
		c-0.26,0.29-0.43,0.69-0.5,1.22h2.94v-0.17c-0.01-0.47-0.14-0.83-0.38-1.09C75.11,219.82,74.76,219.69,74.31,219.69z"/>
	<path d="M83.47,220.11c-0.29-0.04-0.54-0.06-0.76-0.06c-0.8,0-1.33,0.27-1.57,0.81v5.19h-2.12v-7.92h2l0.06,0.94
		c0.42-0.73,1.01-1.09,1.77-1.09c0.23,0,0.45,0.03,0.66,0.09L83.47,220.11z"/>
</g>
<g>
	<path class="st1" d="M57.23,241.18h1.28v0.96h-1.28v2.15h-1.18v-2.15h-4.21v-0.69l4.14-6.4h1.25V241.18z M53.17,241.18h2.88v-4.53
		l-0.14,0.25L53.17,241.18z"/>
	<path class="st1" d="M62.62,240.8c0-1.05,0.25-1.9,0.75-2.54c0.5-0.64,1.15-0.96,1.96-0.96c0.8,0,1.44,0.28,1.91,0.83v-3.58h1.17
		v9.75h-1.08l-0.06-0.74c-0.47,0.58-1.12,0.86-1.96,0.86c-0.8,0-1.44-0.33-1.95-0.98c-0.5-0.65-0.75-1.5-0.75-2.55V240.8z
		 M63.8,240.93c0,0.78,0.16,1.39,0.48,1.83c0.32,0.44,0.77,0.66,1.33,0.66c0.74,0,1.29-0.33,1.63-1v-3.15
		c-0.35-0.65-0.89-0.97-1.62-0.97c-0.58,0-1.02,0.22-1.35,0.67S63.8,240.06,63.8,240.93z"/>
</g>
<circle class="st2" cx="26.11" cy="231.28" r="17.5"/>
<g>
	<path d="M11.65,274.33h4.38v1h-5.6v-9.24h1.23V274.33z"/>
	<path d="M16.92,271.83c0-0.67,0.13-1.28,0.4-1.81c0.26-0.54,0.63-0.95,1.1-1.24c0.47-0.29,1.01-0.44,1.62-0.44
		c0.94,0,1.69,0.32,2.27,0.97c0.58,0.65,0.87,1.51,0.87,2.58v0.08c0,0.67-0.13,1.27-0.38,1.8c-0.26,0.53-0.62,0.95-1.1,1.24
		c-0.48,0.3-1.02,0.44-1.64,0.44c-0.93,0-1.69-0.32-2.26-0.97c-0.58-0.65-0.87-1.5-0.87-2.57V271.83z M18.1,271.97
		c0,0.76,0.18,1.37,0.53,1.83c0.35,0.46,0.83,0.69,1.42,0.69c0.6,0,1.07-0.23,1.42-0.7s0.53-1.12,0.53-1.96
		c0-0.75-0.18-1.36-0.54-1.83c-0.36-0.47-0.83-0.7-1.42-0.7c-0.58,0-1.05,0.23-1.4,0.69C18.28,270.45,18.1,271.11,18.1,271.97z"/>
	<path d="M27.97,269.51c-0.18-0.03-0.37-0.04-0.58-0.04c-0.77,0-1.29,0.33-1.57,0.98v4.88h-1.17v-6.87h1.14l0.02,0.79
		c0.39-0.61,0.93-0.92,1.64-0.92c0.23,0,0.4,0.03,0.52,0.09V269.51z"/>
	<path d="M31.78,275.45c-0.93,0-1.69-0.31-2.27-0.92s-0.88-1.43-0.88-2.45v-0.21c0-0.68,0.13-1.29,0.39-1.83
		c0.26-0.54,0.62-0.95,1.09-1.26c0.47-0.3,0.97-0.45,1.52-0.45c0.89,0,1.59,0.29,2.08,0.88c0.5,0.59,0.74,1.43,0.74,2.53v0.49H29.8
		c0.02,0.68,0.21,1.22,0.59,1.64c0.38,0.42,0.86,0.62,1.44,0.62c0.41,0,0.77-0.08,1.05-0.25c0.29-0.17,0.54-0.39,0.76-0.67
		l0.72,0.56C33.79,275.01,32.93,275.45,31.78,275.45z M31.63,269.29c-0.47,0-0.87,0.17-1.19,0.52s-0.52,0.83-0.6,1.45h3.44v-0.09
		c-0.03-0.6-0.19-1.06-0.48-1.39S32.12,269.29,31.63,269.29z"/>
	<path d="M36.92,268.46l0.03,0.76c0.5-0.59,1.18-0.89,2.04-0.89c0.96,0,1.61,0.37,1.96,1.1c0.23-0.33,0.53-0.6,0.89-0.8
		c0.37-0.2,0.8-0.3,1.3-0.3c1.51,0,2.27,0.8,2.3,2.39v4.6h-1.17v-4.53c0-0.49-0.11-0.86-0.34-1.1s-0.6-0.36-1.13-0.36
		c-0.44,0-0.8,0.13-1.09,0.39c-0.29,0.26-0.46,0.61-0.5,1.05v4.56h-1.18v-4.5c0-1-0.49-1.5-1.47-1.5c-0.77,0-1.3,0.33-1.58,0.98
		v5.01h-1.17v-6.87H36.92z"/>
	<path d="M51.92,275.33H50.7v-9.24h1.22V275.33z"/>
	<path d="M59.76,271.97c0,1.04-0.24,1.89-0.72,2.53c-0.48,0.64-1.13,0.96-1.94,0.96c-0.83,0-1.49-0.26-1.97-0.79v3.31h-1.17v-9.51
		h1.07l0.06,0.76c0.48-0.59,1.14-0.89,1.99-0.89c0.83,0,1.48,0.31,1.96,0.93c0.48,0.62,0.72,1.49,0.72,2.6V271.97z M58.59,271.83
		c0-0.77-0.17-1.39-0.5-1.83c-0.33-0.45-0.78-0.67-1.36-0.67c-0.71,0-1.24,0.31-1.6,0.95v3.28c0.35,0.63,0.89,0.94,1.61,0.94
		c0.56,0,1.01-0.22,1.34-0.67C58.42,273.38,58.59,272.71,58.59,271.83z"/>
	<path d="M65.25,273.5c0-0.32-0.12-0.56-0.36-0.74c-0.24-0.18-0.66-0.33-1.25-0.45c-0.59-0.13-1.07-0.28-1.42-0.46
		c-0.35-0.18-0.61-0.39-0.77-0.63c-0.17-0.25-0.25-0.54-0.25-0.88c0-0.56,0.24-1.04,0.71-1.43c0.48-0.39,1.08-0.58,1.83-0.58
		c0.78,0,1.41,0.2,1.89,0.6c0.48,0.4,0.73,0.92,0.73,1.54h-1.18c0-0.32-0.14-0.6-0.41-0.83c-0.27-0.23-0.62-0.35-1.03-0.35
		c-0.43,0-0.76,0.09-1,0.28s-0.36,0.43-0.36,0.73c0,0.28,0.11,0.5,0.34,0.64s0.63,0.28,1.22,0.41c0.59,0.13,1.06,0.29,1.42,0.47
		c0.36,0.18,0.63,0.4,0.81,0.66c0.18,0.26,0.26,0.57,0.26,0.94c0,0.61-0.25,1.11-0.74,1.48s-1.13,0.56-1.91,0.56
		c-0.55,0-1.04-0.1-1.46-0.29s-0.75-0.47-0.99-0.82c-0.24-0.35-0.36-0.73-0.36-1.13h1.17c0.02,0.39,0.18,0.71,0.47,0.94
		c0.29,0.23,0.68,0.35,1.17,0.35c0.44,0,0.8-0.09,1.07-0.27C65.12,274.04,65.25,273.8,65.25,273.5z"/>
	<path d="M72.2,274.65c-0.46,0.54-1.13,0.81-2.01,0.81c-0.73,0-1.29-0.21-1.67-0.64c-0.38-0.43-0.58-1.05-0.58-1.89v-4.47h1.17v4.44
		c0,1.04,0.42,1.56,1.27,1.56c0.9,0,1.49-0.33,1.79-1v-5h1.17v6.87h-1.12L72.2,274.65z"/>
	<path d="M76.23,268.46l0.03,0.76c0.5-0.59,1.18-0.89,2.04-0.89c0.96,0,1.61,0.37,1.96,1.1c0.23-0.33,0.53-0.6,0.89-0.8
		c0.37-0.2,0.8-0.3,1.3-0.3c1.51,0,2.27,0.8,2.3,2.39v4.6h-1.17v-4.53c0-0.49-0.11-0.86-0.34-1.1s-0.6-0.36-1.13-0.36
		c-0.44,0-0.8,0.13-1.09,0.39c-0.29,0.26-0.46,0.61-0.5,1.05v4.56h-1.18v-4.5c0-1-0.49-1.5-1.47-1.5c-0.77,0-1.3,0.33-1.58,0.98
		v5.01h-1.17v-6.87H76.23z"/>
	<path d="M93.74,273.5c0-0.32-0.12-0.56-0.36-0.74c-0.24-0.18-0.66-0.33-1.25-0.45c-0.59-0.13-1.07-0.28-1.42-0.46
		c-0.35-0.18-0.61-0.39-0.77-0.63c-0.17-0.25-0.25-0.54-0.25-0.88c0-0.56,0.24-1.04,0.71-1.43c0.48-0.39,1.08-0.58,1.83-0.58
		c0.78,0,1.41,0.2,1.89,0.6c0.48,0.4,0.73,0.92,0.73,1.54h-1.18c0-0.32-0.14-0.6-0.41-0.83c-0.27-0.23-0.62-0.35-1.03-0.35
		c-0.43,0-0.76,0.09-1,0.28s-0.36,0.43-0.36,0.73c0,0.28,0.11,0.5,0.34,0.64s0.63,0.28,1.22,0.41c0.59,0.13,1.06,0.29,1.42,0.47
		c0.36,0.18,0.63,0.4,0.81,0.66c0.18,0.26,0.26,0.57,0.26,0.94c0,0.61-0.25,1.11-0.74,1.48s-1.13,0.56-1.91,0.56
		c-0.55,0-1.04-0.1-1.46-0.29s-0.75-0.47-0.99-0.82c-0.24-0.35-0.36-0.73-0.36-1.13h1.17c0.02,0.39,0.18,0.71,0.47,0.94
		c0.29,0.23,0.68,0.35,1.17,0.35c0.44,0,0.8-0.09,1.07-0.27C93.6,274.04,93.74,273.8,93.74,273.5z"/>
	<path d="M96.45,266.64c0-0.19,0.06-0.35,0.17-0.48c0.12-0.13,0.29-0.2,0.52-0.2s0.4,0.07,0.52,0.2c0.12,0.13,0.18,0.29,0.18,0.48
		c0,0.19-0.06,0.35-0.18,0.48s-0.29,0.19-0.52,0.19s-0.4-0.06-0.52-0.19C96.5,266.98,96.45,266.83,96.45,266.64z M97.72,275.33
		h-1.17v-6.87h1.17V275.33z"/>
	<path d="M101.19,266.79v1.66h1.28v0.91h-1.28v4.26c0,0.28,0.06,0.48,0.17,0.62s0.31,0.21,0.58,0.21c0.14,0,0.32-0.03,0.56-0.08
		v0.95c-0.31,0.08-0.61,0.13-0.9,0.13c-0.52,0-0.92-0.16-1.19-0.48c-0.27-0.32-0.4-0.77-0.4-1.35v-4.26h-1.25v-0.91h1.25v-1.66
		H101.19z"/>
	<path d="M111.3,275.33c-0.07-0.14-0.12-0.38-0.17-0.72c-0.55,0.57-1.2,0.85-1.96,0.85c-0.68,0-1.23-0.19-1.67-0.57
		c-0.43-0.38-0.65-0.87-0.65-1.46c0-0.71,0.27-1.27,0.82-1.67c0.54-0.4,1.31-0.59,2.29-0.59h1.14v-0.54c0-0.41-0.12-0.74-0.37-0.98
		s-0.61-0.36-1.09-0.36c-0.42,0-0.77,0.11-1.05,0.32c-0.28,0.21-0.43,0.47-0.43,0.77H107c0-0.34,0.12-0.67,0.36-0.99
		c0.24-0.32,0.57-0.57,0.99-0.76c0.42-0.19,0.88-0.28,1.37-0.28c0.79,0,1.41,0.2,1.86,0.59s0.68,0.94,0.7,1.63v3.16
		c0,0.63,0.08,1.13,0.24,1.5v0.1H111.3z M109.35,274.43c0.37,0,0.72-0.1,1.05-0.29s0.57-0.44,0.72-0.74v-1.41h-0.92
		c-1.44,0-2.16,0.42-2.16,1.26c0,0.37,0.12,0.66,0.37,0.86S108.97,274.43,109.35,274.43z"/>
	<path d="M115.23,268.46l0.03,0.76c0.5-0.59,1.18-0.89,2.04-0.89c0.96,0,1.61,0.37,1.96,1.1c0.23-0.33,0.53-0.6,0.89-0.8
		c0.37-0.2,0.8-0.3,1.3-0.3c1.51,0,2.27,0.8,2.3,2.39v4.6h-1.17v-4.53c0-0.49-0.11-0.86-0.34-1.1s-0.6-0.36-1.13-0.36
		c-0.44,0-0.8,0.13-1.09,0.39c-0.29,0.26-0.46,0.61-0.5,1.05v4.56h-1.18v-4.5c0-1-0.49-1.5-1.47-1.5c-0.77,0-1.3,0.33-1.58,0.98
		v5.01h-1.17v-6.87H115.23z"/>
	<path d="M128.37,275.45c-0.93,0-1.69-0.31-2.27-0.92s-0.88-1.43-0.88-2.45v-0.21c0-0.68,0.13-1.29,0.39-1.83
		c0.26-0.54,0.62-0.95,1.09-1.26c0.47-0.3,0.97-0.45,1.52-0.45c0.89,0,1.59,0.29,2.08,0.88c0.5,0.59,0.74,1.43,0.74,2.53v0.49h-4.65
		c0.02,0.68,0.21,1.22,0.59,1.64c0.38,0.42,0.86,0.62,1.44,0.62c0.41,0,0.77-0.08,1.05-0.25c0.29-0.17,0.54-0.39,0.76-0.67
		l0.72,0.56C130.39,275.01,129.53,275.45,128.37,275.45z M128.23,269.29c-0.47,0-0.87,0.17-1.19,0.52s-0.52,0.83-0.6,1.45h3.44
		v-0.09c-0.03-0.6-0.19-1.06-0.48-1.39S128.72,269.29,128.23,269.29z"/>
	<path d="M134,266.79v1.66h1.28v0.91H134v4.26c0,0.28,0.06,0.48,0.17,0.62s0.31,0.21,0.58,0.21c0.14,0,0.32-0.03,0.56-0.08v0.95
		c-0.31,0.08-0.61,0.13-0.9,0.13c-0.52,0-0.92-0.16-1.19-0.48c-0.27-0.32-0.4-0.77-0.4-1.35v-4.26h-1.25v-0.91h1.25v-1.66H134z"/>
	<path d="M136.62,277.17l-0.67-0.46c0.4-0.55,0.6-1.13,0.62-1.71v-1.06h1.15v0.92c0,0.43-0.1,0.85-0.31,1.28
		C137.2,276.57,136.94,276.91,136.62,277.17z"/>
	<path d="M145.18,274.49c0.42,0,0.79-0.13,1.1-0.38s0.49-0.57,0.52-0.95h1.11c-0.02,0.39-0.16,0.77-0.41,1.12s-0.58,0.64-1,0.85
		c-0.42,0.21-0.86,0.32-1.32,0.32c-0.94,0-1.68-0.31-2.23-0.94c-0.55-0.62-0.83-1.48-0.83-2.56v-0.2c0-0.67,0.12-1.26,0.37-1.78
		c0.25-0.52,0.6-0.92,1.06-1.21c0.46-0.29,1-0.43,1.63-0.43c0.77,0,1.41,0.23,1.92,0.69c0.51,0.46,0.78,1.06,0.82,1.8h-1.11
		c-0.03-0.44-0.2-0.81-0.5-1.09c-0.3-0.29-0.68-0.43-1.12-0.43c-0.6,0-1.06,0.21-1.39,0.64c-0.33,0.43-0.49,1.05-0.49,1.86v0.22
		c0,0.79,0.16,1.4,0.49,1.83S144.58,274.49,145.18,274.49z"/>
	<path d="M148.92,271.83c0-0.67,0.13-1.28,0.4-1.81c0.26-0.54,0.63-0.95,1.1-1.24c0.47-0.29,1.01-0.44,1.62-0.44
		c0.94,0,1.69,0.32,2.27,0.97c0.58,0.65,0.87,1.51,0.87,2.58v0.08c0,0.67-0.13,1.27-0.38,1.8c-0.26,0.53-0.62,0.95-1.1,1.24
		c-0.48,0.3-1.02,0.44-1.64,0.44c-0.93,0-1.69-0.32-2.26-0.97c-0.58-0.65-0.87-1.5-0.87-2.57V271.83z M150.1,271.97
		c0,0.76,0.18,1.37,0.53,1.83c0.35,0.46,0.83,0.69,1.42,0.69c0.6,0,1.07-0.23,1.42-0.7s0.53-1.12,0.53-1.96
		c0-0.75-0.18-1.36-0.54-1.83c-0.36-0.47-0.83-0.7-1.42-0.7c-0.58,0-1.05,0.23-1.4,0.69C150.28,270.45,150.1,271.11,150.1,271.97z"
		/>
	<path d="M157.76,268.46l0.04,0.86c0.52-0.66,1.21-0.99,2.06-0.99c1.45,0,2.18,0.82,2.2,2.46v4.54h-1.17v-4.54
		c0-0.5-0.12-0.86-0.34-1.1c-0.22-0.24-0.57-0.36-1.04-0.36c-0.38,0-0.72,0.1-1,0.3s-0.51,0.47-0.67,0.8v4.89h-1.17v-6.87H157.76z"
		/>
	<path d="M167.82,273.5c0-0.32-0.12-0.56-0.36-0.74c-0.24-0.18-0.66-0.33-1.25-0.45c-0.59-0.13-1.07-0.28-1.42-0.46
		c-0.35-0.18-0.61-0.39-0.77-0.63c-0.17-0.25-0.25-0.54-0.25-0.88c0-0.56,0.24-1.04,0.71-1.43c0.48-0.39,1.08-0.58,1.83-0.58
		c0.78,0,1.41,0.2,1.89,0.6c0.48,0.4,0.73,0.92,0.73,1.54h-1.18c0-0.32-0.14-0.6-0.41-0.83c-0.27-0.23-0.62-0.35-1.03-0.35
		c-0.43,0-0.76,0.09-1,0.28s-0.36,0.43-0.36,0.73c0,0.28,0.11,0.5,0.34,0.64s0.63,0.28,1.22,0.41c0.59,0.13,1.06,0.29,1.42,0.47
		c0.36,0.18,0.63,0.4,0.81,0.66c0.18,0.26,0.26,0.57,0.26,0.94c0,0.61-0.25,1.11-0.74,1.48s-1.13,0.56-1.91,0.56
		c-0.55,0-1.04-0.1-1.46-0.29s-0.75-0.47-0.99-0.82c-0.24-0.35-0.36-0.73-0.36-1.13h1.17c0.02,0.39,0.18,0.71,0.47,0.94
		c0.29,0.23,0.68,0.35,1.17,0.35c0.44,0,0.8-0.09,1.07-0.27C167.68,274.04,167.82,273.8,167.82,273.5z"/>
	<path d="M173.37,275.45c-0.93,0-1.69-0.31-2.27-0.92s-0.88-1.43-0.88-2.45v-0.21c0-0.68,0.13-1.29,0.39-1.83
		c0.26-0.54,0.62-0.95,1.09-1.26c0.47-0.3,0.97-0.45,1.52-0.45c0.89,0,1.59,0.29,2.08,0.88c0.5,0.59,0.74,1.43,0.74,2.53v0.49h-4.65
		c0.02,0.68,0.21,1.22,0.59,1.64c0.38,0.42,0.86,0.62,1.44,0.62c0.41,0,0.77-0.08,1.05-0.25c0.29-0.17,0.54-0.39,0.76-0.67
		l0.72,0.56C175.39,275.01,174.52,275.45,173.37,275.45z M173.23,269.29c-0.47,0-0.87,0.17-1.19,0.52s-0.52,0.83-0.6,1.45h3.44
		v-0.09c-0.03-0.6-0.19-1.06-0.48-1.39S173.72,269.29,173.23,269.29z"/>
	<path d="M180.17,274.49c0.42,0,0.79-0.13,1.1-0.38c0.31-0.25,0.49-0.57,0.52-0.95h1.11c-0.02,0.39-0.16,0.77-0.41,1.12
		s-0.58,0.64-1,0.85s-0.86,0.32-1.32,0.32c-0.94,0-1.68-0.31-2.23-0.94c-0.55-0.62-0.83-1.48-0.83-2.56v-0.2
		c0-0.67,0.12-1.26,0.37-1.78c0.25-0.52,0.6-0.92,1.06-1.21s1-0.43,1.63-0.43c0.77,0,1.41,0.23,1.92,0.69
		c0.51,0.46,0.78,1.06,0.82,1.8h-1.11c-0.03-0.44-0.2-0.81-0.5-1.09c-0.3-0.29-0.68-0.43-1.12-0.43c-0.6,0-1.06,0.21-1.39,0.64
		s-0.49,1.05-0.49,1.86v0.22c0,0.79,0.16,1.4,0.49,1.83C179.09,274.28,179.56,274.49,180.17,274.49z"/>
	<path d="M185.81,266.79v1.66h1.28v0.91h-1.28v4.26c0,0.28,0.06,0.48,0.17,0.62s0.31,0.21,0.58,0.21c0.14,0,0.32-0.03,0.56-0.08
		v0.95c-0.31,0.08-0.61,0.13-0.9,0.13c-0.52,0-0.92-0.16-1.19-0.48c-0.27-0.32-0.4-0.77-0.4-1.35v-4.26h-1.25v-0.91h1.25v-1.66
		H185.81z"/>
	<path d="M191.31,275.45c-0.93,0-1.69-0.31-2.27-0.92s-0.88-1.43-0.88-2.45v-0.21c0-0.68,0.13-1.29,0.39-1.83
		c0.26-0.54,0.62-0.95,1.09-1.26s0.97-0.45,1.52-0.45c0.89,0,1.59,0.29,2.08,0.88c0.5,0.59,0.74,1.43,0.74,2.53v0.49h-4.65
		c0.02,0.68,0.21,1.22,0.59,1.64s0.86,0.62,1.44,0.62c0.41,0,0.77-0.08,1.05-0.25c0.29-0.17,0.54-0.39,0.76-0.67l0.72,0.56
		C193.33,275.01,192.46,275.45,191.31,275.45z M191.17,269.29c-0.47,0-0.87,0.17-1.19,0.52s-0.52,0.83-0.6,1.45h3.44v-0.09
		c-0.03-0.6-0.19-1.06-0.48-1.39S191.66,269.29,191.17,269.29z"/>
	<path d="M196.94,266.79v1.66h1.28v0.91h-1.28v4.26c0,0.28,0.06,0.48,0.17,0.62s0.31,0.21,0.58,0.21c0.14,0,0.32-0.03,0.56-0.08
		v0.95c-0.31,0.08-0.61,0.13-0.9,0.13c-0.52,0-0.92-0.16-1.19-0.48c-0.27-0.32-0.4-0.77-0.4-1.35v-4.26h-1.25v-0.91h1.25v-1.66
		H196.94z"/>
	<path d="M203.84,274.65c-0.46,0.54-1.13,0.81-2.01,0.81c-0.73,0-1.29-0.21-1.67-0.64c-0.38-0.43-0.58-1.05-0.58-1.89v-4.47h1.17
		v4.44c0,1.04,0.42,1.56,1.27,1.56c0.9,0,1.49-0.33,1.79-1v-5h1.17v6.87h-1.12L203.84,274.65z"/>
	<path d="M210.08,269.51c-0.18-0.03-0.37-0.04-0.58-0.04c-0.77,0-1.29,0.33-1.57,0.98v4.88h-1.17v-6.87h1.14l0.02,0.79
		c0.38-0.61,0.93-0.92,1.64-0.92c0.23,0,0.4,0.03,0.52,0.09V269.51z"/>
	<path d="M218.62,275.33c-0.07-0.14-0.12-0.38-0.17-0.72c-0.55,0.57-1.2,0.85-1.96,0.85c-0.68,0-1.23-0.19-1.67-0.57
		s-0.65-0.87-0.65-1.46c0-0.71,0.27-1.27,0.82-1.67s1.31-0.59,2.29-0.59h1.14v-0.54c0-0.41-0.12-0.74-0.37-0.98
		c-0.25-0.24-0.61-0.36-1.08-0.36c-0.42,0-0.77,0.11-1.05,0.32c-0.28,0.21-0.43,0.47-0.43,0.77h-1.18c0-0.34,0.12-0.67,0.36-0.99
		s0.57-0.57,0.99-0.76s0.88-0.28,1.37-0.28c0.79,0,1.41,0.2,1.86,0.59s0.68,0.94,0.7,1.63v3.16c0,0.63,0.08,1.13,0.24,1.5v0.1
		H218.62z M216.67,274.43c0.37,0,0.72-0.1,1.05-0.29s0.57-0.44,0.72-0.74v-1.41h-0.92c-1.44,0-2.16,0.42-2.16,1.26
		c0,0.37,0.12,0.66,0.37,0.86S216.29,274.43,216.67,274.43z"/>
	<path d="M221.17,271.83c0-1.05,0.25-1.9,0.75-2.54c0.5-0.64,1.15-0.96,1.96-0.96c0.8,0,1.44,0.28,1.91,0.83v-3.58h1.17v9.75h-1.08
		l-0.06-0.74c-0.47,0.58-1.12,0.86-1.96,0.86c-0.8,0-1.44-0.33-1.95-0.98c-0.5-0.65-0.75-1.5-0.75-2.55V271.83z M222.34,271.97
		c0,0.78,0.16,1.39,0.48,1.83c0.32,0.44,0.77,0.66,1.33,0.66c0.75,0,1.29-0.33,1.63-1v-3.15c-0.35-0.65-0.89-0.97-1.62-0.97
		c-0.58,0-1.02,0.22-1.35,0.67S222.34,271.1,222.34,271.97z"/>
	<path d="M228.79,266.64c0-0.19,0.06-0.35,0.17-0.48c0.12-0.13,0.29-0.2,0.52-0.2s0.4,0.07,0.52,0.2c0.12,0.13,0.18,0.29,0.18,0.48
		c0,0.19-0.06,0.35-0.18,0.48s-0.29,0.19-0.52,0.19s-0.4-0.06-0.52-0.19S228.79,266.83,228.79,266.64z M230.06,275.33h-1.17v-6.87
		h1.17V275.33z"/>
	<path d="M237.74,271.97c0,1.04-0.24,1.89-0.72,2.53c-0.48,0.64-1.12,0.96-1.94,0.96c-0.83,0-1.49-0.26-1.97-0.79v3.31h-1.17v-9.51
		h1.07l0.06,0.76c0.48-0.59,1.14-0.89,1.99-0.89c0.83,0,1.48,0.31,1.96,0.93c0.48,0.62,0.72,1.49,0.72,2.6V271.97z M236.56,271.83
		c0-0.77-0.16-1.39-0.49-1.83c-0.33-0.45-0.78-0.67-1.36-0.67c-0.71,0-1.24,0.31-1.6,0.95v3.28c0.35,0.63,0.89,0.94,1.61,0.94
		c0.56,0,1.01-0.22,1.34-0.67S236.56,272.71,236.56,271.83z"/>
	<path d="M239.24,266.64c0-0.19,0.06-0.35,0.17-0.48c0.12-0.13,0.29-0.2,0.52-0.2s0.4,0.07,0.52,0.2c0.12,0.13,0.18,0.29,0.18,0.48
		c0,0.19-0.06,0.35-0.18,0.48s-0.29,0.19-0.52,0.19s-0.4-0.06-0.52-0.19S239.24,266.83,239.24,266.64z M240.51,275.33h-1.17v-6.87
		h1.17V275.33z"/>
	<path d="M246.38,273.5c0-0.32-0.12-0.56-0.36-0.74s-0.66-0.33-1.25-0.45s-1.07-0.28-1.42-0.46c-0.35-0.18-0.61-0.39-0.77-0.63
		c-0.17-0.25-0.25-0.54-0.25-0.88c0-0.56,0.24-1.04,0.71-1.43c0.48-0.39,1.08-0.58,1.83-0.58c0.78,0,1.41,0.2,1.89,0.6
		c0.48,0.4,0.73,0.92,0.73,1.54h-1.18c0-0.32-0.14-0.6-0.41-0.83c-0.27-0.23-0.62-0.35-1.03-0.35c-0.43,0-0.76,0.09-1,0.28
		s-0.36,0.43-0.36,0.73c0,0.28,0.11,0.5,0.34,0.64s0.63,0.28,1.22,0.41c0.59,0.13,1.06,0.29,1.42,0.47c0.36,0.18,0.63,0.4,0.81,0.66
		s0.26,0.57,0.26,0.94c0,0.61-0.25,1.11-0.74,1.48c-0.49,0.37-1.13,0.56-1.91,0.56c-0.55,0-1.04-0.1-1.46-0.29s-0.75-0.47-0.99-0.82
		c-0.24-0.35-0.36-0.73-0.36-1.13h1.17c0.02,0.39,0.18,0.71,0.47,0.94s0.68,0.35,1.17,0.35c0.44,0,0.8-0.09,1.07-0.27
		S246.38,273.8,246.38,273.5z"/>
	<path d="M251.84,274.49c0.42,0,0.79-0.13,1.1-0.38c0.31-0.25,0.49-0.57,0.52-0.95h1.11c-0.02,0.39-0.16,0.77-0.41,1.12
		s-0.58,0.64-1,0.85s-0.86,0.32-1.32,0.32c-0.94,0-1.68-0.31-2.23-0.94c-0.55-0.62-0.83-1.48-0.83-2.56v-0.2
		c0-0.67,0.12-1.26,0.37-1.78c0.25-0.52,0.6-0.92,1.06-1.21s1-0.43,1.63-0.43c0.77,0,1.41,0.23,1.92,0.69
		c0.51,0.46,0.78,1.06,0.82,1.8h-1.11c-0.03-0.44-0.2-0.81-0.5-1.09c-0.3-0.29-0.68-0.43-1.12-0.43c-0.6,0-1.06,0.21-1.39,0.64
		s-0.49,1.05-0.49,1.86v0.22c0,0.79,0.16,1.4,0.49,1.83S251.24,274.49,251.84,274.49z"/>
	<path d="M255.9,266.64c0-0.19,0.06-0.35,0.17-0.48c0.12-0.13,0.29-0.2,0.52-0.2s0.4,0.07,0.52,0.2c0.12,0.13,0.18,0.29,0.18,0.48
		c0,0.19-0.06,0.35-0.18,0.48s-0.29,0.19-0.52,0.19s-0.4-0.06-0.52-0.19S255.9,266.83,255.9,266.64z M257.17,275.33h-1.17v-6.87
		h1.17V275.33z"/>
	<path d="M260.16,268.46l0.04,0.86c0.53-0.66,1.21-0.99,2.06-0.99c1.45,0,2.18,0.82,2.2,2.46v4.54h-1.17v-4.54
		c0-0.5-0.12-0.86-0.34-1.1c-0.22-0.24-0.57-0.36-1.04-0.36c-0.38,0-0.71,0.1-1,0.3c-0.29,0.2-0.51,0.47-0.67,0.8v4.89h-1.17v-6.87
		H260.16z"/>
	<path d="M265.94,271.83c0-1.07,0.25-1.92,0.74-2.55c0.5-0.63,1.15-0.95,1.97-0.95c0.84,0,1.49,0.3,1.96,0.89l0.06-0.76h1.07v6.7
		c0,0.89-0.26,1.59-0.79,2.1c-0.53,0.51-1.23,0.77-2.12,0.77c-0.5,0-0.98-0.11-1.45-0.32s-0.84-0.5-1.08-0.87l0.61-0.71
		c0.5,0.62,1.12,0.93,1.85,0.93c0.57,0,1.02-0.16,1.34-0.48c0.32-0.32,0.48-0.78,0.48-1.36v-0.59c-0.47,0.54-1.11,0.81-1.92,0.81
		c-0.8,0-1.45-0.32-1.95-0.97C266.19,273.83,265.94,272.95,265.94,271.83z M267.12,271.97c0,0.77,0.16,1.38,0.48,1.82
		c0.32,0.44,0.76,0.66,1.33,0.66c0.74,0,1.28-0.34,1.63-1.01v-3.14c-0.36-0.66-0.9-0.98-1.62-0.98c-0.57,0-1.02,0.22-1.34,0.67
		S267.12,271.1,267.12,271.97z"/>
	<path d="M279.58,275.45c-0.93,0-1.69-0.31-2.27-0.92s-0.88-1.43-0.88-2.45v-0.21c0-0.68,0.13-1.29,0.39-1.83
		c0.26-0.54,0.62-0.95,1.09-1.26s0.97-0.45,1.52-0.45c0.89,0,1.59,0.29,2.08,0.88c0.5,0.59,0.74,1.43,0.74,2.53v0.49h-4.65
		c0.02,0.68,0.21,1.22,0.59,1.64s0.86,0.62,1.44,0.62c0.41,0,0.77-0.08,1.05-0.25c0.29-0.17,0.54-0.39,0.76-0.67l0.72,0.56
		C281.6,275.01,280.73,275.45,279.58,275.45z M279.44,269.29c-0.47,0-0.87,0.17-1.19,0.52s-0.52,0.83-0.6,1.45h3.44v-0.09
		c-0.03-0.6-0.19-1.06-0.48-1.39S279.93,269.29,279.44,269.29z"/>
	<path d="M284.89,275.33h-1.17v-9.75h1.17V275.33z"/>
	<path d="M286.78,266.64c0-0.19,0.06-0.35,0.17-0.48c0.12-0.13,0.29-0.2,0.52-0.2s0.4,0.07,0.52,0.2c0.12,0.13,0.18,0.29,0.18,0.48
		c0,0.19-0.06,0.35-0.18,0.48s-0.29,0.19-0.52,0.19s-0.4-0.06-0.52-0.19S286.78,266.83,286.78,266.64z M288.05,275.33h-1.17v-6.87
		h1.17V275.33z"/>
	<path d="M291.52,266.79v1.66h1.28v0.91h-1.28v4.26c0,0.28,0.06,0.48,0.17,0.62s0.31,0.21,0.58,0.21c0.14,0,0.32-0.03,0.56-0.08
		v0.95c-0.31,0.08-0.61,0.13-0.9,0.13c-0.52,0-0.92-0.16-1.19-0.48c-0.27-0.32-0.4-0.77-0.4-1.35v-4.26h-1.25v-0.91h1.25v-1.66
		H291.52z"/>
	<path d="M294.2,274.71c0-0.2,0.06-0.37,0.18-0.51c0.12-0.14,0.3-0.2,0.54-0.2s0.42,0.07,0.55,0.2c0.12,0.13,0.19,0.3,0.19,0.51
		c0,0.19-0.06,0.36-0.19,0.49s-0.31,0.2-0.55,0.2s-0.42-0.07-0.54-0.2C294.26,275.07,294.2,274.9,294.2,274.71z"/>
</g>
<line class="st8" x1="0" y1="289.66" x2="360" y2="289.66"/>
<rect x="0" y="0.12" class="st7" width="360" height="8.9"/>
<rect x="0" y="0.12" class="st9" width="360" height="387.75"/>
<g>
</g>
<g>
</g>
<g>
</g>
<g>
</g>
<g>
</g>
<g>
</g>
</svg>
