<?xml version="1.0" encoding="utf-8"?>
<!-- Generator: Adobe Illustrator 25.2.1, SVG Export Plug-In . SVG Version: 6.00 Build 0)  -->
<svg version="1.1" id="Layer_1" xmlns="http://www.w3.org/2000/svg" xmlns:xlink="http://www.w3.org/1999/xlink" x="0px" y="0px"
	 viewBox="0 0 360 47" style="enable-background:new 0 0 360 47;" xml:space="preserve">
<style type="text/css">
	.st0{fill:none;stroke:#020203;stroke-width:2;stroke-linecap:round;stroke-linejoin:round;}
	.st1{display:none;fill:#F39200;}
</style>
<g>
	<path d="M13.77,37.03V25.56h-2.12v-2.8h2.12v-1.21c0-1.6,0.46-2.84,1.38-3.72c0.92-0.88,2.2-1.32,3.86-1.32
		c0.53,0,1.17,0.09,1.94,0.26L20.9,19.7c-0.32-0.08-0.7-0.12-1.16-0.12c-1.43,0-2.15,0.68-2.15,2.03v1.16h2.83v2.8h-2.83v11.47
		H13.77z"/>
	<path d="M30.67,37.03c-0.18-0.34-0.3-0.77-0.38-1.28c-0.92,1.03-2.12,1.54-3.6,1.54c-1.4,0-2.56-0.4-3.47-1.21
		c-0.92-0.81-1.38-1.83-1.38-3.06c0-1.51,0.56-2.67,1.68-3.48c1.12-0.81,2.74-1.22,4.86-1.23h1.75V27.5c0-0.66-0.17-1.19-0.51-1.58
		c-0.34-0.4-0.87-0.59-1.6-0.59c-0.64,0-1.15,0.15-1.51,0.46c-0.37,0.31-0.55,0.73-0.55,1.27h-3.81c0-0.83,0.25-1.59,0.76-2.29
		s1.23-1.25,2.16-1.65c0.93-0.4,1.98-0.6,3.14-0.6c1.76,0,3.15,0.44,4.19,1.33c1.03,0.88,1.55,2.12,1.55,3.72v6.18
		c0.01,1.35,0.2,2.38,0.57,3.07v0.22H30.67z M27.52,34.38c0.56,0,1.08-0.12,1.56-0.38c0.47-0.25,0.83-0.59,1.05-1.01v-2.45h-1.42
		c-1.91,0-2.92,0.66-3.05,1.98l-0.01,0.22c0,0.47,0.17,0.87,0.5,1.17S26.94,34.38,27.52,34.38z"/>
	<path d="M42.81,34.22c0.7,0,1.27-0.19,1.71-0.58s0.67-0.9,0.69-1.54h3.57c-0.01,0.97-0.27,1.85-0.79,2.66
		c-0.52,0.8-1.23,1.43-2.13,1.87c-0.9,0.44-1.9,0.67-2.99,0.67c-2.04,0-3.65-0.65-4.83-1.94c-1.18-1.3-1.77-3.09-1.77-5.37v-0.25
		c0-2.2,0.58-3.95,1.75-5.26s2.77-1.96,4.81-1.96c1.78,0,3.21,0.51,4.29,1.52c1.08,1.02,1.62,2.37,1.64,4.05h-3.57
		c-0.02-0.74-0.25-1.34-0.69-1.81s-1.02-0.7-1.74-0.7c-0.89,0-1.56,0.32-2.01,0.97c-0.45,0.65-0.68,1.7-0.68,3.15v0.4
		c0,1.47,0.22,2.53,0.67,3.17S41.9,34.22,42.81,34.22z"/>
	<path d="M57.53,37.3c-2.09,0-3.79-0.64-5.11-1.92s-1.97-2.99-1.97-5.13v-0.37c0-1.43,0.28-2.71,0.83-3.84
		c0.55-1.13,1.34-2,2.35-2.61c1.02-0.61,2.17-0.92,3.47-0.92c1.95,0,3.49,0.62,4.61,1.85c1.12,1.23,1.68,2.97,1.68,5.23v1.56h-9.08
		c0.12,0.93,0.49,1.68,1.11,2.24c0.62,0.56,1.4,0.84,2.35,0.84c1.47,0,2.61-0.53,3.44-1.59l1.87,2.1c-0.57,0.81-1.34,1.44-2.32,1.89
		C59.79,37.07,58.71,37.3,57.53,37.3z M57.09,25.58c-0.76,0-1.37,0.26-1.84,0.77c-0.47,0.51-0.77,1.25-0.9,2.2h5.3v-0.3
		c-0.02-0.85-0.25-1.5-0.69-1.97C58.52,25.81,57.9,25.58,57.09,25.58z"/>
	<path d="M78.41,30.03c0,2.29-0.49,4.07-1.46,5.35c-0.98,1.28-2.34,1.92-4.09,1.92c-1.55,0-2.78-0.59-3.7-1.78l-0.17,1.52h-3.43
		V16.78h3.81v7.26c0.88-1.03,2.03-1.54,3.47-1.54c1.74,0,3.1,0.64,4.09,1.92c0.99,1.28,1.48,3.08,1.48,5.4V30.03z M74.6,29.74
		c0-1.45-0.23-2.5-0.69-3.17c-0.46-0.67-1.14-1-2.04-1c-1.21,0-2.05,0.5-2.5,1.49v5.65c0.47,1,1.31,1.51,2.53,1.51
		c1.23,0,2.04-0.61,2.43-1.82C74.51,31.82,74.6,30.93,74.6,29.74z"/>
	<path d="M80.16,29.77c0-1.42,0.27-2.68,0.82-3.78s1.33-1.96,2.35-2.57c1.02-0.61,2.21-0.91,3.57-0.91c1.92,0,3.5,0.59,4.71,1.77
		c1.22,1.18,1.9,2.78,2.04,4.8l0.03,0.98c0,2.19-0.61,3.94-1.83,5.27c-1.22,1.32-2.86,1.98-4.92,1.98s-3.7-0.66-4.92-1.98
		c-1.23-1.32-1.84-3.11-1.84-5.38V29.77z M83.97,30.04c0,1.36,0.25,2.39,0.76,3.11c0.51,0.72,1.24,1.08,2.19,1.08
		c0.92,0,1.64-0.35,2.16-1.06c0.52-0.71,0.78-1.84,0.78-3.4c0-1.33-0.26-2.36-0.78-3.09c-0.52-0.73-1.25-1.1-2.19-1.1
		c-0.93,0-1.65,0.36-2.16,1.09C84.23,27.39,83.97,28.52,83.97,30.04z"/>
	<path d="M95.43,29.77c0-1.42,0.27-2.68,0.82-3.78s1.33-1.96,2.35-2.57c1.02-0.61,2.21-0.91,3.57-0.91c1.92,0,3.5,0.59,4.71,1.77
		c1.22,1.18,1.9,2.78,2.04,4.8l0.03,0.98c0,2.19-0.61,3.94-1.83,5.27c-1.22,1.32-2.86,1.98-4.92,1.98s-3.7-0.66-4.92-1.98
		c-1.23-1.32-1.84-3.11-1.84-5.38V29.77z M99.24,30.04c0,1.36,0.25,2.39,0.76,3.11c0.51,0.72,1.24,1.08,2.19,1.08
		c0.92,0,1.64-0.35,2.16-1.06c0.52-0.71,0.78-1.84,0.78-3.4c0-1.33-0.26-2.36-0.78-3.09c-0.52-0.73-1.25-1.1-2.19-1.1
		c-0.93,0-1.65,0.36-2.16,1.09C99.49,27.39,99.24,28.52,99.24,30.04z"/>
	<path d="M116.47,31.31l-1.37,1.37v4.35h-3.81V16.78h3.81V28l0.74-0.95l3.65-4.28h4.57l-5.15,5.95l5.6,8.32h-4.38L116.47,31.31z"/>
</g>
<circle class="st0" cx="292.89" cy="22.67" r="7.03"/>
<line class="st0" x1="301.68" y1="31.46" x2="297.86" y2="27.63"/>
<path class="st0" d="M345.72,24.63c0,1.2-0.28,2.37-0.82,3.44c-1.3,2.61-3.97,4.26-6.88,4.26c-1.2,0-2.37-0.28-3.44-0.82l-5.16,1.72
	l1.72-5.16c-0.54-1.07-0.82-2.25-0.82-3.44c0-2.92,1.65-5.58,4.26-6.88c1.07-0.54,2.25-0.82,3.44-0.82h0.45
	c3.91,0.22,7.03,3.34,7.25,7.25V24.63z"/>
<rect x="0.28" y="0.22" class="st1" width="360" height="47"/>
<g>
</g>
<g>
</g>
<g>
</g>
<g>
</g>
<g>
</g>
<g>
</g>
</svg>
