<?xml version="1.0" encoding="utf-8"?>
<!-- Generator: Adobe Illustrator 25.2.1, SVG Export Plug-In . SVG Version: 6.00 Build 0)  -->
<svg version="1.1" id="Layer_1" xmlns="http://www.w3.org/2000/svg" xmlns:xlink="http://www.w3.org/1999/xlink" x="0px" y="0px"
	 viewBox="0 0 360 515" style="enable-background:new 0 0 360 515;" xml:space="preserve">
<style type="text/css">
	.st0{fill:#FFFFFF;}
	.st1{stroke:#020203;stroke-width:3;stroke-linecap:round;stroke-linejoin:round;stroke-miterlimit:6;}
	.st2{fill:none;stroke:#020203;stroke-width:2;stroke-linecap:round;stroke-linejoin:round;stroke-miterlimit:6;}
	.st3{fill:none;stroke:#020203;stroke-width:2;stroke-miterlimit:10;}
	.st4{fill:none;stroke:#020203;stroke-width:2;stroke-linecap:round;stroke-linejoin:round;}
	.st5{fill:none;stroke:#000000;stroke-width:2;stroke-linecap:round;stroke-linejoin:round;}
	.st6{fill:#A3A09F;}
</style>
<rect x="-0.01" y="0.46" class="st0" width="360" height="515"/>
<circle class="st1" cx="338.2" cy="24.22" r="0.87"/>
<circle class="st1" cx="338.2" cy="18.14" r="0.87"/>
<circle class="st1" cx="338.2" cy="30.29" r="0.87"/>
<circle class="st2" cx="23.23" cy="23.99" r="12.5"/>
<g>
	<path d="M52.68,26.1c-0.43,0.48-1.18,0.95-2.21,0.95c-1.38,0-2.03-0.75-2.03-1.98v-4.46h1.65v3.81c0,0.87,0.46,1.16,1.16,1.16
		c0.64,0,1.14-0.35,1.43-0.71v-4.25h1.65v6.28h-1.65V26.1z"/>
	<path d="M56.14,24.91c0.45,0.43,1.39,0.86,2.17,0.86c0.71,0,1.05-0.25,1.05-0.64c0-0.44-0.55-0.6-1.26-0.74
		c-1.08-0.21-2.47-0.47-2.47-1.96c0-1.05,0.92-1.98,2.57-1.98c1.07,0,1.91,0.36,2.54,0.86l-0.66,1.13c-0.38-0.4-1.09-0.73-1.86-0.73
		c-0.6,0-0.99,0.22-0.99,0.58c0,0.39,0.49,0.53,1.2,0.68c1.08,0.21,2.52,0.49,2.52,2.05c0,1.14-0.98,2.01-2.72,2.01
		c-1.09,0-2.15-0.36-2.81-0.97L56.14,24.91z"/>
	<path d="M65.02,20.45c1.87,0,3.15,1.4,3.15,3.46v0.36H63.5c0.1,0.79,0.74,1.46,1.81,1.46c0.58,0,1.27-0.23,1.68-0.62l0.73,1.07
		c-0.62,0.57-1.61,0.87-2.59,0.87c-1.91,0-3.35-1.29-3.35-3.3C61.77,21.92,63.11,20.45,65.02,20.45z M63.47,23.16h3.09
		c-0.04-0.6-0.46-1.39-1.55-1.39C63.99,21.77,63.55,22.53,63.47,23.16z"/>
	<path d="M69.36,20.61h1.65v0.86c0.44-0.56,1.22-1,2-1v1.61c-0.12-0.03-0.27-0.05-0.46-0.05c-0.55,0-1.27,0.31-1.55,0.72v4.15h-1.65
		V20.61z"/>
</g>
<line class="st3" x1="-0.01" y1="48.21" x2="360.99" y2="48.21"/>
<path class="st4" d="M343.31,437.67l-7-5l-7,5v-16c0-1.1,0.9-2,2-2h10c1.1,0,2,0.9,2,2V437.67z"/>
<path class="st4" d="M50.28,430.22c0,1.32,0.3,2.62,0.9,3.8c1.44,2.88,4.38,4.7,7.6,4.7c1.32,0,2.62-0.3,3.8-0.9l5.7,1.9l-1.9-5.7
	c0.6-1.18,0.9-2.48,0.9-3.8c0-3.22-1.82-6.16-4.7-7.6c-1.18-0.6-2.48-0.9-3.8-0.9h-0.5c-4.32,0.24-7.76,3.68-8,8V430.22z"/>
<line class="st4" x1="105.96" y1="422.13" x2="92.28" y2="429.54"/>
<polygon class="st4" points="105.96,422.13 93.55,439.31 92.28,429.54 84.8,423.14 "/>
<path class="st5" d="M31.15,423.21c-2.15-2.15-5.63-2.15-7.78,0c0,0,0,0,0,0l-1.06,1.06l-1.06-1.06c-2.15-2.15-5.63-2.15-7.78,0
	s-2.15,5.63,0,7.78l1.06,1.06l7.78,7.78l7.78-7.78l1.06-1.06C33.3,428.85,33.3,425.36,31.15,423.21
	C31.16,423.22,31.15,423.21,31.15,423.21z"/>
<line class="st3" x1="-0.51" y1="407.87" x2="360.49" y2="407.87"/>
<g>
	<path d="M13.08,460.36c0.6,0.62,1.55,0.99,2.39,0.99c1.05,0,1.64-0.46,1.64-1.12c0-0.7-0.53-1.03-1.74-1.03
		c-0.36,0-0.95,0-1.08,0.01v-1.61c0.16,0.01,0.75,0.01,1.08,0.01c0.96,0,1.6-0.31,1.6-0.96c0-0.69-0.7-1.04-1.61-1.04
		c-0.83,0-1.6,0.33-2.21,0.91l-0.91-1.14c0.7-0.79,1.79-1.38,3.32-1.38c2.03,0,3.28,0.91,3.28,2.35c0,1.09-0.94,1.81-1.9,1.98
		c0.88,0.09,2.03,0.78,2.03,2.08c0,1.5-1.34,2.55-3.42,2.55c-1.6,0-2.78-0.61-3.42-1.39L13.08,460.36z"/>
	<path d="M23.52,454c2.47,0,3.59,2.24,3.59,4.47s-1.12,4.49-3.59,4.49c-2.48,0-3.59-2.25-3.59-4.49S21.04,454,23.52,454z
		 M23.52,455.64c-1.25,0-1.72,1.24-1.72,2.83s0.47,2.85,1.72,2.85c1.24,0,1.7-1.25,1.7-2.85S24.76,455.64,23.52,455.64z"/>
	<path d="M31.58,454c2.47,0,3.59,2.24,3.59,4.47s-1.12,4.49-3.59,4.49c-2.48,0-3.59-2.25-3.59-4.49S29.1,454,31.58,454z
		 M31.58,455.64c-1.25,0-1.72,1.24-1.72,2.83s0.47,2.85,1.72,2.85c1.24,0,1.7-1.25,1.7-2.85S32.82,455.64,31.58,455.64z"/>
	<path d="M39.76,454.13h1.65v8.67h-1.65V454.13z"/>
	<path d="M42.88,454.61c0-0.55,0.46-0.99,0.99-0.99c0.55,0,0.99,0.44,0.99,0.99s-0.44,0.99-0.99,0.99
		C43.33,455.6,42.88,455.16,42.88,454.61z M43.05,456.52h1.65v6.28h-1.65V456.52z"/>
	<path d="M48.74,460.38l-0.75,0.81v1.61h-1.65v-8.67h1.65v5.19l2.38-2.79h2.03l-2.48,2.85l2.56,3.43h-2.07L48.74,460.38z"/>
	<path d="M55.87,456.37c1.87,0,3.15,1.4,3.15,3.46v0.36h-4.67c0.1,0.79,0.74,1.46,1.81,1.46c0.58,0,1.27-0.23,1.68-0.62l0.73,1.07
		c-0.62,0.57-1.61,0.87-2.59,0.87c-1.91,0-3.35-1.29-3.35-3.3C52.62,457.83,53.96,456.37,55.87,456.37z M54.32,459.07h3.09
		c-0.04-0.6-0.46-1.39-1.55-1.39C54.84,457.68,54.4,458.45,54.32,459.07z"/>
	<path d="M60.38,460.82c0.46,0.43,1.39,0.86,2.17,0.86c0.71,0,1.05-0.25,1.05-0.64c0-0.44-0.55-0.6-1.26-0.74
		c-1.08-0.21-2.47-0.47-2.47-1.96c0-1.05,0.92-1.98,2.57-1.98c1.07,0,1.91,0.36,2.54,0.86l-0.66,1.13c-0.38-0.4-1.09-0.73-1.86-0.73
		c-0.6,0-0.99,0.22-0.99,0.58c0,0.39,0.49,0.53,1.2,0.68c1.08,0.21,2.52,0.49,2.52,2.05c0,1.14-0.97,2.02-2.72,2.02
		c-1.09,0-2.14-0.36-2.81-0.98L60.38,460.82z"/>
</g>
<g>
	<path d="M16.1,480.79c-0.43,0.48-1.18,0.95-2.21,0.95c-1.38,0-2.03-0.75-2.03-1.98v-4.46h1.65v3.81c0,0.87,0.46,1.16,1.16,1.16
		c0.64,0,1.14-0.35,1.43-0.71v-4.25h1.65v6.28H16.1V480.79z"/>
	<path d="M19.56,479.61c0.45,0.43,1.39,0.86,2.17,0.86c0.71,0,1.05-0.25,1.05-0.64c0-0.44-0.55-0.6-1.26-0.74
		c-1.08-0.21-2.47-0.47-2.47-1.96c0-1.05,0.92-1.98,2.57-1.98c1.07,0,1.91,0.36,2.54,0.86l-0.66,1.13c-0.38-0.4-1.09-0.73-1.86-0.73
		c-0.6,0-0.99,0.22-0.99,0.58c0,0.39,0.49,0.53,1.2,0.68c1.08,0.21,2.52,0.49,2.52,2.05c0,1.14-0.98,2.02-2.72,2.02
		c-1.09,0-2.15-0.36-2.81-0.98L19.56,479.61z"/>
	<path d="M28.44,475.15c1.87,0,3.15,1.4,3.15,3.46v0.36h-4.67c0.1,0.79,0.74,1.46,1.81,1.46c0.58,0,1.27-0.23,1.68-0.62l0.73,1.07
		c-0.62,0.57-1.61,0.87-2.59,0.87c-1.91,0-3.35-1.29-3.35-3.3C25.19,476.62,26.53,475.15,28.44,475.15z M26.89,477.85h3.09
		c-0.04-0.6-0.46-1.39-1.55-1.39C27.41,476.46,26.97,477.23,26.89,477.85z"/>
	<path d="M32.78,475.3h1.65v0.86c0.44-0.56,1.22-1,2-1v1.61c-0.12-0.03-0.27-0.05-0.46-0.05c-0.55,0-1.27,0.31-1.55,0.71v4.15h-1.65
		V475.3z"/>
</g>
<g>
	<path d="M43.54,474.03H40.8v-0.96h6.58v0.96h-2.76v7.71h-1.08V474.03z"/>
	<path d="M53.02,477.61c0-1.11-0.57-1.43-1.42-1.43c-0.75,0-1.48,0.47-1.86,0.98v4.59h-0.98v-8.67h0.98v3.3
		c0.44-0.52,1.3-1.07,2.25-1.07c1.31,0,2,0.64,2,2v4.43h-0.98V477.61z"/>
	<path d="M55.78,473.75c0-0.36,0.3-0.65,0.65-0.65c0.36,0,0.66,0.29,0.66,0.65s-0.3,0.66-0.66,0.66
		C56.07,474.41,55.78,474.11,55.78,473.75z M55.94,475.46h0.98v6.28h-0.98V475.46z"/>
	<path d="M58.83,480.21c0.42,0.48,1.21,0.9,2.07,0.9c0.96,0,1.48-0.43,1.48-1.04c0-0.69-0.77-0.91-1.61-1.12
		c-1.07-0.25-2.27-0.53-2.27-1.83c0-0.98,0.84-1.81,2.34-1.81c1.07,0,1.82,0.4,2.33,0.91l-0.46,0.68c-0.38-0.45-1.07-0.79-1.87-0.79
		c-0.86,0-1.39,0.39-1.39,0.95c0,0.61,0.72,0.81,1.53,1c1.09,0.25,2.35,0.56,2.35,1.95c0,1.05-0.84,1.9-2.47,1.9
		c-1.03,0-1.9-0.31-2.54-0.99L58.83,480.21z"/>
	<path d="M68.1,473.75c0-0.36,0.3-0.65,0.65-0.65c0.36,0,0.66,0.29,0.66,0.65s-0.3,0.66-0.66,0.66
		C68.4,474.41,68.1,474.11,68.1,473.75z M68.27,475.46h0.98v6.28h-0.98V475.46z"/>
	<path d="M71.15,480.21c0.42,0.48,1.21,0.9,2.07,0.9c0.96,0,1.48-0.43,1.48-1.04c0-0.69-0.77-0.91-1.61-1.12
		c-1.07-0.25-2.27-0.53-2.27-1.83c0-0.98,0.84-1.81,2.34-1.81c1.07,0,1.82,0.4,2.33,0.91l-0.46,0.68c-0.38-0.45-1.07-0.79-1.87-0.79
		c-0.86,0-1.39,0.39-1.39,0.95c0,0.61,0.72,0.81,1.53,1c1.09,0.25,2.35,0.56,2.35,1.95c0,1.05-0.84,1.9-2.47,1.9
		c-1.03,0-1.9-0.31-2.53-0.99L71.15,480.21z"/>
	<path d="M84.52,481.03c-0.52,0.57-1.24,0.87-2.08,0.87c-1.07,0-2.2-0.71-2.2-2.08c0-1.4,1.13-2.07,2.2-2.07
		c0.86,0,1.57,0.27,2.08,0.86v-1.13c0-0.84-0.68-1.33-1.59-1.33c-0.75,0-1.36,0.27-1.92,0.87l-0.46-0.68
		c0.68-0.7,1.48-1.04,2.51-1.04c1.33,0,2.43,0.6,2.43,2.12v4.32h-0.98V481.03z M84.52,479.23c-0.38-0.52-1.04-0.78-1.73-0.78
		c-0.91,0-1.55,0.57-1.55,1.38c0,0.79,0.64,1.37,1.55,1.37c0.69,0,1.35-0.26,1.73-0.78V479.23z"/>
	<path d="M93.57,475.3c1.14,0,1.82,0.47,2.3,1.09l-0.65,0.6c-0.42-0.57-0.95-0.82-1.6-0.82c-1.34,0-2.17,1.03-2.17,2.42
		c0,1.39,0.83,2.43,2.17,2.43c0.65,0,1.18-0.26,1.6-0.82l0.65,0.6c-0.48,0.62-1.16,1.09-2.3,1.09c-1.87,0-3.13-1.43-3.13-3.3
		C90.43,476.74,91.69,475.3,93.57,475.3z"/>
	<path d="M101.16,481.03c-0.52,0.57-1.24,0.87-2.08,0.87c-1.07,0-2.2-0.71-2.2-2.08c0-1.4,1.13-2.07,2.2-2.07
		c0.86,0,1.57,0.27,2.08,0.86v-1.13c0-0.84-0.68-1.33-1.59-1.33c-0.75,0-1.36,0.27-1.92,0.87l-0.46-0.68
		c0.68-0.7,1.48-1.04,2.51-1.04c1.33,0,2.43,0.6,2.43,2.12v4.32h-0.98V481.03z M101.16,479.23c-0.38-0.52-1.04-0.78-1.73-0.78
		c-0.91,0-1.55,0.57-1.55,1.38c0,0.79,0.64,1.37,1.55,1.37c0.69,0,1.35-0.26,1.73-0.78V479.23z"/>
	<path d="M104.08,484.13v-8.67h0.98v0.94c0.46-0.64,1.23-1.09,2.12-1.09c1.65,0,2.79,1.25,2.79,3.29c0,2.03-1.14,3.3-2.79,3.3
		c-0.86,0-1.61-0.4-2.12-1.11v3.34H104.08z M106.93,476.18c-0.77,0-1.53,0.46-1.87,1v2.83c0.34,0.55,1.1,1.01,1.87,1.01
		c1.26,0,2.02-1.04,2.02-2.43C108.94,477.2,108.19,476.18,106.93,476.18z"/>
	<path d="M111.74,480.43v-4.11h-1.04v-0.86h1.04v-1.72h0.98v1.72h1.27v0.86h-1.27v3.9c0,0.47,0.21,0.81,0.64,0.81
		c0.27,0,0.53-0.12,0.66-0.26l0.29,0.73c-0.25,0.23-0.6,0.4-1.17,0.4C112.21,481.9,111.74,481.36,111.74,480.43z"/>
	<path d="M115.2,473.75c0-0.36,0.3-0.65,0.65-0.65c0.36,0,0.66,0.29,0.66,0.65s-0.3,0.66-0.66,0.66
		C115.5,474.41,115.2,474.11,115.2,473.75z M115.37,475.46h0.98v6.28h-0.98V475.46z"/>
	<path d="M117.93,478.59c0-1.82,1.2-3.29,3.11-3.29s3.11,1.47,3.11,3.29c0,1.82-1.2,3.3-3.11,3.3S117.93,480.41,117.93,478.59z
		 M123.11,478.59c0-1.27-0.74-2.42-2.08-2.42c-1.34,0-2.09,1.14-2.09,2.42c0,1.29,0.75,2.43,2.09,2.43
		C122.37,481.03,123.11,479.88,123.11,478.59z"/>
	<path d="M129.96,477.63c0-1.1-0.56-1.46-1.4-1.46c-0.77,0-1.5,0.47-1.86,0.98v4.59h-0.98v-6.28h0.98v0.91
		c0.44-0.52,1.3-1.07,2.24-1.07c1.31,0,2,0.66,2,2.03v4.41h-0.98V477.63z"/>
</g>
<g>
	<path class="st6" d="M12.18,496.18h1.23l2.93,7.49l2.92-7.49h1.24l-3.5,8.67h-1.34L12.18,496.18z"/>
	<path class="st6" d="M21.43,496.86c0-0.36,0.3-0.65,0.65-0.65c0.36,0,0.66,0.29,0.66,0.65s-0.3,0.66-0.66,0.66
		C21.72,497.52,21.43,497.22,21.43,496.86z M21.59,498.57h0.98v6.28h-0.98V498.57z"/>
	<path class="st6" d="M27.25,498.42c1.9,0,3.02,1.48,3.02,3.37v0.25h-5.08c0.08,1.18,0.91,2.17,2.26,2.17
		c0.71,0,1.44-0.29,1.94-0.79l0.47,0.64c-0.62,0.62-1.47,0.96-2.5,0.96c-1.86,0-3.2-1.34-3.2-3.3
		C24.16,499.89,25.46,498.42,27.25,498.42z M25.18,501.32h4.12c-0.01-0.94-0.64-2.09-2.07-2.09
		C25.9,499.22,25.23,500.36,25.18,501.32z"/>
	<path class="st6" d="M35.63,499.81L34,504.85h-0.98l-2-6.28h1.01l1.53,5l1.65-5h0.83l1.65,5l1.53-5h1.01l-2,6.28h-0.98
		L35.63,499.81z"/>
	<path class="st6" d="M48.66,504.14c-0.52,0.57-1.24,0.87-2.08,0.87c-1.07,0-2.2-0.71-2.2-2.08c0-1.4,1.13-2.07,2.2-2.07
		c0.86,0,1.57,0.27,2.08,0.86v-1.13c0-0.85-0.68-1.33-1.59-1.33c-0.75,0-1.36,0.27-1.92,0.87l-0.46-0.68
		c0.68-0.7,1.48-1.04,2.51-1.04c1.33,0,2.43,0.6,2.43,2.12v4.32h-0.97V504.14z M48.66,502.34c-0.38-0.52-1.04-0.78-1.73-0.78
		c-0.91,0-1.55,0.57-1.55,1.38c0,0.79,0.64,1.37,1.55,1.37c0.69,0,1.35-0.26,1.73-0.78V502.34z"/>
	<path class="st6" d="M51.59,496.18h0.98v8.67h-0.98V496.18z"/>
	<path class="st6" d="M54.51,496.18h0.98v8.67h-0.98V496.18z"/>
	<path class="st6" d="M61.33,502.9c0.57,0.73,1.33,1.14,2.39,1.14c1.18,0,2-0.81,2-1.86c0-1.14-0.82-1.87-1.99-1.87
		c-0.77,0-1.42,0.25-2,0.82l-0.79-0.27v-4.68h5.3v0.96h-4.23v3.02c0.42-0.42,1.16-0.78,2.03-0.78c1.44,0,2.76,0.99,2.76,2.77
		c0,1.77-1.34,2.86-3.08,2.86c-1.47,0-2.41-0.53-3.06-1.39L61.33,502.9z"/>
	<path class="st6" d="M71.46,496.05c2.37,0,3.32,2.35,3.32,4.47c0,2.11-0.95,4.49-3.32,4.49c-2.38,0-3.31-2.38-3.31-4.49
		C68.15,498.41,69.08,496.05,71.46,496.05z M71.46,497.01c-1.65,0-2.21,1.78-2.21,3.51s0.56,3.52,2.21,3.52
		c1.65,0,2.21-1.79,2.21-3.52S73.11,497.01,71.46,497.01z"/>
	<path class="st6" d="M82.54,498.42c1.14,0,1.82,0.47,2.3,1.09l-0.65,0.6c-0.42-0.57-0.95-0.82-1.6-0.82
		c-1.34,0-2.17,1.03-2.17,2.42c0,1.39,0.83,2.43,2.17,2.43c0.65,0,1.18-0.26,1.6-0.82l0.65,0.6c-0.48,0.62-1.16,1.09-2.3,1.09
		c-1.87,0-3.13-1.43-3.13-3.3C79.4,499.85,80.67,498.42,82.54,498.42z"/>
	<path class="st6" d="M85.84,501.71c0-1.82,1.2-3.29,3.11-3.29s3.11,1.47,3.11,3.29c0,1.82-1.2,3.3-3.11,3.3
		S85.84,503.53,85.84,501.71z M91.03,501.71c0-1.27-0.74-2.42-2.08-2.42c-1.34,0-2.09,1.14-2.09,2.42c0,1.29,0.75,2.43,2.09,2.43
		C90.29,504.14,91.03,502.99,91.03,501.71z"/>
	<path class="st6" d="M101.22,500.59c0-0.79-0.35-1.3-1.16-1.3c-0.65,0-1.34,0.47-1.66,0.96v4.6h-0.98v-4.26
		c0-0.79-0.34-1.3-1.16-1.3c-0.64,0-1.31,0.47-1.65,0.98v4.59h-0.98v-6.28h0.98v0.91c0.26-0.4,1.1-1.07,2.03-1.07
		c0.96,0,1.51,0.52,1.69,1.17c0.35-0.57,1.2-1.17,2.11-1.17c1.14,0,1.75,0.64,1.75,1.9v4.54h-0.98V500.59z"/>
	<path class="st6" d="M111.72,500.59c0-0.79-0.35-1.3-1.16-1.3c-0.65,0-1.34,0.47-1.66,0.96v4.6h-0.98v-4.26
		c0-0.79-0.34-1.3-1.16-1.3c-0.64,0-1.31,0.47-1.65,0.98v4.59h-0.98v-6.28h0.98v0.91c0.26-0.4,1.1-1.07,2.03-1.07
		c0.96,0,1.51,0.52,1.69,1.17c0.35-0.57,1.2-1.17,2.11-1.17c1.14,0,1.75,0.64,1.75,1.9v4.54h-0.98V500.59z"/>
	<path class="st6" d="M117.38,498.42c1.9,0,3.02,1.48,3.02,3.37v0.25h-5.08c0.08,1.18,0.91,2.17,2.26,2.17
		c0.72,0,1.44-0.29,1.94-0.79l0.47,0.64c-0.62,0.62-1.47,0.96-2.5,0.96c-1.86,0-3.2-1.34-3.2-3.3
		C114.28,499.89,115.58,498.42,117.38,498.42z M115.31,501.32h4.12c-0.01-0.94-0.64-2.09-2.07-2.09
		C116.03,499.22,115.36,500.36,115.31,501.32z"/>
	<path class="st6" d="M126.21,500.75c0-1.1-0.56-1.46-1.4-1.46c-0.77,0-1.5,0.47-1.86,0.98v4.59h-0.98v-6.28h0.98v0.91
		c0.44-0.52,1.3-1.07,2.24-1.07c1.31,0,2,0.66,2,2.03v4.41h-0.98V500.75z"/>
	<path class="st6" d="M129.32,503.54v-4.11h-1.04v-0.86h1.04v-1.72h0.98v1.72h1.27v0.86h-1.27v3.9c0,0.47,0.21,0.81,0.64,0.81
		c0.27,0,0.53-0.12,0.66-0.26l0.29,0.73c-0.25,0.23-0.6,0.4-1.17,0.4C129.79,505.01,129.32,504.48,129.32,503.54z"/>
	<path class="st6" d="M132.91,503.32c0.42,0.48,1.21,0.9,2.07,0.9c0.96,0,1.48-0.43,1.48-1.04c0-0.69-0.77-0.91-1.61-1.12
		c-1.07-0.25-2.27-0.53-2.27-1.83c0-0.98,0.84-1.81,2.34-1.81c1.07,0,1.82,0.4,2.33,0.91l-0.46,0.68c-0.38-0.46-1.07-0.79-1.87-0.79
		c-0.86,0-1.39,0.39-1.39,0.95c0,0.61,0.72,0.81,1.53,1c1.09,0.25,2.35,0.56,2.35,1.95c0,1.05-0.84,1.9-2.47,1.9
		c-1.03,0-1.9-0.31-2.53-0.99L132.91,503.32z"/>
</g>
<g>
</g>
<g>
</g>
<g>
</g>
<g>
</g>
<g>
</g>
<g>
</g>
</svg>
