<?xml version="1.0" encoding="utf-8"?>
<!-- Generator: Adobe Illustrator 25.2.1, SVG Export Plug-In . SVG Version: 6.00 Build 0)  -->
<svg version="1.1" id="Layer_1" xmlns="http://www.w3.org/2000/svg" xmlns:xlink="http://www.w3.org/1999/xlink" x="0px" y="0px"
	 viewBox="0 0 360 52" style="enable-background:new 0 0 360 52;" xml:space="preserve">
<style type="text/css">
	.st0{fill:#FFFFFF;}
	.st1{fill:none;stroke:#020203;stroke-width:2;stroke-linecap:round;stroke-linejoin:round;}
	.st2{stroke:#020203;stroke-width:2;stroke-linecap:round;stroke-linejoin:round;}
	.st3{fill:#FFFFFF;stroke:#FFFFFF;stroke-width:2;stroke-linecap:round;stroke-linejoin:round;}
	.st4{fill:none;stroke:#000000;stroke-width:2;stroke-miterlimit:10;}
	.st5{fill:none;stroke:#9E9B99;stroke-width:0.5;stroke-linecap:round;stroke-linejoin:round;}
</style>
<rect x="0" y="0" class="st0" width="360" height="52"/>
<circle class="st1" cx="105.92" cy="24.17" r="8"/>
<line class="st1" x1="115.92" y1="34.17" x2="111.57" y2="29.82"/>
<polygon class="st1" points="172.89,16.17 186.89,25.17 172.89,34.17 "/>
<path class="st1" d="M246.36,15.56l-3,4v14c0,1.1,0.9,2,2,2h14c1.1,0,2-0.9,2-2v-14l-3-4H246.36z"/>
<line class="st1" x1="243.36" y1="19.56" x2="261.36" y2="19.56"/>
<path class="st1" d="M256.36,23.56c0,2.21-1.79,4-4,4s-4-1.79-4-4"/>
<path class="st2" d="M25.28,21.17l9-7l9,7v11c0,1.1-0.9,2-2,2h-14c-1.1,0-2-0.9-2-2V21.17z"/>
<polyline class="st3" points="31.31,35.79 31.25,24.84 37.25,24.81 37.31,35.76 "/>
<circle class="st4" cx="325.26" cy="25.56" r="11"/>
<line class="st5" x1="0" y1="1.62" x2="359.94" y2="2.01"/>
<g>
</g>
<g>
</g>
<g>
</g>
<g>
</g>
<g>
</g>
<g>
</g>
</svg>
