<?xml version="1.0" encoding="utf-8"?>
<!-- Generator: Adobe Illustrator 25.2.1, SVG Export Plug-In . SVG Version: 6.00 Build 0)  -->
<svg version="1.1" id="Layer_1" xmlns="http://www.w3.org/2000/svg" xmlns:xlink="http://www.w3.org/1999/xlink" x="0px" y="0px"
	 viewBox="0 0 80 80" style="enable-background:new 0 0 80 80;" xml:space="preserve">
<style type="text/css">
	.st0{fill:#782BA1;}
	.st1{fill:#2B0054;}
	.st2{fill:#0072FF;}
	.st3{fill:#35CADA;}
	.st4{fill:#00848D;}
</style>
<g>
	<path class="st0" d="M11.8,3.9v2.5h-3v8.8H5.6V6.4h-3V3.9C2.6,3.9,11.8,3.9,11.8,3.9z"/>
	<path class="st0" d="M21.3,7.2c0.6,0.7,0.9,1.6,0.9,2.8v5.2H19v-4.8c0-0.5-0.1-0.9-0.4-1.2S18,8.7,17.6,8.7c-0.5,0-0.8,0.1-1.1,0.4
		c-0.3,0.3-0.4,0.7-0.4,1.2v4.8h-3.1V3.3h3.1v4.2c0.3-0.4,0.6-0.7,1.1-1c0.5-0.2,1-0.4,1.6-0.4C19.9,6.1,20.7,6.5,21.3,7.2z"/>
	<path class="st0" d="M32.4,11.3h-5.9c0,0.5,0.2,0.9,0.4,1.1c0.2,0.2,0.5,0.4,0.9,0.4c0.5,0,0.9-0.2,1.1-0.7h3.3
		c-0.1,0.6-0.4,1.2-0.8,1.7s-0.9,0.9-1.5,1.1c-0.6,0.3-1.3,0.4-2,0.4c-0.9,0-1.7-0.2-2.4-0.6c-0.7-0.4-1.2-0.9-1.6-1.6
		c-0.4-0.7-0.6-1.5-0.6-2.4s0.2-1.8,0.6-2.4c0.4-0.7,0.9-1.2,1.6-1.6s1.5-0.6,2.4-0.6c0.9,0,1.7,0.2,2.4,0.5s1.2,0.9,1.6,1.6
		s0.6,1.5,0.6,2.4C32.5,10.9,32.5,11.1,32.4,11.3z M29.3,9.8c0-0.4-0.1-0.7-0.4-0.9c-0.3-0.2-0.6-0.3-1-0.3S27.2,8.7,27,8.9
		s-0.4,0.5-0.5,0.9C26.5,9.8,29.3,9.8,29.3,9.8z"/>
	<path class="st1" d="M6.4,20.9v1.8H10v2.4H6.4v2h4.1v2.5H3.2V18.4h7.2v2.5L6.4,20.9L6.4,20.9z"/>
	<path class="st1" d="M17.3,27v2.7H16c-2.3,0-3.4-1.1-3.4-3.4v-3h-1.1v-2.6h1.1v-2.2h3.1v2.2h1.6v2.6h-1.6v3c0,0.2,0.1,0.4,0.2,0.5
		s0.3,0.2,0.6,0.2H17.3z"/>
	<path class="st1" d="M27.1,21.7c0.6,0.7,0.9,1.6,0.9,2.8v5.2h-3.1v-4.8c0-0.5-0.1-0.9-0.4-1.2s-0.6-0.4-1.1-0.4
		c-0.5,0-0.8,0.1-1.1,0.4c-0.3,0.3-0.4,0.7-0.4,1.2v4.8h-3.1V17.9h3.1V22c0.3-0.4,0.6-0.7,1.1-1c0.5-0.2,1-0.4,1.6-0.4
		C25.7,20.6,26.5,21,27.1,21.7z"/>
	<path class="st1" d="M30,19.4c-0.3-0.3-0.5-0.7-0.5-1.1c0-0.5,0.2-0.9,0.5-1.2c0.3-0.3,0.8-0.5,1.3-0.5c0.5,0,1,0.1,1.3,0.5
		s0.5,0.7,0.5,1.2c0,0.5-0.2,0.8-0.5,1.1c-0.3,0.3-0.8,0.5-1.3,0.5C30.8,19.9,30.3,19.7,30,19.4z M32.9,20.7v9h-3.1v-9H32.9z"/>
	<path class="st1" d="M34.7,22.8c0.4-0.7,0.9-1.2,1.6-1.6s1.5-0.6,2.4-0.6c1.1,0,2.1,0.3,2.9,0.9c0.8,0.6,1.3,1.5,1.5,2.6h-3.3
		c-0.2-0.6-0.6-0.9-1.1-0.9c-0.4,0-0.7,0.2-0.9,0.5s-0.3,0.8-0.3,1.4s0.1,1.1,0.3,1.4s0.5,0.5,0.9,0.5c0.6,0,0.9-0.3,1.1-0.9h3.3
		c-0.2,1.1-0.7,2-1.5,2.6c-0.8,0.6-1.7,0.9-2.9,0.9c-0.9,0-1.7-0.2-2.4-0.6c-0.7-0.4-1.2-0.9-1.6-1.6c-0.4-0.7-0.6-1.5-0.6-2.5
		C34.2,24.3,34.3,23.5,34.7,22.8z"/>
	<path class="st1" d="M44.4,22.8c0.3-0.7,0.8-1.2,1.4-1.6c0.6-0.4,1.2-0.6,1.9-0.6c0.6,0,1.2,0.1,1.6,0.4c0.5,0.2,0.8,0.6,1,1v-1.2
		h3.1v9h-3.1v-1.2c-0.2,0.4-0.6,0.8-1,1c-0.5,0.2-1,0.4-1.6,0.4c-0.7,0-1.4-0.2-1.9-0.6c-0.6-0.4-1-0.9-1.4-1.6s-0.5-1.5-0.5-2.4
		S44,23.5,44.4,22.8z M49.8,23.8c-0.3-0.3-0.7-0.5-1.2-0.5c-0.5,0-0.9,0.2-1.2,0.5c-0.3,0.3-0.5,0.8-0.5,1.4c0,0.6,0.2,1,0.5,1.4
		s0.7,0.5,1.2,0.5c0.5,0,0.8-0.2,1.2-0.5s0.5-0.8,0.5-1.4C50.3,24.6,50.2,24.2,49.8,23.8z"/>
	<path class="st1" d="M58.4,17.9v11.8h-3.1V17.9H58.4z"/>
	<path class="st2" d="M4.3,43.4c-0.8-0.6-1.3-1.5-1.4-2.7h3.3c0,0.4,0.2,0.7,0.3,0.9s0.5,0.3,0.8,0.3c0.3,0,0.5-0.1,0.7-0.2
		s0.3-0.3,0.3-0.6c0-0.3-0.1-0.6-0.5-0.8c-0.3-0.2-0.8-0.4-1.5-0.6c-0.7-0.2-1.3-0.5-1.8-0.7s-0.8-0.6-1.2-1c-0.3-0.4-0.5-1-0.5-1.7
		c0-0.7,0.2-1.3,0.5-1.9c0.4-0.5,0.9-0.9,1.5-1.2s1.4-0.4,2.2-0.4c1.3,0,2.4,0.3,3.1,0.9c0.8,0.6,1.2,1.5,1.3,2.6H8.2
		c0-0.3-0.1-0.6-0.3-0.8c-0.2-0.2-0.4-0.3-0.8-0.3c-0.2,0-0.4,0.1-0.6,0.2S6.3,35.7,6.3,36c0,0.2,0.1,0.4,0.2,0.5
		c0.2,0.2,0.4,0.3,0.6,0.4s0.6,0.2,1.1,0.4c0.7,0.2,1.3,0.5,1.8,0.7c0.5,0.2,0.9,0.6,1.2,1s0.5,1,0.5,1.6c0,0.7-0.2,1.3-0.5,1.8
		c-0.3,0.5-0.8,1-1.5,1.3c-0.6,0.3-1.4,0.5-2.2,0.5C6.2,44.3,5.1,44,4.3,43.4z"/>
	<path class="st2" d="M14.9,43.8c-0.7-0.4-1.3-0.9-1.7-1.6c-0.4-0.7-0.6-1.5-0.6-2.5c0-0.9,0.2-1.7,0.6-2.4s1-1.2,1.7-1.6
		s1.5-0.6,2.4-0.6s1.7,0.2,2.4,0.6c0.7,0.4,1.3,0.9,1.7,1.6s0.6,1.5,0.6,2.4s-0.2,1.7-0.6,2.4c-0.4,0.7-1,1.2-1.7,1.6
		c-0.7,0.4-1.5,0.6-2.4,0.6S15.6,44.1,14.9,43.8z M18.5,41.1c0.3-0.3,0.4-0.8,0.4-1.4s-0.1-1.1-0.4-1.4s-0.6-0.5-1.1-0.5
		s-0.8,0.2-1.1,0.5c-0.3,0.3-0.4,0.8-0.4,1.4c0,0.6,0.1,1.1,0.4,1.4s0.6,0.5,1.1,0.5S18.1,41.4,18.5,41.1z"/>
	<path class="st2" d="M23.4,37.3c0.4-0.7,0.9-1.2,1.6-1.6s1.5-0.6,2.4-0.6c1.1,0,2.1,0.3,2.9,0.9c0.8,0.6,1.3,1.5,1.5,2.6h-3.3
		c-0.2-0.6-0.6-0.9-1.1-0.9c-0.4,0-0.7,0.2-0.9,0.5c-0.2,0.3-0.3,0.8-0.3,1.4s0.1,1.1,0.3,1.4c0.2,0.3,0.5,0.5,0.9,0.5
		c0.6,0,0.9-0.3,1.1-0.9h3.3c-0.2,1.1-0.7,2-1.5,2.6c-0.8,0.6-1.7,0.9-2.9,0.9c-0.9,0-1.7-0.2-2.4-0.6c-0.7-0.4-1.2-0.9-1.6-1.6
		c-0.4-0.7-0.6-1.5-0.6-2.5C22.8,38.8,23,38,23.4,37.3z"/>
	<path class="st2" d="M33.3,33.9c-0.3-0.3-0.5-0.7-0.5-1.1c0-0.5,0.2-0.9,0.5-1.2c0.3-0.3,0.8-0.5,1.3-0.5c0.5,0,1,0.1,1.3,0.5
		s0.5,0.7,0.5,1.2c0,0.5-0.2,0.8-0.5,1.1c-0.3,0.3-0.8,0.5-1.3,0.5C34.1,34.4,33.7,34.2,33.3,33.9z M36.2,35.2v9h-3.1v-9H36.2z"/>
	<path class="st2" d="M38,37.3c0.3-0.7,0.8-1.2,1.4-1.6s1.2-0.6,1.9-0.6c0.6,0,1.2,0.1,1.6,0.4c0.5,0.2,0.8,0.6,1,1v-1.2h3.1v9h-3.1
		V43c-0.2,0.4-0.6,0.8-1,1s-1,0.4-1.6,0.4c-0.7,0-1.4-0.2-1.9-0.6c-0.6-0.4-1-0.9-1.4-1.6s-0.5-1.5-0.5-2.4S37.6,38,38,37.3z
		 M43.5,38.3c-0.3-0.3-0.7-0.5-1.2-0.5c-0.5,0-0.9,0.2-1.2,0.5c-0.3,0.3-0.5,0.8-0.5,1.4c0,0.6,0.2,1,0.5,1.4s0.7,0.5,1.2,0.5
		c0.5,0,0.8-0.2,1.2-0.5s0.5-0.8,0.5-1.4C43.9,39.1,43.8,38.7,43.5,38.3z"/>
	<path class="st2" d="M52,32.3v11.8h-3.1V32.3H52z"/>
	<path class="st3" d="M16.4,47.4v11.3h-3.1v-6.2l-2.1,6.2H8.5l-2.1-6.3v6.3H3.2V47.4H7l2.8,7.3l2.8-7.3
		C12.6,47.4,16.4,47.4,16.4,47.4z"/>
	<path class="st3" d="M26.7,54.8h-5.9c0,0.5,0.2,0.9,0.4,1.1s0.5,0.4,0.9,0.4c0.5,0,0.9-0.2,1.1-0.7h3.3c-0.1,0.6-0.4,1.2-0.8,1.7
		s-0.9,0.9-1.5,1.1s-1.3,0.4-2,0.4c-0.9,0-1.7-0.2-2.4-0.6c-0.7-0.4-1.2-0.9-1.6-1.6c-0.4-0.7-0.6-1.5-0.6-2.5s0.2-1.8,0.6-2.4
		c0.4-0.7,0.9-1.2,1.6-1.6s1.5-0.6,2.4-0.6c0.9,0,1.7,0.2,2.4,0.5s1.2,0.9,1.6,1.6c0.4,0.7,0.6,1.5,0.6,2.4
		C26.8,54.3,26.8,54.6,26.7,54.8z M23.6,53.3c0-0.4-0.1-0.7-0.4-0.9c-0.3-0.2-0.6-0.3-1-0.3s-0.7,0.1-0.9,0.3s-0.4,0.5-0.5,0.9
		C20.8,53.3,23.6,53.3,23.6,53.3z"/>
	<path class="st3" d="M28.1,51.8c0.3-0.7,0.8-1.2,1.4-1.6c0.6-0.4,1.2-0.6,2-0.6c0.6,0,1.1,0.1,1.5,0.4s0.8,0.6,1.1,1v-4.1h3.2v11.8
		H34v-1.2c-0.2,0.4-0.6,0.8-1,1c-0.5,0.2-1,0.4-1.6,0.4c-0.7,0-1.4-0.2-1.9-0.6c-0.6-0.4-1-0.9-1.4-1.6c-0.3-0.7-0.5-1.5-0.5-2.4
		S27.7,52.5,28.1,51.8z M33.5,52.8c-0.3-0.3-0.7-0.5-1.2-0.5c-0.5,0-0.9,0.2-1.2,0.5s-0.5,0.8-0.5,1.4c0,0.6,0.1,1,0.5,1.4
		s0.7,0.5,1.2,0.5c0.5,0,0.8-0.2,1.2-0.5s0.5-0.8,0.5-1.4C34,53.6,33.9,53.2,33.5,52.8z"/>
	<path class="st3" d="M39.2,48.4c-0.3-0.3-0.5-0.7-0.5-1.1c0-0.5,0.2-0.9,0.5-1.2c0.3-0.3,0.8-0.5,1.3-0.5c0.5,0,1,0.2,1.3,0.5
		c0.3,0.3,0.5,0.7,0.5,1.2c0,0.5-0.2,0.8-0.5,1.1c-0.3,0.3-0.8,0.5-1.3,0.5C40,48.9,39.5,48.7,39.2,48.4z M42.1,49.7v9h-3.1v-9H42.1
		z"/>
	<path class="st3" d="M43.9,51.8c0.3-0.7,0.8-1.2,1.4-1.6c0.6-0.4,1.2-0.6,1.9-0.6c0.6,0,1.2,0.1,1.6,0.4c0.5,0.2,0.8,0.6,1,1v-1.2
		H53v9h-3.1v-1.2c-0.2,0.4-0.6,0.8-1,1s-1,0.4-1.6,0.4c-0.7,0-1.4-0.2-1.9-0.6c-0.6-0.4-1-0.9-1.4-1.6s-0.5-1.5-0.5-2.4
		S43.5,52.5,43.9,51.8z M49.4,52.8c-0.3-0.3-0.7-0.5-1.2-0.5c-0.5,0-0.9,0.2-1.2,0.5c-0.3,0.3-0.5,0.8-0.5,1.4c0,0.6,0.2,1,0.5,1.4
		s0.7,0.5,1.2,0.5c0.5,0,0.8-0.2,1.2-0.5s0.5-0.8,0.5-1.4C49.8,53.6,49.7,53.2,49.4,52.8z"/>
	<path class="st4" d="M11.7,67.5c-0.3,0.6-0.8,1-1.4,1.3c-0.6,0.3-1.4,0.5-2.3,0.5H6.4v3.8H3.2V61.9h4.7c0.9,0,1.7,0.2,2.3,0.5
		s1.1,0.8,1.4,1.3c0.3,0.6,0.5,1.2,0.5,1.9C12.2,66.4,12,67,11.7,67.5z M9,65.7c0-0.8-0.4-1.2-1.3-1.2H6.4v2.4h1.2
		C8.5,66.9,9,66.5,9,65.7z"/>
	<path class="st4" d="M17.9,64.6c0.5-0.3,1-0.4,1.6-0.4v3.3h-0.9c-0.7,0-1.2,0.1-1.5,0.4s-0.5,0.7-0.5,1.4v3.9h-3.1v-9h3.1v1.6
		C16.9,65.3,17.3,64.9,17.9,64.6z"/>
	<path class="st4" d="M22.4,72.8c-0.7-0.4-1.3-0.9-1.7-1.6c-0.4-0.7-0.6-1.5-0.6-2.4c0-0.9,0.2-1.7,0.6-2.4s1-1.2,1.7-1.6
		c0.7-0.4,1.5-0.6,2.4-0.6s1.7,0.2,2.4,0.6c0.7,0.4,1.3,0.9,1.7,1.6s0.6,1.5,0.6,2.4s-0.2,1.7-0.6,2.4c-0.4,0.7-1,1.2-1.7,1.6
		c-0.7,0.4-1.5,0.6-2.4,0.6S23.1,73.1,22.4,72.8z M25.9,70.1c0.3-0.3,0.4-0.8,0.4-1.4s-0.1-1.1-0.4-1.4s-0.6-0.5-1.1-0.5
		S24,67,23.7,67.3c-0.3,0.3-0.4,0.8-0.4,1.4c0,0.6,0.1,1.1,0.4,1.4s0.6,0.5,1.1,0.5S25.6,70.4,25.9,70.1z"/>
	<path class="st4" d="M33.9,74.1c0,2.3-1.1,3.4-3.4,3.4h-1.1v-2.7H30c0.3,0,0.5-0.1,0.6-0.2s0.2-0.3,0.2-0.5v-9.9h3.1L33.9,74.1
		L33.9,74.1z M31,62.9c-0.3-0.3-0.5-0.7-0.5-1.1c0-0.5,0.2-0.9,0.5-1.2c0.3-0.3,0.8-0.5,1.3-0.5c0.5,0,1,0.2,1.3,0.5
		c0.3,0.3,0.5,0.7,0.5,1.2c0,0.5-0.2,0.8-0.5,1.1c-0.3,0.3-0.8,0.5-1.3,0.5C31.8,63.4,31.3,63.2,31,62.9z"/>
	<path class="st4" d="M44.2,69.3h-5.9c0,0.5,0.2,0.9,0.4,1.1s0.5,0.4,0.9,0.4c0.5,0,0.9-0.2,1.1-0.7H44c-0.1,0.6-0.4,1.2-0.8,1.7
		c-0.4,0.5-0.9,0.9-1.5,1.1s-1.3,0.4-2,0.4c-0.9,0-1.7-0.2-2.4-0.6c-0.7-0.4-1.2-0.9-1.6-1.6c-0.4-0.7-0.6-1.5-0.6-2.4
		s0.2-1.8,0.6-2.4c0.4-0.7,0.9-1.2,1.6-1.6c0.7-0.4,1.5-0.6,2.4-0.6c0.9,0,1.7,0.2,2.3,0.5s1.2,0.9,1.6,1.6c0.4,0.7,0.6,1.5,0.6,2.4
		C44.2,68.8,44.2,69.1,44.2,69.3z M41,67.8c0-0.4-0.1-0.7-0.4-0.9c-0.3-0.2-0.6-0.3-1-0.3s-0.7,0.1-0.9,0.3s-0.4,0.5-0.5,0.9
		C38.3,67.8,41,67.8,41,67.8z"/>
	<path class="st4" d="M45.6,66.3c0.4-0.7,0.9-1.2,1.6-1.6c0.7-0.4,1.5-0.6,2.4-0.6c1.1,0,2.1,0.3,2.9,0.9c0.8,0.6,1.3,1.5,1.5,2.6
		h-3.3c-0.2-0.6-0.6-0.9-1.1-0.9c-0.4,0-0.7,0.2-0.9,0.5s-0.3,0.8-0.3,1.4s0.1,1.1,0.3,1.4s0.5,0.5,0.9,0.5c0.6,0,0.9-0.3,1.1-0.9
		h3.3c-0.2,1.1-0.7,2-1.5,2.6s-1.7,0.9-2.9,0.9c-0.9,0-1.7-0.2-2.4-0.6c-0.7-0.4-1.2-0.9-1.6-1.6S45,69.7,45,68.7
		C45,67.8,45.2,67,45.6,66.3z"/>
	<path class="st4" d="M60.5,70.5v2.7h-1.4c-2.3,0-3.4-1.1-3.4-3.4v-3h-1.1v-2.6h1.1V62h3.2v2.2h1.6v2.6h-1.6v3
		c0,0.2,0.1,0.4,0.2,0.5s0.3,0.2,0.6,0.2H60.5z"/>
</g>
</svg>
