<?xml version="1.0" encoding="utf-8"?>
<!-- Generator: Adobe Illustrator 25.2.1, SVG Export Plug-In . SVG Version: 6.00 Build 0)  -->
<svg version="1.1" id="Layer_1" xmlns="http://www.w3.org/2000/svg" xmlns:xlink="http://www.w3.org/1999/xlink" x="0px" y="0px"
	 viewBox="0 0 360 61" style="enable-background:new 0 0 360 61;" xml:space="preserve">
<style type="text/css">
	.st0{stroke:#020203;stroke-width:2;stroke-linecap:round;stroke-linejoin:round;}
	.st1{fill:#FFFFFF;}
	.st2{fill:none;stroke:#020203;stroke-width:2;stroke-linecap:round;stroke-linejoin:round;}
	.st3{display:none;fill:#951B81;}
	.st4{fill:none;stroke:#000000;stroke-width:2;stroke-miterlimit:10;}
</style>
<path class="st0" d="M23.74,18.92l9-7l9,7v11c0,1.1-0.9,2-2,2h-14c-1.1,0-2-0.9-2-2V18.92z"/>
<polyline class="st1" points="29.74,33.25 29.74,23.25 35.74,23.25 35.74,33.25 "/>
<circle class="st2" cx="107.01" cy="22.58" r="8"/>
<line class="st2" x1="117.01" y1="32.58" x2="112.66" y2="28.23"/>
<path class="st2" d="M262.64,26.62c0,1.12-0.97,2.03-2.16,2.03h-12.98l-4.33,4.05V16.49c0-1.12,0.97-2.03,2.16-2.03h15.14
	c1.19,0,2.16,0.91,2.16,2.03V26.62z"/>
<path class="st2" d="M334.82,31.58v-2.01c0-2.22-1.8-4.03-4.03-4.03h-8.05c-2.22,0-4.03,1.8-4.03,4.03v2.01"/>
<circle class="st2" cx="326.77" cy="17.49" r="4.03"/>
<line class="st2" x1="180.28" y1="22.76" x2="180.28" y2="34.37"/>
<line class="st2" x1="174.47" y1="28.56" x2="186.08" y2="28.56"/>
<path class="st2" d="M190.69,42.22H170.3c-5.78,0-10.47-4.69-10.47-10.47v-6.7c0-5.78,4.69-10.47,10.47-10.47h20.39
	c5.78,0,10.47,4.69,10.47,10.47v6.7C201.15,37.53,196.47,42.22,190.69,42.22z"/>
<g>
	<path d="M23.62,42.88v-2.53h-2.56v2.53h-1.17v-6.12h1.17v2.54h2.56v-2.54h1.17v6.12H23.62z"/>
	<path d="M28.45,43c-1.47,0-2.64-1.03-2.64-2.58c0-1.44,1.18-2.58,2.62-2.58c1.52,0,2.6,1.15,2.6,2.58
		C31.03,41.85,30.07,43,28.45,43z M28.42,38.89c-0.9,0-1.47,0.72-1.47,1.55c0,0.83,0.57,1.55,1.47,1.55c0.96,0,1.49-0.7,1.49-1.54
		S29.43,38.89,28.42,38.89z"/>
	<path d="M37.52,42.88c0,0,0-2.13,0-3.25c0-0.73-0.31-0.92-0.72-0.92c-0.64,0-0.96,0.54-0.96,0.99c0,1.05,0,2.13,0,3.18h-1.09
		c0,0,0-2.27,0-3.37c0-0.62-0.25-0.8-0.7-0.8c-0.52,0-0.95,0.5-0.95,0.98c0,1.08,0,3.19,0,3.19h-1.09v-4.91h1.01v0.54
		c0,0,0.38-0.72,1.33-0.72c0.84,0,1.22,0.56,1.28,0.74c0,0,0.33-0.75,1.4-0.75c0.9,0,1.58,0.53,1.58,1.42c0,1.2,0,2.48,0,3.68H37.52
		z"/>
	<path d="M40.72,40.72c0,0.74,0.57,1.34,1.35,1.34c0.63,0,1.16-0.36,1.4-0.86l0.96,0.45C44.15,42.31,43.32,43,42.12,43
		c-1.46,0-2.55-0.99-2.55-2.51c0-1.43,1.1-2.61,2.57-2.61c1.64,0,2.43,1.17,2.41,2.85C44.54,40.72,40.88,40.72,40.72,40.72z
		 M42.1,38.79c-0.9,0-1.33,0.75-1.33,1.08c0,0,2.46,0,2.65,0C43.42,39.63,43.19,38.79,42.1,38.79z"/>
</g>
<g>
	<path d="M94.43,43c-0.96,0-2.48,0-2.48,0v-6.12c0,0,1.35,0,2.29,0c1.47,0,2.77,1.21,2.77,2.98C97.02,41.66,95.94,43,94.43,43z
		 M94.22,37.85c-0.31,0-1.14,0-1.14,0v4.18c0,0,0.84,0,1.13,0c0.67,0,1.59-0.6,1.59-2.08C95.8,38.3,94.78,37.85,94.22,37.85z"/>
	<path d="M98.58,37.68c-0.39,0-0.71-0.32-0.71-0.71c0-0.39,0.32-0.71,0.71-0.71c0.39,0,0.71,0.32,0.71,0.71
		C99.29,37.36,98.97,37.68,98.58,37.68z M98.01,43v-4.91h1.14V43H98.01z"/>
	<path d="M101.68,43.12c-0.78,0-1.34-0.37-1.74-0.97l0.87-0.56c0,0,0.39,0.67,0.92,0.67c0.38,0,0.69-0.2,0.69-0.55
		c0-0.41-0.43-0.53-0.8-0.68c-0.13-0.06-0.25-0.1-0.4-0.17c-0.62-0.27-1.1-0.7-1.1-1.45c0-0.85,0.8-1.42,1.65-1.42
		c0.66,0,1.18,0.26,1.51,0.75c0,0-0.64,0.54-0.78,0.65c-0.08-0.13-0.3-0.5-0.78-0.5c-0.3,0-0.52,0.2-0.52,0.48
		c0,0.29,0.29,0.47,0.58,0.59c0.23,0.1,0.38,0.14,0.63,0.25c0.72,0.29,1.09,0.74,1.09,1.44C103.49,42.58,102.68,43.12,101.68,43.12z
		"/>
	<path d="M106.76,43.12c-1.4,0-2.62-0.94-2.62-2.44c0-1.42,0.98-2.69,2.64-2.69c0.51,0,0.95,0.12,1.37,0.38v1.08
		c0,0-0.59-0.43-1.33-0.43c-0.99,0-1.56,0.66-1.56,1.65c0,0.82,0.56,1.44,1.56,1.44c0.56,0,1.03-0.26,1.35-0.48v1.09
		C108.17,42.72,107.6,43.12,106.76,43.12z"/>
	<path d="M111.52,43.12c-1.47,0-2.64-1.03-2.64-2.58c0-1.44,1.18-2.58,2.62-2.58c1.52,0,2.6,1.15,2.6,2.58
		C114.1,41.97,113.13,43.12,111.52,43.12z M111.48,39.01c-0.9,0-1.47,0.72-1.47,1.55c0,0.83,0.57,1.55,1.47,1.55
		c0.96,0,1.49-0.7,1.49-1.54S112.49,39.01,111.48,39.01z"/>
	<path d="M117.54,43h-1l-1.99-4.91h1.17l1.34,3.41l1.29-3.41h1.16L117.54,43z"/>
	<path d="M121.15,40.84c0,0.74,0.57,1.34,1.35,1.34c0.63,0,1.16-0.36,1.4-0.86l0.96,0.45c-0.28,0.66-1.12,1.36-2.32,1.36
		c-1.46,0-2.55-0.99-2.55-2.51c0-1.43,1.1-2.61,2.57-2.61c1.64,0,2.43,1.17,2.41,2.85C124.96,40.84,121.31,40.84,121.15,40.84z
		 M122.52,38.91c-0.9,0-1.33,0.75-1.33,1.08c0,0,2.45,0,2.65,0C123.84,39.75,123.61,38.91,122.52,38.91z"/>
	<path d="M128.52,39.17c0,0-0.27-0.1-0.5-0.1c-0.74,0-1,0.72-1,1.27c0,1.08,0,2.67,0,2.67h-1.09v-4.91h1.04v0.71
		c0,0,0.3-0.83,1.3-0.83c0.18,0,0.38,0.02,0.6,0.11L128.52,39.17z"/>
</g>
<g>
	<path d="M241.91,43.12V37h1.17v6.12H241.91z"/>
	<path d="M247.57,43.12c0,0,0-1.69,0-2.79c0-0.9-0.3-1.21-0.94-1.21c-0.91,0-1.14,0.85-1.14,1.33c0,1.08,0,2.67,0,2.67h-1.09v-4.91
		h1.06v0.69c0,0,0.34-0.78,1.51-0.78c1.04,0,1.69,0.66,1.69,1.73c0,1.05,0,2.23,0,3.28H247.57z"/>
	<path d="M252.47,43.24c-0.66,0-1.14-0.26-1.53-0.82v0.7h-1.04V37h1.08v1.86c0,0,0.42-0.74,1.54-0.74c1.46,0,2.3,1.24,2.3,2.49
		C254.83,41.94,253.95,43.24,252.47,43.24z M252.36,39.18c-0.91,0-1.38,0.75-1.38,1.48c0,0.82,0.57,1.54,1.38,1.54
		c0.95,0,1.32-0.68,1.32-1.51C253.67,39.72,253.18,39.18,252.36,39.18z"/>
	<path d="M258.14,43.24c-1.47,0-2.64-1.03-2.64-2.58c0-1.44,1.17-2.58,2.62-2.58c1.52,0,2.6,1.15,2.6,2.58
		C260.72,42.09,259.75,43.24,258.14,43.24z M258.11,39.13c-0.9,0-1.47,0.72-1.47,1.55c0,0.83,0.57,1.55,1.47,1.55
		c0.96,0,1.49-0.7,1.49-1.54S259.12,39.13,258.11,39.13z"/>
	<path d="M265.21,43.12l-1.33-1.88l-1.33,1.88h-1.36l1.99-2.61l-1.78-2.3h1.39l1.07,1.59l1.09-1.59h1.34l-1.74,2.29l2.03,2.61
		H265.21z"/>
</g>
<g>
	<path d="M327.06,43.24l-0.64-4.29l-1.61,4.29h-0.54l-1.61-4.27l-0.65,4.27h-1.15l1.02-6.12h1.18l1.47,4l1.5-4h1.18l1.01,6.12
		H327.06z"/>
	<path d="M329.83,41.08c0,0.74,0.57,1.34,1.35,1.34c0.63,0,1.16-0.36,1.4-0.86l0.96,0.45c-0.28,0.66-1.12,1.36-2.32,1.36
		c-1.46,0-2.55-0.99-2.55-2.51c0-1.43,1.1-2.61,2.57-2.61c1.64,0,2.43,1.17,2.41,2.85C333.65,41.08,330,41.08,329.83,41.08z
		 M331.21,39.15c-0.9,0-1.33,0.75-1.33,1.08c0,0,2.46,0,2.65,0C332.53,39.99,332.3,39.15,331.21,39.15z"/>
</g>
<rect x="0.28" y="0.16" class="st3" width="360" height="61.12"/>
<line class="st4" x1="0" y1="1.1" x2="360" y2="1.1"/>
<g>
</g>
<g>
</g>
<g>
</g>
<g>
</g>
<g>
</g>
<g>
</g>
</svg>
