<?xml version="1.0" encoding="utf-8"?>
<!-- Generator: Adobe Illustrator 25.2.1, SVG Export Plug-In . SVG Version: 6.00 Build 0)  -->
<svg version="1.1" id="Layer_1" xmlns="http://www.w3.org/2000/svg" xmlns:xlink="http://www.w3.org/1999/xlink" x="0px" y="0px"
	 viewBox="0 0 360 607" style="enable-background:new 0 0 360 607;" xml:space="preserve">
<style type="text/css">
	.st0{fill:#FFFFFF;stroke:#020203;stroke-width:2;stroke-linecap:round;stroke-linejoin:round;}
	.st1{fill:none;stroke:#020203;stroke-width:2;stroke-linecap:round;stroke-linejoin:round;}
	.st2{display:none;fill:#E6007E;}
</style>
<circle class="st0" cx="329.52" cy="276.9" r="21.5"/>
<circle class="st0" cx="329.52" cy="299.19" r="8.46"/>
<line class="st1" x1="329.52" y1="295.81" x2="329.52" y2="302.58"/>
<line class="st1" x1="326.13" y1="299.19" x2="332.9" y2="299.19"/>
<path class="st1" d="M344.86,337.2c-3.33-3.33-8.74-3.34-12.07,0c0,0,0,0,0,0l-1.64,1.64l-1.64-1.64c-3.33-3.33-8.74-3.33-12.07,0
	c-3.33,3.33-3.33,8.74,0,12.07l1.64,1.64L331.14,363l12.07-12.07l1.64-1.64C348.19,345.94,348.19,340.54,344.86,337.2
	C344.86,337.21,344.86,337.2,344.86,337.2z"/>
<path class="st1" d="M344.61,414.85c0.01,2.07-0.48,4.11-1.41,5.95c-2.25,4.51-6.86,7.36-11.9,7.36c-2.07,0.01-4.11-0.48-5.95-1.41
	l-8.93,2.98l2.98-8.93c-0.93-1.85-1.41-3.88-1.41-5.95c0-5.04,2.85-9.65,7.36-11.9c1.85-0.93,3.88-1.41,5.95-1.41h0.78
	c6.76,0.37,12.16,5.77,12.53,12.53V414.85z"/>
<polyline class="st1" points="335.04,490.88 341.53,484.39 335.04,477.9 "/>
<path class="st1" d="M320.75,498.68v-9.09c0-2.87,2.33-5.2,5.2-5.2h15.59"/>
<path class="st1" d="M13.83,596.08V585.9l9.4-1.57v10.18"/>
<circle class="st1" cx="11.48" cy="596.08" r="2.35"/>
<circle class="st1" cx="20.88" cy="594.51" r="2.35"/>
<circle class="st0" cx="330.12" cy="577.18" r="21.5"/>
<g>
	<path d="M321.73,378.23c-1.04,0-1.69-0.23-2.59-0.74l0.28-1.62c0,0,1,0.82,2.21,0.82c1.28,0,1.95-0.72,1.95-1.76
		c0-1.02-0.85-1.67-2.18-1.67c-0.89,0-1.67,0.38-1.67,0.38l0.77-4.76h4.17v1.42h-2.97l-0.28,1.7c0,0,0.53-0.12,0.85-0.12
		c1.71,0,3.07,1.38,3.07,3.09C325.34,376.89,323.79,378.23,321.73,378.23z"/>
	<path d="M330.52,378.23c-2.31,0-3.56-1.96-3.56-4.71c0-2.71,1.19-4.85,3.54-4.85c2.36,0,3.61,2.06,3.61,4.75
		C334.11,376.42,332.87,378.23,330.52,378.23z M330.44,370.2c-1.42,0-1.82,1.8-1.82,3.29c0,1.55,0.43,3.24,1.92,3.24
		c1.62,0,1.92-1.7,1.92-3.31C332.45,371.75,332,370.2,330.44,370.2z"/>
	<path d="M338.73,378.23c-2.31,0-3.56-1.96-3.56-4.71c0-2.71,1.19-4.85,3.54-4.85c2.36,0,3.61,2.06,3.61,4.75
		C342.32,376.42,341.08,378.23,338.73,378.23z M338.65,370.2c-1.42,0-1.82,1.8-1.82,3.29c0,1.55,0.43,3.24,1.92,3.24
		c1.62,0,1.92-1.7,1.92-3.31C340.66,371.75,340.21,370.2,338.65,370.2z"/>
</g>
<g>
	<path d="M320.86,446.1c-1.04,0-1.69-0.23-2.59-0.74l0.28-1.62c0,0,1,0.82,2.21,0.82c1.28,0,1.95-0.72,1.95-1.76
		c0-1.02-0.85-1.67-2.18-1.67c-0.89,0-1.67,0.38-1.67,0.38l0.77-4.76h4.17v1.42h-2.97l-0.28,1.7c0,0,0.53-0.12,0.85-0.12
		c1.71,0,3.07,1.38,3.07,3.09C324.47,444.77,322.93,446.1,320.86,446.1z"/>
	<path d="M329.66,446.1c-2.31,0-3.56-1.96-3.56-4.71c0-2.71,1.19-4.85,3.54-4.85c2.36,0,3.61,2.06,3.61,4.75
		C333.25,444.29,332.01,446.1,329.66,446.1z M329.58,438.08c-1.42,0-1.82,1.8-1.82,3.29c0,1.55,0.43,3.24,1.92,3.24
		c1.62,0,1.92-1.7,1.92-3.31C331.59,439.63,331.13,438.08,329.58,438.08z"/>
	<path d="M337.87,446.1c-2.31,0-3.56-1.96-3.56-4.71c0-2.71,1.19-4.85,3.54-4.85c2.36,0,3.61,2.06,3.61,4.75
		C341.45,444.29,340.22,446.1,337.87,446.1z M337.78,438.08c-1.42,0-1.82,1.8-1.82,3.29c0,1.55,0.43,3.24,1.92,3.24
		c1.62,0,1.92-1.7,1.92-3.31C339.8,439.63,339.34,438.08,337.78,438.08z"/>
</g>
<g>
	<path d="M321.78,513.72c-1.04,0-1.69-0.23-2.59-0.74l0.28-1.62c0,0,1,0.82,2.21,0.82c1.28,0,1.95-0.72,1.95-1.76
		c0-1.02-0.85-1.67-2.18-1.67c-0.89,0-1.67,0.38-1.67,0.38l0.77-4.76h4.17v1.42h-2.97l-0.28,1.7c0,0,0.53-0.12,0.85-0.12
		c1.71,0,3.07,1.38,3.07,3.09C325.39,512.39,323.84,513.72,321.78,513.72z"/>
	<path d="M330.57,513.72c-2.31,0-3.56-1.96-3.56-4.71c0-2.71,1.19-4.85,3.54-4.85c2.36,0,3.61,2.06,3.61,4.75
		C334.16,511.91,332.92,513.72,330.57,513.72z M330.49,505.69c-1.42,0-1.82,1.8-1.82,3.29c0,1.55,0.43,3.24,1.92,3.24
		c1.62,0,1.92-1.7,1.92-3.31C332.5,507.24,332.05,505.69,330.49,505.69z"/>
	<path d="M338.78,513.72c-2.31,0-3.56-1.96-3.56-4.71c0-2.71,1.19-4.85,3.54-4.85c2.36,0,3.61,2.06,3.61,4.75
		C342.37,511.91,341.13,513.72,338.78,513.72z M338.7,505.69c-1.42,0-1.82,1.8-1.82,3.29c0,1.55,0.43,3.24,1.92,3.24
		c1.62,0,1.92-1.7,1.92-3.31C340.71,507.24,340.25,505.69,338.7,505.69z"/>
</g>
<g>
	<path d="M12.57,568.82c-2.07,0-3.46-1.09-3.46-2.98c0-1.7,0-3.5,0-5.2h1.77c0,0,0,2.79,0,4.59c0,1.59,0.62,1.89,1.65,1.89
		c0.99,0,1.55-0.3,1.55-1.85c0-1.75,0-4.63,0-4.63h1.77c0,0,0,3.13,0,5.2C15.85,567.6,14.48,568.82,12.57,568.82z"/>
	<path d="M19.95,568.82c-1.26,0-2.18-0.6-2.83-1.57l1.42-0.91c0,0,0.64,1.09,1.5,1.09c0.61,0,1.12-0.33,1.12-0.9
		c0-0.66-0.7-0.86-1.3-1.11c-0.21-0.09-0.4-0.17-0.65-0.27c-1.01-0.44-1.78-1.14-1.78-2.35c0-1.38,1.3-2.31,2.68-2.31
		c1.07,0,1.91,0.43,2.46,1.22c0,0-1.04,0.87-1.27,1.05c-0.13-0.21-0.48-0.82-1.26-0.82c-0.48,0-0.85,0.33-0.85,0.78
		c0,0.47,0.47,0.77,0.94,0.96c0.38,0.16,0.61,0.23,1.03,0.4c1.17,0.48,1.77,1.2,1.77,2.34C22.9,567.94,21.59,568.82,19.95,568.82z"
		/>
	<path d="M25.84,565.12c0,1.21,0.92,2.17,2.2,2.17c1.03,0,1.89-0.58,2.28-1.4l1.56,0.73c-0.46,1.08-1.82,2.21-3.77,2.21
		c-2.37,0-4.15-1.61-4.15-4.08c0-2.33,1.78-4.25,4.17-4.25c2.67,0,3.95,1.9,3.91,4.63C32.04,565.12,26.1,565.12,25.84,565.12z
		 M28.08,561.97c-1.46,0-2.16,1.22-2.16,1.75c0,0,3.99,0,4.3,0C30.22,563.34,29.85,561.97,28.08,561.97z"/>
	<path d="M37.83,562.39c0,0-0.44-0.17-0.81-0.17c-1.2,0-1.62,1.17-1.62,2.07c0,1.75,0,4.34,0,4.34h-1.77v-7.98h1.69v1.16
		c0,0,0.48-1.35,2.11-1.35c0.29,0,0.62,0.04,0.98,0.18L37.83,562.39z"/>
</g>
<g>
	<path d="M37.08,596.34c-1.24,0-2.05-0.34-2.91-1.27l1.07-1.15c0.41,0.46,0.98,0.84,1.8,0.84c0.71,0,1.34-0.52,1.34-1.22
		c0-0.59-0.41-0.97-0.96-1.17c-0.25-0.1-0.54-0.19-0.88-0.32c-1.56-0.64-2.05-1.33-2.05-2.6c0-1.57,1.31-2.69,2.83-2.69
		c1.08,0,1.92,0.38,2.55,1.08l-0.97,1.14c-0.35-0.31-0.76-0.7-1.51-0.7c-0.6,0-1.15,0.5-1.15,1.12c0,0.55,0.38,0.85,0.86,1.06
		c0.37,0.16,0.59,0.25,0.96,0.4c1.28,0.49,2.09,1.38,2.09,2.72C40.15,595.18,38.67,596.34,37.08,596.34z"/>
	<path d="M45.05,596.26c-2.21,0-3.96-1.55-3.96-3.86c0-2.16,1.76-3.87,3.93-3.87c2.28,0,3.9,1.73,3.9,3.87
		C48.92,594.53,47.47,596.26,45.05,596.26z M45,590.08c-1.34,0-2.21,1.08-2.21,2.33s0.85,2.33,2.21,2.33c1.44,0,2.23-1.06,2.23-2.3
		C47.23,591.18,46.51,590.08,45,590.08z"/>
	<path d="M53.58,596.26c-1.91,0-3.19-1.01-3.19-2.75c0-1.57,0-3.23,0-4.8h1.63c0,0,0,2.58,0,4.23c0,1.46,0.58,1.74,1.52,1.74
		c0.91,0,1.43-0.28,1.43-1.7c0-1.62,0-4.27,0-4.27h1.63c0,0,0,2.89,0,4.8C56.6,595.13,55.34,596.26,53.58,596.26z"/>
	<path d="M63.28,596.08c0,0,0-2.53,0-4.19c0-1.36-0.46-1.81-1.42-1.81c-1.37,0-1.7,1.27-1.7,1.99c0,1.62,0,4.01,0,4.01h-1.63v-7.36
		h1.58v1.03c0,0,0.5-1.17,2.27-1.17c1.56,0,2.53,0.98,2.53,2.59c0,1.57,0,3.35,0,4.92H63.28z"/>
	<path d="M72.18,596.08v-0.97c0,0-0.8,1.15-2.39,1.15c-2.35,0-3.49-1.88-3.49-3.86c0-2.05,1.24-3.81,3.55-3.81
		c1.01,0,1.63,0.3,2.28,1.03v-2.91h1.61v9.38H72.18z M70.12,590.04c-1.38,0-2.07,1.1-2.07,2.4c0,1.43,0.78,2.39,1.99,2.39
		c1.4,0,2.06-1.18,2.06-2.47C72.1,591.05,71.33,590.04,70.12,590.04z"/>
</g>
<rect x="-0.4" y="0.49" class="st2" width="360" height="607.01"/>
<g>
</g>
<g>
</g>
<g>
</g>
<g>
</g>
<g>
</g>
<g>
</g>
</svg>
