<?xml version="1.0" encoding="utf-8"?>
<!-- Generator: Adobe Illustrator 25.2.1, SVG Export Plug-In . SVG Version: 6.00 Build 0)  -->
<svg version="1.1" id="Layer_1" xmlns="http://www.w3.org/2000/svg" xmlns:xlink="http://www.w3.org/1999/xlink" x="0px" y="0px"
	 viewBox="0 0 80 18" style="enable-background:new 0 0 80 18;" xml:space="preserve">
<style type="text/css">
	.st0{fill:#2B1F4F;}
</style>
<g>
	<g>
		<path class="st0" d="M4.08,12.07c1.93,0,1.93-3,0-3C2.15,9.07,2.15,12.07,4.08,12.07L4.08,12.07z"/>
	</g>
</g>
<g>
	<g>
		<path class="st0" d="M4.09,12.01c7.38,0.29,14.93-0.17,22.18-1.71c2.66-0.56,5.49-1.57,7.19-3.82c0.76-1,1.37-2.32,1.15-3.61
			c-0.26-1.51-1.59-2.46-3.09-2.38c-2.96,0.16-4.36,3.86-4.32,6.37c0.04,2.69,1.31,5.36,3.37,7.08c5.2,4.35,12.36,2.87,18.07,0.53
			c3.74-1.53,7.43-3.2,11.13-4.81c3.82-1.66,7.73-3.43,11.98-3.34c1.93,0.04,1.93-2.96,0-3c-5.88-0.13-11.3,2.8-16.55,5.08
			c-4.93,2.14-10.25,5.21-15.74,5.36c-4.38,0.12-9.77-2.4-9.23-7.57c0.09-0.89,0.45-1.97,1.17-2.55c0.52-0.42,0.28,0.06,0.08,0.39
			c-0.31,0.52-0.57,0.94-1.04,1.34c-1.59,1.38-3.86,1.84-5.87,2.22C17.81,8.85,10.94,9.28,4.09,9.01
			C2.16,8.94,2.16,11.94,4.09,12.01L4.09,12.01z"/>
	</g>
</g>
<g>
	<g>
		<path class="st0" d="M71.39,3.87C70.8,4.78,70.34,5.78,70,6.8c-0.12,0.36-0.03,0.84,0.15,1.16c0.18,0.31,0.54,0.61,0.9,0.69
			c0.38,0.09,0.82,0.07,1.16-0.15c0.34-0.22,0.56-0.51,0.69-0.9c0.1-0.28,0.2-0.56,0.32-0.83c-0.05,0.12-0.1,0.24-0.15,0.36
			c0.26-0.6,0.57-1.19,0.92-1.74c0.21-0.32,0.25-0.8,0.15-1.16c-0.1-0.35-0.36-0.73-0.69-0.9c-0.35-0.18-0.77-0.28-1.16-0.15
			C71.9,3.3,71.61,3.53,71.39,3.87L71.39,3.87z"/>
	</g>
</g>
<g>
	<g>
		<path class="st0" d="M73.92,3.2c-0.63-0.67-1.27-1.32-1.94-1.96C71.7,0.97,71.31,0.8,70.92,0.8c-0.21-0.01-0.4,0.04-0.58,0.13
			C70.16,0.99,70,1.1,69.86,1.24C69.6,1.53,69.4,1.9,69.42,2.3c0.02,0.39,0.15,0.78,0.44,1.06C70.52,4,71.17,4.66,71.8,5.33
			c0.14,0.15,0.3,0.25,0.48,0.31c0.18,0.09,0.37,0.14,0.58,0.13c0.21,0.01,0.4-0.04,0.58-0.13c0.19-0.06,0.35-0.16,0.48-0.31
			c0.26-0.29,0.46-0.66,0.44-1.06C74.34,3.86,74.2,3.5,73.92,3.2L73.92,3.2z"/>
	</g>
</g>
<g>
</g>
<g>
</g>
<g>
</g>
<g>
</g>
<g>
</g>
<g>
</g>
</svg>
