<?xml version="1.0" encoding="utf-8"?>
<!-- Generator: Adobe Illustrator 25.2.1, SVG Export Plug-In . SVG Version: 6.00 Build 0)  -->
<svg version="1.1" id="Layer_1" xmlns="http://www.w3.org/2000/svg" xmlns:xlink="http://www.w3.org/1999/xlink" x="0px" y="0px"
	 viewBox="0 0 360 48" style="enable-background:new 0 0 360 48;" xml:space="preserve">
<style type="text/css">
	.st0{fill:#FFFFFF;}
	.st1{stroke:#020203;stroke-width:2;stroke-linecap:round;stroke-linejoin:round;}
	.st2{fill:none;stroke:#020203;stroke-width:2;stroke-linecap:round;stroke-linejoin:round;}
	.st3{fill:none;stroke:#DADADA;stroke-linecap:round;stroke-linejoin:round;stroke-miterlimit:3.3333;}
</style>
<rect x="0.36" y="-0.73" class="st0" width="360" height="48"/>
<path class="st1" d="M21.6,22.29l9-7l9,7v11c0,1.1-0.9,2-2,2h-14c-1.1,0-2-0.9-2-2V22.29z"/>
<polyline class="st0" points="27.6,36.29 27.6,26.29 33.6,26.29 33.6,36.29 "/>
<path class="st2" d="M143.2,16.9h16c1.1,0,2,0.9,2,2v10c0,1.1-0.9,2-2,2h-16c-1.1,0-2-0.9-2-2v-10
	C141.2,17.79,142.09,16.9,143.2,16.9z"/>
<line class="st2" x1="147.2" y1="34.9" x2="155.2" y2="34.9"/>
<line class="st2" x1="151.2" y1="30.9" x2="151.2" y2="34.9"/>
<path class="st2" d="M97.28,35.29v-2c0-2.21-1.79-4-4-4h-8c-2.21,0-4,1.79-4,4v2"/>
<circle class="st2" cx="89.28" cy="21.29" r="4"/>
<path class="st2" d="M103.28,35.29v-2c0-1.82-1.24-3.41-3-3.87"/>
<path class="st2" d="M96.28,17.42c2.14,0.55,3.43,2.73,2.88,4.87c-0.36,1.42-1.47,2.52-2.88,2.88"/>
<path class="st2" d="M220.09,34.9v-2c0-2.21-1.79-4-4-4h-8c-2.21,0-4,1.79-4,4v2"/>
<circle class="st2" cx="212.09" cy="20.9" r="4"/>
<line class="st2" x1="324.53" y1="25.9" x2="342.53" y2="25.9"/>
<line class="st2" x1="324.53" y1="19.9" x2="342.53" y2="19.9"/>
<line class="st2" x1="324.53" y1="31.9" x2="342.53" y2="31.9"/>
<path class="st2" d="M278.31,21.9c0-3.31-2.69-6-6-6s-6,2.69-6,6c0,7-3,9-3,9h18C281.31,30.9,278.31,28.9,278.31,21.9"/>
<path class="st2" d="M274.04,34.9c-0.55,0.96-1.78,1.28-2.73,0.73c-0.3-0.17-0.55-0.43-0.73-0.73"/>
<line class="st3" x1="0.28" y1="47.38" x2="360.28" y2="47.38"/>
<g>
</g>
<g>
</g>
<g>
</g>
<g>
</g>
<g>
</g>
<g>
</g>
</svg>
