<?xml version="1.0" encoding="utf-8"?>
<!-- Generator: Adobe Illustrator 25.2.1, SVG Export Plug-In . SVG Version: 6.00 Build 0)  -->
<svg version="1.1" xmlns="http://www.w3.org/2000/svg" xmlns:xlink="http://www.w3.org/1999/xlink" x="0px" y="0px"
	 viewBox="0 0 360 2060" style="enable-background:new 0 0 360 2060;" xml:space="preserve">
<style type="text/css">
	.st0{fill:#FFFFFF;}
	.st1{fill:#020203;stroke:#030304;stroke-width:3;stroke-linecap:round;stroke-linejoin:round;stroke-miterlimit:6;}
	.st2{fill:none;stroke:#030304;stroke-width:2;stroke-linecap:round;stroke-linejoin:round;stroke-miterlimit:6;}
	.st3{fill:#020203;}
	.st4{fill:none;stroke:#030304;stroke-width:2;stroke-miterlimit:10;}
	.st5{fill:none;stroke:#030304;stroke-width:2;stroke-linecap:round;stroke-linejoin:round;}
	.st6{fill:none;stroke:#020203;stroke-width:2;stroke-linecap:round;stroke-linejoin:round;}
	.st7{fill:#A3A09F;}
</style>
<g id="Layer_1">
	<rect x="-0.25" class="st0" width="360" height="515"/>
	<circle class="st1" cx="337.96" cy="23.76" r="0.87"/>
	<circle class="st1" cx="337.96" cy="17.68" r="0.87"/>
	<circle class="st1" cx="337.96" cy="29.83" r="0.87"/>
	<circle class="st2" cx="22.99" cy="23.53" r="12.5"/>
	<g>
		<path class="st3" d="M52.44,25.64c-0.43,0.48-1.18,0.95-2.21,0.95c-1.38,0-2.03-0.75-2.03-1.98v-4.46h1.65v3.81
			c0,0.87,0.46,1.16,1.16,1.16c0.64,0,1.14-0.35,1.43-0.71v-4.25h1.65v6.28h-1.65C52.44,26.44,52.44,25.64,52.44,25.64z"/>
		<path class="st3" d="M55.9,24.45c0.45,0.43,1.39,0.86,2.17,0.86c0.71,0,1.05-0.25,1.05-0.64c0-0.44-0.55-0.6-1.26-0.74
			c-1.08-0.21-2.47-0.47-2.47-1.96c0-1.05,0.92-1.98,2.57-1.98c1.07,0,1.91,0.36,2.54,0.86l-0.66,1.13
			c-0.38-0.4-1.09-0.73-1.86-0.73c-0.6,0-0.99,0.22-0.99,0.58c0,0.39,0.49,0.53,1.2,0.68c1.08,0.21,2.52,0.49,2.52,2.05
			c0,1.14-0.98,2.01-2.72,2.01c-1.09,0-2.15-0.36-2.81-0.97L55.9,24.45z"/>
		<path class="st3" d="M64.78,19.99c1.87,0,3.15,1.4,3.15,3.46v0.36h-4.67c0.1,0.79,0.74,1.46,1.81,1.46c0.58,0,1.27-0.23,1.68-0.62
			l0.73,1.07c-0.62,0.57-1.61,0.87-2.59,0.87c-1.91,0-3.35-1.29-3.35-3.3C61.53,21.46,62.87,19.99,64.78,19.99z M63.23,22.7h3.09
			c-0.04-0.6-0.46-1.39-1.55-1.39C63.75,21.31,63.31,22.07,63.23,22.7z"/>
		<path class="st3" d="M69.12,20.15h1.65v0.86c0.44-0.56,1.22-1,2-1v1.61c-0.12-0.03-0.27-0.05-0.46-0.05
			c-0.55,0-1.27,0.31-1.55,0.72v4.15h-1.65v-6.29H69.12z"/>
	</g>
	<line class="st4" x1="-0.25" y1="47.75" x2="360.75" y2="47.75"/>
	<path class="st5" d="M343.07,437.21l-7-5l-7,5v-16c0-1.1,0.9-2,2-2h10c1.1,0,2,0.9,2,2V437.21z"/>
	<path class="st5" d="M50.04,429.76c0,1.32,0.3,2.62,0.9,3.8c1.44,2.88,4.38,4.7,7.6,4.7c1.32,0,2.62-0.3,3.8-0.9l5.7,1.9l-1.9-5.7
		c0.6-1.18,0.9-2.48,0.9-3.8c0-3.22-1.82-6.16-4.7-7.6c-1.18-0.6-2.48-0.9-3.8-0.9h-0.5c-4.32,0.24-7.76,3.68-8,8V429.76z"/>
	<line class="st5" x1="105.72" y1="421.67" x2="92.04" y2="429.08"/>
	<polygon class="st5" points="105.72,421.67 93.31,438.85 92.04,429.08 84.56,422.68 	"/>
	<path class="st6" d="M30.91,422.75c-2.15-2.15-5.63-2.15-7.78,0l0,0l-1.06,1.06l-1.06-1.06c-2.15-2.15-5.63-2.15-7.78,0
		s-2.15,5.63,0,7.78l1.06,1.06l7.78,7.78l7.78-7.78l1.06-1.06C33.06,428.39,33.06,424.9,30.91,422.75
		C30.92,422.76,30.91,422.75,30.91,422.75z"/>
	<line class="st4" x1="-0.75" y1="407.41" x2="360.25" y2="407.41"/>
	<g>
		<path class="st3" d="M12.84,459.9c0.6,0.62,1.55,0.99,2.39,0.99c1.05,0,1.64-0.46,1.64-1.12c0-0.7-0.53-1.03-1.74-1.03
			c-0.36,0-0.95,0-1.08,0.01v-1.61c0.16,0.01,0.75,0.01,1.08,0.01c0.96,0,1.6-0.31,1.6-0.96c0-0.69-0.7-1.04-1.61-1.04
			c-0.83,0-1.6,0.33-2.21,0.91L12,454.92c0.7-0.79,1.79-1.38,3.32-1.38c2.03,0,3.28,0.91,3.28,2.35c0,1.09-0.94,1.81-1.9,1.98
			c0.88,0.09,2.03,0.78,2.03,2.08c0,1.5-1.34,2.55-3.42,2.55c-1.6,0-2.78-0.61-3.42-1.39L12.84,459.9z"/>
		<path class="st3" d="M23.28,453.54c2.47,0,3.59,2.24,3.59,4.47s-1.12,4.49-3.59,4.49c-2.48,0-3.59-2.25-3.59-4.49
			S20.8,453.54,23.28,453.54z M23.28,455.18c-1.25,0-1.72,1.24-1.72,2.83s0.47,2.85,1.72,2.85c1.24,0,1.7-1.25,1.7-2.85
			S24.52,455.18,23.28,455.18z"/>
		<path class="st3" d="M31.34,453.54c2.47,0,3.59,2.24,3.59,4.47s-1.12,4.49-3.59,4.49c-2.48,0-3.59-2.25-3.59-4.49
			S28.86,453.54,31.34,453.54z M31.34,455.18c-1.25,0-1.72,1.24-1.72,2.83s0.47,2.85,1.72,2.85c1.24,0,1.7-1.25,1.7-2.85
			S32.58,455.18,31.34,455.18z"/>
		<path class="st3" d="M39.52,453.67h1.65v8.67h-1.65V453.67z"/>
		<path class="st3" d="M42.64,454.15c0-0.55,0.46-0.99,0.99-0.99c0.55,0,0.99,0.44,0.99,0.99s-0.44,0.99-0.99,0.99
			C43.09,455.14,42.64,454.7,42.64,454.15z M42.81,456.06h1.65v6.28h-1.65V456.06z"/>
		<path class="st3" d="M48.5,459.92l-0.75,0.81v1.61H46.1v-8.67h1.65v5.19l2.38-2.79h2.03l-2.48,2.85l2.56,3.43h-2.07L48.5,459.92z"
			/>
		<path class="st3" d="M55.63,455.91c1.87,0,3.15,1.4,3.15,3.46v0.36h-4.67c0.1,0.79,0.74,1.46,1.81,1.46
			c0.58,0,1.27-0.23,1.68-0.62l0.73,1.07c-0.62,0.57-1.61,0.87-2.59,0.87c-1.91,0-3.35-1.29-3.35-3.3
			C52.38,457.37,53.72,455.91,55.63,455.91z M54.08,458.61h3.09c-0.04-0.6-0.46-1.39-1.55-1.39
			C54.6,457.22,54.16,457.99,54.08,458.61z"/>
		<path class="st3" d="M60.14,460.36c0.46,0.43,1.39,0.86,2.17,0.86c0.71,0,1.05-0.25,1.05-0.64c0-0.44-0.55-0.6-1.26-0.74
			c-1.08-0.21-2.47-0.47-2.47-1.96c0-1.05,0.92-1.98,2.57-1.98c1.07,0,1.91,0.36,2.54,0.86l-0.66,1.13
			c-0.38-0.4-1.09-0.73-1.86-0.73c-0.6,0-0.99,0.22-0.99,0.58c0,0.39,0.49,0.53,1.2,0.68c1.08,0.21,2.52,0.49,2.52,2.05
			c0,1.14-0.97,2.02-2.72,2.02c-1.09,0-2.14-0.36-2.81-0.98L60.14,460.36z"/>
	</g>
	<g>
		<path class="st3" d="M15.86,480.33c-0.43,0.48-1.18,0.95-2.21,0.95c-1.38,0-2.03-0.75-2.03-1.98v-4.46h1.65v3.81
			c0,0.87,0.46,1.16,1.16,1.16c0.64,0,1.14-0.35,1.43-0.71v-4.25h1.65v6.28h-1.65V480.33z"/>
		<path class="st3" d="M19.32,479.15c0.45,0.43,1.39,0.86,2.17,0.86c0.71,0,1.05-0.25,1.05-0.64c0-0.44-0.55-0.6-1.26-0.74
			c-1.08-0.21-2.47-0.47-2.47-1.96c0-1.05,0.92-1.98,2.57-1.98c1.07,0,1.91,0.36,2.54,0.86l-0.66,1.13
			c-0.38-0.4-1.09-0.73-1.86-0.73c-0.6,0-0.99,0.22-0.99,0.58c0,0.39,0.49,0.53,1.2,0.68c1.08,0.21,2.52,0.49,2.52,2.05
			c0,1.14-0.98,2.02-2.72,2.02c-1.09,0-2.15-0.36-2.81-0.98L19.32,479.15z"/>
		<path class="st3" d="M28.2,474.69c1.87,0,3.15,1.4,3.15,3.46v0.36h-4.67c0.1,0.79,0.74,1.46,1.81,1.46c0.58,0,1.27-0.23,1.68-0.62
			l0.73,1.07c-0.62,0.57-1.61,0.87-2.59,0.87c-1.91,0-3.35-1.29-3.35-3.3C24.95,476.16,26.29,474.69,28.2,474.69z M26.65,477.39
			h3.09c-0.04-0.6-0.46-1.39-1.55-1.39C27.17,476,26.73,476.77,26.65,477.39z"/>
		<path class="st3" d="M32.54,474.84h1.65v0.86c0.44-0.56,1.22-1,2-1v1.61c-0.12-0.03-0.27-0.05-0.46-0.05
			c-0.55,0-1.27,0.31-1.55,0.71v4.15h-1.65L32.54,474.84L32.54,474.84z"/>
	</g>
	<g>
		<path class="st3" d="M43.3,473.57h-2.74v-0.96h6.58v0.96h-2.76v7.71H43.3C43.3,481.28,43.3,473.57,43.3,473.57z"/>
		<path class="st3" d="M52.78,477.15c0-1.11-0.57-1.43-1.42-1.43c-0.75,0-1.48,0.47-1.86,0.98v4.59h-0.98v-8.67h0.98v3.3
			c0.44-0.52,1.3-1.07,2.25-1.07c1.31,0,2,0.64,2,2v4.43h-0.98L52.78,477.15L52.78,477.15z"/>
		<path class="st3" d="M55.54,473.29c0-0.36,0.3-0.65,0.65-0.65c0.36,0,0.66,0.29,0.66,0.65s-0.3,0.66-0.66,0.66
			S55.54,473.65,55.54,473.29z M55.7,475h0.98v6.28H55.7V475z"/>
		<path class="st3" d="M58.59,479.75c0.42,0.48,1.21,0.9,2.07,0.9c0.96,0,1.48-0.43,1.48-1.04c0-0.69-0.77-0.91-1.61-1.12
			c-1.07-0.25-2.27-0.53-2.27-1.83c0-0.98,0.84-1.81,2.34-1.81c1.07,0,1.82,0.4,2.33,0.91l-0.46,0.68
			c-0.38-0.45-1.07-0.79-1.87-0.79c-0.86,0-1.39,0.39-1.39,0.95c0,0.61,0.72,0.81,1.53,1c1.09,0.25,2.35,0.56,2.35,1.95
			c0,1.05-0.84,1.9-2.47,1.9c-1.03,0-1.9-0.31-2.54-0.99L58.59,479.75z"/>
		<path class="st3" d="M67.86,473.29c0-0.36,0.3-0.65,0.65-0.65c0.36,0,0.66,0.29,0.66,0.65s-0.3,0.66-0.66,0.66
			C68.16,473.95,67.86,473.65,67.86,473.29z M68.03,475h0.98v6.28h-0.98V475z"/>
		<path class="st3" d="M70.91,479.75c0.42,0.48,1.21,0.9,2.07,0.9c0.96,0,1.48-0.43,1.48-1.04c0-0.69-0.77-0.91-1.61-1.12
			c-1.07-0.25-2.27-0.53-2.27-1.83c0-0.98,0.84-1.81,2.34-1.81c1.07,0,1.82,0.4,2.33,0.91l-0.46,0.68
			c-0.38-0.45-1.07-0.79-1.87-0.79c-0.86,0-1.39,0.39-1.39,0.95c0,0.61,0.72,0.81,1.53,1c1.09,0.25,2.35,0.56,2.35,1.95
			c0,1.05-0.84,1.9-2.47,1.9c-1.03,0-1.9-0.31-2.53-0.99L70.91,479.75z"/>
		<path class="st3" d="M84.28,480.57c-0.52,0.57-1.24,0.87-2.08,0.87c-1.07,0-2.2-0.71-2.2-2.08c0-1.4,1.13-2.07,2.2-2.07
			c0.86,0,1.57,0.27,2.08,0.86v-1.13c0-0.84-0.68-1.33-1.59-1.33c-0.75,0-1.36,0.27-1.92,0.87l-0.46-0.68
			c0.68-0.7,1.48-1.04,2.51-1.04c1.33,0,2.43,0.6,2.43,2.12v4.32h-0.98L84.28,480.57L84.28,480.57z M84.28,478.77
			c-0.38-0.52-1.04-0.78-1.73-0.78c-0.91,0-1.55,0.57-1.55,1.38c0,0.79,0.64,1.37,1.55,1.37c0.69,0,1.35-0.26,1.73-0.78V478.77z"/>
		<path class="st3" d="M93.33,474.84c1.14,0,1.82,0.47,2.3,1.09l-0.65,0.6c-0.42-0.57-0.95-0.82-1.6-0.82
			c-1.34,0-2.17,1.03-2.17,2.42s0.83,2.43,2.17,2.43c0.65,0,1.18-0.26,1.6-0.82l0.65,0.6c-0.48,0.62-1.16,1.09-2.3,1.09
			c-1.87,0-3.13-1.43-3.13-3.3C90.19,476.28,91.45,474.84,93.33,474.84z"/>
		<path class="st3" d="M100.92,480.57c-0.52,0.57-1.24,0.87-2.08,0.87c-1.07,0-2.2-0.71-2.2-2.08c0-1.4,1.13-2.07,2.2-2.07
			c0.86,0,1.57,0.27,2.08,0.86v-1.13c0-0.84-0.68-1.33-1.59-1.33c-0.75,0-1.36,0.27-1.92,0.87l-0.46-0.68
			c0.68-0.7,1.48-1.04,2.51-1.04c1.33,0,2.43,0.6,2.43,2.12v4.32h-0.98L100.92,480.57L100.92,480.57z M100.92,478.77
			c-0.38-0.52-1.04-0.78-1.73-0.78c-0.91,0-1.55,0.57-1.55,1.38c0,0.79,0.64,1.37,1.55,1.37c0.69,0,1.35-0.26,1.73-0.78V478.77z"/>
		<path class="st3" d="M103.84,483.67V475h0.98v0.94c0.46-0.64,1.23-1.09,2.12-1.09c1.65,0,2.79,1.25,2.79,3.29
			c0,2.03-1.14,3.3-2.79,3.3c-0.86,0-1.61-0.4-2.12-1.11v3.34H103.84z M106.69,475.72c-0.77,0-1.53,0.46-1.87,1v2.83
			c0.34,0.55,1.1,1.01,1.87,1.01c1.26,0,2.02-1.04,2.02-2.43C108.7,476.74,107.95,475.72,106.69,475.72z"/>
		<path class="st3" d="M111.5,479.97v-4.11h-1.04V475h1.04v-1.72h0.98V475h1.27v0.86h-1.27v3.9c0,0.47,0.21,0.81,0.64,0.81
			c0.27,0,0.53-0.12,0.66-0.26l0.29,0.73c-0.25,0.23-0.6,0.4-1.17,0.4C111.97,481.44,111.5,480.9,111.5,479.97z"/>
		<path class="st3" d="M114.96,473.29c0-0.36,0.3-0.65,0.65-0.65c0.36,0,0.66,0.29,0.66,0.65s-0.3,0.66-0.66,0.66
			C115.26,473.95,114.96,473.65,114.96,473.29z M115.13,475h0.98v6.28h-0.98V475z"/>
		<path class="st3" d="M117.69,478.13c0-1.82,1.2-3.29,3.11-3.29s3.11,1.47,3.11,3.29s-1.2,3.3-3.11,3.3
			S117.69,479.95,117.69,478.13z M122.87,478.13c0-1.27-0.74-2.42-2.08-2.42c-1.34,0-2.09,1.14-2.09,2.42
			c0,1.29,0.75,2.43,2.09,2.43C122.13,480.57,122.87,479.42,122.87,478.13z"/>
		<path class="st3" d="M129.72,477.17c0-1.1-0.56-1.46-1.4-1.46c-0.77,0-1.5,0.47-1.86,0.98v4.59h-0.98V475h0.98v0.91
			c0.44-0.52,1.3-1.07,2.24-1.07c1.31,0,2,0.66,2,2.03v4.41h-0.98L129.72,477.17L129.72,477.17z"/>
	</g>
	<g>
		<path class="st7" d="M11.94,495.72h1.23l2.93,7.49l2.92-7.49h1.24l-3.5,8.67h-1.34L11.94,495.72z"/>
		<path class="st7" d="M21.19,496.4c0-0.36,0.3-0.65,0.65-0.65c0.36,0,0.66,0.29,0.66,0.65s-0.3,0.66-0.66,0.66
			S21.19,496.76,21.19,496.4z M21.35,498.11h0.98v6.28h-0.98V498.11z"/>
		<path class="st7" d="M27.01,497.96c1.9,0,3.02,1.48,3.02,3.37v0.25h-5.08c0.08,1.18,0.91,2.17,2.26,2.17
			c0.71,0,1.44-0.29,1.94-0.79l0.47,0.64c-0.62,0.62-1.47,0.96-2.5,0.96c-1.86,0-3.2-1.34-3.2-3.3
			C23.92,499.43,25.22,497.96,27.01,497.96z M24.94,500.86h4.12c-0.01-0.94-0.64-2.09-2.07-2.09
			C25.66,498.76,24.99,499.9,24.94,500.86z"/>
		<path class="st7" d="M35.39,499.35l-1.63,5.04h-0.98l-2-6.28h1.01l1.53,5l1.65-5h0.83l1.65,5l1.53-5h1.01l-2,6.28h-0.98
			L35.39,499.35z"/>
		<path class="st7" d="M48.42,503.68c-0.52,0.57-1.24,0.87-2.08,0.87c-1.07,0-2.2-0.71-2.2-2.08c0-1.4,1.13-2.07,2.2-2.07
			c0.86,0,1.57,0.27,2.08,0.86v-1.13c0-0.85-0.68-1.33-1.59-1.33c-0.75,0-1.36,0.27-1.92,0.87l-0.46-0.68
			c0.68-0.7,1.48-1.04,2.51-1.04c1.33,0,2.43,0.6,2.43,2.12v4.32h-0.97C48.42,504.39,48.42,503.68,48.42,503.68z M48.42,501.88
			c-0.38-0.52-1.04-0.78-1.73-0.78c-0.91,0-1.55,0.57-1.55,1.38c0,0.79,0.64,1.37,1.55,1.37c0.69,0,1.35-0.26,1.73-0.78V501.88z"/>
		<path class="st7" d="M51.35,495.72h0.98v8.67h-0.98V495.72z"/>
		<path class="st7" d="M54.27,495.72h0.98v8.67h-0.98V495.72z"/>
		<path class="st7" d="M61.09,502.44c0.57,0.73,1.33,1.14,2.39,1.14c1.18,0,2-0.81,2-1.86c0-1.14-0.82-1.87-1.99-1.87
			c-0.77,0-1.42,0.25-2,0.82l-0.79-0.27v-4.68H66v0.96h-4.23v3.02c0.42-0.42,1.16-0.78,2.03-0.78c1.44,0,2.76,0.99,2.76,2.77
			c0,1.77-1.34,2.86-3.08,2.86c-1.47,0-2.41-0.53-3.06-1.39L61.09,502.44z"/>
		<path class="st7" d="M71.22,495.59c2.37,0,3.32,2.35,3.32,4.47c0,2.11-0.95,4.49-3.32,4.49c-2.38,0-3.31-2.38-3.31-4.49
			S68.84,495.59,71.22,495.59z M71.22,496.55c-1.65,0-2.21,1.78-2.21,3.51s0.56,3.52,2.21,3.52s2.21-1.79,2.21-3.52
			S72.87,496.55,71.22,496.55z"/>
		<path class="st7" d="M82.3,497.96c1.14,0,1.82,0.47,2.3,1.09l-0.65,0.6c-0.42-0.57-0.95-0.82-1.6-0.82
			c-1.34,0-2.17,1.03-2.17,2.42s0.83,2.43,2.17,2.43c0.65,0,1.18-0.26,1.6-0.82l0.65,0.6c-0.48,0.62-1.16,1.09-2.3,1.09
			c-1.87,0-3.13-1.43-3.13-3.3C79.16,499.39,80.43,497.96,82.3,497.96z"/>
		<path class="st7" d="M85.6,501.25c0-1.82,1.2-3.29,3.11-3.29s3.11,1.47,3.11,3.29s-1.2,3.3-3.11,3.3S85.6,503.07,85.6,501.25z
			 M90.79,501.25c0-1.27-0.74-2.42-2.08-2.42c-1.34,0-2.09,1.14-2.09,2.42c0,1.29,0.75,2.43,2.09,2.43
			C90.05,503.68,90.79,502.53,90.79,501.25z"/>
		<path class="st7" d="M100.98,500.13c0-0.79-0.35-1.3-1.16-1.3c-0.65,0-1.34,0.47-1.66,0.96v4.6h-0.98v-4.26
			c0-0.79-0.34-1.3-1.16-1.3c-0.64,0-1.31,0.47-1.65,0.98v4.59h-0.98v-6.28h0.98v0.91c0.26-0.4,1.1-1.07,2.03-1.07
			c0.96,0,1.51,0.52,1.69,1.17c0.35-0.57,1.2-1.17,2.11-1.17c1.14,0,1.75,0.64,1.75,1.9v4.54h-0.98v-4.27H100.98z"/>
		<path class="st7" d="M111.48,500.13c0-0.79-0.35-1.3-1.16-1.3c-0.65,0-1.34,0.47-1.66,0.96v4.6h-0.98v-4.26
			c0-0.79-0.34-1.3-1.16-1.3c-0.64,0-1.31,0.47-1.65,0.98v4.59h-0.98v-6.28h0.98v0.91c0.26-0.4,1.1-1.07,2.03-1.07
			c0.96,0,1.51,0.52,1.69,1.17c0.35-0.57,1.2-1.17,2.11-1.17c1.14,0,1.75,0.64,1.75,1.9v4.54h-0.98v-4.27H111.48z"/>
		<path class="st7" d="M117.14,497.96c1.9,0,3.02,1.48,3.02,3.37v0.25h-5.08c0.08,1.18,0.91,2.17,2.26,2.17
			c0.72,0,1.44-0.29,1.94-0.79l0.47,0.64c-0.62,0.62-1.47,0.96-2.5,0.96c-1.86,0-3.2-1.34-3.2-3.3
			C114.04,499.43,115.34,497.96,117.14,497.96z M115.07,500.86h4.12c-0.01-0.94-0.64-2.09-2.07-2.09
			C115.79,498.76,115.12,499.9,115.07,500.86z"/>
		<path class="st7" d="M125.97,500.29c0-1.1-0.56-1.46-1.4-1.46c-0.77,0-1.5,0.47-1.86,0.98v4.59h-0.98v-6.28h0.98v0.91
			c0.44-0.52,1.3-1.07,2.24-1.07c1.31,0,2,0.66,2,2.03v4.41h-0.98C125.97,504.4,125.97,500.29,125.97,500.29z"/>
		<path class="st7" d="M129.08,503.08v-4.11h-1.04v-0.86h1.04v-1.72h0.98v1.72h1.27v0.86h-1.27v3.9c0,0.47,0.21,0.81,0.64,0.81
			c0.27,0,0.53-0.12,0.66-0.26l0.29,0.73c-0.25,0.23-0.6,0.4-1.17,0.4C129.55,504.55,129.08,504.02,129.08,503.08z"/>
		<path class="st7" d="M132.67,502.86c0.42,0.48,1.21,0.9,2.07,0.9c0.96,0,1.48-0.43,1.48-1.04c0-0.69-0.77-0.91-1.61-1.12
			c-1.07-0.25-2.27-0.53-2.27-1.83c0-0.98,0.84-1.81,2.34-1.81c1.07,0,1.82,0.4,2.33,0.91l-0.46,0.68
			c-0.38-0.46-1.07-0.79-1.87-0.79c-0.86,0-1.39,0.39-1.39,0.95c0,0.61,0.72,0.81,1.53,1c1.09,0.25,2.35,0.56,2.35,1.95
			c0,1.05-0.84,1.9-2.47,1.9c-1.03,0-1.9-0.31-2.53-0.99L132.67,502.86z"/>
	</g>
</g>
<g id="Layer_2">
	<rect x="-0.25" y="515.2" class="st0" width="360" height="515"/>
	<circle class="st1" cx="337.96" cy="538.96" r="0.87"/>
	<circle class="st1" cx="337.96" cy="532.88" r="0.87"/>
	<circle class="st1" cx="337.96" cy="545.03" r="0.87"/>
	<circle class="st2" cx="22.99" cy="538.73" r="12.5"/>
	<g>
		<path class="st3" d="M52.44,540.84c-0.43,0.48-1.18,0.95-2.21,0.95c-1.38,0-2.03-0.75-2.03-1.98v-4.46h1.65v3.81
			c0,0.87,0.46,1.16,1.16,1.16c0.64,0,1.14-0.35,1.43-0.71v-4.25h1.65v6.28h-1.65C52.44,541.64,52.44,540.84,52.44,540.84z"/>
		<path class="st3" d="M55.9,539.65c0.45,0.43,1.39,0.86,2.17,0.86c0.71,0,1.05-0.25,1.05-0.64c0-0.44-0.55-0.6-1.26-0.74
			c-1.08-0.21-2.47-0.47-2.47-1.96c0-1.05,0.92-1.98,2.57-1.98c1.07,0,1.91,0.36,2.54,0.86l-0.66,1.13
			c-0.38-0.4-1.09-0.73-1.86-0.73c-0.6,0-0.99,0.22-0.99,0.58c0,0.39,0.49,0.53,1.2,0.68c1.08,0.21,2.52,0.49,2.52,2.05
			c0,1.14-0.98,2.01-2.72,2.01c-1.09,0-2.15-0.36-2.81-0.97L55.9,539.65z"/>
		<path class="st3" d="M64.78,535.19c1.87,0,3.15,1.4,3.15,3.46v0.36h-4.67c0.1,0.79,0.74,1.46,1.81,1.46
			c0.58,0,1.27-0.23,1.68-0.62l0.73,1.07c-0.62,0.57-1.61,0.87-2.59,0.87c-1.91,0-3.35-1.29-3.35-3.3
			C61.53,536.66,62.87,535.19,64.78,535.19z M63.23,537.9h3.09c-0.04-0.6-0.46-1.39-1.55-1.39
			C63.75,536.51,63.31,537.27,63.23,537.9z"/>
		<path class="st3" d="M69.12,535.35h1.65v0.86c0.44-0.56,1.22-1,2-1v1.61c-0.12-0.03-0.27-0.05-0.46-0.05
			c-0.55,0-1.27,0.31-1.55,0.72v4.15h-1.65v-6.29H69.12z"/>
	</g>
	<line class="st4" x1="-0.25" y1="562.95" x2="360.75" y2="562.95"/>
	<path class="st5" d="M343.07,952.41l-7-5l-7,5v-16c0-1.1,0.9-2,2-2h10c1.1,0,2,0.9,2,2V952.41z"/>
	<path class="st5" d="M50.04,944.96c0,1.32,0.3,2.62,0.9,3.8c1.44,2.88,4.38,4.7,7.6,4.7c1.32,0,2.62-0.3,3.8-0.9l5.7,1.9l-1.9-5.7
		c0.6-1.18,0.9-2.48,0.9-3.8c0-3.22-1.82-6.16-4.7-7.6c-1.18-0.6-2.48-0.9-3.8-0.9h-0.5c-4.32,0.24-7.76,3.68-8,8V944.96z"/>
	<line class="st5" x1="105.72" y1="936.87" x2="92.04" y2="944.28"/>
	<polygon class="st5" points="105.72,936.87 93.31,954.05 92.04,944.28 84.56,937.88 	"/>
	<path class="st6" d="M30.91,937.95c-2.15-2.15-5.63-2.15-7.78,0l0,0l-1.06,1.06l-1.06-1.06c-2.15-2.15-5.63-2.15-7.78,0
		c-2.15,2.15-2.15,5.63,0,7.78l1.06,1.06l7.78,7.78l7.78-7.78l1.06-1.06C33.06,943.59,33.06,940.1,30.91,937.95
		C30.92,937.96,30.91,937.95,30.91,937.95z"/>
	<line class="st4" x1="-0.75" y1="922.61" x2="360.25" y2="922.61"/>
	<g>
		<path class="st3" d="M12.84,975.1c0.6,0.62,1.55,0.99,2.39,0.99c1.05,0,1.64-0.46,1.64-1.12c0-0.7-0.53-1.03-1.74-1.03
			c-0.36,0-0.95,0-1.08,0.01v-1.61c0.16,0.01,0.75,0.01,1.08,0.01c0.96,0,1.6-0.31,1.6-0.96c0-0.69-0.7-1.04-1.61-1.04
			c-0.83,0-1.6,0.33-2.21,0.91L12,970.12c0.7-0.79,1.79-1.38,3.32-1.38c2.03,0,3.28,0.91,3.28,2.35c0,1.09-0.94,1.81-1.9,1.98
			c0.88,0.09,2.03,0.78,2.03,2.08c0,1.5-1.34,2.55-3.42,2.55c-1.6,0-2.78-0.61-3.42-1.39L12.84,975.1z"/>
		<path class="st3" d="M23.28,968.74c2.47,0,3.59,2.24,3.59,4.47c0,2.23-1.12,4.49-3.59,4.49c-2.48,0-3.59-2.25-3.59-4.49
			S20.8,968.74,23.28,968.74z M23.28,970.38c-1.25,0-1.72,1.24-1.72,2.83c0,1.59,0.47,2.85,1.72,2.85c1.24,0,1.7-1.25,1.7-2.85
			C24.98,971.61,24.52,970.38,23.28,970.38z"/>
		<path class="st3" d="M31.34,968.74c2.47,0,3.59,2.24,3.59,4.47c0,2.23-1.12,4.49-3.59,4.49c-2.48,0-3.59-2.25-3.59-4.49
			S28.86,968.74,31.34,968.74z M31.34,970.38c-1.25,0-1.72,1.24-1.72,2.83c0,1.59,0.47,2.85,1.72,2.85c1.24,0,1.7-1.25,1.7-2.85
			C33.04,971.61,32.58,970.38,31.34,970.38z"/>
		<path class="st3" d="M39.52,968.87h1.65v8.67h-1.65V968.87z"/>
		<path class="st3" d="M42.64,969.35c0-0.55,0.46-0.99,0.99-0.99c0.55,0,0.99,0.44,0.99,0.99s-0.44,0.99-0.99,0.99
			C43.09,970.34,42.64,969.9,42.64,969.35z M42.81,971.26h1.65v6.28h-1.65V971.26z"/>
		<path class="st3" d="M48.5,975.12l-0.75,0.81v1.61H46.1v-8.67h1.65v5.19l2.38-2.79h2.03l-2.48,2.85l2.56,3.43h-2.07L48.5,975.12z"
			/>
		<path class="st3" d="M55.63,971.11c1.87,0,3.15,1.4,3.15,3.46v0.36h-4.67c0.1,0.79,0.74,1.46,1.81,1.46
			c0.58,0,1.27-0.23,1.68-0.62l0.73,1.07c-0.62,0.57-1.61,0.87-2.59,0.87c-1.91,0-3.35-1.29-3.35-3.3
			C52.38,972.57,53.72,971.11,55.63,971.11z M54.08,973.81h3.09c-0.04-0.6-0.46-1.39-1.55-1.39
			C54.6,972.42,54.16,973.19,54.08,973.81z"/>
		<path class="st3" d="M60.14,975.56c0.46,0.43,1.39,0.86,2.17,0.86c0.71,0,1.05-0.25,1.05-0.64c0-0.44-0.55-0.6-1.26-0.74
			c-1.08-0.21-2.47-0.47-2.47-1.96c0-1.05,0.92-1.98,2.57-1.98c1.07,0,1.91,0.36,2.54,0.86l-0.66,1.13
			c-0.38-0.4-1.09-0.73-1.86-0.73c-0.6,0-0.99,0.22-0.99,0.58c0,0.39,0.49,0.53,1.2,0.68c1.08,0.21,2.52,0.49,2.52,2.05
			c0,1.14-0.97,2.02-2.72,2.02c-1.09,0-2.14-0.36-2.81-0.98L60.14,975.56z"/>
	</g>
	<g>
		<path class="st3" d="M15.86,995.53c-0.43,0.48-1.18,0.95-2.21,0.95c-1.38,0-2.03-0.75-2.03-1.98v-4.46h1.65v3.81
			c0,0.87,0.46,1.16,1.16,1.16c0.64,0,1.14-0.35,1.43-0.71v-4.25h1.65v6.28h-1.65V995.53z"/>
		<path class="st3" d="M19.32,994.35c0.45,0.43,1.39,0.86,2.17,0.86c0.71,0,1.05-0.25,1.05-0.64c0-0.44-0.55-0.6-1.26-0.74
			c-1.08-0.21-2.47-0.47-2.47-1.96c0-1.05,0.92-1.98,2.57-1.98c1.07,0,1.91,0.36,2.54,0.86l-0.66,1.13
			c-0.38-0.4-1.09-0.73-1.86-0.73c-0.6,0-0.99,0.22-0.99,0.58c0,0.39,0.49,0.53,1.2,0.68c1.08,0.21,2.52,0.49,2.52,2.05
			c0,1.14-0.98,2.02-2.72,2.02c-1.09,0-2.15-0.36-2.81-0.98L19.32,994.35z"/>
		<path class="st3" d="M28.2,989.89c1.87,0,3.15,1.4,3.15,3.46v0.36h-4.67c0.1,0.79,0.74,1.46,1.81,1.46c0.58,0,1.27-0.23,1.68-0.62
			l0.73,1.07c-0.62,0.57-1.61,0.87-2.59,0.87c-1.91,0-3.35-1.29-3.35-3.3C24.95,991.36,26.29,989.89,28.2,989.89z M26.65,992.59
			h3.09c-0.04-0.6-0.46-1.39-1.55-1.39C27.17,991.2,26.73,991.97,26.65,992.59z"/>
		<path class="st3" d="M32.54,990.04h1.65v0.86c0.44-0.56,1.22-1,2-1v1.61c-0.12-0.03-0.27-0.05-0.46-0.05
			c-0.55,0-1.27,0.31-1.55,0.71v4.15h-1.65L32.54,990.04L32.54,990.04z"/>
	</g>
	<g>
		<path class="st3" d="M43.3,988.77h-2.74v-0.96h6.58v0.96h-2.76v7.71H43.3C43.3,996.48,43.3,988.77,43.3,988.77z"/>
		<path class="st3" d="M52.78,992.35c0-1.11-0.57-1.43-1.42-1.43c-0.75,0-1.48,0.47-1.86,0.98v4.59h-0.98v-8.67h0.98v3.3
			c0.44-0.52,1.3-1.07,2.25-1.07c1.31,0,2,0.64,2,2v4.43h-0.98L52.78,992.35L52.78,992.35z"/>
		<path class="st3" d="M55.54,988.49c0-0.36,0.3-0.65,0.65-0.65c0.36,0,0.66,0.29,0.66,0.65s-0.3,0.66-0.66,0.66
			S55.54,988.85,55.54,988.49z M55.7,990.2h0.98v6.28H55.7V990.2z"/>
		<path class="st3" d="M58.59,994.95c0.42,0.48,1.21,0.9,2.07,0.9c0.96,0,1.48-0.43,1.48-1.04c0-0.69-0.77-0.91-1.61-1.12
			c-1.07-0.25-2.27-0.53-2.27-1.83c0-0.98,0.84-1.81,2.34-1.81c1.07,0,1.82,0.4,2.33,0.91l-0.46,0.68
			c-0.38-0.45-1.07-0.79-1.87-0.79c-0.86,0-1.39,0.39-1.39,0.95c0,0.61,0.72,0.81,1.53,1c1.09,0.25,2.35,0.56,2.35,1.95
			c0,1.05-0.84,1.9-2.47,1.9c-1.03,0-1.9-0.31-2.54-0.99L58.59,994.95z"/>
		<path class="st3" d="M67.86,988.49c0-0.36,0.3-0.65,0.65-0.65c0.36,0,0.66,0.29,0.66,0.65s-0.3,0.66-0.66,0.66
			C68.16,989.15,67.86,988.85,67.86,988.49z M68.03,990.2h0.98v6.28h-0.98V990.2z"/>
		<path class="st3" d="M70.91,994.95c0.42,0.48,1.21,0.9,2.07,0.9c0.96,0,1.48-0.43,1.48-1.04c0-0.69-0.77-0.91-1.61-1.12
			c-1.07-0.25-2.27-0.53-2.27-1.83c0-0.98,0.84-1.81,2.34-1.81c1.07,0,1.82,0.4,2.33,0.91l-0.46,0.68
			c-0.38-0.45-1.07-0.79-1.87-0.79c-0.86,0-1.39,0.39-1.39,0.95c0,0.61,0.72,0.81,1.53,1c1.09,0.25,2.35,0.56,2.35,1.95
			c0,1.05-0.84,1.9-2.47,1.9c-1.03,0-1.9-0.31-2.53-0.99L70.91,994.95z"/>
		<path class="st3" d="M84.28,995.77c-0.52,0.57-1.24,0.87-2.08,0.87c-1.07,0-2.2-0.71-2.2-2.08c0-1.4,1.13-2.07,2.2-2.07
			c0.86,0,1.57,0.27,2.08,0.86v-1.13c0-0.84-0.68-1.33-1.59-1.33c-0.75,0-1.36,0.27-1.92,0.87l-0.46-0.68
			c0.68-0.7,1.48-1.04,2.51-1.04c1.33,0,2.43,0.6,2.43,2.12v4.32h-0.98L84.28,995.77L84.28,995.77z M84.28,993.97
			c-0.38-0.52-1.04-0.78-1.73-0.78c-0.91,0-1.55,0.57-1.55,1.38c0,0.79,0.64,1.37,1.55,1.37c0.69,0,1.35-0.26,1.73-0.78V993.97z"/>
		<path class="st3" d="M93.33,990.04c1.14,0,1.82,0.47,2.3,1.09l-0.65,0.6c-0.42-0.57-0.95-0.82-1.6-0.82
			c-1.34,0-2.17,1.03-2.17,2.42s0.83,2.43,2.17,2.43c0.65,0,1.18-0.26,1.6-0.82l0.65,0.6c-0.48,0.62-1.16,1.09-2.3,1.09
			c-1.87,0-3.13-1.43-3.13-3.3C90.19,991.48,91.45,990.04,93.33,990.04z"/>
		<path class="st3" d="M100.92,995.77c-0.52,0.57-1.24,0.87-2.08,0.87c-1.07,0-2.2-0.71-2.2-2.08c0-1.4,1.13-2.07,2.2-2.07
			c0.86,0,1.57,0.27,2.08,0.86v-1.13c0-0.84-0.68-1.33-1.59-1.33c-0.75,0-1.36,0.27-1.92,0.87l-0.46-0.68
			c0.68-0.7,1.48-1.04,2.51-1.04c1.33,0,2.43,0.6,2.43,2.12v4.32h-0.98L100.92,995.77L100.92,995.77z M100.92,993.97
			c-0.38-0.52-1.04-0.78-1.73-0.78c-0.91,0-1.55,0.57-1.55,1.38c0,0.79,0.64,1.37,1.55,1.37c0.69,0,1.35-0.26,1.73-0.78V993.97z"/>
		<path class="st3" d="M103.84,998.87v-8.67h0.98v0.94c0.46-0.64,1.23-1.09,2.12-1.09c1.65,0,2.79,1.25,2.79,3.29
			c0,2.03-1.14,3.3-2.79,3.3c-0.86,0-1.61-0.4-2.12-1.11v3.34H103.84z M106.69,990.92c-0.77,0-1.53,0.46-1.87,1v2.83
			c0.34,0.55,1.1,1.01,1.87,1.01c1.26,0,2.02-1.04,2.02-2.43C108.7,991.94,107.95,990.92,106.69,990.92z"/>
		<path class="st3" d="M111.5,995.17v-4.11h-1.04v-0.86h1.04v-1.72h0.98v1.72h1.27v0.86h-1.27v3.9c0,0.47,0.21,0.81,0.64,0.81
			c0.27,0,0.53-0.12,0.66-0.26l0.29,0.73c-0.25,0.23-0.6,0.4-1.17,0.4C111.97,996.64,111.5,996.1,111.5,995.17z"/>
		<path class="st3" d="M114.96,988.49c0-0.36,0.3-0.65,0.65-0.65c0.36,0,0.66,0.29,0.66,0.65s-0.3,0.66-0.66,0.66
			C115.26,989.15,114.96,988.85,114.96,988.49z M115.13,990.2h0.98v6.28h-0.98V990.2z"/>
		<path class="st3" d="M117.69,993.33c0-1.82,1.2-3.29,3.11-3.29s3.11,1.47,3.11,3.29s-1.2,3.3-3.11,3.3
			S117.69,995.15,117.69,993.33z M122.87,993.33c0-1.27-0.74-2.42-2.08-2.42c-1.34,0-2.09,1.14-2.09,2.42
			c0,1.29,0.75,2.43,2.09,2.43C122.13,995.77,122.87,994.62,122.87,993.33z"/>
		<path class="st3" d="M129.72,992.37c0-1.1-0.56-1.46-1.4-1.46c-0.77,0-1.5,0.47-1.86,0.98v4.59h-0.98v-6.28h0.98v0.91
			c0.44-0.52,1.3-1.07,2.24-1.07c1.31,0,2,0.66,2,2.03v4.41h-0.98L129.72,992.37L129.72,992.37z"/>
	</g>
	<g>
		<path class="st7" d="M11.94,1010.92h1.23l2.93,7.49l2.92-7.49h1.24l-3.5,8.67h-1.34L11.94,1010.92z"/>
		<path class="st7" d="M21.19,1011.6c0-0.36,0.3-0.65,0.65-0.65c0.36,0,0.66,0.29,0.66,0.65s-0.3,0.66-0.66,0.66
			S21.19,1011.96,21.19,1011.6z M21.35,1013.31h0.98v6.28h-0.98V1013.31z"/>
		<path class="st7" d="M27.01,1013.16c1.9,0,3.02,1.48,3.02,3.37v0.25h-5.08c0.08,1.18,0.91,2.17,2.26,2.17
			c0.71,0,1.44-0.29,1.94-0.79l0.47,0.64c-0.62,0.62-1.47,0.96-2.5,0.96c-1.86,0-3.2-1.34-3.2-3.3
			C23.92,1014.63,25.22,1013.16,27.01,1013.16z M24.94,1016.06h4.12c-0.01-0.94-0.64-2.09-2.07-2.09
			C25.66,1013.96,24.99,1015.1,24.94,1016.06z"/>
		<path class="st7" d="M35.39,1014.55l-1.63,5.04h-0.98l-2-6.28h1.01l1.53,5l1.65-5h0.83l1.65,5l1.53-5h1.01l-2,6.28h-0.98
			L35.39,1014.55z"/>
		<path class="st7" d="M48.42,1018.88c-0.52,0.57-1.24,0.87-2.08,0.87c-1.07,0-2.2-0.71-2.2-2.08c0-1.4,1.13-2.07,2.2-2.07
			c0.86,0,1.57,0.27,2.08,0.86v-1.13c0-0.85-0.68-1.33-1.59-1.33c-0.75,0-1.36,0.27-1.92,0.87l-0.46-0.68
			c0.68-0.7,1.48-1.04,2.51-1.04c1.33,0,2.43,0.6,2.43,2.12v4.32h-0.97C48.42,1019.59,48.42,1018.88,48.42,1018.88z M48.42,1017.08
			c-0.38-0.52-1.04-0.78-1.73-0.78c-0.91,0-1.55,0.57-1.55,1.38c0,0.79,0.64,1.37,1.55,1.37c0.69,0,1.35-0.26,1.73-0.78V1017.08z"/>
		<path class="st7" d="M51.35,1010.92h0.98v8.67h-0.98V1010.92z"/>
		<path class="st7" d="M54.27,1010.92h0.98v8.67h-0.98V1010.92z"/>
		<path class="st7" d="M61.09,1017.64c0.57,0.73,1.33,1.14,2.39,1.14c1.18,0,2-0.81,2-1.86c0-1.14-0.82-1.87-1.99-1.87
			c-0.77,0-1.42,0.25-2,0.82l-0.79-0.27v-4.68H66v0.96h-4.23v3.02c0.42-0.42,1.16-0.78,2.03-0.78c1.44,0,2.76,0.99,2.76,2.77
			c0,1.77-1.34,2.86-3.08,2.86c-1.47,0-2.41-0.53-3.06-1.39L61.09,1017.64z"/>
		<path class="st7" d="M71.22,1010.79c2.37,0,3.32,2.35,3.32,4.47c0,2.11-0.95,4.49-3.32,4.49c-2.38,0-3.31-2.38-3.31-4.49
			S68.84,1010.79,71.22,1010.79z M71.22,1011.75c-1.65,0-2.21,1.78-2.21,3.51c0,1.73,0.56,3.52,2.21,3.52s2.21-1.79,2.21-3.52
			S72.87,1011.75,71.22,1011.75z"/>
		<path class="st7" d="M82.3,1013.16c1.14,0,1.82,0.47,2.3,1.09l-0.65,0.6c-0.42-0.57-0.95-0.82-1.6-0.82
			c-1.34,0-2.17,1.03-2.17,2.42s0.83,2.43,2.17,2.43c0.65,0,1.18-0.26,1.6-0.82l0.65,0.6c-0.48,0.62-1.16,1.09-2.3,1.09
			c-1.87,0-3.13-1.43-3.13-3.3C79.16,1014.59,80.43,1013.16,82.3,1013.16z"/>
		<path class="st7" d="M85.6,1016.45c0-1.82,1.2-3.29,3.11-3.29s3.11,1.47,3.11,3.29s-1.2,3.3-3.11,3.3S85.6,1018.27,85.6,1016.45z
			 M90.79,1016.45c0-1.27-0.74-2.42-2.08-2.42c-1.34,0-2.09,1.14-2.09,2.42c0,1.29,0.75,2.43,2.09,2.43
			C90.05,1018.88,90.79,1017.73,90.79,1016.45z"/>
		<path class="st7" d="M100.98,1015.33c0-0.79-0.35-1.3-1.16-1.3c-0.65,0-1.34,0.47-1.66,0.96v4.6h-0.98v-4.26
			c0-0.79-0.34-1.3-1.16-1.3c-0.64,0-1.31,0.47-1.65,0.98v4.59h-0.98v-6.28h0.98v0.91c0.26-0.4,1.1-1.07,2.03-1.07
			c0.96,0,1.51,0.52,1.69,1.17c0.35-0.57,1.2-1.17,2.11-1.17c1.14,0,1.75,0.64,1.75,1.9v4.54h-0.98v-4.27H100.98z"/>
		<path class="st7" d="M111.48,1015.33c0-0.79-0.35-1.3-1.16-1.3c-0.65,0-1.34,0.47-1.66,0.96v4.6h-0.98v-4.26
			c0-0.79-0.34-1.3-1.16-1.3c-0.64,0-1.31,0.47-1.65,0.98v4.59h-0.98v-6.28h0.98v0.91c0.26-0.4,1.1-1.07,2.03-1.07
			c0.96,0,1.51,0.52,1.69,1.17c0.35-0.57,1.2-1.17,2.11-1.17c1.14,0,1.75,0.64,1.75,1.9v4.54h-0.98v-4.27H111.48z"/>
		<path class="st7" d="M117.14,1013.16c1.9,0,3.02,1.48,3.02,3.37v0.25h-5.08c0.08,1.18,0.91,2.17,2.26,2.17
			c0.72,0,1.44-0.29,1.94-0.79l0.47,0.64c-0.62,0.62-1.47,0.96-2.5,0.96c-1.86,0-3.2-1.34-3.2-3.3
			C114.04,1014.63,115.34,1013.16,117.14,1013.16z M115.07,1016.06h4.12c-0.01-0.94-0.64-2.09-2.07-2.09
			C115.79,1013.96,115.12,1015.1,115.07,1016.06z"/>
		<path class="st7" d="M125.97,1015.49c0-1.1-0.56-1.46-1.4-1.46c-0.77,0-1.5,0.47-1.86,0.98v4.59h-0.98v-6.28h0.98v0.91
			c0.44-0.52,1.3-1.07,2.24-1.07c1.31,0,2,0.66,2,2.03v4.41h-0.98C125.97,1019.6,125.97,1015.49,125.97,1015.49z"/>
		<path class="st7" d="M129.08,1018.28v-4.11h-1.04v-0.86h1.04v-1.72h0.98v1.72h1.27v0.86h-1.27v3.9c0,0.47,0.21,0.81,0.64,0.81
			c0.27,0,0.53-0.12,0.66-0.26l0.29,0.73c-0.25,0.23-0.6,0.4-1.17,0.4C129.55,1019.75,129.08,1019.22,129.08,1018.28z"/>
		<path class="st7" d="M132.67,1018.06c0.42,0.48,1.21,0.9,2.07,0.9c0.96,0,1.48-0.43,1.48-1.04c0-0.69-0.77-0.91-1.61-1.12
			c-1.07-0.25-2.27-0.53-2.27-1.83c0-0.98,0.84-1.81,2.34-1.81c1.07,0,1.82,0.4,2.33,0.91l-0.46,0.68
			c-0.38-0.46-1.07-0.79-1.87-0.79c-0.86,0-1.39,0.39-1.39,0.95c0,0.61,0.72,0.81,1.53,1c1.09,0.25,2.35,0.56,2.35,1.95
			c0,1.05-0.84,1.9-2.47,1.9c-1.03,0-1.9-0.31-2.53-0.99L132.67,1018.06z"/>
	</g>
</g>
<g id="Layer_3">
	<rect x="-0.25" y="1030.68" class="st0" width="360" height="515"/>
	<circle class="st1" cx="337.96" cy="1054.44" r="0.87"/>
	<circle class="st1" cx="337.96" cy="1048.36" r="0.87"/>
	<circle class="st1" cx="337.96" cy="1060.51" r="0.87"/>
	<circle class="st2" cx="22.99" cy="1054.21" r="12.5"/>
	<g>
		<path class="st3" d="M52.44,1056.32c-0.43,0.48-1.18,0.95-2.21,0.95c-1.38,0-2.03-0.75-2.03-1.98v-4.46h1.65v3.81
			c0,0.87,0.46,1.16,1.16,1.16c0.64,0,1.14-0.35,1.43-0.71v-4.25h1.65v6.28h-1.65C52.44,1057.12,52.44,1056.32,52.44,1056.32z"/>
		<path class="st3" d="M55.9,1055.13c0.45,0.43,1.39,0.86,2.17,0.86c0.71,0,1.05-0.25,1.05-0.64c0-0.44-0.55-0.6-1.26-0.74
			c-1.08-0.21-2.47-0.47-2.47-1.96c0-1.05,0.92-1.98,2.57-1.98c1.07,0,1.91,0.36,2.54,0.86l-0.66,1.13
			c-0.38-0.4-1.09-0.73-1.86-0.73c-0.6,0-0.99,0.22-0.99,0.58c0,0.39,0.49,0.53,1.2,0.68c1.08,0.21,2.52,0.49,2.52,2.05
			c0,1.14-0.98,2.01-2.72,2.01c-1.09,0-2.15-0.36-2.81-0.97L55.9,1055.13z"/>
		<path class="st3" d="M64.78,1050.67c1.87,0,3.15,1.4,3.15,3.46v0.36h-4.67c0.1,0.79,0.74,1.46,1.81,1.46
			c0.58,0,1.27-0.23,1.68-0.62l0.73,1.07c-0.62,0.57-1.61,0.87-2.59,0.87c-1.91,0-3.35-1.29-3.35-3.3
			C61.53,1052.14,62.87,1050.67,64.78,1050.67z M63.23,1053.38h3.09c-0.04-0.6-0.46-1.39-1.55-1.39
			C63.75,1051.99,63.31,1052.75,63.23,1053.38z"/>
		<path class="st3" d="M69.12,1050.83h1.65v0.86c0.44-0.56,1.22-1,2-1v1.61c-0.12-0.03-0.27-0.05-0.46-0.05
			c-0.55,0-1.27,0.31-1.55,0.72v4.15h-1.65v-6.29H69.12z"/>
	</g>
	<line class="st4" x1="-0.25" y1="1078.43" x2="360.75" y2="1078.43"/>
	<path class="st5" d="M343.07,1467.89l-7-5l-7,5v-16c0-1.1,0.9-2,2-2h10c1.1,0,2,0.9,2,2V1467.89z"/>
	<path class="st5" d="M50.04,1460.44c0,1.32,0.3,2.62,0.9,3.8c1.44,2.88,4.38,4.7,7.6,4.7c1.32,0,2.62-0.3,3.8-0.9l5.7,1.9l-1.9-5.7
		c0.6-1.18,0.9-2.48,0.9-3.8c0-3.22-1.82-6.16-4.7-7.6c-1.18-0.6-2.48-0.9-3.8-0.9h-0.5c-4.32,0.24-7.76,3.68-8,8V1460.44z"/>
	<line class="st5" x1="105.72" y1="1452.35" x2="92.04" y2="1459.76"/>
	<polygon class="st5" points="105.72,1452.35 93.31,1469.53 92.04,1459.76 84.56,1453.36 	"/>
	<path class="st6" d="M30.91,1453.43c-2.15-2.15-5.63-2.15-7.78,0l0,0l-1.06,1.06l-1.06-1.06c-2.15-2.15-5.63-2.15-7.78,0
		c-2.15,2.15-2.15,5.63,0,7.78l1.06,1.06l7.78,7.78l7.78-7.78l1.06-1.06C33.06,1459.07,33.06,1455.58,30.91,1453.43
		C30.92,1453.44,30.91,1453.43,30.91,1453.43z"/>
	<line class="st4" x1="-0.75" y1="1438.09" x2="360.25" y2="1438.09"/>
	<g>
		<path class="st3" d="M12.84,1490.58c0.6,0.62,1.55,0.99,2.39,0.99c1.05,0,1.64-0.46,1.64-1.12c0-0.7-0.53-1.03-1.74-1.03
			c-0.36,0-0.95,0-1.08,0.01v-1.61c0.16,0.01,0.75,0.01,1.08,0.01c0.96,0,1.6-0.31,1.6-0.96c0-0.69-0.7-1.04-1.61-1.04
			c-0.83,0-1.6,0.33-2.21,0.91L12,1485.6c0.7-0.79,1.79-1.38,3.32-1.38c2.03,0,3.28,0.91,3.28,2.35c0,1.09-0.94,1.81-1.9,1.98
			c0.88,0.09,2.03,0.78,2.03,2.08c0,1.5-1.34,2.55-3.42,2.55c-1.6,0-2.78-0.61-3.42-1.39L12.84,1490.58z"/>
		<path class="st3" d="M23.28,1484.22c2.47,0,3.59,2.24,3.59,4.47c0,2.23-1.12,4.49-3.59,4.49c-2.48,0-3.59-2.25-3.59-4.49
			S20.8,1484.22,23.28,1484.22z M23.28,1485.86c-1.25,0-1.72,1.24-1.72,2.83c0,1.59,0.47,2.85,1.72,2.85c1.24,0,1.7-1.25,1.7-2.85
			C24.98,1487.09,24.52,1485.86,23.28,1485.86z"/>
		<path class="st3" d="M31.34,1484.22c2.47,0,3.59,2.24,3.59,4.47c0,2.23-1.12,4.49-3.59,4.49c-2.48,0-3.59-2.25-3.59-4.49
			S28.86,1484.22,31.34,1484.22z M31.34,1485.86c-1.25,0-1.72,1.24-1.72,2.83c0,1.59,0.47,2.85,1.72,2.85c1.24,0,1.7-1.25,1.7-2.85
			C33.04,1487.09,32.58,1485.86,31.34,1485.86z"/>
		<path class="st3" d="M39.52,1484.35h1.65v8.67h-1.65V1484.35z"/>
		<path class="st3" d="M42.64,1484.83c0-0.55,0.46-0.99,0.99-0.99c0.55,0,0.99,0.44,0.99,0.99c0,0.55-0.44,0.99-0.99,0.99
			C43.09,1485.82,42.64,1485.38,42.64,1484.83z M42.81,1486.74h1.65v6.28h-1.65V1486.74z"/>
		<path class="st3" d="M48.5,1490.6l-0.75,0.81v1.61H46.1v-8.67h1.65v5.19l2.38-2.79h2.03l-2.48,2.85l2.56,3.43h-2.07L48.5,1490.6z"
			/>
		<path class="st3" d="M55.63,1486.59c1.87,0,3.15,1.4,3.15,3.46v0.36h-4.67c0.1,0.79,0.74,1.46,1.81,1.46
			c0.58,0,1.27-0.23,1.68-0.62l0.73,1.07c-0.62,0.57-1.61,0.87-2.59,0.87c-1.91,0-3.35-1.29-3.35-3.3
			C52.38,1488.05,53.72,1486.59,55.63,1486.59z M54.08,1489.29h3.09c-0.04-0.6-0.46-1.39-1.55-1.39
			C54.6,1487.9,54.16,1488.67,54.08,1489.29z"/>
		<path class="st3" d="M60.14,1491.04c0.46,0.43,1.39,0.86,2.17,0.86c0.71,0,1.05-0.25,1.05-0.64c0-0.44-0.55-0.6-1.26-0.74
			c-1.08-0.21-2.47-0.47-2.47-1.96c0-1.05,0.92-1.98,2.57-1.98c1.07,0,1.91,0.36,2.54,0.86l-0.66,1.13
			c-0.38-0.4-1.09-0.73-1.86-0.73c-0.6,0-0.99,0.22-0.99,0.58c0,0.39,0.49,0.53,1.2,0.68c1.08,0.21,2.52,0.49,2.52,2.05
			c0,1.14-0.97,2.02-2.72,2.02c-1.09,0-2.14-0.36-2.81-0.98L60.14,1491.04z"/>
	</g>
	<g>
		<path class="st3" d="M15.86,1511.01c-0.43,0.48-1.18,0.95-2.21,0.95c-1.38,0-2.03-0.75-2.03-1.98v-4.46h1.65v3.81
			c0,0.87,0.46,1.16,1.16,1.16c0.64,0,1.14-0.35,1.43-0.71v-4.25h1.65v6.28h-1.65V1511.01z"/>
		<path class="st3" d="M19.32,1509.83c0.45,0.43,1.39,0.86,2.17,0.86c0.71,0,1.05-0.25,1.05-0.64c0-0.44-0.55-0.6-1.26-0.74
			c-1.08-0.21-2.47-0.47-2.47-1.96c0-1.05,0.92-1.98,2.57-1.98c1.07,0,1.91,0.36,2.54,0.86l-0.66,1.13
			c-0.38-0.4-1.09-0.73-1.86-0.73c-0.6,0-0.99,0.22-0.99,0.58c0,0.39,0.49,0.53,1.2,0.68c1.08,0.21,2.52,0.49,2.52,2.05
			c0,1.14-0.98,2.02-2.72,2.02c-1.09,0-2.15-0.36-2.81-0.98L19.32,1509.83z"/>
		<path class="st3" d="M28.2,1505.37c1.87,0,3.15,1.4,3.15,3.46v0.36h-4.67c0.1,0.79,0.74,1.46,1.81,1.46
			c0.58,0,1.27-0.23,1.68-0.62l0.73,1.07c-0.62,0.57-1.61,0.87-2.59,0.87c-1.91,0-3.35-1.29-3.35-3.3
			C24.95,1506.84,26.29,1505.37,28.2,1505.37z M26.65,1508.07h3.09c-0.04-0.6-0.46-1.39-1.55-1.39
			C27.17,1506.68,26.73,1507.45,26.65,1508.07z"/>
		<path class="st3" d="M32.54,1505.52h1.65v0.86c0.44-0.56,1.22-1,2-1v1.61c-0.12-0.03-0.27-0.05-0.46-0.05
			c-0.55,0-1.27,0.31-1.55,0.71v4.15h-1.65L32.54,1505.52L32.54,1505.52z"/>
	</g>
	<g>
		<path class="st3" d="M43.3,1504.25h-2.74v-0.96h6.58v0.96h-2.76v7.71H43.3C43.3,1511.96,43.3,1504.25,43.3,1504.25z"/>
		<path class="st3" d="M52.78,1507.83c0-1.11-0.57-1.43-1.42-1.43c-0.75,0-1.48,0.47-1.86,0.98v4.59h-0.98v-8.67h0.98v3.3
			c0.44-0.52,1.3-1.07,2.25-1.07c1.31,0,2,0.64,2,2v4.43h-0.98L52.78,1507.83L52.78,1507.83z"/>
		<path class="st3" d="M55.54,1503.97c0-0.36,0.3-0.65,0.65-0.65c0.36,0,0.66,0.29,0.66,0.65s-0.3,0.66-0.66,0.66
			S55.54,1504.33,55.54,1503.97z M55.7,1505.68h0.98v6.28H55.7V1505.68z"/>
		<path class="st3" d="M58.59,1510.43c0.42,0.48,1.21,0.9,2.07,0.9c0.96,0,1.48-0.43,1.48-1.04c0-0.69-0.77-0.91-1.61-1.12
			c-1.07-0.25-2.27-0.53-2.27-1.83c0-0.98,0.84-1.81,2.34-1.81c1.07,0,1.82,0.4,2.33,0.91l-0.46,0.68
			c-0.38-0.45-1.07-0.79-1.87-0.79c-0.86,0-1.39,0.39-1.39,0.95c0,0.61,0.72,0.81,1.53,1c1.09,0.25,2.35,0.56,2.35,1.95
			c0,1.05-0.84,1.9-2.47,1.9c-1.03,0-1.9-0.31-2.54-0.99L58.59,1510.43z"/>
		<path class="st3" d="M67.86,1503.97c0-0.36,0.3-0.65,0.65-0.65c0.36,0,0.66,0.29,0.66,0.65s-0.3,0.66-0.66,0.66
			C68.16,1504.63,67.86,1504.33,67.86,1503.97z M68.03,1505.68h0.98v6.28h-0.98V1505.68z"/>
		<path class="st3" d="M70.91,1510.43c0.42,0.48,1.21,0.9,2.07,0.9c0.96,0,1.48-0.43,1.48-1.04c0-0.69-0.77-0.91-1.61-1.12
			c-1.07-0.25-2.27-0.53-2.27-1.83c0-0.98,0.84-1.81,2.34-1.81c1.07,0,1.82,0.4,2.33,0.91l-0.46,0.68
			c-0.38-0.45-1.07-0.79-1.87-0.79c-0.86,0-1.39,0.39-1.39,0.95c0,0.61,0.72,0.81,1.53,1c1.09,0.25,2.35,0.56,2.35,1.95
			c0,1.05-0.84,1.9-2.47,1.9c-1.03,0-1.9-0.31-2.53-0.99L70.91,1510.43z"/>
		<path class="st3" d="M84.28,1511.25c-0.52,0.57-1.24,0.87-2.08,0.87c-1.07,0-2.2-0.71-2.2-2.08c0-1.4,1.13-2.07,2.2-2.07
			c0.86,0,1.57,0.27,2.08,0.86v-1.13c0-0.84-0.68-1.33-1.59-1.33c-0.75,0-1.36,0.27-1.92,0.87l-0.46-0.68
			c0.68-0.7,1.48-1.04,2.51-1.04c1.33,0,2.43,0.6,2.43,2.12v4.32h-0.98L84.28,1511.25L84.28,1511.25z M84.28,1509.45
			c-0.38-0.52-1.04-0.78-1.73-0.78c-0.91,0-1.55,0.57-1.55,1.38c0,0.79,0.64,1.37,1.55,1.37c0.69,0,1.35-0.26,1.73-0.78V1509.45z"/>
		<path class="st3" d="M93.33,1505.52c1.14,0,1.82,0.47,2.3,1.09l-0.65,0.6c-0.42-0.57-0.95-0.82-1.6-0.82
			c-1.34,0-2.17,1.03-2.17,2.42s0.83,2.43,2.17,2.43c0.65,0,1.18-0.26,1.6-0.82l0.65,0.6c-0.48,0.62-1.16,1.09-2.3,1.09
			c-1.87,0-3.13-1.43-3.13-3.3C90.19,1506.96,91.45,1505.52,93.33,1505.52z"/>
		<path class="st3" d="M100.92,1511.25c-0.52,0.57-1.24,0.87-2.08,0.87c-1.07,0-2.2-0.71-2.2-2.08c0-1.4,1.13-2.07,2.2-2.07
			c0.86,0,1.57,0.27,2.08,0.86v-1.13c0-0.84-0.68-1.33-1.59-1.33c-0.75,0-1.36,0.27-1.92,0.87l-0.46-0.68
			c0.68-0.7,1.48-1.04,2.51-1.04c1.33,0,2.43,0.6,2.43,2.12v4.32h-0.98L100.92,1511.25L100.92,1511.25z M100.92,1509.45
			c-0.38-0.52-1.04-0.78-1.73-0.78c-0.91,0-1.55,0.57-1.55,1.38c0,0.79,0.64,1.37,1.55,1.37c0.69,0,1.35-0.26,1.73-0.78V1509.45z"/>
		<path class="st3" d="M103.84,1514.35v-8.67h0.98v0.94c0.46-0.64,1.23-1.09,2.12-1.09c1.65,0,2.79,1.25,2.79,3.29
			c0,2.03-1.14,3.3-2.79,3.3c-0.86,0-1.61-0.4-2.12-1.11v3.34H103.84z M106.69,1506.4c-0.77,0-1.53,0.46-1.87,1v2.83
			c0.34,0.55,1.1,1.01,1.87,1.01c1.26,0,2.02-1.04,2.02-2.43C108.7,1507.42,107.95,1506.4,106.69,1506.4z"/>
		<path class="st3" d="M111.5,1510.65v-4.11h-1.04v-0.86h1.04v-1.72h0.98v1.72h1.27v0.86h-1.27v3.9c0,0.47,0.21,0.81,0.64,0.81
			c0.27,0,0.53-0.12,0.66-0.26l0.29,0.73c-0.25,0.23-0.6,0.4-1.17,0.4C111.97,1512.12,111.5,1511.58,111.5,1510.65z"/>
		<path class="st3" d="M114.96,1503.97c0-0.36,0.3-0.65,0.65-0.65c0.36,0,0.66,0.29,0.66,0.65s-0.3,0.66-0.66,0.66
			C115.26,1504.63,114.96,1504.33,114.96,1503.97z M115.13,1505.68h0.98v6.28h-0.98V1505.68z"/>
		<path class="st3" d="M117.69,1508.81c0-1.82,1.2-3.29,3.11-3.29s3.11,1.47,3.11,3.29c0,1.82-1.2,3.3-3.11,3.3
			S117.69,1510.63,117.69,1508.81z M122.87,1508.81c0-1.27-0.74-2.42-2.08-2.42c-1.34,0-2.09,1.14-2.09,2.42
			c0,1.29,0.75,2.43,2.09,2.43C122.13,1511.25,122.87,1510.1,122.87,1508.81z"/>
		<path class="st3" d="M129.72,1507.85c0-1.1-0.56-1.46-1.4-1.46c-0.77,0-1.5,0.47-1.86,0.98v4.59h-0.98v-6.28h0.98v0.91
			c0.44-0.52,1.3-1.07,2.24-1.07c1.31,0,2,0.66,2,2.03v4.41h-0.98L129.72,1507.85L129.72,1507.85z"/>
	</g>
	<g>
		<path class="st7" d="M11.94,1526.4h1.23l2.93,7.49l2.92-7.49h1.24l-3.5,8.67h-1.34L11.94,1526.4z"/>
		<path class="st7" d="M21.19,1527.08c0-0.36,0.3-0.65,0.65-0.65c0.36,0,0.66,0.29,0.66,0.65s-0.3,0.66-0.66,0.66
			S21.19,1527.44,21.19,1527.08z M21.35,1528.79h0.98v6.28h-0.98V1528.79z"/>
		<path class="st7" d="M27.01,1528.64c1.9,0,3.02,1.48,3.02,3.37v0.25h-5.08c0.08,1.18,0.91,2.17,2.26,2.17
			c0.71,0,1.44-0.29,1.94-0.79l0.47,0.64c-0.62,0.62-1.47,0.96-2.5,0.96c-1.86,0-3.2-1.34-3.2-3.3
			C23.92,1530.11,25.22,1528.64,27.01,1528.64z M24.94,1531.54h4.12c-0.01-0.94-0.64-2.09-2.07-2.09
			C25.66,1529.44,24.99,1530.58,24.94,1531.54z"/>
		<path class="st7" d="M35.39,1530.03l-1.63,5.04h-0.98l-2-6.28h1.01l1.53,5l1.65-5h0.83l1.65,5l1.53-5h1.01l-2,6.28h-0.98
			L35.39,1530.03z"/>
		<path class="st7" d="M48.42,1534.36c-0.52,0.57-1.24,0.87-2.08,0.87c-1.07,0-2.2-0.71-2.2-2.08c0-1.4,1.13-2.07,2.2-2.07
			c0.86,0,1.57,0.27,2.08,0.86v-1.13c0-0.85-0.68-1.33-1.59-1.33c-0.75,0-1.36,0.27-1.92,0.87l-0.46-0.68
			c0.68-0.7,1.48-1.04,2.51-1.04c1.33,0,2.43,0.6,2.43,2.12v4.32h-0.97C48.42,1535.07,48.42,1534.36,48.42,1534.36z M48.42,1532.56
			c-0.38-0.52-1.04-0.78-1.73-0.78c-0.91,0-1.55,0.57-1.55,1.38c0,0.79,0.64,1.37,1.55,1.37c0.69,0,1.35-0.26,1.73-0.78V1532.56z"/>
		<path class="st7" d="M51.35,1526.4h0.98v8.67h-0.98V1526.4z"/>
		<path class="st7" d="M54.27,1526.4h0.98v8.67h-0.98V1526.4z"/>
		<path class="st7" d="M61.09,1533.12c0.57,0.73,1.33,1.14,2.39,1.14c1.18,0,2-0.81,2-1.86c0-1.14-0.82-1.87-1.99-1.87
			c-0.77,0-1.42,0.25-2,0.82l-0.79-0.27v-4.68H66v0.96h-4.23v3.02c0.42-0.42,1.16-0.78,2.03-0.78c1.44,0,2.76,0.99,2.76,2.77
			c0,1.77-1.34,2.86-3.08,2.86c-1.47,0-2.41-0.53-3.06-1.39L61.09,1533.12z"/>
		<path class="st7" d="M71.22,1526.27c2.37,0,3.32,2.35,3.32,4.47c0,2.11-0.95,4.49-3.32,4.49c-2.38,0-3.31-2.38-3.31-4.49
			S68.84,1526.27,71.22,1526.27z M71.22,1527.23c-1.65,0-2.21,1.78-2.21,3.51c0,1.73,0.56,3.52,2.21,3.52s2.21-1.79,2.21-3.52
			S72.87,1527.23,71.22,1527.23z"/>
		<path class="st7" d="M82.3,1528.64c1.14,0,1.82,0.47,2.3,1.09l-0.65,0.6c-0.42-0.57-0.95-0.82-1.6-0.82
			c-1.34,0-2.17,1.03-2.17,2.42s0.83,2.43,2.17,2.43c0.65,0,1.18-0.26,1.6-0.82l0.65,0.6c-0.48,0.62-1.16,1.09-2.3,1.09
			c-1.87,0-3.13-1.43-3.13-3.3C79.16,1530.07,80.43,1528.64,82.3,1528.64z"/>
		<path class="st7" d="M85.6,1531.93c0-1.82,1.2-3.29,3.11-3.29s3.11,1.47,3.11,3.29c0,1.82-1.2,3.3-3.11,3.3
			S85.6,1533.75,85.6,1531.93z M90.79,1531.93c0-1.27-0.74-2.42-2.08-2.42c-1.34,0-2.09,1.14-2.09,2.42c0,1.29,0.75,2.43,2.09,2.43
			C90.05,1534.36,90.79,1533.21,90.79,1531.93z"/>
		<path class="st7" d="M100.98,1530.81c0-0.79-0.35-1.3-1.16-1.3c-0.65,0-1.34,0.47-1.66,0.96v4.6h-0.98v-4.26
			c0-0.79-0.34-1.3-1.16-1.3c-0.64,0-1.31,0.47-1.65,0.98v4.59h-0.98v-6.28h0.98v0.91c0.26-0.4,1.1-1.07,2.03-1.07
			c0.96,0,1.51,0.52,1.69,1.17c0.35-0.57,1.2-1.17,2.11-1.17c1.14,0,1.75,0.64,1.75,1.9v4.54h-0.98v-4.27H100.98z"/>
		<path class="st7" d="M111.48,1530.81c0-0.79-0.35-1.3-1.16-1.3c-0.65,0-1.34,0.47-1.66,0.96v4.6h-0.98v-4.26
			c0-0.79-0.34-1.3-1.16-1.3c-0.64,0-1.31,0.47-1.65,0.98v4.59h-0.98v-6.28h0.98v0.91c0.26-0.4,1.1-1.07,2.03-1.07
			c0.96,0,1.51,0.52,1.69,1.17c0.35-0.57,1.2-1.17,2.11-1.17c1.14,0,1.75,0.64,1.75,1.9v4.54h-0.98v-4.27H111.48z"/>
		<path class="st7" d="M117.14,1528.64c1.9,0,3.02,1.48,3.02,3.37v0.25h-5.08c0.08,1.18,0.91,2.17,2.26,2.17
			c0.72,0,1.44-0.29,1.94-0.79l0.47,0.64c-0.62,0.62-1.47,0.96-2.5,0.96c-1.86,0-3.2-1.34-3.2-3.3
			C114.04,1530.11,115.34,1528.64,117.14,1528.64z M115.07,1531.54h4.12c-0.01-0.94-0.64-2.09-2.07-2.09
			C115.79,1529.44,115.12,1530.58,115.07,1531.54z"/>
		<path class="st7" d="M125.97,1530.97c0-1.1-0.56-1.46-1.4-1.46c-0.77,0-1.5,0.47-1.86,0.98v4.59h-0.98v-6.28h0.98v0.91
			c0.44-0.52,1.3-1.07,2.24-1.07c1.31,0,2,0.66,2,2.03v4.41h-0.98C125.97,1535.08,125.97,1530.97,125.97,1530.97z"/>
		<path class="st7" d="M129.08,1533.76v-4.11h-1.04v-0.86h1.04v-1.72h0.98v1.72h1.27v0.86h-1.27v3.9c0,0.47,0.21,0.81,0.64,0.81
			c0.27,0,0.53-0.12,0.66-0.26l0.29,0.73c-0.25,0.23-0.6,0.4-1.17,0.4C129.55,1535.23,129.08,1534.7,129.08,1533.76z"/>
		<path class="st7" d="M132.67,1533.54c0.42,0.48,1.21,0.9,2.07,0.9c0.96,0,1.48-0.43,1.48-1.04c0-0.69-0.77-0.91-1.61-1.12
			c-1.07-0.25-2.27-0.53-2.27-1.83c0-0.98,0.84-1.81,2.34-1.81c1.07,0,1.82,0.4,2.33,0.91l-0.46,0.68
			c-0.38-0.46-1.07-0.79-1.87-0.79c-0.86,0-1.39,0.39-1.39,0.95c0,0.61,0.72,0.81,1.53,1c1.09,0.25,2.35,0.56,2.35,1.95
			c0,1.05-0.84,1.9-2.47,1.9c-1.03,0-1.9-0.31-2.53-0.99L132.67,1533.54z"/>
	</g>
</g>
<g id="Layer_4">
	<rect x="-0.5" y="1545.04" class="st0" width="360" height="515"/>
	<circle class="st1" cx="337.71" cy="1568.8" r="0.87"/>
	<circle class="st1" cx="337.71" cy="1562.72" r="0.87"/>
	<circle class="st1" cx="337.71" cy="1574.87" r="0.87"/>
	<circle class="st2" cx="22.74" cy="1568.57" r="12.5"/>
	<g>
		<path class="st3" d="M52.19,1570.68c-0.43,0.48-1.18,0.95-2.21,0.95c-1.38,0-2.03-0.75-2.03-1.98v-4.46h1.65v3.81
			c0,0.87,0.46,1.16,1.16,1.16c0.64,0,1.14-0.35,1.43-0.71v-4.25h1.65v6.28h-1.65C52.19,1571.48,52.19,1570.68,52.19,1570.68z"/>
		<path class="st3" d="M55.65,1569.49c0.45,0.43,1.39,0.86,2.17,0.86c0.71,0,1.05-0.25,1.05-0.64c0-0.44-0.55-0.6-1.26-0.74
			c-1.08-0.21-2.47-0.47-2.47-1.96c0-1.05,0.92-1.98,2.57-1.98c1.07,0,1.91,0.36,2.54,0.86l-0.66,1.13
			c-0.38-0.4-1.09-0.73-1.86-0.73c-0.6,0-0.99,0.22-0.99,0.58c0,0.39,0.49,0.53,1.2,0.68c1.08,0.21,2.52,0.49,2.52,2.05
			c0,1.14-0.98,2.01-2.72,2.01c-1.09,0-2.15-0.36-2.81-0.97L55.65,1569.49z"/>
		<path class="st3" d="M64.53,1565.03c1.87,0,3.15,1.4,3.15,3.46v0.36h-4.67c0.1,0.79,0.74,1.46,1.81,1.46
			c0.58,0,1.27-0.23,1.68-0.62l0.73,1.07c-0.62,0.57-1.61,0.87-2.59,0.87c-1.91,0-3.35-1.29-3.35-3.3
			C61.28,1566.5,62.62,1565.03,64.53,1565.03z M62.98,1567.74h3.09c-0.04-0.6-0.46-1.39-1.55-1.39
			C63.5,1566.35,63.06,1567.11,62.98,1567.74z"/>
		<path class="st3" d="M68.87,1565.19h1.65v0.86c0.44-0.56,1.22-1,2-1v1.61c-0.12-0.03-0.27-0.05-0.46-0.05
			c-0.55,0-1.27,0.31-1.55,0.72v4.15h-1.65v-6.29H68.87z"/>
	</g>
	<line class="st4" x1="-0.5" y1="1592.79" x2="360.5" y2="1592.79"/>
	<path class="st5" d="M342.82,1982.25l-7-5l-7,5v-16c0-1.1,0.9-2,2-2h10c1.1,0,2,0.9,2,2V1982.25z"/>
	<path class="st5" d="M49.79,1974.8c0,1.32,0.3,2.62,0.9,3.8c1.44,2.88,4.38,4.7,7.6,4.7c1.32,0,2.62-0.3,3.8-0.9l5.7,1.9l-1.9-5.7
		c0.6-1.18,0.9-2.48,0.9-3.8c0-3.22-1.82-6.16-4.7-7.6c-1.18-0.6-2.48-0.9-3.8-0.9h-0.5c-4.32,0.24-7.76,3.68-8,8V1974.8z"/>
	<line class="st5" x1="105.47" y1="1966.71" x2="91.79" y2="1974.12"/>
	<polygon class="st5" points="105.47,1966.71 93.06,1983.89 91.79,1974.12 84.31,1967.72 	"/>
	<path class="st6" d="M30.66,1967.79c-2.15-2.15-5.63-2.15-7.78,0l0,0l-1.06,1.06l-1.06-1.06c-2.15-2.15-5.63-2.15-7.78,0
		s-2.15,5.63,0,7.78l1.06,1.06l7.78,7.78l7.78-7.78l1.06-1.06C32.81,1973.43,32.81,1969.94,30.66,1967.79
		C30.67,1967.8,30.66,1967.79,30.66,1967.79z"/>
	<line class="st4" x1="-1" y1="1952.45" x2="360" y2="1952.45"/>
	<g>
		<path class="st3" d="M12.59,2004.94c0.6,0.62,1.55,0.99,2.39,0.99c1.05,0,1.64-0.46,1.64-1.12c0-0.7-0.53-1.03-1.74-1.03
			c-0.36,0-0.95,0-1.08,0.01v-1.61c0.16,0.01,0.75,0.01,1.08,0.01c0.96,0,1.6-0.31,1.6-0.96c0-0.69-0.7-1.04-1.61-1.04
			c-0.83,0-1.6,0.33-2.21,0.91l-0.91-1.14c0.7-0.79,1.79-1.38,3.32-1.38c2.03,0,3.28,0.91,3.28,2.35c0,1.09-0.94,1.81-1.9,1.98
			c0.88,0.09,2.03,0.78,2.03,2.08c0,1.5-1.34,2.55-3.42,2.55c-1.6,0-2.78-0.61-3.42-1.39L12.59,2004.94z"/>
		<path class="st3" d="M23.03,1998.58c2.47,0,3.59,2.24,3.59,4.47s-1.12,4.49-3.59,4.49c-2.48,0-3.59-2.25-3.59-4.49
			S20.55,1998.58,23.03,1998.58z M23.03,2000.22c-1.25,0-1.72,1.24-1.72,2.83s0.47,2.85,1.72,2.85c1.24,0,1.7-1.25,1.7-2.85
			S24.27,2000.22,23.03,2000.22z"/>
		<path class="st3" d="M31.09,1998.58c2.47,0,3.59,2.24,3.59,4.47s-1.12,4.49-3.59,4.49c-2.48,0-3.59-2.25-3.59-4.49
			S28.61,1998.58,31.09,1998.58z M31.09,2000.22c-1.25,0-1.72,1.24-1.72,2.83s0.47,2.85,1.72,2.85c1.24,0,1.7-1.25,1.7-2.85
			S32.33,2000.22,31.09,2000.22z"/>
		<path class="st3" d="M39.27,1998.71h1.65v8.67h-1.65V1998.71z"/>
		<path class="st3" d="M42.39,1999.19c0-0.55,0.46-0.99,0.99-0.99c0.55,0,0.99,0.44,0.99,0.99c0,0.55-0.44,0.99-0.99,0.99
			C42.84,2000.18,42.39,1999.74,42.39,1999.19z M42.56,2001.1h1.65v6.28h-1.65V2001.1z"/>
		<path class="st3" d="M48.25,2004.96l-0.75,0.81v1.61h-1.65v-8.67h1.65v5.19l2.38-2.79h2.03l-2.48,2.85l2.56,3.43h-2.07
			L48.25,2004.96z"/>
		<path class="st3" d="M55.38,2000.95c1.87,0,3.15,1.4,3.15,3.46v0.36h-4.67c0.1,0.79,0.74,1.46,1.81,1.46
			c0.58,0,1.27-0.23,1.68-0.62l0.73,1.07c-0.62,0.57-1.61,0.87-2.59,0.87c-1.91,0-3.35-1.29-3.35-3.3
			C52.13,2002.41,53.47,2000.95,55.38,2000.95z M53.83,2003.65h3.09c-0.04-0.6-0.46-1.39-1.55-1.39
			C54.35,2002.26,53.91,2003.03,53.83,2003.65z"/>
		<path class="st3" d="M59.89,2005.4c0.46,0.43,1.39,0.86,2.17,0.86c0.71,0,1.05-0.25,1.05-0.64c0-0.44-0.55-0.6-1.26-0.74
			c-1.08-0.21-2.47-0.47-2.47-1.96c0-1.05,0.92-1.98,2.57-1.98c1.07,0,1.91,0.36,2.54,0.86l-0.66,1.13
			c-0.38-0.4-1.09-0.73-1.86-0.73c-0.6,0-0.99,0.22-0.99,0.58c0,0.39,0.49,0.53,1.2,0.68c1.08,0.21,2.52,0.49,2.52,2.05
			c0,1.14-0.97,2.02-2.72,2.02c-1.09,0-2.14-0.36-2.81-0.98L59.89,2005.4z"/>
	</g>
	<g>
		<path class="st3" d="M15.61,2025.37c-0.43,0.48-1.18,0.95-2.21,0.95c-1.38,0-2.03-0.75-2.03-1.98v-4.46h1.65v3.81
			c0,0.87,0.46,1.16,1.16,1.16c0.64,0,1.14-0.35,1.43-0.71v-4.25h1.65v6.28h-1.65V2025.37z"/>
		<path class="st3" d="M19.07,2024.19c0.45,0.43,1.39,0.86,2.17,0.86c0.71,0,1.05-0.25,1.05-0.64c0-0.44-0.55-0.6-1.26-0.74
			c-1.08-0.21-2.47-0.47-2.47-1.96c0-1.05,0.92-1.98,2.57-1.98c1.07,0,1.91,0.36,2.54,0.86l-0.66,1.13
			c-0.38-0.4-1.09-0.73-1.86-0.73c-0.6,0-0.99,0.22-0.99,0.58c0,0.39,0.49,0.53,1.2,0.68c1.08,0.21,2.52,0.49,2.52,2.05
			c0,1.14-0.98,2.02-2.72,2.02c-1.09,0-2.15-0.36-2.81-0.98L19.07,2024.19z"/>
		<path class="st3" d="M27.95,2019.73c1.87,0,3.15,1.4,3.15,3.46v0.36h-4.67c0.1,0.79,0.74,1.46,1.81,1.46
			c0.58,0,1.27-0.23,1.68-0.62l0.73,1.07c-0.62,0.57-1.61,0.87-2.59,0.87c-1.91,0-3.35-1.29-3.35-3.3
			C24.7,2021.2,26.04,2019.73,27.95,2019.73z M26.4,2022.43h3.09c-0.04-0.6-0.46-1.39-1.55-1.39
			C26.92,2021.04,26.48,2021.81,26.4,2022.43z"/>
		<path class="st3" d="M32.29,2019.88h1.65v0.86c0.44-0.56,1.22-1,2-1v1.61c-0.12-0.03-0.27-0.05-0.46-0.05
			c-0.55,0-1.27,0.31-1.55,0.71v4.15h-1.65L32.29,2019.88L32.29,2019.88z"/>
	</g>
	<g>
		<path class="st3" d="M43.05,2018.61h-2.74v-0.96h6.58v0.96h-2.76v7.71h-1.08C43.05,2026.32,43.05,2018.61,43.05,2018.61z"/>
		<path class="st3" d="M52.53,2022.19c0-1.11-0.57-1.43-1.42-1.43c-0.75,0-1.48,0.47-1.86,0.98v4.59h-0.98v-8.67h0.98v3.3
			c0.44-0.52,1.3-1.07,2.25-1.07c1.31,0,2,0.64,2,2v4.43h-0.98L52.53,2022.19L52.53,2022.19z"/>
		<path class="st3" d="M55.29,2018.33c0-0.36,0.3-0.65,0.65-0.65c0.36,0,0.66,0.29,0.66,0.65s-0.3,0.66-0.66,0.66
			S55.29,2018.69,55.29,2018.33z M55.45,2020.04h0.98v6.28h-0.98V2020.04z"/>
		<path class="st3" d="M58.34,2024.79c0.42,0.48,1.21,0.9,2.07,0.9c0.96,0,1.48-0.43,1.48-1.04c0-0.69-0.77-0.91-1.61-1.12
			c-1.07-0.25-2.27-0.53-2.27-1.83c0-0.98,0.84-1.81,2.34-1.81c1.07,0,1.82,0.4,2.33,0.91l-0.46,0.68
			c-0.38-0.45-1.07-0.79-1.87-0.79c-0.86,0-1.39,0.39-1.39,0.95c0,0.61,0.72,0.81,1.53,1c1.09,0.25,2.35,0.56,2.35,1.95
			c0,1.05-0.84,1.9-2.47,1.9c-1.03,0-1.9-0.31-2.54-0.99L58.34,2024.79z"/>
		<path class="st3" d="M67.61,2018.33c0-0.36,0.3-0.65,0.65-0.65c0.36,0,0.66,0.29,0.66,0.65s-0.3,0.66-0.66,0.66
			C67.91,2018.99,67.61,2018.69,67.61,2018.33z M67.78,2020.04h0.98v6.28h-0.98V2020.04z"/>
		<path class="st3" d="M70.66,2024.79c0.42,0.48,1.21,0.9,2.07,0.9c0.96,0,1.48-0.43,1.48-1.04c0-0.69-0.77-0.91-1.61-1.12
			c-1.07-0.25-2.27-0.53-2.27-1.83c0-0.98,0.84-1.81,2.34-1.81c1.07,0,1.82,0.4,2.33,0.91l-0.46,0.68
			c-0.38-0.45-1.07-0.79-1.87-0.79c-0.86,0-1.39,0.39-1.39,0.95c0,0.61,0.72,0.81,1.53,1c1.09,0.25,2.35,0.56,2.35,1.95
			c0,1.05-0.84,1.9-2.47,1.9c-1.03,0-1.9-0.31-2.53-0.99L70.66,2024.79z"/>
		<path class="st3" d="M84.03,2025.61c-0.52,0.57-1.24,0.87-2.08,0.87c-1.07,0-2.2-0.71-2.2-2.08c0-1.4,1.13-2.07,2.2-2.07
			c0.86,0,1.57,0.27,2.08,0.86v-1.13c0-0.84-0.68-1.33-1.59-1.33c-0.75,0-1.36,0.27-1.92,0.87l-0.46-0.68
			c0.68-0.7,1.48-1.04,2.51-1.04c1.33,0,2.43,0.6,2.43,2.12v4.32h-0.98L84.03,2025.61L84.03,2025.61z M84.03,2023.81
			c-0.38-0.52-1.04-0.78-1.73-0.78c-0.91,0-1.55,0.57-1.55,1.38c0,0.79,0.64,1.37,1.55,1.37c0.69,0,1.35-0.26,1.73-0.78V2023.81z"/>
		<path class="st3" d="M93.08,2019.88c1.14,0,1.82,0.47,2.3,1.09l-0.65,0.6c-0.42-0.57-0.95-0.82-1.6-0.82
			c-1.34,0-2.17,1.03-2.17,2.42s0.83,2.43,2.17,2.43c0.65,0,1.18-0.26,1.6-0.82l0.65,0.6c-0.48,0.62-1.16,1.09-2.3,1.09
			c-1.87,0-3.13-1.43-3.13-3.3C89.94,2021.32,91.2,2019.88,93.08,2019.88z"/>
		<path class="st3" d="M100.67,2025.61c-0.52,0.57-1.24,0.87-2.08,0.87c-1.07,0-2.2-0.71-2.2-2.08c0-1.4,1.13-2.07,2.2-2.07
			c0.86,0,1.57,0.27,2.08,0.86v-1.13c0-0.84-0.68-1.33-1.59-1.33c-0.75,0-1.36,0.27-1.92,0.87l-0.46-0.68
			c0.68-0.7,1.48-1.04,2.51-1.04c1.33,0,2.43,0.6,2.43,2.12v4.32h-0.98L100.67,2025.61L100.67,2025.61z M100.67,2023.81
			c-0.38-0.52-1.04-0.78-1.73-0.78c-0.91,0-1.55,0.57-1.55,1.38c0,0.79,0.64,1.37,1.55,1.37c0.69,0,1.35-0.26,1.73-0.78V2023.81z"/>
		<path class="st3" d="M103.59,2028.71v-8.67h0.98v0.94c0.46-0.64,1.23-1.09,2.12-1.09c1.65,0,2.79,1.25,2.79,3.29
			c0,2.03-1.14,3.3-2.79,3.3c-0.86,0-1.61-0.4-2.12-1.11v3.34H103.59z M106.44,2020.76c-0.77,0-1.53,0.46-1.87,1v2.83
			c0.34,0.55,1.1,1.01,1.87,1.01c1.26,0,2.02-1.04,2.02-2.43C108.45,2021.78,107.7,2020.76,106.44,2020.76z"/>
		<path class="st3" d="M111.25,2025.01v-4.11h-1.04v-0.86h1.04v-1.72h0.98v1.72h1.27v0.86h-1.27v3.9c0,0.47,0.21,0.81,0.64,0.81
			c0.27,0,0.53-0.12,0.66-0.26l0.29,0.73c-0.25,0.23-0.6,0.4-1.17,0.4C111.72,2026.48,111.25,2025.94,111.25,2025.01z"/>
		<path class="st3" d="M114.71,2018.33c0-0.36,0.3-0.65,0.65-0.65c0.36,0,0.66,0.29,0.66,0.65s-0.3,0.66-0.66,0.66
			C115.01,2018.99,114.71,2018.69,114.71,2018.33z M114.88,2020.04h0.98v6.28h-0.98V2020.04z"/>
		<path class="st3" d="M117.44,2023.17c0-1.82,1.2-3.29,3.11-3.29s3.11,1.47,3.11,3.29c0,1.82-1.2,3.3-3.11,3.3
			S117.44,2024.99,117.44,2023.17z M122.62,2023.17c0-1.27-0.74-2.42-2.08-2.42c-1.34,0-2.09,1.14-2.09,2.42
			c0,1.29,0.75,2.43,2.09,2.43C121.88,2025.61,122.62,2024.46,122.62,2023.17z"/>
		<path class="st3" d="M129.47,2022.21c0-1.1-0.56-1.46-1.4-1.46c-0.77,0-1.5,0.47-1.86,0.98v4.59h-0.98v-6.28h0.98v0.91
			c0.44-0.52,1.3-1.07,2.24-1.07c1.31,0,2,0.66,2,2.03v4.41h-0.98L129.47,2022.21L129.47,2022.21z"/>
	</g>
	<g>
		<path class="st7" d="M11.69,2040.76h1.23l2.93,7.49l2.92-7.49h1.24l-3.5,8.67h-1.34L11.69,2040.76z"/>
		<path class="st7" d="M20.94,2041.44c0-0.36,0.3-0.65,0.65-0.65c0.36,0,0.66,0.29,0.66,0.65s-0.3,0.66-0.66,0.66
			S20.94,2041.8,20.94,2041.44z M21.1,2043.15h0.98v6.28H21.1V2043.15z"/>
		<path class="st7" d="M26.76,2043c1.9,0,3.02,1.48,3.02,3.37v0.25H24.7c0.08,1.18,0.91,2.17,2.26,2.17c0.71,0,1.44-0.29,1.94-0.79
			l0.47,0.64c-0.62,0.62-1.47,0.96-2.5,0.96c-1.86,0-3.2-1.34-3.2-3.3C23.67,2044.47,24.97,2043,26.76,2043z M24.69,2045.9h4.12
			c-0.01-0.94-0.64-2.09-2.07-2.09C25.41,2043.8,24.74,2044.94,24.69,2045.9z"/>
		<path class="st7" d="M35.14,2044.39l-1.63,5.04h-0.98l-2-6.28h1.01l1.53,5l1.65-5h0.83l1.65,5l1.53-5h1.01l-2,6.28h-0.98
			L35.14,2044.39z"/>
		<path class="st7" d="M48.17,2048.72c-0.52,0.57-1.24,0.87-2.08,0.87c-1.07,0-2.2-0.71-2.2-2.08c0-1.4,1.13-2.07,2.2-2.07
			c0.86,0,1.57,0.27,2.08,0.86v-1.13c0-0.85-0.68-1.33-1.59-1.33c-0.75,0-1.36,0.27-1.92,0.87l-0.46-0.68
			c0.68-0.7,1.48-1.04,2.51-1.04c1.33,0,2.43,0.6,2.43,2.12v4.32h-0.97C48.17,2049.43,48.17,2048.72,48.17,2048.72z M48.17,2046.92
			c-0.38-0.52-1.04-0.78-1.73-0.78c-0.91,0-1.55,0.57-1.55,1.38c0,0.79,0.64,1.37,1.55,1.37c0.69,0,1.35-0.26,1.73-0.78V2046.92z"/>
		<path class="st7" d="M51.1,2040.76h0.98v8.67H51.1V2040.76z"/>
		<path class="st7" d="M54.02,2040.76H55v8.67h-0.98V2040.76z"/>
		<path class="st7" d="M60.84,2047.48c0.57,0.73,1.33,1.14,2.39,1.14c1.18,0,2-0.81,2-1.86c0-1.14-0.82-1.87-1.99-1.87
			c-0.77,0-1.42,0.25-2,0.82l-0.79-0.27v-4.68h5.3v0.96h-4.23v3.02c0.42-0.42,1.16-0.78,2.03-0.78c1.44,0,2.76,0.99,2.76,2.77
			c0,1.77-1.34,2.86-3.08,2.86c-1.47,0-2.41-0.53-3.06-1.39L60.84,2047.48z"/>
		<path class="st7" d="M70.97,2040.63c2.37,0,3.32,2.35,3.32,4.47c0,2.11-0.95,4.49-3.32,4.49c-2.38,0-3.31-2.38-3.31-4.49
			S68.59,2040.63,70.97,2040.63z M70.97,2041.59c-1.65,0-2.21,1.78-2.21,3.51c0,1.73,0.56,3.52,2.21,3.52s2.21-1.79,2.21-3.52
			S72.62,2041.59,70.97,2041.59z"/>
		<path class="st7" d="M82.05,2043c1.14,0,1.82,0.47,2.3,1.09l-0.65,0.6c-0.42-0.57-0.95-0.82-1.6-0.82c-1.34,0-2.17,1.03-2.17,2.42
			s0.83,2.43,2.17,2.43c0.65,0,1.18-0.26,1.6-0.82l0.65,0.6c-0.48,0.62-1.16,1.09-2.3,1.09c-1.87,0-3.13-1.43-3.13-3.3
			C78.91,2044.43,80.18,2043,82.05,2043z"/>
		<path class="st7" d="M85.35,2046.29c0-1.82,1.2-3.29,3.11-3.29s3.11,1.47,3.11,3.29s-1.2,3.3-3.11,3.3
			S85.35,2048.11,85.35,2046.29z M90.54,2046.29c0-1.27-0.74-2.42-2.08-2.42c-1.34,0-2.09,1.14-2.09,2.42
			c0,1.29,0.75,2.43,2.09,2.43C89.8,2048.72,90.54,2047.57,90.54,2046.29z"/>
		<path class="st7" d="M100.73,2045.17c0-0.79-0.35-1.3-1.16-1.3c-0.65,0-1.34,0.47-1.66,0.96v4.6h-0.98v-4.26
			c0-0.79-0.34-1.3-1.16-1.3c-0.64,0-1.31,0.47-1.65,0.98v4.59h-0.98v-6.28h0.98v0.91c0.26-0.4,1.1-1.07,2.03-1.07
			c0.96,0,1.51,0.52,1.69,1.17c0.35-0.57,1.2-1.17,2.11-1.17c1.14,0,1.75,0.64,1.75,1.9v4.54h-0.98v-4.27H100.73z"/>
		<path class="st7" d="M111.23,2045.17c0-0.79-0.35-1.3-1.16-1.3c-0.65,0-1.34,0.47-1.66,0.96v4.6h-0.98v-4.26
			c0-0.79-0.34-1.3-1.16-1.3c-0.64,0-1.31,0.47-1.65,0.98v4.59h-0.98v-6.28h0.98v0.91c0.26-0.4,1.1-1.07,2.03-1.07
			c0.96,0,1.51,0.52,1.69,1.17c0.35-0.57,1.2-1.17,2.11-1.17c1.14,0,1.75,0.64,1.75,1.9v4.54h-0.98v-4.27H111.23z"/>
		<path class="st7" d="M116.89,2043c1.9,0,3.02,1.48,3.02,3.37v0.25h-5.08c0.08,1.18,0.91,2.17,2.26,2.17
			c0.72,0,1.44-0.29,1.94-0.79l0.47,0.64c-0.62,0.62-1.47,0.96-2.5,0.96c-1.86,0-3.2-1.34-3.2-3.3
			C113.79,2044.47,115.09,2043,116.89,2043z M114.82,2045.9h4.12c-0.01-0.94-0.64-2.09-2.07-2.09
			C115.54,2043.8,114.87,2044.94,114.82,2045.9z"/>
		<path class="st7" d="M125.72,2045.33c0-1.1-0.56-1.46-1.4-1.46c-0.77,0-1.5,0.47-1.86,0.98v4.59h-0.98v-6.28h0.98v0.91
			c0.44-0.52,1.3-1.07,2.24-1.07c1.31,0,2,0.66,2,2.03v4.41h-0.98C125.72,2049.44,125.72,2045.33,125.72,2045.33z"/>
		<path class="st7" d="M128.83,2048.12v-4.11h-1.04v-0.86h1.04v-1.72h0.98v1.72h1.27v0.86h-1.27v3.9c0,0.47,0.21,0.81,0.64,0.81
			c0.27,0,0.53-0.12,0.66-0.26l0.29,0.73c-0.25,0.23-0.6,0.4-1.17,0.4C129.3,2049.59,128.83,2049.06,128.83,2048.12z"/>
		<path class="st7" d="M132.42,2047.9c0.42,0.48,1.21,0.9,2.07,0.9c0.96,0,1.48-0.43,1.48-1.04c0-0.69-0.77-0.91-1.61-1.12
			c-1.07-0.25-2.27-0.53-2.27-1.83c0-0.98,0.84-1.81,2.34-1.81c1.07,0,1.82,0.4,2.33,0.91l-0.46,0.68
			c-0.38-0.46-1.07-0.79-1.87-0.79c-0.86,0-1.39,0.39-1.39,0.95c0,0.61,0.72,0.81,1.53,1c1.09,0.25,2.35,0.56,2.35,1.95
			c0,1.05-0.84,1.9-2.47,1.9c-1.03,0-1.9-0.31-2.53-0.99L132.42,2047.9z"/>
	</g>
	<g>
	</g>
	<g>
	</g>
	<g>
	</g>
	<g>
	</g>
	<g>
	</g>
	<g>
	</g>
</g>
</svg>
